<?xml version="1.0" standalone="no"?>
<!DOCTYPE svg PUBLIC "-//W3C//DTD SVG 1.1//EN" "http://www.w3.org/Graphics/SVG/1.1/DTD/svg11.dtd" >
<svg xmlns="http://www.w3.org/2000/svg">
<metadata></metadata>
<defs>
<font id="segoe_prosemibold" horiz-adv-x="1438" >
<font-face units-per-em="2048" ascent="1638" descent="-410" />
<missing-glyph horiz-adv-x="479" />
<glyph horiz-adv-x="0" />
<glyph unicode="&#xd;" horiz-adv-x="0" />
<glyph unicode=" "  horiz-adv-x="479" />
<glyph unicode="&#x09;" horiz-adv-x="479" />
<glyph unicode="&#xa0;" horiz-adv-x="479" />
<glyph unicode="!" horiz-adv-x="610" d="M162 117q0 58 42 97.5t101 39.5q63 0 102 -41.5t39 -95.5q0 -56 -39 -96.5t-102 -40.5q-60 0 -101.5 40.5t-41.5 96.5zM209 418v1016h215l-27 -1016h-188z" />
<glyph unicode="&#x22;" horiz-adv-x="874" d="M195 995v445h172v-445h-172zM522 995v445h174l-16 -445h-158z" />
<glyph unicode="#" horiz-adv-x="1204" d="M27 502l26 137h236l55 268h-248l25 140h250l80 385h165l-77 -385h237l84 385h160l-80 -385h234l-29 -140h-234l-55 -268h254l-33 -137h-250l-84 -381h-163l82 381h-238l-82 -381h-162l80 381h-233zM451 639h241l58 268h-242z" />
<glyph unicode="$" horiz-adv-x="1143" d="M150 1049q0 149 104.5 258t269.5 129v182h125v-176q79 -2 169 -23.5t120 -42.5v-219q-51 37 -126 64.5t-163 33.5v-456q211 -87 298 -185.5t87 -228.5q0 -154 -99.5 -250t-285.5 -125v-219h-125v209q-102 2 -208.5 29.5t-153.5 62.5v227q54 -50 162.5 -89t199.5 -42v439 q-159 66 -229.5 121.5t-107.5 128t-37 172.5zM369 1071q0 -77 35.5 -124t119.5 -91v393q-69 -15 -112 -60.5t-43 -117.5zM649 197q78 15 122 61.5t44 112.5q0 60 -38.5 109t-127.5 93v-376z" />
<glyph unicode="%" horiz-adv-x="1729" d="M82 1065q0 178 95.5 283.5t256.5 105.5q155 0 240.5 -93t85.5 -267q0 -176 -96.5 -280.5t-253.5 -104.5q-149 0 -238.5 96.5t-89.5 259.5zM254 1077q0 -108 44.5 -167.5t123.5 -59.5q78 0 123 60t45 175q0 107 -43.5 167.5t-120.5 60.5q-78 0 -125 -59.5t-47 -176.5z M295 0l942 1434h188l-942 -1434h-188zM969 336q0 179 95 284t257 105q155 0 240.5 -93t85.5 -267q0 -176 -96.5 -280.5t-254.5 -104.5q-146 0 -236.5 96t-90.5 260zM1141 348q0 -115 47 -171t121 -56q78 0 124 59.5t46 177.5q0 108 -45 167t-121 59q-78 0 -125 -59.5 t-47 -176.5z" />
<glyph unicode="&#x26;" horiz-adv-x="1466" d="M102 365q0 121 76.5 222t249.5 193q-81 101 -115 180t-34 154q0 152 111.5 248t285.5 96q109 0 192 -40t127.5 -110.5t44.5 -156.5q0 -127 -65 -212t-242 -175q261 -279 322 -340q38 48 68 149.5t30 188.5h201q0 -135 -48 -261.5t-128 -215.5l272 -285h-295l-129 135 q-194 -160 -457 -160q-142 0 -247.5 48.5t-162.5 138t-57 203.5zM332 379q0 -101 70.5 -162t172.5 -61q101 0 179 25t151 85l-364 389q-119 -65 -164 -128.5t-45 -147.5zM492 1116q0 -48 28 -101t103 -134q111 54 163 115.5t52 136.5q0 64 -47 110.5t-111 46.5 q-88 0 -138 -46.5t-50 -127.5z" />
<glyph unicode="'" horiz-adv-x="520" d="M182 995v445h172v-445h-172z" />
<glyph unicode="(" horiz-adv-x="676" d="M141 549q0 261 77.5 476.5t240.5 408.5h196q-161 -206 -235 -417t-74 -468q0 -491 309 -875h-196q-156 172 -237 394.5t-81 480.5z" />
<glyph unicode=")" horiz-adv-x="676" d="M20 -326q312 380 312 875q0 261 -75 472t-237 413h197q164 -195 241 -411t77 -474q0 -259 -81 -479.5t-237 -395.5h-197z" />
<glyph unicode="*" horiz-adv-x="887" d="M76 1081l59 162l250 -102l-31 293h181l-31 -293l250 102l59 -162l-268 -45l188 -225l-143 -98l-146 256l-143 -256l-145 98l190 225z" />
<glyph unicode="+" d="M240 510v168h395v397h170v-397h395v-168h-395v-395h-170v395h-395z" />
<glyph unicode="," horiz-adv-x="479" d="M37 -266l102 502h217l-151 -502h-168z" />
<glyph unicode="-" horiz-adv-x="823" d="M141 469v170h547v-170h-547z" />
<glyph unicode="." horiz-adv-x="479" d="M94 113q0 60 43 99.5t103 39.5t101.5 -40.5t41.5 -98.5t-40.5 -98t-104.5 -40q-60 0 -102 41.5t-42 96.5z" />
<glyph unicode="/" horiz-adv-x="850" d="M-35 -238l688 1672h213l-688 -1672h-213z" />
<glyph unicode="0" horiz-adv-x="1143" d="M78 690q0 377 131 572.5t381 195.5q475 0 475 -733q0 -360 -132 -555t-374 -195q-233 0 -357 184.5t-124 530.5zM313 696q0 -264 66.5 -398t195.5 -134q126 0 189 139t63 406h2q0 287 -60.5 424t-188.5 137q-267 0 -267 -574z" />
<glyph unicode="1" horiz-adv-x="824" d="M82 1050v198q136 45 236.5 96.5t198.5 121.5h98v-1466h-232v1182q-119 -85 -301 -132z" />
<glyph unicode="2" horiz-adv-x="1137" d="M98 0v111q0 126 72 242.5t265 270.5q124 98 185 158.5t91 124t30 133.5q0 108 -63.5 168t-171.5 60q-88 0 -179 -41t-175 -123v223q89 67 182.5 99t213.5 32q201 0 314.5 -103.5t113.5 -290.5q0 -109 -36.5 -199t-112.5 -171.5t-269 -231.5q-112 -87 -159.5 -147 t-47.5 -111v-5h647v-199h-900z" />
<glyph unicode="3" horiz-adv-x="1143" d="M141 53v228q64 -52 158 -84.5t182 -32.5q135 0 215 65t80 174q0 117 -93.5 178.5t-268.5 61.5h-125v191h119q152 0 235.5 57.5t83.5 167.5q0 101 -65 156t-183 55q-152 0 -284 -103v211q63 36 154.5 58t189.5 22q129 0 225.5 -45t147.5 -125t51 -180q0 -139 -74.5 -229 t-210.5 -127v-4q155 -18 245.5 -109t90.5 -229q0 -195 -143 -315t-388 -120q-98 0 -196.5 23t-145.5 55z" />
<glyph unicode="4" horiz-adv-x="1180" d="M52 315v195q207 233 379 479.5t261 444.5h234v-926h213v-193h-213v-315h-225v315h-649zM286 508h415v602q-109 -196 -215.5 -342t-199.5 -260z" />
<glyph unicode="5" horiz-adv-x="1137" d="M155 33v223q141 -95 286 -95q146 0 235 74.5t89 198.5q0 122 -90.5 190t-259.5 68q-58 0 -235 -12l51 754h706v-198h-513l-24 -359l125 4q228 0 352.5 -117t124.5 -320q0 -213 -142.5 -341.5t-391.5 -128.5q-210 0 -313 59z" />
<glyph unicode="6" horiz-adv-x="1143" d="M102 635q0 247 76 433.5t217 288t322 101.5q168 0 254 -41v-209q-122 62 -242 62q-176 0 -281.5 -146.5t-107.5 -392.5h6q45 82 128 128t181 46q189 0 299.5 -119.5t110.5 -324.5q0 -140 -61 -251.5t-169 -173t-241 -61.5q-228 0 -360 174t-132 486zM350 469 q0 -80 31 -150.5t86.5 -111.5t128.5 -41q109 0 172 76t63 200q0 132 -62 204.5t-175 72.5q-107 0 -175.5 -71t-68.5 -179z" />
<glyph unicode="7" horiz-adv-x="1098" d="M70 1236v198h958v-116q-233 -427 -346 -731.5t-156 -586.5h-243q40 254 147 545t319 691h-679z" />
<glyph unicode="8" horiz-adv-x="1137" d="M91 400q0 134 66 233.5t184 144.5q-93 52 -148 133.5t-55 180.5q0 157 122 261.5t306 104.5q183 0 306 -103.5t123 -262.5q0 -99 -55 -180.5t-146 -133.5q119 -46 186 -145t67 -233q0 -122 -60 -219t-170 -150.5t-248 -53.5q-137 0 -247 54t-170.5 150.5t-60.5 218.5z M317 420q0 -121 68.5 -192t183.5 -71q113 0 182.5 73.5t69.5 189.5q0 115 -71 190.5t-181 75.5q-111 0 -181.5 -76t-70.5 -190zM366 1068q0 -87 57.5 -149t143.5 -62q83 0 142.5 61.5t59.5 149.5q0 91 -58 151t-144 60q-88 0 -144.5 -61t-56.5 -150z" />
<glyph unicode="9" horiz-adv-x="1143" d="M86 969q0 218 135.5 353.5t347.5 135.5q148 0 255.5 -77t165 -226.5t57.5 -359.5q0 -260 -72 -444t-207.5 -280t-321.5 -96q-72 0 -152.5 16t-127.5 38v209q52 -32 128.5 -53t143.5 -21q177 0 276 134t99 380h-2l-2 2q-39 -70 -121 -114t-178 -44q-121 0 -218.5 56.5 t-151.5 158.5t-54 232zM319 993q0 -130 67.5 -205t184.5 -75q98 0 165 67.5t67 167.5h2q0 142 -69 231t-179 89q-102 0 -170 -78t-68 -197z" />
<glyph unicode=":" horiz-adv-x="479" d="M94 113q0 60 43 99.5t103 39.5t101.5 -40.5t41.5 -98.5t-40.5 -98t-104.5 -40q-60 0 -102 41.5t-42 96.5zM94 907q0 58 43 97.5t103 39.5q61 0 102 -39.5t41 -97.5q0 -57 -40.5 -97t-104.5 -40q-61 0 -102.5 41t-41.5 96z" />
<glyph unicode=";" horiz-adv-x="479" d="M37 -266l102 502h217l-151 -502h-168zM96 907q0 57 42 97t104 40q61 0 102 -39.5t41 -97.5q0 -57 -40.5 -97t-104.5 -40q-61 0 -102.5 41t-41.5 96z" />
<glyph unicode="&#x3c;" d="M274 530v105l891 473v-193l-641 -325v-4l641 -295v-193z" />
<glyph unicode="=" d="M240 289v170h960v-170h-960zM240 729v170h960v-170h-960z" />
<glyph unicode="&#x3e;" d="M274 100v195l641 291v4l-641 328v194l891 -473v-104z" />
<glyph unicode="?" horiz-adv-x="924" d="M125 1133v237q75 47 153 69.5t173 22.5q181 0 288 -97t107 -259q0 -115 -48.5 -203.5t-144.5 -169.5q-94 -79 -124.5 -127t-30.5 -123v-69h-203v82q0 96 37 167t127 146q90 73 127 133.5t37 138.5q0 82 -57 134.5t-146 52.5q-166 0 -295 -135zM254 117q0 57 42 97t103 40 q62 0 102 -40.5t40 -96.5t-40.5 -96.5t-101.5 -40.5q-60 0 -102.5 39.5t-42.5 97.5z" />
<glyph unicode="@" horiz-adv-x="1962" d="M162 598q0 239 108.5 436.5t303 307.5t436.5 110q223 0 406 -89t286.5 -251t103.5 -371q0 -165 -58 -293t-158.5 -199t-217.5 -71q-106 0 -162.5 60t-56.5 163h-4q-32 -108 -106.5 -164.5t-170.5 -56.5q-139 0 -222 102t-83 273q0 146 53 266t149 187t214 67 q72 0 124.5 -35t66.5 -90h4l10 109h168q-4 -70 -24 -280q-21 -217 -21 -273q0 -92 22 -137t74 -45q60 0 111 50t80.5 143t29.5 208q0 172 -80 308.5t-219.5 205t-320.5 68.5q-185 0 -339 -91.5t-240.5 -254.5t-86.5 -357q0 -191 79.5 -338.5t230 -228t345.5 -80.5 q119 0 218.5 19t199.5 63v-156q-172 -71 -434 -71q-239 0 -426 98t-290 278t-103 410zM750 551q0 -102 45 -164.5t120 -62.5q110 0 174 110.5t64 302.5q0 93 -43.5 144t-116.5 51q-71 0 -126.5 -52t-86 -140.5t-30.5 -188.5z" />
<glyph unicode="A" horiz-adv-x="1368" d="M8 0l543 1434h264l545 -1434h-262l-131 362h-574l-125 -362h-260zM459 563h440l-197 553q-10 26 -20 103h-6q-7 -60 -21 -103z" />
<glyph unicode="B" horiz-adv-x="1237" d="M182 0v1434h453q206 0 325 -89t119 -241q0 -116 -71 -206t-187 -126v-4q153 -20 239.5 -113t86.5 -237q0 -188 -138.5 -303t-357.5 -115h-469zM420 197h201q128 0 201 61.5t73 165.5q0 103 -74 161t-221 58h-180v-446zM420 840h153q121 0 187.5 56.5t66.5 162.5 q0 85 -63.5 131.5t-188.5 46.5h-155v-397z" />
<glyph unicode="C" horiz-adv-x="1272" d="M84 688q0 223 96 400t268.5 273.5t382.5 96.5q90 0 187 -15t162 -44v-242q-153 90 -342 90q-147 0 -262.5 -67t-178.5 -190.5t-63 -287.5q0 -238 130 -377t347 -139q211 0 369 101v-226q-73 -40 -183.5 -63t-224.5 -23q-208 0 -365 88.5t-240 251t-83 373.5z" />
<glyph unicode="D" horiz-adv-x="1477" d="M182 0v1434h443q384 0 576 -178t192 -521q0 -219 -95.5 -386t-273.5 -258t-410 -91h-432zM420 205h192q251 0 390 139.5t139 386.5q0 241 -137 369.5t-388 128.5h-196v-1024z" />
<glyph unicode="E" horiz-adv-x="1059" d="M182 0v1434h776v-205h-538v-404h500v-204h-500v-416h571v-205h-809z" />
<glyph unicode="F" horiz-adv-x="1034" d="M182 0v1434h776v-205h-538v-424h498v-205h-498v-600h-238z" />
<glyph unicode="G" horiz-adv-x="1434" d="M84 696q0 220 98 394.5t274 271t396 96.5q111 0 225 -21t178 -51v-245q-69 47 -177 78.5t-240 31.5q-142 0 -257.5 -67.5t-180 -190.5t-64.5 -282q0 -248 128 -388.5t353 -140.5q136 0 242 54v339h-297v205h536v-682q-211 -123 -499 -123q-212 0 -375.5 89t-251.5 253 t-88 379z" />
<glyph unicode="H" horiz-adv-x="1511" d="M182 0v1434h238v-603h670v603h239v-1434h-239v621h-670v-621h-238z" />
<glyph unicode="I" horiz-adv-x="602" d="M182 0v1434h238v-1434h-238z" />
<glyph unicode="J" horiz-adv-x="811" d="M27 8v230q31 -25 75.5 -38.5t85.5 -13.5q106 0 160.5 90.5t54.5 262.5v895h238v-897q0 -176 -54 -302t-156 -193t-236 -67q-100 0 -168 33z" />
<glyph unicode="K" horiz-adv-x="1266" d="M182 0v1434h238v-676h4l41 63l477 613h291l-574 -684l617 -750h-318l-493 635l-41 65h-4v-700h-238z" />
<glyph unicode="L" horiz-adv-x="1001" d="M182 0v1434h238v-1229h561v-205h-799z" />
<glyph unicode="M" horiz-adv-x="1915" d="M182 0v1434h340l365 -906q52 -131 65 -198h6l76 200l375 904h326v-1434h-236v913q0 104 12 308h-4q-20 -108 -41 -160l-434 -1061h-155l-437 1051q-17 53 -41 170h-6q3 -27 6.5 -141t3.5 -197v-883h-221z" />
<glyph unicode="N" horiz-adv-x="1585" d="M182 0v1434h301l648 -1060l45 -79h4q-3 19 -7 101.5t-4 129.5v908h234v-1434h-285l-657 1061q-35 50 -51 98h-7q6 -23 9.5 -110t3.5 -117v-932h-234z" />
<glyph unicode="O" horiz-adv-x="1542" d="M84 698q0 226 85.5 399t245.5 267t373 94q196 0 349 -90t238 -256t85 -381q0 -226 -85.5 -397.5t-245 -265t-365.5 -93.5q-198 0 -353.5 90.5t-241 255.5t-85.5 377zM336 717q0 -158 54.5 -279t153.5 -186.5t224 -65.5q203 0 321.5 137t118.5 386q0 257 -114.5 397.5 t-315.5 140.5q-202 0 -322 -147.5t-120 -382.5z" />
<glyph unicode="P" horiz-adv-x="1194" d="M182 0v1434h443q247 0 379.5 -115t132.5 -330q0 -136 -68 -244.5t-193 -168.5t-286 -60h-170v-516h-238zM420 717h153q148 0 231 67t83 197q0 121 -77.5 186.5t-225.5 65.5h-164v-516z" />
<glyph unicode="Q" horiz-adv-x="1542" d="M84 698q0 225 86 398.5t246.5 267.5t376.5 94q193 0 345.5 -91t237 -257.5t84.5 -378.5q0 -280 -124 -467t-349 -254l367 -364h-322l-282 329q-194 3 -346 93.5t-236 255t-84 374.5zM336 717q0 -243 120 -387t312 -144q203 0 321.5 137t118.5 386q0 254 -113 396 t-317 142q-202 0 -322 -147.5t-120 -382.5z" />
<glyph unicode="R" horiz-adv-x="1231" d="M182 0v1434h463q225 0 349 -102t124 -285q0 -149 -83.5 -253.5t-231.5 -142.5v-4q44 -15 90.5 -67.5t71.5 -110.5l219 -469h-283l-174 414q-70 168 -197 168h-110v-582h-238zM420 782h186q115 0 188.5 67.5t73.5 174.5q0 100 -67.5 155.5t-190.5 55.5h-190v-453z" />
<glyph unicode="S" horiz-adv-x="1044" d="M106 1057q0 115 60 206.5t172 143t254 51.5q93 0 183 -18t128 -37v-250q-57 47 -140.5 74.5t-168.5 27.5q-107 0 -170.5 -50t-63.5 -130q0 -56 21 -96t66 -76t163 -98q190 -99 272.5 -198.5t82.5 -227.5q0 -189 -135 -296.5t-377 -107.5q-90 0 -192 26t-150 58v260 q63 -59 166 -100t202 -41q111 0 170.5 45.5t59.5 132.5q0 75 -59 137t-224 150q-162 85 -241 182.5t-79 231.5z" />
<glyph unicode="T" horiz-adv-x="1124" d="M31 1229v205h1063v-205h-412v-1229h-240v1229h-411z" />
<glyph unicode="U" horiz-adv-x="1454" d="M164 575v859h239v-854q0 -394 330 -394q163 0 240.5 95.5t77.5 283.5v869h239v-840q0 -619 -573 -619q-272 0 -412.5 151t-140.5 449z" />
<glyph unicode="V" horiz-adv-x="1313" d="M8 1434h262l359 -1088q20 -53 28 -129h5q5 65 28 133l363 1084h250l-510 -1434h-275z" />
<glyph unicode="W" horiz-adv-x="1985" d="M16 1434h260l267 -1039q13 -45 20 -155h6q4 59 27 157l289 1037h254l274 -1049q15 -53 23 -143h4q4 71 20 149l258 1043h250l-393 -1434h-281l-270 999q-18 68 -23 152h-4q-2 -35 -10.5 -84.5t-13.5 -67.5l-268 -999h-285z" />
<glyph unicode="X" horiz-adv-x="1270" d="M10 0l479 719l-438 715h293l256 -471q36 -62 49 -107h4q22 56 30.5 73.5t297.5 504.5h268l-448 -711l454 -723h-286l-303 522q-10 19 -14.5 36t-10.5 36h-4q-8 -20 -13 -36.5t-16 -35.5l-309 -522h-289z" />
<glyph unicode="Y" horiz-adv-x="1178" d="M0 1434h270l289 -598q14 -29 20.5 -53t12.5 -40h2q10 46 33 91l299 600h252l-476 -914v-520h-237v514z" />
<glyph unicode="Z" horiz-adv-x="1192" d="M27 0v98l790 1131h-729v205h1069v-88l-790 -1141h776v-205h-1116z" />
<glyph unicode="[" horiz-adv-x="676" d="M203 -326v1760h415v-156h-217v-1448h217v-156h-415z" />
<glyph unicode="\" horiz-adv-x="823" d="M-16 1434h213l665 -1674h-209z" />
<glyph unicode="]" horiz-adv-x="676" d="M59 -170h215v1448h-215v156h414v-1760h-414v156z" />
<glyph unicode="^" d="M213 596l434 862h105l477 -862h-197l-323 610h-7l-296 -610h-193z" />
<glyph unicode="_" horiz-adv-x="850" d="M0 -178h850v-119h-850v119z" />
<glyph unicode="`" horiz-adv-x="594" d="M74 1544h223l231 -325h-170z" />
<glyph unicode="a" horiz-adv-x="1034" d="M68 279q0 144 85 231t250 108l299 41q0 209 -194 209q-94 0 -182.5 -31t-157.5 -83v204q55 35 165.5 63t198.5 28q197 0 296.5 -102.5t99.5 -297.5v-649h-228v141h-4q-107 -166 -303 -166q-151 0 -238 82t-87 222zM295 303q0 -66 48 -105.5t122 -39.5q103 0 170 70.5 t67 177.5v92l-221 -29q-105 -15 -145.5 -52t-40.5 -114z" />
<glyph unicode="b" horiz-adv-x="1235" d="M158 0v1516h231v-656h4q122 189 340 189q131 0 225.5 -62t144.5 -177.5t50 -270.5q0 -257 -126 -410.5t-343 -153.5q-188 0 -291 154h-4v-129h-231zM387 422q0 -109 70.5 -183.5t177.5 -74.5q132 0 205 98t73 281q0 149 -68 233t-188 84q-121 0 -195.5 -85t-74.5 -218 v-135z" />
<glyph unicode="c" horiz-adv-x="963" d="M82 485q0 167 66.5 295t193 198.5t293.5 70.5q65 0 135 -14.5t111 -37.5v-219q-113 82 -236 82q-144 0 -233.5 -96.5t-89.5 -257.5q0 -160 86 -251t233 -91q53 0 119 23t121 63v-207q-118 -68 -291 -68q-148 0 -263.5 64t-180 182t-64.5 264z" />
<glyph unicode="d" horiz-adv-x="1235" d="M82 487q0 255 127.5 408.5t341.5 153.5q97 0 172 -39t119 -113h4v619h231v-1516h-231v160h-4q-110 -185 -336 -185q-194 0 -309 138t-115 374zM322 494q0 -155 70.5 -242.5t191.5 -87.5q112 0 188 88.5t76 230.5v115q0 108 -72.5 185t-179.5 77q-131 0 -202.5 -96 t-71.5 -270z" />
<glyph unicode="e" horiz-adv-x="1079" d="M82 502q0 164 63.5 287t176 191.5t247.5 68.5q212 0 329.5 -130t117.5 -360v-115h-697q7 -140 85 -213t223 -73q87 0 167 27.5t140 70.5v-195q-58 -38 -156 -62t-207 -24q-233 0 -361 139.5t-128 387.5zM319 618h467q0 122 -57 186t-160 64q-94 0 -163 -69.5t-87 -180.5z " />
<glyph unicode="f" horiz-adv-x="711" d="M55 838v186h172v150q0 107 46.5 190.5t131 129.5t191.5 46q85 0 135 -18v-195q-56 25 -110 25q-76 0 -118 -48.5t-42 -142.5v-137h229v-186h-229v-838h-234v838h-172z" />
<glyph unicode="g" horiz-adv-x="1235" d="M82 477q0 264 126.5 418t342.5 154q195 0 291 -152h4v127h231v-928q0 -279 -149.5 -428t-427.5 -149q-93 0 -187.5 18.5t-150.5 46.5v217q100 -55 177.5 -75.5t156.5 -20.5q169 0 259.5 91.5t90.5 266.5v99h-4q-54 -88 -133.5 -137.5t-202.5 -49.5q-192 0 -308 137.5 t-116 364.5zM322 487q0 -148 70.5 -235.5t187.5 -87.5q118 0 193 89t75 228v115q0 110 -72 187t-178 77q-132 0 -204 -95.5t-72 -277.5z" />
<glyph unicode="h" horiz-adv-x="1196" d="M158 0v1516h231v-652h4q115 185 326 185q169 0 257.5 -107t88.5 -313v-629h-234v580q0 138 -46.5 209t-153.5 71q-106 0 -174 -78t-68 -196v-586h-231z" />
<glyph unicode="i" horiz-adv-x="545" d="M135 1386q0 58 41.5 97t99.5 39q61 0 101.5 -40t40.5 -96q0 -57 -41.5 -95t-100.5 -38t-100 38t-41 95zM158 0v1024h231v-1024h-231z" />
<glyph unicode="j" horiz-adv-x="545" d="M-162 -252q71 -41 129 -41q92 0 141.5 79t49.5 224v1014h231v-985q0 -247 -108.5 -383.5t-303.5 -136.5q-31 0 -71 8.5t-68 19.5v201zM135 1386q0 58 41.5 97t99.5 39q61 0 101.5 -40t40.5 -96q0 -57 -41.5 -95t-100.5 -38t-100 38t-41 95z" />
<glyph unicode="k" horiz-adv-x="1092" d="M158 0v1516h231v-959h4l381 467h293l-438 -489l471 -535h-305l-402 492h-4v-492h-231z" />
<glyph unicode="l" horiz-adv-x="545" d="M158 0v1516h231v-1516h-231z" />
<glyph unicode="m" horiz-adv-x="1821" d="M158 0v1024h231v-158h4q109 183 324 183q103 0 180.5 -53t110.5 -148q62 105 146.5 153t197.5 48q163 0 248.5 -99t85.5 -317v-633h-232v578q0 148 -46 215t-157 67q-91 0 -153 -83t-62 -202v-575h-231v598q0 262 -201 262q-96 0 -155.5 -79.5t-59.5 -205.5v-575h-231z " />
<glyph unicode="n" horiz-adv-x="1198" d="M158 0v1024h231v-164h4q115 189 332 189q163 0 252.5 -104t89.5 -316v-629h-231v575q0 144 -48.5 214.5t-156.5 70.5q-105 0 -173.5 -79.5t-68.5 -198.5v-582h-231z" />
<glyph unicode="o" horiz-adv-x="1217" d="M82 500q0 255 144 402t399 147q240 0 375 -140.5t135 -386.5q0 -249 -144 -398t-391 -149q-237 0 -377.5 141.5t-140.5 383.5zM322 508q0 -163 77 -253.5t215 -90.5q139 0 210 89t71 261q0 170 -75.5 258t-207.5 88q-136 0 -213 -92t-77 -260z" />
<glyph unicode="p" horiz-adv-x="1235" d="M158 -471v1495h231v-164h4q122 189 340 189q196 0 308 -137t112 -373q0 -258 -127 -411t-344 -153q-186 0 -289 154h-4v-600h-231zM387 424q0 -113 71 -186.5t177 -73.5q132 0 205 98t73 281q0 148 -67.5 232.5t-188.5 84.5t-195.5 -85t-74.5 -220v-131z" />
<glyph unicode="q" horiz-adv-x="1235" d="M82 485q0 257 127.5 410.5t341.5 153.5q194 0 291 -152h4v127h231v-1495h-231v633h-4q-106 -187 -332 -187q-128 0 -225.5 61.5t-150 177t-52.5 271.5zM322 489q0 -103 32.5 -176t90.5 -111t133 -38q120 0 195 88.5t75 224.5v119q0 110 -73 187t-179 77 q-131 0 -202.5 -95t-71.5 -276z" />
<glyph unicode="r" horiz-adv-x="758" d="M158 0v1024h231v-199h4q34 103 103 160t159 57q60 0 93 -14v-229q-18 13 -59 24t-75 11q-101 0 -163 -86t-62 -224v-524h-231z" />
<glyph unicode="s" horiz-adv-x="834" d="M92 31v221q64 -46 140 -71t137 -25q166 0 166 110q0 39 -16.5 62.5t-57 47t-125.5 58.5q-100 43 -148.5 83t-72 94t-23.5 126q0 138 109 225t282 87q53 0 120.5 -12.5t109.5 -30.5v-209q-47 32 -111 51.5t-127 19.5q-69 0 -109 -31t-40 -79q0 -54 31.5 -84.5t148.5 -77.5 q144 -58 203 -129t59 -174q0 -143 -110 -230.5t-298 -87.5q-61 0 -138.5 16t-129.5 40z" />
<glyph unicode="t" horiz-adv-x="754" d="M49 838v186h170v236l232 71v-307h247v-186h-247v-496q0 -97 35 -137.5t110 -40.5q20 0 50.5 8.5t51.5 22.5v-185q-21 -12 -74.5 -23.5t-103.5 -11.5q-301 0 -301 324v539h-170z" />
<glyph unicode="u" horiz-adv-x="1198" d="M131 403v621h234v-592q0 -268 213 -268q105 0 169 74t64 194v592h233v-1024h-233v154h-4q-47 -83 -127.5 -131t-181.5 -48q-179 0 -273 107t-94 321z" />
<glyph unicode="v" horiz-adv-x="1038" d="M8 1024h254l221 -686q29 -88 35 -166h4q16 95 37 162l229 690h244l-397 -1024h-248z" />
<glyph unicode="w" horiz-adv-x="1556" d="M18 1024h240l182 -723q8 -26 15 -100h6q6 68 18 104l211 719h221l193 -725q7 -32 14 -102h6q8 72 17 102l174 725h223l-301 -1024h-246l-188 680q-7 24 -10.5 55.5t-6.5 50.5h-4q-8 -64 -20 -104l-201 -682h-242z" />
<glyph unicode="x" horiz-adv-x="1024" d="M18 0l351 506l-330 518h270l174 -326q26 -48 39 -82h4q4 11 12 26.5t214 381.5h254l-342 -510l340 -514h-269l-178 309l-43 80h-4l-21 -43l-204 -346h-267z" />
<glyph unicode="y" horiz-adv-x="1047" d="M6 1024h260l240 -721q12 -37 22 -98h4l25 98l248 721h235l-444 -1147q-70 -186 -170 -272t-231 -86q-86 0 -142 16v197q55 -25 113 -25q123 0 180 131l70 162z" />
<glyph unicode="z" horiz-adv-x="938" d="M23 0v82l557 756h-498v186h815v-88l-547 -750h549v-186h-876z" />
<glyph unicode="{" horiz-adv-x="676" d="M96 477v154q156 0 156 198v265q0 174 87 257t267 83v-158q-160 0 -160 -182v-267q0 -216 -149 -270v-4q149 -48 149 -264v-266q0 -99 36.5 -145t123.5 -46v-158q-183 0 -268.5 78t-85.5 254v283q0 188 -156 188z" />
<glyph unicode="|" horiz-adv-x="557" d="M180 -481v2048h197v-2048h-197z" />
<glyph unicode="}" horiz-adv-x="676" d="M70 -168q84 0 121.5 44.5t37.5 146.5v268q0 211 152 262v4q-152 53 -152 272v265q0 182 -159 182v158q179 0 267.5 -82.5t88.5 -255.5v-267q0 -198 154 -198v-154q-154 0 -154 -188v-281q0 -177 -86 -255.5t-270 -78.5v158z" />
<glyph unicode="~" d="M195 416q6 162 86 254t219 92q57 0 110.5 -16.5t137.5 -69.5q94 -59 126.5 -71.5t67.5 -12.5q57 0 93 47.5t36 128.5h174q-6 -160 -86.5 -253t-218.5 -93q-43 0 -80 9t-75 27t-126 72q-90 62 -153 62q-69 0 -102.5 -49t-36.5 -127h-172z" />
<glyph unicode="&#xa1;" horiz-adv-x="610" d="M162 911q0 58 42 98t101 40q61 0 101 -40t40 -98q0 -56 -40 -96.5t-101 -40.5q-58 0 -100.5 39.5t-42.5 97.5zM186 -406v1018h215v-1018h-215z" />
<glyph unicode="&#xa2;" horiz-adv-x="1143" d="M186 649q0 226 120.5 372.5t322.5 180.5v217h147v-207q124 -5 207 -51v-225q-96 68 -207 78v-680q51 6 106.5 28t100.5 54v-207q-86 -53 -207 -66v-186h-147v186q-198 20 -320.5 159t-122.5 347zM416 670q0 -133 58 -214.5t155 -109.5v655q-100 -30 -156.5 -116.5 t-56.5 -214.5z" />
<glyph unicode="&#xa3;" horiz-adv-x="1143" d="M125 0v178q201 55 201 285v155h-181v183h181v221q0 190 115 313t304 123q124 0 228 -45v-207q-105 64 -217 64q-205 0 -205 -273v-196h287v-183h-287v-124q0 -102 -46.5 -181.5t-123.5 -124.5h676v-188h-932z" />
<glyph unicode="&#xa4;" horiz-adv-x="1139" d="M86 356l141 136q-75 113 -75 233q0 131 75 233l-141 136l107 108l139 -137q116 74 237 74q126 0 236 -74l141 137l107 -108l-142 -136q76 -103 76 -233q0 -124 -76 -233l142 -136l-107 -106l-139 137q-108 -76 -238 -76q-129 0 -237 76l-139 -137zM316 727 q0 -100 75 -175.5t178 -75.5t177.5 74t74.5 177q0 102 -75.5 175.5t-176.5 73.5q-105 0 -179 -73.5t-74 -175.5z" />
<glyph unicode="&#xa5;" horiz-adv-x="1143" d="M57 1434h260l220 -488l45 -106h4q8 28 20 53l246 541h244l-348 -641h258v-172h-316v-177h316v-172h-316v-272h-229v272h-326v172h326v177h-326v172h264z" />
<glyph unicode="&#xa6;" horiz-adv-x="557" d="M180 385h197v-866h-197v866zM180 705v862h197v-862h-197z" />
<glyph unicode="&#xa7;" horiz-adv-x="942" d="M121 731q0 70 36.5 134t100.5 102q-40 35 -68 91.5t-28 131.5q0 85 45 155t127 108t188 38q61 0 130 -15t110 -34v-205q-114 76 -244 76q-75 0 -108 -33.5t-33 -81.5t40 -87t191 -110q119 -57 178.5 -130t59.5 -173q0 -79 -39.5 -152.5t-108.5 -119.5q35 -28 60.5 -80 t25.5 -100q0 -140 -104.5 -226t-271.5 -86q-62 0 -137 17.5t-126 44.5v205q147 -88 279 -88q69 0 108 30.5t39 81.5q0 31 -11.5 53t-38 42.5t-154.5 85.5q-129 64 -187.5 142.5t-58.5 182.5zM330 748q0 -60 54 -109.5t183 -106.5q31 23 49.5 53.5t18.5 84.5q0 67 -53 113.5 t-176 97.5q-38 -22 -57 -52t-19 -81z" />
<glyph unicode="&#xa8;" horiz-adv-x="889" d="M100 1335q0 51 36 85t89 34t88 -34.5t35 -84.5q0 -51 -35.5 -83.5t-87.5 -32.5t-88.5 33t-36.5 83zM524 1335q0 50 35 84.5t88 34.5q55 0 90 -34.5t35 -84.5q0 -49 -35 -82.5t-90 -33.5q-52 0 -87.5 32.5t-35.5 83.5z" />
<glyph unicode="&#xa9;" horiz-adv-x="1819" d="M154 713q0 202 96 372.5t271.5 271.5t393.5 101q209 0 383 -94.5t271.5 -264t97.5 -380.5q0 -206 -99.5 -377.5t-274 -269t-386.5 -97.5q-214 0 -387 93.5t-269.5 263.5t-96.5 381zM258 715q0 -183 86 -333.5t236.5 -234.5t330.5 -84t331 87.5t235 237t84 327.5 q0 181 -86 331.5t-236 234t-328 83.5q-181 0 -330 -81t-236 -231.5t-87 -336.5zM455 694q0 158 65.5 279.5t185.5 187.5t271 66q58 0 124.5 -14.5t115.5 -38.5v-197q-45 35 -113.5 56.5t-140.5 21.5q-140 0 -229 -95t-89 -251q0 -152 92 -245t234 -93q61 0 134 23.5 t116 58.5v-179q-119 -69 -277 -69q-135 0 -247.5 63.5t-177 176.5t-64.5 249z" />
<glyph unicode="&#xaa;" horiz-adv-x="834" d="M80 913q0 100 64.5 162.5t187.5 77.5l217 27q0 67 -36.5 104t-106.5 37q-55 0 -126.5 -22.5t-125.5 -59.5v154q46 25 127 44t147 19q140 0 214.5 -71t74.5 -211v-457h-168v84h-4q-78 -105 -221 -105q-109 0 -176.5 60t-67.5 157zM248 926q0 -48 36 -74.5t93 -26.5 q67 0 119.5 46.5t52.5 115.5v76l-160 -23q-78 -11 -109.5 -37t-31.5 -77z" />
<glyph unicode="&#xab;" horiz-adv-x="1112" d="M70 537l315 344h215l-319 -344l319 -336h-215zM510 537l315 344h217l-321 -344l321 -336h-217z" />
<glyph unicode="&#xac;" d="M240 713v170h960v-594h-168v424h-792z" />
<glyph unicode="&#xad;" horiz-adv-x="823" d="M141 469v170h547v-170h-547z" />
<glyph unicode="&#xae;" horiz-adv-x="1819" d="M154 713q0 202 96 372.5t271.5 271.5t393.5 101q209 0 383 -94.5t271.5 -264t97.5 -380.5q0 -206 -99.5 -377.5t-274 -269t-386.5 -97.5q-214 0 -387 93.5t-269.5 263.5t-96.5 381zM258 715q0 -183 86 -333.5t236.5 -234.5t330.5 -84t331 87.5t235 237t84 327.5 q0 181 -86 331.5t-236 234t-328 83.5q-181 0 -330 -81t-236 -231.5t-87 -336.5zM598 254v940h285q172 0 266 -68t94 -192q0 -94 -60 -161.5t-169 -92.5v-4q46 -10 79 -48t72 -118l121 -256h-211l-92 225q-62 154 -141 154h-74v-379h-170zM768 774h117q81 0 127.5 36.5 t46.5 102.5q0 76 -44.5 105t-152.5 29h-94v-273z" />
<glyph unicode="&#xaf;" horiz-adv-x="653" d="M57 1219v135h535v-135h-535z" />
<glyph unicode="&#xb0;" horiz-adv-x="770" d="M100 1174q0 119 82 201.5t203 82.5q120 0 204.5 -82.5t84.5 -201.5q0 -122 -86 -204.5t-203 -82.5q-118 0 -201.5 82.5t-83.5 204.5zM242 1174q0 -60 41.5 -103t101.5 -43q59 0 103 42.5t44 103.5q0 60 -44 101.5t-103 41.5q-60 0 -101.5 -42t-41.5 -101z" />
<glyph unicode="&#xb1;" d="M240 0v170h958v-170h-958zM240 670v170h395v397h170v-397h395v-170h-395v-396h-170v396h-395z" />
<glyph unicode="&#xb2;" horiz-adv-x="711" d="M61 584v133l242 233q83 81 110 129t27 105q0 48 -34 80t-84 32q-51 0 -110 -27t-103 -75v184q36 31 104.5 53.5t134.5 22.5q125 0 199 -68.5t74 -183.5q0 -45 -12.5 -85t-37.5 -80t-63.5 -82t-226.5 -218v-4h360v-149h-580z" />
<glyph unicode="&#xb3;" horiz-adv-x="711" d="M70 618v168q101 -77 225 -77q75 0 116.5 31.5t41.5 86.5q0 54 -47 86.5t-150 32.5h-100v144h96q86 0 130 29t44 83q0 49 -34.5 77t-96.5 28q-98 0 -195 -74v166q32 20 100.5 37.5t127.5 17.5q121 0 195.5 -60.5t74.5 -158.5q0 -145 -145 -199v-4q88 -21 131 -75t43 -123 q0 -122 -91.5 -196.5t-240.5 -74.5q-55 0 -122 16t-103 39z" />
<glyph unicode="&#xb4;" horiz-adv-x="612" d="M109 1219l231 325h223l-282 -325h-172z" />
<glyph unicode="&#xb5;" horiz-adv-x="1223" d="M156 -377v1401h233v-578q0 -280 207 -280q107 0 173.5 72t66.5 192v594h231v-1024h-229v127h-4q-33 -69 -102 -109.5t-148 -40.5q-57 0 -107.5 20.5t-85.5 80.5h-4v-455h-231z" />
<glyph unicode="&#xb6;" horiz-adv-x="963" d="M78 1161q0 118 78 195.5t192 77.5h514v-127h-123v-1307h-135v1307h-133v-1307h-137v881q-111 4 -183.5 82t-72.5 198z" />
<glyph unicode="&#xb7;" horiz-adv-x="479" d="M94 608q0 58 43 97.5t103 39.5q63 0 103 -40.5t40 -96.5q0 -59 -41.5 -99t-103.5 -40q-60 0 -102 41.5t-42 97.5z" />
<glyph unicode="&#xb8;" horiz-adv-x="430" d="M49 -328q25 -4 66 -4q59 0 94 22.5t35 61.5q0 34 -35 52t-96 18h-10l-11 -2v180h141v-94q87 -2 133 -43t46 -113q0 -188 -321 -188h-20l-22 2v108z" />
<glyph unicode="&#xb9;" horiz-adv-x="711" d="M100 1208v154l361 92v-731h182v-139h-532v139h178v532z" />
<glyph unicode="&#xba;" horiz-adv-x="922" d="M78 1069q0 178 105 281.5t284 103.5q169 0 266.5 -98.5t97.5 -268.5q0 -181 -102 -286t-280 -105q-175 0 -273 98.5t-98 274.5zM256 1075q0 -118 52 -177.5t149 -59.5q90 0 143 63.5t53 175.5q0 114 -50 175t-144 61t-148.5 -63t-54.5 -175z" />
<glyph unicode="&#xbb;" horiz-adv-x="1112" d="M70 201l321 336l-321 344h217l315 -344l-315 -336h-217zM512 201l319 336l-319 344h215l315 -344l-315 -336h-215z" />
<glyph unicode="&#xbc;" horiz-adv-x="1792" d="M100 1208v154l361 92v-731h182v-139h-532v139h178v532zM352 0l889 1434h190l-887 -1434h-192zM977 202v115l361 543h205v-524h112v-134h-112v-202h-170v202h-396zM1141 336h232v292l4 88h-4q-11 -24 -20 -41.5t-212 -338.5z" />
<glyph unicode="&#xbd;" horiz-adv-x="1792" d="M100 1208v154l361 92v-731h182v-139h-532v139h178v532zM354 0l889 1434h190l-887 -1434h-192zM1141 0v133l242 233q83 81 110 129t27 105q0 48 -34 80t-84 32q-51 0 -110 -27t-103 -75v184q36 31 104.5 53.5t134.5 22.5q125 0 199 -68.5t74 -183.5q0 -45 -12.5 -85 t-37.5 -80t-63.5 -82t-226.5 -218v-4h360v-149h-580z" />
<glyph unicode="&#xbe;" horiz-adv-x="1792" d="M70 618v168q101 -77 225 -77q75 0 116.5 31.5t41.5 86.5q0 54 -47 86.5t-150 32.5h-100v144h96q86 0 130 29t44 83q0 49 -34.5 77t-96.5 28q-98 0 -195 -74v166q32 20 100.5 37.5t127.5 17.5q121 0 195.5 -60.5t74.5 -158.5q0 -145 -145 -199v-4q88 -21 131 -75t43 -123 q0 -122 -91.5 -196.5t-240.5 -74.5q-55 0 -122 16t-103 39zM354 0l889 1434h190l-887 -1434h-192zM977 202v115l361 543h205v-524h112v-134h-112v-202h-170v202h-396zM1141 336h232v292l4 88h-4q-11 -24 -20 -41.5t-212 -338.5z" />
<glyph unicode="&#xbf;" horiz-adv-x="924" d="M80 -78q0 110 44.5 198.5t147.5 176.5q95 80 125.5 128t30.5 122v69h203v-81q0 -92 -34.5 -162t-129.5 -152q-94 -80 -129 -138.5t-35 -133.5q0 -84 59 -138.5t144 -54.5q164 0 295 138v-238q-76 -47 -153.5 -70.5t-172.5 -23.5q-180 0 -287.5 99t-107.5 261zM389 911 q0 59 41 98.5t100 39.5q60 0 103 -40t43 -98q0 -57 -43.5 -97t-102.5 -40q-58 0 -99.5 40t-41.5 97z" />
<glyph unicode="&#xc0;" horiz-adv-x="1368" d="M8 0l543 1434h264l545 -1434h-262l-131 362h-574l-125 -362h-260zM361 1892h223l231 -325h-170zM459 563h440l-197 553q-10 26 -20 103h-6q-7 -60 -21 -103z" />
<glyph unicode="&#xc1;" horiz-adv-x="1368" d="M8 0l543 1434h264l545 -1434h-262l-131 362h-574l-125 -362h-260zM459 563h440l-197 553q-10 26 -20 103h-6q-7 -60 -21 -103zM563 1567l231 325h223l-282 -325h-172z" />
<glyph unicode="&#xc2;" horiz-adv-x="1368" d="M8 0l543 1434h264l545 -1434h-262l-131 362h-574l-125 -362h-260zM353 1566l220 325h196l219 -325h-157l-164 213l-164 -213h-150zM459 563h440l-197 553q-10 26 -20 103h-6q-7 -60 -21 -103z" />
<glyph unicode="&#xc3;" horiz-adv-x="1368" d="M8 0l543 1434h264l545 -1434h-262l-131 362h-574l-125 -362h-260zM334 1564q0 122 51.5 190t140.5 68q48 0 82 -13t64.5 -29t62 -29t72.5 -13q37 0 58.5 27t21.5 77h119q0 -124 -50.5 -191t-138.5 -67q-50 0 -89 12.5t-72.5 27.5t-63.5 27.5t-62 12.5q-37 0 -58 -25.5 t-21 -74.5h-117zM459 563h440l-197 553q-10 26 -20 103h-6q-7 -60 -21 -103z" />
<glyph unicode="&#xc4;" horiz-adv-x="1368" d="M8 0l543 1434h264l545 -1434h-262l-131 362h-574l-125 -362h-260zM345 1682q0 51 36 85t89 34t88 -34.5t35 -84.5q0 -51 -35.5 -83.5t-87.5 -32.5t-88.5 33t-36.5 83zM459 563h440l-197 553q-10 26 -20 103h-6q-7 -60 -21 -103zM769 1682q0 50 35 84.5t88 34.5 q55 0 90 -34.5t35 -84.5q0 -49 -35 -82.5t-90 -33.5q-52 0 -87.5 32.5t-35.5 83.5z" />
<glyph unicode="&#xc5;" horiz-adv-x="1368" d="M8 0l524 1389q-73 52 -73 151q0 95 63.5 154t163.5 59q95 0 156 -56.5t61 -148.5q0 -96 -74 -153l531 -1395h-262l-131 362h-574l-125 -362h-260zM461 567h436l-197 549q-9 31 -18 101h-6l-8 -47l-13 -54zM573 1546q0 -49 28.5 -78.5t76.5 -29.5q45 0 76.5 32t31.5 76 q0 45 -30 75t-78 30t-76.5 -30t-28.5 -75z" />
<glyph unicode="&#xc6;" horiz-adv-x="1829" d="M4 0l711 1434h1014v-205h-539v-404h500v-204h-500v-416h571v-205h-809v362h-499l-170 -362h-279zM543 563h409v666h-92z" />
<glyph unicode="&#xc7;" horiz-adv-x="1272" d="M84 688q0 223 96 400t268.5 273.5t382.5 96.5q90 0 187 -15t162 -44v-242q-153 90 -342 90q-147 0 -262.5 -67t-178.5 -190.5t-63 -287.5q0 -238 130 -377t347 -139q211 0 369 101v-226q-73 -40 -183.5 -63t-224.5 -23q-208 0 -365 88.5t-240 251t-83 373.5zM622 -328 q25 -4 66 -4q59 0 94 22.5t35 61.5q0 34 -35 52t-96 18h-10l-11 -2v180h141v-94q87 -2 133 -43t46 -113q0 -188 -321 -188h-20l-22 2v108z" />
<glyph unicode="&#xc8;" horiz-adv-x="1059" d="M182 0v1434h776v-205h-538v-404h500v-204h-500v-416h571v-205h-809zM262 1891h223l231 -325h-170z" />
<glyph unicode="&#xc9;" horiz-adv-x="1059" d="M182 0v1434h776v-205h-538v-404h500v-204h-500v-416h571v-205h-809zM406 1564l231 325h223l-282 -325h-172z" />
<glyph unicode="&#xca;" horiz-adv-x="1059" d="M182 0v1434h776v-205h-538v-404h500v-204h-500v-416h571v-205h-809zM250 1568l220 325h196l219 -325h-157l-164 213l-164 -213h-150z" />
<glyph unicode="&#xcb;" horiz-adv-x="1059" d="M182 0v1434h776v-205h-538v-404h500v-204h-500v-416h571v-205h-809zM239 1683q0 51 36 85t89 34t88 -34.5t35 -84.5q0 -51 -35.5 -83.5t-87.5 -32.5t-88.5 33t-36.5 83zM663 1683q0 50 35 84.5t88 34.5q55 0 90 -34.5t35 -84.5q0 -49 -35 -82.5t-90 -33.5 q-52 0 -87.5 32.5t-35.5 83.5z" />
<glyph unicode="&#xcc;" horiz-adv-x="602" d="M-8 1892h223l231 -325h-170zM182 0v1434h238v-1434h-238z" />
<glyph unicode="&#xcd;" horiz-adv-x="602" d="M135 1567l231 325h223l-282 -325h-172zM182 0v1434h238v-1434h-238z" />
<glyph unicode="&#xce;" horiz-adv-x="602" d="M-15 1568l220 325h196l219 -325h-157l-164 213l-164 -213h-150zM182 0v1434h238v-1434h-238z" />
<glyph unicode="&#xcf;" horiz-adv-x="602" d="M-34 1683q0 51 36 85t89 34t88 -34.5t35 -84.5q0 -51 -35.5 -83.5t-87.5 -32.5t-88.5 33t-36.5 83zM182 0v1434h238v-1434h-238zM390 1683q0 50 35 84.5t88 34.5q55 0 90 -34.5t35 -84.5q0 -49 -35 -82.5t-90 -33.5q-52 0 -87.5 32.5t-35.5 83.5z" />
<glyph unicode="&#xd0;" horiz-adv-x="1477" d="M18 614v211h164v609h443q384 0 576 -178t192 -521q0 -219 -95.5 -386t-273.5 -258t-410 -91h-432v614h-164zM420 205h192q251 0 390 139.5t139 386.5q0 241 -137 369.5t-388 128.5h-196v-404h295v-211h-295v-409z" />
<glyph unicode="&#xd1;" horiz-adv-x="1585" d="M182 0v1434h301l648 -1060l45 -79h4q-3 19 -7 101.5t-4 129.5v908h234v-1434h-285l-657 1061q-35 50 -51 98h-7q6 -23 9.5 -110t3.5 -117v-932h-234zM488 1565q0 122 51.5 190t140.5 68q48 0 82 -13t64.5 -29t62 -29t72.5 -13q37 0 58.5 27t21.5 77h119 q0 -124 -50.5 -191t-138.5 -67q-50 0 -89 12.5t-72.5 27.5t-63.5 27.5t-62 12.5q-37 0 -58 -25.5t-21 -74.5h-117z" />
<glyph unicode="&#xd2;" horiz-adv-x="1542" d="M84 698q0 226 85.5 399t245.5 267t373 94q196 0 349 -90t238 -256t85 -381q0 -226 -85.5 -397.5t-245 -265t-365.5 -93.5q-198 0 -353.5 90.5t-241 255.5t-85.5 377zM336 717q0 -158 54.5 -279t153.5 -186.5t224 -65.5q203 0 321.5 137t118.5 386q0 257 -114.5 397.5 t-315.5 140.5q-202 0 -322 -147.5t-120 -382.5zM483 1892h223l231 -325h-170z" />
<glyph unicode="&#xd3;" horiz-adv-x="1542" d="M84 698q0 226 85.5 399t245.5 267t373 94q196 0 349 -90t238 -256t85 -381q0 -226 -85.5 -397.5t-245 -265t-365.5 -93.5q-198 0 -353.5 90.5t-241 255.5t-85.5 377zM336 717q0 -158 54.5 -279t153.5 -186.5t224 -65.5q203 0 321.5 137t118.5 386q0 257 -114.5 397.5 t-315.5 140.5q-202 0 -322 -147.5t-120 -382.5zM613 1567l231 325h223l-282 -325h-172z" />
<glyph unicode="&#xd4;" horiz-adv-x="1542" d="M84 698q0 226 85.5 399t245.5 267t373 94q196 0 349 -90t238 -256t85 -381q0 -226 -85.5 -397.5t-245 -265t-365.5 -93.5q-198 0 -353.5 90.5t-241 255.5t-85.5 377zM336 717q0 -158 54.5 -279t153.5 -186.5t224 -65.5q203 0 321.5 137t118.5 386q0 257 -114.5 397.5 t-315.5 140.5q-202 0 -322 -147.5t-120 -382.5zM468 1567l220 325h196l219 -325h-157l-164 213l-164 -213h-150z" />
<glyph unicode="&#xd5;" horiz-adv-x="1542" d="M84 698q0 226 85.5 399t245.5 267t373 94q196 0 349 -90t238 -256t85 -381q0 -226 -85.5 -397.5t-245 -265t-365.5 -93.5q-198 0 -353.5 90.5t-241 255.5t-85.5 377zM336 717q0 -158 54.5 -279t153.5 -186.5t224 -65.5q203 0 321.5 137t118.5 386q0 257 -114.5 397.5 t-315.5 140.5q-202 0 -322 -147.5t-120 -382.5zM460 1563q0 122 51.5 190t140.5 68q48 0 82 -13t64.5 -29t62 -29t72.5 -13q37 0 58.5 27t21.5 77h119q0 -124 -50.5 -191t-138.5 -67q-50 0 -89 12.5t-72.5 27.5t-63.5 27.5t-62 12.5q-37 0 -58 -25.5t-21 -74.5h-117z" />
<glyph unicode="&#xd6;" horiz-adv-x="1542" d="M84 698q0 226 85.5 399t245.5 267t373 94q196 0 349 -90t238 -256t85 -381q0 -226 -85.5 -397.5t-245 -265t-365.5 -93.5q-198 0 -353.5 90.5t-241 255.5t-85.5 377zM336 717q0 -158 54.5 -279t153.5 -186.5t224 -65.5q203 0 321.5 137t118.5 386q0 257 -114.5 397.5 t-315.5 140.5q-202 0 -322 -147.5t-120 -382.5zM458 1680q0 51 36 85t89 34t88 -34.5t35 -84.5q0 -51 -35.5 -83.5t-87.5 -32.5t-88.5 33t-36.5 83zM882 1680q0 50 35 84.5t88 34.5q55 0 90 -34.5t35 -84.5q0 -49 -35 -82.5t-90 -33.5q-52 0 -87.5 32.5t-35.5 83.5z" />
<glyph unicode="&#xd7;" d="M258 254l342 338l-342 342l119 121l344 -340l342 340l117 -123l-340 -340l342 -338l-121 -121l-340 340l-342 -340z" />
<glyph unicode="&#xd8;" horiz-adv-x="1542" d="M84 698q0 225 86 399t246 267.5t372 93.5q238 0 402 -125l131 158l98 -80l-137 -162q178 -203 178 -518q0 -226 -85.5 -397.5t-245 -265t-365.5 -93.5q-253 0 -430 144l-146 -172l-96 82l150 180q-158 190 -158 489zM328 715q0 -191 75 -320l648 772q-111 88 -273 88 q-204 0 -327 -149t-123 -391zM479 293q115 -115 289 -115q210 0 329.5 141.5t119.5 389.5q0 217 -87 358z" />
<glyph unicode="&#xd9;" horiz-adv-x="1454" d="M164 575v859h239v-854q0 -394 330 -394q163 0 240.5 95.5t77.5 283.5v869h239v-840q0 -619 -573 -619q-272 0 -412.5 151t-140.5 449zM433 1892h223l231 -325h-170z" />
<glyph unicode="&#xda;" horiz-adv-x="1454" d="M164 575v859h239v-854q0 -394 330 -394q163 0 240.5 95.5t77.5 283.5v869h239v-840q0 -619 -573 -619q-272 0 -412.5 151t-140.5 449zM545 1566l231 325h223l-282 -325h-172z" />
<glyph unicode="&#xdb;" horiz-adv-x="1454" d="M164 575v859h239v-854q0 -394 330 -394q163 0 240.5 95.5t77.5 283.5v869h239v-840q0 -619 -573 -619q-272 0 -412.5 151t-140.5 449zM392 1568l220 325h196l219 -325h-157l-164 213l-164 -213h-150z" />
<glyph unicode="&#xdc;" horiz-adv-x="1454" d="M164 575v859h239v-854q0 -394 330 -394q163 0 240.5 95.5t77.5 283.5v869h239v-840q0 -619 -573 -619q-272 0 -412.5 151t-140.5 449zM385 1684q0 51 36 85t89 34t88 -34.5t35 -84.5q0 -51 -35.5 -83.5t-87.5 -32.5t-88.5 33t-36.5 83zM809 1684q0 50 35 84.5t88 34.5 q55 0 90 -34.5t35 -84.5q0 -49 -35 -82.5t-90 -33.5q-52 0 -87.5 32.5t-35.5 83.5z" />
<glyph unicode="&#xdd;" horiz-adv-x="1178" d="M0 1434h270l289 -598q14 -29 20.5 -53t12.5 -40h2q10 46 33 91l299 600h252l-476 -914v-520h-237v514zM416 1567l231 325h223l-282 -325h-172z" />
<glyph unicode="&#xde;" horiz-adv-x="1194" d="M182 0v1434h238v-217h205q245 0 378.5 -115t133.5 -330q0 -136 -68 -244.5t-193 -168.5t-286 -60h-170v-299h-238zM420 500h153q148 0 231 66t83 196q0 121 -78 187.5t-225 66.5h-164v-516z" />
<glyph unicode="&#xdf;" horiz-adv-x="1186" d="M158 0v1094q0 201 121 323.5t329 122.5q185 0 296.5 -100t111.5 -264q0 -126 -77 -225.5t-194 -131.5v-4q379 -67 379 -416q0 -116 -53.5 -214t-150.5 -154t-226 -56q-103 0 -196 31v213q35 -26 82.5 -40.5t95.5 -14.5q94 0 151.5 63t57.5 168q0 138 -94.5 220.5 t-262.5 93.5v176q107 12 178.5 88t71.5 178q0 94 -49.5 147.5t-134.5 53.5q-100 0 -152.5 -72.5t-52.5 -206.5v-1073h-231z" />
<glyph unicode="&#xe0;" horiz-adv-x="1034" d="M68 279q0 144 85 231t250 108l299 41q0 209 -194 209q-94 0 -182.5 -31t-157.5 -83v204q55 35 165.5 63t198.5 28q197 0 296.5 -102.5t99.5 -297.5v-649h-228v141h-4q-107 -166 -303 -166q-151 0 -238 82t-87 222zM269 1544h223l231 -325h-170zM295 303q0 -66 48 -105.5 t122 -39.5q103 0 170 70.5t67 177.5v92l-221 -29q-105 -15 -145.5 -52t-40.5 -114z" />
<glyph unicode="&#xe1;" horiz-adv-x="1034" d="M68 279q0 144 85 231t250 108l299 41q0 209 -194 209q-94 0 -182.5 -31t-157.5 -83v204q55 35 165.5 63t198.5 28q197 0 296.5 -102.5t99.5 -297.5v-649h-228v141h-4q-107 -166 -303 -166q-151 0 -238 82t-87 222zM295 303q0 -66 48 -105.5t122 -39.5q103 0 170 70.5 t67 177.5v92l-221 -29q-105 -15 -145.5 -52t-40.5 -114zM334 1219l231 325h223l-282 -325h-172z" />
<glyph unicode="&#xe2;" horiz-adv-x="1034" d="M68 279q0 144 85 231t250 108l299 41q0 209 -194 209q-94 0 -182.5 -31t-157.5 -83v204q55 35 165.5 63t198.5 28q197 0 296.5 -102.5t99.5 -297.5v-649h-228v141h-4q-107 -166 -303 -166q-151 0 -238 82t-87 222zM203 1219l220 325h196l219 -325h-157l-164 213 l-164 -213h-150zM295 303q0 -66 48 -105.5t122 -39.5q103 0 170 70.5t67 177.5v92l-221 -29q-105 -15 -145.5 -52t-40.5 -114z" />
<glyph unicode="&#xe3;" horiz-adv-x="1034" d="M68 279q0 144 85 231t250 108l299 41q0 209 -194 209q-94 0 -182.5 -31t-157.5 -83v204q55 35 165.5 63t198.5 28q197 0 296.5 -102.5t99.5 -297.5v-649h-228v141h-4q-107 -166 -303 -166q-151 0 -238 82t-87 222zM193 1219q0 122 51.5 190t140.5 68q48 0 82 -13 t64.5 -29t62 -29t72.5 -13q37 0 58.5 27t21.5 77h119q0 -124 -50.5 -191t-138.5 -67q-50 0 -89 12.5t-72.5 27.5t-63.5 27.5t-62 12.5q-37 0 -58 -25.5t-21 -74.5h-117zM295 303q0 -66 48 -105.5t122 -39.5q103 0 170 70.5t67 177.5v92l-221 -29q-105 -15 -145.5 -52 t-40.5 -114z" />
<glyph unicode="&#xe4;" horiz-adv-x="1034" d="M68 279q0 144 85 231t250 108l299 41q0 209 -194 209q-94 0 -182.5 -31t-157.5 -83v204q55 35 165.5 63t198.5 28q197 0 296.5 -102.5t99.5 -297.5v-649h-228v141h-4q-107 -166 -303 -166q-151 0 -238 82t-87 222zM190 1335q0 51 36 85t89 34t88 -34.5t35 -84.5 q0 -51 -35.5 -83.5t-87.5 -32.5t-88.5 33t-36.5 83zM295 303q0 -66 48 -105.5t122 -39.5q103 0 170 70.5t67 177.5v92l-221 -29q-105 -15 -145.5 -52t-40.5 -114zM614 1335q0 50 35 84.5t88 34.5q55 0 90 -34.5t35 -84.5q0 -49 -35 -82.5t-90 -33.5q-52 0 -87.5 32.5 t-35.5 83.5z" />
<glyph unicode="&#xe5;" horiz-adv-x="1034" d="M68 279q0 144 85 231t250 108l299 41q0 209 -194 209q-94 0 -182.5 -31t-157.5 -83v204q55 35 165.5 63t198.5 28q197 0 296.5 -102.5t99.5 -297.5v-649h-228v141h-4q-107 -166 -303 -166q-151 0 -238 82t-87 222zM295 303q0 -66 48 -105.5t122 -39.5q103 0 170 70.5 t67 177.5v92l-221 -29q-105 -15 -145.5 -52t-40.5 -114zM301 1366q0 95 63.5 153t158.5 58q96 0 155.5 -56t59.5 -145q0 -91 -65 -150t-156 -59t-153.5 55t-62.5 144zM414 1374q0 -49 27.5 -78.5t75.5 -29.5q45 0 75.5 31t30.5 77q0 45 -30 74t-76 29q-48 0 -75.5 -29 t-27.5 -74z" />
<glyph unicode="&#xe6;" horiz-adv-x="1681" d="M68 281q0 149 97 232.5t281 96.5l254 19q0 123 -53.5 181t-144.5 58q-85 0 -173 -30t-161 -82v205q73 39 170.5 63.5t185.5 24.5q233 0 307 -164h5q64 86 153 125t187 39q206 0 324 -129.5t118 -362.5v-113h-694q6 -135 84 -210.5t221 -75.5q165 0 309 98v-193 q-61 -40 -165 -64t-202 -24q-263 0 -385 197h-4q-66 -93 -164.5 -145t-214.5 -52q-157 0 -246 83t-89 223zM293 291q0 -60 46 -96.5t122 -36.5q103 0 171 69t68 181v49l-172 -13q-121 -7 -178 -43t-57 -110zM924 618h465q0 120 -56.5 185t-158.5 65q-94 0 -164.5 -70 t-85.5 -180z" />
<glyph unicode="&#xe7;" horiz-adv-x="963" d="M82 485q0 167 66.5 295t193 198.5t293.5 70.5q65 0 135 -14.5t111 -37.5v-219q-113 82 -236 82q-144 0 -233.5 -96.5t-89.5 -257.5q0 -160 86 -251t233 -91q53 0 119 23t121 63v-207q-118 -68 -291 -68q-148 0 -263.5 64t-180 182t-64.5 264zM435 -328q25 -4 66 -4 q59 0 94 22.5t35 61.5q0 34 -35 52t-96 18h-10l-11 -2v180h141v-94q87 -2 133 -43t46 -113q0 -188 -321 -188h-20l-22 2v108z" />
<glyph unicode="&#xe8;" horiz-adv-x="1079" d="M82 502q0 164 63.5 287t176 191.5t247.5 68.5q212 0 329.5 -130t117.5 -360v-115h-697q7 -140 85 -213t223 -73q87 0 167 27.5t140 70.5v-195q-58 -38 -156 -62t-207 -24q-233 0 -361 139.5t-128 387.5zM269 1544h223l231 -325h-170zM319 618h467q0 122 -57 186t-160 64 q-94 0 -163 -69.5t-87 -180.5z" />
<glyph unicode="&#xe9;" horiz-adv-x="1079" d="M82 502q0 164 63.5 287t176 191.5t247.5 68.5q212 0 329.5 -130t117.5 -360v-115h-697q7 -140 85 -213t223 -73q87 0 167 27.5t140 70.5v-195q-58 -38 -156 -62t-207 -24q-233 0 -361 139.5t-128 387.5zM319 618h467q0 122 -57 186t-160 64q-94 0 -163 -69.5t-87 -180.5z M397 1219l231 325h223l-282 -325h-172z" />
<glyph unicode="&#xea;" horiz-adv-x="1079" d="M82 502q0 164 63.5 287t176 191.5t247.5 68.5q212 0 329.5 -130t117.5 -360v-115h-697q7 -140 85 -213t223 -73q87 0 167 27.5t140 70.5v-195q-58 -38 -156 -62t-207 -24q-233 0 -361 139.5t-128 387.5zM255 1219l220 325h196l219 -325h-157l-164 213l-164 -213h-150z M319 618h467q0 122 -57 186t-160 64q-94 0 -163 -69.5t-87 -180.5z" />
<glyph unicode="&#xeb;" horiz-adv-x="1079" d="M82 502q0 164 63.5 287t176 191.5t247.5 68.5q212 0 329.5 -130t117.5 -360v-115h-697q7 -140 85 -213t223 -73q87 0 167 27.5t140 70.5v-195q-58 -38 -156 -62t-207 -24q-233 0 -361 139.5t-128 387.5zM241 1335q0 51 36 85t89 34t88 -34.5t35 -84.5q0 -51 -35.5 -83.5 t-87.5 -32.5t-88.5 33t-36.5 83zM319 618h467q0 122 -57 186t-160 64q-94 0 -163 -69.5t-87 -180.5zM665 1335q0 50 35 84.5t88 34.5q55 0 90 -34.5t35 -84.5q0 -49 -35 -82.5t-90 -33.5q-52 0 -87.5 32.5t-35.5 83.5z" />
<glyph unicode="&#xec;" horiz-adv-x="545" d="M-36 1544h223l231 -325h-170zM156 0v1024h233v-1024h-233z" />
<glyph unicode="&#xed;" horiz-adv-x="545" d="M114 1219l231 325h223l-282 -325h-172zM156 0v1024h233v-1024h-233z" />
<glyph unicode="&#xee;" horiz-adv-x="545" d="M-44 1219l220 325h196l219 -325h-157l-164 213l-164 -213h-150zM156 0v1024h233v-1024h-233z" />
<glyph unicode="&#xef;" horiz-adv-x="545" d="M-63 1335q0 51 36 85t89 34t88 -34.5t35 -84.5q0 -51 -35.5 -83.5t-87.5 -32.5t-88.5 33t-36.5 83zM156 0v1024h233v-1024h-233zM361 1335q0 50 35 84.5t88 34.5q55 0 90 -34.5t35 -84.5q0 -49 -35 -82.5t-90 -33.5q-52 0 -87.5 32.5t-35.5 83.5z" />
<glyph unicode="&#xf0;" horiz-adv-x="1169" d="M82 504q0 156 59.5 279.5t169.5 192t254 68.5q63 0 115 -22.5t84 -50.5l4 2q-33 62 -87.5 132t-105.5 114l-294 -148l-66 121l260 125q-39 33 -118.5 92.5t-151.5 106.5h284q57 -38 156 -115l279 137l67 -117l-241 -116q166 -144 250.5 -340.5t84.5 -421.5 q0 -164 -63 -294t-179 -201t-268 -71q-230 0 -361.5 140.5t-131.5 386.5zM319 508q0 -160 72 -251t197 -91q117 0 187.5 94t70.5 254q0 346 -256 346q-126 0 -198.5 -92t-72.5 -260z" />
<glyph unicode="&#xf1;" horiz-adv-x="1198" d="M158 0v1024h231v-164h4q115 189 332 189q163 0 252.5 -104t89.5 -316v-629h-231v575q0 144 -48.5 214.5t-156.5 70.5q-105 0 -173.5 -79.5t-68.5 -198.5v-582h-231zM281 1219q0 122 51.5 190t140.5 68q48 0 82 -13t64.5 -29t62 -29t72.5 -13q37 0 58.5 27t21.5 77h119 q0 -124 -50.5 -191t-138.5 -67q-50 0 -89 12.5t-72.5 27.5t-63.5 27.5t-62 12.5q-37 0 -58 -25.5t-21 -74.5h-117z" />
<glyph unicode="&#xf2;" horiz-adv-x="1217" d="M82 500q0 255 144 402t399 147q240 0 375 -140.5t135 -386.5q0 -249 -144 -398t-391 -149q-237 0 -377.5 141.5t-140.5 383.5zM322 508q0 -163 77 -253.5t215 -90.5q139 0 210 89t71 261q0 170 -75.5 258t-207.5 88q-136 0 -213 -92t-77 -260zM342 1544h223l231 -325 h-170z" />
<glyph unicode="&#xf3;" horiz-adv-x="1217" d="M82 500q0 255 144 402t399 147q240 0 375 -140.5t135 -386.5q0 -249 -144 -398t-391 -149q-237 0 -377.5 141.5t-140.5 383.5zM322 508q0 -163 77 -253.5t215 -90.5q139 0 210 89t71 261q0 170 -75.5 258t-207.5 88q-136 0 -213 -92t-77 -260zM423 1219l231 325h223 l-282 -325h-172z" />
<glyph unicode="&#xf4;" horiz-adv-x="1217" d="M82 500q0 255 144 402t399 147q240 0 375 -140.5t135 -386.5q0 -249 -144 -398t-391 -149q-237 0 -377.5 141.5t-140.5 383.5zM281 1219l220 325h196l219 -325h-157l-164 213l-164 -213h-150zM322 508q0 -163 77 -253.5t215 -90.5q139 0 210 89t71 261q0 170 -75.5 258 t-207.5 88q-136 0 -213 -92t-77 -260z" />
<glyph unicode="&#xf5;" horiz-adv-x="1217" d="M82 500q0 255 144 402t399 147q240 0 375 -140.5t135 -386.5q0 -249 -144 -398t-391 -149q-237 0 -377.5 141.5t-140.5 383.5zM280 1219q0 122 51.5 190t140.5 68q48 0 82 -13t64.5 -29t62 -29t72.5 -13q37 0 58.5 27t21.5 77h119q0 -124 -50.5 -191t-138.5 -67 q-50 0 -89 12.5t-72.5 27.5t-63.5 27.5t-62 12.5q-37 0 -58 -25.5t-21 -74.5h-117zM322 508q0 -163 77 -253.5t215 -90.5q139 0 210 89t71 261q0 170 -75.5 258t-207.5 88q-136 0 -213 -92t-77 -260z" />
<glyph unicode="&#xf6;" horiz-adv-x="1217" d="M82 500q0 255 144 402t399 147q240 0 375 -140.5t135 -386.5q0 -249 -144 -398t-391 -149q-237 0 -377.5 141.5t-140.5 383.5zM274 1335q0 51 36 85t89 34t88 -34.5t35 -84.5q0 -51 -35.5 -83.5t-87.5 -32.5t-88.5 33t-36.5 83zM322 508q0 -163 77 -253.5t215 -90.5 q139 0 210 89t71 261q0 170 -75.5 258t-207.5 88q-136 0 -213 -92t-77 -260zM698 1335q0 50 35 84.5t88 34.5q55 0 90 -34.5t35 -84.5q0 -49 -35 -82.5t-90 -33.5q-52 0 -87.5 32.5t-35.5 83.5z" />
<glyph unicode="&#xf7;" d="M240 510v168h960v-168h-960zM596 195q0 54 35.5 92.5t89.5 38.5q57 0 89 -37t32 -92q0 -54 -34.5 -88.5t-86.5 -34.5q-51 0 -88 34t-37 87zM602 983q0 57 36 94t91 37q57 0 89 -35t32 -92q0 -55 -36 -90t-85 -35q-51 0 -89 33.5t-38 87.5z" />
<glyph unicode="&#xf8;" horiz-adv-x="1217" d="M43 16l68 75l71 75q-100 138 -100 336q0 259 147 403t398 144q179 0 305 -88l153 161l101 -92l-156 -164q105 -136 105 -338q0 -255 -143.5 -404t-391.5 -149q-192 0 -319 95l-138 -146zM313 508q0 -95 33 -172l445 475q-71 57 -177 57q-142 0 -221.5 -94.5t-79.5 -265.5 zM422 219q73 -61 190 -61q145 0 219 91t74 265q0 106 -33 182z" />
<glyph unicode="&#xf9;" horiz-adv-x="1198" d="M131 403v621h234v-592q0 -268 213 -268q105 0 169 74t64 194v592h233v-1024h-233v154h-4q-47 -83 -127.5 -131t-181.5 -48q-179 0 -273 107t-94 321zM308 1544h223l231 -325h-170z" />
<glyph unicode="&#xfa;" horiz-adv-x="1198" d="M131 403v621h234v-592q0 -268 213 -268q105 0 169 74t64 194v592h233v-1024h-233v154h-4q-47 -83 -127.5 -131t-181.5 -48q-179 0 -273 107t-94 321zM425 1219l231 325h223l-282 -325h-172z" />
<glyph unicode="&#xfb;" horiz-adv-x="1198" d="M131 403v621h234v-592q0 -268 213 -268q105 0 169 74t64 194v592h233v-1024h-233v154h-4q-47 -83 -127.5 -131t-181.5 -48q-179 0 -273 107t-94 321zM259 1219l220 325h196l219 -325h-157l-164 213l-164 -213h-150z" />
<glyph unicode="&#xfc;" horiz-adv-x="1198" d="M131 403v621h234v-592q0 -268 213 -268q105 0 169 74t64 194v592h233v-1024h-233v154h-4q-47 -83 -127.5 -131t-181.5 -48q-179 0 -273 107t-94 321zM260 1335q0 51 36 85t89 34t88 -34.5t35 -84.5q0 -51 -35.5 -83.5t-87.5 -32.5t-88.5 33t-36.5 83zM684 1335 q0 50 35 84.5t88 34.5q55 0 90 -34.5t35 -84.5q0 -49 -35 -82.5t-90 -33.5q-52 0 -87.5 32.5t-35.5 83.5z" />
<glyph unicode="&#xfd;" horiz-adv-x="1047" d="M6 1024h260l240 -721q12 -37 22 -98h4l25 98l248 721h235l-444 -1147q-70 -186 -170 -272t-231 -86q-86 0 -142 16v197q55 -25 113 -25q123 0 180 131l70 162zM383 1219l231 325h223l-282 -325h-172z" />
<glyph unicode="&#xfe;" horiz-adv-x="1235" d="M158 -471v1987h231v-656h4q122 189 340 189q196 0 308 -137t112 -373q0 -258 -127 -411t-344 -153q-186 0 -289 154h-4v-600h-231zM387 424q0 -113 71 -186.5t177 -73.5q132 0 205 98t73 281q0 148 -67.5 232.5t-188.5 84.5t-195.5 -85t-74.5 -220v-131z" />
<glyph unicode="&#xff;" horiz-adv-x="1047" d="M6 1024h260l240 -721q12 -37 22 -98h4l25 98l248 721h235l-444 -1147q-70 -186 -170 -272t-231 -86q-86 0 -142 16v197q55 -25 113 -25q123 0 180 131l70 162zM179 1335q0 51 36 85t89 34t88 -34.5t35 -84.5q0 -51 -35.5 -83.5t-87.5 -32.5t-88.5 33t-36.5 83zM603 1335 q0 50 35 84.5t88 34.5q55 0 90 -34.5t35 -84.5q0 -49 -35 -82.5t-90 -33.5q-52 0 -87.5 32.5t-35.5 83.5z" />
<glyph unicode="&#x152;" horiz-adv-x="1905" d="M84 698q0 226 86 399.5t247 267t374 93.5q78 0 175 -12q89 -12 111 -12h725v-205h-536v-412h497v-205h-497v-407h569v-205h-762l-61 -4q-171 -21 -252 -21q-199 0 -353.5 91.5t-238.5 256.5t-84 375zM336 715q0 -151 56 -272.5t156 -189t224 -67.5q128 0 252 39v985 q-118 37 -248 37q-128 0 -229 -68.5t-156 -191t-55 -272.5z" />
<glyph unicode="&#x153;" horiz-adv-x="1886" d="M82 498q0 257 145 404t391 147q130 0 233 -50t161 -147h4q57 97 153.5 147t221.5 50q201 0 316.5 -131.5t115.5 -356.5v-117h-697q7 -138 85 -212t223 -74q87 0 167 27.5t140 70.5v-195q-60 -37 -157.5 -61.5t-197.5 -24.5q-259 0 -382 205h-5q-135 -205 -407 -205 q-231 0 -370.5 142.5t-139.5 380.5zM319 506q0 -164 79 -253t214 -89q136 0 208.5 87.5t72.5 258.5h2q0 172 -74.5 261t-206.5 89q-138 0 -216.5 -94t-78.5 -260zM1126 618h467q0 115 -55.5 182.5t-155.5 67.5q-98 0 -169 -71t-87 -179z" />
<glyph unicode="&#x178;" horiz-adv-x="1178" d="M0 1434h270l289 -598q14 -29 20.5 -53t12.5 -40h2q10 46 33 91l299 600h252l-476 -914v-520h-237v514zM255 1681q0 51 36 85t89 34t88 -34.5t35 -84.5q0 -51 -35.5 -83.5t-87.5 -32.5t-88.5 33t-36.5 83zM679 1681q0 50 35 84.5t88 34.5q55 0 90 -34.5t35 -84.5 q0 -49 -35 -82.5t-90 -33.5q-52 0 -87.5 32.5t-35.5 83.5z" />
<glyph unicode="&#x2c6;" horiz-adv-x="766" d="M61 1219l220 325h196l219 -325h-157l-164 213l-164 -213h-150z" />
<glyph unicode="&#x2dc;" horiz-adv-x="735" d="M33 1219q0 122 51.5 190t140.5 68q48 0 82 -13t64.5 -29t62 -29t72.5 -13q37 0 58.5 27t21.5 77h119q0 -124 -50.5 -191t-138.5 -67q-50 0 -89 12.5t-72.5 27.5t-63.5 27.5t-62 12.5q-37 0 -58 -25.5t-21 -74.5h-117z" />
<glyph unicode="&#x2000;" horiz-adv-x="946" />
<glyph unicode="&#x2001;" horiz-adv-x="1893" />
<glyph unicode="&#x2002;" horiz-adv-x="946" />
<glyph unicode="&#x2003;" horiz-adv-x="1893" />
<glyph unicode="&#x2004;" horiz-adv-x="631" />
<glyph unicode="&#x2005;" horiz-adv-x="473" />
<glyph unicode="&#x2006;" horiz-adv-x="315" />
<glyph unicode="&#x2007;" horiz-adv-x="315" />
<glyph unicode="&#x2008;" horiz-adv-x="236" />
<glyph unicode="&#x2009;" horiz-adv-x="378" />
<glyph unicode="&#x200a;" horiz-adv-x="105" />
<glyph unicode="&#x2010;" horiz-adv-x="823" d="M141 469v170h547v-170h-547z" />
<glyph unicode="&#x2011;" horiz-adv-x="823" d="M141 469v170h547v-170h-547z" />
<glyph unicode="&#x2012;" horiz-adv-x="823" d="M141 469v170h547v-170h-547z" />
<glyph unicode="&#x2013;" horiz-adv-x="1024" d="M0 469v170h1024v-170h-1024z" />
<glyph unicode="&#x2014;" horiz-adv-x="2048" d="M0 469v170h2048v-170h-2048z" />
<glyph unicode="&#x2018;" horiz-adv-x="518" d="M102 1024l150 444h158l-107 -444h-201z" />
<glyph unicode="&#x2019;" horiz-adv-x="518" d="M111 1024l106 444h201l-154 -444h-153z" />
<glyph unicode="&#x201a;" horiz-adv-x="518" d="M92 -227l107 444h200l-153 -444h-154z" />
<glyph unicode="&#x201c;" horiz-adv-x="874" d="M102 1024l150 444h158l-107 -444h-201zM457 1024l153 444h156l-109 -444h-200z" />
<glyph unicode="&#x201d;" horiz-adv-x="874" d="M111 1024l106 444h201l-154 -444h-153zM465 1024l106 444h203l-151 -444h-158z" />
<glyph unicode="&#x201e;" horiz-adv-x="874" d="M92 -227l107 444h200l-153 -444h-154zM446 -227l107 444h203l-152 -444h-158z" />
<glyph unicode="&#x2022;" horiz-adv-x="850" d="M162 610q0 106 77.5 184t186.5 78q110 0 186 -77.5t76 -184.5q0 -109 -76.5 -185.5t-185.5 -76.5t-186.5 77t-77.5 185z" />
<glyph unicode="&#x2026;" horiz-adv-x="1659" d="M135 117q0 57 40.5 97t100.5 40q62 0 103 -40.5t41 -96.5t-41 -96.5t-103 -40.5q-58 0 -99.5 40t-41.5 97zM688 117q0 57 40.5 97t100.5 40q62 0 103 -40.5t41 -96.5t-41 -96.5t-103 -40.5q-58 0 -99.5 40t-41.5 97zM1241 117q0 57 40.5 97t100.5 40q62 0 103 -40.5 t41 -96.5t-41 -96.5t-103 -40.5q-61 0 -101 40t-40 97z" />
<glyph unicode="&#x202f;" horiz-adv-x="378" />
<glyph unicode="&#x2039;" horiz-adv-x="672" d="M70 537l315 344h215l-319 -344l321 -336h-217z" />
<glyph unicode="&#x203a;" horiz-adv-x="672" d="M70 201l319 336l-319 344h215l317 -344l-317 -336h-215z" />
<glyph unicode="&#x205f;" horiz-adv-x="473" />
<glyph unicode="&#x20ac;" horiz-adv-x="1143" d="M111 467v174h96l-2 15v20v52l4 67h-98v172h125q58 234 204.5 362.5t358.5 128.5q144 0 256 -57v-211q-111 84 -260 84q-114 0 -204.5 -86.5t-127.5 -220.5h461v-172h-490q-4 -38 -4 -95l2 -59h492v-174h-469q77 -307 325 -307q143 0 275 86v-199q-131 -72 -291 -72 q-223 0 -360 127t-179 365h-114z" />
<glyph unicode="&#x2122;" horiz-adv-x="1581" d="M78 1321v113h518v-113h-193v-549h-135v549h-190zM672 772v662h159l203 -467h4l209 467h154v-662h-127v451h-4l-199 -451h-82l-190 451h-4v-451h-123z" />
<glyph unicode="&#x25fc;" horiz-adv-x="1025" d="M0 0v1025h1025v-1025h-1025z" />
<glyph unicode="&#xfb01;" horiz-adv-x="1255" d="M55 838v186h172v150q0 107 46.5 190.5t131 129.5t191.5 46q85 0 135 -18v-195q-56 25 -110 25q-76 0 -118 -48.5t-42 -142.5v-137h229v-186h-229v-838h-234v838h-172zM845 1386q0 58 41.5 97t99.5 39q61 0 101.5 -40t40.5 -96q0 -57 -41.5 -95t-100.5 -38t-100 38t-41 95 zM868 0v1024h231v-1024h-231z" />
<glyph unicode="&#xfb02;" horiz-adv-x="1255" d="M55 838v186h172v150q0 107 46.5 190.5t131 129.5t191.5 46q85 0 135 -18v-195q-56 25 -110 25q-76 0 -118 -48.5t-42 -142.5v-137h229v-186h-229v-838h-234v838h-172zM868 0v1516h231v-1516h-231z" />
</font>
</defs>
</svg>
