<?xml version="1.0" standalone="no"?>
<!DOCTYPE svg PUBLIC "-//W3C//DTD SVG 1.1//EN" "http://www.w3.org/Graphics/SVG/1.1/DTD/svg11.dtd" >
<svg xmlns="http://www.w3.org/2000/svg">
<metadata></metadata>
<defs>
<font id="rotissemiserifregular" horiz-adv-x="1062" >
<font-face units-per-em="2048" ascent="1638" descent="-410" />
<missing-glyph horiz-adv-x="608" />
<glyph horiz-adv-x="0" />
<glyph horiz-adv-x="682" />
<glyph horiz-adv-x="614" d="M55 1382q0 -41 12.5 -87t41 -85t76.5 -65.5t122 -28.5q74 0 123 26.5t78 66.5t40 86t11 87h-74q-4 -18 -12 -43.5t-27.5 -47t-53.5 -37t-87 -15.5q-51 0 -84 15.5t-53.5 37t-28.5 46t-10 44.5h-74z" />
<glyph horiz-adv-x="614" d="M201 1231q0 -45 31.5 -75t74.5 -30t74 31t31 74t-31 73.5t-74 30.5q-45 0 -75.5 -30.5t-30.5 -73.5z" />
<glyph horiz-adv-x="614" d="M111 1288q0 -37 14 -67.5t37.5 -54t55.5 -37t67 -13.5q72 0 124 50.5t52 121.5q0 35 -14.5 65.5t-38 54.5t-55 37t-68.5 13q-72 0 -123 -49t-51 -121zM199 1288q0 31 25.5 56.5t60.5 25.5q37 0 62.5 -25.5t25.5 -56.5q0 -35 -27 -59.5t-61 -24.5q-35 0 -60.5 24.5 t-25.5 59.5z" />
<glyph unicode="&#xa;" horiz-adv-x="614" d="M135 1116h90l119 170q20 29 30.5 47.5t10.5 34.5q0 33 -24.5 51.5t-53.5 18.5q-47 0 -67.5 -19.5t-34.5 -66.5zM387 1116h88l121 170q20 29 30.5 47.5t10.5 34.5q0 33 -24.5 51.5t-53.5 18.5q-47 0 -67.5 -19.5t-34.5 -66.5z" />
<glyph horiz-adv-x="614" d="M180 -246q0 -51 17.5 -83.5t47 -52t69.5 -28t87 -8.5q25 0 50.5 6t50.5 11v67q-18 -6 -39 -8t-43 -2q-41 0 -75 27.5t-34 74.5q0 49 14.5 91t35 75t43 57.5t40.5 43.5h-63q-16 -12 -50 -38t-68 -62t-58.5 -80t-24.5 -91z" />
<glyph horiz-adv-x="614" d="M47 1430l172 -250q23 -33 39 -48.5t47 -15.5t47.5 16.5t38.5 49.5l174 248h-86l-176 -138l-168 138h-88z" />
<glyph unicode="&#xd;" horiz-adv-x="493" d="M27 891q20 -2 47.5 -6t50 -17.5t39 -40t16.5 -71.5v-756h158v975l-311 -49v-35z" />
<glyph horiz-adv-x="493" d="M-12 0h96l424 1266h-94z" />
<glyph horiz-adv-x="1138" d="M61 883h164v-883h158v883h274v69h-274v117q0 53 2 104.5t13.5 91.5t35 64.5t68.5 24.5q72 0 99.5 -43t27.5 -97h174q-2 37 -17.5 75t-48 71t-87 53.5t-134.5 20.5q-98 0 -155.5 -34t-87 -87t-39 -118t-9.5 -126v-117h-164v-69zM670 893q20 -2 47.5 -6t50.5 -17.5t39 -40 t16 -73.5v-756h158v975l-311 -49v-33z" />
<glyph horiz-adv-x="1138" d="M61 883h164v-883h158v883h274v69h-274v117q0 53 2 104.5t13.5 91.5t35 64.5t68.5 24.5q35 0 59.5 -12.5t38.5 -32t20.5 -44t6.5 -51.5h164v-1214h157v1436l-260 -39q-33 16 -75 26.5t-97 10.5q-98 0 -155.5 -34t-87 -87t-39 -118t-9.5 -126v-117h-164v-69z" />
<glyph horiz-adv-x="987" d="M-6 467l207 147v-614h755l11 303h-64q-6 -51 -13 -92t-23.5 -70.5t-49.5 -45t-90 -15.5h-182q-61 0 -95 4t-49.5 22.5t-18.5 54.5t-3 99v483l244 177v96l-244 -174v536l-385 -47v-35q53 -6 92 -10t64.5 -18.5t38 -42t12.5 -80.5v-432l-207 -148v-98z" />
<glyph horiz-adv-x="493" d="M10 1354q20 -2 48 -5t52.5 -16.5t42 -40t17.5 -73.5v-461l-158 -113v-86l158 113v-672h158v786l151 109v86l-151 -109v564l-318 -47v-35z" />
<glyph horiz-adv-x="1099" d="M78 0h993l10 307h-63q-6 -53 -11.5 -95t-23.5 -70.5t-54 -45t-102 -16.5h-514l738 1210v88h-924l-12 -280h63q4 45 10.5 83t23.5 63.5t53 39.5t102 14h446l-735 -1208v-90zM291 1856l172 -250q23 -33 39 -48.5t47 -15.5t47.5 16.5t38.5 49.5l174 248h-86l-176 -138 l-168 138h-88z" />
<glyph horiz-adv-x="911" d="M66 0h755l13 231h-48q-6 -45 -20 -73.5t-42 -46t-74 -24.5t-115 -7h-273l547 792v80h-700l-11 -231h45q6 33 14.5 60.5t29 48t56.5 31.5t99 11h274l-550 -792v-80zM197 1430l172 -250q23 -33 39 -48.5t47 -15.5t47.5 16.5t38.5 49.5l174 248h-86l-176 -138l-168 138h-88z " />
<glyph unicode=" "  horiz-adv-x="608" />
<glyph unicode="&#x09;" horiz-adv-x="608" />
<glyph unicode="&#xa0;" horiz-adv-x="608" />
<glyph unicode="!" horiz-adv-x="645" d="M270 102q0 -53 38 -89t91 -36t90 36t37 89t-36.5 88t-90.5 35q-53 0 -91 -34.5t-38 -88.5zM293 1378l59 -1009h90l62 1009h-211z" />
<glyph unicode="&#x22;" horiz-adv-x="835" d="M143 1290q0 -41 14.5 -61.5t37.5 -32.5q16 -8 30.5 -10t25.5 -4t18 -8.5t7 -24.5q0 -29 -10 -56.5t-25.5 -52t-31.5 -45t-29 -34.5h68q12 14 36.5 42.5t49 67.5t42 87t17.5 104q0 72 -39 105.5t-88 33.5q-53 0 -88 -31t-35 -80zM487 1290q0 -41 14.5 -61.5t37.5 -32.5 q16 -8 30.5 -10t25.5 -4t17 -8.5t6 -24.5q0 -29 -10 -56.5t-25.5 -52t-31.5 -45t-29 -34.5h68q14 14 38.5 42.5t48 68.5t41 88t17.5 104q0 72 -39 104.5t-88 32.5q-53 0 -87 -31t-34 -80z" />
<glyph unicode="#" horiz-adv-x="1177" d="M121 446h198l-120 -446h129l118 446h172l-118 -446h129l119 446h208l23 86h-209l55 209h209l23 86h-209l119 439h-129l-117 -439h-170l117 439h-127l-119 -439h-199l-22 -86h198l-57 -209h-199zM471 532l55 209h172l-57 -209h-170z" />
<glyph unicode="$" horiz-adv-x="1101" d="M111 193q14 -117 116.5 -179.5t268.5 -66.5v-164h79v164q68 2 139.5 20.5t132 60.5t99.5 109.5t39 169.5q0 100 -44 167t-107.5 110t-134 67.5t-124.5 40.5v553q37 -4 70 -12t59.5 -26.5t42 -50.5t15.5 -81h178q-16 109 -103 174.5t-262 71.5v145h-79v-145 q-47 -4 -109.5 -21.5t-120 -54.5t-96.5 -96t-39 -150q0 -102 36 -166.5t90 -104.5t118.5 -62.5t120.5 -38.5v-604q-53 8 -89 23t-58.5 37.5t-37 50.5t-22.5 59h-178zM299 983q0 123 52 187.5t145 74.5v-528q-35 12 -70 29.5t-62.5 46t-46 74.5t-18.5 116zM575 23v579 q37 -14 78 -33.5t77 -53.5t58.5 -85t22.5 -125q0 -70 -20.5 -120t-54.5 -83.5t-76 -53t-85 -25.5z" />
<glyph unicode="%" horiz-adv-x="1671" d="M45 842q0 -94 17.5 -175t56.5 -141.5t98 -94.5t143 -34q92 0 152.5 35t96.5 95.5t51.5 141.5t15.5 173q0 84 -14.5 164.5t-50.5 143t-96 100.5t-155 38q-92 0 -152.5 -35.5t-97 -97t-51 -142.5t-14.5 -171zM180 842q0 59 5 125.5t24.5 122t55.5 92.5t97 37q57 0 93.5 -37 t54.5 -93.5t24.5 -123t6.5 -123.5q0 -53 -6.5 -118t-24.5 -122t-53 -96t-92 -39q-63 0 -100.5 39t-56 95t-23.5 122t-5 119zM573 0h99l424 1266h-97zM993 422q0 -96 17.5 -177t56.5 -140.5t99.5 -93.5t144.5 -34q90 0 150.5 35t97 95.5t52 141.5t15.5 173q0 84 -14.5 165 t-50 143.5t-97 100t-155.5 37.5q-92 0 -152.5 -36.5t-97.5 -98t-51.5 -142.5t-14.5 -169zM1128 422q0 59 5.5 125.5t25 122t56 92.5t98.5 37q57 0 92 -37t54.5 -93.5t25.5 -123t6 -123.5q0 -53 -6 -118.5t-25.5 -122t-54.5 -95.5t-92 -39q-63 0 -100 39t-55.5 95.5t-24 122 t-5.5 118.5z" />
<glyph unicode="&#x26;" horiz-adv-x="1404" d="M139 358q0 -180 105.5 -280.5t318.5 -100.5q86 0 141.5 13.5t88.5 23.5v74q-33 -12 -82 -26.5t-105 -14.5q-141 0 -217 84t-76 240q0 106 29 166.5t72 90t94 37t96 7.5h342v-432q0 -57 10.5 -105.5t38 -83.5t77.5 -54.5t130 -19.5q45 0 75 3.5t58 13.5v69 q-41 -16 -84 -16q-47 0 -75.5 14.5t-44 38t-21.5 54t-6 65.5v453h231v80h-231v444l-158 -96v-348h-342q-84 0 -137 17t-84 51t-43 85t-12 117q0 35 5 77t21.5 77.5t48 59.5t84.5 24q43 0 71 -17.5t43 -41t22.5 -49.5t9.5 -44h178q-4 43 -22.5 83t-54.5 70.5t-91 49 t-133 18.5q-74 0 -139.5 -19.5t-113.5 -58.5t-75.5 -99t-27.5 -142q0 -76 22.5 -126t57 -84t74.5 -52.5t77 -28.5v-4q-117 -31 -181.5 -112t-64.5 -245z" />
<glyph unicode="'" horiz-adv-x="493" d="M143 1290q0 -41 14.5 -61.5t37.5 -32.5q16 -8 30.5 -10t25.5 -4t18 -8.5t7 -24.5q0 -29 -10 -56.5t-25.5 -52t-31.5 -45t-29 -34.5h68q12 14 36.5 42.5t49 67.5t42 87t17.5 104q0 72 -39 105.5t-88 33.5q-53 0 -88 -31t-35 -80z" />
<glyph unicode="(" horiz-adv-x="569" d="M137 621q0 -195 13.5 -353.5t53.5 -277.5t113.5 -191.5t194.5 -91.5v64q-72 25 -112 104.5t-59 196t-24.5 259t-5.5 290.5q0 160 3 294t22.5 241.5t60.5 185t115 122.5v66q-125 -23 -199.5 -94.5t-113.5 -187t-50.5 -273.5t-11.5 -354z" />
<glyph unicode=")" horiz-adv-x="569" d="M59 -229v-64q121 18 195 91t114 192t53 277.5t13 353.5q0 197 -11 354.5t-50 273t-114 187t-200 94.5v-66q74 -45 115 -122.5t60.5 -185t22.5 -242t3 -293.5q0 -147 -5 -290t-24.5 -259.5t-60.5 -196.5t-111 -104z" />
<glyph unicode="*" horiz-adv-x="720" d="M51 1044l277 52l4 -4l-187 -205l127 -74l84 268h4l91 -268l122 72l-184 202l4 5l277 -50v138l-275 -56l-4 4l187 207l-123 66l-93 -260h-4l-90 260l-123 -64l187 -209l-4 -4l-277 56v-136z" />
<glyph unicode="+" horiz-adv-x="1177" d="M117 432h401v-432h131v432h412v107h-412v399h-131v-399h-401v-107z" />
<glyph unicode="," horiz-adv-x="493" d="M96 115q0 -55 34 -79t67 -28q27 -4 35 -12t8 -31q0 -35 -14.5 -73.5t-35 -73.5t-43 -64.5t-41.5 -46.5h72q8 8 41 44t68 87t62.5 112.5t27.5 121.5q0 27 -8.5 56.5t-24.5 54t-45 40t-68 15.5q-51 0 -93 -30t-42 -93z" />
<glyph unicode="-" horiz-adv-x="1177" d="M117 432h944v107h-944v-107z" />
<glyph unicode="." horiz-adv-x="493" d="M113 106q0 -53 39 -91t94 -38q57 0 96 38t39 91q0 57 -41 94.5t-94 37.5t-93 -38t-40 -94z" />
<glyph unicode="/" horiz-adv-x="684" d="M72 -283h123l395 1803h-123z" />
<glyph unicode="0" d="M70 633q0 -139 25.5 -258t80.5 -208t142 -139.5t210 -50.5q133 0 222.5 51.5t143.5 140.5t76.5 209t22.5 255q0 125 -21.5 243.5t-74.5 210t-142 146.5t-227 55q-135 0 -223 -52t-140 -142t-73.5 -209t-21.5 -252zM252 633q0 88 8 189.5t37 187.5t84 142t147 56 t147.5 -57t85.5 -143t40 -187.5t10 -187.5q0 -53 -4 -116.5t-14.5 -127t-31 -124t-51 -106.5t-75.5 -74t-107 -28q-94 0 -149 60.5t-83 147.5t-36 187.5t-8 180.5z" />
<glyph unicode="1" d="M289 1081q29 12 61.5 19.5t79.5 7.5q27 0 42 -14.5t23.5 -37t10.5 -50t2 -54.5v-952h158v1288h-66l-311 -172v-35z" />
<glyph unicode="2" d="M131 0h776l21 295h-51q-4 -43 -15.5 -79t-38 -61.5t-69.5 -40t-111 -14.5h-373q25 23 80.5 69t125 108.5t142 139.5t134 157.5t100.5 163.5t39 161q0 197 -93 293t-288 96q-98 0 -164.5 -29.5t-108.5 -74.5t-62.5 -97.5t-29.5 -97.5h78q6 31 23.5 69t48.5 71.5t78 56 t114 22.5q106 0 164 -71.5t58 -180.5q0 -86 -34 -176t-88.5 -177t-121 -170t-131 -151.5t-118.5 -120.5t-85 -79v-82z" />
<glyph unicode="3" d="M102 10q27 -6 107 -19.5t176 -13.5q94 0 186.5 19.5t164 64.5t115.5 115t44 172q0 78 -19.5 133.5t-53.5 93t-78 59t-95 34.5v4q98 27 164 94.5t66 196.5q0 78 -29 138t-79 102t-120.5 63.5t-152.5 21.5q-98 0 -165 -27.5t-108 -68.5t-60.5 -89t-27.5 -91h72 q10 31 27.5 65.5t48 63t74.5 48t106 19.5q98 0 164.5 -63.5t66.5 -183.5q0 -88 -27.5 -138.5t-67.5 -76t-85 -31.5t-78 -6v-80q53 -2 103.5 -11.5t88.5 -37t60.5 -76.5t22.5 -129t-33 -139.5t-87 -99.5t-125 -59.5t-146 -19.5q-55 0 -110.5 10.5t-109.5 22.5v-80z" />
<glyph unicode="4" d="M86 365h549v-365h158v365h229v100h-229v801h-158l-549 -805v-96zM215 465l416 618h4v-618h-420z" />
<glyph unicode="5" d="M158 16q27 -6 107.5 -22.5t189.5 -16.5q100 0 193 27t166 80t116 135t43 193q0 80 -27.5 146.5t-77 114.5t-116 73.5t-146.5 25.5q-98 0 -160.5 -27.5t-85.5 -39.5l25 460h494v101h-639l-37 -703h114q29 33 79 69t141 40q61 0 109 -23.5t80 -60.5t48.5 -81t16.5 -85 q0 -92 -33 -159.5t-90.5 -114t-132 -69t-156.5 -22.5q-76 0 -123 9.5t-98 25.5v-76z" />
<glyph unicode="6" d="M133 598q0 -111 16.5 -221.5t62.5 -199.5t129 -144.5t216 -55.5q201 0 311.5 100.5t110.5 295.5q0 186 -93 288.5t-265 102.5q-66 0 -115 -14.5t-85 -36t-61.5 -45t-44.5 -41.5q0 88 13.5 189.5t57.5 188.5t129 145t228 58q43 0 85 -7t85 -13v78q-29 4 -96 13t-147 9 q-158 0 -261.5 -53t-165 -146.5t-86 -219.5t-24.5 -271zM315 514q12 16 34 45t53.5 56.5t74.5 48t98 20.5q53 0 95.5 -24.5t70 -67.5t42 -101.5t14.5 -125.5q0 -59 -12.5 -114.5t-40 -98.5t-71.5 -69t-106 -26q-61 0 -102 29t-68.5 74t-43 98t-23.5 104.5t-10.5 92.5 t-4.5 59z" />
<glyph unicode="7" d="M129 973h59q8 72 30 110.5t52.5 57t69.5 21.5t82 3h303l-473 -1165h192l484 1188v78h-789z" />
<glyph unicode="8" d="M123 328q0 -84 29.5 -149.5t84 -109.5t128 -68t163.5 -24q92 0 168 19.5t129.5 63.5t83 113t29.5 167q0 82 -23.5 137t-60.5 92t-81 57.5t-85 32.5v5q37 10 77 28.5t73.5 52t55 85t21.5 126.5q0 164 -107.5 248t-283.5 84q-84 0 -153.5 -22.5t-120.5 -64.5t-80 -101.5 t-29 -132.5q0 -74 18.5 -126.5t50.5 -87t73 -56t86 -33.5v-5q-47 -12 -92.5 -33.5t-79 -58.5t-54 -95t-20.5 -144zM305 338q0 53 13.5 105.5t40 93.5t68.5 65.5t99 24.5q117 0 173.5 -83t56.5 -206q0 -61 -12.5 -112.5t-40 -88.5t-71.5 -58.5t-106 -21.5q-55 0 -96 22.5 t-68.5 60.5t-42 89.5t-14.5 108.5zM324 956q0 49 12 94.5t36.5 81t62.5 56t89 20.5q109 0 159 -72.5t50 -177.5q0 -55 -10 -102t-34.5 -83t-64.5 -56.5t-98 -20.5q-55 0 -94 21.5t-62.5 58.5t-34.5 84t-11 96z" />
<glyph unicode="9" d="M96 889q0 -182 92.5 -284.5t264.5 -102.5q66 0 114.5 14t84.5 35.5t61.5 45.5t44.5 42q0 -88 -13.5 -190.5t-58.5 -189.5t-129 -144.5t-227 -57.5q-43 0 -85 7.5t-83 13.5v-78q29 -4 95.5 -13.5t145.5 -9.5q156 0 259.5 53.5t165 146.5t87 219t25.5 272q0 111 -16.5 221 t-62.5 199.5t-129 144.5t-216 55q-201 0 -310.5 -100.5t-109.5 -298.5zM279 897q0 59 12 115.5t38.5 99.5t70.5 69.5t106 26.5q59 0 101 -28.5t70 -73.5t43 -98.5t23.5 -104.5t10.5 -92t4 -59q-12 -16 -34 -45t-53.5 -56.5t-74.5 -48t-98 -20.5q-53 0 -94.5 24.5t-69 67.5 t-41.5 100t-14 123z" />
<glyph unicode=":" horiz-adv-x="608" d="M219 106q0 -53 39 -91t96 -38q55 0 94 38t39 91q0 57 -40.5 94.5t-94.5 37.5q-53 0 -93 -38t-40 -94zM219 844q0 -53 39 -91t96 -38q55 0 94 38t39 91q0 57 -40.5 94t-94.5 37q-53 0 -93 -37t-40 -94z" />
<glyph unicode=";" horiz-adv-x="608" d="M229 844q0 -53 39 -91t94 -38t95.5 38t40.5 91q0 57 -41 94t-95 37q-53 0 -93 -37t-40 -94zM231 115q0 -55 34 -79t67 -28q27 -4 35 -12t8 -31q0 -35 -14.5 -73.5t-35 -73.5t-43 -64.5t-40.5 -46.5h71q8 8 41 44t68 87t62.5 112.5t27.5 121.5q0 27 -8 56.5t-25.5 54 t-45 40t-68.5 15.5q-49 0 -91.5 -30t-42.5 -93z" />
<glyph unicode="&#x3c;" horiz-adv-x="1177" d="M90 430l995 -442v157l-792 340l792 338v158l-995 -440v-111z" />
<glyph unicode="=" horiz-adv-x="1177" d="M117 274h944v107h-944v-107zM117 590h944v106h-944v-106z" />
<glyph unicode="&#x3e;" horiz-adv-x="1177" d="M90 -12l995 442v111l-995 440v-158l793 -338l-793 -340v-157z" />
<glyph unicode="?" horiz-adv-x="948" d="M100 1153h179q2 23 11 51.5t29.5 55t56.5 44t91 17.5q86 0 146.5 -55.5t60.5 -151.5q0 -63 -34 -114.5t-71 -94.5l-118 -129q-37 -41 -59.5 -68.5t-36 -57t-18.5 -68.5t-5 -101v-116h92v55q0 43 6 71.5t20.5 53t37 49t53.5 55.5l155 156q29 27 55.5 56.5t48 64.5t35 79 t13.5 99q0 74 -32 129t-86 92t-122.5 56.5t-142.5 19.5q-96 0 -164 -23.5t-111 -60.5t-64.5 -81t-25.5 -83zM254 102q0 -53 37 -89t92 -36q53 0 90 36t37 89t-39 88t-90 35t-89 -34.5t-38 -88.5z" />
<glyph unicode="@" horiz-adv-x="2048" d="M195 406q0 -150 63.5 -275t176 -214t268 -139t337.5 -50q131 0 243 30.5t198 72.5t143 85t78 66l-55 47q-10 -8 -53.5 -42t-118 -71t-181 -66.5t-245.5 -29.5q-164 0 -296 45t-224.5 123t-142.5 185.5t-50 234.5q0 152 66.5 296t177 257.5t252 183t288.5 69.5 q127 0 243 -37.5t204 -109.5t140 -176.5t52 -235.5t-43 -232t-106.5 -172t-134 -108t-127.5 -37q-35 0 -48.5 15.5t-13.5 40.5q0 14 13.5 55t33 91t41 104.5t37.5 97.5l172 424h-178l-45 -111q-8 14 -22.5 40t-42 50.5t-69.5 43t-104 18.5q-100 0 -195.5 -62.5t-170 -161 t-119.5 -217t-45 -229.5q0 -72 21.5 -127t58.5 -92t87 -55.5t105 -18.5q57 0 102.5 16.5t78 39t54 44t31.5 33.5q0 -18 5.5 -43.5t20.5 -48t44 -38t78 -15.5q106 0 209.5 50t185.5 139.5t131 208t49 257.5q0 147 -57 269.5t-157.5 209.5t-234.5 136t-290 49q-184 0 -351 -75 t-293 -200.5t-200.5 -290.5t-74.5 -347zM756 233q0 49 16 117t46 141.5t69 145.5t85 129t96 93t99 36q61 0 94 -42t33 -89q0 -23 -11 -76t-32.5 -121.5t-53.5 -147.5t-75 -149q-12 -20 -30.5 -50t-46 -57.5t-63.5 -47t-85 -19.5q-61 0 -101 31.5t-40 105.5z" />
<glyph unicode="A" horiz-adv-x="1177" d="M0 0h129l162 457h516l172 -457h199l-529 1378h-352v-35q78 -18 118 -36.5t40 -59.5q0 -25 -10.5 -53.5t-20.5 -56.5zM319 537l234 624l231 -624h-465z" />
<glyph unicode="B" horiz-adv-x="1177" d="M-6 1343q66 -12 105.5 -23t61 -29.5t29 -52.5t7.5 -93v-1145h356q39 0 94 2t115.5 12.5t121 33t107.5 63.5t77 104.5t30 155.5q0 94 -29 159.5t-74 106.5t-101 63.5t-110 32.5v4q35 8 78 27.5t80 56.5t61.5 92.5t24.5 135.5q0 119 -51 185t-124 98t-151.5 39t-134.5 7 h-573v-35zM375 248v440h100q49 0 121 -5t139.5 -36t114.5 -95.5t47 -180.5q0 -86 -29.5 -142.5t-79 -89.5t-113 -46t-130.5 -13q-63 0 -98 4t-50.5 21.5t-18.5 50t-3 92.5zM375 768v377q0 51 3 81.5t18.5 46t45 20.5t82.5 5q61 0 116.5 -12t96.5 -42t65.5 -81t24.5 -131 q0 -94 -38.5 -147.5t-94 -79t-116 -31.5t-103.5 -6h-100z" />
<glyph unicode="C" horiz-adv-x="1138" d="M111 735q0 -156 38.5 -294t113.5 -240.5t185.5 -163t256.5 -60.5q72 0 127 4.5t100 12.5t83 18.5t75 22.5v86q-10 -4 -37 -12.5t-64 -16.5t-82 -15t-90 -7q-113 0 -193.5 32.5t-137 89t-90.5 129t-53 152.5t-25.5 161t-6.5 154q0 117 21.5 213.5t63.5 165t103.5 105.5 t143.5 37q76 0 122 -23.5t72.5 -57.5t37 -69t14.5 -59h201q-6 51 -31 105.5t-76 97.5t-131 70.5t-197 27.5q-158 0 -262 -51.5t-167.5 -141.5t-89 -212t-25.5 -261z" />
<glyph unicode="D" horiz-adv-x="1290" d="M-6 1343q68 -12 107.5 -23t61 -30.5t29 -53.5t7.5 -91v-1145h221q160 0 299 22.5t241.5 94t161 208t58.5 363.5t-56.5 363.5t-157 209t-238.5 95t-300 22.5h-434v-35zM377 231v914q0 49 4 79.5t19.5 47t42 21.5t73.5 5q137 0 227.5 -46t142.5 -127t72.5 -193.5 t20.5 -243.5q0 -322 -123 -465t-371 -143q-41 0 -62.5 9t-31.5 28.5t-12 48.5t-2 65z" />
<glyph unicode="E" horiz-adv-x="1101" d="M-6 1343q68 -10 107.5 -22t62 -32.5t30 -51.5t7.5 -74v-1163h794l15 279h-64q-10 -59 -20.5 -97.5t-27.5 -61t-48 -31.5t-82 -9h-221q-55 0 -89 2t-51.5 13t-22.5 35t-5 69v481h260q66 0 102.5 -10.5t56 -32t26.5 -54t16 -77.5h47v424h-47q-6 -37 -14.5 -68t-29 -53.5 t-57.5 -35.5t-100 -13h-260v403q0 41 3 67.5t15.5 42t38 20.5t68.5 5h215q63 0 98 -11t52.5 -33.5t23.5 -54.5t14 -71h64l-10 250h-967v-35z" />
<glyph unicode="F" horiz-adv-x="1026" d="M-6 1343q68 -10 107.5 -22t62 -32.5t30 -51.5t7.5 -74v-1163h178v680h260q66 0 102.5 -10.5t56 -32t26.5 -54t16 -77.5h47v424h-47q-6 -37 -14.5 -68t-29 -53.5t-57.5 -35.5t-100 -13h-260v403q0 41 3 67.5t15.5 42t38 20.5t68.5 5h215q63 0 98 -11t52.5 -33.5 t23.5 -54.5t14 -71h64l-10 250h-967v-35z" />
<glyph unicode="G" horiz-adv-x="1290" d="M90 743q0 -182 36 -324.5t110.5 -240.5t189.5 -149.5t272 -51.5q70 0 137.5 7.5t125 17.5t101.5 19.5t66 15.5v729h-385v-35q68 -10 108 -21.5t62.5 -32t29.5 -56t7 -97.5v-436q-43 -10 -74.5 -14t-82.5 -4q-147 0 -244.5 59t-154 156.5t-80 221.5t-23.5 253q0 84 10 180 t46 178t105.5 136.5t190.5 54.5q80 0 131 -22.5t82 -55.5t43 -70t16 -67h201q-4 63 -34.5 119.5t-89 97.5t-144.5 65.5t-201 24.5q-162 0 -268.5 -48t-171 -134t-91 -207t-26.5 -269z" />
<glyph unicode="H" horiz-adv-x="1329" d="M-6 1296q51 -6 90 -10t64.5 -18.5t38 -42t12.5 -80.5v-1145h178v674h600v-674h178v1378h-178v-624h-600v624l-383 -47v-35z" />
<glyph unicode="I" horiz-adv-x="569" d="M0 1296q53 -6 92 -10t63.5 -18.5t37 -42t12.5 -80.5v-1145h178v1378l-383 -47v-35z" />
<glyph unicode="J" horiz-adv-x="872" d="M-25 223q6 -123 94.5 -184.5t247.5 -61.5q127 0 204 37t119 92.5t55.5 121t13.5 122.5v1028l-383 -47v-35q53 -6 92 -10t63.5 -18.5t36.5 -42t12 -80.5v-770q0 -43 -3 -97.5t-21.5 -103.5t-57 -83t-112.5 -34q-51 0 -83 17.5t-50.5 44t-25.5 54.5t-9 50h-193z" />
<glyph unicode="K" horiz-adv-x="1177" d="M-4 1296q53 -6 92 -10t63.5 -18.5t37 -42t12.5 -80.5v-1145h178v698h4l555 -698h215l-623 780l545 598h-135l-561 -616v616l-383 -47v-35z" />
<glyph unicode="L" horiz-adv-x="987" d="M-6 1296q53 -6 92 -10t63.5 -18.5t37 -42t12.5 -80.5v-1145h757l11 303h-64q-6 -51 -13 -92t-23.5 -70.5t-49.5 -45t-90 -15.5h-182q-63 0 -97 4t-49.5 22.5t-18.5 54.5t-3 99v1118l-383 -47v-35z" />
<glyph unicode="M" horiz-adv-x="1671" d="M-6 1343q68 -14 107.5 -25t61 -30.5t29 -54.5t7.5 -96v-1137h106v1270h4l426 -1270h160l428 1270h4v-1270h178v1378h-248l-405 -1177h-4l-406 1177h-448v-35z" />
<glyph unicode="N" horiz-adv-x="1329" d="M-10 1343q66 -10 106.5 -21t62 -31.5t29 -56.5t7.5 -97v-1137h106v1202h4l692 -1202h156v1378h-106v-1118h-5l-643 1118h-409v-35z" />
<glyph unicode="O" horiz-adv-x="1290" d="M111 688q0 -154 24.5 -284t86 -225t164.5 -148.5t261 -53.5q152 0 254.5 50.5t163.5 142.5t88 223t27 295q0 154 -26 284t-87 225t-163.5 149.5t-256.5 54.5t-256 -50.5t-164.5 -142.5t-89 -224t-26.5 -296zM311 688q0 106 8.5 218t42 204t101 151.5t184.5 59.5 q119 0 185.5 -62.5t99.5 -156.5t40 -206t7 -208q0 -104 -8 -216t-42 -204t-99.5 -151.5t-182.5 -59.5q-121 0 -188.5 62.5t-100 157t-40 205t-7.5 206.5z" />
<glyph unicode="P" horiz-adv-x="1101" d="M-4 1343q66 -10 106.5 -22t62 -31.5t29 -50.5t7.5 -78v-1161h178v664h92q94 0 195.5 5t186.5 38.5t140.5 106.5t55.5 206q0 135 -52.5 207.5t-133.5 106.5t-180 39t-191 5h-496v-35zM379 743v418q0 45 4 72t21.5 41t52.5 19t96 5q137 0 216 -63.5t79 -214.5 q0 -98 -33 -154.5t-86 -83t-121.5 -33t-140.5 -6.5h-88z" />
<glyph unicode="Q" horiz-adv-x="1290" d="M111 688q0 -139 19.5 -259t66.5 -213t125.5 -155.5t199.5 -83.5q25 -47 62 -88t92 -71.5t133 -48t186 -17.5q47 0 93.5 7.5t91.5 23.5v63q-27 -8 -52.5 -14t-54.5 -6q-129 0 -204.5 46t-106.5 105q119 18 198.5 76t129 150t70 215t20.5 270q0 154 -26 284t-87 225 t-163.5 149.5t-256.5 54.5t-256 -50.5t-164.5 -142.5t-89 -224t-26.5 -296zM311 688q0 106 8.5 218t42 204t101 151.5t184.5 59.5q119 0 185.5 -62.5t99.5 -156.5t40 -206t7 -208q0 -106 -8 -218t-42 -204t-99.5 -150.5t-182.5 -58.5q-121 0 -188.5 62.5t-100 157t-40 205 t-7.5 206.5z" />
<glyph unicode="R" horiz-adv-x="1138" d="M-10 1343q66 -12 105.5 -22t62 -27.5t31 -48.5t8.5 -84v-1161h178v678h102l408 -678h200l-413 690q68 8 131 28.5t113.5 59.5t80 98.5t29.5 147.5q0 111 -36 180.5t-98.5 107.5t-145 52t-177.5 14h-579v-35zM375 758v403q0 45 3 73t17.5 42t44 18t80.5 4q59 0 114.5 -12 t97.5 -42t67.5 -78t25.5 -122q0 -109 -41 -166t-101 -84.5t-129 -31.5t-124 -4h-55z" />
<glyph unicode="S" horiz-adv-x="987" d="M80 1055q0 -109 49 -179.5t122 -123t158 -92t157.5 -85t121.5 -102.5t49 -143q0 -131 -75.5 -195.5t-210.5 -64.5q-53 0 -104.5 9t-97.5 22.5t-86 28.5t-69 30v-142q12 -4 45 -10t78 -13t98.5 -12.5t106.5 -5.5q98 0 188 21.5t159 70t110 123t41 181.5q0 113 -50.5 187.5 t-125 128.5t-162.5 95t-163 85t-125 98.5t-50 136.5q0 94 68.5 149.5t179.5 55.5q53 0 104 -9.5t95 -22.5t79 -27.5t59 -24.5v143q-45 10 -123.5 21.5t-179.5 11.5q-205 0 -325.5 -89t-120.5 -257z" />
<glyph unicode="T" horiz-adv-x="1101" d="M25 1100h63q4 47 10 84t24.5 62.5t53.5 38.5t100 13h185v-1298h178v1298h184q66 0 102 -13t54 -38.5t23.5 -62.5t9.5 -84h63l-10 278h-1030z" />
<glyph unicode="U" horiz-adv-x="1290" d="M-10 1296q51 -6 90 -10t64.5 -18.5t38 -42t12.5 -80.5v-643q0 -106 12 -201.5t59 -167.5t141.5 -114t260.5 -42q172 0 266 48.5t137 124t50 171t7 189.5v868h-120v-893q0 -72 -5.5 -147.5t-37 -138t-100 -102.5t-195.5 -40q-111 0 -171.5 48.5t-88 118t-32.5 146 t-5 132.5v876l-383 -47v-35z" />
<glyph unicode="V" horiz-adv-x="1177" d="M-117 1343q57 -10 91 -20t55.5 -31.5t38 -57.5t38.5 -97l435 -1160h118l519 1401h-121l-424 -1145l-412 1145h-338v-35z" />
<glyph unicode="W" horiz-adv-x="1669" d="M-102 1343q59 -12 94 -22t56.5 -30.5t33.5 -54.5t24 -95l236 -1164h147l351 1223h4l373 -1223h114l293 1401h-108l-224 -1071h-4l-325 1071h-172l-322 -1122h-4l-227 1122h-340v-35z" />
<glyph unicode="X" horiz-adv-x="1101" d="M-47 1343q61 -10 95 -23t56.5 -36.5t41 -59.5t51.5 -87l256 -430l-433 -707h134l360 590l356 -590h207l-434 735l397 643h-129l-329 -532l-320 532h-309v-35z" />
<glyph unicode="Y" d="M-104 1343q51 -4 84.5 -17t59.5 -37.5t48.5 -62.5t52.5 -89l291 -490v-647h178v647l453 731h-135l-371 -600l-356 600h-305v-35z" />
<glyph unicode="Z" horiz-adv-x="1099" d="M78 0h993l10 307h-63q-6 -53 -11.5 -95t-23.5 -70.5t-54 -45t-102 -16.5h-514l738 1210v88h-924l-12 -280h63q4 45 10.5 83t23.5 63.5t53 39.5t102 14h446l-735 -1208v-90z" />
<glyph unicode="[" horiz-adv-x="608" d="M190 -283h390v80h-91q-35 0 -61.5 2t-43.5 13.5t-26.5 35t-9.5 68.5v1352q0 63 4 99t19.5 51.5t42 18.5t73.5 3h93v80h-390v-1803z" />
<glyph unicode="\" horiz-adv-x="684" d="M96 1520l396 -1803h122l-395 1803h-123z" />
<glyph unicode="]" horiz-adv-x="608" d="M27 -203v-80h389v1803h-389v-80h94q45 0 72.5 -3t42 -18.5t18.5 -51.5t4 -99v-1352q0 -45 -8 -68.5t-25.5 -35t-44 -13.5t-63.5 -2h-90z" />
<glyph unicode="^" horiz-adv-x="759" d="M123 1063h125l133 209l129 -209h127l-195 315h-123z" />
<glyph unicode="_" horiz-adv-x="1024" d="M0 -154v-102h1024v102h-1024z" />
<glyph unicode="`" horiz-adv-x="614" d="M102 1368q0 -16 10.5 -34.5t30.5 -47.5l119 -170h88l-69 236q-14 47 -34 66.5t-67 19.5q-31 0 -54.5 -18.5t-23.5 -51.5z" />
<glyph unicode="a" horiz-adv-x="948" d="M94 219q0 -106 67.5 -174t178.5 -68q59 0 105.5 16.5t82 40t60 50.5t43.5 47v-131h157v641q0 70 -12 131.5t-47 106.5t-98.5 70.5t-165.5 25.5t-169 -23.5t-109 -61.5t-60 -84t-21 -91h183q2 20 6 51t21.5 59.5t50 49t92.5 20.5q63 0 99 -25.5t51.5 -66.5t18.5 -93.5 t3 -105.5v-80q-33 -2 -86 -4t-112.5 -11t-120 -28.5t-108.5 -53.5t-79 -84t-31 -124zM268 246q0 76 44 118t104.5 63.5t121 27.5t93.5 6v-121q0 -39 -12.5 -84t-39 -85t-65.5 -66.5t-90 -26.5q-43 0 -72.5 16.5t-48 41t-27 54t-8.5 56.5z" />
<glyph unicode="b" d="M-2 1354q45 0 76.5 -8.5t50 -28t27 -52t8.5 -83.5v-1182h51l106 86q16 -16 38 -34.5t52.5 -35t69.5 -28t90 -11.5q102 0 177 36t123 100.5t72 155.5t24 204q0 98 -20.5 189.5t-66 161t-116 110.5t-170.5 41q-59 0 -103.5 -16.5t-77 -40t-54 -52t-33.5 -53.5h-5v621 l-319 -45v-35zM317 422v153q0 39 13.5 94.5t42 105.5t72.5 85t104 35q74 0 121 -43t73.5 -107.5t35.5 -137t9 -134.5q0 -53 -7 -125t-29.5 -136.5t-67.5 -109.5t-121 -45q-90 0 -140 37t-73.5 92.5t-28 119t-4.5 116.5z" />
<glyph unicode="c" horiz-adv-x="872" d="M100 506q0 -117 27 -214t85 -167t151.5 -109t228.5 -39q76 0 131 11.5t88 21.5v60q-29 -4 -56.5 -8.5t-56.5 -4.5q-111 0 -190.5 46.5t-131.5 121t-77 166.5t-25 184q0 154 57.5 237t155.5 83q51 0 85 -16.5t53.5 -42t28 -58.5t8.5 -63h190q0 49 -23.5 96t-68.5 83 t-109.5 58.5t-146.5 22.5q-111 0 -187.5 -37t-125 -100.5t-70 -149.5t-21.5 -182z" />
<glyph unicode="d" d="M100 475q0 -109 25 -200t73 -156.5t119.5 -103.5t163.5 -38q55 0 97.5 15.5t74 39t53 51.5t33.5 52h4v-135h158v1434l-313 -45v-35q90 -2 122.5 -37t32.5 -135v-369h-4q-12 25 -34.5 52.5t-55.5 52t-78 41t-100 16.5q-96 0 -165.5 -41t-116 -109.5t-68 -159t-21.5 -190.5 zM274 475q0 61 9.5 135t36 137.5t71.5 105.5t117 42q70 0 116 -38t72.5 -94t36.5 -122t10 -123v-82q0 -59 -11 -125.5t-39.5 -123t-76 -93.5t-116.5 -37q-72 0 -116 45t-68.5 111t-33 137.5t-8.5 124.5z" />
<glyph unicode="e" horiz-adv-x="911" d="M86 506q0 -258 125 -393.5t352 -135.5q96 0 166 14.5t88 22.5v68q-35 -10 -71.5 -17.5t-73.5 -7.5q-106 0 -186 48.5t-134.5 121t-81 158.5t-26.5 160v43h598v30q0 92 -27 159t-73 111t-109.5 65.5t-134.5 21.5q-113 0 -191 -32t-127 -92t-71.5 -147.5t-22.5 -197.5z M246 657q2 27 11 67t33.5 78t67.5 65.5t113 27.5q45 0 81 -18.5t60.5 -48t38 -69.5t13.5 -83v-19h-418z" />
<glyph unicode="f" horiz-adv-x="681" d="M80 883h162v-883h157v883h277v69h-277v117q0 53 2 104.5t13.5 91.5t36 64.5t69.5 24.5q74 0 99.5 -39t29.5 -101h172q-2 37 -17.5 75t-48 71t-87 53.5t-133.5 20.5q-98 0 -157 -34t-88.5 -87t-38.5 -118t-9 -126v-117h-162v-69z" />
<glyph unicode="g" d="M98 481q0 -102 23.5 -190t72 -152.5t119 -101.5t164.5 -37q57 0 99 15.5t73 39t51.5 49t32.5 48.5h4v-152q0 -47 -3 -106.5t-23.5 -110.5t-63.5 -86t-123 -35q-66 0 -105.5 14.5t-63 38t-34 53t-16.5 60.5h-188q2 -47 19.5 -91t60.5 -79t114.5 -55.5t182.5 -20.5 q125 0 203.5 31t122.5 85t59.5 125t15.5 150v807q0 47 16.5 74t40 40t50 17t47.5 7v34h-312v-131h-4q-10 18 -28.5 45t-49 50.5t-72.5 41t-100 17.5q-104 0 -178 -39t-120 -105.5t-66.5 -156.5t-20.5 -193zM272 467q0 66 9.5 140.5t34 139t69.5 106.5t117 42q78 0 125 -40 t71.5 -97.5t31.5 -123t7 -114.5v-100q0 -59 -13 -119.5t-41 -110t-69 -80t-96 -30.5q-76 0 -123 36t-74.5 91t-38 123.5t-10.5 136.5z" />
<glyph unicode="h" d="M10 1354q20 -2 48 -5t52.5 -16.5t42 -40t17.5 -73.5v-1219h158v442q0 80 28.5 158t70.5 138.5t90 98t87 37.5q51 0 79 -23.5t41 -60t15 -84t2 -94.5v-612h158v606q0 53 -4 117.5t-26.5 120t-73 93.5t-142.5 38q-70 0 -124 -34t-94 -79t-65.5 -91t-37.5 -73h-4v736 l-318 -45v-35z" />
<glyph unicode="i" horiz-adv-x="493" d="M27 891q20 -2 47.5 -6t50 -17.5t39 -40t16.5 -71.5v-756h158v975l-311 -49v-35zM135 1286q0 -47 34 -81t83 -34q47 0 81 32t34 83q0 47 -34 81t-81 34q-49 0 -83 -34t-34 -81z" />
<glyph unicode="j" horiz-adv-x="493" d="M-229 -178q0 -43 15 -86t50 -77t90.5 -55.5t134.5 -21.5q106 0 165 44t85.5 106.5t31.5 131t5 120.5v991l-311 -49v-35q20 -2 48 -6t50.5 -17.5t38.5 -40t16 -71.5v-815q0 -53 -2 -102.5t-11 -89.5t-31.5 -63.5t-61.5 -23.5q-47 0 -73.5 13.5t-42 36t-19.5 51t-4 59.5 h-174zM143 1286q0 -47 35 -81t82 -34t82 32t35 83q0 47 -35 81t-82 34t-82 -34t-35 -81z" />
<glyph unicode="k" horiz-adv-x="948" d="M8 1354q23 -2 50.5 -5t52 -16.5t41 -40t16.5 -73.5v-1219h158v500h4l399 -500h191l-449 557l379 395h-139l-385 -401v883l-318 -45v-35z" />
<glyph unicode="l" horiz-adv-x="493" d="M10 1354q20 -2 48 -5t52.5 -16.5t42 -40t17.5 -73.5v-1219h158v1434l-318 -45v-35z" />
<glyph unicode="m" horiz-adv-x="1593" d="M41 891q23 -2 49.5 -6t50 -17.5t40 -40t16.5 -71.5v-756h157v487q0 63 20.5 132t56.5 125.5t81 93t94 36.5q51 0 79 -17t40 -47t14 -69t2 -79v-662h158v496q0 72 23.5 139t60.5 120.5t80 86t84 32.5q51 0 79.5 -19t42 -53t15.5 -81t2 -105v-616h158v649q0 61 -4 119.5 t-26.5 105t-72 74t-141.5 27.5q-70 0 -121 -28.5t-87 -68.5t-57.5 -81t-33.5 -68h-4q0 55 -11.5 100t-39 77t-74.5 50.5t-119 18.5q-61 0 -112.5 -28.5t-88 -67.5t-61 -81t-33.5 -69h-4v246l-313 -49v-35z" />
<glyph unicode="n" horiz-adv-x="1099" d="M39 891q23 -2 49.5 -6t50 -17.5t40 -40t16.5 -71.5v-756h157v487q0 51 24.5 118t64.5 126.5t92.5 101t107.5 41.5q53 0 83 -17t43 -47t15 -69t2 -79v-662h158v729q0 55 -10 100t-37 77t-75 50.5t-122 18.5q-78 0 -136 -32t-100 -75t-67.5 -89t-38.5 -77h-4v273l-313 -49 v-35z" />
<glyph unicode="o" d="M104 471q0 -111 29 -201t83 -155.5t134 -101.5t182 -36q215 0 320.5 132.5t105.5 363.5t-113.5 366.5t-316.5 135.5q-113 0 -192.5 -37t-130.5 -102.5t-76 -158.5t-25 -206zM279 471q0 63 5 137t29.5 137.5t75.5 106.5t141 43q82 0 132.5 -43t78 -106.5t35.5 -137 t8 -137.5q0 -59 -6 -131t-30.5 -134.5t-74.5 -105.5t-138 -43q-82 0 -132.5 43t-78 106.5t-36.5 135.5t-9 129z" />
<glyph unicode="p" d="M18 893q23 -2 50.5 -6t52 -16.5t42 -39t17.5 -75.5v-1192h158v575h4q10 -25 31.5 -53.5t53.5 -53t76 -40t97 -15.5q100 0 170 41t113 110t62.5 160t19.5 191q0 106 -22.5 197.5t-69 157t-117 103.5t-168.5 38q-51 0 -92 -16.5t-72 -40t-52.5 -50t-29.5 -49.5h-4v156 l-320 -47v-35zM338 422v147q0 57 15.5 114.5t44 105t70.5 77t95 29.5q70 0 115 -45t69.5 -110.5t34 -138.5t9.5 -126q0 -61 -8.5 -134t-32 -135.5t-67.5 -105.5t-114 -43q-68 0 -112.5 38t-70.5 93.5t-37 119t-11 114.5z" />
<glyph unicode="q" d="M100 477q0 -98 19.5 -189t62.5 -160t113 -110t170 -41q53 0 96 15.5t76 40t54.5 53.5t31.5 53h4v-575h158v1411h-41l-117 -109q-10 14 -31.5 34t-53.5 36t-73 27.5t-92 11.5q-98 0 -168.5 -38t-117 -103.5t-69 -157.5t-22.5 -199zM274 473q0 53 9.5 126t34 138.5 t68.5 111.5t116 46q51 0 93 -29.5t71.5 -77t45 -106.5t15.5 -117v-145q0 -51 -11 -113.5t-37 -118t-71 -93.5t-112 -38q-72 0 -115 42t-66.5 105.5t-32 135.5t-8.5 133z" />
<glyph unicode="r" horiz-adv-x="645" d="M16 891q23 -2 49.5 -6t50 -18.5t40 -41t16.5 -75.5v-750h158v492q0 47 7 103t31.5 105.5t69.5 83t119 33.5q16 0 33.5 -5t34.5 -9v170q-6 2 -19 2q-74 0 -121 -25.5t-77.5 -63.5t-47 -80t-26.5 -75h-4v244l-314 -49v-35z" />
<glyph unicode="s" horiz-adv-x="757" d="M76 18q39 -12 101.5 -26.5t162.5 -14.5q78 0 144.5 17.5t115.5 52.5t77 90.5t28 132.5q0 80 -36 134.5t-89.5 91t-116 64.5t-115.5 56.5t-89 62.5t-36 85q0 37 14.5 61.5t38 40t54 22.5t63.5 7q43 0 83 -10.5t72 -22.5t56.5 -25.5t36.5 -19.5v123q-27 6 -88 20.5 t-139 14.5q-90 0 -153.5 -19.5t-103.5 -55.5t-58.5 -85t-18.5 -108q0 -68 36 -115t89 -82t115.5 -63.5t115.5 -59.5t89 -66.5t36 -89.5q0 -96 -60.5 -135t-152.5 -39q-47 0 -93 12.5t-83 29t-62.5 30.5t-33.5 18v-129z" />
<glyph unicode="t" horiz-adv-x="681" d="M61 883h158v-617q0 -72 7 -126t36 -90t88.5 -54.5t161.5 -18.5q57 0 117 13v76q-18 -4 -38 -6.5t-40 -2.5q-76 0 -125 29t-49 121v676h252v69h-254v312l-156 -138v-174h-158v-69z" />
<glyph unicode="u" horiz-adv-x="1099" d="M43 891q20 -2 48 -6t50.5 -17.5t39 -40t16.5 -71.5v-394q0 -86 11 -156.5t43 -120.5t86 -79t140 -29q70 0 122 29t90 68t61.5 81t33.5 70h4v-225h158v975l-311 -49v-35q23 -2 49.5 -6t50 -17.5t38.5 -40t15 -71.5v-293q0 -49 -21.5 -115.5t-58 -127t-83.5 -101.5t-99 -41 q-53 0 -85.5 21.5t-52 57.5t-27 83t-7.5 96v639l-311 -49v-35z" />
<glyph unicode="v" horiz-adv-x="911" d="M-76 918q55 -6 87 -20.5t53.5 -37t36 -55.5t32.5 -78l311 -750h95l366 975h-110l-273 -751l-315 751h-283v-34z" />
<glyph unicode="w" horiz-adv-x="1402" d="M-14 918q47 -6 74.5 -16.5t45 -29t28.5 -49t26 -80.5l221 -766h98l240 773h4l254 -773h100l254 975h-104l-189 -733h-4l-239 733h-113l-219 -727h-4l-209 727h-264v-34z" />
<glyph unicode="x" horiz-adv-x="948" d="M-14 918q33 -6 61.5 -12.5t54 -20t51 -38t54.5 -67.5l211 -301l-371 -479h117l305 399l268 -399h191l-359 528l320 424h-115l-260 -342l-231 342h-297v-34z" />
<glyph unicode="y" horiz-adv-x="911" d="M-80 918q51 -4 84 -16.5t54.5 -36t39 -59.5t37.5 -85l303 -721l-26 -72q-25 -66 -45.5 -116t-41 -83.5t-44 -50t-56.5 -16.5q-37 0 -60.5 19.5t-36.5 46t-19.5 55.5t-6.5 49h-178q0 -29 12.5 -71t43 -81.5t83 -68.5t134.5 -29q72 0 121 25.5t84.5 74t64.5 117t61 152.5 l377 1001h-108l-279 -741l-305 741h-293v-34z" />
<glyph unicode="z" horiz-adv-x="911" d="M66 0h755l13 231h-48q-6 -45 -20 -73.5t-42 -46t-74 -24.5t-115 -7h-273l547 792v80h-700l-11 -231h45q6 33 14.5 60.5t29 48t56.5 31.5t99 11h274l-550 -792v-80z" />
<glyph unicode="{" d="M248 500q43 -14 84 -39t72.5 -57.5t50 -74.5t18.5 -89q0 -41 -11 -90.5t-22 -102.5q-10 -47 -17 -94t-7 -103q0 -74 39 -136t100 -108t138 -74t155 -30v52q-57 12 -98 40.5t-68 67.5t-40 83t-13 87q0 41 4 83t10 91q4 37 9 85t5 77q0 82 -34.5 141.5t-85 101.5 t-104.5 69.5t-93 43.5q39 16 93 42t104.5 67t85 101.5t34.5 146.5q0 29 -5 77t-9 84q-6 49 -10 91.5t-4 83.5q0 43 13 87t40 82.5t68 67.5t98 41v51q-78 -4 -155 -30.5t-138 -72.5t-100 -108.5t-39 -136.5q0 -55 7 -102t17 -95q10 -53 21.5 -102t11.5 -90q0 -51 -18.5 -93 t-50 -75t-72.5 -55.5t-84 -36.5v-49z" />
<glyph unicode="|" horiz-adv-x="681" d="M276 -283h132v1803h-132v-1803z" />
<glyph unicode="}" d="M221 -446v-52q76 2 154 30t139 74t100 108.5t39 135.5q0 55 -7 102.5t-17 94.5q-10 53 -21.5 102.5t-11.5 90.5q0 47 18.5 89t50 74.5t72.5 57t84 39.5v49q-43 14 -84 36.5t-72.5 55.5t-50 75t-18.5 93q0 41 11 90t22 102q10 47 17 94.5t7 102.5q0 74 -39 136.5 t-100 108.5t-139 72.5t-154 30.5v-51q57 -12 98 -41t68 -67.5t40 -82.5t13 -87q0 -41 -4 -83t-10 -92q-4 -37 -9 -85t-5 -76q0 -86 34.5 -146.5t85 -101.5t104.5 -66.5t93 -42.5q-39 -16 -93 -43.5t-104.5 -69.5t-85 -101.5t-34.5 -141.5q0 -29 5 -77t9 -85q6 -49 10 -91 t4 -83q0 -43 -13 -87t-40 -83t-67.5 -67.5t-98.5 -40.5z" />
<glyph unicode="~" horiz-adv-x="1177" d="M113 322h123q0 37 1 76.5t10 73.5t26.5 55.5t52.5 21.5q31 0 55.5 -14.5t64.5 -42.5l220 -158q45 -33 88 -56.5t108 -23.5q76 0 117 38t60.5 92t22.5 115.5t3 108.5h-121q0 -33 -1 -72.5t-10 -75.5t-28.5 -59.5t-54.5 -23.5q-31 0 -60.5 16.5t-66.5 44.5l-213 152 q-49 35 -92 58.5t-107 23.5q-74 0 -114.5 -40t-59 -96.5t-21.5 -116t-3 -97.5z" />
<glyph unicode="&#xa1;" horiz-adv-x="645" d="M119 991q0 -53 38 -89t91 -36t90 36t37 89q0 49 -37 86t-90 37t-91 -36t-38 -87zM141 -289h211l-59 1008h-90z" />
<glyph unicode="&#xa2;" horiz-adv-x="872" d="M82 492q0 -123 34 -212.5t85 -149.5t112.5 -94t116.5 -42v-184h80v174q43 -6 92 -7q20 0 52 4.5t65 9.5t59.5 11t36.5 12v64q-61 -20 -131 -21q-55 0 -100 16.5t-74 32.5v799q92 -14 125 -71.5t33 -147.5h182q-2 53 -19.5 102.5t-56.5 88t-103.5 64.5t-160.5 32v155h-80 v-155q-84 -10 -148.5 -41t-109.5 -88.5t-67.5 -143.5t-22.5 -208zM246 600q0 76 14 128t39 88t58.5 55.5t72.5 31.5v-751q-37 27 -70.5 66.5t-58.5 93t-40 125t-15 163.5z" />
<glyph unicode="&#xa3;" horiz-adv-x="1026" d="M68 621h174v-621h702l23 287h-64q-2 -37 -12 -74t-30.5 -66.5t-51.5 -48t-74 -18.5h-190q-49 0 -76 7t-41 24.5t-17 49.5t-3 81v379h260v79h-260v277q0 51 3 100t18 89t50 64.5t101 24.5q49 0 78.5 -16t47 -39.5t23.5 -48.5t8 -43h178q-2 43 -20 84t-56 72.5t-96.5 51 t-138.5 19.5q-104 0 -174 -21.5t-112 -63.5t-59 -103.5t-17 -138.5v-308h-174v-79z" />
<glyph unicode="&#xa4;" horiz-adv-x="1024" d="M27 1145l143 -144q-47 -59 -72.5 -132.5t-25.5 -149.5q0 -74 22.5 -148.5t73.5 -130.5l-137 -137l61 -61l135 135q57 -45 133 -70.5t154 -25.5q76 0 146.5 22.5t138.5 73.5l135 -135l61 61l-137 137q49 55 72.5 130t23.5 149q0 76 -22.5 151.5t-75.5 130.5l143 144 l-65 63l-141 -139q-59 43 -132 68.5t-147 25.5q-76 0 -148.5 -25.5t-132.5 -68.5l-141 139zM156 719q0 74 27.5 139.5t76.5 114.5t114.5 77.5t139.5 28.5t138.5 -28.5t113.5 -77.5t76.5 -114.5t27.5 -139.5t-28.5 -138.5t-76.5 -112.5t-112.5 -75.5t-138.5 -27.5 t-139.5 27.5t-113.5 75.5t-76.5 112.5t-28.5 138.5z" />
<glyph unicode="&#xa5;" d="M-78 1343q47 -6 78 -17t54.5 -33.5t48 -60.5t59.5 -95l190 -312h-286v-80h335l60 -98v-143h-395v-80h395v-424h178v424h369v80h-369v143l61 98h308v80h-258l340 553h-136l-370 -600l-361 600h-301v-35z" />
<glyph unicode="&#xa6;" horiz-adv-x="493" d="M180 -283h131v721h-131v-721zM180 799h131v721h-131v-721z" />
<glyph unicode="&#xa7;" horiz-adv-x="1026" d="M115 715q0 -59 23.5 -101.5t60.5 -71t80 -48t81 -33.5l78 -29q51 -18 97.5 -37.5t82 -44t57 -56.5t21.5 -75q0 -53 -20.5 -86t-50 -52.5t-63.5 -26.5t-60 -7q-49 0 -83 13.5t-57.5 36t-36 51t-18.5 57.5h-178q6 -45 27.5 -86t61.5 -73t101.5 -50.5t145.5 -18.5 q180 0 284.5 73t104.5 206q0 41 -12.5 73.5t-29.5 57.5t-35.5 42t-31.5 30q14 10 40 31.5t50.5 51t43 67.5t18.5 85q0 55 -27.5 97.5t-65.5 72t-77 48t-61 28.5l-146 59q-47 18 -83 35t-60.5 36.5t-36.5 47t-12 68.5q0 80 51 112.5t119 32.5q53 0 85.5 -16.5t53 -41t30 -52 t13.5 -47.5h178q-10 94 -93 160.5t-251 66.5q-53 0 -113.5 -14.5t-111.5 -45t-85 -80t-34 -118.5q0 -37 10 -66.5t24.5 -51t30 -37t25.5 -23.5q-18 -16 -42.5 -39t-47.5 -53.5t-39 -69.5t-16 -88zM236 778q0 27 10 50.5t24.5 42t28.5 33t20 20.5q16 -8 31 -14.5t31 -12.5 l184 -72q27 -12 64 -26.5t68.5 -36t54 -51t22.5 -72.5q0 -27 -10 -49.5t-25.5 -42t-31 -33.5t-23.5 -25q-16 8 -31.5 14.5t-31.5 14.5l-197 80q-33 14 -66.5 29.5t-60.5 36t-44 48t-17 66.5z" />
<glyph unicode="&#xa8;" horiz-adv-x="614" d="M20 1231q0 -45 32 -75t73 -30q43 0 74.5 31t31.5 74t-31.5 73.5t-74.5 30.5t-74 -30.5t-31 -73.5zM381 1231q0 -45 31.5 -75t74.5 -30t74 31t31 74t-31 73.5t-74 30.5q-45 0 -75.5 -30.5t-30.5 -73.5z" />
<glyph unicode="&#xa9;" horiz-adv-x="1024" d="M33 942q0 -96 39 -180t104.5 -146.5t152.5 -98.5t183 -36t183 36t152.5 98.5t104.5 146.5t39 180t-39 180t-104.5 145.5t-152.5 97.5t-183 36t-183 -36t-152.5 -97.5t-104.5 -145.5t-39 -180zM104 942q0 80 33 150.5t88.5 123t129 83t157.5 30.5q82 0 156.5 -30.5 t130 -83t88.5 -123t33 -150.5q0 -82 -33 -153.5t-88.5 -124t-130 -82t-156.5 -29.5q-84 0 -157.5 29.5t-129 82t-88.5 124t-33 153.5zM262 938q0 -121 74 -197.5t190 -76.5q70 0 110 22.5t60.5 53t26.5 64.5t10 56h-43q-4 -16 -10 -41.5t-21.5 -49.5t-42 -41t-69.5 -17 q-76 0 -114 62.5t-38 166.5q0 121 37 185.5t109 64.5q35 0 59.5 -18.5t41.5 -44t29.5 -56.5t22.5 -55l31 6v207h-31q-8 -8 -15 -18.5t-20 -10.5q-12 0 -25 5t-29.5 10.5t-38 10.5t-52.5 5q-45 0 -90 -21.5t-81 -60.5t-58.5 -93.5t-22.5 -117.5z" />
<glyph unicode="&#xaa;" horiz-adv-x="532" d="M51 696q0 -57 39 -95t100 -38t96.5 20.5t59.5 55.5h4v-66h92v385q0 160 -188 160q-55 0 -91 -13t-59.5 -34.5t-34 -49.5t-12.5 -54h111q0 12 3 30.5t11 35t26.5 28.5t49.5 12q35 0 53.5 -13t27.5 -37t10 -52.5t1 -59.5v-39q-41 -4 -92 -9t-97 -22.5t-78 -51t-32 -93.5z M154 723q0 35 24.5 55.5t56 31.5t64.5 14t51 3v-57q0 -25 -6 -49.5t-20.5 -46t-38 -34.5t-58.5 -13t-54 27.5t-19 68.5z" />
<glyph unicode="&#xab;" horiz-adv-x="759" d="M84 487l215 -368h104l-122 368l122 379h-104zM356 487l215 -368h105l-123 368l123 379h-105z" />
<glyph unicode="&#xac;" horiz-adv-x="1177" d="M115 432h815v-315h131v422h-946v-107z" />
<glyph unicode="&#xad;" horiz-adv-x="835" d="M111 438h614v129h-614v-129z" />
<glyph unicode="&#xae;" horiz-adv-x="1024" d="M33 942q0 -96 39 -180t104.5 -146.5t152.5 -98.5t183 -36t183 36t152.5 98.5t104.5 146.5t39 180t-39 180t-104.5 145.5t-152.5 97.5t-183 36t-183 -36t-152.5 -97.5t-104.5 -145.5t-39 -180zM104 942q0 80 33 150.5t88.5 123t129 83t157.5 30.5q82 0 156.5 -30.5 t130 -83t88.5 -123t33 -150.5q0 -82 -33 -152.5t-88.5 -123t-130 -83t-156.5 -30.5q-84 0 -157.5 30.5t-129 83t-88.5 123t-33 152.5zM274 688h267v39q-27 4 -42.5 6t-23.5 10.5t-10 23.5t-2 46v125h22q37 0 56.5 -18.5t29 -47t14.5 -60.5t16 -60.5t33.5 -47t67.5 -18.5 q33 0 54.5 15.5t34 38t16.5 47t4 42.5h-41q0 -6 -1 -17t-4 -22.5t-9 -19.5t-19 -8q-20 0 -26 18.5t-15.5 47t-30 61.5t-67.5 61q23 6 48.5 13.5t48 20.5t38 36.5t15.5 60.5q0 43 -17.5 70t-47.5 40t-71 18t-88 5h-250v-38q45 -6 60.5 -15.5t15.5 -58.5v-293 q0 -53 -15.5 -65.5t-60.5 -16.5v-39zM463 981v117q0 39 9 58.5t63 19.5q53 0 70.5 -28t17.5 -75q0 -29 -10.5 -47t-27 -28.5t-37 -13.5t-42.5 -3h-43z" />
<glyph unicode="&#xaf;" horiz-adv-x="614" d="M45 1116h524v103h-524v-103z" />
<glyph unicode="&#xb0;" horiz-adv-x="684" d="M113 1065q0 -47 18.5 -87t49 -69.5t72.5 -47t89 -17.5t89 17.5t73 47t49 69.5t18 87t-18 88t-49 70.5t-73 47t-89 17.5t-89 -17.5t-72.5 -47t-49 -70.5t-18.5 -88zM201 1065q0 57 41 96t100 39t100 -38t41 -97q0 -57 -41 -95t-100 -38t-100 39t-41 94z" />
<glyph unicode="&#xb1;" horiz-adv-x="1177" d="M117 -82v-106h944v106h-944zM117 432h401v-432h131v432h412v107h-412v399h-131v-399h-401v-107z" />
<glyph unicode="&#xb2;" horiz-adv-x="720" d="M86 420h532l15 211h-45q-12 -68 -36 -101.5t-103 -33.5h-250q14 12 50 42.5t82 72.5t94 92.5t89 105.5t67.5 111.5t26.5 109.5q0 258 -262 258q-68 0 -114 -20.5t-74.5 -53t-43 -70.5t-20.5 -71h64q6 20 16 46t30.5 47.5t51.5 37t74 15.5q68 0 103.5 -46.5t35.5 -117.5 q0 -86 -48 -175t-112.5 -168t-128 -139.5t-94.5 -89.5v-63z" />
<glyph unicode="&#xb3;" horiz-adv-x="720" d="M66 430q23 -4 77 -13t119 -9q66 0 128.5 13t111.5 44t79.5 80t30.5 119q0 45 -10 75.5t-29.5 53t-47 39t-62.5 32.5q33 18 57.5 36t41 39.5t24.5 50t8 69.5q0 113 -71.5 171t-186.5 58q-68 0 -113 -19.5t-72.5 -48t-42 -64.5t-20.5 -66h59q6 20 18.5 42.5t32 42t48 32 t69.5 12.5q61 0 103.5 -40t42.5 -122q0 -59 -18.5 -91t-45 -47.5t-55.5 -18.5t-49 -3v-66q35 -2 67.5 -7t57 -21.5t40 -45t15.5 -75.5q0 -53 -21.5 -91t-57.5 -63.5t-81 -38t-94 -12.5q-39 0 -77 6t-76 15v-68z" />
<glyph unicode="&#xb4;" horiz-adv-x="614" d="M242 1116h88l121 170q18 29 28 47.5t10 34.5q0 33 -23.5 51.5t-53.5 18.5q-47 0 -66.5 -19.5t-34.5 -66.5z" />
<glyph unicode="&#xb5;" horiz-adv-x="1099" d="M43 891q20 -2 48 -6t50.5 -17.5t39 -40t16.5 -71.5v-1174l157 27v389q25 -10 55.5 -15.5t67.5 -5.5q70 0 122 29t90 68t61.5 81t33.5 70h4v-225h158v975l-311 -49v-35q23 -2 49.5 -6t50 -17.5t38.5 -40t15 -71.5v-293q0 -49 -21.5 -115.5t-58 -127t-83.5 -101.5t-99 -41 q-53 0 -85.5 21.5t-52 57.5t-27 83t-7.5 96v639l-311 -49v-35z" />
<glyph unicode="&#xb6;" d="M104 887q0 -125 46.5 -210t116 -139.5t147.5 -81t143 -34.5v-895h76v1776h125v-1776h76v1776h118v75h-235q-109 0 -217.5 -26.5t-196.5 -85t-143.5 -152.5t-55.5 -227z" />
<glyph unicode="&#xb7;" horiz-adv-x="493" d="M125 481q0 -49 36 -82.5t85 -33.5t86 34.5t37 85.5q0 47 -37 80t-86 33t-85 -34t-36 -83z" />
<glyph unicode="&#xb8;" horiz-adv-x="614" d="M213 -322v-63q72 -33 143 -33q104 0 156.5 51.5t52.5 116.5q0 70 -40 114t-132 44q-16 0 -31.5 -5t-31.5 -9l43 155h-72l-70 -248h70q6 14 22.5 25.5t32.5 11.5q23 0 49.5 -18.5t26.5 -65.5q0 -41 -30.5 -68.5t-75.5 -27.5q-41 0 -68 7t-45 13z" />
<glyph unicode="&#xb9;" horiz-adv-x="720" d="M190 1169l7 -30q31 10 49 14t35 4q43 0 50 -32.5t7 -67.5v-637h123v868h-55z" />
<glyph unicode="&#xba;" horiz-adv-x="608" d="M63 838q0 -123 62.5 -199t179.5 -76q123 0 182.5 73t59.5 202t-64.5 204.5t-177.5 75.5q-127 0 -184.5 -77.5t-57.5 -202.5zM172 838q0 35 3 75.5t15.5 75.5t39 58.5t75.5 23.5q45 0 70.5 -23.5t40 -58.5t18.5 -76t4 -75q0 -33 -3 -72t-16 -74t-40 -58.5t-74 -23.5 q-43 0 -69.5 23.5t-40 58.5t-18.5 75t-5 71z" />
<glyph unicode="&#xbb;" horiz-adv-x="759" d="M84 119h104l215 377l-215 370h-104l123 -370zM356 119h105l215 377l-215 370h-105l125 -370z" />
<glyph unicode="&#xbc;" horiz-adv-x="1671" d="M104 1169l7 -30q31 10 49 14t35 4q43 0 50 -32.5t7 -67.5v-649h123v880h-56zM465 0h96l426 1266h-96zM918 246h370v-246h123v246h154v76h-154v544h-121l-372 -549v-71zM1022 322l262 395h4v-395h-266z" />
<glyph unicode="&#xbd;" horiz-adv-x="1671" d="M127 1169l6 -30q31 10 49.5 14t34.5 4q43 0 50 -32.5t7 -67.5v-649h123v880h-55zM487 0h97l426 1266h-97zM969 0h534l15 211h-48q-6 -35 -13 -60.5t-21.5 -42t-39 -24.5t-65.5 -8h-248q14 12 50 41.5t81.5 71.5t94.5 94.5t90 106.5t67.5 110.5t26.5 107.5q0 274 -262 275 q-70 0 -116 -21.5t-74.5 -53.5t-43 -70t-20.5 -70h63q6 20 17.5 45.5t31 47t50 37t75.5 15.5q66 0 103 -45t37 -117q0 -86 -48.5 -177t-113 -173t-129 -145.5t-94.5 -92.5v-63z" />
<glyph unicode="&#xbe;" horiz-adv-x="1671" d="M66 416q23 -4 77 -14.5t119 -10.5q66 0 128.5 13.5t111.5 44t79.5 80t30.5 120.5q0 51 -10 85t-29.5 56.5t-47 40t-62.5 33.5q33 18 57.5 36t41 39.5t24.5 50t8 69.5q0 113 -71.5 171t-186.5 58q-68 0 -113 -19.5t-72.5 -48t-42 -64.5t-20.5 -66h59q6 20 18.5 42.5t32 42 t48 32t69.5 12.5q61 0 103.5 -40t42.5 -122q0 -59 -18.5 -91t-45 -47.5t-55.5 -18.5t-49 -3v-66q35 -2 67.5 -8t57 -22.5t40 -48t15.5 -84.5t-21.5 -92t-57.5 -65t-81 -38t-94 -12q-39 0 -77 7t-76 15v-67zM598 0h96l424 1266h-94zM1004 246h370v-246h123v246h154v76h-154 v544h-121l-372 -549v-71zM1108 322l262 395h4v-395h-266z" />
<glyph unicode="&#xbf;" horiz-adv-x="948" d="M100 -16q0 -74 32 -129.5t86 -92t123 -56t142 -19.5q96 0 164 23.5t111 60t64.5 81t25.5 82.5h-178q-2 -23 -11.5 -51t-30 -55t-56 -44t-91.5 -17q-86 0 -146.5 54t-60.5 152q0 63 34 115.5t71 93.5l119 129q37 41 60.5 70t35.5 58.5t17 68.5t5 100v115h-92v-55 q0 -43 -6 -72t-20.5 -53.5t-36 -48t-53.5 -56.5l-156 -153q-29 -29 -55.5 -58.5t-48 -64.5t-35 -79t-13.5 -99zM440 989q0 -53 38 -88t89 -35t89 35t38 88q0 51 -36.5 88t-90.5 37q-53 0 -90 -37t-37 -88z" />
<glyph unicode="&#xc0;" horiz-adv-x="1177" d="M0 0h129l162 457h516l172 -457h199l-529 1378h-352v-35q78 -18 118 -36.5t40 -59.5q0 -25 -10.5 -53.5t-20.5 -56.5zM319 537l234 624l231 -624h-465zM354 1794q0 -16 10.5 -34.5t30.5 -47.5l119 -170h88l-69 236q-14 47 -34 66.5t-67 19.5q-31 0 -54.5 -18.5 t-23.5 -51.5z" />
<glyph unicode="&#xc1;" horiz-adv-x="1177" d="M0 0h129l162 457h516l172 -457h199l-529 1378h-352v-35q78 -18 118 -36.5t40 -59.5q0 -25 -10.5 -53.5t-20.5 -56.5zM319 537l234 624l231 -624h-465zM525 1542h88l121 170q18 29 28 47.5t10 34.5q0 33 -23.5 51.5t-53.5 18.5q-47 0 -66.5 -19.5t-34.5 -66.5z" />
<glyph unicode="&#xc2;" horiz-adv-x="1177" d="M0 0h129l162 457h516l172 -457h199l-529 1378h-352v-35q78 -18 118 -36.5t40 -59.5q0 -25 -10.5 -53.5t-20.5 -56.5zM289 1542h88l176 137l168 -137h86l-172 250q-23 33 -38 48.5t-48 15.5q-29 0 -45 -16.5t-39 -49.5zM319 537l234 624l231 -624h-465z" />
<glyph unicode="&#xc3;" horiz-adv-x="1177" d="M0 0h129l162 457h516l172 -457h199l-529 1378h-352v-35q78 -18 118 -36.5t40 -59.5q0 -25 -10.5 -53.5t-20.5 -56.5zM295 1552h78q0 10 2 24.5t7 28t14.5 22.5t27.5 9q14 0 45 -17t68 -38.5t74.5 -39t68.5 -17.5q49 0 76.5 29.5t41 69.5t16.5 79t7 59h-69q-2 -8 -5 -22.5 t-9.5 -29.5t-18.5 -26.5t-31 -11.5q-25 0 -54.5 17.5t-62 39t-69.5 40t-74 18.5q-41 0 -63.5 -22.5t-37 -57.5t-20.5 -76t-12 -78zM319 537l234 624l231 -624h-465z" />
<glyph unicode="&#xc4;" horiz-adv-x="1177" d="M0 0h129l162 457h516l172 -457h199l-529 1378h-352v-35q78 -18 118 -36.5t40 -59.5q0 -25 -10.5 -53.5t-20.5 -56.5zM262 1657q0 -45 32 -75t73 -30q43 0 74.5 31t31.5 74t-31.5 73.5t-74.5 30.5t-74 -30.5t-31 -73.5zM319 537l234 624l231 -624h-465zM623 1657 q0 -45 31.5 -75t74.5 -30t74 31t31 74t-31 73.5t-74 30.5q-45 0 -75.5 -30.5t-30.5 -73.5z" />
<glyph unicode="&#xc5;" horiz-adv-x="1177" d="M0 0h129l162 457h516l172 -457h199l-529 1378h-352v-35q78 -18 118 -36.5t40 -59.5q0 -25 -10.5 -53.5t-20.5 -56.5zM319 537l234 624l231 -624h-465zM363 1714q0 -37 14 -67.5t37.5 -54t55.5 -37t67 -13.5q72 0 124 50.5t52 121.5q0 35 -14.5 65.5t-38 54.5t-55 37 t-68.5 13q-72 0 -123 -49t-51 -121zM451 1714q0 31 25.5 56.5t60.5 25.5q37 0 62.5 -25.5t25.5 -56.5q0 -35 -27 -59.5t-61 -24.5q-35 0 -60.5 24.5t-25.5 59.5z" />
<glyph unicode="&#xc6;" horiz-adv-x="1708" d="M0 0h129l365 625h389l39 -625h677l15 279h-64q-10 -59 -20 -97.5t-27.5 -61t-48.5 -31.5t-84 -9h-102q-59 0 -94 2t-53.5 13t-24.5 35t-9 69l-24 426h184q66 0 102.5 -10.5t56 -32t27 -54t15.5 -77.5h47v423h-47q-6 -37 -14.5 -67.5t-29 -53t-57 -35.5t-100.5 -13h-190 l-27 458q-2 41 0 67.5t15.5 42t39 20.5t70.5 5h168q63 0 98 -11t52.5 -33.5t23.5 -54.5t14 -71h64l-10 250h-1028v-35q98 -4 131.5 -28.5t33.5 -65.5q0 -29 -10 -56.5t-26 -55.5zM541 705l303 534h4l31 -534h-338z" />
<glyph unicode="&#xc7;" horiz-adv-x="1138" d="M111 735q0 -133 27.5 -254t82.5 -218t137 -165.5t191 -97.5l-55 -199h69q6 14 22.5 25.5t32.5 11.5q23 0 49.5 -18.5t26.5 -65.5q0 -41 -30.5 -68.5t-75.5 -27.5q-41 0 -67.5 7t-45.5 13v-63q72 -33 143 -33q104 0 156.5 51.5t52.5 116.5q0 70 -39.5 114t-132.5 44 q-16 0 -31.5 -5t-31.5 -9l24 92q20 -4 43 -6.5t46 -2.5q72 0 127 4.5t100 12.5t83 18.5t75 22.5v86q-10 -4 -37 -12.5t-64 -16.5t-82 -15t-90 -7q-113 0 -193.5 32.5t-137 89t-90.5 129t-53 152.5t-25.5 161t-6.5 154q0 117 21.5 213.5t63.5 165t103.5 105.5t143.5 37 q76 0 122 -23.5t72.5 -57.5t37 -69t14.5 -59h201q-6 51 -31 105.5t-76 97.5t-131 70.5t-197 27.5q-158 0 -262 -51.5t-167.5 -141.5t-89 -212t-25.5 -261z" />
<glyph unicode="&#xc8;" horiz-adv-x="1101" d="M-6 1343q68 -10 107.5 -22t62 -32.5t30 -51.5t7.5 -74v-1163h794l15 279h-64q-10 -59 -20.5 -97.5t-27.5 -61t-48 -31.5t-82 -9h-221q-55 0 -89 2t-51.5 13t-22.5 35t-5 69v481h260q66 0 102.5 -10.5t56 -32t26.5 -54t16 -77.5h47v424h-47q-6 -37 -14.5 -68t-29 -53.5 t-57.5 -35.5t-100 -13h-260v403q0 41 3 67.5t15.5 42t38 20.5t68.5 5h215q63 0 98 -11t52.5 -33.5t23.5 -54.5t14 -71h64l-10 250h-967v-35zM346 1794q0 -16 10.5 -34.5t30.5 -47.5l119 -170h88l-69 236q-14 47 -34 66.5t-67 19.5q-31 0 -54.5 -18.5t-23.5 -51.5z" />
<glyph unicode="&#xc9;" horiz-adv-x="1101" d="M-6 1343q68 -10 107.5 -22t62 -32.5t30 -51.5t7.5 -74v-1163h794l15 279h-64q-10 -59 -20.5 -97.5t-27.5 -61t-48 -31.5t-82 -9h-221q-55 0 -89 2t-51.5 13t-22.5 35t-5 69v481h260q66 0 102.5 -10.5t56 -32t26.5 -54t16 -77.5h47v424h-47q-6 -37 -14.5 -68t-29 -53.5 t-57.5 -35.5t-100 -13h-260v403q0 41 3 67.5t15.5 42t38 20.5t68.5 5h215q63 0 98 -11t52.5 -33.5t23.5 -54.5t14 -71h64l-10 250h-967v-35zM486 1542h88l121 170q18 29 28 47.5t10 34.5q0 33 -23.5 51.5t-53.5 18.5q-47 0 -66.5 -19.5t-34.5 -66.5z" />
<glyph unicode="&#xca;" horiz-adv-x="1101" d="M-6 1343q68 -10 107.5 -22t62 -32.5t30 -51.5t7.5 -74v-1163h794l15 279h-64q-10 -59 -20.5 -97.5t-27.5 -61t-48 -31.5t-82 -9h-221q-55 0 -89 2t-51.5 13t-22.5 35t-5 69v481h260q66 0 102.5 -10.5t56 -32t26.5 -54t16 -77.5h47v424h-47q-6 -37 -14.5 -68t-29 -53.5 t-57.5 -35.5t-100 -13h-260v403q0 41 3 67.5t15.5 42t38 20.5t68.5 5h215q63 0 98 -11t52.5 -33.5t23.5 -54.5t14 -71h64l-10 250h-967v-35zM291 1542h88l176 137l168 -137h86l-172 250q-23 33 -38 48.5t-48 15.5q-29 0 -45 -16.5t-39 -49.5z" />
<glyph unicode="&#xcb;" horiz-adv-x="1101" d="M-6 1343q68 -10 107.5 -22t62 -32.5t30 -51.5t7.5 -74v-1163h794l15 279h-64q-10 -59 -20.5 -97.5t-27.5 -61t-48 -31.5t-82 -9h-221q-55 0 -89 2t-51.5 13t-22.5 35t-5 69v481h260q66 0 102.5 -10.5t56 -32t26.5 -54t16 -77.5h47v424h-47q-6 -37 -14.5 -68t-29 -53.5 t-57.5 -35.5t-100 -13h-260v403q0 41 3 67.5t15.5 42t38 20.5t68.5 5h215q63 0 98 -11t52.5 -33.5t23.5 -54.5t14 -71h64l-10 250h-967v-35zM264 1657q0 -45 32 -75t73 -30q43 0 74.5 31t31.5 74t-31.5 73.5t-74.5 30.5t-74 -30.5t-31 -73.5zM625 1657q0 -45 31.5 -75 t74.5 -30t74 31t31 74t-31 73.5t-74 30.5q-45 0 -75.5 -30.5t-30.5 -73.5z" />
<glyph unicode="&#xcc;" horiz-adv-x="569" d="M0 1296q53 -6 92 -10t63.5 -18.5t37 -42t12.5 -80.5v-1145h178v1378l-383 -47v-35zM82 1794q0 -16 10.5 -34.5t30.5 -47.5l119 -170h88l-69 236q-14 47 -34 66.5t-67 19.5q-31 0 -54.5 -18.5t-23.5 -51.5z" />
<glyph unicode="&#xcd;" horiz-adv-x="569" d="M0 1296q53 -6 92 -10t63.5 -18.5t37 -42t12.5 -80.5v-1145h178v1378l-383 -47v-35zM222 1542h88l121 170q18 29 28 47.5t10 34.5q0 33 -23.5 51.5t-53.5 18.5q-47 0 -66.5 -19.5t-34.5 -66.5z" />
<glyph unicode="&#xce;" horiz-adv-x="569" d="M0 1296q53 -6 92 -10t63.5 -18.5t37 -42t12.5 -80.5v-1145h178v1378l-383 -47v-35zM6 1542h88l176 137l168 -137h86l-172 250q-23 33 -38 48.5t-48 15.5q-29 0 -45 -16.5t-39 -49.5z" />
<glyph unicode="&#xcf;" horiz-adv-x="569" d="M0 1296q53 -6 92 -10t63.5 -18.5t37 -42t12.5 -80.5v-1145h178v1378l-383 -47v-35zM0 1657q0 -45 32 -75t73 -30q43 0 74.5 31t31.5 74t-31.5 73.5t-74.5 30.5t-74 -30.5t-31 -73.5zM361 1657q0 -45 31.5 -75t74.5 -30t74 31t31 74t-31 73.5t-74 30.5q-45 0 -75.5 -30.5 t-30.5 -73.5z" />
<glyph unicode="&#xd0;" horiz-adv-x="1290" d="M-6 670h205v-670h221q160 0 299 22.5t241.5 94t161 207t58.5 362.5t-56.5 364.5t-157 210t-238.5 95t-300 22.5h-434v-35q68 -12 107.5 -23t61 -30.5t29 -53.5t7.5 -91v-395h-205v-80zM377 231v439h293v80h-293v395q0 49 4 79.5t19.5 47t42 21.5t73.5 5q137 0 227.5 -46 t142.5 -127t72.5 -193.5t20.5 -243.5q0 -322 -123 -465t-371 -143q-41 0 -62.5 9t-31.5 28.5t-12 48.5t-2 65z" />
<glyph unicode="&#xd1;" horiz-adv-x="1329" d="M-10 1343q66 -10 106.5 -21t62 -31.5t29 -56.5t7.5 -97v-1137h106v1202h4l692 -1202h156v1378h-106v-1118h-5l-643 1118h-409v-35zM401 1552h78q0 10 2 24.5t7 28t14.5 22.5t27.5 9q14 0 45 -17t68 -38.5t74.5 -39t68.5 -17.5q49 0 76.5 29.5t41 69.5t16.5 79t7 59h-69 q-2 -8 -5 -22.5t-9.5 -29.5t-18.5 -26.5t-31 -11.5q-25 0 -54.5 17.5t-62 39t-69.5 40t-74 18.5q-41 0 -63.5 -22.5t-37 -57.5t-20.5 -76t-12 -78z" />
<glyph unicode="&#xd2;" horiz-adv-x="1290" d="M111 688q0 -154 24.5 -284t86 -225t164.5 -148.5t261 -53.5q152 0 254.5 50.5t163.5 142.5t88 223t27 295q0 154 -26 284t-87 225t-163.5 149.5t-256.5 54.5t-256 -50.5t-164.5 -142.5t-89 -224t-26.5 -296zM311 688q0 106 8.5 218t42 204t101 151.5t184.5 59.5 q119 0 185.5 -62.5t99.5 -156.5t40 -206t7 -208q0 -104 -8 -216t-42 -204t-99.5 -151.5t-182.5 -59.5q-121 0 -188.5 62.5t-100 157t-40 205t-7.5 206.5zM440 1794q0 -16 10.5 -34.5t30.5 -47.5l119 -170h88l-69 236q-14 47 -34 66.5t-67 19.5q-31 0 -54.5 -18.5 t-23.5 -51.5z" />
<glyph unicode="&#xd3;" horiz-adv-x="1290" d="M111 688q0 -154 24.5 -284t86 -225t164.5 -148.5t261 -53.5q152 0 254.5 50.5t163.5 142.5t88 223t27 295q0 154 -26 284t-87 225t-163.5 149.5t-256.5 54.5t-256 -50.5t-164.5 -142.5t-89 -224t-26.5 -296zM311 688q0 106 8.5 218t42 204t101 151.5t184.5 59.5 q119 0 185.5 -62.5t99.5 -156.5t40 -206t7 -208q0 -104 -8 -216t-42 -204t-99.5 -151.5t-182.5 -59.5q-121 0 -188.5 62.5t-100 157t-40 205t-7.5 206.5zM580 1542h88l121 170q18 29 28 47.5t10 34.5q0 33 -23.5 51.5t-53.5 18.5q-47 0 -66.5 -19.5t-34.5 -66.5z" />
<glyph unicode="&#xd4;" horiz-adv-x="1290" d="M111 688q0 -154 24.5 -284t86 -225t164.5 -148.5t261 -53.5q152 0 254.5 50.5t163.5 142.5t88 223t27 295q0 154 -26 284t-87 225t-163.5 149.5t-256.5 54.5t-256 -50.5t-164.5 -142.5t-89 -224t-26.5 -296zM311 688q0 106 8.5 218t42 204t101 151.5t184.5 59.5 q119 0 185.5 -62.5t99.5 -156.5t40 -206t7 -208q0 -104 -8 -216t-42 -204t-99.5 -151.5t-182.5 -59.5q-121 0 -188.5 62.5t-100 157t-40 205t-7.5 206.5zM385 1542h88l176 137l168 -137h86l-172 250q-23 33 -38 48.5t-48 15.5q-29 0 -45 -16.5t-39 -49.5z" />
<glyph unicode="&#xd5;" horiz-adv-x="1290" d="M111 688q0 -154 24.5 -284t86 -225t164.5 -148.5t261 -53.5q152 0 254.5 50.5t163.5 142.5t88 223t27 295q0 154 -26 284t-87 225t-163.5 149.5t-256.5 54.5t-256 -50.5t-164.5 -142.5t-89 -224t-26.5 -296zM311 688q0 106 8.5 218t42 204t101 151.5t184.5 59.5 q119 0 185.5 -62.5t99.5 -156.5t40 -206t7 -208q0 -104 -8 -216t-42 -204t-99.5 -151.5t-182.5 -59.5q-121 0 -188.5 62.5t-100 157t-40 205t-7.5 206.5zM381 1552h78q0 10 2 24.5t7 28t14.5 22.5t27.5 9q14 0 45 -17t68 -38.5t74.5 -39t68.5 -17.5q49 0 76.5 29.5t41 69.5 t16.5 79t7 59h-69q-2 -8 -5 -22.5t-9.5 -29.5t-18.5 -26.5t-31 -11.5q-25 0 -54.5 17.5t-62 39t-69.5 40t-74 18.5q-41 0 -63.5 -22.5t-37 -57.5t-20.5 -76t-12 -78z" />
<glyph unicode="&#xd6;" horiz-adv-x="1290" d="M111 688q0 -154 24.5 -284t86 -225t164.5 -148.5t261 -53.5q152 0 254.5 50.5t163.5 142.5t88 223t27 295q0 154 -26 284t-87 225t-163.5 149.5t-256.5 54.5t-256 -50.5t-164.5 -142.5t-89 -224t-26.5 -296zM311 688q0 106 8.5 218t42 204t101 151.5t184.5 59.5 q119 0 185.5 -62.5t99.5 -156.5t40 -206t7 -208q0 -104 -8 -216t-42 -204t-99.5 -151.5t-182.5 -59.5q-121 0 -188.5 62.5t-100 157t-40 205t-7.5 206.5zM358 1657q0 -45 32 -75t73 -30q43 0 74.5 31t31.5 74t-31.5 73.5t-74.5 30.5t-74 -30.5t-31 -73.5zM719 1657 q0 -45 31.5 -75t74.5 -30t74 31t31 74t-31 73.5t-74 30.5q-45 0 -75.5 -30.5t-30.5 -73.5z" />
<glyph unicode="&#xd7;" horiz-adv-x="1177" d="M113 51l77 -74l383 383l388 -383l102 97l-387 391l375 383l-82 72l-371 -373l-383 375l-102 -99l381 -381z" />
<glyph unicode="&#xd8;" horiz-adv-x="1290" d="M106 684q0 -109 10.5 -190.5t29 -144t43 -108.5t53.5 -85l-115 -185l68 -34l100 161q20 -18 51 -39.5t73 -39t96 -30t126 -12.5q139 0 241.5 55.5t169 151t99.5 224.5t33 276q0 131 -13.5 223t-37 160t-54 115t-63.5 90l94 151l-66 39l-86 -139q-53 31 -125.5 54.5 t-189.5 23.5q-143 0 -245.5 -58.5t-167 -158t-94.5 -229.5t-30 -271zM307 686q0 86 12.5 195.5t48 207t101.5 165t174 67.5q53 0 92 -10.5t67.5 -26.5t49 -35.5t37.5 -38.5l-549 -895l-12 66t-10.5 74t-7.5 96t-3 135zM375 229l559 908q10 -43 19.5 -86t15.5 -95.5t10 -117 t4 -150.5q0 -94 -11 -203.5t-47 -205t-102.5 -159t-177.5 -63.5q-66 0 -113 21.5t-79.5 50.5t-51 57.5t-26.5 42.5z" />
<glyph unicode="&#xd9;" horiz-adv-x="1290" d="M-10 1296q51 -6 90 -10t64.5 -18.5t38 -42t12.5 -80.5v-643q0 -106 12 -201.5t59 -167.5t141.5 -114t260.5 -42q172 0 266 48.5t137 124t50 171t7 189.5v868h-120v-893q0 -72 -5.5 -147.5t-37 -138t-100 -102.5t-195.5 -40q-111 0 -171.5 48.5t-88 118t-32.5 146 t-5 132.5v876l-383 -47v-35zM481 1794q0 -16 10.5 -34.5t30.5 -47.5l119 -170h88l-69 236q-14 47 -34 66.5t-67 19.5q-31 0 -54.5 -18.5t-23.5 -51.5z" />
<glyph unicode="&#xda;" horiz-adv-x="1290" d="M-10 1296q51 -6 90 -10t64.5 -18.5t38 -42t12.5 -80.5v-643q0 -106 12 -201.5t59 -167.5t141.5 -114t260.5 -42q172 0 266 48.5t137 124t50 171t7 189.5v868h-120v-893q0 -72 -5.5 -147.5t-37 -138t-100 -102.5t-195.5 -40q-111 0 -171.5 48.5t-88 118t-32.5 146 t-5 132.5v876l-383 -47v-35zM600 1542h88l121 170q18 29 28 47.5t10 34.5q0 33 -23.5 51.5t-53.5 18.5q-47 0 -66.5 -19.5t-34.5 -66.5z" />
<glyph unicode="&#xdb;" horiz-adv-x="1290" d="M-10 1296q51 -6 90 -10t64.5 -18.5t38 -42t12.5 -80.5v-643q0 -106 12 -201.5t59 -167.5t141.5 -114t260.5 -42q172 0 266 48.5t137 124t50 171t7 189.5v868h-120v-893q0 -72 -5.5 -147.5t-37 -138t-100 -102.5t-195.5 -40q-111 0 -171.5 48.5t-88 118t-32.5 146 t-5 132.5v876l-383 -47v-35zM385 1542h88l176 137l168 -137h86l-172 250q-23 33 -38 48.5t-48 15.5q-29 0 -45 -16.5t-39 -49.5z" />
<glyph unicode="&#xdc;" horiz-adv-x="1290" d="M-10 1296q51 -6 90 -10t64.5 -18.5t38 -42t12.5 -80.5v-643q0 -106 12 -201.5t59 -167.5t141.5 -114t260.5 -42q172 0 266 48.5t137 124t50 171t7 189.5v868h-120v-893q0 -72 -5.5 -147.5t-37 -138t-100 -102.5t-195.5 -40q-111 0 -171.5 48.5t-88 118t-32.5 146 t-5 132.5v876l-383 -47v-35zM389 1657q0 -45 32 -75t73 -30q43 0 74.5 31t31.5 74t-31.5 73.5t-74.5 30.5t-74 -30.5t-31 -73.5zM750 1657q0 -45 31.5 -75t74.5 -30t74 31t31 74t-31 73.5t-74 30.5q-45 0 -75.5 -30.5t-30.5 -73.5z" />
<glyph unicode="&#xdd;" d="M-104 1343q51 -4 84.5 -17t59.5 -37.5t48.5 -62.5t52.5 -89l291 -490v-647h178v647l453 731h-135l-371 -600l-356 600h-305v-35zM508 1542h88l121 170q18 29 28 47.5t10 34.5q0 33 -23.5 51.5t-53.5 18.5q-47 0 -66.5 -19.5t-34.5 -66.5z" />
<glyph unicode="&#xde;" horiz-adv-x="1253" d="M14 1319q27 -2 59.5 -6t60.5 -17.5t46.5 -40t18.5 -73.5v-1182h178v342h334q92 0 173 16.5t141 57.5t94 109.5t34 174.5q0 131 -36 210t-100.5 120t-154.5 53.5t-198 12.5h-287v305l-363 -47v-35zM377 422v594h217q106 0 175 -19.5t110 -58.5t57 -98.5t16 -137.5 q0 -84 -22.5 -137t-66.5 -86t-111.5 -45t-157.5 -12h-217z" />
<glyph unicode="&#xdf;" d="M172 0h158v936q0 66 3 134.5t21.5 123.5t57.5 91t110 36q76 0 134.5 -67.5t58.5 -200.5q0 -84 -18.5 -136.5t-48.5 -83t-68.5 -42t-77.5 -11.5v-71q55 0 105 -9.5t90 -42t63.5 -96t23.5 -170.5q0 -51 -6 -109.5t-29.5 -108.5t-69.5 -83t-128 -33q-49 0 -80 9.5t-53 19.5 v-94q70 -14 147 -15q109 0 183.5 30t122 84t67.5 129t20 165q0 180 -77.5 266t-204.5 99v4q35 12 72.5 33.5t68.5 55.5t51.5 83t20.5 121q0 94 -30 160.5t-80 109.5t-115.5 63.5t-137.5 20.5q-88 0 -149.5 -23.5t-100 -62.5t-60 -90t-31 -107.5t-11.5 -112t-2 -104.5v-901z " />
<glyph unicode="&#xe0;" horiz-adv-x="948" d="M94 219q0 -106 67.5 -174t178.5 -68q59 0 105.5 16.5t82 40t60 50.5t43.5 47v-131h157v641q0 70 -12 131.5t-47 106.5t-98.5 70.5t-165.5 25.5t-169 -23.5t-109 -61.5t-60 -84t-21 -91h183q2 20 6 51t21.5 59.5t50 49t92.5 20.5q63 0 99 -25.5t51.5 -66.5t18.5 -93.5 t3 -105.5v-80q-33 -2 -86 -4t-112.5 -11t-120 -28.5t-108.5 -53.5t-79 -84t-31 -124zM268 246q0 76 44 118t104.5 63.5t121 27.5t93.5 6v-121q0 -39 -12.5 -84t-39 -85t-65.5 -66.5t-90 -26.5q-43 0 -72.5 16.5t-48 41t-27 54t-8.5 56.5zM270 1368q0 -16 10.5 -34.5 t30.5 -47.5l119 -170h88l-69 236q-14 47 -34 66.5t-67 19.5q-31 0 -54.5 -18.5t-23.5 -51.5z" />
<glyph unicode="&#xe1;" horiz-adv-x="948" d="M94 219q0 -106 67.5 -174t178.5 -68q59 0 105.5 16.5t82 40t60 50.5t43.5 47v-131h157v641q0 70 -12 131.5t-47 106.5t-98.5 70.5t-165.5 25.5t-169 -23.5t-109 -61.5t-60 -84t-21 -91h183q2 20 6 51t21.5 59.5t50 49t92.5 20.5q63 0 99 -25.5t51.5 -66.5t18.5 -93.5 t3 -105.5v-80q-33 -2 -86 -4t-112.5 -11t-120 -28.5t-108.5 -53.5t-79 -84t-31 -124zM268 246q0 76 44 118t104.5 63.5t121 27.5t93.5 6v-121q0 -39 -12.5 -84t-39 -85t-65.5 -66.5t-90 -26.5q-43 0 -72.5 16.5t-48 41t-27 54t-8.5 56.5zM410 1116h88l121 170q18 29 28 47.5 t10 34.5q0 33 -23.5 51.5t-53.5 18.5q-47 0 -66.5 -19.5t-34.5 -66.5z" />
<glyph unicode="&#xe2;" horiz-adv-x="948" d="M94 219q0 -106 67.5 -174t178.5 -68q59 0 105.5 16.5t82 40t60 50.5t43.5 47v-131h157v641q0 70 -12 131.5t-47 106.5t-98.5 70.5t-165.5 25.5t-169 -23.5t-109 -61.5t-60 -84t-21 -91h183q2 20 6 51t21.5 59.5t50 49t92.5 20.5q63 0 99 -25.5t51.5 -66.5t18.5 -93.5 t3 -105.5v-80q-33 -2 -86 -4t-112.5 -11t-120 -28.5t-108.5 -53.5t-79 -84t-31 -124zM215 1116h88l176 137l168 -137h86l-172 250q-23 33 -38 48.5t-48 15.5q-29 0 -45 -16.5t-39 -49.5zM268 246q0 76 44 118t104.5 63.5t121 27.5t93.5 6v-121q0 -39 -12.5 -84t-39 -85 t-65.5 -66.5t-90 -26.5q-43 0 -72.5 16.5t-48 41t-27 54t-8.5 56.5z" />
<glyph unicode="&#xe3;" horiz-adv-x="948" d="M94 219q0 -106 67.5 -174t178.5 -68q59 0 105.5 16.5t82 40t60 50.5t43.5 47v-131h157v641q0 70 -12 131.5t-47 106.5t-98.5 70.5t-165.5 25.5t-169 -23.5t-109 -61.5t-60 -84t-21 -91h183q2 20 6 51t21.5 59.5t50 49t92.5 20.5q63 0 99 -25.5t51.5 -66.5t18.5 -93.5 t3 -105.5v-80q-33 -2 -86 -4t-112.5 -11t-120 -28.5t-108.5 -53.5t-79 -84t-31 -124zM211 1126h78q0 10 2 24.5t7 28t14.5 22.5t27.5 9q14 0 45 -17t68 -38.5t74.5 -39t68.5 -17.5q49 0 76.5 29.5t41 69.5t16.5 79t7 59h-69q-2 -8 -5 -22.5t-9.5 -29.5t-18.5 -26.5 t-31 -11.5q-25 0 -54.5 17.5t-62 39t-69.5 40t-74 18.5q-41 0 -63.5 -22.5t-37 -57.5t-20.5 -76t-12 -78zM268 246q0 76 44 118t104.5 63.5t121 27.5t93.5 6v-121q0 -39 -12.5 -84t-39 -85t-65.5 -66.5t-90 -26.5q-43 0 -72.5 16.5t-48 41t-27 54t-8.5 56.5z" />
<glyph unicode="&#xe4;" horiz-adv-x="948" d="M94 219q0 -106 67.5 -174t178.5 -68q59 0 105.5 16.5t82 40t60 50.5t43.5 47v-131h157v641q0 70 -12 131.5t-47 106.5t-98.5 70.5t-165.5 25.5t-169 -23.5t-109 -61.5t-60 -84t-21 -91h183q2 20 6 51t21.5 59.5t50 49t92.5 20.5q63 0 99 -25.5t51.5 -66.5t18.5 -93.5 t3 -105.5v-80q-33 -2 -86 -4t-112.5 -11t-120 -28.5t-108.5 -53.5t-79 -84t-31 -124zM188 1231q0 -45 32 -75t73 -30q43 0 74.5 31t31.5 74t-31.5 73.5t-74.5 30.5t-74 -30.5t-31 -73.5zM268 246q0 76 44 118t104.5 63.5t121 27.5t93.5 6v-121q0 -39 -12.5 -84t-39 -85 t-65.5 -66.5t-90 -26.5q-43 0 -72.5 16.5t-48 41t-27 54t-8.5 56.5zM549 1231q0 -45 31.5 -75t74.5 -30t74 31t31 74t-31 73.5t-74 30.5q-45 0 -75.5 -30.5t-30.5 -73.5z" />
<glyph unicode="&#xe5;" horiz-adv-x="948" d="M94 219q0 -106 67.5 -174t178.5 -68q59 0 105.5 16.5t82 40t60 50.5t43.5 47v-131h157v641q0 70 -12 131.5t-47 106.5t-98.5 70.5t-165.5 25.5t-169 -23.5t-109 -61.5t-60 -84t-21 -91h183q2 20 6 51t21.5 59.5t50 49t92.5 20.5q63 0 99 -25.5t51.5 -66.5t18.5 -93.5 t3 -105.5v-80q-33 -2 -86 -4t-112.5 -11t-120 -28.5t-108.5 -53.5t-79 -84t-31 -124zM268 246q0 76 44 118t104.5 63.5t121 27.5t93.5 6v-121q0 -39 -12.5 -84t-39 -85t-65.5 -66.5t-90 -26.5q-43 0 -72.5 16.5t-48 41t-27 54t-8.5 56.5zM279 1288q0 -37 14 -67.5t37.5 -54 t55.5 -37t67 -13.5q72 0 124 50.5t52 121.5q0 35 -14.5 65.5t-38 54.5t-55 37t-68.5 13q-72 0 -123 -49t-51 -121zM367 1288q0 31 25.5 56.5t60.5 25.5q37 0 62.5 -25.5t25.5 -56.5q0 -35 -27 -59.5t-61 -24.5q-35 0 -60.5 24.5t-25.5 59.5z" />
<glyph unicode="&#xe6;" horiz-adv-x="1519" d="M94 242q0 -117 73 -191t195 -74q92 0 160 17.5t115 47.5t77.5 66.5t47.5 75.5q61 -90 162.5 -148.5t230.5 -58.5q98 0 167 14.5t87 22.5v68q-35 -10 -70.5 -17.5t-74.5 -7.5q-106 0 -186.5 39t-134.5 97.5t-80.5 127t-26.5 128.5v43h602v30q0 117 -29 202t-79 141.5 t-117.5 83t-145.5 26.5q-98 0 -173 -39t-132 -98q-35 61 -98.5 99t-186.5 38q-104 0 -175 -23.5t-113 -61.5t-61 -84t-22 -91h183q2 20 9 51t27.5 59.5t55.5 49t90 20.5q78 0 120 -25.5t61.5 -66.5t22.5 -93.5t3 -105.5v-43q-37 0 -93.5 -2t-122 -12t-131 -30.5 t-117.5 -55.5t-86 -89.5t-34 -129.5zM268 246q0 86 51.5 135t119 73.5t136 31t103.5 6.5v-152q0 -47 -14.5 -94t-43 -84t-71.5 -60.5t-103 -23.5q-49 0 -82.5 16.5t-55 41t-31 54t-9.5 56.5zM836 561q2 35 14 91.5t40 110.5t73 93t112 39q49 0 85 -24.5t57.5 -66.5t32 -99.5 t10.5 -124.5v-19h-424z" />
<glyph unicode="&#xe7;" horiz-adv-x="872" d="M100 506q0 -190 73 -324.5t245 -179.5l-58 -201h70q6 14 22.5 25.5t32.5 11.5q23 0 49.5 -18.5t26.5 -65.5q0 -41 -30.5 -68.5t-75.5 -27.5q-41 0 -68 7t-45 13v-63q72 -33 143 -33q104 0 156.5 51.5t52.5 116.5q0 70 -40 114t-132 44q-16 0 -31.5 -5t-31.5 -9l26 94 q23 -6 50.5 -8.5t56.5 -2.5q76 0 131 11.5t88 21.5v60q-29 -4 -56.5 -8.5t-56.5 -4.5q-111 0 -190.5 46.5t-131.5 121t-77 166.5t-25 184q0 154 57.5 237t155.5 83q51 0 85 -16.5t53.5 -42t28 -58.5t8.5 -63h190q0 49 -23.5 96t-68.5 83t-109.5 58.5t-146.5 22.5 q-111 0 -187.5 -37t-125 -100.5t-70 -149.5t-21.5 -182z" />
<glyph unicode="&#xe8;" horiz-adv-x="911" d="M86 506q0 -258 125 -393.5t352 -135.5q96 0 166 14.5t88 22.5v68q-35 -10 -71.5 -17.5t-73.5 -7.5q-106 0 -186 48.5t-134.5 121t-81 158.5t-26.5 160v43h598v30q0 92 -27 159t-73 111t-109.5 65.5t-134.5 21.5q-113 0 -191 -32t-127 -92t-71.5 -147.5t-22.5 -197.5z M246 657q2 27 11 67t33.5 78t67.5 65.5t113 27.5q45 0 81 -18.5t60.5 -48t38 -69.5t13.5 -83v-19h-418zM252 1368q0 -16 10.5 -34.5t30.5 -47.5l119 -170h88l-69 236q-14 47 -34 66.5t-67 19.5q-31 0 -54.5 -18.5t-23.5 -51.5z" />
<glyph unicode="&#xe9;" horiz-adv-x="911" d="M86 506q0 -258 125 -393.5t352 -135.5q96 0 166 14.5t88 22.5v68q-35 -10 -71.5 -17.5t-73.5 -7.5q-106 0 -186 48.5t-134.5 121t-81 158.5t-26.5 160v43h598v30q0 92 -27 159t-73 111t-109.5 65.5t-134.5 21.5q-113 0 -191 -32t-127 -92t-71.5 -147.5t-22.5 -197.5z M246 657q2 27 11 67t33.5 78t67.5 65.5t113 27.5q45 0 81 -18.5t60.5 -48t38 -69.5t13.5 -83v-19h-418zM412 1116h88l121 170q18 29 28 47.5t10 34.5q0 33 -23.5 51.5t-53.5 18.5q-47 0 -66.5 -19.5t-34.5 -66.5z" />
<glyph unicode="&#xea;" horiz-adv-x="911" d="M86 506q0 -258 125 -393.5t352 -135.5q96 0 166 14.5t88 22.5v68q-35 -10 -71.5 -17.5t-73.5 -7.5q-106 0 -186 48.5t-134.5 121t-81 158.5t-26.5 160v43h598v30q0 92 -27 159t-73 111t-109.5 65.5t-134.5 21.5q-113 0 -191 -32t-127 -92t-71.5 -147.5t-22.5 -197.5z M197 1116h88l176 137l168 -137h86l-172 250q-23 33 -38 48.5t-48 15.5q-29 0 -45 -16.5t-39 -49.5zM246 657q2 27 11 67t33.5 78t67.5 65.5t113 27.5q45 0 81 -18.5t60.5 -48t38 -69.5t13.5 -83v-19h-418z" />
<glyph unicode="&#xeb;" horiz-adv-x="911" d="M86 506q0 -258 125 -393.5t352 -135.5q96 0 166 14.5t88 22.5v68q-35 -10 -71.5 -17.5t-73.5 -7.5q-106 0 -186 48.5t-134.5 121t-81 158.5t-26.5 160v43h598v30q0 92 -27 159t-73 111t-109.5 65.5t-134.5 21.5q-113 0 -191 -32t-127 -92t-71.5 -147.5t-22.5 -197.5z M170 1231q0 -45 32 -75t73 -30q43 0 74.5 31t31.5 74t-31.5 73.5t-74.5 30.5t-74 -30.5t-31 -73.5zM246 657q2 27 11 67t33.5 78t67.5 65.5t113 27.5q45 0 81 -18.5t60.5 -48t38 -69.5t13.5 -83v-19h-418zM531 1231q0 -45 31.5 -75t74.5 -30t74 31t31 74t-31 73.5t-74 30.5 q-45 0 -75.5 -30.5t-30.5 -73.5z" />
<glyph unicode="&#xec;" horiz-adv-x="493" d="M27 891q20 -2 47.5 -6t50 -17.5t39 -40t16.5 -71.5v-756h158v975l-311 -49v-35zM45 1368q0 -16 10.5 -34.5t30.5 -47.5l119 -170h88l-69 236q-14 47 -34 66.5t-67 19.5q-31 0 -54.5 -18.5t-23.5 -51.5z" />
<glyph unicode="&#xed;" horiz-adv-x="493" d="M27 891q20 -2 47.5 -6t50 -17.5t39 -40t16.5 -71.5v-756h158v975l-311 -49v-35zM185 1116h88l121 170q18 29 28 47.5t10 34.5q0 33 -23.5 51.5t-53.5 18.5q-47 0 -66.5 -19.5t-34.5 -66.5z" />
<glyph unicode="&#xee;" horiz-adv-x="493" d="M-31 1116h88l176 137l168 -137h86l-172 250q-23 33 -38 48.5t-48 15.5q-29 0 -45 -16.5t-39 -49.5zM27 891q20 -2 47.5 -6t50 -17.5t39 -40t16.5 -71.5v-756h158v975l-311 -49v-35z" />
<glyph unicode="&#xef;" horiz-adv-x="493" d="M-37 1231q0 -45 32 -75t73 -30q43 0 74.5 31t31.5 74t-31.5 73.5t-74.5 30.5t-74 -30.5t-31 -73.5zM27 891q20 -2 47.5 -6t50 -17.5t39 -40t16.5 -71.5v-756h158v975l-311 -49v-35zM324 1231q0 -45 31.5 -75t74.5 -30t74 31t31 74t-31 73.5t-74 30.5q-45 0 -75.5 -30.5 t-30.5 -73.5z" />
<glyph unicode="&#xf0;" d="M104 471q0 -111 29 -201t83 -155.5t134 -101.5t182 -36q215 0 320.5 132.5t105.5 363.5q0 150 -31.5 261.5t-79.5 193.5t-104.5 140t-105.5 101l111 48l-29 65l-154 -61q-16 12 -32.5 22t-40.5 23h-261v-6q55 -14 103.5 -37t103.5 -52l-135 -53l29 -67l182 71 q68 -51 111 -97t84 -112l-4 -4q-37 31 -82 48.5t-95 17.5q-113 0 -192.5 -37t-130.5 -103.5t-76 -158.5t-25 -205zM279 471q0 63 5 137t29.5 137.5t75.5 106.5t141 43q82 0 132.5 -43t78 -106.5t35.5 -137t8 -137.5q0 -59 -6 -131t-30.5 -134.5t-74.5 -105.5t-138 -43 q-82 0 -132.5 43t-78 106.5t-36.5 135.5t-9 129z" />
<glyph unicode="&#xf1;" horiz-adv-x="1099" d="M39 891q23 -2 49.5 -6t50 -17.5t40 -40t16.5 -71.5v-756h157v487q0 51 24.5 118t64.5 126.5t92.5 101t107.5 41.5q53 0 83 -17t43 -47t15 -69t2 -79v-662h158v729q0 55 -10 100t-37 77t-75 50.5t-122 18.5q-78 0 -136 -32t-100 -75t-67.5 -89t-38.5 -77h-4v273l-313 -49 v-35zM287 1126h78q0 10 2 24.5t7 28t14.5 22.5t27.5 9q14 0 45 -17t68 -38.5t74.5 -39t68.5 -17.5q49 0 76.5 29.5t41 69.5t16.5 79t7 59h-69q-2 -8 -5 -22.5t-9.5 -29.5t-18.5 -26.5t-31 -11.5q-25 0 -54.5 17.5t-62 39t-69.5 40t-74 18.5q-41 0 -63.5 -22.5t-37 -57.5 t-20.5 -76t-12 -78z" />
<glyph unicode="&#xf2;" d="M104 471q0 -111 29 -201t83 -155.5t134 -101.5t182 -36q215 0 320.5 132.5t105.5 363.5t-113.5 366.5t-316.5 135.5q-113 0 -192.5 -37t-130.5 -102.5t-76 -158.5t-25 -206zM279 471q0 63 5 137t29.5 137.5t75.5 106.5t141 43q82 0 132.5 -43t78 -106.5t35.5 -137 t8 -137.5q0 -59 -6 -131t-30.5 -134.5t-74.5 -105.5t-138 -43q-82 0 -132.5 43t-78 106.5t-36.5 135.5t-9 129zM327 1368q0 -16 10.5 -34.5t30.5 -47.5l119 -170h88l-69 236q-14 47 -34 66.5t-67 19.5q-31 0 -54.5 -18.5t-23.5 -51.5z" />
<glyph unicode="&#xf3;" d="M104 471q0 -111 29 -201t83 -155.5t134 -101.5t182 -36q215 0 320.5 132.5t105.5 363.5t-113.5 366.5t-316.5 135.5q-113 0 -192.5 -37t-130.5 -102.5t-76 -158.5t-25 -206zM279 471q0 63 5 137t29.5 137.5t75.5 106.5t141 43q82 0 132.5 -43t78 -106.5t35.5 -137 t8 -137.5q0 -59 -6 -131t-30.5 -134.5t-74.5 -105.5t-138 -43q-82 0 -132.5 43t-78 106.5t-36.5 135.5t-9 129zM467 1116h88l121 170q18 29 28 47.5t10 34.5q0 33 -23.5 51.5t-53.5 18.5q-47 0 -66.5 -19.5t-34.5 -66.5z" />
<glyph unicode="&#xf4;" d="M104 471q0 -111 29 -201t83 -155.5t134 -101.5t182 -36q215 0 320.5 132.5t105.5 363.5t-113.5 366.5t-316.5 135.5q-113 0 -192.5 -37t-130.5 -102.5t-76 -158.5t-25 -206zM272 1116h88l176 137l168 -137h86l-172 250q-23 33 -38 48.5t-48 15.5q-29 0 -45 -16.5 t-39 -49.5zM279 471q0 63 5 137t29.5 137.5t75.5 106.5t141 43q82 0 132.5 -43t78 -106.5t35.5 -137t8 -137.5q0 -59 -6 -131t-30.5 -134.5t-74.5 -105.5t-138 -43q-82 0 -132.5 43t-78 106.5t-36.5 135.5t-9 129z" />
<glyph unicode="&#xf5;" d="M104 471q0 -111 29 -201t83 -155.5t134 -101.5t182 -36q215 0 320.5 132.5t105.5 363.5t-113.5 366.5t-316.5 135.5q-113 0 -192.5 -37t-130.5 -102.5t-76 -158.5t-25 -206zM268 1126h78q0 10 2 24.5t7 28t14.5 22.5t27.5 9q14 0 45 -17t68 -38.5t74.5 -39t68.5 -17.5 q49 0 76.5 29.5t41 69.5t16.5 79t7 59h-69q-2 -8 -5 -22.5t-9.5 -29.5t-18.5 -26.5t-31 -11.5q-25 0 -54.5 17.5t-62 39t-69.5 40t-74 18.5q-41 0 -63.5 -22.5t-37 -57.5t-20.5 -76t-12 -78zM279 471q0 63 5 137t29.5 137.5t75.5 106.5t141 43q82 0 132.5 -43t78 -106.5 t35.5 -137t8 -137.5q0 -59 -6 -131t-30.5 -134.5t-74.5 -105.5t-138 -43q-82 0 -132.5 43t-78 106.5t-36.5 135.5t-9 129z" />
<glyph unicode="&#xf6;" d="M104 471q0 -111 29 -201t83 -155.5t134 -101.5t182 -36q215 0 320.5 132.5t105.5 363.5t-113.5 366.5t-316.5 135.5q-113 0 -192.5 -37t-130.5 -102.5t-76 -158.5t-25 -206zM245 1231q0 -45 32 -75t73 -30q43 0 74.5 31t31.5 74t-31.5 73.5t-74.5 30.5t-74 -30.5 t-31 -73.5zM279 471q0 63 5 137t29.5 137.5t75.5 106.5t141 43q82 0 132.5 -43t78 -106.5t35.5 -137t8 -137.5q0 -59 -6 -131t-30.5 -134.5t-74.5 -105.5t-138 -43q-82 0 -132.5 43t-78 106.5t-36.5 135.5t-9 129zM606 1231q0 -45 31.5 -75t74.5 -30t74 31t31 74t-31 73.5 t-74 30.5q-45 0 -75.5 -30.5t-30.5 -73.5z" />
<glyph unicode="&#xf7;" horiz-adv-x="1177" d="M117 432h944v107h-944v-107zM473 129q0 -47 34 -79t81 -32t82 33t35 80t-35 78t-82 31t-81 -32t-34 -79zM473 842q0 -47 34 -79t81 -32t82 33t35 78q0 47 -35 78.5t-82 31.5t-81 -32.5t-34 -77.5z" />
<glyph unicode="&#xf8;" d="M104 471q0 -115 29 -210t88 -167l-98 -153l55 -31l90 141q104 -74 264 -74q215 0 320.5 132.5t105.5 363.5q0 139 -36.5 250t-120.5 166l80 125l-54 35l-79 -125q-94 51 -220 51q-113 0 -192.5 -37t-130.5 -102.5t-76 -158.5t-25 -206zM279 471q0 63 5 138t29.5 140.5 t75.5 109.5t141 44q53 0 92.5 -18.5t69.5 -48.5l-395 -621q-10 66 -14 134.5t-4 121.5zM330 145l403 637q31 -72 41 -155.5t10 -155.5q0 -59 -6 -132t-30.5 -137.5t-74.5 -108.5t-138 -44q-74 0 -123.5 27.5t-81.5 68.5z" />
<glyph unicode="&#xf9;" horiz-adv-x="1099" d="M43 891q20 -2 48 -6t50.5 -17.5t39 -40t16.5 -71.5v-394q0 -86 11 -156.5t43 -120.5t86 -79t140 -29q70 0 122 29t90 68t61.5 81t33.5 70h4v-225h158v975l-311 -49v-35q23 -2 49.5 -6t50 -17.5t38.5 -40t15 -71.5v-293q0 -49 -21.5 -115.5t-58 -127t-83.5 -101.5t-99 -41 q-53 0 -85.5 21.5t-52 57.5t-27 83t-7.5 96v639l-311 -49v-35zM346 1368q0 -16 10.5 -34.5t30.5 -47.5l119 -170h88l-69 236q-14 47 -34 66.5t-67 19.5q-31 0 -54.5 -18.5t-23.5 -51.5z" />
<glyph unicode="&#xfa;" horiz-adv-x="1099" d="M43 891q20 -2 48 -6t50.5 -17.5t39 -40t16.5 -71.5v-394q0 -86 11 -156.5t43 -120.5t86 -79t140 -29q70 0 122 29t90 68t61.5 81t33.5 70h4v-225h158v975l-311 -49v-35q23 -2 49.5 -6t50 -17.5t38.5 -40t15 -71.5v-293q0 -49 -21.5 -115.5t-58 -127t-83.5 -101.5t-99 -41 q-53 0 -85.5 21.5t-52 57.5t-27 83t-7.5 96v639l-311 -49v-35zM486 1116h88l121 170q18 29 28 47.5t10 34.5q0 33 -23.5 51.5t-53.5 18.5q-47 0 -66.5 -19.5t-34.5 -66.5z" />
<glyph unicode="&#xfb;" horiz-adv-x="1099" d="M43 891q20 -2 48 -6t50.5 -17.5t39 -40t16.5 -71.5v-394q0 -86 11 -156.5t43 -120.5t86 -79t140 -29q70 0 122 29t90 68t61.5 81t33.5 70h4v-225h158v975l-311 -49v-35q23 -2 49.5 -6t50 -17.5t38.5 -40t15 -71.5v-293q0 -49 -21.5 -115.5t-58 -127t-83.5 -101.5t-99 -41 q-53 0 -85.5 21.5t-52 57.5t-27 83t-7.5 96v639l-311 -49v-35zM291 1116h88l176 137l168 -137h86l-172 250q-23 33 -38 48.5t-48 15.5q-29 0 -45 -16.5t-39 -49.5z" />
<glyph unicode="&#xfc;" horiz-adv-x="1099" d="M43 891q20 -2 48 -6t50.5 -17.5t39 -40t16.5 -71.5v-394q0 -86 11 -156.5t43 -120.5t86 -79t140 -29q70 0 122 29t90 68t61.5 81t33.5 70h4v-225h158v975l-311 -49v-35q23 -2 49.5 -6t50 -17.5t38.5 -40t15 -71.5v-293q0 -49 -21.5 -115.5t-58 -127t-83.5 -101.5t-99 -41 q-53 0 -85.5 21.5t-52 57.5t-27 83t-7.5 96v639l-311 -49v-35zM264 1231q0 -45 32 -75t73 -30q43 0 74.5 31t31.5 74t-31.5 73.5t-74.5 30.5t-74 -30.5t-31 -73.5zM625 1231q0 -45 31.5 -75t74.5 -30t74 31t31 74t-31 73.5t-74 30.5q-45 0 -75.5 -30.5t-30.5 -73.5z" />
<glyph unicode="&#xfd;" horiz-adv-x="911" d="M-80 918q51 -4 84 -16.5t54.5 -36t39 -59.5t37.5 -85l303 -721l-26 -72q-25 -66 -45.5 -116t-41 -83.5t-44 -50t-56.5 -16.5q-37 0 -60.5 19.5t-36.5 46t-19.5 55.5t-6.5 49h-178q0 -29 12.5 -71t43 -81.5t83 -68.5t134.5 -29q72 0 121 25.5t84.5 74t64.5 117t61 152.5 l377 1001h-108l-279 -741l-305 741h-293v-34zM453 1116h88l121 170q18 29 28 47.5t10 34.5q0 33 -23.5 51.5t-53.5 18.5q-47 0 -66.5 -19.5t-34.5 -66.5z" />
<glyph unicode="&#xfe;" d="M-6 1296q25 -2 57.5 -6t60 -16t47 -39t19.5 -76v-1595l158 22v553h4q10 -25 31.5 -53.5t53.5 -53t76 -40t97 -15.5q100 0 170 41t113 110t62.5 160t19.5 189q0 106 -22.5 197.5t-69 158t-117 104.5t-168.5 38q-51 0 -92 -16.5t-72 -40t-52.5 -51t-29.5 -50.5h-4v561 l-342 -47v-35zM336 420v145q0 57 15.5 116.5t44 107t70.5 77t95 29.5q72 0 116 -46t68.5 -111.5t33.5 -138.5t9 -126q0 -61 -8 -133t-31.5 -135.5t-66.5 -105.5t-115 -42q-68 0 -112.5 38t-70.5 93.5t-37 118t-11 113.5z" />
<glyph unicode="&#xff;" horiz-adv-x="911" d="M-80 918q51 -4 84 -16.5t54.5 -36t39 -59.5t37.5 -85l303 -721l-26 -72q-25 -66 -45.5 -116t-41 -83.5t-44 -50t-56.5 -16.5q-37 0 -60.5 19.5t-36.5 46t-19.5 55.5t-6.5 49h-178q0 -29 12.5 -71t43 -81.5t83 -68.5t134.5 -29q72 0 121 25.5t84.5 74t64.5 117t61 152.5 l377 1001h-108l-279 -741l-305 741h-293v-34zM210 1231q0 -45 32 -75t73 -30q43 0 74.5 31t31.5 74t-31.5 73.5t-74.5 30.5t-74 -30.5t-31 -73.5zM571 1231q0 -45 31.5 -75t74.5 -30t74 31t31 74t-31 73.5t-74 30.5q-45 0 -75.5 -30.5t-30.5 -73.5z" />
<glyph unicode="&#x152;" horiz-adv-x="1822" d="M111 688q0 -154 24.5 -284t86 -225t164.5 -148.5t261 -53.5q39 0 77 4.5t72.5 8.5t59.5 7t35 3h842l14 279h-64q-10 -59 -20 -97.5t-27.5 -61t-48.5 -31.5t-84 -9h-219q-55 0 -89 2t-51.5 13t-22.5 35t-5 69v481h260q63 0 100 -10.5t56.5 -32t28 -54t16.5 -77.5h47v424 h-47q-6 -37 -14.5 -68t-29 -53.5t-57 -35.5t-100.5 -13h-260v403q0 41 3 67.5t15.5 42t38 20.5t68.5 5h215q63 0 98 -11t52.5 -33.5t23.5 -54.5t15 -71h63l-10 250h-780q-23 0 -55 4t-66.5 8.5t-72.5 7.5t-77 3q-154 0 -256 -50.5t-164.5 -142.5t-89 -224t-26.5 -296z M311 688q0 106 8.5 218t42 204t101 151.5t184.5 59.5q72 0 133.5 -17.5t104.5 -48.5q29 -20 41 -65t12 -96v-688q0 -39 -1 -81t-4 -80t-10.5 -69t-19.5 -45q-33 -41 -100.5 -57.5t-155.5 -16.5q-121 0 -188.5 62.5t-100 157t-40 205t-7.5 206.5z" />
<glyph unicode="&#x153;" horiz-adv-x="1595" d="M104 471q0 -111 29 -201t83 -155.5t134 -101.5t182 -36q117 0 200 49.5t136 141.5q121 -190 365 -191q96 0 165.5 14.5t86.5 22.5v68q-35 -10 -71 -17.5t-75 -7.5q-106 0 -186 39t-133 97.5t-80 127t-27 130.5v43h598v30q0 117 -26.5 202t-72.5 140.5t-109.5 82 t-135.5 26.5q-115 0 -194.5 -43t-126.5 -125q-43 84 -130 126t-188 42q-113 0 -192.5 -37t-130.5 -102.5t-76 -158.5t-25 -206zM279 471q0 63 5 137t29.5 137.5t75.5 106.5t141 43q82 0 132.5 -43t78 -106.5t35.5 -137t8 -137.5q0 -59 -6 -131t-30.5 -134.5t-74.5 -105.5 t-138 -43q-82 0 -132.5 43t-78 106.5t-36.5 135.5t-9 129zM915 563q2 35 11.5 91.5t34 109.5t67.5 92t113 39q45 0 80.5 -24.5t60.5 -66.5t38 -99.5t13 -122.5v-19h-418z" />
<glyph unicode="&#x178;" d="M-104 1343q51 -4 84.5 -17t59.5 -37.5t48.5 -62.5t52.5 -89l291 -490v-647h178v647l453 731h-135l-371 -600l-356 600h-305v-35zM266 1657q0 -45 32 -75t73 -30q43 0 74.5 31t31.5 74t-31.5 73.5t-74.5 30.5t-74 -30.5t-31 -73.5zM627 1657q0 -45 31.5 -75t74.5 -30 t74 31t31 74t-31 73.5t-74 30.5q-45 0 -75.5 -30.5t-30.5 -73.5z" />
<glyph unicode="&#x2c6;" horiz-adv-x="614" d="M47 1116h88l176 137l168 -137h86l-172 250q-23 33 -38 48.5t-48 15.5q-29 0 -45 -16.5t-39 -49.5z" />
<glyph unicode="&#x2dc;" horiz-adv-x="614" d="M43 1126h78q0 10 2 24.5t7 28t14.5 22.5t27.5 9q14 0 45 -17t68 -38.5t74.5 -39t68.5 -17.5q49 0 76.5 29.5t41 69.5t16.5 79t7 59h-69q-2 -8 -5 -22.5t-9.5 -29.5t-18.5 -26.5t-31 -11.5q-25 0 -54.5 17.5t-62 39t-69.5 40t-74 18.5q-41 0 -63.5 -22.5t-37 -57.5 t-20.5 -76t-12 -78z" />
<glyph unicode="&#x2000;" horiz-adv-x="942" />
<glyph unicode="&#x2001;" horiz-adv-x="1884" />
<glyph unicode="&#x2002;" horiz-adv-x="942" />
<glyph unicode="&#x2003;" horiz-adv-x="1884" />
<glyph unicode="&#x2004;" horiz-adv-x="628" />
<glyph unicode="&#x2005;" horiz-adv-x="471" />
<glyph unicode="&#x2006;" horiz-adv-x="314" />
<glyph unicode="&#x2007;" horiz-adv-x="314" />
<glyph unicode="&#x2008;" horiz-adv-x="235" />
<glyph unicode="&#x2009;" horiz-adv-x="376" />
<glyph unicode="&#x200a;" horiz-adv-x="104" />
<glyph unicode="&#x2010;" horiz-adv-x="1177" d="M117 432h944v107h-944v-107z" />
<glyph unicode="&#x2011;" horiz-adv-x="1177" d="M117 432h944v107h-944v-107z" />
<glyph unicode="&#x2012;" horiz-adv-x="1177" d="M117 432h944v107h-944v-107z" />
<glyph unicode="&#x2013;" d="M111 438h841v117h-841v-117z" />
<glyph unicode="&#x2014;" horiz-adv-x="1404" d="M106 438h1192v117h-1192v-117z" />
<glyph unicode="&#x2018;" horiz-adv-x="493" d="M98 1100q0 -72 39 -105.5t90 -33.5q53 0 87 31.5t34 80.5q0 41 -14.5 61.5t-36.5 30.5q-16 8 -30.5 10.5t-25 5.5t-17.5 9t-7 24q0 29 10.5 55.5t25.5 51.5t31.5 45t28.5 35h-67q-14 -14 -39 -43t-49.5 -68t-42 -87t-17.5 -103z" />
<glyph unicode="&#x2019;" horiz-adv-x="493" d="M143 1290q0 -41 14.5 -61.5t37.5 -32.5q16 -8 30.5 -10t25.5 -4t18 -8.5t7 -24.5q0 -29 -10 -56.5t-25.5 -52t-31.5 -45t-29 -34.5h68q12 14 36.5 42.5t49 67.5t42 87t17.5 104q0 72 -39 105.5t-88 33.5q-53 0 -88 -31t-35 -80z" />
<glyph unicode="&#x201a;" horiz-adv-x="493" d="M143 125q0 -41 14.5 -61.5t37.5 -30.5q16 -10 30.5 -11.5t25.5 -4.5t18 -9t7 -24q0 -29 -10 -55.5t-25.5 -51t-31.5 -45t-29 -35.5h68q12 14 36.5 42t49 67t42 87t17.5 103q0 74 -39 108t-88 34q-53 0 -88 -32t-35 -81z" />
<glyph unicode="&#x201c;" horiz-adv-x="835" d="M102 1100q0 -72 39 -105.5t88 -33.5q53 0 87 31.5t34 80.5q0 41 -14 61.5t-37 30.5q-16 8 -30.5 10.5t-26 4.5t-17.5 9t-6 25q0 29 10.5 55.5t25.5 51.5t31.5 45t28.5 35h-67q-14 -14 -39 -43t-48.5 -68t-41 -87t-17.5 -103zM444 1102q0 -74 39 -107.5t88 -33.5 q53 0 88 31.5t35 80.5q0 41 -14 61.5t-37 30.5q-16 8 -30.5 10.5t-26 4.5t-18.5 9t-7 25q0 29 10.5 55.5t25.5 51.5t31.5 45t28.5 35h-67q-12 -14 -37 -42t-49.5 -68t-42 -88t-17.5 -101z" />
<glyph unicode="&#x201d;" horiz-adv-x="835" d="M143 1290q0 -41 14.5 -61.5t37.5 -32.5q16 -8 30.5 -10t25.5 -4t18 -8.5t7 -24.5q0 -29 -10 -56.5t-25.5 -52t-31.5 -45t-29 -34.5h68q12 14 36.5 42.5t49 67.5t42 87t17.5 104q0 72 -39 105.5t-88 33.5q-53 0 -88 -31t-35 -80zM487 1290q0 -41 14.5 -61.5t37.5 -32.5 q16 -8 30.5 -10t25.5 -4t17 -8.5t6 -24.5q0 -29 -10 -56.5t-25.5 -52t-31.5 -45t-29 -34.5h68q14 14 38.5 42.5t48 68.5t41 88t17.5 104q0 72 -39 104.5t-88 32.5q-53 0 -87 -31t-34 -80z" />
<glyph unicode="&#x201e;" horiz-adv-x="835" d="M143 125q0 -41 14.5 -61.5t37.5 -30.5q16 -10 30.5 -11.5t25.5 -4.5t18 -9t7 -24q0 -29 -10 -55.5t-25.5 -51t-31.5 -45t-29 -35.5h68q12 14 36.5 42t49 67t42 87t17.5 103q0 74 -39 108t-88 34q-53 0 -88 -32t-35 -81zM487 125q0 -41 14.5 -61.5t37.5 -30.5 q16 -10 30.5 -11.5t25.5 -4.5t17 -9t6 -24q0 -29 -10 -55.5t-25.5 -51t-31.5 -45t-29 -35.5h68q14 14 38.5 42t48 68t41 88t17.5 103q0 72 -39 106t-88 34q-53 0 -87 -32t-34 -81z" />
<glyph unicode="&#x2022;" horiz-adv-x="1024" d="M141 737q0 -76 29 -143.5t80 -117.5t117.5 -78.5t144.5 -28.5q76 0 143.5 28.5t117.5 78.5t80 118t30 143q0 76 -29 144.5t-80 119t-118.5 80t-143.5 29.5q-78 0 -144.5 -29.5t-117.5 -80t-80 -119t-29 -144.5z" />
<glyph unicode="&#x2026;" horiz-adv-x="1480" d="M131 111q0 -47 34 -79t81 -32t80.5 31.5t33.5 79.5q0 47 -34.5 79.5t-79.5 32.5q-47 0 -81 -32.5t-34 -79.5zM625 111q0 -47 32.5 -79t79.5 -32t82 31.5t35 79.5q0 47 -35 79.5t-82 32.5t-79.5 -32.5t-32.5 -79.5zM1118 111q0 -47 34 -79t81 -32t81 31.5t34 79.5 q0 47 -34 79.5t-81 32.5t-81 -32.5t-34 -79.5z" />
<glyph unicode="&#x202f;" horiz-adv-x="376" />
<glyph unicode="&#x2039;" horiz-adv-x="493" d="M84 487l215 -368h104l-122 368l122 379h-104z" />
<glyph unicode="&#x203a;" horiz-adv-x="493" d="M84 119h104l215 368l-215 379h-104l123 -379z" />
<glyph unicode="&#x205f;" horiz-adv-x="471" />
<glyph unicode="&#x2122;" horiz-adv-x="1251" d="M-18 1169h34q14 37 24.5 65t27 48.5t42 33.5t68.5 23v-391q0 -66 -27.5 -77t-80.5 -15v-39h313v39q-29 2 -47.5 5t-29.5 11.5t-16 25.5t-5 50v391q45 -8 69.5 -20t40 -32.5t25.5 -49.5t24 -68h37l-10 209h-473zM508 817h201v39q-16 4 -27.5 7t-19 12.5t-10.5 26t-3 46.5 v359h4l150 -490h33l172 508h4v-377q0 -31 -4 -47t-13.5 -25.5t-23 -12.5l-31.5 -7v-39h254v39q-23 2 -37 5t-22.5 12.5t-12.5 27t-4 47.5v307q0 29 4 44.5t14.5 23.5t27 10t40.5 6v39h-221l-129 -370h-4l-113 370h-205v-39q23 -2 36.5 -3t21.5 -7t10 -20.5t2 -40.5v-320 q0 -29 -5 -45t-16.5 -25.5t-28.5 -13.5t-44 -8v-39z" />
<glyph unicode="&#x25fc;" horiz-adv-x="952" d="M0 0v952h952v-952h-952z" />
</font>
</defs>
</svg>
