<?xml version="1.0" standalone="no"?>
<!DOCTYPE svg PUBLIC "-//W3C//DTD SVG 1.1//EN" "http://www.w3.org/Graphics/SVG/1.1/DTD/svg11.dtd" >
<svg xmlns="http://www.w3.org/2000/svg">
<metadata></metadata>
<defs>
<font id="itc_officina_serif_bookitalic" horiz-adv-x="1024" >
<font-face units-per-em="2048" ascent="1638" descent="-410" />
<missing-glyph horiz-adv-x="606" />
<glyph horiz-adv-x="2048" />
<glyph horiz-adv-x="2048" />
<glyph unicode="&#xd;" horiz-adv-x="2048" />
<glyph unicode=" "  horiz-adv-x="606" />
<glyph unicode="&#x09;" horiz-adv-x="606" />
<glyph unicode="&#xa0;" horiz-adv-x="606" />
<glyph unicode="!" horiz-adv-x="681" d="M115 109q0 57 40 97t97 40q56 0 96.5 -40t40.5 -97t-40.5 -97.5t-96.5 -40.5q-57 0 -97 40.5t-40 97.5zM287 557q0 10 2 16l127 805q3 16 8.5 20.5t19.5 4.5h156q21 0 21 -14l-5 -25l-215 -799q-6 -18 -11 -20t-19 -2h-62q-22 0 -22 14z" />
<glyph unicode="&#x22;" horiz-adv-x="948" d="M332 1450q0 18 26 18h115q27 0 27 -18q0 -5 -1 -17t-1 -16l-29 -463q-1 -17 -7.5 -21.5t-21.5 -4.5h-45q-18 0 -24 5.5t-6 20.5l-31 463q-2 12 -2 33zM635 1450q0 18 27 18h114q27 0 27 -18q0 -5 -1 -17t-1 -16l-29 -463q-1 -17 -7.5 -21.5t-21.5 -4.5h-45q-18 0 -24 5.5 t-6 20.5l-31 463q-2 12 -2 33z" />
<glyph unicode="#" d="M14 250q0 2 1 6.5t1 7.5l19 80q3 15 8.5 20t19.5 5h142l127 401h-127q-21 0 -21 16q0 2 1 7.5t1 7.5l19 82q3 14 8.5 19t19.5 5h142l133 416q5 14 10.5 18.5t20.5 4.5h77q21 0 21 -15q0 -6 -4 -18l-129 -406h258l133 416q5 15 10 19t21 4h75q23 0 23 -15q0 -6 -4 -18 l-129 -406h117q20 0 20 -18q0 -2 -1 -7t-1 -8l-18 -79q-5 -25 -29 -25h-131l-129 -401h119q20 0 20 -19q0 -2 -1 -6t-1 -6l-18 -82q-3 -14 -9.5 -19.5t-19.5 -5.5h-133l-119 -376q-4 -14 -10.5 -18.5t-20.5 -4.5h-77q-21 0 -21 14q0 7 4 19l115 366h-258l-119 -376 q-4 -15 -10 -19t-21 -4h-78q-20 0 -20 14q0 7 4 19l115 366h-125q-21 0 -21 19zM332 369h260l127 401h-258z" />
<glyph unicode="$" d="M70 92q0 10 4 14l51 89q3 10 14 10q7 0 20.5 -8t36 -20.5t42.5 -20.5q15 -7 28 -12.5t25.5 -9.5t19 -6.5t19.5 -4.5t15.5 -2.5t16.5 -2.5l15 -1l112 534q-11 10 -46.5 38t-53 43t-46 46.5t-42.5 59.5t-25.5 70t-11.5 89q0 103 56 184.5t140 123t177 41.5l18 79 q3 13 9.5 18t21.5 5h53q21 0 21 -16q0 -2 -1 -7.5t-1 -7.5l-19 -71q58 0 151 -33.5t93 -61.5q0 -2 -6 -14l-53 -86q-5 -8 -19 -8q-8 0 -21.5 8t-35.5 22t-45 23q-47 19 -90 25l-101 -471q4 -3 38 -30t50 -41.5t46.5 -48.5t46 -64.5t28.5 -76.5t13 -96q0 -93 -35 -171.5 t-91 -127t-122.5 -75.5t-132.5 -27l-23 -113q-3 -13 -9.5 -17.5t-21.5 -4.5h-53q-18 0 -18 16q0 2 1 7t1 7l20 103q-78 0 -179 37t-101 65zM412 989q0 -19 3.5 -36.5t7.5 -30.5t14 -28l15 -22.5t18.5 -21t17.5 -17t18.5 -15.5t15.5 -13l88 412q-36 -8 -68 -22.5t-63 -40 t-49 -68t-18 -97.5zM479 119q83 13 141 82t58 180q0 41 -9.5 76t-29 63.5t-29.5 40t-30 31.5z" />
<glyph unicode="%" horiz-adv-x="1554" d="M141 879q0 81 23.5 162t67 150t114.5 112t156 43q101 0 156 -62t55 -180q0 -79 -24 -158.5t-67.5 -146.5t-113 -109.5t-152.5 -42.5q-101 0 -158 62t-57 170zM274 877q0 -119 95 -119q50 0 92 34t67 87t38.5 114t13.5 119q0 123 -91 123q-68 0 -119 -59t-73.5 -138.5 t-22.5 -160.5zM360 -18q0 6 9 24l718 1321q9 19 31 19h88q21 0 21 -15q0 -6 -8 -22l-719 -1319q-8 -19 -35 -19h-82q-23 0 -23 11zM891 203q0 64 14.5 129.5t44 126t71.5 107.5t101.5 75.5t128.5 28.5q101 0 156 -62t55 -180q0 -79 -24 -158.5t-67 -146.5t-112.5 -109.5 t-152.5 -42.5q-101 0 -158 62t-57 170zM1024 201q0 -119 94 -119q50 0 92 34t67 87t38.5 114t13.5 119q0 123 -90 123q-68 0 -119 -59t-73.5 -138.5t-22.5 -160.5z" />
<glyph unicode="&#x26;" horiz-adv-x="1214" d="M76 297q0 47 9.5 91t22.5 78.5t37 68.5t43 57t51.5 49.5t51 40t53 33.5t46.5 26l42 21q-1 1 -14 20.5t-18.5 28t-19 31t-20.5 37.5t-17.5 40t-16 46t-9.5 47.5t-4 52.5q0 77 25 140t65.5 104.5t94 69.5t108.5 40.5t111 12.5q137 0 214 -78t77 -199q0 -69 -26.5 -131.5 t-62 -104.5t-90 -82.5t-90.5 -61t-84 -45.5q-9 -5 -14 -7l252 -377q48 66 77 133.5t39.5 109t12.5 44.5q5 8 18 8h107q20 0 20 -12q0 -48 -62 -181.5t-138 -214.5l108 -161q8 -8 8 -17q0 -10 -16 -22l-84 -56q-12 -6 -16 -6q-13 0 -21 17l-92 141q-44 -33 -69 -50 t-82.5 -47.5t-127 -45.5t-149.5 -15q-161 0 -255.5 83t-94.5 243zM231 313q0 -106 60 -160.5t162 -54.5q55 0 105.5 13t89.5 35.5t66 42.5t56 44q7 6 10 9l-276 411q-29 -15 -44.5 -23.5t-48.5 -29.5t-53 -38.5t-47 -46t-42.5 -56.5t-26.5 -66.5t-11 -79.5zM469 1077 q0 -34 9.5 -69.5t30 -73.5t31 -54t33.5 -51q4 2 30 17t35.5 21t35.5 22.5t38.5 26.5t35 28.5t34 33t27.5 35.5t23.5 40.5t13.5 43t6 48.5q0 72 -40 120t-118 48q-91 0 -158 -63t-67 -173z" />
<glyph unicode="'" horiz-adv-x="342" d="M215 1450q0 18 27 18h114q27 0 27 -18q0 -5 -1 -17t-1 -16l-29 -463q-1 -17 -7 -21.5t-21 -4.5h-45q-19 0 -25 5.5t-6 20.5l-31 463q-2 12 -2 33z" />
<glyph unicode="(" horiz-adv-x="872" d="M213 207q0 412 274 852q64 105 200 264.5t161 159.5q10 0 16 -6l56 -41q10 -10 10 -17q0 -10 -9 -21t-29.5 -31t-46 -46.5t-65.5 -77.5t-82 -113q-73 -109 -126.5 -207.5t-100 -215.5t-70.5 -246.5t-24 -267.5q0 -104 15.5 -202t37.5 -166t44.5 -120.5t38 -84t15.5 -38.5 q0 -16 -18 -28l-51 -29q-20 -8 -27 -8q-12 0 -37 37t-56 105.5t-59.5 152.5t-47.5 190t-19 205z" />
<glyph unicode=")" horiz-adv-x="872" d="M-61 -420q0 10 9 21t29 31t45.5 46.5t65.5 77.5t82 113q73 109 126.5 207.5t100 216t71 247t24.5 267.5q0 104 -15.5 202t-38 165.5t-45 120t-38 84t-15.5 38.5q0 17 18 29l52 29q20 8 26 8q12 0 37 -37t56 -105.5t59.5 -152.5t47.5 -190t19 -205q0 -412 -274 -852 q-64 -105 -200 -264.5t-161 -159.5q-10 0 -16 6l-55 41q-10 10 -10 16z" />
<glyph unicode="*" d="M291 1116q3 12 6 23l22 71q8 23 19 23l18 -6l222 -92l-17 206q0 5 -1 19.5t-1 19.5q0 14 5 18.5t16 4.5h94q11 0 15.5 -4.5t4.5 -18.5q0 -5 -1 -19.5t-1 -19.5l-16 -206l221 92l18 6q11 0 19 -23l22 -71q6 -18 7 -23q0 -10 -23 -18l-233 -56l155 -184q1 -1 3.5 -4.5 t4.5 -7t2 -6.5q0 -9 -16 -21l-65 -47q-12 -8 -21 -8q-8 0 -18 16l-125 205l-125 -205q-10 -16 -19 -16q-8 0 -20 8l-66 47q-16 12 -16 21q0 3 2 6.5t4.5 7t3.5 4.5l156 184l-234 56q-22 7 -22 18z" />
<glyph unicode="+" d="M45 475v90q0 19 4.5 24t22.5 5h364v360q0 18 7 23.5t20 5.5h94q9 0 14 -1.5t9 -8t4 -19.5v-360h364q19 0 24 -5t5 -24v-90q0 -19 -5 -24t-24 -5h-364v-364q0 -15 -5 -22t-22 -7h-94q-27 0 -27 29v364h-364q-18 0 -22.5 5t-4.5 24z" />
<glyph unicode="," horiz-adv-x="606" d="M-12 -213l6 18l168 408q5 12 10.5 16t20.5 4h174q20 0 20 -12q0 -10 -8 -22l-301 -439q-12 -12 -17 -12q-3 0 -8.5 2t-7.5 2l-43 21q-1 1 -5.5 3t-6.5 4t-2 7z" />
<glyph unicode="-" horiz-adv-x="606" d="M53 459q0 3 6 33l17 79q3 14 9 19.5t21 5.5h422q21 0 21 -16q0 -3 -6 -33l-17 -80q-3 -14 -9 -19.5t-21 -5.5h-422q-21 0 -21 17z" />
<glyph unicode="." horiz-adv-x="606" d="M78 109q0 57 40 97t97 40t97 -40t40 -97t-40 -97.5t-97 -40.5t-97 40.5t-40 97.5z" />
<glyph unicode="/" horiz-adv-x="985" d="M-190 -399q0 2 6 20l1069 1831q9 16 35 16h96q20 0 20 -12q0 -10 -8 -22l-1069 -1831q-7 -17 -37 -17h-94q-18 0 -18 15z" />
<glyph unicode="0" d="M88 360q0 105 16.5 216t48 222t82.5 209t115.5 174t152 120.5t187.5 44.5q303 0 303 -390q0 -105 -17 -217t-48.5 -222.5t-83 -208.5t-115 -173.5t-149 -119.5t-181.5 -44q-73 0 -128.5 21t-90 56t-55.5 86t-29 105.5t-8 120.5zM244 360q0 -125 42.5 -188t141.5 -63 q80 0 149.5 59t116 152t80 207.5t49 224t15.5 204.5q0 124 -43.5 188t-145.5 64q-80 0 -149.5 -59.5t-115 -152.5t-78.5 -208t-47.5 -224.5t-14.5 -203.5z" />
<glyph unicode="1" d="M131 12q0 4 6 33l17 61q5 21 24 21h207l221 1014l-301 -170q-9 -6 -18 -6q-10 0 -19 18l-28 43q-4 8 -4 14q0 10 12 19l405 246q18 12 39 12h82q19 0 19 -19q0 -8 -5 -27t-6 -24l-237 -1120h182q16 0 16 -12q0 -4 -6 -33l-16 -62q-5 -20 -25 -20h-549q-16 0 -16 12z" />
<glyph unicode="2" d="M29 16q0 39 28.5 129t69.5 158q55 90 126.5 165t128 117t135.5 98.5t124 94.5q97 83 134.5 142t37.5 141q0 75 -43.5 111t-112.5 36q-59 0 -107.5 -23.5t-78 -57t-51 -66.5t-36.5 -56.5t-24 -23.5q-2 0 -6 1t-6 1l-82 27q-1 0 -3.5 1t-4 1.5t-4.5 2t-4.5 3t-2.5 4.5t-1 6 q0 10 15 42t50 79.5t82 91t122.5 74.5t160.5 31q134 0 219.5 -67.5t85.5 -195.5q0 -71 -19.5 -133t-49 -107.5t-78 -91.5t-93.5 -79.5t-109 -78.5q-35 -24 -52 -36q-186 -131 -254.5 -208.5t-116.5 -205.5h561q21 0 21 -16q0 -5 -2.5 -12t-2.5 -11l-18 -79q-5 -25 -29 -25 h-694q-16 0 -16 16z" />
<glyph unicode="3" d="M16 61q0 9 9 27l43 86q5 10 14 10q3 0 25 -11.5t51 -26t80 -26t106 -11.5q152 0 241 100t89 231q0 191 -254 191h-72q-22 0 -22 14q0 11 2 17l18 81q5 25 29 25h74q135 0 228 85t93 214q0 66 -43.5 103.5t-122.5 37.5q-53 0 -102.5 -20t-79 -44.5t-54.5 -44.5t-34 -20 q-6 0 -19 13l-53 57q-6 6 -6 14q1 8 19.5 28t54 46.5t79.5 50.5t103.5 41t118.5 17q138 0 216.5 -72t78.5 -182q0 -126 -80 -234t-199 -143q33 -16 47 -23t45.5 -30.5t47 -47.5t29 -66.5t13.5 -94.5q0 -96 -37.5 -183.5t-103 -153.5t-162 -105.5t-207.5 -39.5q-99 0 -201 30 t-102 60z" />
<glyph unicode="4" d="M39 340q0 11 4 27l16 71q6 24 19 37l706 871q10 14 19 14q4 0 11 -2t11 -2l95 -21q14 -3 14 -14q0 -8 -6 -14l-697 -848h385l95 327q3 14 9 18.5t21 4.5h72q21 0 21 -18q0 -3 -2 -11.5t-3 -11.5l-65 -309h166q20 0 20 -17q0 -10 -2 -14l-18 -84q-3 -13 -9.5 -17.5 t-21.5 -4.5h-166l-63 -297q-3 -14 -9 -19.5t-20 -5.5h-98q-21 0 -21 16q0 7 6 31l58 275h-527q-20 0 -20 18z" />
<glyph unicode="5" d="M61 33q0 3 7 28l22 76q7 21 25 21q8 0 44 -12t92.5 -24.5t113.5 -12.5q159 0 264.5 121t105.5 288q0 89 -47.5 138t-128.5 49q-69 0 -147 -35.5t-101 -63.5q-24 -31 -39 -31q-8 0 -20 5l-57 20q-23 7 -23 18q0 9 12 41l195 635q9 23 31 23h538q21 0 21 -17q0 -4 -4 -24 l-17 -78q-4 -15 -10 -19.5t-18 -4.5h-431l-135 -410l4 -4q38 26 59 38.5t70 28t103 15.5q141 0 221 -82.5t80 -229.5q0 -76 -20.5 -153t-64.5 -150.5t-107 -130t-155 -91t-200 -34.5q-66 0 -134 11.5t-108.5 26t-40.5 24.5z" />
<glyph unicode="6" d="M117 295q0 118 23 241t64.5 240t105.5 220.5t142 181t177 123t207 45.5q87 0 146.5 -9t59.5 -24q0 -9 -8 -25l-30 -67q-17 -29 -25 -31q-10 0 -53 9t-84 9q-79 0 -149.5 -31t-118.5 -75.5t-91 -107.5t-66.5 -112t-45.5 -104l4 -4q112 127 262 127q139 0 202.5 -87.5 t63.5 -260.5q0 -109 -31.5 -211.5t-90.5 -186t-154 -134t-211 -50.5q-134 0 -216.5 84t-82.5 240zM272 283q0 -80 41.5 -127t128.5 -47q75 0 136 43.5t96.5 111.5t54.5 142.5t19 144.5q0 96 -39.5 154.5t-124.5 58.5q-77 0 -138 -40t-98.5 -108t-56.5 -153t-19 -180z" />
<glyph unicode="7" d="M137 6q0 9 8 21l691 1147h-539q-21 0 -21 14q0 4 5 24l16 80q5 25 31 25h700q9 0 15 -5.5t6 -13.5l-5 -20l-6 -25q-6 -26 -14 -39l-717 -1224q-13 -19 -24 -19q-2 0 -8.5 1t-8.5 1l-112 19q-17 3 -17 14z" />
<glyph unicode="8" d="M47 285q0 79 27 145.5t67 110t94.5 77.5t99.5 52t93 30q-27 17 -45 29.5t-46.5 39.5t-46 55t-31 70.5t-13.5 90.5q0 88 34.5 158.5t92.5 114t130.5 66t153.5 22.5q157 0 244.5 -66t87.5 -201q0 -66 -23.5 -124.5t-54 -96t-78.5 -73t-77 -51t-70 -34.5q30 -15 48 -25 t55.5 -39.5t60 -60t41 -81.5t18.5 -109q0 -176 -135 -295t-340 -119q-176 0 -281.5 79t-105.5 235zM203 303q0 -93 64.5 -143.5t176.5 -50.5q134 0 222 71t88 193q0 30 -7.5 58t-16.5 47.5t-27.5 39.5t-30.5 31t-37 26t-34 19.5t-34.5 16t-27.5 12.5q-4 -1 -12 -4 q-29 -10 -47.5 -16.5t-56 -23t-63 -32t-58 -41.5t-52 -54t-33.5 -67t-14 -82zM401 999q0 -32 10 -61.5t21.5 -49.5t34 -43t35 -33t38 -28.5t29.5 -21.5q118 54 175 102q98 84 98 189q0 76 -51.5 115.5t-141.5 39.5q-113 0 -180.5 -58t-67.5 -151z" />
<glyph unicode="9" d="M94 10q0 5 4 25l15 74q2 18 20 18q9 0 49 -9t78 -9q51 0 97.5 12t83 29.5t71.5 48.5t60 57.5t51 69t41 70t34 73.5t27 67t23 62l-5 4q-113 -174 -292 -174q-115 0 -192 88.5t-77 245.5q0 109 31.5 212t91 186.5t154.5 134.5t211 51q146 0 222.5 -82t76.5 -244 q0 -118 -20.5 -239.5t-58.5 -239t-99 -220.5t-136.5 -181t-176 -123.5t-212.5 -45.5q-172 0 -172 39zM338 764q0 -91 40 -145t126 -54q77 0 137 38.5t97 104t56 148t19 176.5q0 80 -40.5 128t-121.5 48q-78 0 -140.5 -43.5t-98.5 -112t-55 -143t-19 -145.5z" />
<glyph unicode=":" horiz-adv-x="606" d="M78 109q0 57 40 97t97 40t97 -40t40 -97t-40 -97.5t-97 -40.5t-97 40.5t-40 97.5zM227 846q0 57 40.5 97t97.5 40t97 -40t40 -97t-40 -97t-97 -40t-97.5 40t-40.5 97z" />
<glyph unicode=";" horiz-adv-x="606" d="M-16 -213l6 18l168 408q5 12 10 16t20 4h174q21 0 21 -12q0 -10 -8 -22l-301 -439q-12 -12 -17 -12q-3 0 -8.5 2t-7.5 2l-43 21q-1 1 -5.5 3t-6.5 4t-2 7zM242 846q0 57 40 97t97 40t97 -40t40 -97t-40 -97t-97 -40t-97 40t-40 97z" />
<glyph unicode="&#x3c;" d="M49 471v98q0 5 0.5 8.5t0.5 6t2 5t2.5 3.5t3.5 2.5t3.5 1.5t5 2t5.5 2l827 299q4 1 12 3.5t11 2.5q14 0 20 -20l33 -94q4 -4 4 -15q0 -12 -18 -20l-660 -234v-4l660 -235q18 -8 18 -21q0 -10 -4 -14l-33 -94q-6 -21 -20 -21q-8 0 -23 6l-827 299q-14 3 -18.5 8.5 t-4.5 24.5z" />
<glyph unicode="=" d="M45 334v90q0 19 4.5 24t22.5 5h876q19 0 24 -5t5 -24v-90q0 -19 -5 -24t-24 -5h-876q-18 0 -22.5 5t-4.5 24zM45 614v91q0 19 4 23.5t23 4.5h876q19 0 24 -4.5t5 -23.5v-91q0 -19 -5 -23.5t-24 -4.5h-876q-19 0 -23 4.5t-4 23.5z" />
<glyph unicode="&#x3e;" d="M70 262q0 13 18 21l660 233v4l-660 236q-18 8 -18 20q0 11 4 15l32 94q6 20 21 20q8 0 23 -6l827 -299q13 -3 17.5 -8.5t4.5 -24.5v-98q0 -9 -0.5 -14t-5 -8.5t-5.5 -4t-11 -4.5l-827 -299q-4 -1 -12 -3.5t-11 -2.5q-15 0 -21 21l-32 94q-4 4 -4 14z" />
<glyph unicode="?" horiz-adv-x="948" d="M199 109q0 57 40 97t97 40q56 0 96.5 -40t40.5 -97t-40.5 -97.5t-96.5 -40.5q-57 0 -97 40.5t-40 97.5zM303 1341q0 29 115.5 60t202.5 31q137 0 224 -69t87 -200q0 -76 -26.5 -141.5t-67.5 -109.5t-95 -78t-104.5 -52t-99.5 -26l-41 -195q-6 -20 -25 -20h-100 q-17 0 -17 12q0 4 6 33l52 237q4 21 16.5 29t50 17t62.5 18q112 41 166.5 95.5t54.5 154.5q0 83 -44.5 120t-131.5 37q-52 0 -107 -13t-91.5 -26.5t-43.5 -13.5q-13 0 -18 14l-19 64q-6 15 -6 22z" />
<glyph unicode="@" horiz-adv-x="1933" d="M158 369q0 204 76.5 386t206.5 312.5t308.5 206.5t376.5 76q314 0 500 -162t186 -443q0 -119 -32 -225t-85 -181.5t-119 -130.5t-135.5 -81.5t-133.5 -26.5q-51 0 -87 18t-53 49t-24 59t-8 59h-5q-22 -33 -43.5 -58t-57 -57t-81.5 -50t-98 -18q-84 0 -130 63.5t-46 170.5 q0 49 9.5 106t28 118.5t49 118.5t69.5 102.5t93.5 72.5t116.5 27q15 0 29 -1.5t24.5 -3.5t21.5 -6.5t18 -7t16.5 -9.5t14 -10t12.5 -11.5t10.5 -10.5t10.5 -11.5t9 -10.5l21 49q0 1 1 2q2 3 2.5 4.5t2.5 3t5.5 2t8.5 0.5h92q13 0 13 -10q0 -3 -2 -11t-2 -12l-99 -458 q-6 -27 -6 -54q0 -102 84 -102q59 0 120 36.5t113.5 102t85.5 168t33 221.5q0 226 -143.5 358t-407.5 132q-170 0 -323 -65t-264 -177.5t-176.5 -272.5t-65.5 -341q0 -290 161 -453.5t478 -163.5q107 0 209 16.5t173.5 40t127 47t89 40t40.5 16.5q9 0 12.5 -2t7.5 -14 l25 -60q4 -10 4 -16q0 -33 -115 -77.5t-286 -76.5t-312 -32q-356 0 -555.5 199t-199.5 530zM821 342q0 -113 74 -113q85 0 180 121q21 27 42.5 87.5t25.5 86.5l35 168l-8 8q-8 7 -14 11.5t-17 13t-22 14t-25 11.5t-29 9t-31 3q-52 0 -94.5 -48t-66.5 -117.5t-37 -137 t-13 -117.5z" />
<glyph unicode="A" horiz-adv-x="1175" d="M-80 12q0 4 6 33l17 61q5 21 24 21h84l649 1257q11 19 33 19h103q17 0 21 -4t7 -23l115 -1249h108q17 0 17 -12q0 -4 -6 -33l-17 -62q-5 -20 -24 -20h-387q-17 0 -17 12q0 4 6 33l17 61q5 21 24 21h119l-24 295h-437l-147 -295h129q16 0 16 -12q0 -4 -6 -33l-16 -62 q-5 -20 -25 -20h-372q-17 0 -17 12zM426 559h356l-34 455q-7 86 -7 194h-4q-34 -97 -82 -194z" />
<glyph unicode="B" horiz-adv-x="1099" d="M-59 12q0 12 6 33l16 61q5 21 25 21h135l244 1149h-138q-16 0 -16 12q0 4 6 33l17 61q5 21 24 21h404q39 0 60 -0.5t60.5 -2.5t63 -6.5t57.5 -13.5t54.5 -21.5t44 -32t36.5 -44.5t22 -60t9 -77q0 -85 -27 -157.5t-71 -121.5t-90.5 -80.5t-94.5 -48.5v-4q25 -6 51.5 -20 t60.5 -42.5t55.5 -81t21.5 -120.5q0 -118 -59 -229.5t-158 -173.5q-49 -31 -114 -46.5t-111 -17.5t-134 -2h-444q-16 0 -16 12zM287 137h180q72 0 122.5 13.5t104.5 56.5q57 47 86 117t29 139q0 182 -236 182h-180zM424 782h129q158 0 229 68q65 62 93 130.5t28 121.5 q0 50 -14.5 84t-41.5 50.5t-56.5 23t-67.5 6.5h-197z" />
<glyph unicode="C" horiz-adv-x="948" d="M104 387q0 136 21.5 276t71 279t120.5 247t179 175.5t237 67.5q69 0 141.5 -24.5t117 -58t44.5 -59.5q0 -6 -2 -14t-2 -10l-47 -211q-6 -21 -24 -21h-95q-16 0 -16 13q0 6 4 22l37 172l-15 7q-16 8 -24.5 12t-27.5 11.5t-34.5 11.5t-36 7.5t-40.5 3.5q-88 0 -164 -66 t-125.5 -168t-85 -228t-51 -244t-15.5 -217q0 -127 55.5 -194.5t153.5 -67.5q86 0 203 77l37 172q3 23 24 23h95q16 0 16 -19q0 -5 -1 -11t-2.5 -13.5t-2.5 -11.5l-39 -183q-7 -35 -20 -43q-73 -52 -171 -90.5t-186 -38.5q-155 0 -242.5 107t-87.5 309z" />
<glyph unicode="D" horiz-adv-x="1175" d="M-43 12q0 4 6 33l17 61q5 21 24 21h135l244 1149h-137q-17 0 -17 12q0 1 0.5 3l1 4t2 9.5t3.5 16.5l16 61q5 21 24 21h379q90 0 142 -3.5t124.5 -24.5t111.5 -60.5t68 -117t29 -189.5q0 -159 -47.5 -355t-134.5 -362q-84 -158 -221 -224.5t-332 -66.5h-422q-16 0 -16 12z M305 137h141q93 0 172 37.5t132 104.5q92 107 152.5 335.5t60.5 395.5q0 70 -16 119t-38.5 75t-62 40.5t-72 18t-82.5 3.5h-149z" />
<glyph unicode="E" d="M-43 12q0 4 6 33l17 61q5 21 24 21h135l244 1149h-137q-17 0 -17 12q0 1 0.5 3l1 4t2 9.5t3.5 16.5l16 61q5 21 24 21h797q21 0 21 -14q0 -4 -2 -10.5t-2 -10.5l-58 -270q-6 -23 -24 -23h-95q-16 0 -16 12q0 2 1 8t1 9l33 162h-389l-101 -469h426q21 0 21 -17 q0 -10 -2 -14l-17 -82q-3 -15 -9.5 -20t-20.5 -5h-426l-111 -522h406l39 195q5 22 26 22h94q17 0 17 -12q0 -10 -2 -14l-64 -303q-3 -14 -9.5 -19.5t-21.5 -5.5h-815q-16 0 -16 12z" />
<glyph unicode="F" horiz-adv-x="909" d="M-66 12q0 1 0.5 3l1 4t2 9.5t3.5 16.5l16 61q5 21 25 21h135l243 1149h-137q-16 0 -16 12q0 4 6 33l16 61q5 21 25 21h782q21 0 21 -14q0 -4 -2 -10.5t-2 -10.5l-58 -270q-6 -23 -24 -23h-94q-17 0 -17 10q0 4 1 10t1 9l33 162h-375l-96 -469h407q21 0 21 -17 q0 -10 -2 -14l-16 -82q-5 -25 -31 -25h-410l-112 -532h161q17 0 17 -14q0 -2 -1 -7.5t-1 -7.5l-17 -78q-5 -20 -24 -20h-465q-17 0 -17 12z" />
<glyph unicode="G" horiz-adv-x="1099" d="M104 387q0 136 21.5 276t71 279t120.5 247t179 175.5t237 67.5q74 0 151 -22t124 -53t47 -57q0 -6 -2 -14t-2 -10l-45 -201q-6 -20 -25 -20h-94q-17 0 -17 10q0 9 4 25l35 151q-2 1 -14 6.5t-21 9.5t-24.5 10t-30 10t-32 8.5t-36.5 6.5t-38 2q-88 0 -164 -66t-125.5 -168 t-85 -228t-51 -244t-15.5 -217q0 -128 57.5 -195t162.5 -67t196 28l88 445h-162q-16 0 -16 12q0 4 6 33l17 61q5 21 24 21h451q16 0 16 -13q0 -12 -6 -32l-16 -62q-5 -20 -25 -20h-129l-100 -482q-7 -33 -23 -43q-63 -39 -155 -62.5t-183 -23.5q-170 0 -270.5 107.5 t-100.5 308.5z" />
<glyph unicode="H" horiz-adv-x="1251" d="M-39 12q0 4 6 33l17 61q5 21 24 21h135l244 1149h-137q-17 0 -17 12q0 1 0.5 3l1 4t2 9.5t3.5 16.5l16 61q5 21 25 21h432q16 0 16 -12q0 -4 -6 -33l-16 -62q-5 -20 -25 -20h-135l-103 -479h478l102 479h-137q-17 0 -17 12q0 1 0.5 3l1 4t2 9.5t3.5 16.5l16 61 q5 21 25 21h432q16 0 16 -12q0 -4 -6 -33l-17 -62q-5 -20 -24 -20h-135l-244 -1149h137q17 0 17 -12q0 -1 -0.5 -3l-1 -4t-2 -9.5t-3.5 -16.5l-16 -62q-5 -20 -24 -20h-433q-16 0 -16 12q0 4 6 33l17 61q5 21 24 21h135l113 532h-477l-113 -532h137q17 0 17 -12q0 -4 -6 -33 l-17 -62q-5 -20 -24 -20h-433q-16 0 -16 12z" />
<glyph unicode="I" horiz-adv-x="720" d="M-39 12q0 4 6 33l17 61q5 21 24 21h187l243 1149h-192q-17 0 -17 12q0 1 0.5 3l1 4t2 9.5t3.5 16.5l16 61q5 21 24 21h541q17 0 17 -12q0 -1 -0.5 -3l-1 -4t-2 -9.5t-3.5 -16.5l-16 -62q-5 -20 -25 -20h-188l-244 -1149h193q16 0 16 -12q0 -4 -6 -33l-16 -62 q-5 -20 -25 -20h-539q-16 0 -16 12z" />
<glyph unicode="J" horiz-adv-x="872" d="M-33 246q0 102 17 137q4 8 6 11t7.5 6t14.5 3h107q14 0 14 -12q0 -4 -5 -36t-5 -64q0 -182 153 -182q43 0 77.5 12.5t58.5 37t40.5 48.5t28 58.5t16.5 54t11 47.5l192 909h-362q-16 0 -16 12q0 4 6 33l16 61q5 21 25 21h495q21 0 21 -17q0 -4 -4 -24l-197 -928 q-12 -54 -20 -86t-26 -87t-37.5 -89.5t-52.5 -76.5t-72 -66t-95 -41t-123 -17q-130 0 -210.5 75.5t-80.5 199.5z" />
<glyph unicode="K" horiz-adv-x="1099" d="M-59 12q0 4 6 33l16 61q5 21 25 21h135l244 1149h-138q-16 0 -16 12q0 4 6 33l17 61q5 21 24 21h432q17 0 17 -12q0 -1 -0.5 -3l-1 -4t-2 -9.5t-3.5 -16.5l-16 -62q-5 -20 -24 -20h-136l-114 -528l4 -5l510 533h-101q-16 0 -16 14q0 2 1 7.5t1 7.5l16 77q5 21 25 21h373 q16 0 16 -12q0 -4 -6 -33l-16 -62q-5 -20 -25 -20h-84l-526 -545l315 -604h100q17 0 17 -14q0 -2 -1 -7.5t-1 -7.5l-17 -78q-5 -20 -24 -20h-408q-16 0 -16 12q0 4 6 33l16 61q5 21 25 21h119l-305 596h-4l-123 -596h137q16 0 16 -12q0 -4 -6 -33l-16 -62q-5 -20 -25 -20 h-432q-16 0 -16 12z" />
<glyph unicode="L" horiz-adv-x="985" d="M-39 12q0 4 6 33l17 61q5 21 24 21h135l244 1149h-137q-17 0 -17 12q0 1 0.5 3l1 4t2 9.5t3.5 16.5l16 61q5 21 25 21h432q16 0 16 -12q0 -4 -6 -33l-16 -62q-5 -20 -25 -20h-135l-242 -1139h393l105 174q2 2 5.5 8.5t6 9.5t6.5 3q7 0 27 -10l67 -39q13 -9 13 -19 q0 -4 -6.5 -14t-8.5 -14l-125 -211q-17 -25 -36 -25h-775q-16 0 -16 12z" />
<glyph unicode="M" horiz-adv-x="1402" d="M-70 12q0 1 0.5 3l1 4t2 9.5t3.5 16.5l16 61q5 21 24 21h132l309 1149h-137q-17 0 -17 12q0 4 6 33l17 61q5 21 24 21h275q10 0 14.5 -1t8.5 -6.5t5 -17.5l82 -708q0 -4 3 -44.5t3 -64.5h5q9 40 47 109l385 714l2 4q5 10 9 12.5t19 2.5h297q17 0 17 -12q0 -4 -6 -33 l-17 -62q-5 -20 -24 -20h-131l-181 -1149h140q16 0 16 -12q0 -4 -6 -33l-17 -62q-5 -20 -24 -20h-426q-16 0 -16 12q0 4 6 33l16 61q5 21 25 21h131l176 954q6 50 22 105l-4 4q-12 -38 -47 -109l-389 -719q-11 -20 -18.5 -27t-20.5 -7h-59q-16 0 -22 4t-7 22l-76 727 q-10 93 -10 117h-4q-3 -55 -18 -117l-228 -954h139q17 0 17 -12q0 -4 -6 -33l-17 -62q-5 -20 -24 -20h-426q-17 0 -17 12z" />
<glyph unicode="N" horiz-adv-x="1214" d="M-39 12q0 4 6 33l17 61q5 21 24 21h133l246 1149h-135q-16 0 -16 12q0 4 6 33l16 61q5 21 25 21h282q10 0 14.5 -1t9 -6.5t5.5 -17.5l223 -979q16 -83 21 -153h4q8 106 22 166l187 864h-138q-16 0 -16 12q0 4 6 33l17 61q5 21 24 21h412q16 0 16 -12q0 -4 -6 -33l-16 -62 q-5 -20 -25 -20h-131l-258 -1200q-1 -5 -3 -12.5t-2.5 -12t-2.5 -11t-3 -10t-3 -8.5t-4 -7.5t-4.5 -6t-5 -5t-6 -2.5t-7.5 -1h-94q-35 0 -41 25l-236 1040q-12 53 -16 145h-4q-2 -44 -21 -153l-198 -930h133q16 0 16 -12q0 -4 -6 -33l-16 -62q-5 -20 -25 -20h-410 q-16 0 -16 12z" />
<glyph unicode="O" horiz-adv-x="1099" d="M106 399q0 116 15 233.5t45 234.5t80 218t115 179t155 123t195 45q192 0 275 -105.5t83 -302.5q0 -154 -21.5 -301t-69 -284.5t-116 -240.5t-170.5 -165t-225 -62q-105 0 -177 31t-111.5 90.5t-56 133t-16.5 173.5zM274 381q0 -140 44 -206t159 -66q90 0 156.5 58 t107.5 155q84 172 122 367t38 331q0 141 -43.5 207.5t-159.5 66.5q-68 0 -127 -39.5t-101.5 -103.5t-77 -148t-56 -171t-36 -175t-20.5 -156.5t-6 -119.5z" />
<glyph unicode="P" d="M-39 12q0 4 6 33l17 61q5 21 24 21h135l244 1149h-139q-17 0 -17 12q0 1 0.5 3l1 4t2 9.5t3.5 16.5l16 61q5 21 25 21h405q67 0 104.5 -2t99.5 -17t95.5 -43.5t60.5 -87t27 -141.5q0 -138 -51.5 -244.5t-134.5 -177.5q-110 -94 -332 -94h-150l-100 -469h158q16 0 16 -12 q0 -4 -6 -33l-16 -62q-5 -20 -25 -20h-453q-16 0 -16 12zM434 733h127q168 0 236 68q57 63 81.5 137t24.5 131q0 61 -13 102t-37 60.5t-49.5 27t-60.5 7.5h-196z" />
<glyph unicode="Q" horiz-adv-x="1099" d="M106 399q0 116 15.5 233.5t46.5 234.5t82.5 218t118.5 179t160 123t202 45q79 0 139 -21t97.5 -57t61 -91t33 -116t9.5 -139q0 -145 -37.5 -329.5t-104.5 -345t-141 -216.5q70 -78 115 -113q10 -8 23.5 -18t21.5 -16t17.5 -13.5t14.5 -12t10 -10t7 -10t2 -8.5 q0 -10 -12 -18l-94 -52q-18 -6 -21 -6q-26 0 -69.5 37.5t-74 73.5t-58.5 74q-108 -54 -226 -54q-80 0 -139.5 21t-97 57t-60.5 91.5t-32 117.5t-9 141zM274 381q0 -140 39.5 -206t143.5 -66q72 0 134.5 39t107 103t80.5 148t58.5 170t38 174t21.5 156t6 119 q0 143 -38.5 209.5t-145.5 66.5q-71 0 -133.5 -39.5t-106.5 -103.5t-80 -148t-59 -171t-38 -175t-21.5 -157t-6.5 -119z" />
<glyph unicode="R" horiz-adv-x="1062" d="M-59 12q0 4 6 33l16 61q5 21 25 21h135l244 1149h-140q-16 0 -16 12q0 4 6 33l16 61q5 21 25 21h406q67 0 104.5 -2t99.5 -17t95.5 -43.5t60.5 -87t27 -141.5q0 -168 -96.5 -299t-260.5 -162l180 -524h127q17 0 17 -14q0 -2 -1 -7.5t-1 -7.5l-12 -78q-5 -20 -29 -20h-199 q-19 0 -27 3.5t-12 16.5l-202 617h-144l-108 -510h157q17 0 17 -12q0 -4 -6 -33l-17 -62q-5 -20 -24 -20h-453q-16 0 -16 12zM422 774h125q167 0 235 68q54 54 77.5 117t23.5 110q0 61 -13 102t-37 60.5t-49.5 27t-60.5 7.5h-197z" />
<glyph unicode="S" horiz-adv-x="909" d="M-10 86q0 9 4 25l55 256q5 22 25 22h94q18 0 18 -12q0 -4 -1 -9t-2.5 -11t-2.5 -9l-39 -186q2 -1 18 -8.5t32.5 -14t40.5 -14t53 -12t59 -4.5q137 0 210 79.5t73 202.5q0 60 -23.5 111t-61.5 88.5t-84 73.5t-92 73t-84 78.5t-61.5 99t-23.5 125.5q0 178 124 285t314 107 q117 0 218 -37.5t101 -69.5q0 -4 -2 -12.5t-2 -12.5l-51 -235q-5 -23 -25 -23h-94q-18 0 -18 13q0 8 4 28l35 158q-2 1 -16 8.5t-29 14t-36.5 14t-48 12t-53.5 4.5q-114 0 -183.5 -68t-69.5 -182q0 -49 29 -95t65 -75t98.5 -77.5t99.5 -83.5q67 -67 102.5 -135t35.5 -170 q0 -196 -128.5 -316.5t-338.5 -120.5q-82 0 -163 21t-128 47.5t-47 46.5z" />
<glyph unicode="T" horiz-adv-x="909" d="M106 12q0 1 0.5 3l1 4t2 9.5t3.5 16.5l16 61q5 21 25 21h135l243 1139h-200l-45 -217q-6 -21 -27 -21h-94q-16 0 -16 12q0 4 6 33l63 307q5 23 31 23h788q17 0 17 -12q0 -4 -6 -33l-66 -309q-6 -21 -27 -21h-94q-16 0 -16 14q0 9 4 21l43 203h-201l-243 -1139h153 q16 0 16 -12q0 -4 -6 -33l-16 -62q-5 -20 -25 -20h-448q-17 0 -17 12z" />
<glyph unicode="U" horiz-adv-x="1214" d="M147 258q0 66 15 127l188 891h-129q-16 0 -16 12q0 4 6 33l16 61q5 21 25 21h424q16 0 16 -12q0 -4 -6 -33l-16 -62q-5 -20 -25 -20h-135l-186 -891q-17 -79 -17 -115q0 -161 213 -161q273 0 330 276l186 891h-129q-16 0 -16 12q0 4 6 33l16 61q5 21 25 21h424 q16 0 16 -12q0 -4 -6 -33l-16 -62q-5 -20 -25 -20h-135l-190 -891q-15 -72 -37.5 -129.5t-62 -112t-93.5 -91.5t-134 -59t-181 -22q-175 0 -263 68.5t-88 218.5z" />
<glyph unicode="V" horiz-adv-x="1062" d="M147 1288q0 1 0.5 3l1 4t2 9.5t3.5 16.5l16 61q5 21 25 21h387q16 0 16 -12q0 -4 -6 -33l-17 -62q-5 -20 -24 -20h-127l29 -965q0 -108 -2 -151l4 -4q24 83 59 155l444 965h-129q-16 0 -16 12q0 4 6 33l17 61q5 21 24 21h373q16 0 16 -12q0 -4 -6 -33l-16 -62 q-5 -20 -25 -20h-80l-606 -1256q-12 -20 -39 -20h-121q-16 0 -23 5t-7 22l-70 1249h-92q-17 0 -17 12z" />
<glyph unicode="W" horiz-adv-x="1517" d="M170 1288q0 4 6 33l17 61q5 21 24 21h387q17 0 17 -12q0 -1 -0.5 -3l-1 -4t-2 -9.5t-3.5 -16.5l-16 -62q-5 -20 -25 -20h-127l-43 -911q-4 -93 -22 -222l4 -4q33 141 70 226l419 1017q7 21 31 21h92q29 0 29 -23l-45 -1026q-6 -116 -18 -196l4 -4q26 120 59 200l363 922 h-129q-17 0 -17 12q0 4 6 33l17 61q5 21 24 21h373q16 0 16 -12q0 -4 -6 -33l-16 -62q-5 -20 -25 -20h-92l-528 -1256q-10 -20 -35 -20h-117q-32 0 -29 23l58 1085l-4 4l-432 -1073q-11 -25 -17.5 -32t-21.5 -7h-123q-18 0 -23.5 5.5t-3.5 23.5l29 1247h-107q-16 0 -16 12z " />
<glyph unicode="X" d="M-137 12q0 4 6 33l16 61q5 21 25 21h98l455 606l-180 543h-119q-17 0 -17 12q0 1 0.5 3l1 4t2 9.5t3.5 16.5l16 61q5 21 25 21h401q16 0 16 -12q0 -4 -6 -33l-16 -62q-5 -20 -25 -20h-112l98 -299q29 -91 33 -107q29 64 69 115l221 291h-122q-17 0 -17 12q0 4 6 33l17 61 q5 21 24 21h394q16 0 16 -12q0 -4 -6 -33l-17 -62q-5 -20 -24 -20h-88l-420 -543l209 -606h117q16 0 16 -12q0 -4 -6 -33l-17 -62q-5 -20 -24 -20h-412q-16 0 -16 12q0 4 6 33l16 61q5 21 25 21h119l-113 346q-29 91 -33 107q-25 -36 -69 -97l-267 -356h138q16 0 16 -12 q0 -4 -6 -33l-17 -62q-5 -20 -24 -20h-416q-16 0 -16 12z" />
<glyph unicode="Y" horiz-adv-x="985" d="M131 1288q0 4 6 33l17 61q5 21 24 21h363q16 0 16 -12q0 -4 -6 -33l-16 -62q-5 -20 -25 -20h-113l113 -432q15 -56 18 -127h4q28 55 70 121l279 438h-123q-17 0 -17 12q0 1 0.5 3l1 4t2 9.5t3.5 16.5l16 61q5 21 24 21h383q17 0 17 -12q0 -4 -6 -33l-17 -62 q-5 -20 -24 -20h-78l-475 -682l-99 -467h144q16 0 16 -14q0 -2 -1 -7.5t-1 -7.5l-16 -78q-5 -20 -25 -20h-450q-17 0 -17 14q0 2 1 7.5t1 7.5l17 77q5 21 24 21h148l96 467l-186 682h-93q-16 0 -16 12z" />
<glyph unicode="Z" horiz-adv-x="948" d="M-31 16q0 3 2 10t2 11l23 108l846 1121h-439l-34 -172q-5 -21 -25 -21h-94q-19 0 -19 14q0 3 5 23l57 272q4 21 33 21h710q21 0 21 -17q0 -7 -2.5 -18t-3.5 -14l-17 -76l-862 -1141h516l113 185q4 12 16 12q8 0 17 -6l67 -49q14 -11 14 -19q0 -6 -4 -14l-141 -221 q-16 -25 -39 -25h-741q-21 0 -21 16z" />
<glyph unicode="[" horiz-adv-x="872" d="M127 -397q0 7 12 67l377 1770q4 28 31 28h358q17 0 17 -14q0 -2 -1 -7t-1 -7l-17 -78q-5 -21 -24 -21h-230l-346 -1628h246q16 0 16 -14q0 -2 -1 -7t-1 -7l-16 -78q-5 -21 -25 -21h-348q-47 0 -47 17z" />
<glyph unicode="\" horiz-adv-x="985" d="M365 1446q0 22 28 22h80q22 0 27 -22l217 -1811q0 -5 1 -13.5t1 -12.5q0 -23 -29 -23h-80q-23 0 -26 23l-217 1810q-2 10 -2 27z" />
<glyph unicode="]" horiz-adv-x="872" d="M-51 -399q0 2 1 7t1 7l16 78q5 20 25 20h229l346 1628h-245q-17 0 -17 15q0 2 1 7t1 7l17 78q5 20 24 20h348q47 0 47 -16q0 -8 -12 -68l-377 -1769q-5 -29 -30 -29h-359q-16 0 -16 15z" />
<glyph unicode="^" d="M170 707q4 16 10 26l293 653q4 7 6 9t8.5 5t18.5 3h100q12 0 18.5 -3t8.5 -5t6 -9l293 -653q6 -10 10 -26q0 -10 -20 -17l-91 -26q-15 -5 -18 -5q-13 0 -20 15l-238 528l-236 -528q-7 -15 -20 -15q-3 0 -18 5l-91 26q-20 3 -20 17z" />
<glyph unicode="_" d="M0 -154h1024v-102h-1024v102z" />
<glyph unicode="`" horiz-adv-x="681" d="M270 1309q0 5 9 14l100 104q10 15 22 15q9 0 17 -8l211 -226l3 -3q3 -3 3 -7q0 -8 -8 -16l-45 -45q-11 -11 -21 -11q-7 0 -14 7l-268 163q-9 4 -9 13z" />
<glyph unicode="a" d="M72 272q0 69 13 147.5t37.5 162.5t65.5 160t92.5 137t122 97t150.5 36q24 0 46 -3.5t37.5 -7t33 -13.5t26 -14.5t23 -18.5t18 -17.5t17 -19.5t14.5 -17l29 64q6 18 18 18h90q6 0 11.5 -4t5.5 -8q0 -3 -4 -23l-138 -635q-14 -77 -14 -137q0 -10 1 -27.5t1 -29.5h135 q19 0 19 -13q0 -2 -1 -7t-1 -7l-17 -72q-3 -11 -8 -15.5t-16 -4.5h-156q-51 0 -78 47q-14 23 -18 48.5t-2 56.5t2 38q-20 -31 -38 -54.5t-50 -56.5t-64 -54.5t-77.5 -37.5t-94.5 -16q-111 0 -171 82t-60 219zM227 281q0 -172 125 -172q62 0 118.5 39t96.5 100.5t67.5 128 t41.5 131.5l59 278q-88 88 -184 88q-64 0 -119.5 -44.5t-92 -112.5t-63 -150t-38 -155.5t-11.5 -130.5z" />
<glyph unicode="b" horiz-adv-x="985" d="M63 104q0 7 5 17l262 1229h-144q-16 0 -16 12q0 4 6 33l10 49q3 14 8.5 19t18.5 5h270q15 -3 15 -14q0 -5 -11 -49l-96 -453q0 -1 -29 -96l5 -4q116 160 303 160q237 0 237 -277q0 -246 -145 -530q-59 -114 -141 -174t-209 -60q-88 0 -177.5 33.5t-156.5 77.5 q-15 9 -15 22zM223 158q120 -54 201 -54q67 0 124.5 52t93.5 129t62 166.5t37 161.5t11 118q0 71 -38 107t-102 36q-57 0 -110 -28.5t-91 -74t-64 -97t-36 -101.5z" />
<glyph unicode="c" horiz-adv-x="796" d="M66 313q0 130 35 253t99.5 223.5t167 161.5t226.5 61q24 0 60.5 -5.5t76.5 -15.5t68 -29t28 -42q0 -5 -4 -25l-41 -195q-3 -22 -26 -22h-90q-19 0 -19 14q0 7 4 23l31 139q-50 20 -104 20q-71 0 -132 -36t-101.5 -93.5t-69 -132t-41.5 -150t-13 -147.5q0 -94 45.5 -147 t139.5 -53q46 0 89 13t68 29t46.5 29t29.5 13q13 0 16 -9l33 -71q4 -12 4 -17q0 -16 -46.5 -46.5t-129 -57.5t-162.5 -27q-146 0 -217 89t-71 253z" />
<glyph unicode="d" d="M68 274q0 107 18 211t57 200t94.5 168.5t136.5 115.5t177 43q55 0 104 -13.5t66.5 -23t54.5 -31.5l84 406h-145q-17 0 -17 12q0 2 1.5 6.5t3 12t2.5 14.5l10 49q3 14 8 19t18 5h254q22 0 27.5 -2.5t5.5 -13.5q0 -7 -4 -24.5t-6 -26.5l-230 -1088q-14 -77 -14 -137 q0 -10 1 -27.5t1 -29.5h135q19 0 19 -13q0 -2 -1 -7t-1 -7l-17 -72q-3 -11 -8 -15.5t-16 -4.5h-156q-59 0 -86 68q-5 12 -7.5 27.5t-3 23.5t0 32t0.5 29h-4q-28 -40 -55.5 -70.5t-69 -65t-95 -54t-112.5 -19.5q-112 0 -171.5 76.5t-59.5 226.5zM223 283q0 -174 113 -174 q87 0 158.5 52t116.5 135t67 189l70 328q-34 20 -54 30.5t-57.5 20.5t-79.5 10q-73 0 -132.5 -41t-96 -104t-61 -144.5t-34.5 -156.5t-10 -145z" />
<glyph unicode="e" horiz-adv-x="909" d="M68 346q0 174 65 326t185 246t268 94q132 0 201 -71.5t69 -190.5q0 -57 -16 -105t-41.5 -82t-65 -62t-78 -45t-90 -30t-91.5 -19.5t-92.5 -10t-82 -4.5t-70.5 -1h-6q0 -9 -1 -26t-1 -25q0 -225 193 -225q62 0 118 15.5t86.5 33.5t55.5 33.5t33 15.5q10 0 18 -12l49 -74 q4 -8 4 -10q0 -8 -20 -25t-57 -37.5t-82.5 -39.5t-104.5 -31.5t-115 -12.5q-168 0 -249.5 99t-81.5 276zM242 518q469 0 469 225q0 66 -38 104t-110 38q-237 0 -321 -367z" />
<glyph unicode="f" horiz-adv-x="645" d="M-270 -379q0 10 2 14l28 84q4 13 15 13q2 0 22 -5t49.5 -9.5t55.5 -4.5q48 0 85.5 18.5t58.5 42.5t37.5 61.5t22 60.5t11.5 55l176 913h-143q-17 0 -17 13q0 3 6 32l11 49q3 14 8 19.5t18 5.5h143l41 197q7 35 11.5 54t17 55.5t26.5 59t39 51t56.5 44.5t77.5 27.5 t102 11.5q74 0 146.5 -22t72.5 -42q0 -1 -1 -3t-1 -3l-37 -88q-5 -10 -14 -10q-6 0 -33 12.5t-68 24.5t-81 12q-47 0 -79.5 -16t-50.5 -52t-23.5 -56.5t-13.5 -63.5l-3 -15l-37 -178h289q16 0 16 -12q0 -4 -10 -33l-19 -49q-7 -15 -11.5 -20t-14.5 -5h-277l-174 -921 q-7 -35 -12.5 -59t-19.5 -65t-31 -69.5t-46.5 -62.5t-65.5 -55t-89.5 -35.5t-116.5 -14.5q-57 0 -106 11t-49 28z" />
<glyph unicode="g" horiz-adv-x="985" d="M-35 -332q0 3 3.5 14t4.5 13l35 88q4 12 17 12q11 0 55 -22t110 -44t132 -22q61 0 107 25.5t71.5 62.5t45 95t27.5 106t19 113t20 100l-4 4q-24 -38 -47 -67.5t-61 -66.5t-87 -58t-104 -21q-111 0 -171 82t-60 219q0 57 7.5 120.5t25.5 133t43.5 134.5t64.5 124t86.5 103 t111 70t136.5 26q114 0 240 -97q16 32 42 61.5t46 29.5q7 0 18 -7l57 -53q9 -9 9 -14q0 -6 -6 -13.5t-15.5 -18t-15.5 -19.5q-16 -22 -28.5 -44.5t-19.5 -36.5t-13.5 -37t-8 -29.5t-6 -31.5t-4.5 -26l-62 -295q-15 -84 -50 -270t-48 -258q-13 -73 -51 -129t-92 -89t-115 -49 t-127 -16q-70 0 -153 21t-134 44t-51 33zM233 309q0 -79 26 -125.5t79 -46.5q51 0 99 24t83.5 62t66 88t49.5 99.5t30 97.5l61 291q-84 75 -195 75q-39 0 -65.5 -7.5t-37.5 -15.5t-30 -26q-62 -57 -114 -228t-52 -288z" />
<glyph unicode="h" horiz-adv-x="1062" d="M59 12q0 1 0.5 3l1 4t2 9.5t3.5 16.5l278 1305h-143q-17 0 -17 12q0 4 6 33l11 49q3 14 8 19t18 5h271q14 -3 14 -14q0 -9 -10 -49l-96 -453q-13 -72 -48 -153l4 -4q156 217 371 217q83 0 135 -42.5t52 -121.5q0 -22 -3 -44.5t-9.5 -55t-8.5 -43.5l-121 -586h135 q19 0 19 -13q0 -2 -1 -7t-1 -7l-17 -72q-3 -11 -8 -15.5t-16 -4.5h-156q-43 0 -72.5 24.5t-29.5 67.5q0 19 4 47l117 566q12 54 12 81q0 88 -92 88q-63 0 -120.5 -29.5t-97.5 -74.5t-73 -102t-51.5 -107t-28.5 -94l-94 -447q-6 -20 -25 -20h-106q-17 0 -17 12z" />
<glyph unicode="i" horiz-adv-x="569" d="M92 877q0 3 6 32l11 49q3 14 8 19.5t18 5.5h273q22 0 27 -2.5t5 -13.5q0 -5 -1.5 -12.5t-4 -19t-4.5 -20.5l-168 -796h135q19 0 19 -13q0 -2 -1 -7t-1 -7l-17 -72q-3 -11 -8 -15.5t-16 -4.5h-156q-43 0 -72.5 24.5t-29.5 67.5q0 33 4 47l153 725h-163q-17 0 -17 13z M328 1354q0 46 33.5 80t80.5 34q46 0 80.5 -34t34.5 -80q0 -47 -34.5 -81t-80.5 -34q-47 0 -80.5 34t-33.5 81z" />
<glyph unicode="j" horiz-adv-x="569" d="M-309 -354q0 8 6 20l37 80q6 14 20 14q8 0 33 -13t64 -26.5t83 -13.5q40 0 72 21.5t51.5 52.5t34.5 72.5t22.5 75t13.5 65.5q2 13 3 18l182 852h-163q-17 0 -17 13q0 3 6 32l11 49q3 14 8 19.5t18 5.5h273q22 0 27 -2.5t5 -13.5q0 -5 -1.5 -12.5t-4 -19t-4.5 -20.5 l-201 -940q-25 -117 -37 -152q-84 -253 -325 -253q-64 0 -140.5 29.5t-76.5 46.5zM369 1354q0 46 33.5 80t80.5 34q46 0 80.5 -34t34.5 -80q0 -47 -34.5 -81t-80.5 -34q-47 0 -80.5 34t-33.5 81z" />
<glyph unicode="k" horiz-adv-x="948" d="M63 12q0 1 0.5 3l1 4t2 9.5t3.5 16.5l278 1305h-143q-17 0 -17 12q0 1 0.5 3l1 4t2 9.5t3.5 16.5l10 49q3 14 8 19t18 5h271q14 -3 14 -14q0 -5 -4.5 -23.5t-5.5 -25.5l-184 -856l4 -4l354 319h-111q-16 0 -16 13q0 3 6 32l10 49q3 14 8.5 19.5t18.5 5.5h365q16 0 16 -12 q0 -4 -6 -33l-10 -49q-3 -14 -8.5 -19.5t-18.5 -5.5h-64l-399 -342l283 -403h112q17 0 17 -13q0 -3 -6 -32l-11 -49q-3 -14 -8 -19.5t-18 -5.5h-162q-23 0 -31 14l-334 496l-102 -490q-6 -20 -25 -20h-106q-17 0 -17 12z" />
<glyph unicode="l" horiz-adv-x="530" d="M98 127q0 23 3 51.5t8 59t9 53t10 50t7 32.5l209 977h-160q-16 0 -16 12q0 4 6 33l10 49q3 14 8.5 19t18.5 5h287q14 -3 14 -14q0 -5 -4.5 -23.5t-5.5 -25.5l-219 -1032q-33 -146 -33 -207q0 -37 15.5 -52.5t47.5 -15.5q31 0 66.5 17.5t38.5 17.5q11 0 14 -14l10 -58 q0 -3 2 -11t2 -11q0 -23 -60 -45.5t-122 -22.5q-75 0 -120.5 40.5t-45.5 115.5z" />
<glyph unicode="m" horiz-adv-x="1554" d="M100 12q0 4 6 33l142 670q14 77 14 100q0 8 -1 24.5t-1 24.5h-141q-17 0 -17 13q0 1 0.5 2.5t1 4t2 9t3.5 16.5l10 49q3 14 8 19.5t18 5.5h211q45 0 45 -135q0 -35 -2 -49l4 -4q29 45 58.5 79.5t69.5 68t91 51.5t109 18q76 0 124 -49t48 -138h4q128 187 324 187 q83 0 134.5 -42.5t51.5 -121.5q0 -17 -2 -37t-4.5 -34.5t-7 -37.5t-6.5 -34l-123 -586h135q18 0 18 -13q0 -2 -1 -7t-1 -7l-16 -72q-6 -20 -25 -20h-155q-43 0 -73 24.5t-30 67.5q0 19 4 47l119 566q13 59 13 81q0 88 -93 88q-73 0 -131 -37t-96.5 -104.5t-62.5 -138.5 t-43 -162l-88 -412q-6 -20 -25 -20h-107q-16 0 -16 12q0 4 6 33l144 660q12 54 12 81q0 88 -92 88q-69 0 -129 -43.5t-99.5 -110.5t-64 -131.5t-35.5 -121.5l-94 -447q-6 -20 -25 -20h-106q-17 0 -17 12z" />
<glyph unicode="n" horiz-adv-x="1099" d="M100 12q0 4 6 33l142 670q14 77 14 100q0 8 -1 24.5t-1 24.5h-141q-17 0 -17 13q0 1 0.5 2.5t1 4t2 9t3.5 16.5l10 49q3 14 8 19.5t18 5.5h211q45 0 45 -135q0 -35 -2 -49l4 -4q156 217 371 217q83 0 135 -42.5t52 -121.5q0 -44 -21 -143l-123 -586h135q19 0 19 -13 q0 -2 -1 -7t-1 -7l-17 -72q-3 -11 -8 -15.5t-16 -4.5h-156q-44 0 -73 24.5t-29 67.5q0 19 4 47l119 566q12 54 12 81q0 88 -92 88q-63 0 -120.5 -29.5t-97.5 -74.5t-73 -102t-51.5 -107t-28.5 -94l-94 -447q-6 -20 -25 -20h-106q-17 0 -17 12z" />
<glyph unicode="o" horiz-adv-x="985" d="M68 313q0 103 20.5 202t63 189t103.5 158.5t148 109t189 40.5q149 0 231 -87t82 -259q0 -99 -21 -197.5t-65 -188t-105.5 -158.5t-148.5 -110t-188 -41q-309 0 -309 342zM223 317q0 -208 178 -208q70 0 129.5 36.5t99 94.5t67.5 132.5t40.5 148.5t12.5 143 q0 107 -49 158.5t-132 51.5q-88 0 -157.5 -52.5t-109 -137.5t-59.5 -179t-20 -188z" />
<glyph unicode="p" d="M-119 -401q0 3 6 32l11 50q3 14 8 19t18 5h113l199 965q16 58 16 114q0 45 -4 80h-146q-16 0 -16 13q0 3 6 32l10 49q3 14 8.5 19.5t18.5 5.5h164q72 0 82 -12q7 -9 12 -30t9 -49t7 -38q29 30 55.5 52.5t67.5 49t92 41.5t107 15q112 0 171.5 -76.5t59.5 -226.5 q0 -107 -18 -211t-57 -200t-94.5 -168.5t-136.5 -115.5t-177 -43q-55 0 -104 13.5t-66.5 23t-54.5 31.5l-62 -334h136q18 0 18 -12q0 -9 -4 -25l-14 -61q-3 -21 -25 -21h-399q-17 0 -17 13zM276 170q34 -20 54 -30.5t57.5 -20.5t79.5 -10q73 0 132.5 41t96 104t61 144.5 t34.5 156.5t10 145q0 174 -113 174q-129 0 -219 -106.5t-123 -269.5z" />
<glyph unicode="q" horiz-adv-x="985" d="M72 276q0 101 17.5 202.5t56.5 198t94.5 171t137.5 119.5t179 45q23 0 43.5 -2t39 -7t33 -9t30 -12.5t25 -13.5t23 -15t18 -14t16.5 -14.5t14 -11.5q66 99 84 99q6 0 12 -6l66 -43q8 -8 8 -13q0 -8 -8 -18.5t-24.5 -34.5t-31.5 -55q-30 -63 -47 -152l-211 -985h125 q19 0 19 -12q0 -5 -5 -25l-14 -61q-3 -21 -24 -21h-400q-16 0 -16 13q0 3 6 32l10 50q3 14 8.5 19t18.5 5h123l96 440l-4 5q-31 -38 -52 -60t-60.5 -54.5t-86 -48.5t-100.5 -16q-105 0 -162 80.5t-57 224.5zM227 299q0 -190 117 -190q69 0 126 34t94.5 90t61.5 114t38 120 l71 342q-94 65 -192 65q-64 0 -118 -38t-90 -99t-61 -138t-36 -153t-11 -147z" />
<glyph unicode="r" horiz-adv-x="720" d="M102 877q0 1 0.5 2.5t1 4t2 9t3.5 16.5l10 49q3 14 8 19.5t18 5.5h211q45 0 45 -125q0 -35 -2 -49l4 -4q39 83 117 145t160 62q26 0 50 -8.5t24 -18.5q0 -3 -2.5 -10t-3.5 -10l-41 -95q-8 -14 -15 -14q-3 0 -19.5 6t-41.5 6q-50 0 -101.5 -45.5t-85.5 -95.5 q-29 -40 -49 -88t-29 -82t-20 -90l-94 -447q-6 -20 -25 -20h-106q-17 0 -17 12q0 1 0.5 3l1 4t2 9.5t3.5 16.5l141 670q10 55 10 100q0 8 -1 24.5t-1 24.5h-141q-17 0 -17 13z" />
<glyph unicode="s" horiz-adv-x="796" d="M2 68q0 11 8 43l39 188q6 20 27 20h90q18 0 18 -12q0 -6 -4 -22l-28 -142q23 -12 70 -23t100 -11q73 0 125.5 45.5t52.5 119.5q0 40 -17.5 73t-46 57t-62.5 46t-68 46.5t-62.5 52.5t-46 69.5t-17.5 92.5q0 139 98.5 220t241.5 81q87 0 160.5 -27.5t73.5 -54.5 q0 -3 -6 -33l-37 -176q-6 -21 -27 -21h-90q-19 0 -19 13q0 2 5 22l26 125q-58 14 -98 14q-78 0 -125 -39.5t-47 -105.5q0 -39 24.5 -72.5t55.5 -54.5t77 -51.5t72 -54.5q90 -81 90 -193q0 -153 -100 -242.5t-260 -89.5q-67 0 -138.5 19t-113 42t-41.5 36z" />
<glyph unicode="t" horiz-adv-x="681" d="M96 877q0 3 6 32l11 49q3 14 8 19.5t18 5.5h150l59 283q3 11 7 15t14 7l108 31q2 0 7.5 1t7.5 1q12 0 12 -12q0 -7 -4 -23l-66 -303h279q16 0 16 -12q0 -3 -8 -23l-33 -67q-5 -11 -9.5 -14t-16.5 -3h-252l-121 -567q-10 -52 -10 -102q0 -56 22 -76.5t74 -20.5q43 0 84 15 t68.5 30t37.5 15q12 0 15 -15l10 -57q0 -3 2 -11.5t2 -11.5q0 -31 -95 -61.5t-194 -30.5q-84 0 -133 53t-49 152q0 22 18 121l121 567h-149q-17 0 -17 13z" />
<glyph unicode="u" horiz-adv-x="1099" d="M100 877q0 3 6 32l11 49q3 14 8 19.5t18 5.5h277q14 -3 14 -14q0 -5 -4.5 -23t-5.5 -26l-117 -572q-22 -81 -22 -125q0 -114 104 -114q68 0 138 40.5t102 81.5q11 14 20.5 29.5t17 27.5t15 30t12 27t11 30t8.5 27t7.5 30t6.5 27t6.5 29.5t5.5 27.5l95 432q3 10 7.5 14 t16.5 7l98 22q3 0 12 3t13 3q8 0 8 -8q0 -2 -4 -22l-151 -699q-15 -82 -15 -100q0 -8 1 -24.5t1 -24.5h142q16 0 16 -13q0 -3 -6 -32l-10 -49q-3 -14 -8.5 -19.5t-18.5 -5.5h-117q-68 0 -93 20t-32 60q-4 21 -4 84h-4q-32 -40 -63.5 -70.5t-75.5 -60.5t-99.5 -46t-119.5 -16 q-79 0 -139 56.5t-60 158.5q0 16 3 36t8 44.5t7 38.5l119 559h-149q-17 0 -17 13z" />
<glyph unicode="v" horiz-adv-x="909" d="M43 877q0 3 6 32l10 49q3 14 8.5 19.5t18.5 5.5h213q10 0 16 -6t9 -25l59 -608q8 -124 8 -135h4q24 52 84 162l322 614q4 12 14 12q3 0 8 -2t8 -2l101 -24q12 -3 12 -13q0 -9 -6 -18l-541 -936q-5 -7 -7 -9.5t-6.5 -4.5t-12.5 -2h-64q-14 0 -18 4.5t-6 17.5l-109 856 h-115q-16 0 -16 13z" />
<glyph unicode="w" horiz-adv-x="1290" d="M59 877q0 1 0.5 2.5t1 4t2 9t3.5 16.5l10 49q3 14 8 19.5t18 5.5h213q25 0 25 -31l-10 -739l4 -4q4 14 13 34.5t21.5 46t18.5 38.5l309 626q12 29 33 29h86q3 0 4.5 -1t2.5 -3t1.5 -4t1 -6.5t0.5 -7.5l13 -779h4q75 192 78 199l256 604q4 12 14 12q3 0 8 -2t8 -2l101 -24 q12 -3 12 -13q0 -9 -6 -18l-451 -922q-9 -17 -17.5 -23.5t-23.5 -6.5h-63q-15 0 -20 5t-5 17l-22 733h-4q-14 -30 -28 -61t-22.5 -50t-13.5 -30l-307 -598q-4 -5 -5.5 -7.5t-5 -5t-7 -3t-9.5 -0.5h-63q-15 0 -20 5t-5 17l-31 856h-114q-17 0 -17 13z" />
<glyph unicode="x" horiz-adv-x="872" d="M-57 45q0 6 10 16l407 449l-161 354h-115q-16 0 -16 13q0 3 6 32l10 49q3 14 8.5 19.5t18.5 5.5h182q12 0 20 -14l121 -283q2 -7 13 -30t14 -33q22 37 45 63l250 303q5 10 14 10q2 0 14 -4l107 -43q8 -4 8 -12q0 -2 -1 -4t-2 -3.5t-2.5 -3.5t-2.5 -3l-381 -416l178 -391 h113q16 0 16 -13q0 -3 -6 -32l-10 -49q-3 -14 -8.5 -19.5t-18.5 -5.5h-182q-19 0 -27 18l-135 310q-10 20 -20 55q-4 -6 -18.5 -23.5t-18.5 -23.5l-277 -334q-14 -16 -22 -16q-2 0 -27 10l-92 37q-12 6 -12 12z" />
<glyph unicode="y" horiz-adv-x="948" d="M-131 -344q0 5 10 20l47 78q7 10 17 10q8 0 30.5 -14t57.5 -28.5t73 -14.5q124 0 213 164l70 129h-74q-12 0 -17.5 4t-6.5 16l-123 844h-117q-18 0 -18 15q0 2 1 6t1 6l14 70q5 22 27 22h217q10 0 14 -3.5t6 -14.5l115 -885h4l393 905q3 12 13 12q4 0 16 -4l96 -39 q10 -5 10 -12q0 -3 -2 -8.5t-2 -7.5l-360 -805q-5 -12 -29 -67.5t-38 -86t-44.5 -88.5t-55.5 -93.5t-65 -81t-78.5 -71.5t-89 -44.5t-104.5 -18.5q-76 0 -148.5 31.5t-72.5 54.5z" />
<glyph unicode="z" horiz-adv-x="833" d="M-29 12q0 3 4 23l17 71l659 750h-327l-29 -131q-3 -23 -25 -23h-86q-18 0 -18 15q0 10 4 22l47 224q3 20 25 20h596q6 0 11 -4t5 -8q0 -3 -4 -23l-16 -71l-646 -750h365l80 127q12 20 22 20q12 0 23 -8l57 -37q13 -9 13 -16q0 -5 -13 -27l-102 -163q-6 -9 -8.5 -12 t-11 -7t-21.5 -4h-604q-6 0 -11.5 4t-5.5 8z" />
<glyph unicode="{" horiz-adv-x="948" d="M164 498q0 4 4 20l14 64q3 16 7.5 20t21.5 4h45q55 0 95 14.5t63.5 42.5t36 57t22.5 71l78 364q16 76 40.5 128.5t70 96.5t120 66t179.5 22h36q21 0 21 -16q0 -4 -2 -11.5t-2 -10.5l-13 -64q-3 -15 -9 -20t-21 -5h-58q-55 0 -94 -14.5t-61.5 -42.5t-34.5 -57.5t-21 -71.5 l-77 -364q-22 -101 -68.5 -158.5t-132.5 -91.5q53 -33 71 -56q35 -41 35 -106q0 -13 -2 -26.5t-5.5 -30t-4.5 -25.5l-86 -408q-8 -31 -8 -71q0 -35 12.5 -57.5t36.5 -32t44.5 -12.5t49.5 -3h58q20 0 20 -18q0 -7 -4 -27l-12 -57q-7 -25 -31 -25h-39q-44 0 -80 4t-77 17 t-69 35t-46.5 61t-18.5 92q0 44 13 94l86 408q8 27 8 65q0 117 -146 117h-45q-20 0 -20 19z" />
<glyph unicode="|" horiz-adv-x="802" d="M369 -483v1990q0 16 5 22.5t21 6.5h94q17 0 22 -6.5t5 -22.5v-1990q0 -19 -4.5 -24t-22.5 -5h-94q-18 0 -22 5t-4 24z" />
<glyph unicode="}" horiz-adv-x="948" d="M-72 -397q0 4 2 11.5t2 10.5l13 64q3 15 9 19.5t21 4.5h58q55 0 94 14.5t61.5 43t34.5 58t21 71.5l78 364q22 101 68 158.5t132 91.5q-53 33 -71 56q-35 41 -35 106q0 28 12 82l86 407q8 31 8 72q0 28 -9.5 48.5t-22.5 31t-34 16t-37.5 7t-39.5 1.5h-57q-21 0 -21 19 q0 6 4 26l12 58q4 15 10.5 19.5t20.5 4.5h39q44 0 80 -3.5t77 -16.5t69 -35t46.5 -61t18.5 -92q0 -33 -12 -95l-86 -407q-9 -30 -9 -66q0 -117 146 -117h45q20 0 20 -18q0 -4 -4 -20l-14 -64q-3 -16 -7.5 -20t-21.5 -4h-45q-55 0 -95 -14.5t-63.5 -42.5t-36 -57t-22.5 -71 l-78 -364q-13 -60 -30 -104.5t-47.5 -86t-73.5 -67t-108 -41t-150 -15.5h-37q-21 0 -21 17z" />
<glyph unicode="~" d="M-8 375q0 34 7 73.5t25.5 87.5t47 86t76.5 63.5t108 25.5q91 0 242 -88l116 -70q40 -23 97.5 -43.5t85.5 -20.5q37 0 65.5 14.5t43.5 33t25 47.5t13 46.5t6 41.5h94q0 -56 -15.5 -112t-45.5 -107t-83 -83t-120 -32q-103 0 -241 86l-117 70q-46 26 -98 45.5t-84 19.5 q-46 0 -78 -20t-47 -53t-21 -58t-8 -53h-94z" />
<glyph unicode="&#xa1;" horiz-adv-x="681" d="M41 -434q0 4 4 24l215 799q5 16 9 19.5t22 3.5h61q23 0 23 -15q0 -10 -2 -16l-127 -805q-3 -16 -8.5 -20.5t-20.5 -4.5h-156q-20 0 -20 15zM272 846q0 57 41 97t97 40q57 0 97 -40t40 -97t-40 -97t-97 -40q-56 0 -97 40t-41 97z" />
<glyph unicode="&#xa2;" d="M205 520q0 181 64 340t175 254.5t240 95.5l27 133q6 25 30 25h50q20 0 20 -14q0 -3 -1 -9t-1 -8l-27 -127q57 0 126 -29t69 -51q0 -4 -4 -12l-51 -88q-8 -8 -17 -8q-6 0 -26 11t-54 25.5t-71 20.5l-162 -762q52 13 92 35t59.5 36.5t28.5 14.5t14 -10l33 -71q4 -8 4 -17 q0 -27 -88.5 -71t-171.5 -56l-35 -153q-3 -15 -9 -20t-21 -5h-47q-21 0 -21 16q0 11 2 15l33 147q-56 7 -98.5 24.5t-81 54t-59.5 103t-21 160.5zM360 516q0 -97 35 -140.5t99 -60.5l161 760q-84 -14 -152.5 -98t-105.5 -206.5t-37 -254.5z" />
<glyph unicode="&#xa3;" d="M43 18q0 9 4 25l14 68q3 16 9.5 21t21.5 5h176q0 1 12.5 29.5t17 40.5t17 45.5t18.5 56t15.5 61t14 71.5t8.5 75t4 84q0 5 -1 15.5t-1 15.5h-189q-20 0 -20 16q0 11 4 23l14 73q3 15 9.5 20t21.5 5h158q0 14 -1 40t-1 40q0 107 30.5 196.5t89.5 157.5t153 106t214 38 q62 0 146 -19.5t131 -50.5q10 -8 10 -16q0 -12 -6 -21l-35 -74q-1 -4 -7.5 -8t-11.5 -4q-8 0 -37.5 16.5t-82 33t-117.5 16.5q-176 0 -268 -132q-35 -52 -48.5 -118.5t-13.5 -167.5v-33h279q20 0 20 -14q0 -2 -2 -11t-2 -14l-14 -74q-3 -15 -9.5 -19.5t-21.5 -4.5h-244v-35 q0 -221 -98 -445q-2 -5 -3.5 -8t-2.5 -6h545q22 0 22 -16q0 -5 -4 -12.5t-4 -8.5l-51 -82q-10 -18 -31 -18h-832q-20 0 -20 18z" />
<glyph unicode="&#xa4;" d="M57 1145l66 63l141 -139q132 94 281 94q146 0 278 -94l142 139l65 -63l-143 -144q98 -101 98 -282q0 -77 -24 -151.5t-72 -127.5l137 -137l-61 -61l-136 135q-127 -96 -284 -96q-76 0 -153 26t-134 70l-135 -135l-62 61l138 137q-97 106 -97 279q0 159 99 282zM186 719 q0 -147 105.5 -250.5t253.5 -103.5q146 0 251 104t105 250q0 148 -104.5 254t-251.5 106q-149 0 -254 -106t-105 -254z" />
<glyph unicode="&#xa5;" d="M70 571q0 9 2 17l4 26q3 23 43 23h327l-32 115h-277q-24 0 -24 10q0 8 2 16l4 27q3 22 43 22h231l-119 449h-90q-16 0 -16 14q0 2 1 7.5t1 7.5l16 77q5 21 25 21h362q17 0 17 -14q0 -2 -1 -7.5t-1 -7.5l-17 -78q-5 -20 -24 -20h-117l115 -432q16 -94 18 -127h4 q37 72 70 121l281 438h-119q-17 0 -17 14q0 2 1 7.5t1 7.5l17 77q5 21 24 21h385q17 0 17 -14q0 -2 -1 -7.5t-1 -7.5l-17 -78q-5 -20 -24 -20h-86l-314 -449h242q25 0 25 -10q0 -8 -2 -16l-5 -27q-3 -22 -43 -22h-270l-80 -115h334q25 0 25 -10q0 -9 -2 -17l-4 -26 q-3 -23 -43 -23h-347l-90 -434h144q16 0 16 -14q0 -2 -1 -7.5t-1 -7.5l-16 -78q-5 -20 -25 -20h-451q-16 0 -16 14q0 2 1 7.5t1 7.5l17 77q5 21 24 21h148l90 434h-361q-24 0 -24 10z" />
<glyph unicode="&#xa6;" horiz-adv-x="802" d="M369 -330v688h147v-688q0 -19 -4 -23.5t-23 -4.5h-94q-18 0 -22 4.5t-4 23.5zM369 666v688q0 16 5 22t21 6h94q17 0 22 -6.5t5 -21.5v-688h-147z" />
<glyph unicode="&#xa7;" d="M53 -76q0 12 13 29l38 61q10 17 21 17q6 0 30.5 -14.5t55 -31.5t79 -31.5t97.5 -14.5q75 0 131.5 49t56.5 114q0 41 -22 75.5t-57 59.5t-77.5 49t-85.5 50t-78 56t-57 74.5t-22 98.5q0 63 25.5 118.5t58 91t83 68.5t79 46.5t67.5 30.5q-67 40 -95 72q-48 55 -48 130 q0 128 102.5 219t260.5 91q71 0 136 -21t97.5 -44t32.5 -36q0 -6 -12 -24l-43 -66q-7 -12 -21 -12q-6 0 -23 10t-38.5 22.5t-61 22.5t-84.5 10q-78 0 -134 -45.5t-56 -105.5q0 -33 22 -61.5t57 -51.5t77.5 -46.5t85.5 -50.5t78 -58.5t57 -76.5t22 -98q0 -211 -307 -352 q63 -41 88 -68q61 -66 61 -157q0 -130 -107 -226t-265 -96q-70 0 -147.5 25t-124 54t-46.5 44zM344 594q0 -22 4.5 -40.5t16 -35t19 -27t27.5 -24.5t25.5 -18t29.5 -17l23 -14q105 55 149 92q95 80 95 178q0 23 -7.5 43.5t-15 33.5t-27 29t-26 20.5t-31.5 19t-26 14.5 q-256 -109 -256 -254z" />
<glyph unicode="&#xa8;" horiz-adv-x="681" d="M260 1280q0 43 31 73.5t74 30.5t73.5 -30.5t30.5 -73.5q0 -44 -30.5 -74t-73.5 -30t-74 30.5t-31 73.5zM635 1280q0 43 30.5 73.5t73.5 30.5t74 -30.5t31 -73.5q0 -44 -31 -74t-74 -30t-73.5 30.5t-30.5 73.5z" />
<glyph unicode="&#xa9;" horiz-adv-x="1138" d="M156 971q0 126 65.5 232.5t176 167.5t237.5 61t237.5 -61t176 -167.5t65.5 -232.5t-65.5 -232.5t-176 -167.5t-237.5 -61t-237.5 61t-176 167.5t-65.5 232.5zM227 971q0 -162 120.5 -275.5t287.5 -113.5t287 113.5t120 275.5q0 163 -120 276t-287 113t-287.5 -113 t-120.5 -276zM385 967q0 122 79 208.5t173 86.5q47 0 90 -16.5t55 -16.5q7 0 12.5 4t13.5 15l9 12h31v-209l-31 -7q-1 3 -10 25.5t-12.5 30t-13.5 28t-16.5 29.5t-18.5 23.5t-23.5 21t-26.5 12t-32 5.5q-72 0 -109 -64.5t-37 -185.5q0 -105 39.5 -167.5t112.5 -62.5 q33 0 58.5 12t39.5 27.5t24.5 40t13.5 37.5t7 33l43 2l-4.5 -31.5t-8 -35t-14.5 -39t-24 -34.5t-36 -31t-51 -19.5t-69 -8.5q-115 0 -189.5 77.5t-74.5 197.5z" />
<glyph unicode="&#xaa;" horiz-adv-x="833" d="M174 848q0 55 11.5 119t37 132t61.5 122.5t91.5 89.5t120.5 35q22 0 41 -4t31 -8t26 -14.5t19 -15t17.5 -17.5t14.5 -15l19 43q4 12 12 12h92q12 0 12 -8q0 -5 -4 -25l-92 -426q-6 -33 -6 -110h82q22 0 22 -10q0 -13 -2 -19l-12 -57q-4 -15 -18 -15h-101q-21 0 -35.5 2.5 t-31.5 11t-26 28t-9 49.5q0 26 2 36l-4 4q-18 -47 -81 -97t-142 -50q-71 0 -109.5 57t-38.5 150zM311 858q0 -102 62 -102q78 0 157 108q31 42 52 140l41 188q-60 43 -127 43q-49 0 -87 -44t-58 -108t-30 -123t-10 -102z" />
<glyph unicode="&#xab;" horiz-adv-x="1062" d="M104 487q0 4 15 19l434 434q16 16 22 16q1 0 19 -6l61 -39q11 -11 11 -16q0 -7 -9 -16l-362 -400l174 -385q6 -12 6 -16q0 -15 -18 -21l-58 -26q-16 -8 -20 -8q-10 0 -14 12l-252 434q-9 9 -9 18zM483 487q0 4 15 19l434 434q16 16 22 16q1 0 19 -6l61 -39q10 -10 10 -16 q0 -8 -8 -16l-362 -400l174 -385q6 -12 6 -16q0 -15 -18 -21l-58 -26q-16 -8 -20 -8q-11 0 -15 12l-251 434q-9 9 -9 18z" />
<glyph unicode="&#xac;" d="M45 614v91q0 19 4 23.5t23 4.5h876q19 0 24 -4.5t5 -23.5v-371q0 -15 -5 -22t-22 -7h-94q-27 0 -27 29v252h-757q-19 0 -23 4.5t-4 23.5z" />
<glyph unicode="&#xad;" horiz-adv-x="606" d="M53 459q0 3 6 33l17 79q3 14 9 19.5t21 5.5h422q21 0 21 -16q0 -3 -6 -33l-17 -80q-3 -14 -9 -19.5t-21 -5.5h-422q-21 0 -21 17z" />
<glyph unicode="&#xae;" horiz-adv-x="1138" d="M156 971q0 126 65.5 232.5t176 167.5t237.5 61t237.5 -61t176 -167.5t65.5 -232.5t-65.5 -232.5t-176 -167.5t-237.5 -61t-237.5 61t-176 167.5t-65.5 232.5zM227 971q0 -162 120.5 -275.5t287.5 -113.5t287 113.5t120 275.5t-120 275.5t-287 113.5t-287.5 -113.5 t-120.5 -275.5zM397 717v39q48 5 62 18t14 64v292q0 45 -12 56.5t-54 16.5q-7 1 -10 1v41h250q109 0 166 -27.5t57 -105.5q0 -29 -11 -51t-23.5 -34.5t-37.5 -23.5t-37.5 -14.5t-39.5 -9.5q43 -26 67.5 -61t30 -62t15 -46t26.5 -19q33 0 33 67h41q0 -20 -4.5 -41.5 t-15.5 -45.5t-34 -39t-55 -15q-49 0 -75 25.5t-34.5 62.5t-15.5 74t-28.5 62.5t-63.5 25.5h-22v-123v-33.5t5 -22.5l7 -14t15.5 -8.5t19.5 -5t31 -4.5v-39h-267zM586 1010h43q53 0 84.5 19.5t31.5 72.5q0 50 -19.5 76t-68.5 26q-48 0 -59.5 -16.5t-11.5 -61.5v-116z" />
<glyph unicode="&#xaf;" horiz-adv-x="681" d="M125 1237q0 8 4 20l14 66q5 23 29 23h455q20 0 20 -19q0 -8 -4 -20l-14 -66q-3 -13 -9 -17.5t-20 -4.5h-455q-20 0 -20 18z" />
<glyph unicode="&#xb0;" d="M281 1087q0 132 93 224t224 92q130 0 222.5 -92.5t92.5 -223.5q0 -130 -93 -222.5t-222 -92.5q-131 0 -224 92.5t-93 222.5zM408 1087q0 -78 55.5 -133t132.5 -55q78 0 134 55t56 133t-56 133.5t-134 55.5q-77 0 -132.5 -55t-55.5 -134z" />
<glyph unicode="&#xb1;" d="M45 16q0 19 4.5 24t22.5 5h876q19 0 24 -5t5 -24v-90q0 -19 -5 -23.5t-24 -4.5h-876q-19 0 -23 4.5t-4 23.5v90zM45 475v90q0 19 4.5 24t22.5 5h364v360q0 20 4.5 24.5t22.5 4.5h94q19 0 23 -4.5t4 -24.5v-360h364q19 0 24 -5t5 -24v-90q0 -19 -5 -24t-24 -5h-364v-294 q0 -19 -4.5 -24t-22.5 -5h-94q-18 0 -22.5 5t-4.5 24v294h-364q-18 0 -22.5 5t-4.5 24z" />
<glyph unicode="&#xb2;" horiz-adv-x="681" d="M102 547q0 52 34.5 129t96.5 139q44 44 113.5 95t119 84t87 73.5t37.5 77.5q0 40 -24 59t-62 19q-43 0 -76.5 -22t-48.5 -48t-29.5 -48t-25.5 -22t-19 4l-47 17q-17 7 -23 11t-6 11q0 15 19 47t52.5 68.5t91.5 64t124 27.5q92 0 151.5 -43t59.5 -129q0 -28 -7 -54.5 t-15.5 -46.5t-27.5 -42t-32.5 -36t-41 -35t-42.5 -31t-48 -31.5t-46 -30.5q-103 -70 -139 -105.5t-72 -107.5h332q18 0 24 -4t6 -14q0 -11 -2 -21l-10 -51q-2 -14 -9.5 -21.5t-27.5 -7.5h-440q-27 0 -27 25z" />
<glyph unicode="&#xb3;" horiz-adv-x="681" d="M84 575q0 12 6 21l29 53q9 19 22 19q6 0 29.5 -13t61 -26t77.5 -13q87 0 136 51t49 124q0 27 -10.5 46.5t-24.5 29.5t-37 15t-37 6t-35 1h-45q-29 2 -29 24q0 10 3 19l10 39q8 28 37 28h45q71 0 126.5 42t55.5 112q0 33 -24.5 51.5t-67.5 18.5q-41 0 -77.5 -19.5t-59 -39 t-31.5 -19.5q-7 0 -19 8l-38 39q-9 9 -9 16q0 12 19 32t50.5 41t81.5 36.5t103 15.5q92 0 147.5 -46t55.5 -118q0 -75 -43 -129.5t-104 -85.5q2 -1 13 -8.5t13.5 -9.5t12.5 -9.5t13 -11t11 -12t10.5 -15t8 -16.5t7.5 -20t3.5 -23.5t1.5 -27.5q0 -123 -96 -209t-244 -86 q-65 0 -136 22.5t-71 46.5z" />
<glyph unicode="&#xb4;" horiz-adv-x="681" d="M362 1190q0 3 11 14l317 223q10 7 19 7q8 0 18 -15l57 -94q1 -2 4 -7.5t3 -8.5q0 -6 -5 -11.5t-10 -7.5l-354 -160q-8 -4 -14 -4q-8 0 -17 13l-22 35q-7 10 -7 16z" />
<glyph unicode="&#xb5;" horiz-adv-x="1099" d="M-129 -401q0 2 1 7t1 7l16 72q6 20 25 20h111l241 1159h-149q-17 0 -17 13q0 3 6 32l11 49q3 14 8 19.5t18 5.5h277q14 -3 14 -14q0 -9 -10 -49l-117 -572q-22 -102 -22 -133q0 -49 26.5 -77.5t77.5 -28.5q68 0 138 40.5t102 81.5q11 14 20.5 29.5t17 27.5t15 30t12 27 t11 30t8.5 27t7.5 30t6.5 27t6.5 29.5t5.5 27.5l95 447q3 10 7 13.5t17 6.5l98 23q18 6 27 6q6 0 6 -8q0 -3 -4 -23l-151 -713q-15 -82 -15 -100q0 -8 1 -24.5t1 -24.5h142q16 0 16 -13q0 -3 -6 -32l-10 -49q-3 -14 -8.5 -19.5t-18.5 -5.5h-117q-68 0 -93 20t-32 60 q-4 21 -4 84h-4q-59 -79 -150 -136t-188 -57q-26 0 -48.5 8t-34 16t-32.5 25l-63 -315h143q19 0 19 -12q0 -2 -1 -7.5t-1 -7.5l-17 -71q-6 -21 -24 -21h-400q-18 0 -18 13z" />
<glyph unicode="&#xb6;" horiz-adv-x="1251" d="M141 881q0 159 36 251.5t99 161.5q15 17 34 30.5t35.5 24t41.5 18.5t40.5 13.5t45 9.5t42 6t44.5 3.5t39.5 2t40.5 1t35 0.5h551q19 0 23.5 -4.5t4.5 -22.5v-78q0 -17 -5 -21.5t-23 -4.5h-138v-1626q0 -18 -4.5 -22.5t-23.5 -4.5h-84q-18 0 -23.5 5t-5.5 22v1626h-131 v-1626q0 -17 -5 -22t-24 -5h-84q-18 0 -23 4.5t-5 22.5v710q-119 -14 -152 -14q-187 0 -284 134t-97 405zM319 879q0 -201 58 -301.5t203 -100.5q42 0 94 10v785q-54 0 -90 -2t-74.5 -8t-62.5 -18t-47.5 -32t-37 -48.5t-24.5 -69t-15 -93.5t-4 -122z" />
<glyph unicode="&#xb7;" d="M418 520q0 53 36.5 90t90.5 37t90.5 -37t36.5 -90q0 -54 -36.5 -90.5t-90.5 -36.5t-90.5 37t-36.5 90z" />
<glyph unicode="&#xb8;" horiz-adv-x="681" d="M-37 -369q0 9 2 13l23 67q5 10 14 10q1 0 32.5 -8t67.5 -8q91 0 91 51q0 17 -9.5 28.5t-27.5 16t-32.5 5.5t-37.5 1q-31 0 -31 19q0 3 1 6.5t1 5.5l49 162h117l-37 -119q22 -3 31 -4.5t31 -9t32.5 -17.5t20.5 -30t10 -47q0 -75 -58 -122.5t-163 -47.5q-55 0 -91 7.5 t-36 20.5z" />
<glyph unicode="&#xb9;" horiz-adv-x="681" d="M164 535q0 5 6 32l10 45q5 21 25 21h129l115 530l-158 -76q-16 -8 -25 -8q-11 0 -24 23l-15 26q-6 12 -6 15q0 5 2.5 9t5 6t7 5t6.5 4l252 142q16 8 26 8h60q28 0 28 -12q0 -15 -4 -23l-139 -649h106q17 0 17 -12q0 -6 -6 -33l-11 -45q-5 -21 -24 -21h-367q-16 0 -16 13z " />
<glyph unicode="&#xba;" horiz-adv-x="833" d="M211 877q0 70 14 137t43.5 127t71.5 105.5t102 72.5t131 27q105 0 163.5 -59t58.5 -179q0 -85 -24 -167t-68.5 -149.5t-116 -109t-158.5 -41.5q-217 0 -217 236zM348 879q0 -127 98 -127q53 0 95.5 35t66.5 90t36.5 115t12.5 118q0 63 -26 94t-72 31q-56 0 -98.5 -34.5 t-66 -89.5t-35 -114t-11.5 -118z" />
<glyph unicode="&#xbb;" horiz-adv-x="1062" d="M0 84q0 8 8 16l363 400l-174 385q-7 14 -7 16q0 15 19 21l57 26q16 8 21 8q10 0 14 -12l252 -434q8 -8 8 -18q0 -5 -14 -19l-434 -434q-16 -16 -23 -16l-18 6l-62 39q-10 10 -10 16zM379 84q0 8 8 16l363 400l-175 385q-6 12 -6 16q0 15 19 21l57 26q16 8 21 8 q10 0 14 -12l252 -434q8 -8 8 -18q0 -5 -14 -19l-434 -434q-16 -16 -23 -16l-18 6l-62 39q-10 10 -10 16z" />
<glyph unicode="&#xbc;" horiz-adv-x="1669" d="M174 535q0 5 6 32l10 45q5 21 25 21h129l115 530l-158 -76q-16 -8 -25 -8q-11 0 -24 23l-14 26q-7 14 -7 15q0 5 2.5 9t5 6t7 5t6.5 4l252 142q16 8 26 8h60q28 0 28 -12q0 -15 -4 -23l-139 -649h107q16 0 16 -12q0 -6 -6 -33l-10 -45q-5 -21 -25 -21h-367q-16 0 -16 13z M436 -18q0 8 8 24l719 1321q9 19 31 19h88q21 0 21 -15q0 -4 -9 -22l-719 -1319q-8 -19 -34 -19h-82q-23 0 -23 11zM930 201q0 3 1 9t1 9l10 51q3 18 14 29l439 502q2 1 4.5 4t5 5.5t6 4.5t6.5 2q9 0 25 -4l55 -12q25 -7 25 -19q0 -9 -13 -22l-413 -469h198l56 180 q6 19 11.5 23t24.5 4h46q28 0 28 -19q0 -10 -2 -16l-37 -172h86q29 0 29 -21q0 -8 -4 -24l-8 -33q-5 -18 -11.5 -23.5t-25.5 -5.5h-90l-33 -155q-4 -17 -12 -23t-25 -6h-61q-29 0 -29 12q0 15 4 31l29 141h-312q-28 0 -28 17z" />
<glyph unicode="&#xbd;" horiz-adv-x="1669" d="M174 535q0 5 6 32l10 45q5 21 25 21h129l115 530l-158 -76q-16 -8 -25 -8q-11 0 -24 23l-14 26q-7 14 -7 15q0 5 2.5 9t5 6t7 5t6.5 4l252 142q16 8 26 8h60q28 0 28 -12q0 -15 -4 -23l-139 -649h107q16 0 16 -12q0 -6 -6 -33l-10 -45q-5 -21 -25 -21h-367q-16 0 -16 13z M418 -18q0 8 8 24l719 1321q9 19 31 19h88q20 0 20 -15q0 -6 -8 -22l-719 -1319q-8 -19 -35 -19h-82q-22 0 -22 11zM942 25q0 52 34.5 129t96.5 139q44 44 113.5 95t119 84t87 73.5t37.5 77.5q0 77 -87 77q-35 0 -63.5 -14.5t-45 -35t-29 -40.5t-23 -34.5t-19.5 -14.5 q-10 0 -18 4l-47 17q-17 7 -23 11t-6 11q0 15 19 47t52.5 68.5t91.5 64t124 27.5q92 0 151.5 -43t59.5 -129q0 -28 -7 -54.5t-15.5 -46.5t-27.5 -42t-32.5 -36t-41 -35t-42.5 -31t-48 -31.5t-46 -30.5q-103 -70 -139 -105.5t-72 -107.5h331q31 0 31 -19q0 -10 -2 -20 l-10 -51q-2 -14 -9.5 -21.5t-27.5 -7.5h-440q-27 0 -27 25z" />
<glyph unicode="&#xbe;" horiz-adv-x="1669" d="M84 575q0 12 6 21l29 53q9 19 22 19q6 0 29.5 -13t61 -26t77.5 -13q87 0 136 51t49 124q0 27 -10.5 46.5t-24.5 29.5t-37 15t-37 6t-35 1h-45q-29 2 -29 24q0 10 3 19l10 39q8 28 37 28h45q71 0 126.5 42t55.5 112q0 33 -24.5 51.5t-67.5 18.5q-41 0 -77.5 -19.5t-59 -39 t-31.5 -19.5q-7 0 -19 8l-38 39q-9 9 -9 16q0 12 19 32t50.5 41t81.5 36.5t103 15.5q92 0 147.5 -46t55.5 -118q0 -75 -43 -129.5t-104 -85.5q2 -1 13 -8.5t13.5 -9.5t12.5 -9.5t13 -11t11 -12t10.5 -15t8 -16.5t7.5 -20t3.5 -23.5t1.5 -27.5q0 -123 -96 -209t-244 -86 q-65 0 -136 22.5t-71 46.5zM422 -18q0 8 8 24l719 1321q9 19 31 19h88q20 0 20 -15q0 -6 -8 -22l-719 -1319q-8 -19 -35 -19h-82q-22 0 -22 11zM930 201q0 3 1 9t1 9l10 51q3 18 14 29l439 502q2 1 4.5 4t5 5.5t6 4.5t6.5 2q9 0 25 -4l55 -12q25 -7 25 -19q0 -9 -13 -22 l-413 -469h198l56 180q6 19 11.5 23t24.5 4h46q28 0 28 -19q0 -10 -2 -16l-37 -172h86q29 0 29 -21q0 -8 -4 -24l-8 -33q-5 -18 -11.5 -23.5t-25.5 -5.5h-90l-33 -155q-4 -17 -12 -23t-25 -6h-61q-29 0 -29 12q0 15 4 31l29 141h-312q-28 0 -28 17z" />
<glyph unicode="&#xbf;" horiz-adv-x="948" d="M-6 -209q0 76 26.5 141.5t67.5 110t95 78.5t104.5 52t99.5 26l41 194q6 21 25 21h100q16 0 16 -13q0 -3 -6 -32l-51 -238q-3 -16 -13.5 -25t-23.5 -12.5t-41 -10t-51 -15.5q-112 -41 -166.5 -95.5t-54.5 -154.5q0 -83 44.5 -120.5t131.5 -37.5q52 0 107 13t91.5 26.5 t43.5 13.5q13 0 18 -14l18 -64q7 -17 7 -22q0 -29 -115 -59.5t-203 -30.5q-138 0 -224.5 68.5t-86.5 199.5zM453 846q0 57 40.5 97t96.5 40q57 0 97 -40t40 -97t-40 -97t-97 -40q-56 0 -96.5 40t-40.5 97z" />
<glyph unicode="&#xc0;" horiz-adv-x="1175" d="M-80 12q0 4 6 33l17 61q5 21 24 21h84l649 1257q11 19 33 19h103q17 0 21 -4t7 -23l115 -1249h108q17 0 17 -12q0 -4 -6 -33l-17 -62q-5 -20 -24 -20h-387q-17 0 -17 12q0 4 6 33l17 61q5 21 24 21h119l-24 295h-437l-147 -295h129q16 0 16 -12q0 -4 -6 -33l-16 -62 q-5 -20 -25 -20h-372q-17 0 -17 12zM426 559h356l-34 455q-7 86 -7 194h-4q-34 -97 -82 -194zM518 1712q0 6 8 14l101 105q9 14 22 14q9 0 17 -8l211 -225l3 -3q3 -3 3 -7q0 -8 -9 -17l-45 -45q-10 -10 -20 -10q-8 0 -14 6l-269 164q-8 4 -8 12z" />
<glyph unicode="&#xc1;" horiz-adv-x="1175" d="M-80 12q0 4 6 33l17 61q5 21 24 21h84l649 1257q11 19 33 19h103q17 0 21 -4t7 -23l115 -1249h108q17 0 17 -12q0 -4 -6 -33l-17 -62q-5 -20 -24 -20h-387q-17 0 -17 12q0 4 6 33l17 61q5 21 24 21h119l-24 295h-437l-147 -295h129q16 0 16 -12q0 -4 -6 -33l-16 -62 q-5 -20 -25 -20h-372q-17 0 -17 12zM426 559h356l-34 455q-7 86 -7 194h-4q-34 -97 -82 -194zM610 1593q0 4 11 15l317 223q9 6 18 6q10 0 19 -14l57 -94q0 -1 3 -7t3 -10q0 -13 -14 -18l-354 -160q-8 -4 -15 -4q-8 0 -16 12l-23 35q-6 9 -6 16z" />
<glyph unicode="&#xc2;" horiz-adv-x="1175" d="M-80 12q0 4 6 33l17 61q5 21 24 21h84l649 1257q11 19 33 19h103q17 0 21 -4t7 -23l115 -1249h108q17 0 17 -12q0 -4 -6 -33l-17 -62q-5 -20 -24 -20h-387q-17 0 -17 12q0 4 6 33l17 61q5 21 24 21h119l-24 295h-437l-147 -295h129q16 0 16 -12q0 -4 -6 -33l-16 -62 q-5 -20 -25 -20h-372q-17 0 -17 12zM426 559h356l-34 455q-7 86 -7 194h-4q-34 -97 -82 -194zM549 1622q0 9 14 18l248 170q11 11 18 11q4 0 7.5 -2t7.5 -6t6 -5l192 -186q11 -11 11 -16q0 -3 -1.5 -6t-4 -6.5t-3.5 -4.5l-28 -35q-2 -1 -5.5 -4.5t-6.5 -5.5t-7 -2 q-5 0 -20 10l-164 119l-195 -117q-12 -8 -20 -8q-10 0 -14 13l-27 45q-8 12 -8 18z" />
<glyph unicode="&#xc3;" horiz-adv-x="1175" d="M-80 12q0 4 6 33l17 61q5 21 24 21h84l649 1257q11 19 33 19h103q17 0 21 -4t7 -23l115 -1249h108q17 0 17 -12q0 -4 -6 -33l-17 -62q-5 -20 -24 -20h-387q-17 0 -17 12q0 4 6 33l17 61q5 21 24 21h119l-24 295h-437l-147 -295h129q16 0 16 -12q0 -4 -6 -33l-16 -62 q-5 -20 -25 -20h-372q-17 0 -17 12zM426 559h356l-34 455q-7 86 -7 194h-4q-34 -97 -82 -194zM500 1645q1 17 30 52t82.5 68t106.5 33q49 0 117 -41q62 -43 98 -43q27 0 49 13t33 28t22 28t19 13q4 0 12 -4l49 -35q2 -2 5 -4.5t4 -4t2 -3.5t1 -6q0 -7 -17 -30.5t-44.5 -51 t-70 -49t-85.5 -21.5q-52 0 -114 43q-3 2 -12 7.5t-12.5 7.5t-11.5 6.5t-12.5 6.5t-12 5t-13.5 4.5t-13.5 2.5t-15.5 1q-34 0 -59 -21t-40.5 -42t-25.5 -21q-8 0 -10 2l-49 39q-12 8 -12 17z" />
<glyph unicode="&#xc4;" horiz-adv-x="1175" d="M-80 12q0 4 6 33l17 61q5 21 24 21h84l649 1257q11 19 33 19h103q17 0 21 -4t7 -23l115 -1249h108q17 0 17 -12q0 -4 -6 -33l-17 -62q-5 -20 -24 -20h-387q-17 0 -17 12q0 4 6 33l17 61q5 21 24 21h119l-24 295h-437l-147 -295h129q16 0 16 -12q0 -4 -6 -33l-16 -62 q-5 -20 -25 -20h-372q-17 0 -17 12zM426 559h356l-34 455q-7 86 -7 194h-4q-34 -97 -82 -194zM528 1683q0 43 31 74t74 31t73.5 -31t30.5 -74q0 -44 -30.5 -74t-73.5 -30t-74 30.5t-31 73.5zM903 1683q0 43 31 74t74 31t73.5 -31t30.5 -74q0 -44 -30.5 -74t-73.5 -30 t-74 30.5t-31 73.5z" />
<glyph unicode="&#xc5;" horiz-adv-x="1175" d="M-80 12q0 4 6 33l17 61q5 21 24 21h84l649 1257q11 19 33 19h103q17 0 21 -4t7 -23l115 -1249h108q17 0 17 -12q0 -4 -6 -33l-17 -62q-5 -20 -24 -20h-387q-17 0 -17 12q0 4 6 33l17 61q5 21 24 21h119l-24 295h-437l-147 -295h129q16 0 16 -12q0 -4 -6 -33l-16 -62 q-5 -20 -25 -20h-372q-17 0 -17 12zM426 559h356l-34 455q-7 86 -7 194h-4q-34 -97 -82 -194zM629 1688q0 73 57 125.5t129 52.5q76 0 131 -52t55 -128q0 -75 -55.5 -128t-130.5 -53q-76 0 -131 53.5t-55 129.5zM727 1686q0 -37 26 -66t62 -29q37 0 62.5 28.5t25.5 66.5 q0 39 -25 66.5t-63 27.5q-37 0 -62.5 -28t-25.5 -66z" />
<glyph unicode="&#xc6;" horiz-adv-x="1630" d="M-80 12q0 4 6 33l17 61q5 21 24 21h92l871 1259q11 17 31 17h722q21 0 21 -14q0 -4 -2 -10.5t-2 -10.5l-58 -270q-3 -23 -24 -23h-94q-17 0 -17 10q0 4 1 10t1 9l33 162h-385l-98 -469h420q20 0 20 -17q0 -10 -2 -14l-16 -82q-5 -25 -31 -25h-420l-108 -522h395l41 195 q5 22 26 22h95q16 0 16 -12q0 -10 -2 -14l-63 -303q-3 -14 -9.5 -19.5t-21.5 -5.5h-809q-17 0 -17 12q0 1 0.5 3l1 4t2 9.5t3.5 16.5l16 61q5 21 25 21h131l63 299h-377l-198 -299h129q16 0 16 -12q0 -4 -6 -33l-17 -62q-5 -20 -24 -20h-401q-17 0 -17 12zM528 563h316 l155 725l-4 4q-87 -154 -151 -250z" />
<glyph unicode="&#xc7;" horiz-adv-x="948" d="M104 387q0 136 21.5 276t71 279t120.5 247t179 175.5t237 67.5q69 0 141.5 -24.5t117 -58t44.5 -59.5q0 -6 -2 -14t-2 -10l-47 -211q-6 -21 -24 -21h-95q-16 0 -16 13q0 6 4 22l37 172l-15 7q-16 8 -24.5 12t-27.5 11.5t-34.5 11.5t-36 7.5t-40.5 3.5q-88 0 -164 -66 t-125.5 -168t-85 -228t-51 -244t-15.5 -217q0 -127 55.5 -194.5t153.5 -67.5q86 0 203 77l37 172q5 23 24 23h95q16 0 16 -19q0 -18 -6 -36l-39 -183q-7 -33 -20 -43q-60 -48 -150.5 -86.5t-155.5 -38.5l-26 -94q22 -3 31 -4.5t31 -9t32.5 -17.5t20.5 -30t10 -47 q0 -75 -58.5 -122.5t-163.5 -47.5q-55 0 -90.5 7.5t-35.5 20.5q0 9 2 13l22 67q5 10 14 10q1 0 33 -8t68 -8q90 0 90 51q0 17 -9.5 28.5t-28 16t-33 5.5t-36.5 1q-30 0 -30 19q0 3 1 6.5t1 5.5l43 144q-76 6 -138.5 64.5t-96.5 149t-34 191.5z" />
<glyph unicode="&#xc8;" d="M-43 12q0 4 6 33l17 61q5 21 24 21h135l244 1149h-137q-17 0 -17 12q0 1 0.5 3l1 4t2 9.5t3.5 16.5l16 61q5 21 24 21h797q21 0 21 -14q0 -4 -2 -10.5t-2 -10.5l-58 -270q-6 -23 -24 -23h-95q-16 0 -16 12q0 2 1 8t1 9l33 162h-389l-101 -469h426q21 0 21 -17 q0 -10 -2 -14l-17 -82q-3 -15 -9.5 -20t-20.5 -5h-426l-111 -522h406l39 195q5 22 26 22h94q17 0 17 -12q0 -10 -2 -14l-64 -303q-3 -14 -9.5 -19.5t-21.5 -5.5h-815q-16 0 -16 12zM473 1712q0 6 8 14l101 105q9 14 22 14q9 0 17 -8l210 -225l3 -3q4 -3 4 -7q0 -8 -9 -17 l-45 -45q-10 -10 -20 -10q-8 0 -14 6l-269 164q-8 4 -8 12z" />
<glyph unicode="&#xc9;" d="M-43 12q0 4 6 33l17 61q5 21 24 21h135l244 1149h-137q-17 0 -17 12q0 1 0.5 3l1 4t2 9.5t3.5 16.5l16 61q5 21 24 21h797q21 0 21 -14q0 -4 -2 -10.5t-2 -10.5l-58 -270q-6 -23 -24 -23h-95q-16 0 -16 12q0 2 1 8t1 9l33 162h-389l-101 -469h426q21 0 21 -17 q0 -10 -2 -14l-17 -82q-3 -15 -9.5 -20t-20.5 -5h-426l-111 -522h406l39 195q5 22 26 22h94q17 0 17 -12q0 -10 -2 -14l-64 -303q-3 -14 -9.5 -19.5t-21.5 -5.5h-815q-16 0 -16 12zM565 1593q0 5 10 15l318 223q9 6 18 6q10 0 19 -14l57 -94q0 -1 3 -7t3 -10q0 -13 -14 -18 l-354 -160q-8 -4 -15 -4q-8 0 -16 12l-23 35q-6 9 -6 16z" />
<glyph unicode="&#xca;" d="M-43 12q0 4 6 33l17 61q5 21 24 21h135l244 1149h-137q-17 0 -17 12q0 1 0.5 3l1 4t2 9.5t3.5 16.5l16 61q5 21 24 21h797q21 0 21 -14q0 -4 -2 -10.5t-2 -10.5l-58 -270q-6 -23 -24 -23h-95q-16 0 -16 12q0 2 1 8t1 9l33 162h-389l-101 -469h426q21 0 21 -17 q0 -10 -2 -14l-17 -82q-3 -15 -9.5 -20t-20.5 -5h-426l-111 -522h406l39 195q5 22 26 22h94q17 0 17 -12q0 -10 -2 -14l-64 -303q-3 -14 -9.5 -19.5t-21.5 -5.5h-815q-16 0 -16 12zM442 1622q0 8 15 18l248 170q11 11 18 11q4 0 7 -2t7 -6t6 -5l193 -186q10 -10 10 -16 q0 -1 -8 -17l-29 -35q-2 -1 -5 -4.5t-6 -5.5t-7 -2q-6 0 -21 10l-163 119l-195 -117q-12 -8 -20 -8q-11 0 -15 13l-26 45q-9 14 -9 18z" />
<glyph unicode="&#xcb;" d="M-43 12q0 4 6 33l17 61q5 21 24 21h135l244 1149h-137q-17 0 -17 12q0 1 0.5 3l1 4t2 9.5t3.5 16.5l16 61q5 21 24 21h797q21 0 21 -14q0 -4 -2 -10.5t-2 -10.5l-58 -270q-6 -23 -24 -23h-95q-16 0 -16 12q0 2 1 8t1 9l33 162h-389l-101 -469h426q21 0 21 -17 q0 -10 -2 -14l-17 -82q-3 -15 -9.5 -20t-20.5 -5h-426l-111 -522h406l39 195q5 22 26 22h94q17 0 17 -12q0 -10 -2 -14l-64 -303q-3 -14 -9.5 -19.5t-21.5 -5.5h-815q-16 0 -16 12zM432 1683q0 43 31 74t74 31t73.5 -31t30.5 -74q0 -44 -30.5 -74t-73.5 -30t-74 30.5 t-31 73.5zM807 1683q0 43 30.5 74t73.5 31t74 -31t31 -74q0 -44 -31 -74t-74 -30t-73.5 30.5t-30.5 73.5z" />
<glyph unicode="&#xcc;" horiz-adv-x="720" d="M-39 12q0 4 6 33l17 61q5 21 24 21h187l243 1149h-192q-17 0 -17 12q0 1 0.5 3l1 4t2 9.5t3.5 16.5l16 61q5 21 24 21h541q17 0 17 -12q0 -1 -0.5 -3l-1 -4t-2 -9.5t-3.5 -16.5l-16 -62q-5 -20 -25 -20h-188l-244 -1149h193q16 0 16 -12q0 -4 -6 -33l-16 -62 q-5 -20 -25 -20h-539q-16 0 -16 12zM291 1712q0 6 8 14l100 105q9 14 23 14q8 0 16 -8l211 -225l3 -3q3 -3 3 -7q0 -9 -8 -17l-45 -45q-10 -10 -20 -10q-9 0 -15 6l-268 164q-8 4 -8 12z" />
<glyph unicode="&#xcd;" horiz-adv-x="720" d="M-39 12q0 4 6 33l17 61q5 21 24 21h187l243 1149h-192q-17 0 -17 12q0 1 0.5 3l1 4t2 9.5t3.5 16.5l16 61q5 21 24 21h541q17 0 17 -12q0 -1 -0.5 -3l-1 -4t-2 -9.5t-3.5 -16.5l-16 -62q-5 -20 -25 -20h-188l-244 -1149h193q16 0 16 -12q0 -4 -6 -33l-16 -62 q-5 -20 -25 -20h-539q-16 0 -16 12zM383 1593q0 5 10 15l318 223q9 6 18 6q10 0 19 -14l57 -94q0 -1 3 -7t3 -10q0 -13 -14 -18l-355 -160q-8 -4 -14 -4q-8 0 -16 12l-23 35q-6 9 -6 16z" />
<glyph unicode="&#xce;" horiz-adv-x="720" d="M-39 12q0 4 6 33l17 61q5 21 24 21h187l243 1149h-192q-17 0 -17 12q0 1 0.5 3l1 4t2 9.5t3.5 16.5l16 61q5 21 24 21h541q17 0 17 -12q0 -1 -0.5 -3l-1 -4t-2 -9.5t-3.5 -16.5l-16 -62q-5 -20 -25 -20h-188l-244 -1149h193q16 0 16 -12q0 -4 -6 -33l-16 -62 q-5 -20 -25 -20h-539q-16 0 -16 12zM291 1622q0 9 14 18l248 170q11 11 18 11q4 0 7.5 -2t7.5 -6t6 -5l192 -186q11 -11 11 -16q0 -3 -1.5 -6t-4 -6.5t-3.5 -4.5l-28 -35q-2 -1 -5.5 -4.5t-6.5 -5.5t-7 -2q-5 0 -20 10l-164 119l-195 -117q-12 -8 -20 -8q-10 0 -14 13 l-27 45q-8 12 -8 18z" />
<glyph unicode="&#xcf;" horiz-adv-x="720" d="M-39 12q0 4 6 33l17 61q5 21 24 21h187l243 1149h-192q-17 0 -17 12q0 1 0.5 3l1 4t2 9.5t3.5 16.5l16 61q5 21 24 21h541q17 0 17 -12q0 -1 -0.5 -3l-1 -4t-2 -9.5t-3.5 -16.5l-16 -62q-5 -20 -25 -20h-188l-244 -1149h193q16 0 16 -12q0 -4 -6 -33l-16 -62 q-5 -20 -25 -20h-539q-16 0 -16 12zM281 1683q0 43 30.5 74t73.5 31t73.5 -31t30.5 -74q0 -44 -30.5 -74t-73.5 -30t-73.5 30.5t-30.5 73.5zM655 1683q0 43 31 74t74 31t73.5 -31t30.5 -74q0 -44 -30.5 -74t-73.5 -30t-74 30.5t-31 73.5z" />
<glyph unicode="&#xd0;" horiz-adv-x="1175" d="M-43 12q0 4 6 33l17 61q5 21 24 21h135l113 539h-146q-16 0 -16 12q0 4 6 33l17 61q5 21 24 21h142l104 483h-137q-17 0 -17 12q0 1 0.5 3l1 4t2 9.5t3.5 16.5l16 61q5 21 24 21h379q90 0 142 -3.5t124.5 -24.5t111.5 -60.5t68 -117t29 -189.5q0 -159 -47.5 -355 t-134.5 -362q-84 -158 -221 -224.5t-332 -66.5h-422q-16 0 -16 12zM305 137h141q93 0 172 37.5t132 104.5q92 107 152.5 335.5t60.5 395.5q0 70 -16 119t-38.5 75t-62 40.5t-72 18t-82.5 3.5h-149l-101 -473h273q16 0 16 -13q0 -3 -6 -32l-16 -62q-5 -20 -25 -20h-268z" />
<glyph unicode="&#xd1;" horiz-adv-x="1214" d="M-39 12q0 4 6 33l17 61q5 21 24 21h133l246 1149h-135q-16 0 -16 12q0 4 6 33l16 61q5 21 25 21h282q10 0 14.5 -1t9 -6.5t5.5 -17.5l223 -979q16 -83 21 -153h4q8 106 22 166l187 864h-138q-16 0 -16 12q0 4 6 33l17 61q5 21 24 21h412q16 0 16 -12q0 -4 -6 -33l-16 -62 q-5 -20 -25 -20h-131l-258 -1200q-1 -5 -3 -12.5t-2.5 -12t-2.5 -11t-3 -10t-3 -8.5t-4 -7.5t-4.5 -6t-5 -5t-6 -2.5t-7.5 -1h-94q-35 0 -41 25l-236 1040q-12 53 -16 145h-4q-2 -44 -21 -153l-198 -930h133q16 0 16 -12q0 -4 -6 -33l-16 -62q-5 -20 -25 -20h-410 q-16 0 -16 12zM498 1645q1 17 30 52t82.5 68t106.5 33q49 0 117 -41q62 -43 98 -43q27 0 49 13t33 28t22 28t19 13q4 0 12 -4l49 -35q2 -2 5 -4.5t4 -4t2 -3.5t1 -6q0 -7 -17 -30.5t-44.5 -51t-70 -49t-85.5 -21.5q-52 0 -114 43q-3 2 -12 7.5t-12.5 7.5t-11.5 6.5 t-12.5 6.5t-12 5t-13.5 4.5t-13.5 2.5t-15.5 1q-34 0 -59 -21t-40.5 -42t-25.5 -21q-8 0 -10 2l-49 39q-12 8 -12 17z" />
<glyph unicode="&#xd2;" horiz-adv-x="1099" d="M106 399q0 116 15 233.5t45 234.5t80 218t115 179t155 123t195 45q192 0 275 -105.5t83 -302.5q0 -154 -21.5 -301t-69 -284.5t-116 -240.5t-170.5 -165t-225 -62q-105 0 -177 31t-111.5 90.5t-56 133t-16.5 173.5zM274 381q0 -140 44 -206t159 -66q90 0 156.5 58 t107.5 155q84 172 122 367t38 331q0 141 -43.5 207.5t-159.5 66.5q-68 0 -127 -39.5t-101.5 -103.5t-77 -148t-56 -171t-36 -175t-20.5 -156.5t-6 -119.5zM479 1712q0 6 8 14l101 105q9 14 22 14q9 0 17 -8l211 -225l3 -3q3 -3 3 -7q0 -9 -8 -17l-45 -45q-10 -10 -21 -10 q-8 0 -14 6l-269 164q-8 4 -8 12z" />
<glyph unicode="&#xd3;" horiz-adv-x="1099" d="M106 399q0 116 15 233.5t45 234.5t80 218t115 179t155 123t195 45q192 0 275 -105.5t83 -302.5q0 -154 -21.5 -301t-69 -284.5t-116 -240.5t-170.5 -165t-225 -62q-105 0 -177 31t-111.5 90.5t-56 133t-16.5 173.5zM274 381q0 -140 44 -206t159 -66q90 0 156.5 58 t107.5 155q84 172 122 367t38 331q0 141 -43.5 207.5t-159.5 66.5q-68 0 -127 -39.5t-101.5 -103.5t-77 -148t-56 -171t-36 -175t-20.5 -156.5t-6 -119.5zM571 1593q0 4 11 15l317 223q9 6 19 6q9 0 18 -14l57 -94q0 -1 3 -7t3 -10q0 -13 -14 -18l-354 -160q-8 -4 -15 -4 q-8 0 -16 12l-22 35q-7 11 -7 16z" />
<glyph unicode="&#xd4;" horiz-adv-x="1099" d="M106 399q0 116 15 233.5t45 234.5t80 218t115 179t155 123t195 45q192 0 275 -105.5t83 -302.5q0 -154 -21.5 -301t-69 -284.5t-116 -240.5t-170.5 -165t-225 -62q-105 0 -177 31t-111.5 90.5t-56 133t-16.5 173.5zM274 381q0 -140 44 -206t159 -66q90 0 156.5 58 t107.5 155q84 172 122 367t38 331q0 141 -43.5 207.5t-159.5 66.5q-68 0 -127 -39.5t-101.5 -103.5t-77 -148t-56 -171t-36 -175t-20.5 -156.5t-6 -119.5zM479 1622q0 8 15 18l247 170q11 11 19 11q4 0 7 -2t7 -6t6 -5l193 -186q10 -10 10 -16q0 -1 -8 -17l-29 -35 q-2 -1 -5 -4.5t-6 -5.5t-7 -2q-6 0 -21 10l-164 119l-194 -117q-12 -8 -21 -8q-10 0 -14 13l-27 45q-8 12 -8 18z" />
<glyph unicode="&#xd5;" horiz-adv-x="1099" d="M106 399q0 116 15 233.5t45 234.5t80 218t115 179t155 123t195 45q192 0 275 -105.5t83 -302.5q0 -154 -21.5 -301t-69 -284.5t-116 -240.5t-170.5 -165t-225 -62q-105 0 -177 31t-111.5 90.5t-56 133t-16.5 173.5zM274 381q0 -140 44 -206t159 -66q90 0 156.5 58 t107.5 155q84 172 122 367t38 331q0 141 -43.5 207.5t-159.5 66.5q-68 0 -127 -39.5t-101.5 -103.5t-77 -148t-56 -171t-36 -175t-20.5 -156.5t-6 -119.5zM420 1645q1 17 30 52t82.5 68t106.5 33q49 0 117 -41q62 -43 98 -43q27 0 49 13t33 28t22 28t19 13q4 0 12 -4l49 -35 q2 -2 6.5 -5.5t5.5 -5.5t1 -7q0 -7 -17 -30.5t-44.5 -51t-70 -49t-85.5 -21.5q-53 0 -115 43q-3 2 -12 7.5t-12.5 7.5t-11.5 6.5t-12.5 6.5t-12 5t-13.5 4.5t-13.5 2.5t-15.5 1q-27 0 -48.5 -13t-33 -29t-23 -29t-19.5 -13q-9 0 -11 2l-49 39q-12 8 -12 17z" />
<glyph unicode="&#xd6;" horiz-adv-x="1099" d="M106 399q0 116 15 233.5t45 234.5t80 218t115 179t155 123t195 45q192 0 275 -105.5t83 -302.5q0 -154 -21.5 -301t-69 -284.5t-116 -240.5t-170.5 -165t-225 -62q-105 0 -177 31t-111.5 90.5t-56 133t-16.5 173.5zM274 381q0 -140 44 -206t159 -66q90 0 156.5 58 t107.5 155q84 172 122 367t38 331q0 141 -43.5 207.5t-159.5 66.5q-68 0 -127 -39.5t-101.5 -103.5t-77 -148t-56 -171t-36 -175t-20.5 -156.5t-6 -119.5zM469 1683q0 43 30.5 74t73.5 31t74 -31t31 -74q0 -44 -31 -74t-74 -30t-73.5 30.5t-30.5 73.5zM844 1683 q0 43 30.5 74t73.5 31t74 -31t31 -74q0 -44 -31 -74t-74 -30t-73.5 30.5t-30.5 73.5z" />
<glyph unicode="&#xd7;" d="M135 242q0 8 12 20l261 258l-261 256q-12 9 -12 21q0 11 12 20l66 64q14 14 20 14q7 0 21 -14l256 -258l254 258q14 14 20 14q7 0 21 -14l65 -64q13 -10 13 -20q0 -11 -13 -21l-245 -256l245 -258q13 -13 13 -20q0 -6 -13 -19l-65 -65q-15 -15 -21 -15q-9 0 -20 15 l-254 260l-256 -260q-11 -15 -21 -15q-5 0 -20 15l-66 65q-12 12 -12 19z" />
<glyph unicode="&#xd8;" horiz-adv-x="1099" d="M12 2q0 5 6 14l115 158q-29 102 -29 229q0 107 14.5 219.5t44.5 230t80.5 220t117 184t160.5 128.5t204 47q71 0 126.5 -17.5t77.5 -33.5t50 -42l80 109q10 16 18 16q5 0 17 -8l47 -35q1 -1 5.5 -4.5t7.5 -6.5t3 -7q0 -11 -6 -17l-113 -153q29 -120 29 -203 q0 -150 -21.5 -296t-70 -285t-118.5 -244.5t-175.5 -169.5t-232.5 -64q-58 0 -103.5 9t-76 27.5t-44.5 29.5t-32 31l-82 -113q-10 -12 -21 -12q-10 0 -22 12l-43 33q-13 9 -13 14zM260 442q0 -57 6 -86l617 852q-34 86 -164 86q-68 0 -127.5 -30.5t-103 -82.5t-79.5 -117.5 t-60 -140.5t-42 -146.5t-28 -139.5t-14.5 -116t-4.5 -79zM291 203q8 -20 17 -34t26.5 -29t46 -23t68.5 -8q77 0 143 39.5t112 103t83 146.5t59.5 167t37.5 167.5t21 144.5t6 102q0 57 -2 86z" />
<glyph unicode="&#xd9;" horiz-adv-x="1214" d="M147 258q0 66 15 127l188 891h-129q-16 0 -16 12q0 4 6 33l16 61q5 21 25 21h424q16 0 16 -12q0 -4 -6 -33l-16 -62q-5 -20 -25 -20h-135l-186 -891q-17 -79 -17 -115q0 -161 213 -161q273 0 330 276l186 891h-129q-16 0 -16 12q0 4 6 33l16 61q5 21 25 21h424 q16 0 16 -12q0 -4 -6 -33l-16 -62q-5 -20 -25 -20h-135l-190 -891q-15 -72 -37.5 -129.5t-62 -112t-93.5 -91.5t-134 -59t-181 -22q-175 0 -263 68.5t-88 218.5zM537 1712q0 6 8 14l100 105q9 14 23 14q8 0 16 -8l211 -225l3 -3q3 -3 3 -7q0 -9 -8 -17l-45 -45 q-10 -10 -21 -10q-8 0 -14 6l-268 164q-8 4 -8 12z" />
<glyph unicode="&#xda;" horiz-adv-x="1214" d="M147 258q0 66 15 127l188 891h-129q-16 0 -16 12q0 4 6 33l16 61q5 21 25 21h424q16 0 16 -12q0 -4 -6 -33l-16 -62q-5 -20 -25 -20h-135l-186 -891q-17 -79 -17 -115q0 -161 213 -161q273 0 330 276l186 891h-129q-16 0 -16 12q0 4 6 33l16 61q5 21 25 21h424 q16 0 16 -12q0 -4 -6 -33l-16 -62q-5 -20 -25 -20h-135l-190 -891q-15 -72 -37.5 -129.5t-62 -112t-93.5 -91.5t-134 -59t-181 -22q-175 0 -263 68.5t-88 218.5zM629 1593q0 5 10 15l317 223q9 6 19 6q9 0 18 -14l58 -94q0 -1 3 -7t3 -10q0 -13 -15 -18l-354 -160 q-8 -4 -14 -4q-9 0 -17 12l-22 35q-6 9 -6 16z" />
<glyph unicode="&#xdb;" horiz-adv-x="1214" d="M147 258q0 66 15 127l188 891h-129q-16 0 -16 12q0 4 6 33l16 61q5 21 25 21h424q16 0 16 -12q0 -4 -6 -33l-16 -62q-5 -20 -25 -20h-135l-186 -891q-17 -79 -17 -115q0 -161 213 -161q273 0 330 276l186 891h-129q-16 0 -16 12q0 4 6 33l16 61q5 21 25 21h424 q16 0 16 -12q0 -4 -6 -33l-16 -62q-5 -20 -25 -20h-135l-190 -891q-15 -72 -37.5 -129.5t-62 -112t-93.5 -91.5t-134 -59t-181 -22q-175 0 -263 68.5t-88 218.5zM537 1622q0 9 14 18l248 170q11 11 18 11q4 0 7.5 -2t7.5 -6t6 -5l192 -186q10 -10 10 -16q0 -1 -8 -17 l-28 -35q-2 -1 -5.5 -4.5t-6.5 -5.5t-7 -2q-5 0 -20 10l-164 119l-195 -117q-12 -8 -20 -8q-11 0 -15 13l-26 45q-8 12 -8 18z" />
<glyph unicode="&#xdc;" horiz-adv-x="1214" d="M147 258q0 66 15 127l188 891h-129q-16 0 -16 12q0 4 6 33l16 61q5 21 25 21h424q16 0 16 -12q0 -4 -6 -33l-16 -62q-5 -20 -25 -20h-135l-186 -891q-17 -79 -17 -115q0 -161 213 -161q273 0 330 276l186 891h-129q-16 0 -16 12q0 4 6 33l16 61q5 21 25 21h424 q16 0 16 -12q0 -4 -6 -33l-16 -62q-5 -20 -25 -20h-135l-190 -891q-15 -72 -37.5 -129.5t-62 -112t-93.5 -91.5t-134 -59t-181 -22q-175 0 -263 68.5t-88 218.5zM526 1683q0 43 31 74t74 31t73.5 -31t30.5 -74q0 -44 -30.5 -74t-73.5 -30t-74 30.5t-31 73.5zM901 1683 q0 43 31 74t74 31t73.5 -31t30.5 -74q0 -44 -30.5 -74t-73.5 -30t-74 30.5t-31 73.5z" />
<glyph unicode="&#xdd;" horiz-adv-x="985" d="M131 1288q0 4 6 33l17 61q5 21 24 21h363q16 0 16 -12q0 -4 -6 -33l-16 -62q-5 -20 -25 -20h-113l113 -432q15 -56 18 -127h4q28 55 70 121l279 438h-123q-17 0 -17 12q0 1 0.5 3l1 4t2 9.5t3.5 16.5l16 61q5 21 24 21h383q17 0 17 -12q0 -4 -6 -33l-17 -62 q-5 -20 -24 -20h-78l-475 -682l-99 -467h144q16 0 16 -14q0 -2 -1 -7.5t-1 -7.5l-16 -78q-5 -20 -25 -20h-450q-17 0 -17 14q0 2 1 7.5t1 7.5l17 77q5 21 24 21h148l96 467l-186 682h-93q-16 0 -16 12zM514 1593q0 5 10 15l318 223q9 6 18 6q10 0 19 -14l57 -94q0 -1 3 -7 t3 -10q0 -13 -14 -18l-355 -160q-8 -4 -14 -4q-8 0 -16 12l-23 35q-6 9 -6 16z" />
<glyph unicode="&#xde;" d="M-37 12q0 4 6 33l17 61q5 21 24 21h133l244 1149h-137q-17 0 -17 12q0 1 0.5 3l1 4t2 9.5t3.5 16.5l16 61q5 21 25 21h407q17 0 17 -12q0 -1 -0.5 -3l-1 -4t-2 -9.5t-3.5 -16.5l-16 -62q-5 -20 -25 -20h-110l-33 -160h109q37 0 56.5 -0.5t57 -2.5t59.5 -6.5t54.5 -14 t52 -22.5t42.5 -34t35.5 -47t21 -62.5t8.5 -80.5q0 -138 -52 -244t-135 -178q-110 -94 -331 -94h-144l-43 -203h156q16 0 16 -12q0 -4 -6 -33l-16 -62q-5 -20 -25 -20h-450q-17 0 -17 12zM379 467h121q167 0 235 68q57 63 82 137.5t25 130.5q0 55 -13 91.5t-37 54t-49.5 24 t-60.5 6.5h-195z" />
<glyph unicode="&#xdf;" horiz-adv-x="1062" d="M-336 -383q0 5 1.5 11t3.5 12t3 8l23 67q6 17 14 17q2 0 21 -4t50 -8.5t62 -4.5q47 0 84 19t57.5 42.5t36.5 61.5t21.5 59.5t11.5 53.5l232 1165q7 35 12.5 58.5t20 63.5t32 68t48.5 61t69 53t94.5 34t124.5 14q57 0 106.5 -12.5t94 -39t70.5 -75.5t26 -116 q0 -60 -22 -110t-55.5 -82.5t-72 -63t-72 -52.5t-55.5 -50.5t-22 -57.5q0 -38 33.5 -88t92 -116t73.5 -87q84 -106 84 -219q0 -155 -99 -241.5t-247 -86.5q-59 0 -118.5 15t-92.5 32t-33 27q0 13 12 33l31 69q4 11 18 11q11 0 37.5 -12t67.5 -24.5t86 -12.5q79 0 139.5 47 t60.5 127q0 56 -29 111.5t-70.5 101t-83 90.5t-70.5 97.5t-29 104.5q0 50 22 91.5t54.5 68.5t71 56.5t71 55t54.5 65t22 85.5q0 64 -49 102t-125 38q-52 0 -93 -17.5t-64.5 -41t-41 -59.5t-24.5 -60t-13 -56l-231 -1173q-26 -127 -62 -193q-94 -172 -317 -172 q-57 0 -107.5 11t-50.5 28z" />
<glyph unicode="&#xe0;" d="M72 272q0 69 13 147.5t37.5 162.5t65.5 160t92.5 137t122 97t150.5 36q24 0 46 -3.5t37.5 -7t33 -13.5t26 -14.5t23 -18.5t18 -17.5t17 -19.5t14.5 -17l29 64q6 18 18 18h90q6 0 11.5 -4t5.5 -8q0 -3 -4 -23l-138 -635q-14 -77 -14 -137q0 -10 1 -27.5t1 -29.5h135 q19 0 19 -13q0 -2 -1 -7t-1 -7l-17 -72q-3 -11 -8 -15.5t-16 -4.5h-156q-51 0 -78 47q-14 23 -18 48.5t-2 56.5t2 38q-20 -31 -38 -54.5t-50 -56.5t-64 -54.5t-77.5 -37.5t-94.5 -16q-111 0 -171 82t-60 219zM227 281q0 -172 125 -172q62 0 118.5 39t96.5 100.5t67.5 128 t41.5 131.5l59 278q-88 88 -184 88q-64 0 -119.5 -44.5t-92 -112.5t-63 -150t-38 -155.5t-11.5 -130.5zM442 1309q0 5 9 14l100 104q10 15 22 15q9 0 17 -8l211 -226l3 -3q3 -3 3 -7q0 -8 -8 -16l-45 -45q-11 -11 -21 -11q-7 0 -14 7l-268 163q-9 4 -9 13z" />
<glyph unicode="&#xe1;" d="M72 272q0 69 13 147.5t37.5 162.5t65.5 160t92.5 137t122 97t150.5 36q24 0 46 -3.5t37.5 -7t33 -13.5t26 -14.5t23 -18.5t18 -17.5t17 -19.5t14.5 -17l29 64q6 18 18 18h90q6 0 11.5 -4t5.5 -8q0 -3 -4 -23l-138 -635q-14 -77 -14 -137q0 -10 1 -27.5t1 -29.5h135 q19 0 19 -13q0 -2 -1 -7t-1 -7l-17 -72q-3 -11 -8 -15.5t-16 -4.5h-156q-51 0 -78 47q-14 23 -18 48.5t-2 56.5t2 38q-20 -31 -38 -54.5t-50 -56.5t-64 -54.5t-77.5 -37.5t-94.5 -16q-111 0 -171 82t-60 219zM227 281q0 -172 125 -172q62 0 118.5 39t96.5 100.5t67.5 128 t41.5 131.5l59 278q-88 88 -184 88q-64 0 -119.5 -44.5t-92 -112.5t-63 -150t-38 -155.5t-11.5 -130.5zM535 1190q0 4 10 14l317 223q10 7 19 7q8 0 18 -15l57 -94q1 -2 4 -7.5t3 -8.5q0 -6 -5 -11.5t-10 -7.5l-354 -160q-8 -4 -14 -4q-8 0 -17 13l-22 35q-6 9 -6 16z" />
<glyph unicode="&#xe2;" d="M72 272q0 69 13 147.5t37.5 162.5t65.5 160t92.5 137t122 97t150.5 36q24 0 46 -3.5t37.5 -7t33 -13.5t26 -14.5t23 -18.5t18 -17.5t17 -19.5t14.5 -17l29 64q6 18 18 18h90q6 0 11.5 -4t5.5 -8q0 -3 -4 -23l-138 -635q-14 -77 -14 -137q0 -10 1 -27.5t1 -29.5h135 q19 0 19 -13q0 -2 -1 -7t-1 -7l-17 -72q-3 -11 -8 -15.5t-16 -4.5h-156q-51 0 -78 47q-14 23 -18 48.5t-2 56.5t2 38q-20 -31 -38 -54.5t-50 -56.5t-64 -54.5t-77.5 -37.5t-94.5 -16q-111 0 -171 82t-60 219zM227 281q0 -172 125 -172q62 0 118.5 39t96.5 100.5t67.5 128 t41.5 131.5l59 278q-88 88 -184 88q-64 0 -119.5 -44.5t-92 -112.5t-63 -150t-38 -155.5t-11.5 -130.5zM442 1219q0 8 15 18l248 170q10 10 18 10q4 0 7 -2t7 -5.5t6 -4.5l193 -186q10 -10 10 -17l-8 -16l-29 -35q-2 -1 -5 -4.5t-6 -5.5t-7 -2q-6 0 -21 10l-163 119 l-195 -117q-12 -8 -20 -8q-11 0 -15 12l-26 45q-9 14 -9 19z" />
<glyph unicode="&#xe3;" d="M72 272q0 69 13 147.5t37.5 162.5t65.5 160t92.5 137t122 97t150.5 36q24 0 46 -3.5t37.5 -7t33 -13.5t26 -14.5t23 -18.5t18 -17.5t17 -19.5t14.5 -17l29 64q6 18 18 18h90q6 0 11.5 -4t5.5 -8q0 -3 -4 -23l-138 -635q-14 -77 -14 -137q0 -10 1 -27.5t1 -29.5h135 q19 0 19 -13q0 -2 -1 -7t-1 -7l-17 -72q-3 -11 -8 -15.5t-16 -4.5h-156q-51 0 -78 47q-14 23 -18 48.5t-2 56.5t2 38q-20 -31 -38 -54.5t-50 -56.5t-64 -54.5t-77.5 -37.5t-94.5 -16q-111 0 -171 82t-60 219zM227 281q0 -172 125 -172q62 0 118.5 39t96.5 100.5t67.5 128 t41.5 131.5l59 278q-88 88 -184 88q-64 0 -119.5 -44.5t-92 -112.5t-63 -150t-38 -155.5t-11.5 -130.5zM352 1241q1 12 19 36.5t46.5 51t70.5 46.5t83 20q49 0 117 -41q62 -43 98 -43q27 0 49 13t33 28t22 28t19 13q5 0 13 -4l49 -35q12 -12 12 -19t-17 -30.5t-44.5 -51 t-70 -48.5t-85.5 -21q-53 0 -115 43q-3 2 -16 10t-16.5 10t-15 7.5t-18 7.5t-16.5 4t-20 2q-34 0 -59 -21t-40.5 -42t-25.5 -21q-8 0 -10 2l-49 39q-13 9 -13 16z" />
<glyph unicode="&#xe4;" d="M72 272q0 69 13 147.5t37.5 162.5t65.5 160t92.5 137t122 97t150.5 36q24 0 46 -3.5t37.5 -7t33 -13.5t26 -14.5t23 -18.5t18 -17.5t17 -19.5t14.5 -17l29 64q6 18 18 18h90q6 0 11.5 -4t5.5 -8q0 -3 -4 -23l-138 -635q-14 -77 -14 -137q0 -10 1 -27.5t1 -29.5h135 q19 0 19 -13q0 -2 -1 -7t-1 -7l-17 -72q-3 -11 -8 -15.5t-16 -4.5h-156q-51 0 -78 47q-14 23 -18 48.5t-2 56.5t2 38q-20 -31 -38 -54.5t-50 -56.5t-64 -54.5t-77.5 -37.5t-94.5 -16q-111 0 -171 82t-60 219zM227 281q0 -172 125 -172q62 0 118.5 39t96.5 100.5t67.5 128 t41.5 131.5l59 278q-88 88 -184 88q-64 0 -119.5 -44.5t-92 -112.5t-63 -150t-38 -155.5t-11.5 -130.5zM401 1280q0 43 31 73.5t74 30.5t73.5 -30.5t30.5 -73.5q0 -44 -30.5 -74t-73.5 -30t-74 30.5t-31 73.5zM776 1280q0 43 31 73.5t74 30.5t73.5 -30.5t30.5 -73.5 q0 -44 -30.5 -74t-73.5 -30t-74 30.5t-31 73.5z" />
<glyph unicode="&#xe5;" d="M72 272q0 69 13 147.5t37.5 162.5t65.5 160t92.5 137t122 97t150.5 36q24 0 46 -3.5t37.5 -7t33 -13.5t26 -14.5t23 -18.5t18 -17.5t17 -19.5t14.5 -17l29 64q6 18 18 18h90q6 0 11.5 -4t5.5 -8q0 -3 -4 -23l-138 -635q-14 -77 -14 -137q0 -10 1 -27.5t1 -29.5h135 q19 0 19 -13q0 -2 -1 -7t-1 -7l-17 -72q-3 -11 -8 -15.5t-16 -4.5h-156q-51 0 -78 47q-14 23 -18 48.5t-2 56.5t2 38q-20 -31 -38 -54.5t-50 -56.5t-64 -54.5t-77.5 -37.5t-94.5 -16q-111 0 -171 82t-60 219zM227 281q0 -172 125 -172q62 0 118.5 39t96.5 100.5t67.5 128 t41.5 131.5l59 278q-88 88 -184 88q-64 0 -119.5 -44.5t-92 -112.5t-63 -150t-38 -155.5t-11.5 -130.5zM471 1284q0 73 57 125.5t129 52.5q76 0 131.5 -52t55.5 -128q0 -74 -55.5 -127t-131.5 -53t-131 53t-55 129zM569 1282q0 -37 26 -65.5t62 -28.5q37 0 62.5 28t25.5 66 q0 39 -25 66.5t-63 27.5q-37 0 -62.5 -28t-25.5 -66z" />
<glyph unicode="&#xe6;" horiz-adv-x="1402" d="M33 219q0 55 14 101.5t37 80.5t57 60.5t70.5 44t81 30.5t84 19.5t85 10.5t78.5 5t69 2h7l17 80q1 3 5.5 25.5t5 28.5t2.5 25.5t0 29.5t-6.5 25.5t-12.5 29.5q-32 57 -127 57q-54 0 -111 -14t-94.5 -28.5t-42.5 -14.5q-11 0 -16 23l-19 55q-4 12 -4 20q0 31 119 64t198 33 q169 0 232 -150q73 71 143.5 110.5t171.5 39.5q132 0 201.5 -71.5t69.5 -190.5q0 -47 -12 -86t-30.5 -67.5t-50.5 -51t-62 -37.5t-76 -26t-82 -17t-89.5 -10t-89 -5.5t-89.5 -2.5q-26 -1 -38 -1q-1 -12 -5.5 -57t-4.5 -70q0 -204 186 -204q62 0 118 15.5t86.5 33.5 t55.5 33.5t33 15.5q11 0 19 -12l49 -74q4 -8 4 -10q0 -8 -20 -25t-57 -37.5t-82.5 -39.5t-104.5 -31.5t-115 -12.5q-109 0 -184.5 52t-108.5 143q-20 -26 -31.5 -40t-47.5 -48t-69 -53.5t-84 -36.5t-104 -17q-105 0 -167 65t-62 183zM188 231q0 -57 28 -89.5t79 -32.5 q102 0 173.5 62.5t94.5 158.5l27 116q-160 -3 -236 -24q-165 -48 -166 -191zM752 573q203 8 246 14q150 18 188 87q16 29 16 69q0 66 -37.5 104t-109.5 38q-208 0 -291 -270q-2 -6 -12 -42z" />
<glyph unicode="&#xe7;" horiz-adv-x="796" d="M66 313q0 130 35 253t99.5 223.5t167 161.5t226.5 61q24 0 60.5 -5.5t76.5 -15.5t68 -29t28 -42q0 -5 -4 -25l-41 -195q-6 -22 -26 -22h-90q-19 0 -19 14q0 7 4 23l31 139l-12 4q-12 4 -24 7t-31 6t-37 3q-71 0 -132 -36t-101.5 -93.5t-69 -132t-41.5 -150t-13 -147.5 q0 -94 45.5 -147t139.5 -53q46 0 89 13t68 29t46.5 29t29.5 13q13 0 16 -9l33 -71q4 -4 4 -17q0 -15 -45.5 -45t-121 -57t-142.5 -27l-27 -92q22 -3 31 -4.5t31 -9t32.5 -17.5t20.5 -30t10 -47q0 -75 -58 -122.5t-163 -47.5q-55 0 -91 7.5t-36 20.5q0 9 2 13l23 67 q5 10 14 10q1 0 32.5 -8t67.5 -8q90 0 90 51q0 17 -9 28t-26 15.5t-33 6t-38 1.5q-31 0 -31 19q0 3 1 6.5t1 5.5l43 144q-204 50 -204 331z" />
<glyph unicode="&#xe8;" horiz-adv-x="909" d="M68 346q0 174 65 326t185 246t268 94q132 0 201 -71.5t69 -190.5q0 -57 -16 -105t-41.5 -82t-65 -62t-78 -45t-90 -30t-91.5 -19.5t-92.5 -10t-82 -4.5t-70.5 -1h-6q0 -9 -1 -26t-1 -25q0 -225 193 -225q62 0 118 15.5t86.5 33.5t55.5 33.5t33 15.5q10 0 18 -12l49 -74 q4 -8 4 -10q0 -8 -20 -25t-57 -37.5t-82.5 -39.5t-104.5 -31.5t-115 -12.5q-168 0 -249.5 99t-81.5 276zM242 518q469 0 469 225q0 66 -38 104t-110 38q-237 0 -321 -367zM385 1309q0 6 8 14l101 104q10 15 22 15q8 0 16 -8l211 -226l3 -3q4 -3 4 -7q0 -7 -9 -16l-45 -45 q-11 -11 -20 -11q-7 0 -14 7l-269 163q-8 4 -8 13z" />
<glyph unicode="&#xe9;" horiz-adv-x="909" d="M68 346q0 174 65 326t185 246t268 94q132 0 201 -71.5t69 -190.5q0 -57 -16 -105t-41.5 -82t-65 -62t-78 -45t-90 -30t-91.5 -19.5t-92.5 -10t-82 -4.5t-70.5 -1h-6q0 -9 -1 -26t-1 -25q0 -225 193 -225q62 0 118 15.5t86.5 33.5t55.5 33.5t33 15.5q10 0 18 -12l49 -74 q4 -8 4 -10q0 -8 -20 -25t-57 -37.5t-82.5 -39.5t-104.5 -31.5t-115 -12.5q-168 0 -249.5 99t-81.5 276zM242 518q469 0 469 225q0 66 -38 104t-110 38q-237 0 -321 -367zM477 1190q0 4 10 14l318 223q11 7 18 7q9 0 19 -15l57 -94q1 -1 3.5 -7t2.5 -9q0 -14 -14 -19 l-354 -160q-8 -4 -15 -4t-16 13l-23 35q-6 9 -6 16z" />
<glyph unicode="&#xea;" horiz-adv-x="909" d="M68 346q0 174 65 326t185 246t268 94q132 0 201 -71.5t69 -190.5q0 -57 -16 -105t-41.5 -82t-65 -62t-78 -45t-90 -30t-91.5 -19.5t-92.5 -10t-82 -4.5t-70.5 -1h-6q0 -9 -1 -26t-1 -25q0 -225 193 -225q62 0 118 15.5t86.5 33.5t55.5 33.5t33 15.5q10 0 18 -12l49 -74 q4 -8 4 -10q0 -8 -20 -25t-57 -37.5t-82.5 -39.5t-104.5 -31.5t-115 -12.5q-168 0 -249.5 99t-81.5 276zM242 518q469 0 469 225q0 66 -38 104t-110 38q-237 0 -321 -367zM385 1219q0 9 14 18l248 170q10 10 19 10q4 0 7 -2t7 -5.5t6 -4.5l193 -186q10 -10 10 -17l-8 -16 l-29 -35q-2 -1 -5 -4.5t-6 -5.5t-7 -2q-6 0 -21 10l-164 119l-194 -117q-12 -8 -21 -8q-10 0 -14 12l-27 45q-8 12 -8 19z" />
<glyph unicode="&#xeb;" horiz-adv-x="909" d="M68 346q0 174 65 326t185 246t268 94q132 0 201 -71.5t69 -190.5q0 -57 -16 -105t-41.5 -82t-65 -62t-78 -45t-90 -30t-91.5 -19.5t-92.5 -10t-82 -4.5t-70.5 -1h-6q0 -9 -1 -26t-1 -25q0 -225 193 -225q62 0 118 15.5t86.5 33.5t55.5 33.5t33 15.5q10 0 18 -12l49 -74 q4 -8 4 -10q0 -8 -20 -25t-57 -37.5t-82.5 -39.5t-104.5 -31.5t-115 -12.5q-168 0 -249.5 99t-81.5 276zM242 518q469 0 469 225q0 66 -38 104t-110 38q-237 0 -321 -367zM344 1280q0 43 31 73.5t74 30.5t73.5 -30.5t30.5 -73.5q0 -44 -30.5 -74t-73.5 -30t-74 30.5 t-31 73.5zM719 1280q0 43 30.5 73.5t73.5 30.5t74 -30.5t31 -73.5q0 -44 -31 -74t-74 -30t-73.5 30.5t-30.5 73.5z" />
<glyph unicode="&#xec;" horiz-adv-x="569" d="M92 877q0 3 6 32l11 49q3 14 8 19.5t18 5.5h273q22 0 27 -2.5t5 -13.5q0 -5 -1.5 -12.5t-4 -19t-4.5 -20.5l-168 -796h135q19 0 19 -13q0 -2 -1 -7t-1 -7l-17 -72q-3 -11 -8 -15.5t-16 -4.5h-156q-43 0 -72.5 24.5t-29.5 67.5q0 33 4 47l153 725h-163q-17 0 -17 13z M184 1309q0 5 9 14l100 104q10 15 22 15q9 0 17 -8l211 -226l3 -3q3 -3 3 -7q0 -8 -8 -16l-45 -45q-11 -11 -21 -11q-7 0 -14 7l-268 163q-9 4 -9 13z" />
<glyph unicode="&#xed;" horiz-adv-x="569" d="M92 877q0 3 6 32l11 49q3 14 8 19.5t18 5.5h273q22 0 27 -2.5t5 -13.5q0 -5 -1.5 -12.5t-4 -19t-4.5 -20.5l-168 -796h135q19 0 19 -13q0 -2 -1 -7t-1 -7l-17 -72q-3 -11 -8 -15.5t-16 -4.5h-156q-43 0 -72.5 24.5t-29.5 67.5q0 33 4 47l153 725h-163q-17 0 -17 13z M215 1190q0 4 10 14l318 223q11 7 18 7q9 0 19 -15l57 -94q1 -1 3.5 -7t2.5 -9q0 -14 -14 -19l-355 -160q-8 -4 -14 -4q-7 0 -16 13l-23 35q-6 9 -6 16z" />
<glyph unicode="&#xee;" horiz-adv-x="569" d="M92 877q0 3 6 32l11 49q3 14 8 19.5t18 5.5h273q22 0 27 -2.5t5 -13.5q0 -5 -1.5 -12.5t-4 -19t-4.5 -20.5l-168 -796h135q19 0 19 -13q0 -2 -1 -7t-1 -7l-17 -72q-3 -11 -8 -15.5t-16 -4.5h-156q-43 0 -72.5 24.5t-29.5 67.5q0 33 4 47l153 725h-163q-17 0 -17 13z M154 1219q0 9 14 18l248 170q10 10 18 10q3 0 21 -12l192 -186q10 -10 10 -17l-8 -16l-28 -35q-2 -1 -5.5 -4.5t-6.5 -5.5t-7 -2q-5 0 -20 10l-164 119l-195 -117q-12 -8 -20 -8q-11 0 -15 12l-26 45q-8 12 -8 19z" />
<glyph unicode="&#xef;" horiz-adv-x="569" d="M92 877q0 3 6 32l11 49q3 14 8 19.5t18 5.5h273q22 0 27 -2.5t5 -13.5q0 -5 -1.5 -12.5t-4 -19t-4.5 -20.5l-168 -796h135q19 0 19 -13q0 -2 -1 -7t-1 -7l-17 -72q-3 -11 -8 -15.5t-16 -4.5h-156q-43 0 -72.5 24.5t-29.5 67.5q0 33 4 47l153 725h-163q-17 0 -17 13z M113 1280q0 43 30.5 73.5t73.5 30.5t74 -30.5t31 -73.5q0 -44 -31 -74t-74 -30t-73.5 30.5t-30.5 73.5zM487 1280q0 43 31 73.5t74 30.5t73.5 -30.5t30.5 -73.5q0 -44 -30.5 -74t-73.5 -30t-74 30.5t-31 73.5z" />
<glyph unicode="&#xf0;" horiz-adv-x="985" d="M70 309q0 149 41.5 282t109.5 224t155.5 144t178.5 53q38 0 69 -7.5t52.5 -22.5t32 -24.5t24.5 -25.5l4 4q-14 128 -57 272l-178 -51q-6 -2 -15 -2q-10 0 -14 19l-16 49q-4 8 -4 14q0 4 2 6t4 3t7 2.5t7 2.5l184 56q-2 8 -17.5 55t-29.5 89.5t-14 43.5q0 14 33 14h76 q18 0 33.5 -27t31 -75t21.5 -61l161 49q5 1 14.5 4.5t12.5 3.5q6 0 12 -21l15 -47q4 -12 4 -16q0 -10 -15 -14l-172 -52q1 -5 15 -58t24 -99.5t23 -115.5t20.5 -144.5t7.5 -147.5q0 -141 -36 -269.5t-102 -228.5t-167.5 -159.5t-222.5 -59.5q-315 0 -315 338zM225 315 q0 -95 39.5 -150.5t138.5 -55.5q75 0 137 38.5t101.5 99t66.5 137t38.5 149t11.5 139.5q0 202 -183 202q-80 0 -144 -43t-101 -106t-62 -142.5t-34 -145.5t-9 -122z" />
<glyph unicode="&#xf1;" horiz-adv-x="1099" d="M100 12q0 4 6 33l142 670q14 77 14 100q0 8 -1 24.5t-1 24.5h-141q-17 0 -17 13q0 1 0.5 2.5t1 4t2 9t3.5 16.5l10 49q3 14 8 19.5t18 5.5h211q45 0 45 -135q0 -35 -2 -49l4 -4q156 217 371 217q83 0 135 -42.5t52 -121.5q0 -44 -21 -143l-123 -586h135q19 0 19 -13 q0 -2 -1 -7t-1 -7l-17 -72q-3 -11 -8 -15.5t-16 -4.5h-156q-44 0 -73 24.5t-29 67.5q0 19 4 47l119 566q12 54 12 81q0 88 -92 88q-63 0 -120.5 -29.5t-97.5 -74.5t-73 -102t-51.5 -107t-28.5 -94l-94 -447q-6 -20 -25 -20h-106q-17 0 -17 12zM389 1241q1 12 19 36.5 t46.5 51t70.5 46.5t83 20q49 0 117 -41q62 -43 98 -43q27 0 49 13t33 28t22 28t19 13q4 0 12 -4l50 -35q12 -12 12 -19t-17 -30.5t-44.5 -51t-70 -48.5t-85.5 -21q-53 0 -115 43q-3 2 -16 10t-16.5 10t-15 7.5t-18 7.5t-16.5 4t-20 2q-34 0 -59 -21t-40.5 -42t-25.5 -21 q-8 0 -10 2l-50 39q-12 8 -12 16z" />
<glyph unicode="&#xf2;" horiz-adv-x="985" d="M68 313q0 103 20.5 202t63 189t103.5 158.5t148 109t189 40.5q149 0 231 -87t82 -259q0 -99 -21 -197.5t-65 -188t-105.5 -158.5t-148.5 -110t-188 -41q-309 0 -309 342zM223 317q0 -208 178 -208q70 0 129.5 36.5t99 94.5t67.5 132.5t40.5 148.5t12.5 143 q0 107 -49 158.5t-132 51.5q-88 0 -157.5 -52.5t-109 -137.5t-59.5 -179t-20 -188zM422 1309q0 6 8 14l100 104q10 15 23 15q8 0 16 -8l211 -226l3 -3q3 -3 3 -7q0 -8 -8 -16l-45 -45q-11 -11 -20 -11q-8 0 -15 7l-268 163q-8 4 -8 13z" />
<glyph unicode="&#xf3;" horiz-adv-x="985" d="M68 313q0 103 20.5 202t63 189t103.5 158.5t148 109t189 40.5q149 0 231 -87t82 -259q0 -99 -21 -197.5t-65 -188t-105.5 -158.5t-148.5 -110t-188 -41q-309 0 -309 342zM223 317q0 -208 178 -208q70 0 129.5 36.5t99 94.5t67.5 132.5t40.5 148.5t12.5 143 q0 107 -49 158.5t-132 51.5q-88 0 -157.5 -52.5t-109 -137.5t-59.5 -179t-20 -188zM514 1190q0 4 10 14l318 223q10 7 18 7q9 0 19 -15l57 -94q0 -1 3 -7t3 -9q0 -14 -14 -19l-355 -160q-8 -4 -14 -4q-7 0 -16 13l-23 35q-6 9 -6 16z" />
<glyph unicode="&#xf4;" horiz-adv-x="985" d="M68 313q0 103 20.5 202t63 189t103.5 158.5t148 109t189 40.5q149 0 231 -87t82 -259q0 -99 -21 -197.5t-65 -188t-105.5 -158.5t-148.5 -110t-188 -41q-309 0 -309 342zM223 317q0 -208 178 -208q70 0 129.5 36.5t99 94.5t67.5 132.5t40.5 148.5t12.5 143 q0 107 -49 158.5t-132 51.5q-88 0 -157.5 -52.5t-109 -137.5t-59.5 -179t-20 -188zM391 1219q0 8 15 18l247 170q10 10 19 10q4 0 7 -2t7 -5.5t6 -4.5l193 -186q10 -10 10 -17l-8 -16l-29 -35q-2 -1 -5 -4.5t-6 -5.5t-7 -2q-6 0 -21 10l-164 119l-194 -117q-12 -8 -21 -8 q-10 0 -14 12l-27 45q-8 12 -8 19z" />
<glyph unicode="&#xf5;" horiz-adv-x="985" d="M68 313q0 103 20.5 202t63 189t103.5 158.5t148 109t189 40.5q149 0 231 -87t82 -259q0 -99 -21 -197.5t-65 -188t-105.5 -158.5t-148.5 -110t-188 -41q-309 0 -309 342zM223 317q0 -208 178 -208q70 0 129.5 36.5t99 94.5t67.5 132.5t40.5 148.5t12.5 143 q0 107 -49 158.5t-132 51.5q-88 0 -157.5 -52.5t-109 -137.5t-59.5 -179t-20 -188zM332 1241q1 12 19 36.5t46.5 51t70.5 46.5t83 20q49 0 117 -41q62 -43 98 -43q27 0 49 13t33 28t22 28t19 13q4 0 12 -4l49 -35q2 -2 4.5 -4t3.5 -3t2.5 -3t2 -4t0.5 -5q0 -7 -17.5 -30.5 t-45 -51t-70 -48.5t-85.5 -21q-52 0 -114 43q-3 2 -12 7.5t-12.5 7.5t-11.5 6.5t-12.5 6.5t-12 5t-13.5 4.5t-13.5 2.5t-15.5 1q-34 0 -59 -21t-40.5 -42t-25.5 -21q-8 0 -10 2l-49 39q-12 8 -12 16z" />
<glyph unicode="&#xf6;" horiz-adv-x="985" d="M68 313q0 103 20.5 202t63 189t103.5 158.5t148 109t189 40.5q149 0 231 -87t82 -259q0 -99 -21 -197.5t-65 -188t-105.5 -158.5t-148.5 -110t-188 -41q-309 0 -309 342zM223 317q0 -208 178 -208q70 0 129.5 36.5t99 94.5t67.5 132.5t40.5 148.5t12.5 143 q0 107 -49 158.5t-132 51.5q-88 0 -157.5 -52.5t-109 -137.5t-59.5 -179t-20 -188zM381 1280q0 43 30.5 73.5t73.5 30.5t74 -30.5t31 -73.5q0 -44 -31 -74t-74 -30t-73.5 30.5t-30.5 73.5zM756 1280q0 43 30.5 73.5t73.5 30.5t74 -30.5t31 -73.5q0 -44 -31 -74t-74 -30 t-73.5 30.5t-30.5 73.5z" />
<glyph unicode="&#xf7;" d="M45 475v90q0 19 4.5 24t22.5 5h874q19 0 24 -5t5 -24v-90q0 -19 -5 -24t-24 -5h-874q-18 0 -22.5 5t-4.5 24zM395 166q0 47 34 81t81 34t81 -34t34 -81t-34.5 -81t-80.5 -34q-47 0 -81 34t-34 81zM395 874q0 47 34 81t81 34t81 -34t34 -81t-34.5 -80.5t-80.5 -33.5 q-47 0 -81 33.5t-34 80.5z" />
<glyph unicode="&#xf8;" horiz-adv-x="985" d="M25 -39q0 6 4 10l88 123q-49 83 -49 219q0 103 20.5 202t63 189t103.5 158.5t148 109t189 40.5q107 0 164 -37l75 106q11 11 13 11t6.5 -3t5.5 -4l57 -41q9 -9 9 -14q0 -4 -4 -12l-80 -111q34 -47 50.5 -101t16.5 -140q0 -99 -21 -197.5t-65 -188t-105.5 -158.5 t-148.5 -110t-188 -41q-64 0 -105.5 12t-83.5 37l-77 -108q-10 -10 -15 -10q-4 0 -10 6l-53 39q-8 8 -8 14zM223 317q0 -63 6 -90l430 633q-24 19 -90 19q-79 0 -146 -51t-109.5 -133t-66.5 -180.5t-24 -197.5zM279 131q56 -27 122 -27q70 0 129.5 37t99 96t67.5 134 t40.5 149.5t12.5 143.5q0 88 -19 131z" />
<glyph unicode="&#xf9;" horiz-adv-x="1099" d="M100 877q0 3 6 32l11 49q3 14 8 19.5t18 5.5h277q14 -3 14 -14q0 -5 -4.5 -23t-5.5 -26l-117 -572q-22 -81 -22 -125q0 -114 104 -114q68 0 138 40.5t102 81.5q11 14 20.5 29.5t17 27.5t15 30t12 27t11 30t8.5 27t7.5 30t6.5 27t6.5 29.5t5.5 27.5l95 432q3 10 7.5 14 t16.5 7l98 22q3 0 12 3t13 3q8 0 8 -8q0 -2 -4 -22l-151 -699q-15 -82 -15 -100q0 -8 1 -24.5t1 -24.5h142q16 0 16 -13q0 -3 -6 -32l-10 -49q-3 -14 -8.5 -19.5t-18.5 -5.5h-117q-68 0 -93 20t-32 60q-4 21 -4 84h-4q-32 -40 -63.5 -70.5t-75.5 -60.5t-99.5 -46t-119.5 -16 q-79 0 -139 56.5t-60 158.5q0 16 3 36t8 44.5t7 38.5l119 559h-149q-17 0 -17 13zM479 1309q0 6 8 14l101 104q10 15 22 15q9 0 17 -8l211 -226l3 -3q3 -3 3 -7q0 -8 -8 -16l-45 -45q-11 -11 -21 -11q-7 0 -14 7l-269 163q-8 4 -8 13z" />
<glyph unicode="&#xfa;" horiz-adv-x="1099" d="M100 877q0 3 6 32l11 49q3 14 8 19.5t18 5.5h277q14 -3 14 -14q0 -5 -4.5 -23t-5.5 -26l-117 -572q-22 -81 -22 -125q0 -114 104 -114q68 0 138 40.5t102 81.5q11 14 20.5 29.5t17 27.5t15 30t12 27t11 30t8.5 27t7.5 30t6.5 27t6.5 29.5t5.5 27.5l95 432q3 10 7.5 14 t16.5 7l98 22q3 0 12 3t13 3q8 0 8 -8q0 -2 -4 -22l-151 -699q-15 -82 -15 -100q0 -8 1 -24.5t1 -24.5h142q16 0 16 -13q0 -3 -6 -32l-10 -49q-3 -14 -8.5 -19.5t-18.5 -5.5h-117q-68 0 -93 20t-32 60q-4 21 -4 84h-4q-32 -40 -63.5 -70.5t-75.5 -60.5t-99.5 -46t-119.5 -16 q-79 0 -139 56.5t-60 158.5q0 16 3 36t8 44.5t7 38.5l119 559h-149q-17 0 -17 13zM571 1190q0 3 11 14l317 223q10 7 19 7q8 0 18 -15l57 -94q1 -1 3.5 -7t2.5 -9q0 -14 -14 -19l-354 -160q-8 -4 -15 -4t-16 13l-22 35q-7 10 -7 16z" />
<glyph unicode="&#xfb;" horiz-adv-x="1099" d="M100 877q0 3 6 32l11 49q3 14 8 19.5t18 5.5h277q14 -3 14 -14q0 -5 -4.5 -23t-5.5 -26l-117 -572q-22 -81 -22 -125q0 -114 104 -114q68 0 138 40.5t102 81.5q11 14 20.5 29.5t17 27.5t15 30t12 27t11 30t8.5 27t7.5 30t6.5 27t6.5 29.5t5.5 27.5l95 432q3 10 7.5 14 t16.5 7l98 22q3 0 12 3t13 3q8 0 8 -8q0 -2 -4 -22l-151 -699q-15 -82 -15 -100q0 -8 1 -24.5t1 -24.5h142q16 0 16 -13q0 -3 -6 -32l-10 -49q-3 -14 -8.5 -19.5t-18.5 -5.5h-117q-68 0 -93 20t-32 60q-4 21 -4 84h-4q-32 -40 -63.5 -70.5t-75.5 -60.5t-99.5 -46t-119.5 -16 q-79 0 -139 56.5t-60 158.5q0 16 3 36t8 44.5t7 38.5l119 559h-149q-17 0 -17 13zM438 1219q0 8 15 18l247 170q10 10 19 10q4 0 7 -2t7 -5.5t6 -4.5l193 -186q10 -10 10 -17l-8 -16l-29 -35q-2 -1 -5 -4.5t-6 -5.5t-7 -2q-6 0 -21 10l-164 119l-194 -117q-12 -8 -21 -8 q-10 0 -14 12l-27 45q-8 12 -8 19z" />
<glyph unicode="&#xfc;" horiz-adv-x="1099" d="M100 877q0 3 6 32l11 49q3 14 8 19.5t18 5.5h277q14 -3 14 -14q0 -5 -4.5 -23t-5.5 -26l-117 -572q-22 -81 -22 -125q0 -114 104 -114q68 0 138 40.5t102 81.5q11 14 20.5 29.5t17 27.5t15 30t12 27t11 30t8.5 27t7.5 30t6.5 27t6.5 29.5t5.5 27.5l95 432q3 10 7.5 14 t16.5 7l98 22q3 0 12 3t13 3q8 0 8 -8q0 -2 -4 -22l-151 -699q-15 -82 -15 -100q0 -8 1 -24.5t1 -24.5h142q16 0 16 -13q0 -3 -6 -32l-10 -49q-3 -14 -8.5 -19.5t-18.5 -5.5h-117q-68 0 -93 20t-32 60q-4 21 -4 84h-4q-32 -40 -63.5 -70.5t-75.5 -60.5t-99.5 -46t-119.5 -16 q-79 0 -139 56.5t-60 158.5q0 16 3 36t8 44.5t7 38.5l119 559h-149q-17 0 -17 13zM408 1280q0 43 30.5 73.5t73.5 30.5t73.5 -30.5t30.5 -73.5q0 -44 -30.5 -74t-73.5 -30t-73.5 30.5t-30.5 73.5zM782 1280q0 43 31 73.5t74 30.5t73.5 -30.5t30.5 -73.5q0 -44 -30.5 -74 t-73.5 -30t-74 30.5t-31 73.5z" />
<glyph unicode="&#xfd;" horiz-adv-x="948" d="M-131 -344q0 5 10 20l47 78q7 10 17 10q8 0 30.5 -14t57.5 -28.5t73 -14.5q124 0 213 164l70 129h-74q-12 0 -17.5 4t-6.5 16l-123 844h-117q-18 0 -18 15q0 2 1 6t1 6l14 70q5 22 27 22h217q10 0 14 -3.5t6 -14.5l115 -885h4l393 905q3 12 13 12q4 0 16 -4l96 -39 q10 -5 10 -12q0 -3 -2 -8.5t-2 -7.5l-360 -805q-5 -12 -29 -67.5t-38 -86t-44.5 -88.5t-55.5 -93.5t-65 -81t-78.5 -71.5t-89 -44.5t-104.5 -18.5q-76 0 -148.5 31.5t-72.5 54.5zM496 1190q0 4 10 14l317 223q11 7 19 7t18 -15l58 -94q0 -1 3 -7t3 -9q0 -6 -5 -11.5 t-10 -7.5l-354 -160q-8 -4 -14 -4q-8 0 -17 13l-22 35q-6 9 -6 16z" />
<glyph unicode="&#xfe;" horiz-adv-x="985" d="M-152 -401q0 1 0.5 2.5t1 4t2 9t3.5 16.5l10 50q3 14 8 19t18 5h107l346 1645h-143q-17 0 -17 12q0 4 6 33l11 49q3 14 8 19t18 5h271q14 -3 14 -14q0 -5 -4.5 -23.5t-5.5 -25.5l-107 -514l4 -4q39 36 69 58.5t89 44.5t125 22q112 0 171.5 -76.5t59.5 -226.5 q0 -107 -18 -211t-57 -200t-94.5 -168.5t-136.5 -115.5t-177 -43q-50 0 -97 13.5t-64 23t-54 31.5l-68 -334h142q18 0 18 -12q0 -9 -4 -25l-14 -61q-3 -21 -25 -21h-399q-17 0 -17 13zM244 170q3 -2 18 -11t19.5 -11.5l18 -10t20.5 -10t20.5 -7t25 -6.5t27 -3.5t31.5 -1.5 q73 0 132.5 41t96 104t61 144.5t34.5 156.5t10 145q0 174 -113 174q-122 0 -211 -107t-121 -269z" />
<glyph unicode="&#xff;" horiz-adv-x="948" d="M-131 -344q0 5 10 20l47 78q7 10 17 10q8 0 30.5 -14t57.5 -28.5t73 -14.5q124 0 213 164l70 129h-74q-12 0 -17.5 4t-6.5 16l-123 844h-117q-18 0 -18 15q0 2 1 6t1 6l14 70q5 22 27 22h217q10 0 14 -3.5t6 -14.5l115 -885h4l393 905q3 12 13 12q4 0 16 -4l96 -39 q10 -5 10 -12q0 -3 -2 -8.5t-2 -7.5l-360 -805q-5 -12 -29 -67.5t-38 -86t-44.5 -88.5t-55.5 -93.5t-65 -81t-78.5 -71.5t-89 -44.5t-104.5 -18.5q-76 0 -148.5 31.5t-72.5 54.5zM332 1280q0 43 30.5 73.5t73.5 30.5t74 -30.5t31 -73.5q0 -44 -31 -74t-74 -30t-73.5 30.5 t-30.5 73.5zM707 1280q0 43 30.5 73.5t73.5 30.5t73.5 -30.5t30.5 -73.5q0 -44 -30.5 -74t-73.5 -30t-73.5 30.5t-30.5 73.5z" />
<glyph unicode="&#x152;" horiz-adv-x="1593" d="M104 408q0 80 10.5 170t34 189.5t58 194t86.5 180.5t115 150t147.5 102t179.5 38q151 0 232 -109l12 57q5 23 31 23h628q21 0 21 -14q0 -4 -2 -10.5t-2 -10.5l-58 -270q-6 -23 -24 -23h-94q-17 0 -17 10q0 3 1 9.5t1 9.5l33 162h-387l-100 -469h424q20 0 20 -17 q0 -10 -2 -14l-16 -82q-5 -25 -31 -25h-424l-113 -522h404l41 195q5 22 26 22h95q16 0 16 -12q0 -10 -2 -14l-64 -303q-3 -14 -9 -19.5t-21 -5.5h-643q-21 0 -21 12q0 11 2 19l13 55l-5 4q-25 -25 -57.5 -48.5t-96 -47t-130.5 -23.5q-312 0 -312 437zM272 401 q0 -152 45.5 -222t141.5 -70q136 0 276 120l201 945q-91 120 -217 120q-83 -1 -153.5 -51.5t-117.5 -132.5t-82.5 -178.5t-55 -199t-29 -185.5t-9.5 -146z" />
<glyph unicode="&#x153;" horiz-adv-x="1517" d="M68 309q0 128 33.5 251t96 225t162.5 164.5t222 62.5q61 0 110.5 -15.5t77.5 -36t50.5 -52t31 -50.5t16.5 -45q64 99 150 149t176 50q132 0 201 -71.5t69 -190.5q0 -338 -517 -357q-30 -1 -87 -2q0 -9 -1 -26t-1 -25q0 -225 170 -225q60 0 114.5 15.5t84.5 33.5t55 33.5 t33 15.5q10 0 18 -12l49 -74q4 -8 4 -10q0 -8 -19.5 -25t-56 -37.5t-81.5 -39.5t-102.5 -31.5t-112.5 -12.5q-215 0 -283 197q-17 -27 -45 -56t-72.5 -63t-109 -56t-135.5 -22q-301 0 -301 338zM223 315q0 -206 172 -206q69 0 128 37t98 96t66.5 134t39.5 148.5t12 141.5 q0 106 -47 156t-131 52q-86 0 -153.5 -54t-106 -139t-58.5 -179.5t-20 -186.5zM879 518q440 0 440 225q0 66 -38 104t-110 38q-219 0 -292 -367z" />
<glyph unicode="&#x178;" horiz-adv-x="985" d="M131 1288q0 4 6 33l17 61q5 21 24 21h363q16 0 16 -12q0 -4 -6 -33l-16 -62q-5 -20 -25 -20h-113l113 -432q15 -56 18 -127h4q28 55 70 121l279 438h-123q-17 0 -17 12q0 1 0.5 3l1 4t2 9.5t3.5 16.5l16 61q5 21 24 21h383q17 0 17 -12q0 -4 -6 -33l-17 -62 q-5 -20 -24 -20h-78l-475 -682l-99 -467h144q16 0 16 -14q0 -2 -1 -7.5t-1 -7.5l-16 -78q-5 -20 -25 -20h-450q-17 0 -17 14q0 2 1 7.5t1 7.5l17 77q5 21 24 21h148l96 467l-186 682h-93q-16 0 -16 12zM412 1683q0 43 30.5 74t73.5 31t74 -31t31 -74q0 -44 -31 -74t-74 -30 t-73.5 30.5t-30.5 73.5zM786 1683q0 43 31 74t74 31t73.5 -31t30.5 -74q0 -44 -30.5 -74t-73.5 -30t-74 30.5t-31 73.5z" />
<glyph unicode="&#x2c6;" horiz-adv-x="681" d="M270 1219q0 8 15 18l247 170q10 10 19 10q4 0 7 -2t7 -5.5t6 -4.5l193 -186q10 -10 10 -17l-8 -16l-29 -35q-2 -1 -5 -4.5t-6 -5.5t-7 -2q-6 0 -21 10l-163 119l-195 -117q-12 -8 -21 -8q-10 0 -14 12l-26 45q-9 14 -9 19z" />
<glyph unicode="&#x2dc;" horiz-adv-x="681" d="M180 1241q1 12 19 36.5t46.5 51t70.5 46.5t83 20q49 0 117 -41q62 -43 98 -43q27 0 49 13t33 28t22 28t19 13q5 0 13 -4l49 -35q12 -12 12 -19t-17 -30.5t-44.5 -51t-70 -48.5t-85.5 -21q-53 0 -115 43q-3 2 -16 10t-16.5 10t-15 7.5t-18 7.5t-16.5 4t-20 2 q-34 0 -59 -21t-40.5 -42t-25.5 -21q-8 0 -10 2l-49 39q-13 9 -13 16z" />
<glyph unicode="&#x2000;" horiz-adv-x="933" />
<glyph unicode="&#x2001;" horiz-adv-x="1866" />
<glyph unicode="&#x2002;" horiz-adv-x="933" />
<glyph unicode="&#x2003;" horiz-adv-x="1866" />
<glyph unicode="&#x2004;" horiz-adv-x="622" />
<glyph unicode="&#x2005;" horiz-adv-x="466" />
<glyph unicode="&#x2006;" horiz-adv-x="311" />
<glyph unicode="&#x2007;" horiz-adv-x="311" />
<glyph unicode="&#x2008;" horiz-adv-x="233" />
<glyph unicode="&#x2009;" horiz-adv-x="373" />
<glyph unicode="&#x200a;" horiz-adv-x="103" />
<glyph unicode="&#x2010;" horiz-adv-x="606" d="M53 459q0 3 6 33l17 79q3 14 9 19.5t21 5.5h422q21 0 21 -16q0 -3 -6 -33l-17 -80q-3 -14 -9 -19.5t-21 -5.5h-422q-21 0 -21 17z" />
<glyph unicode="&#x2011;" horiz-adv-x="606" d="M53 459q0 3 6 33l17 79q3 14 9 19.5t21 5.5h422q21 0 21 -16q0 -3 -6 -33l-17 -80q-3 -14 -9 -19.5t-21 -5.5h-422q-21 0 -21 17z" />
<glyph unicode="&#x2012;" horiz-adv-x="606" d="M53 459q0 3 6 33l17 79q3 14 9 19.5t21 5.5h422q21 0 21 -16q0 -3 -6 -33l-17 -80q-3 -14 -9 -19.5t-21 -5.5h-422q-21 0 -21 17z" />
<glyph unicode="&#x2013;" d="M57 473q0 3 6 33l17 59q3 14 9.5 19.5t21.5 5.5h854q20 0 20 -17q0 -2 -6 -32l-16 -60q-5 -24 -31 -24h-854q-21 0 -21 16z" />
<glyph unicode="&#x2014;" horiz-adv-x="2048" d="M57 473q0 3 6 33l17 59q3 14 9.5 19.5t21.5 5.5h1880q20 0 20 -17q0 -2 -6 -32l-16 -60q-5 -24 -31 -24h-1880q-21 0 -21 16z" />
<glyph unicode="&#x2018;" horiz-adv-x="417" d="M143 995q0 9 9 23l301 438q12 12 16 12q3 0 8.5 -2t7.5 -2l43 -20q1 -1 6 -3t7 -4t2 -7q0 -1 -6 -19l-168 -407q-5 -12 -10.5 -16.5t-20.5 -4.5h-174q-21 0 -21 12z" />
<glyph unicode="&#x2019;" horiz-adv-x="417" d="M141 1022q0 3 1 6t2.5 6.5t2.5 5.5l168 408q5 12 10.5 16t20.5 4h174q21 0 21 -12q0 -8 -9 -22l-301 -439q-12 -12 -16 -12q-3 0 -8.5 2t-7.5 2l-43 21q-1 1 -6 3t-7 4t-2 7z" />
<glyph unicode="&#x201a;" horiz-adv-x="417" d="M-96 -213l6 18l168 408q5 12 10.5 16t20.5 4h174q20 0 20 -12q0 -10 -8 -22l-301 -439q-12 -12 -17 -12q-3 0 -8.5 2t-7.5 2l-43 21q-1 1 -5.5 3t-6.5 4t-2 7z" />
<glyph unicode="&#x201c;" d="M266 995q0 11 8 23l301 438q12 12 17 12q3 0 8.5 -2t7.5 -2l43 -20q1 -1 6 -3t7 -4t2 -7q0 -3 -1.5 -6t-3 -7t-2.5 -6l-167 -407q-5 -12 -10.5 -16.5t-20.5 -4.5h-174q-21 0 -21 12zM645 995q0 11 8 23l301 438q12 12 17 12q3 0 8.5 -2t7.5 -2l43 -20q1 -1 5.5 -3t6.5 -4 t2 -7q0 -1 -6 -19l-168 -407q-5 -13 -10.5 -17t-19.5 -4h-174q-21 0 -21 12z" />
<glyph unicode="&#x201d;" d="M256 1022q0 3 1 6t2.5 6.5t2.5 5.5l168 408q5 12 10.5 16t20.5 4h174q20 0 20 -12q0 -10 -8 -22l-301 -439q-12 -12 -16 -12q-3 0 -9 2t-8 2l-43 21q-1 1 -5.5 3t-6.5 4t-2 7zM635 1022q0 3 1 6t2.5 6.5t2.5 5.5l168 408q5 12 10.5 16t20.5 4h174q20 0 20 -12 q0 -10 -8 -22l-301 -439q-12 -12 -16 -12q-3 0 -9 2t-8 2l-43 21q-1 1 -5.5 3t-6.5 4t-2 7z" />
<glyph unicode="&#x201e;" d="M31 -213q0 6 4 18l170 408q5 13 10 16.5t21 3.5h174q20 0 20 -14q0 -8 -8 -20l-301 -439q-12 -12 -17 -12q-4 0 -16 4l-43 21q-14 6 -14 14zM410 -213q0 9 6 18l168 408q5 12 10 16t20 4h174q21 0 21 -14q0 -8 -8 -20l-301 -439q-8 -12 -17 -12q-4 0 -16 4l-43 21 q-14 7 -14 14z" />
<glyph unicode="&#x2022;" d="M182 737q0 154 108.5 263.5t262.5 109.5q152 0 261.5 -109.5t109.5 -263.5q0 -152 -109 -260t-262 -108q-154 0 -262.5 108t-108.5 260z" />
<glyph unicode="&#x2026;" horiz-adv-x="2048" d="M125 131q0 54 38 92.5t93 38.5t93 -38.5t38 -92.5q0 -55 -37.5 -93t-93.5 -38q-55 0 -93 38.5t-38 92.5zM809 131q0 54 38 92.5t93 38.5q54 0 92.5 -38.5t38.5 -92.5q0 -55 -38.5 -93t-92.5 -38q-55 0 -93 38.5t-38 92.5zM1493 131q0 54 38.5 92.5t92.5 38.5t92.5 -38.5 t38.5 -92.5t-38.5 -92.5t-92.5 -38.5t-92.5 38.5t-38.5 92.5z" />
<glyph unicode="&#x202f;" horiz-adv-x="373" />
<glyph unicode="&#x2039;" horiz-adv-x="681" d="M104 487q0 4 15 19l434 434q16 16 22 16q1 0 19 -6l61 -39q11 -11 11 -16q0 -7 -9 -16l-362 -400l174 -385q6 -12 6 -16q0 -15 -18 -21l-58 -26q-16 -8 -20 -8q-10 0 -14 12l-252 434q-9 9 -9 18z" />
<glyph unicode="&#x203a;" horiz-adv-x="681" d="M2 84q0 8 8 16l363 400l-174 385q-6 12 -6 16q0 15 18 21l57 26q16 8 21 8q10 0 14 -12l252 -434q8 -8 8 -18q0 -5 -14 -19l-434 -434q-16 -16 -23 -16l-18 6l-62 39q-10 10 -10 16z" />
<glyph unicode="&#x205f;" horiz-adv-x="466" />
<glyph unicode="&#x2122;" horiz-adv-x="1441" d="M248 1194l10 209h479l11 -209h-37q-4 12 -13 36l-12 32t-11 25.5t-14 23.5l-17 17t-23.5 16t-30 10.5t-39.5 9.5v-391q0 -31 3.5 -48.5t16.5 -26.5t25.5 -12t42.5 -6q6 -1 10 -1v-37h-313v37q63 5 78 14q30 19 30 80v391q-25 -4 -43.5 -9t-33.5 -16t-23 -16.5t-18 -25 t-13 -27t-13.5 -36.5t-14.5 -40h-37zM774 842v37q24 4 32 5.5t23 6t19 10t10.5 15.5t8 23.5t1.5 33.5v319q0 27 -1 40.5t-10.5 21t-16 8.5t-31.5 3q-2 0 -3.5 0.5t-3 0.5h-3.5v37h205l112 -371h4l129 371h221v-37q-55 -7 -67 -15q-19 -14 -19 -71v-307q0 -32 3 -49.5t15 -27 t21 -11.5t37 -6v-37h-254v37q24 5 32.5 7.5t20.5 12t15.5 27t3.5 47.5v377h-4l-172 -508h-33l-149 489h-5v-358q0 -30 2.5 -47.5t12 -27t17 -12t28.5 -7.5v-37h-201z" />
<glyph unicode="&#x25fc;" horiz-adv-x="1003" d="M0 0v1004h1004v-1004h-1004z" />
<glyph unicode="&#xfb01;" horiz-adv-x="1138" d="M-270 -379q0 10 2 14l28 84q4 13 15 13q2 0 22 -5t49.5 -9.5t55.5 -4.5q48 0 85.5 18.5t58.5 42.5t37.5 61.5t22 60.5t11.5 55l176 913h-143q-17 0 -17 13q0 3 6 32l11 49q3 14 8 19.5t18 5.5h143l41 197q7 42 17 76.5t32.5 79t53.5 74.5t83 51.5t118 21.5 q55 0 112.5 -15.5t57.5 -29.5q0 -1 -1.5 -3t-1.5 -3l-36 -89q-5 -10 -15 -10q-1 0 -44.5 15.5t-88.5 15.5q-31 0 -55.5 -15t-38.5 -34t-25 -51t-15 -52t-9 -51l-37 -178h520q22 0 27.5 -2.5t5.5 -13.5q0 -5 -1.5 -12.5t-4 -19t-4.5 -20.5l-168 -796h135q18 0 18 -13 q0 -2 -1 -7t-1 -7l-16 -72q-6 -20 -25 -20h-155q-43 0 -73 24.5t-30 67.5q0 33 4 47l154 725h-412l-174 -921q-7 -35 -12.5 -59t-19.5 -65t-31 -69.5t-46.5 -62.5t-65.5 -55t-89.5 -35.5t-116.5 -14.5q-57 0 -106 11t-49 28zM915 1343q0 40 32.5 72.5t72.5 32.5t72 -32.5 t32 -72.5t-32 -72t-72 -32t-72.5 32t-32.5 72z" />
<glyph unicode="&#xfb02;" horiz-adv-x="1138" d="M-270 -379q0 10 2 14l28 84q4 13 15 13q2 0 22 -5t49.5 -9.5t55.5 -4.5q48 0 85.5 18.5t58.5 42.5t37.5 61.5t22 60.5t11.5 55l176 913h-143q-17 0 -17 13q0 3 6 32l11 49q3 14 8 19.5t18 5.5h143l41 197q7 35 11.5 54t17 55.5t26.5 59t39 51t56.5 44.5t77.5 27.5 t102 11.5q61 0 112.5 -10t111.5 -30t67 -22l127 27q7 1 10.5 -3t3.5 -11q0 -5 -4.5 -24t-5.5 -26l-215 -1011q-33 -146 -33 -207q0 -37 16 -52.5t48 -15.5q31 0 66 17.5t38 17.5q12 0 15 -14l10 -58q0 -3 2 -11t2 -11q0 -23 -60 -45.5t-122 -22.5q-75 0 -120.5 40.5 t-45.5 115.5q0 23 3 51.5t8 59t9 53t10 50t7 32.5l192 909q-98 82 -248 82q-43 0 -75.5 -12.5t-50.5 -30.5t-31 -46t-18.5 -49t-11.5 -49q-2 -11 -3 -16l-37 -178h289q16 0 16 -12q0 -4 -10 -33l-19 -49q-7 -15 -11.5 -20t-14.5 -5h-277l-174 -921q-7 -35 -12.5 -59 t-19.5 -65t-31 -69.5t-46.5 -62.5t-65.5 -55t-89.5 -35.5t-116.5 -14.5q-57 0 -106 11t-49 28z" />
</font>
</defs>
</svg>
