<?xml version="1.0" standalone="no"?>
<!DOCTYPE svg PUBLIC "-//W3C//DTD SVG 1.1//EN" "http://www.w3.org/Graphics/SVG/1.1/DTD/svg11.dtd" >
<svg xmlns="http://www.w3.org/2000/svg">
<metadata></metadata>
<defs>
<font id="vivoregular" horiz-adv-x="663" >
<font-face units-per-em="2048" ascent="1047" descent="-1001" />
<missing-glyph horiz-adv-x="417" />
<glyph horiz-adv-x="2048" />
<glyph horiz-adv-x="2048" />
<glyph unicode="&#xd;" horiz-adv-x="2048" />
<glyph unicode=" "  horiz-adv-x="417" />
<glyph unicode="&#x09;" horiz-adv-x="417" />
<glyph unicode="&#xa0;" horiz-adv-x="417" />
<glyph unicode="!" horiz-adv-x="573" d="M127 913l33 -460q5 -41 32 -66t68 -25h53q41 0 69 25t32 66l30 460q4 40 -27 70.5t-73 30.5h-117q-39 0 -70 -30.5t-30 -70.5zM133 131q0 -60 44 -98.5t110 -38.5t109.5 38.5t43.5 98.5t-43.5 100.5t-109.5 40.5t-110 -40.5t-44 -100.5z" />
<glyph unicode="&#x22;" d="M61 0h541v1026h-541v-1026zM131 70v886h399v-886h-399z" />
<glyph unicode="#" d="M61 0h541v1026h-541v-1026zM131 70v886h399v-886h-399z" />
<glyph unicode="$" horiz-adv-x="925" d="M40.5 111q10.5 -29 45.5 -48q102 -54 246 -67v-88q0 -32 24.5 -53t57.5 -21h75q33 0 57.5 21t24.5 53v94q289 53 289 309q0 66 -23 115.5t-67.5 82t-93 52t-117.5 35.5q-147 37 -184 56q-51 27 -51 73q0 74 139 74q103 0 242 -54q42 -16 70.5 -3t39.5 49l19 65 q20 80 -54 105q-78 33 -186 49v98q0 30 -24.5 51t-57.5 21h-76q-33 0 -56.5 -21t-23.5 -51v-98q-128 -27 -206 -101.5t-78 -197.5q0 -69 24 -122.5t68.5 -89t95 -58t115.5 -38.5q134 -34 162 -47q29 -13 42 -27.5t13 -39.5q0 -41 -41 -60.5t-102 -19.5q-114 0 -256 55 q-85 42 -113 -26l-33 -66q-17 -32 -6.5 -61z" />
<glyph unicode="%" horiz-adv-x="1236" d="M43 778q0 -115 67.5 -178t180.5 -63q110 0 180 67.5t70 173.5q0 115 -68.5 179.5t-181.5 64.5q-110 0 -179 -69t-69 -175zM186 69q4 -27 29 -40l45 -25q24 -14 51 -9t47 28l676 870q19 25 15 52t-29 40l-45 25q-24 14 -51 9t-45 -28l-678 -870q-19 -25 -15 -52zM215 778 q0 105 76 105q78 0 78 -105q0 -44 -21 -73t-57 -29t-56 29t-20 73zM696 231q0 -115 67.5 -178t180.5 -63q112 0 182 67.5t70 173.5q0 115 -68.5 179.5t-183.5 64.5q-110 0 -179 -69t-69 -175zM868 231q0 105 76 105q78 0 78 -105q0 -45 -20.5 -73.5t-57.5 -28.5 q-34 0 -55 29t-21 73z" />
<glyph unicode="&#x26;" horiz-adv-x="1089" d="M53 279q0 -137 113 -212t299 -75q144 0 248 55q31 18 51 37l74 -57q79 -59 159 10l27 24q33 28 31.5 69t-41.5 75l-88 69q51 90 51 197q0 41 -22 64.5t-58 23.5h-61q-36 0 -57.5 -23t-26.5 -61q-4 -49 -11 -76q-10 7 -32 25.5t-35 26.5l-195 139q-60 42 -86 71t-26 62 q0 80 147 80q75 0 164 -29q93 -37 127 33l18 41q38 78 -28 115q-115 59 -289 59q-85 0 -154 -16t-124 -49.5t-85 -90.5t-30 -135q0 -117 98 -205v-4q-75 -41 -116.5 -104.5t-41.5 -138.5zM305 324q0 53 53 77l181 -133q51 -39 73 -53q-32 -18 -114 -18q-48 0 -89 11 t-72.5 41t-31.5 75z" />
<glyph unicode="'" horiz-adv-x="440" d="M68 885q0 -88 82 -115q-2 -8 -5.5 -16t-6.5 -13t-9.5 -15t-9.5 -15q-18 -31 -12.5 -56t30.5 -37l35 -18q64 -29 100 18q111 142 111 248q0 69 -46.5 113.5t-121.5 44.5q-59 0 -103 -39t-44 -100z" />
<glyph unicode="(" d="M61 0h541v1026h-541v-1026zM131 70v886h399v-886h-399z" />
<glyph unicode=")" d="M61 0h541v1026h-541v-1026zM131 70v886h399v-886h-399z" />
<glyph unicode="*" d="M61 0h541v1026h-541v-1026zM131 70v886h399v-886h-399z" />
<glyph unicode="+" d="M61 0h541v1026h-541v-1026zM131 70v886h399v-886h-399z" />
<glyph unicode="," horiz-adv-x="421" d="M53 158q0 -95 86 -131q-4 -14 -33 -62q-38 -67 19 -98l39 -19q65 -30 108 19q119 163 119 270q0 74 -50.5 121t-131.5 47q-62 0 -109 -41.5t-47 -105.5z" />
<glyph unicode="-" horiz-adv-x="751" d="M74 479q0 -35 22.5 -56.5t57.5 -21.5h446q35 0 57.5 21.5t22.5 56.5v74q0 35 -22.5 56.5t-57.5 21.5h-446q-35 0 -57.5 -21.5t-22.5 -56.5v-74z" />
<glyph unicode="." horiz-adv-x="428" d="M53 147q0 -66 45.5 -109.5t114.5 -43.5t116.5 43.5t47.5 109.5t-47.5 112t-116.5 46t-114.5 -45.5t-45.5 -112.5z" />
<glyph unicode="/" d="M61 0h541v1026h-541v-1026zM131 70v886h399v-886h-399z" />
<glyph unicode="0" horiz-adv-x="1085" d="M74 506q0 -245 129.5 -380.5t341.5 -135.5q209 0 339 144t130 372q0 246 -127.5 382t-341.5 136q-207 0 -339 -146t-132 -372zM342 506q0 136 52.5 210.5t150.5 74.5t150.5 -74.5t52.5 -210.5q0 -123 -54.5 -203t-148.5 -80q-95 0 -149 80t-54 203z" />
<glyph unicode="1" horiz-adv-x="659" d="M63 852q0 -36 19.5 -57t54.5 -21h105v-684q0 -41 27 -65.5t69 -24.5h92q42 0 69 24.5t27 65.5v782q0 55 -35.5 93.5t-91.5 38.5h-249q-38 0 -62.5 -26t-24.5 -65v-61z" />
<glyph unicode="2" horiz-adv-x="950" d="M59 143l7 -34q23 -99 120 -99h605q35 0 55 21t20 57v76q0 36 -20 57t-55 21h-408v4l248 164q120 80 175.5 155.5t55.5 179.5q0 72 -31.5 127t-86.5 87.5t-122.5 48.5t-144.5 16q-98 0 -194.5 -25.5t-159.5 -74.5q-36 -25 -44 -57.5t15 -65.5l35 -53q45 -60 121 -17 q112 64 209 64q60 0 92.5 -19.5t32.5 -52.5q0 -37 -30.5 -76t-123.5 -108l-276 -211q-120 -88 -95 -185z" />
<glyph unicode="3" horiz-adv-x="925" d="M41 182q-34 -75 41 -119q122 -73 328 -73q73 0 137 12t119 38t94.5 64.5t61.5 94t22 123.5q0 200 -283 266v4l203 168q72 55 53 131l-12 57q-5 24 -25.5 40t-50.5 16h-579q-31 0 -52.5 -21.5t-21.5 -56.5v-74q0 -35 21.5 -56.5t52.5 -21.5h329v-4l-155 -135 q-36 -30 -47 -55.5t-3 -61.5l9 -31q6 -30 21.5 -45.5t45.5 -19.5q119 -14 169 -36t50 -64q0 -57 -45 -80t-125 -23q-93 0 -202 53q-84 39 -121 -30z" />
<glyph unicode="4" horiz-adv-x="1019" d="M35 313l12 -51q7 -26 27 -42.5t53 -16.5h438v-121q0 -35 26 -58.5t62 -23.5h80q36 0 61 23.5t25 58.5v121h84q35 0 55.5 21.5t20.5 56.5v49q0 35 -20.5 56.5t-55.5 21.5h-84v507q0 46 -27 72.5t-69 26.5h-100q-42 0 -73 -18t-65 -58l-399 -483q-31 -37 -45.5 -69.5 t-5.5 -72.5zM319 408v4l244 311h2v-315h-246z" />
<glyph unicode="5" horiz-adv-x="964" d="M59 113q10 -32 45 -52q119 -71 336 -71q92 0 169.5 19.5t138 58.5t95 104t34.5 150q0 156 -120.5 234.5t-383.5 78.5l4 139h379q33 0 54 21.5t21 56.5v74q0 35 -21 56.5t-54 21.5h-494q-53 0 -88 -38.5t-37 -93.5l-12 -317q-4 -65 28.5 -98t84.5 -33q113 0 188.5 -7.5 t113.5 -22.5t52 -31.5t14 -40.5q0 -103 -176 -103q-106 0 -211 51q-84 40 -121 -30l-32 -60q-17 -35 -7 -67z" />
<glyph unicode="6" horiz-adv-x="1028" d="M80 461q0 -223 109.5 -347t340.5 -124q184 0 303 91t119 253q0 141 -107 217t-274 76q-138 0 -233 -68h-4q17 118 84 177t164 59q93 0 172 -37q84 -38 114 33l25 59q34 73 -31 111q-118 63 -287 63q-222 0 -358.5 -155.5t-136.5 -407.5zM354 326q0 41 47.5 69.5 t135.5 28.5q161 0 161 -105q0 -108 -168 -108q-74 0 -125 30.5t-51 84.5z" />
<glyph unicode="7" horiz-adv-x="921" d="M41 850q0 -35 22.5 -56.5t57.5 -21.5h459v-4l-383 -608q-17 -27 -20 -54t14 -53t55 -41l67 -22q41 -13 77 3.5t56 57.5l406 692q50 86 33 152l-11 43q-6 28 -29 47t-59 19h-665q-35 0 -57.5 -21.5t-22.5 -56.5v-76z" />
<glyph unicode="8" horiz-adv-x="1046" d="M63 276q0 -74 35 -130t98 -89.5t144 -50t178 -16.5q201 0 327 78.5t126 226.5q0 72 -28.5 120t-94.5 83q-42 18 -82 26v4q47 14 84 43q74 62 74 168q0 70 -34.5 126t-92.5 90t-129.5 51.5t-149.5 17.5q-106 0 -195.5 -29.5t-149.5 -96t-60 -159.5q0 -110 67 -168 q38 -30 84 -43v-4q-23 -5 -71 -26q-130 -74 -130 -222zM328 319q0 45 48 73t142 28t142.5 -28t48.5 -73q0 -57 -54.5 -82.5t-136.5 -25.5t-136 25.5t-54 82.5zM367 713q0 43 41 68.5t110 25.5t108.5 -25.5t39.5 -68.5q0 -47 -39.5 -73t-108.5 -26q-70 0 -110.5 26t-40.5 73z " />
<glyph unicode="9" horiz-adv-x="1034" d="M72 664q0 -139 110 -219t273 -80q147 0 239 69h4q-17 -107 -89 -161t-181 -54q-101 0 -180 39q-80 39 -115 -33l-27 -61q-34 -70 35 -111q102 -63 293 -63q234 0 377 147.5t143 407.5q0 222 -117.5 350.5t-351.5 128.5q-175 0 -294 -99t-119 -261zM326 682q1 59 50.5 90 t121.5 31t127 -31.5t55 -87.5q0 -52 -47 -84t-141 -33q-85 0 -125.5 33.5t-40.5 81.5z" />
<glyph unicode=":" d="M61 0h541v1026h-541v-1026zM131 70v886h399v-886h-399z" />
<glyph unicode=";" d="M61 0h541v1026h-541v-1026zM131 70v886h399v-886h-399z" />
<glyph unicode="&#x3c;" d="M61 0h541v1026h-541v-1026zM131 70v886h399v-886h-399z" />
<glyph unicode="=" d="M61 0h541v1026h-541v-1026zM131 70v886h399v-886h-399z" />
<glyph unicode="&#x3e;" d="M61 0h541v1026h-541v-1026zM131 70v886h399v-886h-399z" />
<glyph unicode="?" horiz-adv-x="874" d="M26 900.5q-11 -31.5 7 -66.5l26 -50q18 -33 51 -43t78 7q112 47 209 47q162 0 162 -76q0 -46 -46 -69.5t-157 -35.5q-41 -4 -65.5 -30t-24.5 -64v-90q0 -40 28.5 -65t70.5 -25h55q41 0 68.5 25t27.5 63v16q167 23 241 102.5t74 194.5q0 75 -33.5 130.5t-93.5 88 t-136.5 48.5t-168.5 16q-199 0 -325 -72q-37 -20 -48 -51.5zM231 131q0 -60 44 -98.5t110 -38.5t110 38.5t44 98.5t-44 100.5t-110 40.5t-110 -40.5t-44 -100.5z" />
<glyph unicode="@" horiz-adv-x="1232" d="M74 496q0 -122 40.5 -219t111 -158.5t162.5 -94t198 -32.5q155 0 276 59q23 10 29.5 27.5t-4.5 36.5l-21 39q-20 41 -71 20q-95 -39 -187 -39q-163 0 -267.5 93t-104.5 266q0 166 104.5 275.5t280.5 109.5q177 0 276.5 -92.5t99.5 -249.5q0 -56 -22 -92.5t-62 -36.5 q-88 0 -88 112v139q0 49 -43 64q-78 27 -143 27q-72 0 -127 -22.5t-86.5 -60.5t-47.5 -83.5t-16 -96.5q0 -100 61.5 -160.5t151.5 -60.5q45 0 87 24t71 66q50 -90 172 -90q80 0 139.5 42.5t87 104.5t27.5 132q0 214 -148.5 345.5t-389.5 131.5q-155 0 -281 -70t-196 -190.5 t-70 -265.5zM516 494q0 116 111 116q35 0 49 -6v-110q0 -34 -23 -60t-57 -26q-39 0 -59.5 25.5t-20.5 60.5z" />
<glyph unicode="A" horiz-adv-x="1124" d="M25 76q10 -42 53 -53l98 -25q17 -4 33 -4q61 0 88 67l47 119h426l47 -127q13 -37 47 -51q22 -8 46 -9q14 0 28 3l92 18q35 7 54.5 28.5t19.5 51.5q0 34 -12 64l-344 776q-20 43 -49 61.5t-76 18.5h-99q-54 0 -82.5 -19t-52.5 -67l-354 -770q-13 -27 -13 -55q0 -13 3 -27z M424 389l141 346h2l129 -346h-272z" />
<glyph unicode="B" horiz-adv-x="1062" d="M125 104q0 -40 28 -66.5t70 -31.5q147 -10 338 -10q92 0 168.5 15t142.5 47.5t103 93t37 143.5q0 93 -54.5 157t-162.5 93v2q37 12 79 45q74 62 74 168q0 130 -114 198t-330 68q-205 0 -301 -27q-78 -23 -78 -102v-793zM403 211v201h179q71 0 110 -23.5t39 -69.5 q0 -44 -29 -73q-47 -41 -198 -41q-54 0 -101 6zM403 608v203q47 6 101 6q86 0 131 -21.5t45 -74.5q0 -65 -52.5 -89t-158.5 -24h-66z" />
<glyph unicode="C" horiz-adv-x="1026" d="M53 496q0 -224 144 -365t362 -141q225 0 365 96q41 32 41 70q0 23 -15 49l-30 59q-18 34 -54 40q-9 1 -17 1q-26 0 -50 -14q-68 -35 -108 -46.5t-97 -11.5q-117 0 -190.5 78t-73.5 201q0 135 76 202.5t200 67.5q93 0 185 -49q22 -14 46 -14q9 1 19 3q34 8 57 42l33 51 q16 24 16 47q0 39 -47 72q-137 90 -327 90q-147 0 -269 -66.5t-194 -188t-72 -273.5z" />
<glyph unicode="D" horiz-adv-x="1181" d="M125 104q0 -40 29.5 -69t81.5 -33q132 -12 307 -12q250 0 412.5 147t162.5 369q0 110 -33 199t-88.5 147.5t-132 98t-159.5 56.5t-175 17q-208 0 -319 -35q-37 -11 -61.5 -42.5t-24.5 -72.5v-770zM410 233v545q55 10 133 10q81 0 141 -24t92.5 -65.5t48 -89.5t15.5 -103 q0 -122 -81 -201.5t-220 -79.5q-56 0 -129 8z" />
<glyph unicode="E" horiz-adv-x="997" d="M125 121q0 -47 32 -79t79 -32h606q35 0 56.5 21.5t21.5 54.5v74q0 33 -21.5 54.5t-56.5 21.5h-432v170h276q31 0 51.5 19.5t20.5 51.5v76q0 31 -20.5 51.5t-51.5 20.5h-276v153h430q35 0 56.5 21.5t21.5 54.5v74q0 33 -21.5 54.5t-56.5 21.5h-582q-56 0 -94.5 -38.5 t-38.5 -93.5v-751z" />
<glyph unicode="F" horiz-adv-x="921" d="M125 90q0 -40 29 -65t71 -25h92q45 0 74 24.5t29 65.5v266h262q30 0 51 21t21 51v78q0 29 -21.5 50.5t-50.5 21.5h-262v194h383q35 0 57.5 21.5t22.5 56.5v76q0 35 -22.5 56.5t-57.5 21.5h-545q-56 0 -94.5 -38.5t-38.5 -93.5v-782z" />
<glyph unicode="G" horiz-adv-x="1103" d="M53 496q0 -231 136.5 -368.5t381.5 -137.5q135 0 238 27.5t149 60.5q41 30 41 80v323q0 41 -29.5 71t-70.5 30h-256q-31 0 -51.5 -20.5t-20.5 -51.5v-76q0 -32 20.5 -52t51.5 -20h90v-131q-56 -16 -129 -16q-130 0 -201 72t-71 205q0 149 77.5 219.5t213.5 70.5 q92 0 198 -53q22 -11 44 -11q12 0 23 4q32 9 52 42l33 51q14 25 14 48q0 10 -3 19q-9 30 -42 52q-74 49 -154 69.5t-190 20.5q-109 0 -208.5 -39t-174 -107.5t-118.5 -168t-44 -213.5z" />
<glyph unicode="H" horiz-adv-x="1198" d="M125 90q0 -40 29 -65t71 -25h94q44 0 72.5 24.5t28.5 65.5v311h358v-311q0 -41 28.5 -65.5t72.5 -24.5h90q45 0 73.5 24.5t28.5 65.5v834q0 41 -28.5 65.5t-73.5 24.5h-90q-44 0 -72.5 -24.5t-28.5 -65.5v-289h-358v289q0 41 -28.5 65.5t-72.5 24.5h-94q-42 0 -71 -25 t-29 -65v-834z" />
<glyph unicode="I" horiz-adv-x="546" d="M104 1264q0 -68 49 -118t113 -50q72 0 121 49t49 119q0 68 -49 114.5t-121 46.5q-64 0 -113 -47.5t-49 -113.5zM125 90q0 -40 29 -65t71 -25h97q42 0 71 25t29 65v834q0 40 -29 65t-71 25h-97q-42 0 -71 -25t-29 -65v-834z" />
<glyph unicode="J" horiz-adv-x="798" d="M14 129q-3 -15 -3 -28q0 -56 61 -78q81 -31 229 -31q199 0 296 83t97 234v615q0 40 -29 65t-71 25h-92q-42 0 -71.5 -25t-29.5 -65v-596q0 -56 -34 -77.5t-95 -21.5q-60 0 -135 19q-14 3 -27 3q-22 0 -41 -9q-30 -13 -40 -49z" />
<glyph unicode="K" horiz-adv-x="1062" d="M125 98q0 -41 29.5 -69.5t70.5 -28.5h97q41 0 70.5 28.5t29.5 69.5v238l72 63l276 -356q37 -49 93 -49q30 0 67 14l59 23q41 17 51 61q3 12 3 22q0 30 -21 56l-334 399l297 262q28 26 28 63v7q-3 41 -38 64l-62 36q-33 21 -64 21q-44 0 -85 -41l-342 -348v282 q0 41 -29.5 70t-70.5 29h-97q-41 0 -70.5 -29t-29.5 -70v-817z" />
<glyph unicode="L" horiz-adv-x="856" d="M125 121q0 -47 32 -79t79 -32h499q35 0 57.5 21.5t22.5 56.5v84q0 35 -22.5 56.5t-57.5 21.5h-313v674q0 40 -29 65t-71 25h-97q-42 0 -71 -25t-29 -65v-803z" />
<glyph unicode="M" horiz-adv-x="1320" d="M86 102q-1 -6 -1 -12q0 -34 20 -58q23 -28 65 -34l78 -4q5 -1 10 -1q34 1 62 25q30 28 36 70l25 436q4 46 4 88h2q6 -29 27 -88l92 -258q24 -73 108 -73h72q79 0 109 77l106 254q23 54 31 88h2q0 -65 2 -88l27 -438q3 -42 33 -68q27 -24 67 -24h6l70 2q43 2 71 32 q25 27 25 62v10l-76 805q-4 51 -25 74.5t-59 28.5l-90 10q-14 2 -27 2q-85 0 -114 -76l-182 -467h-5l-174 467q-29 70 -125 70h-86q-46 0 -74.5 -29t-33.5 -74z" />
<glyph unicode="N" horiz-adv-x="1181" d="M125 90q0 -40 29 -65t71 -25h64q42 0 71 25t29 65v494h4l377 -523q32 -41 64 -57q20 -10 46 -10q16 0 35 4l78 14q27 7 44.5 28.5t17.5 57.5v826q0 41 -28.5 65.5t-72.5 24.5h-61q-43 0 -71.5 -24.5t-28.5 -65.5v-492h-5l-360 522q-23 33 -48 46.5t-61 13.5h-94 q-41 0 -70.5 -29t-29.5 -70v-825z" />
<glyph unicode="O" horiz-adv-x="1165" d="M53 506q0 -148 72.5 -267t193.5 -184t265 -65t265 65t193 184t72 267q0 147 -72 266.5t-193 185.5t-265 66t-265 -66t-193.5 -185.5t-72.5 -266.5zM330 506q0 118 72.5 195t181.5 77q111 0 181.5 -75.5t70.5 -196.5q0 -117 -71 -193.5t-181 -76.5q-109 0 -181.5 76.5 t-72.5 193.5z" />
<glyph unicode="P" horiz-adv-x="1030" d="M125 90q0 -40 29 -65t71 -25h76q44 0 73 25t29 65v238q27 -2 89 -2q121 0 212.5 25t143 62t83.5 88.5t42 96t10 92.5q0 77 -28 136.5t-74 96.5t-112.5 61t-136 33t-151.5 9q-178 0 -278 -33q-36 -11 -57 -38.5t-21 -63.5v-801zM403 549v248q57 8 111 8q199 0 199 -125 q0 -67 -50 -100t-157 -33q-23 0 -103 2z" />
<glyph unicode="Q" horiz-adv-x="1198" d="M53 506q0 -226 142 -371t358 -145q167 0 293 80l61 -58q32 -29 69 -29h2q39 1 75 31l39 35q32 23 32 63.5t-32 63.5l-74 51q96 138 96 291q0 147 -72 263.5t-193 179.5t-265 63t-265 -66t-193.5 -185.5t-72.5 -266.5zM326 506q0 124 72.5 200t193.5 76q114 0 186 -74.5 t72 -201.5q0 -76 -23 -144q-13 24 -34 41l-43 35q-25 19 -53 19q-5 0 -11 -1q-33 -4 -57 -28l-43 -41q-25 -22 -25 -55q0 -3 1 -6q2 -38 36 -62l16 -12q33 -24 62 -33q-16 -4 -45 -5h-17q-16 0 -24 1q-118 10 -191 91t-73 200z" />
<glyph unicode="R" horiz-adv-x="1077" d="M125 90q0 -40 29 -65t71 -25h76q44 0 73 25t29 65v270h121l226 -319q37 -47 94 -47q34 0 74 16l49 21q43 17 51 60q2 10 1 19q0 31 -22 56l-204 246q194 96 194 290q0 324 -493 324q-191 0 -291 -33q-36 -11 -57 -38.5t-21 -63.5v-801zM403 571v232q84 8 127 8 q187 0 187 -109q0 -75 -53.5 -103t-159.5 -28h-101z" />
<glyph unicode="S" horiz-adv-x="942" d="M56 116q12 -30 48 -50q138 -76 334 -76q74 0 138 10.5t120 35t95.5 61.5t62.5 92.5t23 125.5q0 155 -127 230q-48 31 -181 61q-127 25 -176 48.5t-49 70.5q0 66 131 66q108 0 227 -46q25 -9 46 -9q17 0 33 6q35 14 46 51l19 63q5 19 5 35q0 57 -63 80q-141 53 -301 53 q-81 0 -153 -18.5t-129.5 -55.5t-91 -98.5t-33.5 -140.5q0 -90 41 -156t112 -102q48 -25 156 -52q120 -25 160 -43q47 -21 47 -59q0 -76 -135 -76q-105 0 -242 56q-30 12 -55 12q-10 0 -20 -2q-32 -8 -50 -41l-31 -66q-11 -22 -11 -42q0 -13 4 -24z" />
<glyph unicode="T" horiz-adv-x="952" d="M20 850q0 -32 24 -55t56 -23h228v-682q0 -40 29 -65t71 -25h96q42 0 71.5 25t29.5 65v682h227q35 0 57.5 22.5t22.5 55.5v76q0 32 -23 55t-57 23h-752q-32 0 -56 -23.5t-24 -54.5v-76z" />
<glyph unicode="U" horiz-adv-x="1107" d="M94 434q0 -444 447 -444q225 0 349 111.5t124 332.5v490q0 40 -29.5 65t-71.5 25h-92q-42 0 -71 -25t-29 -65v-459q0 -122 -37 -175.5t-131 -53.5q-92 0 -129 54t-37 175v459q0 40 -29 65t-71 25h-92q-42 0 -71.5 -25t-29.5 -65v-490z" />
<glyph unicode="V" horiz-adv-x="1081" d="M27 838l313 -736q25 -53 54 -77.5t77 -24.5h94q37 0 63 16t38 34t26 50l359 738q11 23 16 44q3 14 3 28v14q-2 22 -20 39.5t-49 27.5l-67 23q-20 6 -40 6q-23 0 -44 -8q-40 -16 -57 -60l-263 -641h-2l-231 643q-13 37 -54 55q-25 11 -50 11q-15 0 -29 -4l-76 -21 q-40 -11 -58 -37q-18 -25 -18 -53q0 -30 15 -67z" />
<glyph unicode="W" horiz-adv-x="1398" d="M61 897l132 -764q24 -131 135 -131h108q49 0 87 26t55 74l98 322q9 36 16 70h4q7 -33 17 -70l94 -328q23 -90 133 -94l113 -2q47 0 81.5 32.5t45.5 86.5l174 778q3 15 3 27q0 30 -16 51q-23 30 -67 35l-70 8q-11 1 -21 1q-90 0 -106 -99l-86 -553q-3 -13 -6 -44.5 t-6 -46.5h-4q-12 61 -19 91l-94 374q-20 82 -129 82h-57q-102 0 -129 -88l-109 -368q-4 -15 -11.5 -50t-8.5 -41h-4q-1 18 -4 50.5t-4 40.5l-64 563q-4 42 -36 68q-27 22 -67 23q-6 0 -12 -1l-75 -8q-57 -6 -78 -37q-15 -22 -15 -53q0 -12 2 -25z" />
<glyph unicode="X" horiz-adv-x="1036" d="M32 96q6 -44 48 -63l51 -23q35 -16 66 -16q56 0 98 53l213 289l217 -297q35 -47 87 -47q34 0 77 20l55 25q41 19 49 63q2 9 2 18q0 34 -26 64l-283 348l262 304q30 31 30 68v6q-3 40 -48 65l-49 26q-41 21 -75 21q-48 0 -81 -43l-211 -285l-201 281q-29 41 -73 47 q-9 1 -18 1q-35 0 -66 -20l-52 -28q-42 -25 -48 -69q-1 -8 -1 -16q0 -34 23 -61l256 -317l-277 -334q-26 -31 -26 -66q0 -6 1 -14z" />
<glyph unicode="Y" horiz-adv-x="1024" d="M18 928q-3 -12 -3 -25q0 -29 18 -57l319 -516v-240q0 -41 29.5 -69.5t71.5 -28.5h96q41 0 70.5 28.5t29.5 69.5v240l334 514q20 28 20 58q0 9 -2 18q-7 39 -49 57l-67 29q-33 15 -61 15q-59 0 -95 -65l-215 -395h-4l-221 406q-22 41 -72 51q-16 3 -31 3l-69 -15l-45 -19 q-42 -17 -54 -59z" />
<glyph unicode="Z" horiz-adv-x="995" d="M53 98q0 -36 26 -62t62 -26h707q35 0 57.5 21.5t22.5 56.5v76q0 35 -22.5 56.5t-57.5 21.5h-424v4l450 520q36 37 50 66q9 17 8 37q0 14 -4 30l-10 49q-5 25 -25.5 40.5t-54.5 15.5h-684q-35 0 -57.5 -21.5t-22.5 -56.5v-76q0 -35 22.5 -56.5t57.5 -21.5h399v-4 l-436 -487q-35 -38 -49.5 -64t-14.5 -55v-64z" />
<glyph unicode="[" d="M61 0h541v1026h-541v-1026zM131 70v886h399v-886h-399z" />
<glyph unicode="\" d="M61 0h541v1026h-541v-1026zM131 70v886h399v-886h-399z" />
<glyph unicode="]" d="M61 0h541v1026h-541v-1026zM131 70v886h399v-886h-399z" />
<glyph unicode="^" d="M61 0h541v1026h-541v-1026zM131 70v886h399v-886h-399z" />
<glyph unicode="_" d="M61 0h541v1026h-541v-1026zM131 70v886h399v-886h-399z" />
<glyph unicode="`" horiz-adv-x="509" d="M97.5 1345q-14.5 -30 11.5 -73l75 -125q30 -57 113 -45l51 10q92 18 60 115l-48 127q-13 33 -43 45.5t-65 5.5l-90 -19q-50 -11 -64.5 -41z" />
<glyph unicode="a" horiz-adv-x="1124" d="M25 76q10 -42 53 -53l98 -25q17 -4 33 -4q61 0 88 67l47 119h426l47 -127q13 -37 47 -51q22 -8 46 -9q14 0 28 3l92 18q35 7 54.5 28.5t19.5 51.5q0 34 -12 64l-344 776q-20 43 -49 61.5t-76 18.5h-99q-54 0 -82.5 -19t-52.5 -67l-354 -770q-13 -27 -13 -55q0 -13 3 -27z M424 389l141 346h2l129 -346h-272z" />
<glyph unicode="b" horiz-adv-x="1062" d="M125 104q0 -40 28 -66.5t70 -31.5q147 -10 338 -10q92 0 168.5 15t142.5 47.5t103 93t37 143.5q0 93 -54.5 157t-162.5 93v2q37 12 79 45q74 62 74 168q0 130 -114 198t-330 68q-205 0 -301 -27q-78 -23 -78 -102v-793zM403 211v201h179q71 0 110 -23.5t39 -69.5 q0 -44 -29 -73q-47 -41 -198 -41q-54 0 -101 6zM403 608v203q47 6 101 6q86 0 131 -21.5t45 -74.5q0 -65 -52.5 -89t-158.5 -24h-66z" />
<glyph unicode="c" horiz-adv-x="1026" d="M53 496q0 -224 144 -365t362 -141q225 0 365 96q41 32 41 70q0 23 -15 49l-30 59q-18 34 -54 40q-9 1 -17 1q-26 0 -50 -14q-68 -35 -108 -46.5t-97 -11.5q-117 0 -190.5 78t-73.5 201q0 135 76 202.5t200 67.5q93 0 185 -49q22 -14 46 -14q9 1 19 3q34 8 57 42l33 51 q16 24 16 47q0 39 -47 72q-137 90 -327 90q-147 0 -269 -66.5t-194 -188t-72 -273.5z" />
<glyph unicode="d" horiz-adv-x="1181" d="M125 104q0 -40 29.5 -69t81.5 -33q132 -12 307 -12q250 0 412.5 147t162.5 369q0 110 -33 199t-88.5 147.5t-132 98t-159.5 56.5t-175 17q-208 0 -319 -35q-37 -11 -61.5 -42.5t-24.5 -72.5v-770zM410 233v545q55 10 133 10q81 0 141 -24t92.5 -65.5t48 -89.5t15.5 -103 q0 -122 -81 -201.5t-220 -79.5q-56 0 -129 8z" />
<glyph unicode="e" horiz-adv-x="997" d="M125 121q0 -47 32 -79t79 -32h606q35 0 56.5 21.5t21.5 54.5v74q0 33 -21.5 54.5t-56.5 21.5h-432v170h276q31 0 51.5 19.5t20.5 51.5v76q0 31 -20.5 51.5t-51.5 20.5h-276v153h430q35 0 56.5 21.5t21.5 54.5v74q0 33 -21.5 54.5t-56.5 21.5h-582q-56 0 -94.5 -38.5 t-38.5 -93.5v-751z" />
<glyph unicode="f" horiz-adv-x="921" d="M125 90q0 -40 29 -65t71 -25h92q45 0 74 24.5t29 65.5v266h262q30 0 51 21t21 51v78q0 29 -21.5 50.5t-50.5 21.5h-262v194h383q35 0 57.5 21.5t22.5 56.5v76q0 35 -22.5 56.5t-57.5 21.5h-545q-56 0 -94.5 -38.5t-38.5 -93.5v-782z" />
<glyph unicode="g" horiz-adv-x="1103" d="M53 496q0 -231 136.5 -368.5t381.5 -137.5q135 0 238 27.5t149 60.5q41 30 41 80v323q0 41 -29.5 71t-70.5 30h-256q-31 0 -51.5 -20.5t-20.5 -51.5v-76q0 -32 20.5 -52t51.5 -20h90v-131q-56 -16 -129 -16q-130 0 -201 72t-71 205q0 149 77.5 219.5t213.5 70.5 q92 0 198 -53q22 -11 44 -11q12 0 23 4q32 9 52 42l33 51q14 25 14 48q0 10 -3 19q-9 30 -42 52q-74 49 -154 69.5t-190 20.5q-109 0 -208.5 -39t-174 -107.5t-118.5 -168t-44 -213.5z" />
<glyph unicode="h" horiz-adv-x="1198" d="M125 90q0 -40 29 -65t71 -25h94q44 0 72.5 24.5t28.5 65.5v311h358v-311q0 -41 28.5 -65.5t72.5 -24.5h90q45 0 73.5 24.5t28.5 65.5v834q0 41 -28.5 65.5t-73.5 24.5h-90q-44 0 -72.5 -24.5t-28.5 -65.5v-289h-358v289q0 41 -28.5 65.5t-72.5 24.5h-94q-42 0 -71 -25 t-29 -65v-834z" />
<glyph unicode="i" horiz-adv-x="546" d="M125 90q0 -40 29 -65t71 -25h97q42 0 71 25t29 65v834q0 40 -29 65t-71 25h-97q-42 0 -71 -25t-29 -65v-834z" />
<glyph unicode="j" horiz-adv-x="798" d="M14 129q-3 -15 -3 -28q0 -56 61 -78q81 -31 229 -31q199 0 296 83t97 234v615q0 40 -29 65t-71 25h-92q-42 0 -71.5 -25t-29.5 -65v-596q0 -56 -34 -77.5t-95 -21.5q-60 0 -135 19q-14 3 -27 3q-22 0 -41 -9q-30 -13 -40 -49z" />
<glyph unicode="k" horiz-adv-x="1062" d="M125 98q0 -41 29.5 -69.5t70.5 -28.5h97q41 0 70.5 28.5t29.5 69.5v238l72 63l276 -356q37 -49 93 -49q30 0 67 14l59 23q41 17 51 61q3 12 3 22q0 30 -21 56l-334 399l297 262q28 26 28 63v7q-3 41 -38 64l-62 36q-33 21 -64 21q-44 0 -85 -41l-342 -348v282 q0 41 -29.5 70t-70.5 29h-97q-41 0 -70.5 -29t-29.5 -70v-817z" />
<glyph unicode="l" horiz-adv-x="856" d="M125 121q0 -47 32 -79t79 -32h499q35 0 57.5 21.5t22.5 56.5v84q0 35 -22.5 56.5t-57.5 21.5h-313v674q0 40 -29 65t-71 25h-97q-42 0 -71 -25t-29 -65v-803z" />
<glyph unicode="m" horiz-adv-x="1320" d="M86 102q-1 -6 -1 -12q0 -34 20 -58q23 -28 65 -34l78 -4q5 -1 10 -1q34 1 62 25q30 28 36 70l25 436q4 46 4 88h2q6 -29 27 -88l92 -258q24 -73 108 -73h72q79 0 109 77l106 254q23 54 31 88h2q0 -65 2 -88l27 -438q3 -42 33 -68q27 -24 67 -24h6l70 2q43 2 71 32 q25 27 25 62v10l-76 805q-4 51 -25 74.5t-59 28.5l-90 10q-14 2 -27 2q-85 0 -114 -76l-182 -467h-5l-174 467q-29 70 -125 70h-86q-46 0 -74.5 -29t-33.5 -74z" />
<glyph unicode="n" horiz-adv-x="1181" d="M125 90q0 -40 29 -65t71 -25h64q42 0 71 25t29 65v494h4l377 -523q32 -41 64 -57q20 -10 46 -10q16 0 35 4l78 14q27 7 44.5 28.5t17.5 57.5v826q0 41 -28.5 65.5t-72.5 24.5h-61q-43 0 -71.5 -24.5t-28.5 -65.5v-492h-5l-360 522q-23 33 -48 46.5t-61 13.5h-94 q-41 0 -70.5 -29t-29.5 -70v-825z" />
<glyph unicode="o" horiz-adv-x="1165" d="M53 506q0 -148 72.5 -267t193.5 -184t265 -65t265 65t193 184t72 267q0 147 -72 266.5t-193 185.5t-265 66t-265 -66t-193.5 -185.5t-72.5 -266.5zM330 506q0 118 72.5 195t181.5 77q111 0 181.5 -75.5t70.5 -196.5q0 -117 -71 -193.5t-181 -76.5q-109 0 -181.5 76.5 t-72.5 193.5z" />
<glyph unicode="p" horiz-adv-x="1030" d="M125 90q0 -40 29 -65t71 -25h76q44 0 73 25t29 65v238q27 -2 89 -2q121 0 212.5 25t143 62t83.5 88.5t42 96t10 92.5q0 77 -28 136.5t-74 96.5t-112.5 61t-136 33t-151.5 9q-178 0 -278 -33q-36 -11 -57 -38.5t-21 -63.5v-801zM403 549v248q57 8 111 8q199 0 199 -125 q0 -67 -50 -100t-157 -33q-23 0 -103 2z" />
<glyph unicode="q" horiz-adv-x="1198" d="M53 506q0 -226 142 -371t358 -145q167 0 293 80l61 -58q32 -29 69 -29h2q39 1 75 31l39 35q32 23 32 63.5t-32 63.5l-74 51q96 138 96 291q0 147 -72 263.5t-193 179.5t-265 63t-265 -66t-193.5 -185.5t-72.5 -266.5zM326 506q0 124 72.5 200t193.5 76q114 0 186 -74.5 t72 -201.5q0 -76 -23 -144q-13 24 -34 41l-43 35q-25 19 -53 19q-5 0 -11 -1q-33 -4 -57 -28l-43 -41q-25 -22 -25 -55q0 -3 1 -6q2 -38 36 -62l16 -12q33 -24 62 -33q-16 -4 -45 -5h-17q-16 0 -24 1q-118 10 -191 91t-73 200z" />
<glyph unicode="r" horiz-adv-x="1077" d="M125 90q0 -40 29 -65t71 -25h76q44 0 73 25t29 65v270h121l226 -319q37 -47 94 -47q34 0 74 16l49 21q43 17 51 60q2 10 1 19q0 31 -22 56l-204 246q194 96 194 290q0 324 -493 324q-191 0 -291 -33q-36 -11 -57 -38.5t-21 -63.5v-801zM403 571v232q84 8 127 8 q187 0 187 -109q0 -75 -53.5 -103t-159.5 -28h-101z" />
<glyph unicode="s" horiz-adv-x="942" d="M56 116q12 -30 48 -50q138 -76 334 -76q74 0 138 10.5t120 35t95.5 61.5t62.5 92.5t23 125.5q0 155 -127 230q-48 31 -181 61q-127 25 -176 48.5t-49 70.5q0 66 131 66q108 0 227 -46q25 -9 46 -9q17 0 33 6q35 14 46 51l19 63q5 19 5 35q0 57 -63 80q-141 53 -301 53 q-81 0 -153 -18.5t-129.5 -55.5t-91 -98.5t-33.5 -140.5q0 -90 41 -156t112 -102q48 -25 156 -52q120 -25 160 -43q47 -21 47 -59q0 -76 -135 -76q-105 0 -242 56q-30 12 -55 12q-10 0 -20 -2q-32 -8 -50 -41l-31 -66q-11 -22 -11 -42q0 -13 4 -24z" />
<glyph unicode="t" horiz-adv-x="952" d="M20 850q0 -32 24 -55t56 -23h228v-682q0 -40 29 -65t71 -25h96q42 0 71.5 25t29.5 65v682h227q35 0 57.5 22.5t22.5 55.5v76q0 32 -23 55t-57 23h-752q-32 0 -56 -23.5t-24 -54.5v-76z" />
<glyph unicode="u" horiz-adv-x="1107" d="M94 434q0 -444 447 -444q225 0 349 111.5t124 332.5v490q0 40 -29.5 65t-71.5 25h-92q-42 0 -71 -25t-29 -65v-459q0 -122 -37 -175.5t-131 -53.5q-92 0 -129 54t-37 175v459q0 40 -29 65t-71 25h-92q-42 0 -71.5 -25t-29.5 -65v-490z" />
<glyph unicode="v" horiz-adv-x="1081" d="M27 838l313 -736q25 -53 54 -77.5t77 -24.5h94q37 0 63 16t38 34t26 50l359 738q11 23 16 44q3 14 3 28v14q-2 22 -20 39.5t-49 27.5l-67 23q-20 6 -40 6q-23 0 -44 -8q-40 -16 -57 -60l-263 -641h-2l-231 643q-13 37 -54 55q-25 11 -50 11q-15 0 -29 -4l-76 -21 q-40 -11 -58 -37q-18 -25 -18 -53q0 -30 15 -67z" />
<glyph unicode="w" horiz-adv-x="1398" d="M61 897l132 -764q24 -131 135 -131h108q49 0 87 26t55 74l98 322q9 36 16 70h4q7 -33 17 -70l94 -328q23 -90 133 -94l113 -2q47 0 81.5 32.5t45.5 86.5l174 778q3 15 3 27q0 30 -16 51q-23 30 -67 35l-70 8q-11 1 -21 1q-90 0 -106 -99l-86 -553q-3 -13 -6 -44.5 t-6 -46.5h-4q-12 61 -19 91l-94 374q-20 82 -129 82h-57q-102 0 -129 -88l-109 -368q-4 -15 -11.5 -50t-8.5 -41h-4q-1 18 -4 50.5t-4 40.5l-64 563q-4 42 -36 68q-27 22 -67 23q-6 0 -12 -1l-75 -8q-57 -6 -78 -37q-15 -22 -15 -53q0 -12 2 -25z" />
<glyph unicode="x" horiz-adv-x="1036" d="M32 96q6 -44 48 -63l51 -23q35 -16 66 -16q56 0 98 53l213 289l217 -297q33 -47 86 -47q35 0 78 20l55 25q41 19 49 63q2 9 2 18q0 34 -26 64l-283 348l262 304q30 31 30 68v6q-3 40 -48 65l-49 26q-41 21 -75 21q-48 0 -81 -43l-211 -285l-201 281q-29 41 -73 47 q-9 1 -18 1q-35 0 -66 -20l-52 -28q-42 -25 -48 -69q-1 -8 -1 -16q0 -34 23 -61l256 -317l-277 -334q-26 -31 -26 -66q0 -6 1 -14z" />
<glyph unicode="y" horiz-adv-x="1024" d="M18 928q-3 -12 -3 -25q0 -29 18 -57l319 -516v-240q0 -41 29.5 -69.5t71.5 -28.5h96q41 0 70.5 28.5t29.5 69.5v240l334 514q20 28 20 58q0 9 -2 18q-7 39 -49 57l-67 29q-33 15 -61 15q-59 0 -95 -65l-215 -395h-4l-221 406q-22 41 -72 51q-16 3 -31 3l-69 -15l-45 -19 q-42 -17 -54 -59z" />
<glyph unicode="z" horiz-adv-x="995" d="M53 98q0 -36 26 -62t62 -26h707q35 0 57.5 21.5t22.5 56.5v76q0 35 -22.5 56.5t-57.5 21.5h-424v4l450 520q36 37 50 66q9 17 8 37q0 14 -4 30l-10 49q-5 25 -25.5 40.5t-54.5 15.5h-684q-35 0 -57.5 -21.5t-22.5 -56.5v-76q0 -35 22.5 -56.5t57.5 -21.5h399v-4 l-436 -487q-34 -40 -49 -65t-15 -54v-64z" />
<glyph unicode="{" d="M61 0h541v1026h-541v-1026zM131 70v886h399v-886h-399z" />
<glyph unicode="|" d="M61 0h541v1026h-541v-1026zM131 70v886h399v-886h-399z" />
<glyph unicode="}" d="M61 0h541v1026h-541v-1026zM131 70v886h399v-886h-399z" />
<glyph unicode="~" d="M61 0h541v1026h-541v-1026zM131 70v886h399v-886h-399z" />
<glyph unicode="&#xa1;" horiz-adv-x="540" d="M115 100q-1 -40 29 -70t69 -30h115q41 0 71.5 30t26.5 70l-31 461q-5 41 -31 65.5t-67 24.5h-53q-41 0 -67.5 -24.5t-31.5 -65.5zM119 883q0 -60 43 -101t108 -41t107.5 40.5t42.5 101.5q0 60 -42 98.5t-108 38.5t-108.5 -38.5t-42.5 -98.5z" />
<glyph unicode="&#xa6;" d="M61 0h541v1026h-541v-1026zM131 70v886h399v-886h-399z" />
<glyph unicode="&#xa8;" horiz-adv-x="798" d="M61 1245q0 -55 38.5 -93t97.5 -38q55 0 93 38.5t38 92.5q0 55 -38 94t-93 39q-59 0 -97.5 -39t-38.5 -94zM471 1245q0 -55 37 -93t96 -38q55 0 94 38.5t39 92.5t-39 93.5t-94 39.5q-59 0 -96 -39t-37 -94z" />
<glyph unicode="&#xa9;" horiz-adv-x="1159" d="M53 506q0 -227 147.5 -371.5t379.5 -144.5q144 0 264.5 65t192 184t71.5 267q0 226 -148.5 372t-379.5 146q-222 0 -374.5 -147.5t-152.5 -370.5zM195 506q0 176 109.5 281.5t275.5 105.5t275.5 -105.5t109.5 -281.5t-109.5 -280.5t-275.5 -104.5t-275.5 104.5 t-109.5 280.5zM328 502q0 -112 70.5 -181t181.5 -69q114 0 182 49q31 16 16 57l-18 31q-22 35 -60 12q-57 -28 -104 -28q-60 0 -95.5 37.5t-35.5 99.5q0 66 38 99.5t101 33.5q40 0 94 -25q35 -21 58 17l18 27q21 34 -16 57q-36 24 -72.5 33.5t-91.5 9.5q-112 0 -189 -72.5 t-77 -187.5z" />
<glyph unicode="&#xaa;" horiz-adv-x="671" d="M35 478.5q9 -27.5 37 -34.5l47 -12q65 -15 86 39l22 59h215l19 -61q15 -49 76 -39l53 10q51 9 51 56q0 26 -8 39l-184 430q-21 49 -80 49h-54q-35 0 -53.5 -12t-30.5 -41l-192 -429q-13 -26 -4 -53.5zM264 664l74 194h4l66 -194h-144z" />
<glyph unicode="&#xad;" horiz-adv-x="751" d="M74 479q0 -35 22.5 -56.5t57.5 -21.5h446q35 0 57.5 21.5t22.5 56.5v74q0 35 -22.5 56.5t-57.5 21.5h-446q-35 0 -57.5 -21.5t-22.5 -56.5v-74z" />
<glyph unicode="&#xae;" horiz-adv-x="1159" d="M53 506q0 -227 147.5 -371.5t379.5 -144.5q144 0 264.5 65t192 184t71.5 267q0 226 -148.5 372t-379.5 146q-222 0 -374.5 -147.5t-152.5 -370.5zM195 506q0 176 109.5 281.5t275.5 105.5t275.5 -105.5t109.5 -281.5t-109.5 -280.5t-275.5 -104.5t-275.5 104.5 t-109.5 280.5zM373 301q0 -20 13.5 -32.5t33.5 -12.5h41q21 0 35 12.5t14 32.5v133h61l111 -158q28 -38 80 -16l26 12q22 7 26.5 29t-9.5 35l-100 123q52 24 72 57.5t20 85.5q0 48 -19 81t-54.5 49.5t-76 23t-94.5 6.5q-102 0 -141 -14q-39 -12 -39 -50v-397zM510 537v116 q21 4 63 4q89 0 89 -55q0 -36 -26 -50.5t-79 -14.5h-47z" />
<glyph unicode="&#xb2;" d="M61 0h541v1026h-541v-1026zM131 70v886h399v-886h-399z" />
<glyph unicode="&#xb3;" d="M61 0h541v1026h-541v-1026zM131 70v886h399v-886h-399z" />
<glyph unicode="&#xb4;" horiz-adv-x="468" d="M82 1227q-32 -98 57 -115l54 -10q82 -11 112 45l76 125q26 43 11.5 73t-64.5 41l-90 19q-35 7 -65.5 -5.5t-43.5 -45.5z" />
<glyph unicode="&#xb9;" d="M61 0h541v1026h-541v-1026zM131 70v886h399v-886h-399z" />
<glyph unicode="&#xba;" horiz-adv-x="720" d="M61 725q0 -126 87.5 -210.5t211.5 -84.5t211.5 84.5t87.5 210.5q0 128 -87.5 213.5t-211.5 85.5t-211.5 -85.5t-87.5 -213.5zM236 725q0 62 34.5 100.5t89.5 38.5t90 -38.5t35 -100.5q0 -60 -34.5 -97.5t-90.5 -37.5q-55 0 -89.5 37.5t-34.5 97.5z" />
<glyph unicode="&#xbc;" d="M61 0h541v1026h-541v-1026zM131 70v886h399v-886h-399z" />
<glyph unicode="&#xbd;" d="M61 0h541v1026h-541v-1026zM131 70v886h399v-886h-399z" />
<glyph unicode="&#xbe;" d="M61 0h541v1026h-541v-1026zM131 70v886h399v-886h-399z" />
<glyph unicode="&#xbf;" horiz-adv-x="835" d="M31 272q0 -75 33 -130.5t92 -88t134 -48t165 -15.5q195 0 319 71q36 21 46.5 52t-7.5 67l-25 49q-18 33 -50.5 44t-75.5 -7q-112 -47 -201 -47q-73 0 -118.5 18.5t-45.5 57.5q0 49 44.5 70t156.5 34q41 4 64.5 30t23.5 65v90q0 41 -27.5 65.5t-69.5 24.5h-55 q-41 0 -67.5 -25t-26.5 -63v-19q-309 -43 -309 -295zM317 883q0 -60 43 -101t109 -41q65 0 107 40.5t42 101.5q0 60 -41.5 98.5t-107.5 38.5t-109 -38.5t-43 -98.5z" />
<glyph unicode="&#xc0;" horiz-adv-x="1124" d="M25 75.5q10 -41.5 53 -52.5l98 -25q87 -21 121 63l47 119h426l47 -127q13 -38 47.5 -51.5t73.5 -5.5l92 18q35 7 54.5 28.5t19.5 51.5q0 34 -12 64l-344 776q-20 43 -49 61.5t-76 18.5h-99q-54 0 -82.5 -19t-52.5 -67l-354 -770q-20 -41 -10 -82.5zM347 1345 q-15 -30 11 -73l76 -125q30 -57 113 -45l51 10q91 18 59 115l-47 127q-13 33 -43 45.5t-65 5.5l-90 -19q-50 -11 -65 -41zM424 389l141 346h2l129 -346h-272z" />
<glyph unicode="&#xc1;" horiz-adv-x="1124" d="M25 75.5q-10 41.5 10 82.5l354 770q24 48 52.5 67t82.5 19h99q47 0 76 -18.5t49 -61.5l344 -776q12 -30 12 -64q0 -30 -19.5 -51.5t-54.5 -28.5l-92 -18q-25 -4 -48.5 -2t-43.5 17.5t-29 41.5l-47 127h-426l-47 -119q-34 -84 -121 -63l-98 25q-43 11 -53 52.5zM424 389 h272l-129 346h-2zM485 1227q-32 -98 58 -115l53 -10q83 -12 113 45l75 125q26 43 11.5 73t-64.5 41l-90 19q-35 7 -65.5 -5.5t-43.5 -45.5z" />
<glyph unicode="&#xc2;" horiz-adv-x="1124" d="M25 75.5q10 -41.5 53 -52.5l98 -25q87 -21 121 63l47 119h426l47 -127q13 -38 47.5 -51.5t73.5 -5.5l92 18q35 7 54.5 28.5t19.5 51.5q0 34 -12 64l-344 776q-20 43 -49 61.5t-76 18.5h-99q-54 0 -82.5 -19t-52.5 -67l-354 -770q-20 -41 -10 -82.5zM306.5 1187 q3.5 -33 37.5 -52l39 -23q49 -29 96 4l90 72l90 -72q48 -33 97 -4l39 23q34 19 37.5 52t-21.5 52l-113 117q-43 43 -80 43h-98q-37 0 -80 -43l-112 -117q-25 -19 -21.5 -52zM424 389l141 346h2l129 -346h-272z" />
<glyph unicode="&#xc3;" horiz-adv-x="1124" d="M25 75.5q10 -41.5 53 -52.5l98 -25q87 -21 121 63l47 119h426l47 -127q13 -38 47.5 -51.5t73.5 -5.5l92 18q35 7 54.5 28.5t19.5 51.5q0 34 -12 64l-344 776q-20 43 -49 61.5t-76 18.5h-99q-54 0 -82.5 -19t-52.5 -67l-354 -770q-20 -41 -10 -82.5zM301 1192l14 -35 q21 -56 88 -41q4 1 38 14t57 13q22 0 71 -17.5t88 -17.5q85 0 158 47q53 39 25 105l-15 34q-21 56 -88 41q-4 -1 -37.5 -13.5t-56.5 -12.5q-22 0 -72 17t-86 17q-86 0 -159 -47q-56 -41 -25 -104zM424 389l141 346h2l129 -346h-272z" />
<glyph unicode="&#xc4;" horiz-adv-x="1124" d="M25 75.5q10 -41.5 53 -52.5l98 -25q87 -21 121 63l47 119h426l47 -127q13 -38 47.5 -51.5t73.5 -5.5l92 18q35 7 54.5 28.5t19.5 51.5q0 34 -12 64l-344 776q-20 43 -49 61.5t-76 18.5h-99q-54 0 -82.5 -19t-52.5 -67l-354 -770q-20 -41 -10 -82.5zM233 1225 q0 -55 38.5 -93t97.5 -38q55 0 93 38.5t38 92.5q0 55 -38 94t-93 39q-59 0 -97.5 -39t-38.5 -94zM424 389l141 346h2l129 -346h-272zM643 1225q0 -55 37 -93t96 -38q55 0 94 38.5t39 92.5t-39 93.5t-94 39.5q-59 0 -96 -39t-37 -94z" />
<glyph unicode="&#xc7;" horiz-adv-x="1032" d="M53 496q0 -184 98.5 -312t262.5 -170l-27 -63q-8 -19 -8 -37q0 -25 16 -44.5t45 -25.5l82 -16q37 -6 65 5.5t38 41.5l39 127q176 18 266 86q66 50 26 119l-30 59q-18 34 -54 40t-67 -13q-65 -33 -110.5 -46.5t-100.5 -13.5q-117 0 -190.5 78t-73.5 201q0 135 77.5 202.5 t204.5 67.5q83 0 189 -53q35 -17 67 -7.5t52 42.5l32 51q46 69 -30 119q-143 90 -334 90q-147 0 -269 -66.5t-194 -188t-72 -273.5z" />
<glyph unicode="&#xc9;" horiz-adv-x="997" d="M125 121q0 -47 32 -79t79 -32h606q35 0 56.5 21.5t21.5 54.5v74q0 33 -21.5 54.5t-56.5 21.5h-432v170h276q31 0 51.5 19.5t20.5 51.5v76q0 31 -20.5 51.5t-51.5 20.5h-276v153h430q35 0 56.5 21.5t21.5 54.5v74q0 33 -21.5 54.5t-56.5 21.5h-582q-56 0 -94.5 -38.5 t-38.5 -93.5v-751zM416 1227q-32 -98 57 -115l53 -10q83 -12 113 45l76 125q26 43 11.5 73t-64.5 41l-91 19q-35 7 -65 -5.5t-43 -45.5z" />
<glyph unicode="&#xca;" horiz-adv-x="997" d="M125 121q0 -47 32 -79t79 -32h606q35 0 56.5 21.5t21.5 54.5v74q0 33 -21.5 54.5t-56.5 21.5h-432v170h276q31 0 51.5 19.5t20.5 51.5v76q0 31 -20.5 51.5t-51.5 20.5h-276v153h430q35 0 56.5 21.5t21.5 54.5v74q0 33 -21.5 54.5t-56.5 21.5h-582q-56 0 -94.5 -38.5 t-38.5 -93.5v-751zM269.5 1187q3.5 -33 37.5 -52l39 -23q49 -29 96 4l90 72l91 -72q47 -33 96 -4l39 23q34 19 37.5 52t-21.5 52l-112 117q-43 43 -80 43h-99q-37 0 -80 -43l-112 -117q-25 -19 -21.5 -52z" />
<glyph unicode="&#xcb;" horiz-adv-x="997" d="M125 121q0 -47 32 -79t79 -32h606q35 0 56.5 21.5t21.5 54.5v74q0 33 -21.5 54.5t-56.5 21.5h-432v170h276q31 0 51.5 19.5t20.5 51.5v76q0 31 -20.5 51.5t-51.5 20.5h-276v153h430q35 0 56.5 21.5t21.5 54.5v74q0 33 -21.5 54.5t-56.5 21.5h-582q-56 0 -94.5 -38.5 t-38.5 -93.5v-751zM195 1225q0 -55 38 -93t97 -38q55 0 93 38.5t38 92.5q0 55 -38 94t-93 39q-59 0 -97 -39t-38 -94zM604 1225q0 -55 37 -93t96 -38q55 0 94 38.5t39 92.5t-39 93.5t-94 39.5q-59 0 -96 -39t-37 -94z" />
<glyph unicode="&#xcd;" horiz-adv-x="546" d="M125 90v834q0 40 29 65t71 25h97q42 0 71 -25t29 -65v-834q0 -40 -29 -65t-71 -25h-97q-42 0 -71 25t-29 65zM178 1227q-32 -98 58 -115l53 -10q82 -11 112 45l76 125q26 43 11.5 73t-64.5 41l-90 19q-35 7 -65.5 -5.5t-43.5 -45.5z" />
<glyph unicode="&#xd0;" d="M61 0h541v1026h-541v-1026zM131 70v886h399v-886h-399z" />
<glyph unicode="&#xd1;" horiz-adv-x="1181" d="M125 90q0 -40 29 -65t71 -25h64q42 0 71 25t29 65v494h4l377 -523q32 -41 64.5 -57t80.5 -6l78 14q27 7 44.5 28.5t17.5 57.5v826q0 41 -28.5 65.5t-72.5 24.5h-61q-43 0 -71.5 -24.5t-28.5 -65.5v-492h-5l-360 522q-23 33 -48 46.5t-61 13.5h-94q-41 0 -70.5 -29 t-29.5 -70v-825zM326 1192l14 -35q21 -56 88 -41q5 1 38 14t56 13q22 0 71.5 -17.5t88.5 -17.5q85 0 158 47q26 19 32.5 40.5t-8.5 64.5l-14 34q-21 56 -88 41q-4 -1 -37.5 -13.5t-56.5 -12.5q-22 0 -72 17t-86 17q-87 0 -160 -47q-55 -41 -24 -104z" />
<glyph unicode="&#xd2;" horiz-adv-x="1165" d="M53 506q0 -148 72.5 -267t193.5 -184t265 -65t265 65t193 184t72 267q0 147 -72 266.5t-193 185.5t-265 66t-265 -66t-193.5 -185.5t-72.5 -266.5zM330 506q0 118 72.5 195t181.5 77q111 0 181.5 -75.5t70.5 -196.5q0 -117 -71 -193.5t-181 -76.5q-109 0 -181.5 76.5 t-72.5 193.5zM388 1345q-15 -30 11 -73l76 -125q30 -57 113 -45l51 10q91 18 59 115l-47 127q-13 33 -43 45.5t-65 5.5l-90 -19q-50 -11 -65 -41z" />
<glyph unicode="&#xd3;" horiz-adv-x="1165" d="M53 506q0 147 72.5 266.5t193.5 185.5t265 66t265 -66t193 -185.5t72 -266.5q0 -148 -72 -267t-193 -184t-265 -65t-265 65t-193.5 184t-72.5 267zM330 506q0 -117 72.5 -193.5t181.5 -76.5q110 0 181 76.5t71 193.5q0 121 -70.5 196.5t-181.5 75.5q-109 0 -181.5 -77 t-72.5 -195zM489 1227q-32 -98 58 -115l53 -10q83 -12 113 45l75 125q26 43 11.5 73t-64.5 41l-90 19q-35 7 -65 -5.5t-43 -45.5z" />
<glyph unicode="&#xd4;" horiz-adv-x="1165" d="M53 506q0 -148 72.5 -267t193.5 -184t265 -65t265 65t193 184t72 267q0 147 -72 266.5t-193 185.5t-265 66t-265 -66t-193.5 -185.5t-72.5 -266.5zM318.5 1187q3.5 -33 37.5 -52l39 -23q49 -29 97 4l90 72l90 -72q47 -33 96 -4l39 23q34 19 37.5 52t-21.5 52l-112 117 q-43 43 -80 43h-99q-36 0 -79 -43l-113 -117q-25 -19 -21.5 -52zM330 506q0 118 72.5 195t181.5 77q111 0 181.5 -75.5t70.5 -196.5q0 -117 -71 -193.5t-181 -76.5q-109 0 -181.5 76.5t-72.5 193.5z" />
<glyph unicode="&#xd5;" horiz-adv-x="1165" d="M53 506q0 -148 72.5 -267t193.5 -184t265 -65t265 65t193 184t72 267q0 147 -72 266.5t-193 185.5t-265 66t-265 -66t-193.5 -185.5t-72.5 -266.5zM322 1192l14 -35q21 -56 88 -41q5 1 38 14t56 13q22 0 71.5 -17.5t88.5 -17.5q85 0 158 47q26 19 32.5 40.5t-8.5 64.5 l-14 34q-21 56 -88 41q-4 -1 -37.5 -13.5t-56.5 -12.5q-22 0 -72 17t-86 17q-87 0 -160 -47q-55 -41 -24 -104zM330 506q0 118 72.5 195t181.5 77q111 0 181.5 -75.5t70.5 -196.5q0 -117 -71 -193.5t-181 -76.5q-109 0 -181.5 76.5t-72.5 193.5z" />
<glyph unicode="&#xd6;" horiz-adv-x="1165" d="M53 506q0 -148 72.5 -267t193.5 -184t265 -65t265 65t193 184t72 267q0 147 -72 266.5t-193 185.5t-265 66t-265 -66t-193.5 -185.5t-72.5 -266.5zM244 1225q0 -55 38 -93t97 -38q55 0 93 38.5t38 92.5q0 55 -38 94t-93 39q-59 0 -97 -39t-38 -94zM330 506 q0 118 72.5 195t181.5 77q111 0 181.5 -75.5t70.5 -196.5q0 -117 -71 -193.5t-181 -76.5q-109 0 -181.5 76.5t-72.5 193.5zM653 1225q0 -55 37 -93t96 -38q55 0 94.5 38.5t39.5 92.5t-39.5 93.5t-94.5 39.5q-59 0 -96 -39t-37 -94z" />
<glyph unicode="&#xd7;" d="M61 0h541v1026h-541v-1026zM131 70v886h399v-886h-399z" />
<glyph unicode="&#xd9;" horiz-adv-x="1107" d="M94 434q0 -444 447 -444q225 0 349 111.5t124 332.5v490q0 40 -29.5 65t-71.5 25h-92q-42 0 -71 -25t-29 -65v-459q0 -122 -37 -175.5t-131 -53.5q-92 0 -129 54t-37 175v459q0 40 -29 65t-71 25h-92q-42 0 -71.5 -25t-29.5 -65v-490zM355.5 1345q-14.5 -30 11.5 -73 l75 -125q30 -57 113 -45l51 10q92 18 60 115l-48 127q-13 33 -43 45.5t-65 5.5l-90 -19q-50 -11 -64.5 -41z" />
<glyph unicode="&#xda;" horiz-adv-x="1107" d="M94 434v490q0 40 29.5 65t71.5 25h92q42 0 71 -25t29 -65v-459q0 -121 37 -175t129 -54q94 0 131 53.5t37 175.5v459q0 40 29 65t71 25h92q42 0 71.5 -25t29.5 -65v-490q0 -221 -124 -332.5t-349 -111.5q-447 0 -447 444zM453 1227q-32 -98 57 -115l53 -10q83 -12 113 45 l76 125q26 43 11 73t-65 41l-90 19q-35 7 -65 -5.5t-43 -45.5z" />
<glyph unicode="&#xdb;" horiz-adv-x="1107" d="M94 434q0 -444 447 -444q225 0 349 111.5t124 332.5v490q0 40 -29.5 65t-71.5 25h-92q-42 0 -71 -25t-29 -65v-459q0 -122 -37 -175.5t-131 -53.5q-92 0 -129 54t-37 175v459q0 40 -29 65t-71 25h-92q-42 0 -71.5 -25t-29.5 -65v-490zM290 1187q4 -32 38 -52l39 -23 q49 -29 96 4l90 72l90 -72q47 -33 96 -4l39 23q34 20 38 52t-21 52l-113 117q-43 43 -80 43h-98q-37 0 -80 -43l-113 -117q-25 -20 -21 -52z" />
<glyph unicode="&#xdc;" horiz-adv-x="1107" d="M94 434q0 -444 447 -444q225 0 349 111.5t124 332.5v490q0 40 -29.5 65t-71.5 25h-92q-42 0 -71 -25t-29 -65v-459q0 -122 -37 -175.5t-131 -53.5q-92 0 -129 54t-37 175v459q0 40 -29 65t-71 25h-92q-42 0 -71.5 -25t-29.5 -65v-490zM221 1225q0 -55 38 -93t97 -38 q55 0 93 38.5t38 92.5q0 55 -38 94t-93 39q-59 0 -97 -39t-38 -94zM631 1225q0 -55 37 -93t96 -38q55 0 94 38.5t39 92.5t-39 93.5t-94 39.5q-59 0 -96 -39t-37 -94z" />
<glyph unicode="&#xdd;" d="M61 0h541v1026h-541v-1026zM131 70v886h399v-886h-399z" />
<glyph unicode="&#xde;" d="M61 0h541v1026h-541v-1026zM131 70v886h399v-886h-399z" />
<glyph unicode="&#xe0;" horiz-adv-x="1124" d="M25 75.5q10 -41.5 53 -52.5l98 -25q87 -21 121 63l47 119h426l47 -127q13 -38 47.5 -51.5t73.5 -5.5l92 18q35 7 54.5 28.5t19.5 51.5q0 34 -12 64l-344 776q-20 43 -49 61.5t-76 18.5h-99q-54 0 -82.5 -19t-52.5 -67l-354 -770q-20 -41 -10 -82.5zM347 1345 q-15 -30 11 -73l76 -125q30 -57 113 -45l51 10q91 18 59 115l-47 127q-13 33 -43 45.5t-65 5.5l-90 -19q-50 -11 -65 -41zM424 389l141 346h2l129 -346h-272z" />
<glyph unicode="&#xe1;" horiz-adv-x="1124" d="M25 75.5q10 -41.5 53 -52.5l98 -25q87 -21 121 63l47 119h426l47 -127q13 -38 47.5 -51.5t73.5 -5.5l92 18q35 7 54.5 28.5t19.5 51.5q0 34 -12 64l-344 776q-20 43 -49 61.5t-76 18.5h-99q-54 0 -82.5 -19t-52.5 -67l-354 -770q-20 -41 -10 -82.5zM424 389l141 346h2 l129 -346h-272zM485 1227q-32 -98 58 -115l53 -10q83 -12 113 45l75 125q26 43 11.5 73t-64.5 41l-90 19q-35 7 -65.5 -5.5t-43.5 -45.5z" />
<glyph unicode="&#xe2;" horiz-adv-x="1124" d="M25 75.5q10 -41.5 53 -52.5l98 -25q87 -21 121 63l47 119h426l47 -127q13 -38 47.5 -51.5t73.5 -5.5l92 18q35 7 54.5 28.5t19.5 51.5q0 34 -12 64l-344 776q-20 43 -49 61.5t-76 18.5h-99q-54 0 -82.5 -19t-52.5 -67l-354 -770q-20 -41 -10 -82.5zM306.5 1187 q3.5 -33 37.5 -52l39 -23q49 -29 96 4l90 72l90 -72q48 -33 97 -4l39 23q34 19 37.5 52t-21.5 52l-113 117q-43 43 -80 43h-98q-37 0 -80 -43l-112 -117q-25 -19 -21.5 -52zM424 389l141 346h2l129 -346h-272z" />
<glyph unicode="&#xe3;" horiz-adv-x="1124" d="M25 75.5q10 -41.5 53 -52.5l98 -25q87 -21 121 63l47 119h426l47 -127q13 -38 47.5 -51.5t73.5 -5.5l92 18q35 7 54.5 28.5t19.5 51.5q0 34 -12 64l-344 776q-20 43 -49 61.5t-76 18.5h-99q-54 0 -82.5 -19t-52.5 -67l-354 -770q-20 -41 -10 -82.5zM301 1192l14 -35 q21 -56 88 -41q4 1 38 14t57 13q22 0 71 -17.5t88 -17.5q85 0 158 47q53 39 25 105l-15 34q-21 56 -88 41q-4 -1 -37.5 -13.5t-56.5 -12.5q-22 0 -72 17t-86 17q-86 0 -159 -47q-56 -41 -25 -104zM424 389l141 346h2l129 -346h-272z" />
<glyph unicode="&#xe4;" horiz-adv-x="1124" d="M25 75.5q10 -41.5 53 -52.5l98 -25q87 -21 121 63l47 119h426l47 -127q13 -38 47.5 -51.5t73.5 -5.5l92 18q35 7 54.5 28.5t19.5 51.5q0 34 -12 64l-344 776q-20 43 -49 61.5t-76 18.5h-99q-54 0 -82.5 -19t-52.5 -67l-354 -770q-20 -41 -10 -82.5zM233 1225 q0 -55 38.5 -93t97.5 -38q55 0 93 38.5t38 92.5q0 55 -38 94t-93 39q-59 0 -97.5 -39t-38.5 -94zM424 389l141 346h2l129 -346h-272zM643 1225q0 -55 37 -93t96 -38q55 0 94 38.5t39 92.5t-39 93.5t-94 39.5q-59 0 -96 -39t-37 -94z" />
<glyph unicode="&#xe7;" horiz-adv-x="1032" d="M53 496q0 -184 98.5 -312t262.5 -170l-27 -63q-8 -19 -8 -37q0 -25 16 -44.5t45 -25.5l82 -16q37 -6 65 5.5t38 41.5l39 127q176 18 266 86q66 50 26 119l-30 59q-18 34 -54 40t-67 -13q-65 -33 -110.5 -46.5t-100.5 -13.5q-117 0 -190.5 78t-73.5 201q0 135 77.5 202.5 t204.5 67.5q83 0 189 -53q35 -17 67 -7.5t52 42.5l32 51q46 69 -30 119q-143 90 -334 90q-147 0 -269 -66.5t-194 -188t-72 -273.5z" />
<glyph unicode="&#xe9;" horiz-adv-x="997" d="M125 121q0 -47 32 -79t79 -32h606q35 0 56.5 21.5t21.5 54.5v74q0 33 -21.5 54.5t-56.5 21.5h-432v170h276q31 0 51.5 19.5t20.5 51.5v76q0 31 -20.5 51.5t-51.5 20.5h-276v153h430q35 0 56.5 21.5t21.5 54.5v74q0 33 -21.5 54.5t-56.5 21.5h-582q-56 0 -94.5 -38.5 t-38.5 -93.5v-751zM416 1227q-32 -98 57 -115l53 -10q83 -12 113 45l76 125q26 43 11.5 73t-64.5 41l-91 19q-35 7 -65 -5.5t-43 -45.5z" />
<glyph unicode="&#xea;" horiz-adv-x="997" d="M125 121q0 -47 32 -79t79 -32h606q35 0 56.5 21.5t21.5 54.5v74q0 33 -21.5 54.5t-56.5 21.5h-432v170h276q31 0 51.5 19.5t20.5 51.5v76q0 31 -20.5 51.5t-51.5 20.5h-276v153h430q35 0 56.5 21.5t21.5 54.5v74q0 33 -21.5 54.5t-56.5 21.5h-582q-56 0 -94.5 -38.5 t-38.5 -93.5v-751zM269.5 1187q3.5 -33 37.5 -52l39 -23q49 -29 96 4l90 72l91 -72q47 -33 96 -4l39 23q34 19 37.5 52t-21.5 52l-112 117q-43 43 -80 43h-99q-37 0 -80 -43l-112 -117q-25 -19 -21.5 -52z" />
<glyph unicode="&#xeb;" horiz-adv-x="997" d="M125 121q0 -47 32 -79t79 -32h606q35 0 56.5 21.5t21.5 54.5v74q0 33 -21.5 54.5t-56.5 21.5h-432v170h276q31 0 51.5 19.5t20.5 51.5v76q0 31 -20.5 51.5t-51.5 20.5h-276v153h430q35 0 56.5 21.5t21.5 54.5v74q0 33 -21.5 54.5t-56.5 21.5h-582q-56 0 -94.5 -38.5 t-38.5 -93.5v-751zM195 1225q0 -55 38 -93t97 -38q55 0 93 38.5t38 92.5q0 55 -38 94t-93 39q-59 0 -97 -39t-38 -94zM604 1225q0 -55 37 -93t96 -38q55 0 94 38.5t39 92.5t-39 93.5t-94 39.5q-59 0 -96 -39t-37 -94z" />
<glyph unicode="&#xed;" horiz-adv-x="546" d="M125 90q0 -40 29 -65t71 -25h97q42 0 71 25t29 65v834q0 40 -29 65t-71 25h-97q-42 0 -71 -25t-29 -65v-834zM178 1227q-32 -98 58 -115l53 -10q82 -11 112 45l76 125q26 43 11.5 73t-64.5 41l-90 19q-35 7 -65.5 -5.5t-43.5 -45.5z" />
<glyph unicode="&#xf0;" d="M61 0h541v1026h-541v-1026zM131 70v886h399v-886h-399z" />
<glyph unicode="&#xf1;" horiz-adv-x="1181" d="M125 90q0 -40 29 -65t71 -25h64q42 0 71 25t29 65v494h4l377 -523q32 -41 64.5 -57t80.5 -6l78 14q27 7 44.5 28.5t17.5 57.5v826q0 41 -28.5 65.5t-72.5 24.5h-61q-43 0 -71.5 -24.5t-28.5 -65.5v-492h-5l-360 522q-23 33 -48 46.5t-61 13.5h-94q-41 0 -70.5 -29 t-29.5 -70v-825zM326 1192l14 -35q21 -56 88 -41q5 1 38 14t56 13q22 0 71.5 -17.5t88.5 -17.5q85 0 158 47q26 19 32.5 40.5t-8.5 64.5l-14 34q-21 56 -88 41q-4 -1 -37.5 -13.5t-56.5 -12.5q-22 0 -72 17t-86 17q-87 0 -160 -47q-55 -41 -24 -104z" />
<glyph unicode="&#xf2;" horiz-adv-x="1165" d="M53 506q0 -148 72.5 -267t193.5 -184t265 -65t265 65t193 184t72 267q0 147 -72 266.5t-193 185.5t-265 66t-265 -66t-193.5 -185.5t-72.5 -266.5zM330 506q0 118 72.5 195t181.5 77q111 0 181.5 -75.5t70.5 -196.5q0 -117 -71 -193.5t-181 -76.5q-109 0 -181.5 76.5 t-72.5 193.5zM388 1345q-15 -30 11 -73l76 -125q30 -57 113 -45l51 10q91 18 59 115l-47 127q-13 33 -43 45.5t-65 5.5l-90 -19q-50 -11 -65 -41z" />
<glyph unicode="&#xf3;" horiz-adv-x="1165" d="M53 506q0 -148 72.5 -267t193.5 -184t265 -65t265 65t193 184t72 267q0 147 -72 266.5t-193 185.5t-265 66t-265 -66t-193.5 -185.5t-72.5 -266.5zM330 506q0 118 72.5 195t181.5 77q111 0 181.5 -75.5t70.5 -196.5q0 -117 -71 -193.5t-181 -76.5q-109 0 -181.5 76.5 t-72.5 193.5zM489 1227q-32 -98 58 -115l53 -10q83 -12 113 45l75 125q26 43 11.5 73t-64.5 41l-90 19q-35 7 -65 -5.5t-43 -45.5z" />
<glyph unicode="&#xf4;" horiz-adv-x="1165" d="M53 506q0 -148 72.5 -267t193.5 -184t265 -65t265 65t193 184t72 267q0 147 -72 266.5t-193 185.5t-265 66t-265 -66t-193.5 -185.5t-72.5 -266.5zM318.5 1187q3.5 -33 37.5 -52l39 -23q49 -29 97 4l90 72l90 -72q47 -33 96 -4l39 23q34 19 37.5 52t-21.5 52l-112 117 q-43 43 -80 43h-99q-36 0 -79 -43l-113 -117q-25 -19 -21.5 -52zM330 506q0 118 72.5 195t181.5 77q111 0 181.5 -75.5t70.5 -196.5q0 -117 -71 -193.5t-181 -76.5q-109 0 -181.5 76.5t-72.5 193.5z" />
<glyph unicode="&#xf5;" horiz-adv-x="1165" d="M53 506q0 -148 72.5 -267t193.5 -184t265 -65t265 65t193 184t72 267q0 147 -72 266.5t-193 185.5t-265 66t-265 -66t-193.5 -185.5t-72.5 -266.5zM322 1192l14 -35q21 -56 88 -41q5 1 38 14t56 13q22 0 71.5 -17.5t88.5 -17.5q85 0 158 47q26 19 32.5 40.5t-8.5 64.5 l-14 34q-21 56 -88 41q-4 -1 -37.5 -13.5t-56.5 -12.5q-22 0 -72 17t-86 17q-87 0 -160 -47q-55 -41 -24 -104zM330 506q0 118 72.5 195t181.5 77q111 0 181.5 -75.5t70.5 -196.5q0 -117 -71 -193.5t-181 -76.5q-109 0 -181.5 76.5t-72.5 193.5z" />
<glyph unicode="&#xf6;" horiz-adv-x="1165" d="M53 506q0 -148 72.5 -267t193.5 -184t265 -65t265 65t193 184t72 267q0 147 -72 266.5t-193 185.5t-265 66t-265 -66t-193.5 -185.5t-72.5 -266.5zM244 1225q0 -55 38 -93t97 -38q55 0 93 38.5t38 92.5q0 55 -38 94t-93 39q-59 0 -97 -39t-38 -94zM330 506 q0 118 72.5 195t181.5 77q111 0 181.5 -75.5t70.5 -196.5q0 -117 -71 -193.5t-181 -76.5q-109 0 -181.5 76.5t-72.5 193.5zM653 1225q0 -55 37 -93t96 -38q55 0 94.5 38.5t39.5 92.5t-39.5 93.5t-94.5 39.5q-59 0 -96 -39t-37 -94z" />
<glyph unicode="&#xf9;" horiz-adv-x="1107" d="M94 434q0 -444 447 -444q225 0 349 111.5t124 332.5v490q0 40 -29.5 65t-71.5 25h-92q-42 0 -71 -25t-29 -65v-459q0 -122 -37 -175.5t-131 -53.5q-92 0 -129 54t-37 175v459q0 40 -29 65t-71 25h-92q-42 0 -71.5 -25t-29.5 -65v-490zM355.5 1345q-14.5 -30 11.5 -73 l75 -125q30 -57 113 -45l51 10q92 18 60 115l-48 127q-13 33 -43 45.5t-65 5.5l-90 -19q-50 -11 -64.5 -41z" />
<glyph unicode="&#xfa;" horiz-adv-x="1107" d="M94 434q0 -444 447 -444q225 0 349 111.5t124 332.5v490q0 40 -29.5 65t-71.5 25h-92q-42 0 -71 -25t-29 -65v-459q0 -122 -37 -175.5t-131 -53.5q-92 0 -129 54t-37 175v459q0 40 -29 65t-71 25h-92q-42 0 -71.5 -25t-29.5 -65v-490zM453 1227q-32 -98 57 -115l53 -10 q83 -12 113 45l76 125q26 43 11 73t-65 41l-90 19q-35 7 -65 -5.5t-43 -45.5z" />
<glyph unicode="&#xfb;" horiz-adv-x="1107" d="M94 434q0 -444 447 -444q225 0 349 111.5t124 332.5v490q0 40 -29.5 65t-71.5 25h-92q-42 0 -71 -25t-29 -65v-459q0 -122 -37 -175.5t-131 -53.5q-92 0 -129 54t-37 175v459q0 40 -29 65t-71 25h-92q-42 0 -71.5 -25t-29.5 -65v-490zM290 1187q4 -32 38 -52l39 -23 q49 -29 96 4l90 72l90 -72q47 -33 96 -4l39 23q34 20 38 52t-21 52l-113 117q-43 43 -80 43h-98q-37 0 -80 -43l-113 -117q-25 -20 -21 -52z" />
<glyph unicode="&#xfc;" horiz-adv-x="1107" d="M94 434q0 -444 447 -444q225 0 349 111.5t124 332.5v490q0 40 -29.5 65t-71.5 25h-92q-42 0 -71 -25t-29 -65v-459q0 -122 -37 -175.5t-131 -53.5q-92 0 -129 54t-37 175v459q0 40 -29 65t-71 25h-92q-42 0 -71.5 -25t-29.5 -65v-490zM221 1225q0 -55 38 -93t97 -38 q55 0 93 38.5t38 92.5q0 55 -38 94t-93 39q-59 0 -97 -39t-38 -94zM631 1225q0 -55 37 -93t96 -38q55 0 94 38.5t39 92.5t-39 93.5t-94 39.5q-59 0 -96 -39t-37 -94z" />
<glyph unicode="&#xfd;" d="M61 0h541v1026h-541v-1026zM131 70v886h399v-886h-399z" />
<glyph unicode="&#xfe;" d="M61 0h541v1026h-541v-1026zM131 70v886h399v-886h-399z" />
<glyph unicode="&#x2c6;" horiz-adv-x="688" d="M81 1187q4 -32 38 -52l39 -23q49 -29 96 4l90 72l90 -72q47 -33 96 -4l39 23q33 19 36 50.5t-19 53.5l-113 117q-43 43 -80 43h-98q-37 0 -80 -43l-113 -117q-25 -20 -21 -52z" />
<glyph unicode="&#x2dc;" horiz-adv-x="720" d="M92 1212l14 -34q21 -56 89 -41q4 1 37.5 13.5t56.5 12.5q22 0 71.5 -17.5t88.5 -17.5q82 0 157 48q26 19 32.5 40t-7.5 64l-15 35q-21 56 -88 41q-5 -1 -38 -14t-56 -13q-22 0 -72 17.5t-86 17.5q-86 0 -159 -47q-56 -42 -25 -105z" />
<glyph unicode="&#x2000;" horiz-adv-x="712" />
<glyph unicode="&#x2001;" horiz-adv-x="1425" />
<glyph unicode="&#x2002;" horiz-adv-x="712" />
<glyph unicode="&#x2003;" horiz-adv-x="1425" />
<glyph unicode="&#x2004;" horiz-adv-x="475" />
<glyph unicode="&#x2005;" horiz-adv-x="356" />
<glyph unicode="&#x2006;" horiz-adv-x="237" />
<glyph unicode="&#x2007;" horiz-adv-x="237" />
<glyph unicode="&#x2008;" horiz-adv-x="178" />
<glyph unicode="&#x2009;" horiz-adv-x="285" />
<glyph unicode="&#x200a;" horiz-adv-x="79" />
<glyph unicode="&#x2010;" horiz-adv-x="751" d="M74 479q0 -35 22.5 -56.5t57.5 -21.5h446q35 0 57.5 21.5t22.5 56.5v74q0 35 -22.5 56.5t-57.5 21.5h-446q-35 0 -57.5 -21.5t-22.5 -56.5v-74z" />
<glyph unicode="&#x2011;" horiz-adv-x="751" d="M74 479q0 -35 22.5 -56.5t57.5 -21.5h446q35 0 57.5 21.5t22.5 56.5v74q0 35 -22.5 56.5t-57.5 21.5h-446q-35 0 -57.5 -21.5t-22.5 -56.5v-74z" />
<glyph unicode="&#x2012;" horiz-adv-x="751" d="M74 479q0 -35 22.5 -56.5t57.5 -21.5h446q35 0 57.5 21.5t22.5 56.5v74q0 35 -22.5 56.5t-57.5 21.5h-446q-35 0 -57.5 -21.5t-22.5 -56.5v-74z" />
<glyph unicode="&#x2013;" horiz-adv-x="1169" d="M74 479q0 -35 38 -56.5t97 -21.5h754q59 0 97 21.5t38 56.5v74q0 35 -38 56.5t-97 21.5h-754q-59 0 -97 -21.5t-38 -56.5v-74z" />
<glyph unicode="&#x2014;" horiz-adv-x="2193" d="M74 479q0 -35 76 -56.5t194 -21.5h1508q118 0 194 21.5t76 56.5v74q0 35 -76 56.5t-194 21.5h-1508q-118 0 -194 -21.5t-76 -56.5v-74z" />
<glyph unicode="&#x2018;" horiz-adv-x="411" d="M39 743q0 -69 47.5 -113t122.5 -44q58 0 101.5 39t43.5 100q0 88 -84 115q4 11 33 59q19 31 13.5 55t-29.5 37l-35 19q-63 29 -102 -19q-3 -4 -18 -26t-21.5 -31.5t-20 -31.5t-20.5 -38t-15.5 -37.5t-12 -42t-3.5 -41.5z" />
<glyph unicode="&#x2019;" horiz-adv-x="411" d="M57 885q0 -88 82 -115q-4 -17 -30 -59q-18 -31 -12.5 -56t30.5 -37l35 -18q64 -29 100 18q111 142 111 248q0 69 -46.5 113.5t-121.5 44.5q-59 0 -103.5 -39t-44.5 -100z" />
<glyph unicode="&#x201c;" horiz-adv-x="823" d="M39 743q0 -69 47.5 -113t122.5 -44q58 0 101.5 39t43.5 100q0 88 -84 115q4 11 33 59q19 31 13.5 55t-29.5 37l-35 19q-63 29 -102 -19q-3 -4 -18 -26t-21.5 -31.5t-20 -31.5t-20.5 -38t-15.5 -37.5t-12 -42t-3.5 -41.5zM451 743q0 -69 46 -113t121 -44q59 0 103.5 39 t44.5 100q0 77 -84 115q4 11 33 59q18 31 12.5 55.5t-31.5 36.5l-34 19q-64 29 -101 -19q-110 -141 -110 -248z" />
<glyph unicode="&#x201d;" horiz-adv-x="823" d="M57 885q0 -88 82 -115q-4 -17 -30 -59q-18 -31 -12.5 -56t30.5 -37l35 -18q64 -29 100 18q111 142 111 248q0 69 -46.5 113.5t-121.5 44.5q-59 0 -103.5 -39t-44.5 -100zM469 885q0 -88 82 -115q-2 -8 -5.5 -16t-6.5 -13t-9.5 -15t-9.5 -15q-18 -31 -12 -56t31 -37 l34 -18q25 -13 54 -9.5t47 27.5q110 141 110 248q0 69 -46.5 113.5t-121.5 44.5q-59 0 -103 -39t-44 -100z" />
<glyph unicode="&#x202f;" horiz-adv-x="285" />
<glyph unicode="&#x205f;" horiz-adv-x="356" />
<glyph unicode="&#x20ac;" horiz-adv-x="1058" d="M82 365q0 -46 45 -46h92q42 -163 161.5 -246t289.5 -83q99 0 180 24t127 58q51 41 20 100l-24 51q-29 59 -111 29q-97 -39 -170 -39q-81 0 -133.5 24t-75.5 82h219q43 0 43 46v49q0 20 -12 31.5t-31 11.5h-247v12q0 45 2 68h311q43 0 43 45v49q0 20 -12 31.5t-31 11.5 h-276q50 123 210 123q83 0 164 -37q66 -27 97 26l28 50q37 68 -24 108q-111 76 -285 76q-156 0 -276 -90.5t-175 -255.5h-104q-45 0 -45 -43v-49q0 -45 45 -45h78q-2 -23 -2 -66v-14h-76q-45 0 -45 -43v-49z" />
<glyph unicode="&#x2122;" horiz-adv-x="1290" d="M31 924q0 -19 13 -31t32 -12h125v-375q0 -23 15.5 -36t39.5 -13h53q24 0 40 13t16 36v375h124q19 0 31 12t12 31v41q0 18 -12.5 30.5t-30.5 12.5h-413q-19 0 -32 -13t-13 -30v-41zM584 512q-2 -25 10 -41.5t35 -17.5l45 -2q23 -2 39.5 13t17.5 40l12 291h5l65 -193 q13 -41 59 -41h41q44 3 58 43l76 191h4l14 -293q1 -24 18 -38.5t41 -12.5l37 2q25 1 40 17.5t13 39.5l-43 446q-6 53 -45 56l-51 4q-58 3 -76 -41l-98 -258h-4l-96 258q-18 39 -70 39h-45q-50 0 -61 -58z" />
<glyph unicode="&#x25fc;" horiz-adv-x="1024" d="M0 0v1024h1024v-1024h-1024z" />
</font>
</defs>
</svg>
