<?xml version="1.0" standalone="no"?>
<!DOCTYPE svg PUBLIC "-//W3C//DTD SVG 1.1//EN" "http://www.w3.org/Graphics/SVG/1.1/DTD/svg11.dtd" >
<svg xmlns="http://www.w3.org/2000/svg">
<metadata></metadata>
<defs>
<font id="vivoregular" horiz-adv-x="651" >
<font-face units-per-em="2048" ascent="1638" descent="-410" />
<missing-glyph horiz-adv-x="417" />
<glyph horiz-adv-x="2048" />
<glyph horiz-adv-x="2048" />
<glyph unicode="&#xd;" horiz-adv-x="2048" />
<glyph unicode=" "  horiz-adv-x="417" />
<glyph unicode="&#x09;" horiz-adv-x="417" />
<glyph unicode="&#xa0;" horiz-adv-x="417" />
<glyph unicode="!" horiz-adv-x="550" d="M133 922l33 -494q2 -32 25.5 -53t58.5 -21h53q35 0 58.5 21t25.5 53l31 494q1 35 -22.5 57t-59.5 22h-121q-36 0 -59.5 -22t-22.5 -57zM139 123q0 -56 40 -92.5t97 -36.5t97.5 37t40.5 96q0 56 -40.5 92.5t-97.5 36.5t-97 -37t-40 -96z" />
<glyph unicode="&#x22;" d="M55 0h541v1026h-541v-1026zM125 70v886h399v-886h-399z" />
<glyph unicode="#" d="M55 0h541v1026h-541v-1026zM125 70v886h399v-886h-399z" />
<glyph unicode="$" horiz-adv-x="913" d="M68 168q-29 -64 32 -100q103 -59 242 -72v-100q0 -28 17.5 -47t50.5 -19h75q33 0 50.5 19t17.5 47v104q134 22 214.5 98.5t80.5 206.5q0 113 -71.5 175.5t-211.5 97.5q-158 41 -204 65q-60 32 -60 78q0 48 42 75t122 27q112 0 237 -49q79 -30 103 39l18 49 q13 35 -3.5 60.5t-53.5 38.5q-77 32 -191 45v108q0 28 -17 47t-50 19h-76q-33 0 -50 -19t-17 -47v-113q-129 -25 -204 -96.5t-75 -193.5q0 -68 25.5 -120.5t73 -87.5t99.5 -57t122 -40l38 -9.5t41.5 -11t36.5 -11.5t36.5 -15t26 -17t20 -22t5.5 -27q0 -53 -43.5 -82 t-117.5 -29q-111 0 -248 60q-36 16 -67 7.5t-42 -32.5z" />
<glyph unicode="%" horiz-adv-x="1134" d="M25 762q0 -114 65 -176t172 -62q104 0 170 69t66 175q0 114 -64.5 176t-171.5 62q-104 0 -170.5 -69t-66.5 -175zM143 53.5q5 -17.5 25 -28.5l47 -27q19 -10 39.5 -5.5t34.5 21.5l694 891q16 21 11 39t-25 29l-47 26q-19 10 -39.5 5.5t-34.5 -21.5l-694 -891 q-16 -21 -11 -38.5zM176 762q0 119 86 119q39 0 62.5 -30t23.5 -83q0 -58 -23 -88.5t-63 -30.5q-41 0 -63.5 29.5t-22.5 83.5zM637 227q0 -114 64 -175.5t171 -61.5q104 0 171 68.5t67 174.5q0 114 -65.5 176t-172.5 62q-104 0 -169.5 -69t-65.5 -175zM786 227q0 58 23 88.5 t63 30.5q41 0 63.5 -29.5t22.5 -83.5q0 -118 -86 -118q-39 0 -62.5 29.5t-23.5 82.5z" />
<glyph unicode="&#x26;" horiz-adv-x="1067" d="M45 256q0 -126 102 -195t275 -69q197 0 326 90l69 -62q39 -30 74.5 -29.5t62.5 25.5l45 37q16 14 22.5 35t-2 46t-34.5 44l-88 66q68 107 68 213q0 31 -22 51t-54 20h-58q-30 0 -50.5 -17.5t-24.5 -47.5q-6 -63 -27 -109l-276 215q-61 47 -90 81.5t-29 68.5 q0 102 178 102q84 0 174 -33q86 -28 109 29l20 43q25 59 -31 92q-105 58 -276 58q-181 0 -288 -71.5t-107 -217.5q0 -119 104 -209v-2q-81 -43 -126.5 -102.5t-45.5 -151.5zM274 289q0 74 76 106l178 -133q81 -56 82 -57q-30 -15 -82 -23t-86 -8q-68 0 -118 29.5t-50 85.5z " />
<glyph unicode="'" horiz-adv-x="415" d="M72 885q0 -38 22 -66.5t60 -38.5q-8 -37 -33 -75q-28 -48 14 -72l27 -15q43 -21 76 5q32 27 74 101.5t42 145.5q0 62 -42 102t-109 40q-53 0 -92 -36t-39 -91z" />
<glyph unicode="(" d="M55 0h541v1026h-541v-1026zM125 70v886h399v-886h-399z" />
<glyph unicode=")" d="M55 0h541v1026h-541v-1026zM125 70v886h399v-886h-399z" />
<glyph unicode="*" d="M55 0h541v1026h-541v-1026zM125 70v886h399v-886h-399z" />
<glyph unicode="+" d="M55 0h541v1026h-541v-1026zM125 70v886h399v-886h-399z" />
<glyph unicode="," horiz-adv-x="393" d="M51 143q0 -42 22.5 -72t63.5 -40q-9 -39 -35 -80q-17 -23 -12 -43t29 -31l26 -16q46 -24 82 4q32 20 78.5 103.5t46.5 158.5q0 66 -43.5 106.5t-115.5 40.5q-57 0 -99.5 -36.5t-42.5 -94.5z" />
<glyph unicode="-" horiz-adv-x="739" d="M80 485q0 -34 20 -53.5t50 -19.5h442q30 0 50 19.5t20 53.5v52q0 34 -20 53.5t-50 19.5h-442q-30 0 -50 -19.5t-20 -53.5v-52z" />
<glyph unicode="." horiz-adv-x="393" d="M49 137q0 -60 43 -101.5t105 -41.5q61 0 104 40t43 97q0 60 -42.5 101.5t-104.5 41.5t-105 -40t-43 -97z" />
<glyph unicode="/" d="M55 0h541v1026h-541v-1026zM125 70v886h399v-886h-399z" />
<glyph unicode="0" horiz-adv-x="1067" d="M74 500q0 -240 128.5 -375t332.5 -135q201 0 329.5 143.5t128.5 366.5q0 242 -126 377t-332 135q-199 0 -330 -145t-131 -367zM305 500q0 148 60.5 229.5t169.5 81.5q106 0 166.5 -82t60.5 -229q0 -134 -62 -222t-165 -88q-105 0 -167.5 88t-62.5 222z" />
<glyph unicode="1" horiz-adv-x="622" d="M59 862q0 -34 19 -54t49 -20h113v-708q0 -35 19 -57.5t58 -22.5h84q39 0 59.5 22.5t20.5 57.5v797q0 49 -29 81.5t-79 32.5h-246q-30 0 -49 -19.5t-19 -53.5v-56z" />
<glyph unicode="2" horiz-adv-x="919" d="M61 131l7 -27q11 -54 38 -74t72 -20h584q30 0 49.5 20t19.5 54v51q0 34 -19.5 54t-49.5 20h-443v4l281 199q119 85 173 158t54 173q0 73 -31 127t-86 84t-120.5 44t-143.5 14q-185 0 -313 -88q-29 -19 -34 -49.5t16 -59.5l26 -41q20 -26 39.5 -31t69.5 17q102 51 203 51 q139 0 139 -82q0 -41 -31 -79t-141 -128l-268 -221q-56 -44 -78.5 -84t-12.5 -86z" />
<glyph unicode="3" horiz-adv-x="894" d="M39.5 106.5q7.5 -28.5 38.5 -45.5q125 -71 317 -71q87 0 160.5 18.5t131 56.5t90 100.5t32.5 145.5q0 219 -289 269v4l225 200q60 57 43 115l-10 43q-5 21 -22.5 35t-42.5 14h-559q-30 0 -49 -19.5t-19 -53.5v-50q0 -34 19 -53.5t49 -19.5h342v-7l-172 -159 q-32 -32 -42.5 -59t-0.5 -58l8 -27q15 -52 59 -55q117 -11 173.5 -37t56.5 -78q0 -70 -50.5 -97.5t-144.5 -27.5q-102 0 -209 52q-64 31 -98 -27l-27 -51q-17 -29 -9.5 -57.5z" />
<glyph unicode="4" horiz-adv-x="985" d="M41 299l10 -37q10 -53 68 -53h448v-133q0 -33 19.5 -54.5t58.5 -21.5h68q35 0 54 21.5t19 54.5v133h97q27 0 43 17.5t16 47.5v54q0 30 -16 47.5t-43 17.5h-97v522q0 40 -22.5 63t-58.5 23h-99q-39 0 -64 -15.5t-57 -53.5l-393 -488q-68 -79 -51 -145zM285 393v6l280 359 h2v-365h-282z" />
<glyph unicode="5" horiz-adv-x="931" d="M64 106.5q7 -29.5 38 -45.5q125 -71 324 -71q117 0 209 34t149.5 109t57.5 182q0 105 -45.5 170t-159.5 101t-309 39l6 170h393q30 0 49 19.5t19 53.5v50q0 34 -19 53.5t-49 19.5h-487q-47 0 -76.5 -29.5t-30.5 -78.5l-12 -316q-1 -61 28 -94t80 -33q116 0 194.5 -10 t117.5 -29.5t54 -40.5t15 -49q0 -63 -54 -92t-140 -29q-114 0 -217 50q-67 34 -99 -27l-28 -49q-15 -28 -8 -57.5z" />
<glyph unicode="6" horiz-adv-x="993" d="M84 455q0 -218 106.5 -341.5t325.5 -123.5q114 0 206 37t149 114t57 183q0 75 -34 133.5t-89.5 92.5t-119.5 51t-132 17q-162 0 -252 -79h-4q13 132 85.5 202t180.5 70q87 0 174 -33q35 -13 62.5 -3.5t38.5 36.5l16 49q12 29 5 56t-32 40q-109 56 -270 56 q-214 0 -343.5 -153t-129.5 -404zM319 313q0 53 52 88t151 35q97 0 140 -34t43 -89q0 -68 -54 -103.5t-135 -35.5q-77 0 -137 38t-60 101z" />
<glyph unicode="7" horiz-adv-x="890" d="M47 858q0 -35 18 -54.5t48 -19.5h477v-4l-397 -653q-12 -18 -14.5 -39.5t10 -43t42.5 -32.5l74 -24q65 -22 109 55l403 711q45 82 33 139l-10 43q-5 22 -24 38.5t-48 16.5h-655q-30 0 -48 -19t-18 -54v-60z" />
<glyph unicode="8" horiz-adv-x="1011" d="M68 268q0 -94 59.5 -158t154.5 -92t220 -28q124 0 220 32.5t153 100.5t57 164q0 98 -50.5 153t-144.5 82v6q74 29 112 83.5t38 127.5q0 89 -57 152.5t-142 92t-186 28.5t-186 -28.5t-142 -92t-57 -152.5q0 -77 32.5 -128t104.5 -83v-6q-88 -30 -137 -94.5t-49 -159.5z M293 301q0 56 54 89.5t155 33.5q102 0 155.5 -32t53.5 -87q0 -68 -60.5 -100.5t-148.5 -32.5q-90 0 -149.5 30.5t-59.5 98.5zM336 723q0 50 45.5 78t120.5 28q73 0 116.5 -28t43.5 -78q0 -54 -44 -85.5t-116 -31.5q-74 0 -120 32t-46 85z" />
<glyph unicode="9" horiz-adv-x="999" d="M78 670q0 -148 107.5 -229t267.5 -81q167 0 254 80h4q-18 -126 -93.5 -188t-195.5 -62q-88 0 -189 37q-35 12 -60 3.5t-36 -33.5l-20 -52q-25 -66 28 -96q110 -59 285 -59q228 0 361 147.5t133 407.5q0 225 -115 346t-340 121q-167 0 -279 -96.5t-112 -245.5zM297 682 q0 70 53.5 108.5t132.5 38.5q51 0 97 -16t79 -52t33 -85q0 -58 -57 -95.5t-158 -37.5q-92 0 -136 40.5t-44 98.5z" />
<glyph unicode=":" d="M55 0h541v1026h-541v-1026zM125 70v886h399v-886h-399z" />
<glyph unicode=";" d="M55 0h541v1026h-541v-1026zM125 70v886h399v-886h-399z" />
<glyph unicode="&#x3c;" d="M55 0h541v1026h-541v-1026zM125 70v886h399v-886h-399z" />
<glyph unicode="=" d="M55 0h541v1026h-541v-1026zM125 70v886h399v-886h-399z" />
<glyph unicode="&#x3e;" d="M55 0h541v1026h-541v-1026zM125 70v886h399v-886h-399z" />
<glyph unicode="?" horiz-adv-x="843" d="M33 842l14 -37q11 -28 40.5 -39t68.5 4q111 43 219 43q82 0 129 -23t47 -69q0 -47 -45 -71.5t-168 -41.5q-35 -4 -57.5 -30.5t-22.5 -61.5v-86q0 -33 22.5 -55.5t57.5 -22.5h57q36 0 57 23.5t21 64.5v29q324 52 324 283q0 90 -55.5 149.5t-145.5 85t-213 25.5 q-194 0 -315 -68q-62 -33 -35 -102zM223 123q0 -56 40 -92.5t97 -36.5t97.5 37t40.5 96q0 56 -40.5 92.5t-97.5 36.5t-97 -37t-40 -96z" />
<glyph unicode="@" horiz-adv-x="1243" d="M80 492q0 -121 40.5 -217.5t110.5 -157.5t161 -93t196 -32q97 0 184 20.5t143 55.5q32 25 13 57l-19 31q-22 37 -71 10q-109 -53 -254 -53q-69 0 -133 23.5t-116.5 68.5t-84 118.5t-31.5 165.5q0 173 110 288.5t294 115.5q180 0 290.5 -94.5t110.5 -249.5q0 -30 -4.5 -56 t-15.5 -51.5t-32.5 -40t-51.5 -14.5q-86 0 -86 102v170q0 56 -52 74q-56 25 -141 25q-74 0 -130.5 -23.5t-88.5 -63.5t-48 -87t-16 -99q0 -102 59.5 -161.5t153.5 -59.5q122 0 183 82q22 -42 65.5 -62t95.5 -20q62 0 110.5 26t76.5 68.5t42.5 93t14.5 103.5 q0 208 -150.5 334.5t-390.5 126.5q-116 0 -216.5 -41t-171 -111t-110.5 -166.5t-40 -205.5zM496 500q0 135 139 135q44 0 63 -8v-142q0 -45 -31.5 -71.5t-76.5 -26.5q-47 0 -70.5 34.5t-23.5 78.5z" />
<glyph unicode="A" horiz-adv-x="1110" d="M30 60q12 -34 48 -42l80 -20q14 -3 27 -3q53 0 75 52l55 131h469l52 -135q11 -33 41 -45q19 -7 38 -7q12 0 25 3l76 14q47 10 62 46q6 16 6 32q0 21 -11 43l-340 786q-39 86 -119 86h-94q-48 0 -77.5 -23.5t-49.5 -68.5l-354 -772q-13 -28 -13 -52q0 -13 4 -25zM393 375 l168 403h2l152 -403h-322z" />
<glyph unicode="B" horiz-adv-x="1042" d="M127 88q0 -34 22.5 -55.5t59.5 -26.5q147 -10 321 -10q97 0 176 17t141 52.5t96 95t34 140.5q0 91 -57 150.5t-152 80.5v3q147 72 147 223q0 120 -113 188t-321 68q-177 0 -280 -33q-34 -11 -54 -36t-20 -60v-797zM365 188v226h167q100 0 151.5 -30.5t51.5 -80.5 q0 -123 -229 -123q-75 0 -141 8zM365 592v229q55 8 116 8q201 0 201 -106q0 -71 -60 -101t-176 -30h-81z" />
<glyph unicode="C" horiz-adv-x="1007" d="M49 489q0 -217 137.5 -358t362.5 -141q119 0 218.5 31t143.5 65q31 23 31 54q0 20 -14 44l-25 45q-13 24 -35 33t-42 6t-40 -12q-113 -55 -204 -55q-130 0 -208.5 82.5t-78.5 222.5q0 149 83.5 222t217.5 73q105 0 195 -49q25 -16 56 -12t48 34l31 49q17 27 17 49 q0 34 -40 58q-129 82 -325 82q-150 0 -271 -67t-189.5 -187t-68.5 -269z" />
<glyph unicode="D" horiz-adv-x="1165" d="M125 88q0 -33 25.5 -57.5t70.5 -28.5q132 -12 301 -12q159 0 285.5 60t201 177t74.5 273q0 112 -32 201.5t-86 146.5t-129 95t-155 53.5t-171 15.5q-182 0 -311 -35q-32 -11 -53 -37.5t-21 -60.5v-791zM367 203v594q63 14 155 14q88 0 154 -28t102 -76t53 -102.5 t17 -115.5q0 -136 -88 -216t-242 -80q-68 0 -151 10z" />
<glyph unicode="E" horiz-adv-x="974" d="M127 104q0 -38 28 -66t66 -28h608q30 0 50 20t20 54v51q0 34 -20 54t-50 20h-458v201h293q30 0 49.5 19.5t19.5 53.5v52q0 34 -19.5 53.5t-49.5 19.5h-293v185h444q30 0 50 19.5t20 53.5v52q0 34 -20 53.5t-50 19.5h-571q-49 0 -83 -33.5t-34 -80.5v-773z" />
<glyph unicode="F" horiz-adv-x="864" d="M117 80q0 -34 21.5 -57t60.5 -23h80q39 0 60 23t21 57v282h273q30 0 49.5 20t19.5 54v58q0 34 -19.5 53.5t-49.5 19.5h-273v219h404q30 0 50 20t20 54v58q0 34 -20 53.5t-50 19.5h-531q-49 0 -82.5 -33t-33.5 -81v-797z" />
<glyph unicode="G" horiz-adv-x="1062" d="M49 489q0 -220 132 -359.5t364 -139.5q236 0 373 76q53 30 53 96v319q0 35 -24.5 58.5t-59.5 23.5h-262q-30 0 -49 -18.5t-19 -52.5v-52q0 -34 19 -52.5t49 -18.5h120v-156q-67 -20 -147 -20q-303 0 -303 313q0 153 79 226t224 73q123 0 217 -51q25 -16 56.5 -11t48.5 35 l26 45q16 27 16 50q0 35 -38 57q-60 38 -153.5 60t-192.5 22q-150 0 -271 -67t-189.5 -187t-68.5 -269z" />
<glyph unicode="H" horiz-adv-x="1157" d="M127 80q0 -34 21.5 -57t60.5 -23h86q39 0 60.5 23t21.5 57v328h403v-328q0 -34 21.5 -57t60.5 -23h86q39 0 60.5 23t21.5 57v842q0 34 -21.5 56.5t-60.5 22.5h-86q-39 0 -60.5 -22.5t-21.5 -56.5v-310h-403v310q0 34 -21.5 56.5t-60.5 22.5h-86q-39 0 -60.5 -22.5 t-21.5 -56.5v-842z" />
<glyph unicode="I" horiz-adv-x="503" d="M113 1217q0 -59 41 -101.5t96 -42.5q61 0 103 42t42 102q0 57 -42 98t-103 41q-54 0 -95.5 -41t-41.5 -98zM127 80q0 -34 21.5 -57t60.5 -23h86q39 0 60.5 23t21.5 57v842q0 34 -21.5 56.5t-60.5 22.5h-86q-39 0 -60.5 -22.5t-21.5 -56.5v-842z" />
<glyph unicode="J" horiz-adv-x="778" d="M6 111q-2 -12 -2 -23q0 -49 53 -68q82 -28 228 -28q192 0 287.5 85t95.5 230v615q0 34 -21.5 56.5t-60.5 22.5h-86q-39 0 -60.5 -22.5t-21.5 -56.5v-600q0 -123 -152 -123q-63 0 -147 20q-14 3 -27 3q-21 0 -38 -8q-27 -12 -34 -46z" />
<glyph unicode="K" horiz-adv-x="1030" d="M127 80q0 -34 21.5 -57t60.5 -23h86q39 0 60.5 23t21.5 57v262l92 82l295 -389q34 -42 83 -42q28 0 60 13l56 23q34 13 39 49q1 6 1 12q0 29 -20 53l-344 428l303 273q28 27 28 59q0 29 -30 53l-53 35q-32 21 -61 21q-39 0 -72 -37l-377 -385v332q0 34 -21.5 56.5 t-60.5 22.5h-86q-39 0 -60.5 -22.5t-21.5 -56.5v-842z" />
<glyph unicode="L" horiz-adv-x="841" d="M127 111q0 -41 29.5 -71t72.5 -30h488q30 0 49.5 20t19.5 54v51q0 34 -19.5 54t-49.5 20h-346v702q0 34 -21.5 57t-60.5 23h-80q-39 0 -60.5 -23t-21.5 -57v-800z" />
<glyph unicode="M" horiz-adv-x="1308" d="M84 78q-1 -7 -1 -13q0 -23 14 -42q18 -24 53 -25l92 -4h3q33 0 53 22q22 23 24 54l32 516q4 70 4 114h4q1 -2 11.5 -46t15.5 -60l115 -373q22 -63 100 -63h70q77 0 102 69l139 367q21 61 33 106h2q0 -9 2 -66.5t2 -66.5l31 -497q1 -32 21 -54q19 -22 52 -22h3l94 2 q35 1 55 28q16 22 16 46q0 6 -1 12l-78 821q-8 85 -94 96l-80 7q-10 1 -19 1q-85 0 -114 -77l-189 -494h-6l-151 479q-11 37 -40 61.5t-65 24.5h-123q-40 0 -69 -25.5t-33 -70.5z" />
<glyph unicode="N" horiz-adv-x="1159" d="M127 72q0 -31 24.5 -51.5t59.5 -20.5h49q36 0 61 21t25 51v559h4l424 -563q54 -73 115 -73q12 0 24 3l72 14q47 11 47 70v848q0 32 -24 51.5t-60 19.5h-49q-36 0 -60 -19.5t-24 -51.5v-555h-2l-412 563q-50 63 -104 63h-86q-36 0 -60 -22t-24 -57v-850z" />
<glyph unicode="O" horiz-adv-x="1146" d="M49 500q0 -142 61.5 -257t182 -184t280.5 -69q114 0 212 40t166.5 108.5t107.5 162.5t39 199q0 143 -62 258.5t-182.5 184.5t-280.5 69q-151 0 -271.5 -68.5t-186.5 -185t-66 -258.5zM291 500q0 134 77 216.5t205 82.5t205.5 -82.5t77.5 -216.5q0 -132 -77.5 -214.5 t-205.5 -82.5t-205 82.5t-77 214.5z" />
<glyph unicode="P" horiz-adv-x="1017" d="M127 80q0 -34 21.5 -57t60.5 -23h80q39 0 60.5 23t21.5 57v244q47 -2 98 -2q116 0 205.5 22.5t143 58t87.5 85t46 98.5t12 104q0 72 -25.5 128.5t-69 93t-106 60t-131 33t-148.5 9.5q-193 0 -293 -37q-30 -10 -46.5 -37t-16.5 -61v-799zM371 520v289q52 8 129 8 q231 0 231 -135q0 -164 -242 -164q-75 0 -118 2z" />
<glyph unicode="Q" horiz-adv-x="1175" d="M49 500q0 -142 61.5 -257t182 -184t280.5 -69q147 0 279 84l82 -64q29 -23 58 -23q35 0 71 33l35 33q26 25 26 56.5t-26 50.5l-92 63q92 137 92 289q0 219 -142 359.5t-383 140.5q-151 0 -271.5 -68.5t-186.5 -185t-66 -258.5zM289 500q0 134 78 216.5t206 82.5 q129 0 212 -80t83 -211q0 -99 -34 -168l-89 70q-25 18 -56 15t-52 -24l-37 -41q-24 -23 -22.5 -52.5t30.5 -49.5l80 -55q-58 -15 -106 -15q-127 0 -210 90.5t-83 221.5z" />
<glyph unicode="R" horiz-adv-x="1044" d="M127 80q0 -34 21.5 -57t60.5 -23h80q39 0 60.5 23t21.5 57v285h139l240 -328q25 -35 62 -41q8 -1 17 -2q31 0 70 16l43 17q36 14 46 48q3 11 3 21q0 22 -16 39l-236 277q209 91 209 297q0 72 -26.5 126t-70 87.5t-107.5 54.5t-131 29t-148 8q-161 0 -270 -35 q-32 -10 -50 -35t-18 -55v-809zM371 555v252q64 10 123 10q106 0 161.5 -26.5t55.5 -90.5q0 -79 -58 -112t-180 -33h-102z" />
<glyph unicode="S" horiz-adv-x="923" d="M68 168q-9 -21 -9 -38q0 -37 41 -62q139 -78 336 -78q115 0 205.5 31.5t148.5 104.5t58 179q0 113 -72 178t-211 99q-151 39 -192 61q-57 31 -58 78q0 45 42.5 68.5t111.5 23.5q104 0 229 -49q24 -9 43 -9q43 0 60 48l22 59q13 35 -3.5 60.5t-53.5 38.5q-135 51 -297 51 q-165 0 -274 -78t-109 -223q0 -68 25.5 -121t72.5 -88.5t100 -58t122 -40.5q12 -3 38.5 -9.5t41 -10.5t37 -11t35.5 -14t26.5 -16.5t19.5 -21.5t6 -27q0 -52 -42.5 -78.5t-116.5 -26.5q-111 0 -248 60q-24 10 -45 10q-11 0 -22 -2q-31 -8 -42 -33z" />
<glyph unicode="T" horiz-adv-x="899" d="M18 866q0 -34 20 -53.5t50 -19.5h240v-703q0 -34 21.5 -57t60.5 -23h79q39 0 60.5 23t21.5 57v703h240q30 0 50 19.5t20 53.5v52q0 34 -20 53.5t-50 19.5h-723q-30 0 -50 -19.5t-20 -53.5v-52z" />
<glyph unicode="U" horiz-adv-x="1077" d="M96 430q0 -440 428 -440q220 0 338.5 111t118.5 331v490q0 34 -21.5 56.5t-60.5 22.5h-86q-39 0 -60.5 -22.5t-21.5 -56.5v-457q0 -138 -43.5 -200t-150.5 -62t-149 62t-42 200v457q0 34 -21.5 56.5t-60.5 22.5h-86q-39 0 -60.5 -22.5t-21.5 -56.5v-492z" />
<glyph unicode="V" horiz-adv-x="1056" d="M16 894q2 -26 15 -54l305 -740q42 -100 119 -100h80q38 0 64 15t37 31.5t28 51.5l354 748q19 40 19 69q0 50 -58 66l-61 16q-22 6 -40 6q-58 0 -83 -59l-279 -690h-2l-250 696q-12 34 -48 46q-21 7 -39 7q-14 0 -27 -4l-74 -18q-34 -11 -48 -35q-12 -21 -13 -44 q1 -4 1 -8z" />
<glyph unicode="W" horiz-adv-x="1353" d="M61 891l136 -758q25 -131 118 -131h111q46 0 79.5 28.5t47.5 73.5l104 351q10 30 15 55h2q7 -49 12 -64l100 -350q11 -41 43.5 -67.5t73.5 -26.5h117q41 0 70 33.5t40 83.5l177 780q4 15 4 27q0 22 -12 38q-18 24 -60 29l-63 8q-11 1 -21 1q-80 0 -94 -84l-98 -601 q-7 -33 -11 -79h-4q-8 44 -20 94l-109 399q-21 82 -96 82h-80q-43 0 -64.5 -23t-35.5 -67l-119 -391q-22 -85 -23 -94h-4q-4 50 -10 79l-74 613q-3 36 -33 58q-24 17 -55 17q-7 0 -14 -1l-72 -9q-49 -6 -67 -35q-13 -21 -13 -48q0 -10 2 -21z" />
<glyph unicode="X" horiz-adv-x="1005" d="M25 84q3 -38 43 -55l51 -21q33 -13 60 -13q50 0 81 44l234 307l231 -313q25 -35 57 -39q5 -1 12 -1q30 0 72 19l49 21q39 17 45 55q1 6 1 13q0 32 -29 67l-297 362l285 318q24 27 24 57v7q-3 34 -37 51l-49 26q-37 20 -67 20q-40 0 -66 -36l-225 -299l-213 295 q-23 33 -62 37q-7 1 -13 1q-31 0 -60 -16l-54 -26q-36 -17 -41 -55q-1 -6 -1 -12q0 -30 22 -56l272 -332l-297 -354q-28 -32 -28 -66v-6z" />
<glyph unicode="Y" horiz-adv-x="970" d="M16 930q-3 -10 -3 -21q0 -25 16 -51l321 -512v-266q0 -34 21.5 -57t60.5 -23h86q39 0 60.5 23t21.5 57v266l336 512q19 24 19 50q0 8 -1 15q-7 35 -43 48l-67 24q-32 11 -55 11q-14 0 -25 -4q-29 -11 -53 -50l-226 -407h-2l-229 420q-28 44 -80 44q-27 0 -61 -12l-56 -20 q-32 -11 -41 -47z" />
<glyph unicode="Z" horiz-adv-x="974" d="M55 82q0 -29 20.5 -50.5t49.5 -21.5h711q30 0 49.5 20t19.5 54v55q0 34 -19.5 54t-49.5 20h-461v6l477 561q32 32 45 60q8 18 8 39q0 11 -2 24l-8 37q-6 25 -27 38t-49 13h-674q-30 0 -49.5 -19.5t-19.5 -53.5v-56q0 -34 19.5 -54t49.5 -20h435v-6l-465 -528 q-33 -38 -46.5 -63t-13.5 -54v-55z" />
<glyph unicode="[" d="M55 0h541v1026h-541v-1026zM125 70v886h399v-886h-399z" />
<glyph unicode="\" d="M55 0h541v1026h-541v-1026zM125 70v886h399v-886h-399z" />
<glyph unicode="]" d="M55 0h541v1026h-541v-1026zM125 70v886h399v-886h-399z" />
<glyph unicode="^" d="M55 0h541v1026h-541v-1026zM125 70v886h399v-886h-399z" />
<glyph unicode="_" d="M55 0h541v1026h-541v-1026zM125 70v886h399v-886h-399z" />
<glyph unicode="`" horiz-adv-x="497" d="M101.5 1347.5q-14.5 -30.5 11.5 -73.5l75 -125q32 -60 113 -45l41 8q34 7 50 24t14.5 40t-9.5 51l-47 127q-13 33 -43 45.5t-65 5.5l-76 -16q-50 -11 -64.5 -41.5z" />
<glyph unicode="a" horiz-adv-x="1110" d="M30 60q12 -34 48 -42l80 -20q14 -3 27 -3q53 0 75 52l55 131h469l52 -135q11 -33 41 -45q19 -7 38 -7q12 0 25 3l76 14q47 10 62 46q6 16 6 32q0 21 -11 43l-340 786q-39 86 -119 86h-94q-48 0 -77.5 -23.5t-49.5 -68.5l-354 -772q-13 -28 -13 -52q0 -13 4 -25zM393 375 l168 403h2l152 -403h-322z" />
<glyph unicode="b" horiz-adv-x="1042" d="M127 88q0 -34 22.5 -55.5t59.5 -26.5q147 -10 321 -10q97 0 176 17t141 52.5t96 95t34 140.5q0 91 -57 150.5t-152 80.5v3q147 72 147 223q0 120 -113 188t-321 68q-177 0 -280 -33q-34 -11 -54 -36t-20 -60v-797zM365 188v226h167q100 0 151.5 -30.5t51.5 -80.5 q0 -123 -229 -123q-75 0 -141 8zM365 592v229q55 8 116 8q201 0 201 -106q0 -71 -60 -101t-176 -30h-81z" />
<glyph unicode="c" horiz-adv-x="1007" d="M49 489q0 -217 137.5 -358t362.5 -141q119 0 218.5 31t143.5 65q31 23 31 54q0 20 -14 44l-25 45q-13 24 -35 33t-42 6t-40 -12q-113 -55 -204 -55q-130 0 -208.5 82.5t-78.5 222.5q0 149 83.5 222t217.5 73q105 0 195 -49q25 -16 56 -12t48 34l31 49q17 27 17 49 q0 34 -40 58q-129 82 -325 82q-150 0 -271 -67t-189.5 -187t-68.5 -269z" />
<glyph unicode="d" horiz-adv-x="1146" d="M125 88q0 -33 25.5 -57.5t70.5 -28.5q132 -12 301 -12q159 0 285.5 60t201 177t74.5 273q0 112 -32 201.5t-86 146.5t-129 95t-155 53.5t-171 15.5q-182 0 -311 -35q-32 -11 -53 -37.5t-21 -60.5v-791zM367 203v594q63 14 155 14q88 0 154 -28t102 -76t53 -102.5 t17 -115.5q0 -136 -88 -216t-242 -80q-68 0 -151 10z" />
<glyph unicode="e" horiz-adv-x="974" d="M127 104q0 -38 28 -66t66 -28h608q30 0 50 20t20 54v51q0 34 -20 54t-50 20h-458v201h293q30 0 49.5 19.5t19.5 53.5v52q0 34 -19.5 53.5t-49.5 19.5h-293v185h444q30 0 50 19.5t20 53.5v52q0 34 -20 53.5t-50 19.5h-571q-49 0 -83 -33.5t-34 -80.5v-773z" />
<glyph unicode="f" horiz-adv-x="864" d="M117 80q0 -34 21.5 -57t60.5 -23h80q39 0 60 23t21 57v282h273q30 0 49.5 20t19.5 54v58q0 34 -19.5 53.5t-49.5 19.5h-273v219h404q30 0 50 20t20 54v58q0 34 -20 53.5t-50 19.5h-531q-49 0 -82.5 -33t-33.5 -81v-797z" />
<glyph unicode="g" horiz-adv-x="1062" d="M49 489q0 -220 132 -359.5t364 -139.5q236 0 373 76q53 30 53 96v319q0 35 -24.5 58.5t-59.5 23.5h-262q-30 0 -49 -18.5t-19 -52.5v-52q0 -34 19 -52.5t49 -18.5h120v-156q-67 -20 -147 -20q-303 0 -303 313q0 153 79 226t224 73q123 0 217 -51q25 -16 56.5 -11t48.5 35 l26 45q16 27 16 50q0 35 -38 57q-60 38 -153.5 60t-192.5 22q-150 0 -271 -67t-189.5 -187t-68.5 -269z" />
<glyph unicode="h" horiz-adv-x="1157" d="M127 80q0 -34 21.5 -57t60.5 -23h86q39 0 60.5 23t21.5 57v328h403v-328q0 -34 21.5 -57t60.5 -23h86q39 0 60.5 23t21.5 57v842q0 34 -21.5 56.5t-60.5 22.5h-86q-39 0 -60.5 -22.5t-21.5 -56.5v-310h-403v310q0 34 -21.5 56.5t-60.5 22.5h-86q-39 0 -60.5 -22.5 t-21.5 -56.5v-842z" />
<glyph unicode="i" horiz-adv-x="503" d="M127 80q0 -34 21.5 -57t60.5 -23h86q39 0 60.5 23t21.5 57v842q0 34 -21.5 56.5t-60.5 22.5h-86q-39 0 -60.5 -22.5t-21.5 -56.5v-842z" />
<glyph unicode="j" horiz-adv-x="778" d="M6 111q-2 -12 -2 -23q0 -49 53 -68q82 -28 228 -28q192 0 287.5 85t95.5 230v615q0 34 -21.5 56.5t-60.5 22.5h-86q-39 0 -60.5 -22.5t-21.5 -56.5v-600q0 -123 -152 -123q-63 0 -147 20q-14 3 -27 3q-21 0 -38 -8q-27 -12 -34 -46z" />
<glyph unicode="k" horiz-adv-x="1030" d="M127 80q0 -34 21.5 -57t60.5 -23h86q39 0 60.5 23t21.5 57v262l92 82l295 -389q34 -42 83 -42q28 0 60 13l56 23q34 13 39 49q1 6 1 12q0 29 -20 53l-344 428l303 273q28 27 28 59q0 29 -30 53l-53 35q-32 21 -61 21q-39 0 -72 -37l-377 -385v332q0 34 -21.5 56.5 t-60.5 22.5h-86q-39 0 -60.5 -22.5t-21.5 -56.5v-842z" />
<glyph unicode="l" horiz-adv-x="841" d="M127 111q0 -41 29.5 -71t72.5 -30h488q30 0 49.5 20t19.5 54v51q0 34 -19.5 54t-49.5 20h-346v702q0 34 -21.5 57t-60.5 23h-80q-39 0 -60.5 -23t-21.5 -57v-800z" />
<glyph unicode="m" horiz-adv-x="1320" d="M84 78q-1 -7 -1 -13q0 -23 14 -42q18 -24 53 -25l83 -4h3q34 0 54 22q22 23 23 54l33 524q0 20 3 72.5t3 58.5h4q30 -99 35 -123l127 -381q25 -71 92 -71h68q68 0 96 77l144 375q27 63 43 123h2q0 -11 3 -77t3 -73l32 -505q2 -33 20 -55q17 -21 49 -21h3l94 2q35 1 55 28 q16 22 16 46q0 6 -1 12l-78 821q-8 85 -94 96l-86 7q-10 1 -19 1q-85 0 -114 -77l-189 -494h-6l-151 475q-11 38 -40 64t-65 26h-123q-40 0 -72 -27.5t-36 -72.5z" />
<glyph unicode="n" horiz-adv-x="1159" d="M127 72q0 -31 24.5 -51.5t59.5 -20.5h49q36 0 61 21t25 51v559h4l424 -563q54 -73 115 -73q12 0 24 3l72 14q47 11 47 70v848q0 32 -24 51.5t-60 19.5h-49q-36 0 -60 -19.5t-24 -51.5v-555h-2l-412 563q-50 63 -104 63h-86q-36 0 -60 -22t-24 -57v-850z" />
<glyph unicode="o" horiz-adv-x="1146" d="M49 500q0 -142 61.5 -257t182 -184t280.5 -69q114 0 212 40t166.5 108.5t107.5 162.5t39 199q0 143 -62 258.5t-182.5 184.5t-280.5 69q-151 0 -271.5 -68.5t-186.5 -185t-66 -258.5zM291 500q0 134 77 216.5t205 82.5t205.5 -82.5t77.5 -216.5q0 -132 -77.5 -214.5 t-205.5 -82.5t-205 82.5t-77 214.5z" />
<glyph unicode="p" horiz-adv-x="1017" d="M127 80q0 -34 21.5 -57t60.5 -23h80q39 0 60.5 23t21.5 57v244q47 -2 98 -2q116 0 205.5 22.5t143 58t87.5 85t46 98.5t12 104q0 72 -25.5 128.5t-69 93t-106 60t-131 33t-148.5 9.5q-193 0 -293 -37q-30 -10 -46.5 -37t-16.5 -61v-799zM371 520v289q52 8 129 8 q231 0 231 -135q0 -164 -242 -164q-75 0 -118 2z" />
<glyph unicode="q" horiz-adv-x="1175" d="M49 500q0 -142 61.5 -257t182 -184t280.5 -69q147 0 279 84l82 -64q29 -23 58 -23q35 0 71 33l35 33q26 25 26 56.5t-26 50.5l-92 63q92 137 92 289q0 219 -142 359.5t-383 140.5q-151 0 -271.5 -68.5t-186.5 -185t-66 -258.5zM289 500q0 134 78 216.5t206 82.5 q129 0 212 -80t83 -211q0 -99 -34 -168l-89 70q-25 18 -56 15t-52 -24l-37 -41q-24 -23 -22.5 -52.5t30.5 -49.5l80 -55q-58 -15 -106 -15q-127 0 -210 90.5t-83 221.5z" />
<glyph unicode="r" horiz-adv-x="1044" d="M127 80q0 -34 21.5 -57t60.5 -23h80q39 0 60.5 23t21.5 57v285h139l240 -328q25 -35 62 -41q8 -1 17 -2q31 0 70 16l43 17q36 14 46 48q3 11 3 21q0 22 -16 39l-236 277q209 91 209 297q0 72 -26.5 126t-70 87.5t-107.5 54.5t-131 29t-148 8q-161 0 -270 -35 q-32 -10 -50 -35t-18 -55v-809zM371 555v252q64 10 123 10q106 0 161.5 -26.5t55.5 -90.5q0 -79 -58 -112t-180 -33h-102z" />
<glyph unicode="s" horiz-adv-x="923" d="M68 168q-9 -21 -9 -38q0 -37 41 -62q139 -78 336 -78q115 0 205.5 31.5t148.5 104.5t58 179q0 113 -72 178t-211 99q-151 39 -192 61q-57 31 -58 78q0 45 42.5 68.5t111.5 23.5q104 0 229 -49q24 -9 43 -9q43 0 60 48l22 59q13 35 -3.5 60.5t-53.5 38.5q-135 51 -297 51 q-165 0 -274 -78t-109 -223q0 -68 25.5 -121t72.5 -88.5t100 -58t122 -40.5q12 -3 38.5 -9.5t41 -10.5t37 -11t35.5 -14t26.5 -16.5t19.5 -21.5t6 -27q0 -52 -42.5 -78.5t-116.5 -26.5q-111 0 -248 60q-24 10 -45 10q-11 0 -22 -2q-31 -8 -42 -33z" />
<glyph unicode="t" horiz-adv-x="899" d="M18 866q0 -34 20 -53.5t50 -19.5h240v-703q0 -34 21.5 -57t60.5 -23h79q39 0 60.5 23t21.5 57v703h240q30 0 50 19.5t20 53.5v52q0 34 -20 53.5t-50 19.5h-723q-30 0 -50 -19.5t-20 -53.5v-52z" />
<glyph unicode="u" horiz-adv-x="1077" d="M96 430q0 -440 428 -440q220 0 338.5 111t118.5 331v490q0 34 -21.5 56.5t-60.5 22.5h-86q-39 0 -60.5 -22.5t-21.5 -56.5v-457q0 -138 -43.5 -200t-150.5 -62t-149 62t-42 200v457q0 34 -21.5 56.5t-60.5 22.5h-86q-39 0 -60.5 -22.5t-21.5 -56.5v-492z" />
<glyph unicode="v" horiz-adv-x="1056" d="M16 894q2 -26 15 -54l305 -740q42 -100 119 -100h80q38 0 64 15t37 31.5t28 51.5l354 748q19 40 19 69q0 50 -58 66l-61 16q-22 6 -40 6q-58 0 -83 -59l-279 -690h-2l-250 696q-12 34 -48 46q-21 7 -39 7q-14 0 -27 -4l-74 -18q-34 -11 -48 -35q-12 -21 -13 -44 q1 -4 1 -8z" />
<glyph unicode="w" horiz-adv-x="1353" d="M61 891l136 -758q25 -131 118 -131h111q46 0 79.5 28.5t47.5 73.5l104 351q10 30 15 55h2q7 -49 12 -64l100 -350q11 -41 43.5 -67.5t73.5 -26.5h117q41 0 70 33.5t40 83.5l177 780q4 15 4 27q0 22 -12 38q-18 24 -60 29l-63 8q-11 1 -21 1q-80 0 -94 -84l-98 -601 q-7 -33 -11 -79h-4q-8 44 -20 94l-109 399q-21 82 -96 82h-80q-43 0 -64.5 -23t-35.5 -67l-119 -391q-22 -85 -23 -94h-4q-4 50 -10 79l-74 613q-3 36 -33 58q-24 17 -55 17q-7 0 -14 -1l-72 -9q-49 -6 -67 -35q-13 -21 -13 -48q0 -10 2 -21z" />
<glyph unicode="x" horiz-adv-x="1005" d="M25 84q3 -38 43 -55l51 -21q33 -13 60 -13q50 0 81 44l234 307l231 -313q25 -35 57 -39q5 -1 12 -1q30 0 72 19l49 21q39 17 45 55q1 6 1 13q0 32 -29 67l-297 362l285 318q24 27 24 57v7q-3 34 -37 51l-49 26q-37 20 -67 20q-40 0 -66 -36l-225 -299l-213 295 q-23 33 -62 37q-7 1 -13 1q-31 0 -60 -16l-54 -26q-36 -17 -41 -55q-1 -6 -1 -12q0 -30 22 -56l272 -332l-297 -354q-28 -32 -28 -66v-6z" />
<glyph unicode="y" horiz-adv-x="970" d="M16 930q-3 -10 -3 -21q0 -25 16 -51l321 -512v-266q0 -34 21.5 -57t60.5 -23h86q39 0 60.5 23t21.5 57v266l336 512q19 24 19 50q0 8 -1 15q-7 35 -43 48l-67 24q-32 11 -55 11q-14 0 -25 -4q-29 -11 -53 -50l-226 -407h-2l-229 420q-28 44 -80 44q-27 0 -61 -12l-56 -20 q-32 -11 -41 -47z" />
<glyph unicode="z" horiz-adv-x="974" d="M55 82q0 -29 20.5 -50.5t49.5 -21.5h711q30 0 49.5 20t19.5 54v55q0 34 -19.5 54t-49.5 20h-461v6l477 561q32 32 45 60q8 18 8 39q0 11 -2 24l-8 37q-6 25 -27 38t-49 13h-674q-30 0 -49.5 -19.5t-19.5 -53.5v-56q0 -34 19.5 -54t49.5 -20h435v-6l-465 -528 q-33 -38 -46.5 -63t-13.5 -54v-55z" />
<glyph unicode="{" d="M55 0h541v1026h-541v-1026zM125 70v886h399v-886h-399z" />
<glyph unicode="|" d="M55 0h541v1026h-541v-1026zM125 70v886h399v-886h-399z" />
<glyph unicode="}" d="M55 0h541v1026h-541v-1026zM125 70v886h399v-886h-399z" />
<glyph unicode="~" d="M55 0h541v1026h-541v-1026zM125 70v886h399v-886h-399z" />
<glyph unicode="&#xa1;" horiz-adv-x="563" d="M139 92q-1 -35 22.5 -57.5t59.5 -22.5h121q36 0 59.5 22.5t22.5 57.5l-33 494q-1 32 -25 52.5t-59 20.5h-53q-35 0 -59 -20.5t-25 -52.5zM143 887q0 -56 40.5 -92.5t97.5 -36.5t97 37t40 96q0 56 -40 92.5t-97 36.5t-97.5 -37t-40.5 -96z" />
<glyph unicode="&#xa6;" d="M55 0h541v1026h-541v-1026zM125 70v886h399v-886h-399z" />
<glyph unicode="&#xa8;" horiz-adv-x="786" d="M66 1241q0 -54 37 -90.5t94 -36.5q54 0 90.5 36.5t36.5 90.5t-36.5 91.5t-90.5 37.5q-57 0 -94 -37t-37 -92zM463 1241q0 -55 36.5 -91t92.5 -36q54 0 91.5 36.5t37.5 90.5t-37.5 91.5t-91.5 37.5q-56 0 -92.5 -37t-36.5 -92z" />
<glyph unicode="&#xa9;" horiz-adv-x="1146" d="M53 500q0 -223 146 -366.5t374 -143.5q143 0 262.5 65t190 182.5t70.5 262.5q0 223 -147.5 367.5t-375.5 144.5q-142 0 -261 -65.5t-189 -183.5t-70 -263zM176 500q0 183 112.5 291t284.5 108t285 -108t113 -291q0 -181 -113.5 -289.5t-284.5 -108.5t-284 108.5 t-113 289.5zM326 496q0 -108 68.5 -179t183.5 -71q59 0 109 15t71 32q26 26 8 49l-12 25q-18 32 -58 12q-56 -27 -102 -27q-67 0 -106 40.5t-39 111.5q0 74 42 110.5t109 36.5q51 0 98 -24q33 -21 52 10l16 27q18 30 -12 53q-64 41 -162 41q-116 0 -191 -73.5t-75 -188.5z " />
<glyph unicode="&#xaa;" horiz-adv-x="667" d="M40.5 483.5q7.5 -23.5 31.5 -30.5l47 -15q25 -7 44 2.5t27 30.5l25 68h238l22 -70q15 -40 62 -31l55 11q29 6 36.5 32t-5.5 49l-189 428q-21 50 -69 50h-46q-33 0 -47.5 -11.5t-27.5 -40.5l-201 -432q-10 -17 -2.5 -40.5zM256 659l80 205h6l74 -205h-160z" />
<glyph unicode="&#xad;" horiz-adv-x="739" d="M80 485q0 -34 20 -53.5t50 -19.5h442q30 0 50 19.5t20 53.5v52q0 34 -20 53.5t-50 19.5h-442q-30 0 -50 -19.5t-20 -53.5v-52z" />
<glyph unicode="&#xae;" horiz-adv-x="1146" d="M53 500q0 -223 146 -366.5t374 -143.5q143 0 262.5 65t190 182.5t70.5 262.5q0 223 -147.5 367.5t-375.5 144.5q-142 0 -261 -65.5t-189 -183.5t-70 -263zM176 500q0 183 112.5 291t284.5 108t285 -108t113 -291q0 -181 -113.5 -289.5t-284.5 -108.5t-284 108.5 t-113 289.5zM367 289q0 -39 41 -39h41q40 0 40 39v147h80l121 -168q20 -33 74 -14l22 8q17 7 22.5 24.5t-5.5 30.5l-119 144q104 46 104 145q0 44 -19 75t-54 47.5t-75.5 23t-92.5 6.5q-90 0 -146 -19q-16 -4 -25 -17t-9 -28v-405zM489 535v118q25 6 72 6q55 0 82 -12 t27 -45q0 -39 -27.5 -53t-91.5 -14h-62z" />
<glyph unicode="&#xb2;" d="M55 0h541v1026h-541v-1026zM125 70v886h399v-886h-399z" />
<glyph unicode="&#xb3;" d="M55 0h541v1026h-541v-1026zM125 70v886h399v-886h-399z" />
<glyph unicode="&#xb4;" horiz-adv-x="456" d="M71 1187.5q-2 -16.5 2 -33t19 -27t41 -15.5l43 -10q74 -17 113 45l76 127q26 43 11 73.5t-65 41.5l-75 16q-35 7 -65.5 -5.5t-43.5 -45.5l-47 -127q-7 -23 -9 -39.5z" />
<glyph unicode="&#xb9;" d="M55 0h541v1026h-541v-1026zM125 70v886h399v-886h-399z" />
<glyph unicode="&#xba;" horiz-adv-x="724" d="M70 725q0 -127 85 -207t207 -80q121 0 207 83t86 210t-85.5 207t-207.5 80q-121 0 -206.5 -83t-85.5 -210zM219 725q0 70 40 116t103 46t103.5 -44t40.5 -112q0 -69 -40.5 -115.5t-103.5 -46.5t-103 44t-40 112z" />
<glyph unicode="&#xbc;" d="M55 0h541v1026h-541v-1026zM125 70v886h399v-886h-399z" />
<glyph unicode="&#xbd;" d="M55 0h541v1026h-541v-1026zM125 70v886h399v-886h-399z" />
<glyph unicode="&#xbe;" d="M55 0h541v1026h-541v-1026zM125 70v886h399v-886h-399z" />
<glyph unicode="&#xbf;" horiz-adv-x="856" d="M53 262q0 -90 55.5 -149.5t145.5 -85t213 -25.5q194 0 315 68q62 33 35 102l-14 37q-11 28 -40.5 39t-68.5 -4q-111 -43 -219 -43q-82 0 -129 23t-47 69q0 47 45 71.5t168 41.5q35 4 57.5 30.5t22.5 61.5v86q0 33 -22.5 55.5t-57.5 22.5h-57q-35 0 -56.5 -24t-21.5 -65 v-28q-324 -52 -324 -283zM352 887q0 -56 40 -92.5t97 -36.5t97.5 37t40.5 96q0 56 -40.5 92.5t-97.5 36.5t-97 -37t-40 -96z" />
<glyph unicode="&#xc0;" horiz-adv-x="1122" d="M36.5 59.5q11.5 -33.5 47.5 -41.5l80 -20q75 -15 102 49l56 131h469l51 -135q11 -33 41 -44.5t63 -4.5l76 14q47 10 62 46.5t-5 74.5l-340 786q-39 86 -118 86h-95q-48 0 -77.5 -23.5t-49.5 -68.5l-354 -772q-20 -44 -8.5 -77.5zM355.5 1347.5q-14.5 -30.5 11.5 -73.5 l75 -125q32 -60 113 -45l41 8q34 7 50 24t14.5 40t-9.5 51l-47 127q-13 33 -43 45.5t-65 5.5l-76 -16q-50 -11 -64.5 -41.5zM399 375l168 403h2l152 -403h-322z" />
<glyph unicode="&#xc1;" horiz-adv-x="1122" d="M36.5 59.5q11.5 -33.5 47.5 -41.5l80 -20q75 -15 102 49l56 131h469l51 -135q11 -33 41 -44.5t63 -4.5l76 14q47 10 62 46.5t-5 74.5l-340 786q-39 86 -118 86h-95q-48 0 -77.5 -23.5t-49.5 -68.5l-354 -772q-20 -44 -8.5 -77.5zM399 375l168 403h2l152 -403h-322z M483 1187.5q-2 -16.5 2 -33t19 -27t41 -15.5l43 -10q73 -17 112 45l76 127q26 43 11.5 73.5t-64.5 41.5l-76 16q-35 7 -65 -5.5t-43 -45.5l-47 -127q-7 -23 -9 -39.5z" />
<glyph unicode="&#xc2;" horiz-adv-x="1122" d="M36.5 59.5q11.5 -33.5 47.5 -41.5l80 -20q75 -15 102 49l56 131h469l51 -135q11 -33 41 -44.5t63 -4.5l76 14q47 10 62 46.5t-5 74.5l-340 786q-39 86 -118 86h-95q-48 0 -77.5 -23.5t-49.5 -68.5l-354 -772q-20 -44 -8.5 -77.5zM310 1185.5q1 -31.5 34 -50.5l39 -23 q47 -28 92 4l94 82l95 -82q45 -32 92 -4l35 23q33 19 35.5 50.5t-19.5 53.5l-113 117q-43 43 -80 43h-90q-37 0 -80 -43l-112 -117q-23 -22 -22 -53.5zM399 375l168 403h2l152 -403h-322z" />
<glyph unicode="&#xc3;" horiz-adv-x="1122" d="M36.5 59.5q11.5 -33.5 47.5 -41.5l80 -20q75 -15 102 49l56 131h469l51 -135q11 -33 41 -44.5t63 -4.5l76 14q47 10 62 46.5t-5 74.5l-340 786q-39 86 -118 86h-95q-48 0 -77.5 -23.5t-49.5 -68.5l-354 -772q-20 -44 -8.5 -77.5zM301 1188l12 -31q21 -56 88 -41 q4 1 38 14t57 13q22 0 71 -17.5t88 -17.5q85 0 158 47q53 39 25 105l-13 30q-21 56 -88 41q-4 -1 -37.5 -13.5t-56.5 -12.5q-22 0 -72 17t-86 17q-86 0 -159 -47q-56 -41 -25 -104zM399 375l168 403h2l152 -403h-322z" />
<glyph unicode="&#xc4;" horiz-adv-x="1110" d="M30.5 59.5q11.5 -33.5 47.5 -41.5l80 -20q75 -15 102 49l55 131h469l52 -135q11 -33 41 -44.5t63 -4.5l76 14q47 10 62 46.5t-5 74.5l-340 786q-39 86 -119 86h-94q-48 0 -77.5 -23.5t-49.5 -68.5l-354 -772q-20 -44 -8.5 -77.5zM238 1217q0 -54 37 -90.5t94 -36.5 q54 0 90.5 36.5t36.5 90.5t-36.5 91.5t-90.5 37.5q-57 0 -94 -37t-37 -92zM393 375l168 403h2l152 -403h-322zM635 1217q0 -55 36.5 -91t92.5 -36q54 0 91.5 36.5t37.5 90.5t-37.5 91.5t-91.5 37.5q-56 0 -92.5 -37t-36.5 -92z" />
<glyph unicode="&#xc7;" horiz-adv-x="1007" d="M49 489q0 -182 99 -313.5t268 -171.5l-27 -63q-18 -35 -3 -63t56 -34l72 -14q36 -7 61 3.5t41 53.5l33 109q89 11 158.5 37t103.5 53q52 39 17 98l-25 47q-13 24 -35 33t-42 6t-40 -12q-113 -55 -204 -55q-130 0 -208.5 81.5t-78.5 221.5q0 149 83.5 221t217.5 72 q105 0 195 -49q25 -16 56 -12t48 34l31 51q44 67 -23 107q-129 82 -325 82q-150 0 -271 -67t-189.5 -187t-68.5 -269z" />
<glyph unicode="&#xc9;" horiz-adv-x="974" d="M127 104q0 -38 28 -66t66 -28h608q30 0 50 20t20 54v51q0 34 -20 54t-50 20h-458v201h293q30 0 49.5 19.5t19.5 53.5v52q0 34 -19.5 53.5t-49.5 19.5h-293v185h444q30 0 50 19.5t20 53.5v52q0 34 -20 53.5t-50 19.5h-571q-49 0 -83 -33.5t-34 -80.5v-773zM403 1187.5 q-2 -16.5 2 -33t19 -27t41 -15.5l43 -10q74 -17 113 45l75 127q26 43 11.5 73.5t-64.5 41.5l-76 16q-35 7 -65 -5.5t-43 -45.5l-47 -127q-7 -23 -9 -39.5z" />
<glyph unicode="&#xca;" horiz-adv-x="987" d="M133 104q0 -38 28 -66t66 -28h609q30 0 49.5 20t19.5 54v51q0 34 -19.5 54t-49.5 20h-459v201h293q30 0 49.5 19.5t19.5 53.5v52q0 34 -19.5 53.5t-49.5 19.5h-293v185h444q30 0 50 19.5t20 53.5v52q0 34 -20 53.5t-50 19.5h-571q-49 0 -83 -33.5t-34 -80.5v-773z M267 1185.5q1 -31.5 34 -50.5l39 -23q47 -28 92 4l94 82l95 -82q45 -32 92 -4l35 23q33 19 35.5 50.5t-19.5 53.5l-113 117q-43 43 -80 43h-90q-37 0 -80 -43l-112 -117q-23 -22 -22 -53.5z" />
<glyph unicode="&#xcb;" horiz-adv-x="987" d="M133 104q0 -38 28 -66t66 -28h609q30 0 49.5 20t19.5 54v51q0 34 -19.5 54t-49.5 20h-459v201h293q30 0 49.5 19.5t19.5 53.5v52q0 34 -19.5 53.5t-49.5 19.5h-293v185h444q30 0 50 19.5t20 53.5v52q0 34 -20 53.5t-50 19.5h-571q-49 0 -83 -33.5t-34 -80.5v-773z M193 1217q0 -54 37 -90.5t94 -36.5q54 0 90.5 36.5t36.5 90.5t-36.5 91.5t-90.5 37.5q-56 0 -93.5 -37t-37.5 -92zM590 1217q0 -55 36 -91t93 -36q54 0 91.5 36.5t37.5 90.5t-37.5 91.5t-91.5 37.5q-56 0 -92.5 -37t-36.5 -92z" />
<glyph unicode="&#xcd;" horiz-adv-x="516" d="M133 80q0 -34 21.5 -57t60.5 -23h86q39 0 60.5 23t21.5 57v842q0 34 -21.5 56.5t-60.5 22.5h-86q-39 0 -60.5 -22.5t-21.5 -56.5v-842zM171 1187.5q-2 -16.5 2 -33t19 -27t41 -15.5l43 -10q74 -17 113 45l76 127q26 43 11.5 73.5t-64.5 41.5l-76 16q-35 7 -65.5 -5.5 t-43.5 -45.5l-47 -127q-7 -23 -9 -39.5z" />
<glyph unicode="&#xd0;" d="M55 0h541v1026h-541v-1026zM125 70v886h399v-886h-399z" />
<glyph unicode="&#xd1;" horiz-adv-x="1159" d="M127 72q0 -31 24.5 -51.5t59.5 -20.5h49q36 0 61 21t25 51v559h4l424 -563q64 -87 139 -70l72 14q47 11 47 70v848q0 32 -24 51.5t-60 19.5h-49q-36 0 -60 -19.5t-24 -51.5v-555h-2l-412 563q-50 63 -104 63h-86q-36 0 -60 -22t-24 -57v-850zM301 1188l12 -31 q21 -56 88 -41q4 1 38 14t57 13q22 0 71 -17.5t88 -17.5q85 0 158 47q53 39 25 105l-13 30q-21 56 -88 41q-4 -1 -37.5 -13.5t-56.5 -12.5q-22 0 -72 17t-86 17q-86 0 -159 -47q-56 -41 -25 -104z" />
<glyph unicode="&#xd2;" horiz-adv-x="1159" d="M55 500q0 -142 62 -257t182.5 -184t280.5 -69q151 0 271.5 68.5t186.5 184.5t66 257q0 143 -61.5 258.5t-182 184.5t-280.5 69q-114 0 -212 -40t-166.5 -109t-107.5 -163t-39 -200zM297 500q0 134 77.5 216.5t205.5 82.5t205 -82.5t77 -216.5q0 -132 -77 -214.5 t-205 -82.5t-205.5 82.5t-77.5 214.5zM396.5 1347.5q-14.5 -30.5 11.5 -73.5l75 -125q32 -60 113 -45l41 8q34 7 50 24t14.5 40t-9.5 51l-47 127q-13 33 -43 45.5t-65 5.5l-76 -16q-50 -11 -64.5 -41.5z" />
<glyph unicode="&#xd3;" horiz-adv-x="1159" d="M55 500q0 -142 62 -257t182.5 -184t280.5 -69q151 0 271.5 68.5t186.5 184.5t66 257q0 143 -61.5 258.5t-182 184.5t-280.5 69q-114 0 -212 -40t-166.5 -109t-107.5 -163t-39 -200zM297 500q0 134 77.5 216.5t205.5 82.5t205 -82.5t77 -216.5q0 -132 -77 -214.5 t-205 -82.5t-205.5 82.5t-77.5 214.5zM487 1187.5q-2 -16.5 2 -33t19 -27t41 -15.5l43 -10q74 -17 113 45l75 127q26 43 11.5 73.5t-64.5 41.5l-76 16q-35 7 -65 -5.5t-43 -45.5l-47 -127q-7 -23 -9 -39.5z" />
<glyph unicode="&#xd4;" horiz-adv-x="1159" d="M55 500q0 -142 62 -257t182.5 -184t280.5 -69q151 0 271.5 68.5t186.5 184.5t66 257q0 143 -61.5 258.5t-182 184.5t-280.5 69q-114 0 -212 -40t-166.5 -109t-107.5 -163t-39 -200zM297 500q0 134 77.5 216.5t205.5 82.5t205 -82.5t77 -216.5q0 -132 -77 -214.5 t-205 -82.5t-205.5 82.5t-77.5 214.5zM322 1185.5q1 -31.5 34 -50.5l39 -23q47 -28 92 4l95 82l94 -82q45 -32 92 -4l35 23q33 19 35.5 50.5t-19.5 53.5l-112 117q-43 43 -80 43h-90q-37 0 -80 -43l-113 -117q-23 -22 -22 -53.5z" />
<glyph unicode="&#xd5;" horiz-adv-x="1159" d="M55 500q0 -142 62 -257t182.5 -184t280.5 -69q151 0 271.5 68.5t186.5 184.5t66 257q0 143 -61.5 258.5t-182 184.5t-280.5 69q-114 0 -212 -40t-166.5 -109t-107.5 -163t-39 -200zM297 500q0 134 77.5 216.5t205.5 82.5t205 -82.5t77 -216.5q0 -132 -77 -214.5 t-205 -82.5t-205.5 82.5t-77.5 214.5zM311 1188l13 -31q21 -56 88 -41q5 1 38 14t56 13q22 0 71.5 -17.5t88.5 -17.5q84 0 157 47q53 39 25 105l-12 30q-21 56 -88 41q-3 -1 -37.5 -13.5t-57.5 -12.5q-22 0 -71.5 17t-85.5 17q-87 0 -160 -47q-56 -41 -25 -104z" />
<glyph unicode="&#xd6;" horiz-adv-x="1146" d="M49 500q0 -142 61.5 -257t182 -184t280.5 -69q114 0 212 40t166.5 108.5t107.5 162.5t39 199q0 143 -62 258.5t-182.5 184.5t-280.5 69q-151 0 -271.5 -68.5t-186.5 -185t-66 -258.5zM246 1217q0 -54 37 -90.5t94 -36.5q54 0 90.5 36.5t36.5 90.5t-36.5 91.5t-90.5 37.5 q-57 0 -94 -37t-37 -92zM291 500q0 134 77 216.5t205 82.5t205.5 -82.5t77.5 -216.5q0 -132 -77.5 -214.5t-205.5 -82.5t-205 82.5t-77 214.5zM643 1217q0 -55 36.5 -91t92.5 -36q54 0 91.5 36.5t37.5 90.5t-37.5 91.5t-91.5 37.5q-56 0 -92.5 -37t-36.5 -92z" />
<glyph unicode="&#xd7;" d="M55 0h541v1026h-541v-1026zM125 70v886h399v-886h-399z" />
<glyph unicode="&#xd9;" horiz-adv-x="1089" d="M102 430q0 -440 428 -440q220 0 338.5 111t118.5 331v490q0 34 -21.5 56.5t-60.5 22.5h-86q-39 0 -60.5 -22.5t-21.5 -56.5v-457q0 -138 -43.5 -200t-150.5 -62t-149 62t-42 200v457q0 34 -21.5 56.5t-60.5 22.5h-86q-39 0 -60.5 -22.5t-21.5 -56.5v-492zM351 1347.5 q-15 -30.5 11 -73.5l76 -125q32 -60 113 -45l41 8q34 7 50 24t14.5 40t-9.5 51l-47 127q-13 33 -43 45.5t-65 5.5l-76 -16q-50 -11 -65 -41.5z" />
<glyph unicode="&#xda;" horiz-adv-x="1089" d="M102 430q0 -440 428 -440q220 0 338.5 111t118.5 331v490q0 34 -21.5 56.5t-60.5 22.5h-86q-39 0 -60.5 -22.5t-21.5 -56.5v-457q0 -138 -43.5 -200t-150.5 -62t-149 62t-42 200v457q0 34 -21.5 56.5t-60.5 22.5h-86q-39 0 -60.5 -22.5t-21.5 -56.5v-492zM450 1187.5 q-2 -16.5 2 -33t19 -27t41 -15.5l43 -10q74 -17 113 45l75 127q26 43 11.5 73.5t-64.5 41.5l-76 16q-35 7 -65 -5.5t-43 -45.5l-47 -127q-7 -23 -9 -39.5z" />
<glyph unicode="&#xdb;" horiz-adv-x="1089" d="M102 430q0 -440 428 -440q220 0 338.5 111t118.5 331v490q0 34 -21.5 56.5t-60.5 22.5h-86q-39 0 -60.5 -22.5t-21.5 -56.5v-457q0 -138 -43.5 -200t-150.5 -62t-149 62t-42 200v457q0 34 -21.5 56.5t-60.5 22.5h-86q-39 0 -60.5 -22.5t-21.5 -56.5v-492zM287.5 1185.5 q1.5 -31.5 34.5 -50.5l38 -23q47 -28 93 4l94 82l94 -82q45 -32 92 -4l35 23q33 19 35.5 50.5t-19.5 53.5l-112 117q-43 43 -80 43h-90q-37 0 -80 -43l-113 -117q-23 -22 -21.5 -53.5z" />
<glyph unicode="&#xdc;" horiz-adv-x="1077" d="M96 430q0 -440 428 -440q220 0 338.5 111t118.5 331v490q0 34 -21.5 56.5t-60.5 22.5h-86q-39 0 -60.5 -22.5t-21.5 -56.5v-457q0 -138 -43.5 -200t-150.5 -62t-149 62t-42 200v457q0 34 -21.5 56.5t-60.5 22.5h-86q-39 0 -60.5 -22.5t-21.5 -56.5v-492zM211 1217 q0 -54 37 -90.5t94 -36.5q54 0 90.5 36.5t36.5 90.5t-36.5 91.5t-90.5 37.5q-56 0 -93.5 -37t-37.5 -92zM608 1217q0 -55 36 -91t93 -36q54 0 91.5 36.5t37.5 90.5t-37.5 91.5t-91.5 37.5q-56 0 -92.5 -37t-36.5 -92z" />
<glyph unicode="&#xdd;" d="M55 0h541v1026h-541v-1026zM125 70v886h399v-886h-399z" />
<glyph unicode="&#xde;" d="M55 0h541v1026h-541v-1026zM125 70v886h399v-886h-399z" />
<glyph unicode="&#xe0;" horiz-adv-x="1110" d="M30.5 59.5q11.5 -33.5 47.5 -41.5l80 -20q75 -15 102 49l55 131h469l52 -135q11 -33 41 -44.5t63 -4.5l76 14q47 10 62 46.5t-5 74.5l-340 786q-39 86 -119 86h-94q-48 0 -77.5 -23.5t-49.5 -68.5l-354 -772q-20 -44 -8.5 -77.5zM349 1347.5q-15 -30.5 11 -73.5l76 -125 q32 -60 113 -45l41 8q34 7 50 24t14.5 40t-9.5 51l-47 127q-13 33 -43.5 45.5t-65.5 5.5l-75 -16q-50 -11 -65 -41.5zM393 375l168 403h2l152 -403h-322z" />
<glyph unicode="&#xe1;" horiz-adv-x="1110" d="M30.5 59.5q11.5 -33.5 47.5 -41.5l80 -20q75 -15 102 49l55 131h469l52 -135q11 -33 41 -44.5t63 -4.5l76 14q47 10 62 46.5t-5 74.5l-340 786q-39 86 -119 86h-94q-48 0 -77.5 -23.5t-49.5 -68.5l-354 -772q-20 -44 -8.5 -77.5zM393 375l168 403h2l152 -403h-322z M474.5 1175q-0.5 -21 15 -38.5t49.5 -24.5l43 -10q73 -17 112 45l76 127q26 43 11.5 73.5t-64.5 41.5l-76 16q-35 7 -65.5 -5.5t-43.5 -45.5l-47 -127q-10 -31 -10.5 -52z" />
<glyph unicode="&#xe2;" horiz-adv-x="1110" d="M30.5 59.5q11.5 -33.5 47.5 -41.5l80 -20q75 -15 102 49l55 131h469l52 -135q11 -33 41 -44.5t63 -4.5l76 14q47 10 62 46.5t-5 74.5l-340 786q-39 86 -119 86h-94q-48 0 -77.5 -23.5t-49.5 -68.5l-354 -772q-20 -44 -8.5 -77.5zM304 1185.5q1 -31.5 34 -50.5l39 -23 q47 -28 92 4l94 82l94 -82q46 -32 93 -4l34 23q33 19 36 50.5t-19 53.5l-113 117q-43 43 -80 43h-90q-37 0 -80 -43l-112 -117q-23 -22 -22 -53.5zM393 375l168 403h2l152 -403h-322z" />
<glyph unicode="&#xe3;" horiz-adv-x="1110" d="M30.5 59.5q11.5 -33.5 47.5 -41.5l80 -20q75 -15 102 49l55 131h469l52 -135q11 -33 41 -44.5t63 -4.5l76 14q47 10 62 46.5t-5 74.5l-340 786q-39 86 -119 86h-94q-48 0 -77.5 -23.5t-49.5 -68.5l-354 -772q-20 -44 -8.5 -77.5zM295 1188l12 -31q21 -56 88 -41 q5 1 38 14t56 13q22 0 71.5 -17.5t88.5 -17.5q85 0 158 47q26 19 32.5 40.5t-8.5 64.5l-12 30q-21 56 -88 41q-4 -1 -37.5 -13.5t-56.5 -12.5q-22 0 -72 17t-86 17q-87 0 -160 -47q-55 -41 -24 -104zM393 375l168 403h2l152 -403h-322z" />
<glyph unicode="&#xe4;" horiz-adv-x="1110" d="M30.5 59.5q11.5 -33.5 47.5 -41.5l80 -20q75 -15 102 49l55 131h469l52 -135q11 -33 41 -44.5t63 -4.5l76 14q47 10 62 46.5t-5 74.5l-340 786q-39 86 -119 86h-94q-48 0 -77.5 -23.5t-49.5 -68.5l-354 -772q-20 -44 -8.5 -77.5zM238 1217q0 -54 37 -90.5t94 -36.5 q54 0 90.5 36.5t36.5 90.5t-36.5 91.5t-90.5 37.5q-57 0 -94 -37t-37 -92zM393 375l168 403h2l152 -403h-322zM635 1217q0 -55 36.5 -91t92.5 -36q54 0 91.5 36.5t37.5 90.5t-37.5 91.5t-91.5 37.5q-56 0 -92.5 -37t-36.5 -92z" />
<glyph unicode="&#xe7;" horiz-adv-x="1007" d="M49 489q0 -182 99 -313.5t268 -171.5l-27 -63q-18 -35 -3 -63t56 -34l72 -14q36 -7 61 3.5t41 53.5l33 109q89 11 158.5 37t103.5 53q52 39 17 98l-25 47q-13 24 -35 33t-42 6t-40 -12q-113 -55 -204 -55q-130 0 -208.5 81.5t-78.5 221.5q0 149 83.5 221t217.5 72 q105 0 195 -49q25 -16 56 -12t48 34l31 51q44 67 -23 107q-129 82 -325 82q-150 0 -271 -67t-189.5 -187t-68.5 -269z" />
<glyph unicode="&#xe9;" horiz-adv-x="974" d="M127 104q0 -38 28 -66t66 -28h608q30 0 50 20t20 54v51q0 34 -20 54t-50 20h-458v201h293q30 0 49.5 19.5t19.5 53.5v52q0 34 -19.5 53.5t-49.5 19.5h-293v185h444q30 0 50 19.5t20 53.5v52q0 34 -20 53.5t-50 19.5h-571q-49 0 -83 -33.5t-34 -80.5v-773zM403 1187.5 q-2 -16.5 2 -33t19 -27t41 -15.5l43 -10q74 -17 113 45l75 127q26 43 11.5 73.5t-64.5 41.5l-76 16q-35 7 -65 -5.5t-43 -45.5l-47 -127q-7 -23 -9 -39.5z" />
<glyph unicode="&#xea;" horiz-adv-x="974" d="M127 104q0 -38 28 -66t66 -28h608q30 0 50 20t20 54v51q0 34 -20 54t-50 20h-458v201h293q30 0 49.5 19.5t19.5 53.5v52q0 34 -19.5 53.5t-49.5 19.5h-293v185h444q30 0 50 19.5t20 53.5v52q0 34 -20 53.5t-50 19.5h-571q-49 0 -83 -33.5t-34 -80.5v-773zM261 1185.5 q1 -31.5 34 -50.5l39 -23q47 -28 92 4l94 82l94 -82q46 -32 93 -4l34 23q33 19 36 50.5t-19 53.5l-113 117q-43 43 -80 43h-90q-37 0 -80 -43l-112 -117q-23 -22 -22 -53.5z" />
<glyph unicode="&#xeb;" horiz-adv-x="974" d="M127 104q0 -38 28 -66t66 -28h608q30 0 50 20t20 54v51q0 34 -20 54t-50 20h-458v201h293q30 0 49.5 19.5t19.5 53.5v52q0 34 -19.5 53.5t-49.5 19.5h-293v185h444q30 0 50 19.5t20 53.5v52q0 34 -20 53.5t-50 19.5h-571q-49 0 -83 -33.5t-34 -80.5v-773zM186 1217 q0 -54 37 -90.5t94 -36.5q54 0 90.5 36.5t36.5 90.5t-36.5 91.5t-90.5 37.5q-57 0 -94 -37t-37 -92zM584 1217q0 -55 36 -91t93 -36q54 0 91.5 36.5t37.5 90.5t-37.5 91.5t-91.5 37.5q-56 0 -92.5 -37t-36.5 -92z" />
<glyph unicode="&#xed;" horiz-adv-x="503" d="M127 80q0 -34 21.5 -57t60.5 -23h86q39 0 60.5 23t21.5 57v842q0 34 -21.5 56.5t-60.5 22.5h-86q-39 0 -60.5 -22.5t-21.5 -56.5v-842zM165 1187.5q-2 -16.5 2 -33t19 -27t41 -15.5l43 -10q74 -17 113 45l76 127q26 43 11.5 73.5t-64.5 41.5l-76 16q-35 7 -65.5 -5.5 t-43.5 -45.5l-47 -127q-7 -23 -9 -39.5z" />
<glyph unicode="&#xf0;" d="M55 0h541v1026h-541v-1026zM125 70v886h399v-886h-399z" />
<glyph unicode="&#xf1;" horiz-adv-x="1159" d="M127 72q0 -31 24.5 -51.5t59.5 -20.5h49q36 0 61 21t25 51v559h4l424 -563q64 -87 139 -70l72 14q47 11 47 70v848q0 32 -24 51.5t-60 19.5h-49q-36 0 -60 -19.5t-24 -51.5v-555h-2l-412 563q-50 63 -104 63h-86q-36 0 -60 -22t-24 -57v-850zM301 1188l12 -31 q21 -56 88 -41q4 1 38 14t57 13q22 0 71 -17.5t88 -17.5q85 0 158 47q53 39 25 105l-13 30q-21 56 -88 41q-4 -1 -37.5 -13.5t-56.5 -12.5q-22 0 -72 17t-86 17q-86 0 -159 -47q-56 -41 -25 -104z" />
<glyph unicode="&#xf2;" horiz-adv-x="1146" d="M49 500q0 -142 61.5 -257t182 -184t280.5 -69q114 0 212 40t166.5 108.5t107.5 162.5t39 199q0 143 -62 258.5t-182.5 184.5t-280.5 69q-151 0 -271.5 -68.5t-186.5 -185t-66 -258.5zM291 500q0 134 77 216.5t205 82.5t205.5 -82.5t77.5 -216.5q0 -132 -77.5 -214.5 t-205.5 -82.5t-205 82.5t-77 214.5zM390 1347.5q-15 -30.5 11 -73.5l76 -125q32 -60 113 -45l41 8q34 7 50 24t14.5 40t-9.5 51l-47 127q-13 33 -43.5 45.5t-65.5 5.5l-75 -16q-50 -11 -65 -41.5z" />
<glyph unicode="&#xf3;" horiz-adv-x="1146" d="M49 500q0 -142 61.5 -257t182 -184t280.5 -69q114 0 212 40t166.5 108.5t107.5 162.5t39 199q0 143 -62 258.5t-182.5 184.5t-280.5 69q-151 0 -271.5 -68.5t-186.5 -185t-66 -258.5zM291 500q0 134 77 216.5t205 82.5t205.5 -82.5t77.5 -216.5q0 -132 -77.5 -214.5 t-205.5 -82.5t-205 82.5t-77 214.5zM478.5 1175q-0.5 -21 15 -38.5t49.5 -24.5l43 -10q73 -17 112 45l76 127q26 43 11.5 73.5t-64.5 41.5l-76 16q-35 7 -65 -5.5t-43 -45.5l-48 -127q-10 -31 -10.5 -52z" />
<glyph unicode="&#xf4;" horiz-adv-x="1146" d="M49 500q0 -142 61.5 -257t182 -184t280.5 -69q114 0 212 40t166.5 108.5t107.5 162.5t39 199q0 143 -62 258.5t-182.5 184.5t-280.5 69q-151 0 -271.5 -68.5t-186.5 -185t-66 -258.5zM291 500q0 134 77 216.5t205 82.5t205.5 -82.5t77.5 -216.5q0 -132 -77.5 -214.5 t-205.5 -82.5t-205 82.5t-77 214.5zM316 1185.5q1 -31.5 34 -50.5l39 -23q47 -28 92 4l94 82l95 -82q45 -32 92 -4l35 23q33 19 35.5 50.5t-19.5 53.5l-113 117q-43 43 -79 43h-91q-36 0 -79 -43l-113 -117q-23 -22 -22 -53.5z" />
<glyph unicode="&#xf5;" horiz-adv-x="1146" d="M49 500q0 -142 61.5 -257t182 -184t280.5 -69q114 0 212 40t166.5 108.5t107.5 162.5t39 199q0 143 -62 258.5t-182.5 184.5t-280.5 69q-151 0 -271.5 -68.5t-186.5 -185t-66 -258.5zM291 500q0 134 77 216.5t205 82.5t205.5 -82.5t77.5 -216.5q0 -132 -77.5 -214.5 t-205.5 -82.5t-205 82.5t-77 214.5zM305 1188l12 -31q21 -56 89 -41q5 1 38 14t56 13q22 0 71 -17.5t88 -17.5q85 0 158 47q53 39 25 105l-13 30q-21 56 -88 41q-4 -1 -37.5 -13.5t-56.5 -12.5q-22 0 -72 17t-86 17q-86 0 -159 -47q-56 -41 -25 -104z" />
<glyph unicode="&#xf6;" horiz-adv-x="1146" d="M49 500q0 -142 61.5 -257t182 -184t280.5 -69q114 0 212 40t166.5 108.5t107.5 162.5t39 199q0 143 -62 258.5t-182.5 184.5t-280.5 69q-151 0 -271.5 -68.5t-186.5 -185t-66 -258.5zM246 1217q0 -54 37 -90.5t94 -36.5q54 0 90.5 36.5t36.5 90.5t-36.5 91.5t-90.5 37.5 q-57 0 -94 -37t-37 -92zM291 500q0 134 77 216.5t205 82.5t205.5 -82.5t77.5 -216.5q0 -132 -77.5 -214.5t-205.5 -82.5t-205 82.5t-77 214.5zM643 1217q0 -55 36.5 -91t92.5 -36q54 0 91.5 36.5t37.5 90.5t-37.5 91.5t-91.5 37.5q-56 0 -92.5 -37t-36.5 -92z" />
<glyph unicode="&#xf9;" horiz-adv-x="1077" d="M96 430q0 -440 428 -440q220 0 338.5 111t118.5 331v490q0 34 -21.5 56.5t-60.5 22.5h-86q-39 0 -60.5 -22.5t-21.5 -56.5v-457q0 -138 -43.5 -200t-150.5 -62t-149 62t-42 200v457q0 34 -21.5 56.5t-60.5 22.5h-86q-39 0 -60.5 -22.5t-21.5 -56.5v-492zM345 1347.5 q-15 -30.5 11 -73.5l76 -125q32 -60 113 -45l41 8q34 7 50 24t14.5 40t-9.5 51l-47 127q-13 33 -43.5 45.5t-65.5 5.5l-75 -16q-50 -11 -65 -41.5z" />
<glyph unicode="&#xfa;" horiz-adv-x="1077" d="M96 430q0 -440 428 -440q220 0 338.5 111t118.5 331v490q0 34 -21.5 56.5t-60.5 22.5h-86q-39 0 -60.5 -22.5t-21.5 -56.5v-457q0 -138 -43.5 -200t-150.5 -62t-149 62t-42 200v457q0 34 -21.5 56.5t-60.5 22.5h-86q-39 0 -60.5 -22.5t-21.5 -56.5v-492zM444 1187.5 q-2 -16.5 2 -33t19 -27t41 -15.5l43 -10q74 -17 113 45l75 127q26 43 11.5 73.5t-64.5 41.5l-76 16q-35 7 -65 -5.5t-43 -45.5l-47 -127q-7 -23 -9 -39.5z" />
<glyph unicode="&#xfb;" horiz-adv-x="1077" d="M96 430q0 -440 428 -440q220 0 338.5 111t118.5 331v490q0 34 -21.5 56.5t-60.5 22.5h-86q-39 0 -60.5 -22.5t-21.5 -56.5v-457q0 -138 -43.5 -200t-150.5 -62t-149 62t-42 200v457q0 34 -21.5 56.5t-60.5 22.5h-86q-39 0 -60.5 -22.5t-21.5 -56.5v-492zM281 1185.5 q1 -31.5 34 -50.5l39 -23q47 -28 92 4l95 82l94 -82q45 -32 92 -4l35 23q33 19 35.5 50.5t-19.5 53.5l-112 117q-43 43 -80 43h-90q-37 0 -80 -43l-113 -117q-23 -22 -22 -53.5z" />
<glyph unicode="&#xfc;" horiz-adv-x="1077" d="M96 430q0 -440 428 -440q220 0 338.5 111t118.5 331v490q0 34 -21.5 56.5t-60.5 22.5h-86q-39 0 -60.5 -22.5t-21.5 -56.5v-457q0 -138 -43.5 -200t-150.5 -62t-149 62t-42 200v457q0 34 -21.5 56.5t-60.5 22.5h-86q-39 0 -60.5 -22.5t-21.5 -56.5v-492zM211 1217 q0 -54 37 -90.5t94 -36.5q54 0 90.5 36.5t36.5 90.5t-36.5 91.5t-90.5 37.5q-56 0 -93.5 -37t-37.5 -92zM608 1217q0 -55 36 -91t93 -36q54 0 91.5 36.5t37.5 90.5t-37.5 91.5t-91.5 37.5q-56 0 -92.5 -37t-36.5 -92z" />
<glyph unicode="&#xfd;" d="M55 0h541v1026h-541v-1026zM125 70v886h399v-886h-399z" />
<glyph unicode="&#xfe;" d="M55 0h541v1026h-541v-1026zM125 70v886h399v-886h-399z" />
<glyph unicode="&#x2c6;" horiz-adv-x="671" d="M84.5 1185.5q1.5 -31.5 34.5 -50.5l39 -23q47 -28 92 4l94 82l94 -82q45 -32 92 -4l35 23q33 19 36 50.5t-19 53.5l-113 117q-43 43 -80 43h-90q-37 0 -80 -43l-113 -117q-23 -22 -21.5 -53.5z" />
<glyph unicode="&#x2dc;" horiz-adv-x="694" d="M92 1212l12 -30q21 -56 89 -41q4 1 37.5 13.5t56.5 12.5q22 0 71 -17t88 -17q85 0 158 47q26 19 32.5 40t-7.5 64l-13 31q-21 56 -88 41q-5 -1 -38 -14t-56 -13q-22 0 -72 17.5t-86 17.5q-86 0 -159 -47q-56 -42 -25 -105z" />
<glyph unicode="&#x2000;" horiz-adv-x="703" />
<glyph unicode="&#x2001;" horiz-adv-x="1407" />
<glyph unicode="&#x2002;" horiz-adv-x="703" />
<glyph unicode="&#x2003;" horiz-adv-x="1407" />
<glyph unicode="&#x2004;" horiz-adv-x="469" />
<glyph unicode="&#x2005;" horiz-adv-x="351" />
<glyph unicode="&#x2006;" horiz-adv-x="234" />
<glyph unicode="&#x2007;" horiz-adv-x="234" />
<glyph unicode="&#x2008;" horiz-adv-x="175" />
<glyph unicode="&#x2009;" horiz-adv-x="281" />
<glyph unicode="&#x200a;" horiz-adv-x="78" />
<glyph unicode="&#x2010;" horiz-adv-x="739" d="M80 485q0 -34 20 -53.5t50 -19.5h442q30 0 50 19.5t20 53.5v52q0 34 -20 53.5t-50 19.5h-442q-30 0 -50 -19.5t-20 -53.5v-52z" />
<glyph unicode="&#x2011;" horiz-adv-x="739" d="M80 485q0 -34 20 -53.5t50 -19.5h442q30 0 50 19.5t20 53.5v52q0 34 -20 53.5t-50 19.5h-442q-30 0 -50 -19.5t-20 -53.5v-52z" />
<glyph unicode="&#x2012;" horiz-adv-x="739" d="M80 485q0 -34 20 -53.5t50 -19.5h442q30 0 50 19.5t20 53.5v52q0 34 -20 53.5t-50 19.5h-442q-30 0 -50 -19.5t-20 -53.5v-52z" />
<glyph unicode="&#x2013;" horiz-adv-x="1181" d="M80 485q0 -34 35 -53.5t88 -19.5h778q53 0 88 19.5t35 53.5v52q0 34 -35 53.5t-88 19.5h-778q-53 0 -88 -19.5t-35 -53.5v-52z" />
<glyph unicode="&#x2014;" horiz-adv-x="2205" d="M80 485q0 -34 70.5 -53.5t175.5 -19.5h1556q105 0 175.5 19.5t70.5 53.5v52q0 34 -70.5 53.5t-175.5 19.5h-1556q-105 0 -175.5 -19.5t-70.5 -53.5v-52z" />
<glyph unicode="&#x2018;" horiz-adv-x="428" d="M68 743q0 -61 43.5 -101t111.5 -40q50 0 88.5 36t38.5 91q0 82 -90 105q12 38 41 79q12 15 12 35q0 24 -18 33h-2q-48 29 -72 29q-13 0 -38 -24t-51 -60t-45 -86.5t-19 -96.5z" />
<glyph unicode="&#x2019;" horiz-adv-x="428" d="M78 885q0 -81 86 -105q-7 -40 -37 -80q-10 -23 -10 -32q0 -21 20 -35h2q7 -3 21.5 -11.5t26.5 -13t24 -4.5q19 0 54 39.5t65 104.5t30 122q0 62 -42 102t-109 40q-53 0 -92 -36t-39 -91z" />
<glyph unicode="&#x201c;" horiz-adv-x="819" d="M68 743q0 -61 43.5 -101t111.5 -40q50 0 88.5 36t38.5 91q0 82 -90 105q12 38 41 79q12 15 12 35q0 24 -18 33h-2q-48 29 -72 29q-13 0 -38 -24t-51 -60t-45 -86.5t-19 -96.5zM459 743q0 -62 42 -101.5t109 -39.5q53 0 92 36t39 91q0 37 -25 64.5t-65 40.5q12 38 41 79 q10 17 10 35q0 24 -20 33h-2q-48 29 -72 29q-19 0 -54 -40t-65 -105t-30 -122z" />
<glyph unicode="&#x201d;" horiz-adv-x="819" d="M78 885q0 -81 86 -105q-7 -40 -37 -80q-10 -23 -10 -32q0 -21 20 -35h2q7 -3 21.5 -11.5t26.5 -13t24 -4.5q19 0 54 39.5t65 104.5t30 122q0 62 -42 102t-109 40q-53 0 -92 -36t-39 -91zM469 885q0 -81 86 -105q-7 -40 -37 -80q-10 -23 -10 -32q0 -21 20 -35h2 q7 -3 21.5 -11.5t26.5 -13t24 -4.5q19 0 54.5 39.5t65.5 104.5t30 122q0 62 -42.5 102t-109.5 40q-53 0 -92 -36t-39 -91z" />
<glyph unicode="&#x202f;" horiz-adv-x="281" />
<glyph unicode="&#x205f;" horiz-adv-x="351" />
<glyph unicode="&#x20ac;" horiz-adv-x="1052" d="M92 367q0 -23 13 -35.5t32 -12.5h92q21 -92 68.5 -159t111 -102.5t129 -51.5t138.5 -16q97 0 175.5 23.5t121.5 56.5q50 36 20 88l-26 51q-12 27 -44.5 30t-54.5 -10q-91 -36 -174 -36q-51 0 -90 8.5t-78 38t-61 79.5h203q20 0 32.5 12.5t12.5 35.5v34q0 23 -12.5 35.5 t-32.5 12.5h-232v40v43h314q20 0 32.5 13t12.5 35v34q0 22 -12.5 35t-32.5 13h-283q17 43 45.5 73.5t62 45t63 20.5t60.5 6q80 0 176 -39q23 -11 48.5 -4.5t35.5 29.5l33 59q27 52 -22 88q-109 68 -281 68q-89 0 -176.5 -35.5t-164.5 -116.5t-111 -194h-99q-19 0 -32 -13 t-13 -35v-34q0 -22 13 -35t32 -13h74v-43v-40h-74q-19 0 -32 -12.5t-13 -35.5v-34z" />
<glyph unicode="&#x2122;" horiz-adv-x="1267" d="M39 928q0 -39 37 -39h127v-373q0 -41 43 -41h43q43 0 43 41v373h127q37 0 37 39v28q0 39 -37 39h-383q-37 0 -37 -39v-28zM547 512q-4 -41 35 -41l53 -2q19 0 31 11t12 28l10 276q4 46 4 60h4q4 -28 13 -49l61 -207q12 -33 53 -33h37q43 0 53 37l76 201q10 17 15 49h4 q0 -35 2 -58l10 -276q0 -17 11 -28t30 -11h53q19 0 29 13.5t8 31.5l-41 438q-3 45 -49 49l-43 3q-53 3 -70 -37l-100 -265h-4l-80 263q-12 36 -51 36h-72q-21 0 -35.5 -12.5t-15.5 -32.5z" />
<glyph unicode="&#x25fc;" horiz-adv-x="1013" d="M0 0v1014h1014v-1014h-1014z" />
</font>
</defs>
</svg>
