<?xml version="1.0" standalone="no"?>
<!DOCTYPE svg PUBLIC "-//W3C//DTD SVG 1.1//EN" "http://www.w3.org/Graphics/SVG/1.1/DTD/svg11.dtd" >
<svg xmlns="http://www.w3.org/2000/svg">
<metadata></metadata>
<defs>
<font id="hotels_sans_webregular" horiz-adv-x="1241" >
<font-face units-per-em="2048" ascent="1536" descent="-512" />
<missing-glyph horiz-adv-x="559" />
<glyph unicode="&#xfb01;" horiz-adv-x="1075" d="M31 934q0 37 23 63.5t65 26.5h69v16q0 141 92.5 220t251.5 79q128 0 201.5 -46t73.5 -105q0 -41 -19 -61.5t-69 -20.5q-16 0 -37 12t-56.5 23.5t-86.5 11.5q-148 0 -148 -115v-14h440q49 0 75 -27t26 -69v-844q0 -40 -30 -68t-71 -28q-45 0 -73.5 27.5t-28.5 68.5v762 h-338v-764q0 -44 -30 -69t-70 -25q-42 0 -72.5 24.5t-30.5 69.5v764h-71q-39 0 -62.5 26t-23.5 62z" />
<glyph unicode="&#xfb02;" horiz-adv-x="1075" d="M31 934q0 37 23 63.5t65 26.5h69v27q0 92 48 158.5t125.5 98t173.5 31.5q125 0 228.5 -32t168.5 -93v-1130q0 -40 -30 -68t-71 -28q-45 0 -73.5 27.5t-28.5 68.5l2 1044q-77 25 -190 25q-77 0 -113.5 -19t-36.5 -81v-29h156q39 0 60.5 -26.5t21.5 -63.5q0 -36 -21.5 -62 t-60.5 -26h-156v-764q0 -44 -30 -69t-70 -25q-42 0 -72.5 24.5t-30.5 69.5v764h-71q-39 0 -62.5 26t-23.5 62z" />
<glyph horiz-adv-x="2048" />
<glyph horiz-adv-x="2048" />
<glyph unicode="&#xd;" horiz-adv-x="2048" />
<glyph unicode=" "  horiz-adv-x="559" />
<glyph unicode="&#x09;" horiz-adv-x="559" />
<glyph unicode="&#xa0;" horiz-adv-x="559" />
<glyph unicode="!" horiz-adv-x="391" d="M92 70v26q0 43 32 70t73 27q42 0 72 -25t30 -72v-26q0 -45 -30 -70t-70 -25q-42 0 -74.5 26t-32.5 69zM92 375v839q0 48 30 74.5t73 26.5q42 0 73 -26.5t31 -74.5v-839q0 -47 -30 -71.5t-72 -24.5q-43 0 -74 24.5t-31 71.5z" />
<glyph unicode="&#x22;" horiz-adv-x="659" d="M92 1010v207q0 48 29 74t69 26q39 0 69 -26t30 -74v-207q0 -46 -30 -71.5t-69 -25.5q-40 0 -69 25t-29 72zM375 1010v207q0 48 28.5 74t67.5 26q40 0 68 -26t28 -74v-207q0 -47 -28 -72t-68 -25q-39 0 -67.5 25.5t-28.5 71.5z" />
<glyph unicode="#" horiz-adv-x="1150" d="M82 485q0 36 27.5 62t72.5 26h82q4 23 13.5 72.5t13.5 79.5h-66q-49 0 -75.5 25t-26.5 59q0 36 26.5 62t73.5 26h101q37 227 55 328q10 80 102 80q52 0 75.5 -32.5t16.5 -74.5l-53 -301h203q10 56 27.5 164t27.5 164q6 39 29.5 59.5t73.5 20.5q52 0 75.5 -32.5 t16.5 -74.5l-53 -301h57q43 0 67.5 -26.5t24.5 -61.5t-23.5 -59.5t-68.5 -24.5h-84q-4 -24 -14.5 -73.5t-14.5 -78.5h74q43 0 67.5 -26.5t24.5 -61.5q0 -36 -24 -61t-68 -25h-102q-58 -330 -60 -340q-7 -41 -30.5 -59t-67.5 -18q-41 0 -69.5 19.5t-28.5 57.5q0 19 2 27 l53 313h-199q-54 -307 -59 -340q-7 -41 -31 -59t-67 -18q-42 0 -70.5 19.5t-28.5 57.5v27q5 30 24.5 139.5t28.5 173.5h-49q-48 0 -75 25.5t-27 60.5zM465 573h199q4 23 14 73t14 79h-200z" />
<glyph unicode="$" horiz-adv-x="1353" d="M94 307q0 39 33 64.5t74 25.5q33 0 57 -17.5t33 -49.5q16 -50 57 -85t98 -52t110.5 -24t113.5 -7q62 0 123.5 11t120.5 33.5t96 66.5t37 102q0 48 -32 78.5t-86.5 45.5t-124.5 23t-148 14.5t-156 16t-148 32t-124.5 57.5t-86.5 97.5t-32 147.5q0 86 40.5 157t108.5 116.5 t148.5 72.5t168.5 35v59q0 46 29 71t68 25q38 0 65 -24.5t27 -71.5v-61q116 -12 206.5 -48t138.5 -80.5t71.5 -85t23.5 -71.5q0 -40 -30.5 -67t-71.5 -27q-27 0 -51.5 13t-34.5 38q-60 149 -363 149q-48 0 -103 -11.5t-110 -34t-91 -63.5t-36 -93q0 -49 32 -81t86.5 -47.5 t124.5 -24t148 -14.5t156 -15t148 -30.5t124.5 -55.5t86.5 -95t32 -145q0 -79 -29 -143.5t-76.5 -108t-112.5 -75t-131 -48t-138 -22.5v-72q0 -43 -28.5 -67.5t-67.5 -24.5q-37 0 -65 24t-28 68v72q-117 10 -212.5 45t-152 82.5t-86.5 99t-30 100.5z" />
<glyph unicode="%" horiz-adv-x="1460" d="M92 1016q0 141 82 226t205 85q124 0 206.5 -85t82.5 -226t-82.5 -226t-206.5 -85q-123 0 -205 85t-82 226zM223 80q0 29 21 59l821 1137q29 39 72 39q37 0 66.5 -27t29.5 -63q0 -28 -16 -49l-820 -1147q-29 -41 -80 -41q-38 0 -66 27t-28 65zM266 1016q0 -70 32 -109 t81 -39t82 39.5t33 108.5t-33 108t-82 39t-81 -38.5t-32 -108.5zM793 287q0 141 81.5 226t204.5 85q124 0 206.5 -85t82.5 -226t-83 -226.5t-206 -85.5t-204.5 85t-81.5 227zM967 287q0 -70 31.5 -109t80.5 -39t82 39.5t33 108.5t-33 108t-82 39t-80.5 -38.5t-31.5 -108.5z " />
<glyph unicode="&#x26;" horiz-adv-x="1308" d="M92 403q0 85 45.5 157.5t118.5 111.5q-66 40 -101.5 113.5t-35.5 154.5q0 98 43 174.5t115 121.5t158 68t179 23q94 0 178.5 -16.5t155.5 -50t114 -89.5t46 -129q1 -45 -24.5 -68.5t-65.5 -23.5q-73 0 -98 84q-17 55 -90 81t-216 26q-122 0 -211.5 -54t-89.5 -147 q0 -52 24 -89t67.5 -57t94.5 -29t113 -9h553q42 0 67 -29t25 -68q0 -37 -24 -63.5t-68 -26.5h-47v-188q0 -90 -26.5 -160.5t-72.5 -116t-111.5 -75t-138.5 -42t-159 -12.5q-78 1 -147.5 12.5t-139 41.5t-119.5 76.5t-81 123t-31 174.5zM283 399q0 -66 31.5 -115.5 t82.5 -75.5t105 -38t110 -12q63 0 116.5 11t101 34.5t75 68.5t27.5 107v190h-320q-55 0 -98 -3.5t-88 -14t-75 -29t-49 -49.5t-19 -74z" />
<glyph unicode="'" horiz-adv-x="376" d="M92 1008v206q0 47 28 73t68 26q39 0 68 -26t29 -73v-206q0 -44 -29.5 -69.5t-67.5 -25.5q-39 0 -67.5 25t-28.5 70z" />
<glyph unicode="(" horiz-adv-x="612" d="M92 584q0 208 77.5 397t221.5 311q34 31 72 31q37 0 67.5 -26t30.5 -64q0 -55 -43 -92q-110 -92 -165.5 -238.5t-55.5 -316.5t55.5 -316.5t165.5 -238.5q43 -37 43 -92q0 -38 -30.5 -64.5t-67.5 -26.5q-38 0 -72 31q-144 121 -221.5 310t-77.5 395z" />
<glyph unicode=")" horiz-adv-x="612" d="M51 -61q0 55 43 92q110 92 165.5 238.5t55.5 316.5t-55.5 316.5t-165.5 238.5q-43 37 -43 92q0 38 31 64t68 26t71 -31q144 -122 221.5 -311t77.5 -397q0 -206 -77.5 -395t-221.5 -310q-34 -31 -71 -31t-68 26.5t-31 64.5zM94 1165q3 -5 8 -8q-5 3 -8 8z" />
<glyph unicode="*" horiz-adv-x="692" d="M92 1135q0 31 25 58.5t59 27.5q28 0 55 -21l45 -39l-12 51q0 2 -1 6.5t-1 6.5q0 39 28 60.5t64 21.5q34 0 62 -22t28 -60v-13l-12 -51l45 39q27 21 55 21q34 0 59 -27.5t25 -58.5q0 -25 -13.5 -48.5t-41.5 -31.5l-57 -19l55 -18q28 -10 41.5 -33t13.5 -47q0 -34 -30 -65 t-66 -31q-37 0 -59 28l-27 33l12 -49q0 -3 1 -9t1 -9q0 -36 -26.5 -58t-65.5 -22q-33 0 -62.5 23.5t-29.5 60.5q0 8 2 14l12 49l-26 -33q-22 -28 -60 -28q-36 0 -66 31t-30 65q0 24 14 47t42 33l55 18l-58 19q-29 8 -42 31t-13 49z" />
<glyph unicode="+" horiz-adv-x="1095" d="M92 455q0 45 27.5 70.5t70.5 25.5h256v258q0 42 27.5 70t73.5 28q43 0 71.5 -28.5t28.5 -69.5v-258h256q48 0 74.5 -28t26.5 -68q0 -39 -26.5 -68t-74.5 -29h-256v-258q0 -45 -28.5 -72.5t-71.5 -27.5q-47 0 -74 27t-27 73v258h-256q-41 0 -69.5 29t-28.5 68z" />
<glyph unicode="," horiz-adv-x="415" d="M68 -68q0 22 10 45l78 185q25 59 88 59q39 0 69.5 -29t30.5 -69q0 -25 -10 -43l-88 -182q-27 -58 -86 -58q-39 0 -65.5 26.5t-26.5 65.5z" />
<glyph unicode="-" horiz-adv-x="780" d="M92 600q0 39 28 67.5t75 28.5h389q50 0 77 -28t27 -68q0 -39 -26.5 -66.5t-77.5 -27.5h-389q-49 0 -76 28.5t-27 65.5z" />
<glyph unicode="." horiz-adv-x="415" d="M92 104q0 54 34 85.5t83 31.5t83 -31.5t34 -85.5t-34 -85t-83 -31t-83 31t-34 85z" />
<glyph unicode="/" horiz-adv-x="751" d="M-2 -49l575 1354q23 55 86 55q48 0 83 -40.5t14 -88.5l-578 -1358q-13 -31 -39.5 -47t-54.5 -16q-49 0 -78 45t-8 96z" />
<glyph unicode="0" horiz-adv-x="1181" d="M113 463v366q0 117 40.5 212t108.5 153.5t152 89.5t176 31q74 0 143 -19t130 -59t107 -96.5t72.5 -137t26.5 -174.5v-366q0 -118 -40.5 -213t-108.5 -154t-152.5 -90t-177.5 -31q-92 0 -176 31t-152 90t-108.5 154t-40.5 213zM307 463q0 -144 83.5 -221.5t197.5 -77.5 q119 0 201.5 74.5t82.5 224.5v366q0 150 -82.5 224.5t-201.5 74.5q-54 0 -102.5 -17t-89.5 -51.5t-65 -94t-24 -136.5v-366z" />
<glyph unicode="1" horiz-adv-x="741" d="M82 836q0 28 20 57l281 379q32 43 90 43q42 0 73.5 -28t31.5 -73v-1136q0 -43 -29 -66.5t-68 -23.5q-40 0 -68 23.5t-28 66.5v862l-109 -149q-42 -54 -90 -54q-41 0 -72.5 29.5t-31.5 69.5z" />
<glyph unicode="2" horiz-adv-x="1187" d="M113 106q0 49 39 78l573 455q58 45 92.5 109.5t34.5 132.5q0 117 -76 180t-188 63q-106 0 -178.5 -50t-85.5 -146q-6 -42 -32.5 -65t-62.5 -23q-40 0 -71 27.5t-31 72.5q0 71 31.5 137.5t88.5 119.5t146 85.5t195 32.5q92 0 175 -31.5t147 -88t101.5 -141t37.5 -184.5 q0 -109 -55.5 -206.5t-145.5 -169.5l-256 -203l-164 -109l174 8h369q50 0 77 -28t27 -68q0 -39 -26.5 -66.5t-75.5 -27.5h-758q-45 0 -73.5 32.5t-28.5 73.5z" />
<glyph unicode="3" horiz-adv-x="1163" d="M104 367q0 49 29 79.5t70 30.5q34 0 62.5 -23t29.5 -59q5 -54 25.5 -94.5t48 -64t66.5 -37.5t74.5 -18.5t78.5 -4.5q120 0 193 79t73 185q0 53 -22 109t-74.5 100.5t-124.5 44.5q-33 0 -73.5 -15t-57.5 -15q-41 0 -73 28.5t-32 69.5q0 49 33 78l281 264h-473 q-44 0 -68.5 28t-24.5 66q0 37 24.5 65.5t68.5 28.5h682q45 0 76.5 -29t31.5 -71q0 -43 -39 -82l-252 -252q140 -18 227 -139t87 -268q0 -124 -58 -229.5t-165 -169.5t-238 -64q-103 0 -187.5 24t-138.5 63t-91.5 89.5t-53 101.5t-15.5 101z" />
<glyph unicode="4" horiz-adv-x="1243" d="M113 379q0 22 24 72l363 798q23 54 86 54q38 0 69 -26.5t31 -64.5q0 -23 -16 -55l-314 -692h490v745q0 40 27.5 66.5t68.5 26.5t68.5 -26.5t27.5 -66.5v-1128q0 -45 -28 -69.5t-68 -24.5q-38 0 -67 24.5t-29 67.5v201h-608q-58 0 -91.5 26.5t-33.5 71.5z" />
<glyph unicode="5" horiz-adv-x="1187" d="M113 371q0 48 29 76t69 28q36 0 64 -23.5t34 -68.5q9 -65 34 -108.5t65 -66t84.5 -31.5t103.5 -9q66 0 120.5 26t88 67.5t51.5 91.5t18 100q0 107 -75 184.5t-213 77.5h-346q-42 0 -71.5 26t-29.5 66v375q0 54 32 82t85 28h627q48 0 74 -28.5t26 -67.5q0 -40 -26 -68 t-74 -28h-549v-199h252q119 0 214 -37.5t154 -100.5t90 -143t31 -169q0 -86 -32.5 -168t-91 -148.5t-151 -106.5t-202.5 -40q-105 0 -190 24.5t-139 63.5t-90 90.5t-51 102.5t-15 102z" />
<glyph unicode="6" horiz-adv-x="1288" d="M174 418v356q0 240 134 390.5t368 150.5q217 0 362 -125q27 -24 27 -64q0 -37 -28 -65.5t-66 -28.5q-19 0 -35 9.5t-34 23t-43.5 27t-75.5 23t-119 9.5q-131 0 -214 -102t-81 -244q57 57 133 85t155 28q128 0 237 -55.5t175 -159t66 -232.5q0 -107 -40 -194.5 t-108.5 -144t-157.5 -87t-190 -30.5q-196 0 -330.5 122.5t-134.5 307.5zM371 418q0 -109 79.5 -174.5t190.5 -65.5q122 0 206.5 69.5t84.5 196.5q0 111 -78.5 189t-191.5 78q-118 0 -204.5 -64t-86.5 -149v-80z" />
<glyph unicode="7" horiz-adv-x="1081" d="M72 1192q0 40 25.5 70t72.5 30h719q57 0 89 -25.5t32 -68.5q0 -33 -23 -74l-604 -1087q-25 -49 -90 -49q-38 0 -69 26t-31 60q0 38 14 59l536 961h-573q-47 0 -72.5 29t-25.5 69z" />
<glyph unicode="8" horiz-adv-x="1302" d="M113 387q0 102 51.5 174.5t144.5 106.5q-74 41 -116.5 113.5t-42.5 164.5q0 90 42.5 162t113.5 116t158.5 67.5t182.5 23.5q76 0 148 -14.5t136.5 -45t113 -73t76.5 -103.5t28 -133q0 -188 -148 -278q86 -37 137.5 -114t51.5 -171q0 -85 -32 -154t-84 -113t-123.5 -73.5 t-146 -42t-155.5 -12.5q-79 1 -152 13t-144.5 42t-123.5 74t-84 113.5t-32 156.5zM309 383q0 -57 33 -99t86.5 -64t109.5 -32t113 -10t111.5 9.5t108.5 31t87 64t33 100.5t-50.5 100.5t-126.5 62t-165 19.5t-164.5 -19.5t-125.5 -62t-50 -100.5zM344 950q0 -86 91.5 -138 t213.5 -52t212.5 52t90.5 138q0 84 -90 132t-213 48t-214 -48t-91 -132z" />
<glyph unicode="9" horiz-adv-x="1286" d="M154 858q0 108 40.5 196t108.5 144.5t156 86.5t186 30q124 0 231 -56.5t171.5 -156.5t64.5 -219v-363q0 -238 -138 -385t-356 -147q-136 0 -229.5 30.5t-159.5 100.5q-30 33 -30 78q0 41 27.5 68.5t66.5 27.5q42 0 84 -45q39 -41 93.5 -57.5t147.5 -16.5q142 0 223 98.5 t81 251.5q-57 -55 -137 -83.5t-158 -28.5q-129 0 -236.5 55t-172 158t-64.5 233zM348 858q0 -110 82 -184t195 -74q127 0 207.5 68t80.5 163v50q0 108 -74.5 176.5t-193.5 68.5q-124 0 -210.5 -70.5t-86.5 -197.5z" />
<glyph unicode=":" horiz-adv-x="415" d="M92 104q0 54 34 85.5t83 31.5t83 -31.5t34 -85.5t-34 -85t-83 -31t-83 31t-34 85zM92 756q0 54 34 85t83 31t83 -31t34 -85t-34 -85.5t-83 -31.5t-83 31.5t-34 85.5z" />
<glyph unicode=";" horiz-adv-x="415" d="M68 -68q0 22 10 45l78 185q25 59 88 59q39 0 69.5 -29t30.5 -69q0 -25 -10 -43l-88 -182q-27 -58 -86 -58q-39 0 -65.5 26.5t-26.5 65.5zM92 756q0 54 34 85t83 31t83 -31t34 -85t-34 -85.5t-83 -31.5t-83 31.5t-34 85.5z" />
<glyph unicode="&#x3c;" horiz-adv-x="729" d="M92 627q0 43 43 86l332 317q40 35 76 35q40 0 67 -27t27 -65q0 -41 -31 -72l-287 -272l287 -273q31 -31 31 -71q0 -38 -27 -65t-67 -27q-46 0 -76 34l-332 318q-43 43 -43 86v-4z" />
<glyph unicode="=" horiz-adv-x="1099" d="M92 293q0 36 25 65t69 29h723q46 0 71.5 -27.5t25.5 -64.5q0 -38 -25.5 -67t-71.5 -29h-721q-44 0 -70 28t-26 66zM94 621q0 38 24.5 66t69.5 28h721q47 0 73 -29t26 -68q0 -37 -26 -64.5t-73 -27.5h-721q-44 0 -69 29t-25 66z" />
<glyph unicode="&#x3e;" horiz-adv-x="729" d="M92 285q0 40 31 71l287 273l-287 272q-31 31 -31 72q0 38 27 65t67 27q36 0 76 -35l332 -317q43 -43 43 -86v4q0 -43 -43 -86l-332 -318q-30 -34 -76 -34q-40 0 -67 27t-27 65z" />
<glyph unicode="?" horiz-adv-x="1130" d="M72 1008q0 31 13.5 69t49 83t87.5 81.5t137.5 61t189.5 24.5q88 0 172.5 -26t156.5 -75.5t116 -133.5t44 -189q0 -241 -278 -383q-35 -19 -49.5 -26.5t-41.5 -25t-38.5 -30.5t-22 -32.5t-10.5 -40.5v-31q0 -43 -31 -67.5t-71 -24.5q-42 0 -73.5 24.5t-31.5 67.5v33 q0 53 16 97.5t37.5 74t60.5 58t67 43.5t75 38q187 90 187 219q0 61 -26 108.5t-68.5 74.5t-91.5 41t-101 14q-56 0 -108.5 -14.5t-102.5 -52.5t-72 -95q-12 -26 -36 -43t-50 -17q-41 0 -73.5 26.5t-32.5 68.5zM391 70v26q0 43 32 70t73 27q42 0 72 -25t30 -72v-26 q0 -45 -30 -70t-70 -25q-42 0 -74.5 26t-32.5 69z" />
<glyph unicode="@" horiz-adv-x="1794" d="M92 438q0 219 108 405t293.5 294t403.5 108t403.5 -108t293.5 -293.5t108 -403.5q0 -124 -42.5 -227.5t-130 -169.5t-204.5 -66q-78 0 -132.5 31t-76.5 68q-46 -44 -105 -69t-116 -25q-188 0 -311 123.5t-123 318.5q0 194 123 318t311 124q125 0 221 -84q5 21 27 38.5 t55 17.5q37 0 60.5 -22.5t23.5 -59.5v-576q0 -55 55 -55q30 0 63 17.5t65 52.5t52.5 99t20.5 146q0 174 -86 322t-233.5 234.5t-321.5 86.5q-172 0 -320.5 -86.5t-235.5 -235t-87 -323.5q0 -131 50 -249.5t135.5 -204t205 -135.5t252.5 -50q90 0 170 27q50 18 87 -13.5 t30 -78t-64 -62.5q-119 -34 -223 -34q-164 0 -313.5 63.5t-257 170.5t-171 255t-63.5 311zM641 424q0 -119 70.5 -194.5t179.5 -75.5q93 0 151 58.5t58 154.5v114q0 103 -56.5 158t-150.5 55q-110 0 -181 -75.5t-71 -194.5z" />
<glyph unicode="A" horiz-adv-x="1468" d="M41 82q0 26 10 43l588 1147q27 55 96 55q28 0 53.5 -14.5t38.5 -40.5l586 -1143q14 -28 14 -53q0 -40 -31.5 -64t-74.5 -24q-28 0 -53.5 14.5t-38.5 40.5l-144 287h-700l-145 -289q-27 -53 -88 -53q-44 0 -77.5 27.5t-33.5 66.5zM477 516h516l-258 516z" />
<glyph unicode="B" horiz-adv-x="1388" d="M154 102v1098q0 43 30.5 73t73.5 30h463q64 0 127 -9t131.5 -34.5t119.5 -65.5t84.5 -107.5t33.5 -154.5q0 -63 -29.5 -122.5t-77.5 -100.5q197 -91 197 -308q0 -92 -31.5 -163t-82.5 -115t-123 -72.5t-146 -39.5t-158 -11h-508q-43 0 -73.5 29.5t-30.5 72.5zM362 193 h404q332 0 332 208q0 95 -75.5 143t-197.5 48h-463v-399zM362 778h365q285 0 285 154q0 51 -29 88.5t-75.5 56.5t-93.5 28t-93 9h-359v-336z" />
<glyph unicode="C" horiz-adv-x="1392" d="M92 651q0 194 87 349t238 241t337 86q149 0 281.5 -49t228.5 -150q28 -32 28 -67q0 -38 -32.5 -67t-73.5 -29q-44 0 -72 32q-133 138 -360 138q-95 0 -178.5 -34.5t-144 -96.5t-95.5 -153.5t-35 -199.5q0 -216 129 -349.5t324 -133.5q107 0 211.5 49t162.5 133 q25 37 74 37q41 0 75 -27.5t34 -66.5q0 -31 -19 -55q-86 -123 -232.5 -193t-305.5 -70q-186 0 -337 86t-238 241t-87 349z" />
<glyph unicode="D" horiz-adv-x="1409" d="M154 115v1073q0 47 35.5 81t84.5 34h428q120 0 221.5 -36t173 -98t122 -145.5t74.5 -177t24 -193.5q0 -99 -24 -193t-74.5 -177.5t-121.5 -146.5t-173 -99.5t-222 -36.5h-428q-49 0 -84.5 34.5t-35.5 80.5zM362 193h340q98 0 178 39.5t129.5 105t76 146.5t26.5 169 t-26.5 169.5t-76 147t-129.5 105t-178 39.5h-340v-921z" />
<glyph unicode="E" horiz-adv-x="1288" d="M154 117v1069q0 49 32.5 83t87.5 34h826q44 0 68 -27.5t24 -65.5t-25.5 -67t-68.5 -29h-736v-375h699q42 0 67 -28t25 -66t-23.5 -65t-68.5 -27h-699v-360h736q45 0 71.5 -30.5t26.5 -70.5q0 -38 -25 -65t-73 -27h-824q-55 0 -87.5 34t-32.5 83z" />
<glyph unicode="F" horiz-adv-x="1243" d="M154 90v1096q0 48 34.5 82.5t83.5 34.5h807q43 0 67.5 -28.5t24.5 -66.5t-24.5 -66t-67.5 -28h-717v-420h680q42 0 66.5 -28t24.5 -66q0 -36 -24.5 -63t-66.5 -27h-680v-418q0 -49 -32 -76.5t-74 -27.5q-41 0 -71.5 27.5t-30.5 74.5z" />
<glyph unicode="G" horiz-adv-x="1404" d="M92 651q0 194 87 349t238 241t337 86q140 0 265 -48t208 -144q24 -30 24 -64q0 -40 -31 -71t-71 -31q-44 0 -72 35q-54 64 -142.5 97.5t-180.5 33.5q-95 0 -178.5 -34.5t-144 -96.5t-95.5 -153.5t-35 -199.5q0 -216 129 -349.5t324 -133.5q98 0 193 43t157 119v217h-322 q-46 0 -71 27.5t-25 66.5q0 38 25.5 67t70.5 29h416q57 0 81 -26.5t24 -75.5v-328q0 -48 -27 -84q-91 -118 -229.5 -183t-288.5 -65q-140 0 -263 49.5t-211.5 137.5t-140 214.5t-51.5 274.5z" />
<glyph unicode="H" horiz-adv-x="1374" d="M154 88v1122q0 50 30.5 77.5t73.5 27.5t73.5 -27.5t30.5 -77.5v-483h650v483q0 50 30.5 77.5t73.5 27.5t74 -27.5t31 -77.5v-1122q0 -47 -31 -73.5t-74 -26.5t-73.5 26t-30.5 74v453h-650v-453q0 -47 -30.5 -73.5t-73.5 -26.5t-73.5 26t-30.5 74z" />
<glyph unicode="I" horiz-adv-x="516" d="M154 88v1122q0 50 30.5 77.5t73.5 27.5t73.5 -27.5t30.5 -77.5v-1122q0 -47 -30.5 -73.5t-73.5 -26.5t-73.5 26t-30.5 74z" />
<glyph unicode="J" horiz-adv-x="1236" d="M51 416q0 43 32.5 74.5t72.5 31.5q42 0 71 -24.5t33 -75.5q7 -117 90 -185.5t197 -68.5q133 0 230 85t97 210v651h-333q-50 0 -77.5 26.5t-27.5 65.5t28 68t77 29h442q38 0 69 -28t31 -65v-747q0 -137 -77 -250.5t-199.5 -175.5t-259.5 -62q-129 0 -243 58t-183.5 160 t-69.5 223z" />
<glyph unicode="K" horiz-adv-x="1316" d="M154 88v1131q0 47 30 71.5t72 24.5q41 0 73.5 -25t32.5 -71v-541l138 139l520 467q34 31 78 31q42 0 74 -31.5t32 -71.5q0 -39 -37 -73l-481 -426l531 -553q27 -27 32 -80q0 -39 -29 -65.5t-67 -26.5q-52 0 -88 39l-528 555q-31 -28 -89.5 -77.5t-85.5 -74.5v-342 q0 -46 -32.5 -73t-73.5 -27t-71.5 26.5t-30.5 73.5z" />
<glyph unicode="L" horiz-adv-x="1220" d="M154 104v1113q0 47 30.5 72.5t73.5 25.5q42 0 73 -25.5t31 -72.5v-1024h701q49 0 77.5 -29.5t28.5 -67.5q0 -39 -28 -67.5t-78 -28.5h-803q-106 0 -106 104z" />
<glyph unicode="M" horiz-adv-x="1589" d="M154 90v1116q0 49 30 79t70 30q58 0 98 -62l443 -694l440 694q39 62 102 62q40 0 69.5 -30t29.5 -79v-1116q0 -48 -31.5 -75t-73.5 -27q-41 0 -72.5 27t-31.5 75v776l-338 -530q-38 -60 -96 -60q-55 0 -91 58l-340 530v-774q0 -48 -32.5 -75t-73.5 -27t-71.5 27t-30.5 75 z" />
<glyph unicode="N" horiz-adv-x="1411" d="M154 92v1106q0 56 32 86.5t78 30.5q70 0 121 -68l676 -905l-12 193v679q0 42 32.5 71.5t71.5 29.5t71.5 -29.5t32.5 -71.5v-1110q0 -56 -35 -86t-85 -30q-31 0 -61.5 15.5t-49.5 41.5l-674 899q8 -115 10 -166v-686q0 -50 -30 -77t-72 -27q-43 0 -74.5 27t-31.5 77z" />
<glyph unicode="O" horiz-adv-x="1507" d="M92 651q0 194 87 349t238 241t337 86q139 0 261 -50.5t210 -139t139 -214.5t51 -272t-51 -272t-139 -214.5t-210 -139t-261 -50.5q-186 0 -337 86t-238 241t-87 349zM301 651q0 -216 129 -349.5t324 -133.5t323.5 133.5t128.5 349.5q0 218 -128 351t-324 133 q-95 0 -178.5 -34.5t-144 -96.5t-95.5 -153.5t-35 -199.5z" />
<glyph unicode="P" horiz-adv-x="1282" d="M154 84v1118q0 45 30 73t72 28h426q130 0 233.5 -40t166.5 -107.5t95.5 -151t32.5 -175.5q0 -97 -32.5 -179.5t-97 -145.5t-168 -99t-236.5 -36h-314v-283q0 -46 -32 -72t-74 -26q-41 0 -71.5 25.5t-30.5 70.5zM362 559h314q168 0 252 79q81 76 80 183v8q0 114 -88 199.5 t-236 85.5h-322v-555z" />
<glyph unicode="Q" horiz-adv-x="1507" d="M92 651q0 194 87 349t238 241t337 86q139 0 261 -50.5t210 -139t139 -214.5t51 -272q0 -235 -127 -411l76 -78q33 -33 33 -74t-31.5 -71.5t-73.5 -30.5q-40 0 -71 34l-74 78q-168 -123 -393 -123q-186 0 -337 86t-238 241t-87 349zM301 651q0 -216 129 -349.5t324 -133.5 q145 0 260 78l-94 94q-33 33 -33 72q0 40 31 70t71 30q38 0 76 -41l78 -80q63 116 63 260q0 218 -128 351t-324 133q-95 0 -178.5 -34.5t-144 -96.5t-95.5 -153.5t-35 -199.5z" />
<glyph unicode="R" horiz-adv-x="1335" d="M154 86v1116q0 46 28.5 73.5t75.5 27.5h463q131 0 236 -35t171 -95.5t101 -141t35 -173.5q0 -147 -82.5 -252t-237.5 -149l277 -295q34 -37 34 -78q0 -39 -31 -67.5t-71 -28.5q-44 0 -76 35l-383 413h-332v-348q0 -46 -32.5 -73t-73.5 -27t-71.5 26.5t-30.5 71.5z M362 623h361q167 0 251 66q83 64 83 164q-1 113 -93 189q-90 72 -241 72h-361v-491z" />
<glyph unicode="S" horiz-adv-x="1353" d="M72 319q0 42 33.5 68.5t76.5 26.5q34 0 60.5 -18.5t36.5 -51.5q17 -52 59.5 -89t101.5 -54.5t115.5 -25t118.5 -7.5q50 0 101 6.5t104.5 23t94.5 40.5t67 64t26 89t-33.5 81.5t-90.5 47.5t-130.5 23.5t-155 15.5t-162.5 16.5t-154.5 33t-130.5 60t-90.5 101.5t-33.5 154 q0 81 35 149.5t92 114.5t132 78t153.5 46.5t156.5 14.5q124 0 227 -23.5t166 -59t106.5 -78.5t61 -79.5t17.5 -64.5q0 -42 -32 -70t-75 -28q-28 0 -54 14.5t-36 40.5q-19 46 -62 79t-99.5 48.5t-109 22t-108.5 6.5q-50 0 -108 -12t-115.5 -35.5t-95 -67t-37.5 -98.5 q0 -51 33.5 -84.5t90.5 -49.5t130.5 -24.5t155 -15t162.5 -15.5t154.5 -31.5t130.5 -58t90.5 -99t33.5 -151.5q0 -93 -39.5 -167.5t-101 -120t-144 -76t-162 -42.5t-161.5 -12q-119 0 -220.5 22.5t-170 58.5t-117.5 82t-71.5 92t-22.5 89z" />
<glyph unicode="T" horiz-adv-x="1320" d="M51 1210q0 39 26.5 66t74.5 27h1015q48 0 75.5 -27t27.5 -66t-28 -67.5t-75 -28.5h-403v-1034q0 -49 -33.5 -76t-73.5 -27q-41 0 -71.5 27t-30.5 76v1034h-403q-48 0 -74.5 28t-26.5 68z" />
<glyph unicode="U" horiz-adv-x="1523" d="M154 573v648q0 45 29.5 69.5t72.5 24.5q44 0 75 -24.5t31 -71.5v-646q0 -95 34 -173.5t90.5 -128t128 -76.5t147.5 -27t146.5 27t127.5 76.5t91 128t34 173.5v639q0 49 32 76t75 27q42 0 72 -26.5t30 -74.5v-641q0 -116 -34.5 -214.5t-93 -168t-136.5 -119t-165.5 -73 t-178.5 -23.5t-178.5 23.5t-165.5 73t-136.5 119t-93 168t-34.5 214.5z" />
<glyph unicode="V" horiz-adv-x="1415" d="M41 1219q0 41 34.5 68.5t76.5 27.5q27 0 53 -15.5t39 -42.5l473 -944l457 940q29 62 92 62q43 0 75.5 -28.5t32.5 -72.5q0 -23 -14 -51l-553 -1130q-28 -58 -90 -58t-96 66l-560 1114q-6 11 -13 32.5t-7 31.5z" />
<glyph unicode="W" horiz-adv-x="2285" d="M41 1206q0 48 34 78.5t79 30.5q28 0 55.5 -17t38.5 -45l405 -931l394 808q30 62 98 62t94 -57l399 -811l400 925q13 31 40 48.5t58 17.5q43 0 76 -30.5t33 -80.5q0 -19 -11 -45l-501 -1122q-13 -30 -39 -46t-56 -16q-66 0 -92 60l-401 827l-402 -829q-13 -28 -41 -43 t-61 -15q-68 0 -94 62l-492 1112q-14 31 -14 57z" />
<glyph unicode="X" horiz-adv-x="1337" d="M61 84q0 40 29 76l447 508l-424 487q-21 27 -21 57q0 40 30.5 71.5t70.5 31.5q43 0 73 -35l404 -471l401 469q32 37 76 37q40 0 70 -32t30 -73q0 -36 -20 -59l-426 -485l444 -508q31 -33 31 -76q0 -40 -28 -67t-68 -27q-55 0 -90 41l-420 489l-426 -491q-34 -39 -84 -39 q-39 0 -69 28.5t-30 67.5z" />
<glyph unicode="Y" horiz-adv-x="1290" d="M41 1221q0 39 33.5 66.5t77.5 27.5q52 0 88 -47q83 -111 405 -557l416 557q35 47 86 47q41 0 71.5 -26.5t30.5 -65.5q-5 -43 -20 -62l-475 -639v-430q0 -50 -33.5 -77t-73.5 -27q-44 0 -73 26.5t-29 77.5v430l-479 637q-25 31 -25 62z" />
<glyph unicode="Z" horiz-adv-x="1323" d="M72 92q0 39 26 72l834 950h-725q-45 0 -69.5 27t-24.5 65q0 39 25 68t69 29h934q53 0 81.5 -26.5t28.5 -66.5t-30 -77l-826 -940h754q48 0 74 -27.5t26 -67.5t-26 -69t-74 -29h-969q-51 0 -79.5 26t-28.5 66z" />
<glyph unicode="[" horiz-adv-x="565" d="M92 -174v1405q0 45 32.5 75.5t78.5 30.5h200q53 0 82 -28t29 -68q0 -39 -28.5 -66.5t-82.5 -27.5h-112v-1239h112q51 0 79 -27.5t28 -66.5t-28 -68t-79 -29h-200q-46 0 -78.5 32.5t-32.5 76.5z" />
<glyph unicode="\" horiz-adv-x="763" d="M-8 1253q0 41 31 67t71 26q66 0 92 -64l576 -1374q10 -27 10 -49q0 -40 -29 -66t-69 -26q-72 0 -96 61l-576 1380q-10 20 -10 45z" />
<glyph unicode="]" horiz-adv-x="565" d="M51 1241q0 40 29 68t82 28h200q46 0 78.5 -30.5t32.5 -75.5v-1405q0 -44 -32.5 -76.5t-78.5 -32.5h-200q-51 0 -79 29t-28 68t28 66.5t79 27.5h112v1239h-112q-54 0 -82.5 27.5t-28.5 66.5z" />
<glyph unicode="^" horiz-adv-x="784" d="M55.5 1014q-2.5 33 24.5 69h-2q31 41 96.5 122t97.5 122q38 47 93 47q52 0 90 -47l196 -246h-2q42 -55 15.5 -99t-84.5 -44q-50 0 -78 35l-140 176l-137 -174q-33 -41 -78 -41q-37 0 -63 23.5t-28.5 56.5z" />
<glyph unicode="_" horiz-adv-x="929" d="M-16 -45q0 40 25.5 68t72.5 28h666q42 0 68 -28.5t26 -67.5q0 -37 -25 -65.5t-69 -28.5h-666q-47 0 -72.5 28t-25.5 66z" />
<glyph unicode="`" horiz-adv-x="389" d="M20 1407q0 39 33 67.5t74 28.5q56 0 84 -43l141 -182q17 -23 17 -51q0 -37 -26 -64.5t-64 -27.5q-48 0 -72 30l-160 176q-23 25 -27 66z" />
<glyph unicode="a" d="M92 516q0 238 151.5 390.5t381.5 152.5q148 0 270 -103q3 39 30 63.5t70 24.5q46 0 74.5 -28t28.5 -72v-856q0 -45 -28.5 -72.5t-74.5 -27.5q-47 0 -73.5 28t-26.5 74q-56 -55 -127.5 -85t-142.5 -30q-229 0 -381 152t-152 389zM293 516q0 -157 93 -255.5t237 -98.5 q121 0 196.5 76t75.5 204v150q0 136 -74 208t-196 72q-144 0 -238 -99.5t-94 -256.5z" />
<glyph unicode="b" d="M143 88v1178q0 40 29 68t74 28q41 0 70.5 -28t29.5 -68v-310q122 103 270 103q230 0 381.5 -152.5t151.5 -390.5q0 -237 -152 -389t-381 -152q-71 0 -142.5 30t-127.5 85q0 -46 -26.5 -74t-73.5 -28q-46 0 -74.5 27.5t-28.5 72.5zM346 442q0 -128 75.5 -204t196.5 -76 q144 0 237 98.5t93 255.5t-94 256.5t-238 99.5q-122 0 -196 -72t-74 -208v-150z" />
<glyph unicode="c" horiz-adv-x="1120" d="M92 516q0 238 151.5 390.5t381.5 152.5q252 0 383 -174q30 -43 30 -80q0 -38 -26 -62t-64 -24q-51 0 -88 45q-97 108 -235 108q-144 0 -238 -99.5t-94 -256.5t93.5 -255.5t236.5 -98.5q149 0 247 104q27 31 66 31t67.5 -33.5t28.5 -73.5q0 -27 -14 -47q-65 -84 -171 -126 t-222 -42q-229 0 -381 152t-152 389z" />
<glyph unicode="d" d="M92 516q0 238 151.5 390.5t381.5 152.5q148 0 270 -103v310q0 40 29.5 68t70.5 28q45 0 74 -28t29 -68v-1178q0 -45 -28.5 -72.5t-74.5 -27.5q-47 0 -73.5 28t-26.5 74q-56 -55 -127.5 -85t-142.5 -30q-229 0 -381 152t-152 389zM293 516q0 -157 93 -255.5t237 -98.5 q121 0 196.5 76t75.5 204v150q0 136 -74 208t-196 72q-144 0 -238 -99.5t-94 -256.5z" />
<glyph unicode="e" horiz-adv-x="1230" d="M92 530q0 147 67 268t189 191t275 70q212 0 359 -134.5t167 -369.5v-12q0 -42 -27.5 -71.5t-89.5 -33.5l-719 -57q34 -99 115 -162t190 -63q151 0 263 100q43 37 80 37q39 0 62.5 -20.5t23.5 -59.5q0 -37 -35 -78.5t-91.5 -77t-137 -59t-162.5 -23.5q-230 0 -379.5 153.5 t-149.5 401.5zM295 559l657 53q-26 119 -115 190.5t-208 71.5q-141 0 -233 -87.5t-101 -227.5z" />
<glyph unicode="f" horiz-adv-x="724" d="M31 934q0 37 23 63.5t65 26.5h69v37q0 140 90 220.5t234 80.5q111 0 172 -45.5t61 -91.5q0 -97 -88 -97q-18 0 -58 24t-81 24q-66 0 -96.5 -28.5t-30.5 -88.5v-35h156q39 0 60.5 -26.5t21.5 -63.5q0 -36 -21.5 -62t-60.5 -26h-156v-764q0 -44 -30 -69t-70 -25 q-42 0 -72.5 24.5t-30.5 69.5v764h-71q-39 0 -62.5 26t-23.5 62z" />
<glyph unicode="g" d="M92 516q0 238 151.5 390.5t381.5 152.5q148 0 270 -103q3 40 29.5 64t70.5 24q46 0 74.5 -27.5t28.5 -72.5v-866q0 -146 -68.5 -250.5t-181.5 -154.5t-256 -50q-123 0 -218 32t-171 107q-37 37 -37 80q0 39 30 68t70 29t70 -27q68 -56 125 -79t131 -23q130 0 218.5 65 t88.5 191v28q-119 -119 -274 -119q-229 0 -381 152t-152 389zM293 516q0 -157 93 -255.5t237 -98.5q121 0 196.5 76t75.5 204v150q0 136 -74 208t-196 72q-144 0 -238 -99.5t-94 -256.5z" />
<glyph unicode="h" horiz-adv-x="1290" d="M143 86v1180q0 40 29 68t74 28q41 0 70.5 -28t29.5 -68v-299q128 92 299 92q138 0 252 -62t182 -177t68 -261v-473q0 -46 -26.5 -72t-73.5 -26q-46 0 -74.5 26.5t-28.5 71.5v477q0 131 -87.5 220t-211.5 89q-122 0 -208.5 -85t-90.5 -212v-489q0 -45 -28 -71.5t-74 -26.5 q-47 0 -74 26t-27 72z" />
<glyph unicode="i" horiz-adv-x="489" d="M143 84v864q0 40 29 68t74 28q41 0 70.5 -28t29.5 -68v-864q0 -40 -29.5 -68t-70.5 -28q-45 0 -74 28t-29 68zM143 1223v43q0 40 29 68t74 28q41 0 70.5 -28t29.5 -68v-43q0 -40 -29.5 -68.5t-70.5 -28.5q-45 0 -74 28t-29 69z" />
<glyph unicode="j" horiz-adv-x="489" d="M-14 -248q0 55 57 90q100 61 100 189v917q0 40 29 68t74 28q41 0 70.5 -28t29.5 -68v-907q0 -79 -18 -145t-46.5 -110t-64.5 -74.5t-71 -44t-66 -13.5q-41 0 -67.5 29.5t-26.5 68.5zM143 1223v43q0 40 29 68t74 28q41 0 70.5 -28t29.5 -68v-43q0 -40 -29.5 -68.5 t-70.5 -28.5q-45 0 -74 28t-29 69z" />
<glyph unicode="k" horiz-adv-x="1044" d="M143 88v1184q0 41 30 65.5t71 24.5q40 0 71 -25t31 -65v-651l80 77l346 324q39 31 78 31q41 0 70.5 -28.5t29.5 -68.5t-35 -75l-337 -314l376 -415q28 -37 28 -70q0 -21 -12 -42q-28 -52 -89 -52q-48 0 -82 43v-2l-373 417l-80 -73v-285q0 -46 -31 -72t-71 -26 q-41 0 -71 25.5t-30 72.5z" />
<glyph unicode="l" horiz-adv-x="489" d="M143 84v1182q0 40 29 68t74 28q41 0 70.5 -28t29.5 -68v-1182q0 -40 -29.5 -68t-70.5 -28q-45 0 -74 28t-29 68z" />
<glyph unicode="m" horiz-adv-x="2091" d="M143 86v471q0 218 145 360t357 142q125 0 228.5 -49t170.5 -142q67 93 171 142t231 49q211 0 356.5 -141t145.5 -361v-471q0 -46 -27 -72t-74 -26q-46 0 -74 26.5t-28 71.5v477q0 125 -88.5 217t-210.5 92q-123 0 -211 -90t-88 -219v-477q0 -46 -26.5 -72t-73.5 -26 q-46 0 -74.5 26.5t-28.5 71.5v477q0 125 -88.5 217t-210.5 92q-124 0 -211.5 -92t-87.5 -217v-477q0 -45 -28 -71.5t-74 -26.5q-47 0 -74 26t-27 72z" />
<glyph unicode="n" horiz-adv-x="1290" d="M143 86v473q0 218 145 359t357 141q138 0 252 -62t182 -177t68 -261v-473q0 -46 -26.5 -72t-73.5 -26q-46 0 -74.5 26.5t-28.5 71.5v477q0 131 -87.5 220t-211.5 89q-125 0 -212 -89t-87 -220v-477q0 -45 -28 -71.5t-74 -26.5q-47 0 -74 26t-27 72z" />
<glyph unicode="o" horiz-adv-x="1251" d="M92 516q0 238 151.5 390.5t381.5 152.5t382 -152.5t152 -390.5q0 -237 -151.5 -388t-382.5 -153h-4q-147 0 -267 67q-122 68 -192 192.5t-70 281.5zM293 516q0 -156 94 -256q92 -98 230 -98h6q146 2 240.5 99.5t94.5 254.5t-94.5 256.5t-238.5 99.5t-238 -99.5 t-94 -256.5z" />
<glyph unicode="p" d="M143 -272v1216q0 45 28.5 72.5t74.5 27.5q47 0 73.5 -27t26.5 -73q56 55 127.5 85t142.5 30q229 0 381 -152t152 -389q0 -238 -151.5 -390.5t-381.5 -152.5q-148 0 -270 103v-350q0 -40 -29.5 -68.5t-70.5 -28.5q-45 0 -74 28t-29 69zM346 444q0 -136 74 -208t196 -72 q144 0 238 98.5t94 255.5t-93 255.5t-237 98.5q-121 0 -196.5 -76t-75.5 -204v-148z" />
<glyph unicode="q" d="M92 518q0 237 152 389t381 152q71 0 142.5 -30t127.5 -85q0 46 26.5 73t73.5 27q46 0 74.5 -27.5t28.5 -72.5v-1216q0 -41 -29 -69t-74 -28q-41 0 -70.5 28.5t-29.5 68.5v350q-122 -103 -270 -103q-230 0 -381.5 152.5t-151.5 390.5zM293 518q0 -157 94 -255.5t238 -98.5 q122 0 196 72t74 208v148q0 128 -75.5 204t-196.5 76q-144 0 -237 -98.5t-93 -255.5z" />
<glyph unicode="r" horiz-adv-x="749" d="M143 86v860q0 44 31 71t72 27q37 0 66 -25.5t30 -70.5q51 54 118.5 82.5t137.5 28.5q48 0 75 -24.5t27 -73.5q0 -46 -27.5 -71.5t-74.5 -25.5q-127 0 -189.5 -89t-62.5 -232v-457q0 -43 -30 -70.5t-70 -27.5q-46 0 -74.5 27t-28.5 71z" />
<glyph unicode="s" horiz-adv-x="1069" d="M61 258q0 42 32 69t73 27q32 0 58 -21t36 -61q12 -49 90.5 -76.5t188.5 -27.5q36 0 78 7.5t86 23t73 45t29 67.5q0 32 -20.5 54t-64 34t-83.5 18t-107 11q-46 4 -71.5 6.5t-70 9t-71 13t-64 19t-60 27.5t-48.5 37t-40 49t-23.5 63t-9.5 79q0 81 42 146t109 103.5 t144 58.5t155 20q122 0 214.5 -24t142.5 -63t74 -79.5t24 -81.5q0 -43 -33 -69.5t-74 -26.5q-66 0 -88 57q-39 100 -260 100q-54 0 -109.5 -14.5t-98 -48.5t-42.5 -80q0 -30 15 -48.5t59 -29t74.5 -14t109.5 -9.5q3 0 4 -0.5t3 -0.5h4q58 -4 97.5 -8.5t92.5 -14t89 -23.5 t74.5 -37.5t61 -54.5t37.5 -76.5t15 -101.5q0 -77 -33 -136.5t-82 -93.5t-115 -56t-123.5 -29.5t-115.5 -7.5q-131 0 -228.5 25.5t-149.5 67t-76 86t-24 91.5z" />
<glyph unicode="t" horiz-adv-x="802" d="M31 932q0 37 26 64.5t70 27.5h96v203q0 48 29.5 74t71.5 26q40 0 70 -26t30 -74v-203h209q44 0 70 -27.5t26 -64.5q0 -36 -26 -63t-70 -27h-209v-482q0 -35 1 -57t7 -50.5t17 -44.5t32 -28t51 -12q43 0 80.5 15.5t49.5 15.5q39 0 65.5 -29.5t26.5 -67.5q0 -44 -38.5 -74 t-86.5 -41.5t-97 -11.5q-74 0 -130 21.5t-89.5 56t-54 86t-28 103.5t-7.5 116v484h-96q-46 0 -71 27t-25 63z" />
<glyph unicode="u" horiz-adv-x="1290" d="M143 475v471q0 46 27 72t74 26q46 0 74 -26.5t28 -71.5v-473q0 -131 87.5 -220t211.5 -89q125 0 212 89t87 220v473q0 45 28.5 71.5t74.5 26.5q47 0 73.5 -26t26.5 -72v-471q0 -218 -145 -359t-357 -141q-138 0 -252 62t-182 177t-68 261z" />
<glyph unicode="v" horiz-adv-x="1161" d="M41 952q0 38 34 65t75 27q63 0 88 -55q151 -315 346 -696l348 696q27 55 88 55q39 0 69.5 -25.5t30.5 -64.5q0 -20 -8 -39l-440 -878q-30 -62 -92 -62q-60 0 -88 58l-445 887q-6 15 -6 32z" />
<glyph unicode="w" horiz-adv-x="1796" d="M41 950q0 42 34 68t77 26q28 0 52 -14.5t34 -38.5l294 -678q73 152 273 578q31 67 94 67q64 0 94 -65l281 -580q55 128 152 358t133 314q23 59 92 59q40 0 72 -25t32 -63q0 -19 -8 -38l-375 -885q-25 -58 -94 -58q-66 0 -92 56l-281 596l-289 -594q-14 -31 -32.5 -44.5 t-53.5 -13.5q-76 0 -102 60l-381 880q-6 18 -6 35z" />
<glyph unicode="x" horiz-adv-x="1085" d="M51 84q0 38 29 74l334 370l-322 359q-22 29 -26 65q0 38 32 65t72 27q49 0 78 -36l293 -344l293 340q34 40 77 40q39 0 71 -30.5t32 -69.5q0 -34 -19 -53l-325 -365l338 -376q26 -29 26 -66q0 -38 -30.5 -67t-71.5 -29q-49 0 -76 35l-313 368l-316 -366q-30 -37 -77 -37 q-40 0 -69.5 28.5t-29.5 67.5z" />
<glyph unicode="y" horiz-adv-x="1163" d="M51 944q0 40 35 70t76 30q26 0 50.5 -15t37.5 -42l340 -678q41 86 156.5 316t177.5 362q25 57 88 57q42 0 76 -23.5t34 -59.5q0 -25 -8 -41l-614 -1223q-34 -66 -99 -66q-40 0 -70 25.5t-30 64.5q0 24 12 48l160 327l-412 807q-10 17 -10 41z" />
<glyph unicode="z" horiz-adv-x="1105" d="M72 94q0 35 34 78l605 678h-508q-47 0 -73 28t-26 68t26 69t73 29h715q48 0 78 -30t30 -70q0 -39 -31 -74l-604 -677h541q48 0 75 -29.5t27 -69.5q0 -38 -26 -66t-74 -28h-754q-50 0 -79 28t-29 66z" />
<glyph unicode="{" horiz-adv-x="575" d="M33 592q0 37 21.5 66.5t60.5 29.5q29 4 35 10q22 22 22 136v288q0 58 5 99.5t21 83.5t44.5 67.5t77.5 41.5t118 16q44 0 70.5 -29t26.5 -68q0 -38 -25 -66t-72 -28q-41 0 -54 -25t-13 -94v-303v-17q0 -38 -1 -58.5t-6.5 -52t-20 -55t-38.5 -42.5q24 -20 38.5 -45t20 -61 t6.5 -56t1 -63v-291q0 -70 13 -95.5t54 -25.5q47 0 72 -27t25 -67q0 -38 -27 -67.5t-70 -29.5q-69 0 -118 16t-77.5 41.5t-44.5 68t-21 84t-5 100.5v276q0 116 -22 135q-8 8 -35 11q-39 0 -60.5 28.5t-21.5 67.5z" />
<glyph unicode="|" horiz-adv-x="653" d="M225 -86v1382q0 44 30 71.5t71 27.5q47 0 74.5 -26.5t27.5 -72.5v-1382q0 -45 -27 -70.5t-75 -25.5q-42 0 -71.5 26t-29.5 70z" />
<glyph unicode="}" horiz-adv-x="593" d="M16 -139q0 40 25 67t72 27q41 0 54 25.5t13 95.5v291q0 43 1 63t6.5 56t20 61t38.5 45q-11 8 -19.5 18.5t-15 19t-11.5 22t-8.5 21t-5.5 24t-3.5 22.5t-2 25t-0.5 23.5v25.5v24v303q0 69 -13 94t-54 25q-47 0 -72 28t-25 66q0 39 26.5 68t70.5 29q69 0 119 -16 t78.5 -41.5t44.5 -67.5t21 -83.5t5 -99.5v-288q0 -113 20 -136q6 -6 35 -10q39 0 60.5 -29.5t21.5 -66.5q0 -39 -21.5 -67.5t-60.5 -28.5q-27 -3 -35 -11q-20 -20 -20 -135v-276q0 -59 -5 -100.5t-21 -84t-44.5 -68t-78.5 -41.5t-119 -16q-43 0 -70 29.5t-27 67.5z" />
<glyph unicode="~" horiz-adv-x="1097" d="M31 508q22 125 84.5 177t163.5 52q47 0 99.5 -13.5t85 -27.5t91.5 -41q106 -48 150 -61l-5 2q40 -8 67 7.5t36 55.5q6 40 33 60t63 20q45 0 74.5 -30t21.5 -84q-15 -110 -80 -168t-167 -58q-94 0 -254 80q-140 70 -213 70q-22 0 -40 -17.5t-24 -54.5q-6 -38 -32.5 -58 t-59.5 -20q-46 0 -74.5 29.5t-19.5 79.5z" />
<glyph unicode="&#xa1;" horiz-adv-x="391" d="M92 -195v840q0 46 30.5 71t72.5 25q43 0 73.5 -24.5t30.5 -71.5v-840q0 -48 -29.5 -74t-72.5 -26q-42 0 -73.5 26t-31.5 74zM92 924v26q0 44 30.5 69t70.5 25q42 0 74 -25.5t32 -68.5v-26q0 -44 -31.5 -70.5t-72.5 -26.5q-42 0 -72.5 25t-30.5 72z" />
<glyph unicode="&#xa2;" horiz-adv-x="1120" d="M92 672q0 210 120.5 355.5t313.5 178.5v31q0 36 25.5 60t64.5 24q37 0 63 -24.5t26 -59.5v-27q193 -23 303 -170q30 -44 30 -79q0 -38 -26.5 -62.5t-63.5 -24.5q-50 0 -88 46q-93 110 -237 110t-237 -99t-93 -259q0 -156 93.5 -254.5t236.5 -98.5q68 0 138.5 31.5 t108.5 71.5q27 31 66 31t67.5 -33.5t28.5 -73.5q0 -27 -14 -47q-106 -136 -313 -164v-61q0 -35 -26 -59.5t-63 -24.5q-39 0 -64.5 24t-25.5 60v65q-193 33 -313.5 177.5t-120.5 355.5z" />
<glyph unicode="&#xa3;" horiz-adv-x="1040" d="M72 100q0 32 25.5 58t68.5 32q82 139 90 299h-49q-45 0 -70.5 23.5t-25.5 58.5q0 36 26 61t70 25h16q-5 10 -16.5 36t-16.5 36q-73 142 -73 250q0 83 34.5 148.5t93 105.5t129.5 61t148 21q176 0 291 -76.5t115 -177.5q0 -41 -33.5 -68.5t-73.5 -27.5q-68 0 -90 57 q-21 51 -77 77.5t-132 26.5q-79 0 -139.5 -41.5t-60.5 -107.5q0 -75 53 -176q33 -68 59 -144h195q45 0 70.5 -25t25.5 -61q0 -35 -25.5 -58.5t-70.5 -23.5h-174q-11 -170 -76 -296h452q51 0 79 -26t28 -67q0 -40 -28.5 -70t-78.5 -30h-655q-53 0 -78.5 28t-25.5 72z" />
<glyph unicode="&#xa5;" horiz-adv-x="1298" d="M2 1217q0 39 30.5 67.5t69.5 28.5q44 0 80 -45l426 -574l430 582q27 39 76 39q42 0 74.5 -28t32.5 -66q0 -27 -17 -50l-377 -505h82q48 0 73.5 -27.5t25.5 -63.5q0 -38 -26 -64t-73 -26h-202v-112h202q45 0 70 -27t25 -63q0 -37 -24.5 -63.5t-70.5 -26.5h-202v-105 q0 -48 -29.5 -74t-69.5 -26q-39 0 -67.5 26.5t-28.5 73.5v105h-209q-43 0 -68.5 28t-25.5 62q0 37 25.5 63.5t72.5 26.5h205v112h-209q-43 0 -68.5 28t-25.5 65q0 35 25.5 61.5t72.5 26.5h84l-366 487q-23 29 -23 64z" />
<glyph unicode="&#xa7;" horiz-adv-x="1007" d="M92 815q0 84 37.5 148.5t97 99t121.5 51t123 16.5q98 0 176 -23.5t124.5 -62t70.5 -82.5t24 -90q0 -41 -28 -66.5t-64 -25.5q-71 0 -88 76q-9 45 -70 70.5t-145 25.5q-28 0 -60.5 -8t-64 -23.5t-52 -43t-20.5 -62.5q0 -24 14 -41.5t33.5 -27.5t54 -17t62.5 -10t72 -6 q50 -4 80 -7.5t77 -12.5t76 -21t63 -33t53.5 -48.5t32.5 -68t13 -90.5q0 -121 -88 -199q98 -69 98 -213q0 -72 -28.5 -129.5t-71.5 -92t-99.5 -57.5t-107.5 -31.5t-100 -8.5q-107 0 -200.5 31.5t-153.5 92.5t-60 138q0 39 28 65.5t64 26.5q72 0 86 -75q9 -47 79 -75t157 -28 q41 0 90.5 14t92 48.5t42.5 80.5q0 24 -14 41.5t-32.5 27.5t-54.5 17t-62 10t-72 7q-51 4 -80.5 7.5t-77 12.5t-76 20.5t-63 32.5t-53.5 48t-32.5 67t-13.5 90q0 125 88 201q-98 69 -98 213zM285 399q0 -51 60 -70.5t169 -19.5q54 0 99.5 12t77.5 41t32 72q0 27 -17.5 46 t-51 28.5t-71.5 13.5t-89 4q-91 0 -150 -31t-59 -96z" />
<glyph unicode="&#xa8;" horiz-adv-x="659" d="M20 1247q0 46 33.5 79.5t79.5 33.5t79.5 -33.5t33.5 -79.5t-33.5 -79t-79.5 -33t-79.5 33t-33.5 79zM414 1247q0 46 33 79.5t79 33.5t79.5 -33.5t33.5 -79.5t-33.5 -79t-79.5 -33t-79 33t-33 79z" />
<glyph unicode="&#xa9;" horiz-adv-x="1284" d="M92 645q0 148 74 274.5t201 200.5t276 74q150 0 276.5 -74t199.5 -200.5t73 -274.5t-73 -274t-199.5 -199.5t-276.5 -73.5q-149 0 -276 73.5t-201 199.5t-74 274zM217 645q0 -179 124.5 -305.5t301.5 -126.5t301.5 126.5t124.5 305.5q0 180 -124.5 306t-301.5 126 t-301.5 -126t-124.5 -306zM389 645q0 104 75 184t185 80q54 0 104.5 -21t82.5 -59q20 -23 20 -43q0 -69 -70 -69q-31 0 -53 22q-36 39 -84 39q-53 0 -87 -38.5t-34 -96.5q0 -51 35.5 -90t87.5 -39q61 0 97 45q8 11 25 19t32 8q27 0 49.5 -16t22.5 -46q0 -55 -63.5 -99 t-158.5 -44q-107 0 -186.5 77.5t-79.5 186.5z" />
<glyph unicode="&#xaa;" horiz-adv-x="940" d="M74 930q0 179 113 293t286 114q113 0 203 -77q3 30 23 47.5t53 17.5q34 0 54.5 -20.5t20.5 -53.5v-643q0 -34 -20.5 -55t-54.5 -21q-35 0 -55.5 21.5t-20.5 56.5q-89 -86 -203 -86q-172 0 -285.5 114t-113.5 292zM225 930q0 -118 69.5 -192t176.5 -74q92 0 148.5 57 t56.5 153v113q0 101 -55.5 155t-147.5 54q-108 0 -178 -74t-70 -192z" />
<glyph unicode="&#xab;" horiz-adv-x="1132" d="M92 528q0 41 43 84l318 308q31 28 69 28q39 0 70 -29t31 -69t-33 -70l-260 -250l260 -249q33 -30 33 -70q0 -41 -27.5 -69.5t-73.5 -28.5q-36 0 -69 30l-322 308q-39 39 -39 77zM510 528q0 41 43 84l317 308q32 28 70 28q39 0 69.5 -29t30.5 -69q0 -41 -32 -70l-260 -250 l260 -249q32 -29 32 -70t-27 -69.5t-73 -28.5q-37 0 -70 30l-321 308q-39 39 -39 77z" />
<glyph unicode="&#xac;" horiz-adv-x="430" d="M92 606q0 52 35.5 86.5t89.5 34.5q55 0 88 -34t33 -87q0 -54 -32.5 -85.5t-88.5 -31.5q-55 0 -90 32t-35 85z" />
<glyph unicode="&#xad;" horiz-adv-x="780" d="M92 600q0 39 28 67.5t75 28.5h389q50 0 77 -28t27 -68q0 -39 -26.5 -66.5t-77.5 -27.5h-389q-49 0 -76 28.5t-27 65.5z" />
<glyph unicode="&#xae;" horiz-adv-x="1284" d="M92 645q0 148 74 274.5t201 200.5t276 74q150 0 276.5 -74t199.5 -200.5t73 -274.5t-73 -274t-199.5 -199.5t-276.5 -73.5q-149 0 -276 73.5t-201 199.5t-74 274zM217 645q0 -179 124.5 -305.5t301.5 -126.5t301.5 126.5t124.5 305.5q0 180 -124.5 306t-301.5 126 t-301.5 -126t-124.5 -306zM494 446v369q0 30 17.5 48t49.5 18q26 0 45 -19t19 -59v-23q25 45 67.5 75t81.5 30q29 0 50.5 -18t21.5 -48q0 -26 -20 -45.5t-52 -19.5q-64 0 -101.5 -43t-37.5 -111v-154q0 -30 -20.5 -48.5t-53.5 -18.5q-32 0 -49.5 18t-17.5 49z" />
<glyph unicode="&#xaf;" horiz-adv-x="780" d="M59 1219q0 35 25.5 60.5t67.5 25.5h346q45 0 69.5 -25t24.5 -61q0 -34 -24 -59t-70 -25h-346q-44 0 -68.5 25t-24.5 59z" />
<glyph unicode="&#xb0;" horiz-adv-x="632" d="M92 1114q0 94 64.5 159.5t158.5 65.5t160 -65.5t66 -159.5q0 -93 -66 -158t-160 -65t-158.5 64.5t-64.5 158.5zM205 1114q0 -46 32 -78t78 -32t79.5 32.5t33.5 77.5q0 46 -33.5 79.5t-79.5 33.5q-45 0 -77.5 -33.5t-32.5 -79.5z" />
<glyph unicode="&#xb1;" horiz-adv-x="1095" d="M92 96q0 45 28 71t70 26h713q48 0 74.5 -28.5t26.5 -68.5q0 -39 -26.5 -67.5t-74.5 -28.5h-713q-41 0 -69.5 28.5t-28.5 67.5zM92 592q0 45 27.5 70.5t70.5 25.5h256v258q0 42 27.5 70t73.5 28q43 0 71.5 -28.5t28.5 -69.5v-258h256q48 0 74.5 -28t26.5 -68 q0 -39 -26.5 -67.5t-74.5 -28.5h-256v-177q0 -45 -28.5 -72.5t-71.5 -27.5q-47 0 -74 27t-27 73v177h-256q-41 0 -69.5 28.5t-28.5 67.5z" />
<glyph unicode="&#xb2;" horiz-adv-x="729" d="M92 639q0 31 25 53l317 240q66 46 66 119q0 58 -38 90.5t-95 32.5q-123 0 -134 -101q-8 -51 -63 -51q-26 0 -47 17.5t-21 45.5q0 95 83 157.5t182 62.5q106 0 186 -72.5t80 -183.5q0 -58 -34 -117t-83 -101l-129 -100l-47 -33h235q30 0 46 -19t16 -46t-14.5 -45.5 t-44.5 -18.5h-416q-32 3 -51 23.5t-19 46.5z" />
<glyph unicode="&#xb3;" horiz-adv-x="729" d="M92 762v12q0 33 20.5 51.5t49.5 18.5q54 0 57 -51q7 -109 150 -109q63 0 100 39.5t37 95.5q0 47 -33 86t-80 39q-19 0 -28 -6q-37 -14 -46 -14q-27 0 -47 19.5t-20 49.5q0 13 7 30t17 24l-4 -5q29 25 68 61t68 62h-234q-29 0 -45 19t-16 45q0 27 16 46t45 19h379 q29 0 48.5 -20t19.5 -49q0 -31 -23 -54l-121 -118q74 -18 117 -83.5t43 -146.5q0 -110 -76 -189t-192 -79q-52 0 -96.5 11t-83.5 34t-64.5 64.5t-32.5 97.5z" />
<glyph unicode="&#xb4;" horiz-adv-x="385" d="M20 1225q0 23 15 47l143 174q41 47 86 47q40 0 70.5 -27.5t30.5 -64.5q0 -34 -27 -64l-158 -170q-30 -32 -71 -32q-36 0 -62.5 27t-26.5 63z" />
<glyph unicode="&#xb5;" horiz-adv-x="1525" d="M92 674q0 54 58 92l804 520q26 17 56 17q54 0 86 -48l-2 2q16 -29 16 -57q0 -57 -45 -84l-537 -342h803q49 0 76 -30t27 -72q0 -41 -28 -73t-75 -32h-807l539 -338q47 -28 47 -84q0 -40 -28.5 -70t-69.5 -30q-34 0 -58 16l-804 521q-58 38 -58 92z" />
<glyph unicode="&#xb6;" horiz-adv-x="1101" d="M92 981q0 131 97 227.5t229 96.5h489q46 0 74.5 -27.5t28.5 -73.5q0 -45 -28 -70.5t-75 -25.5h-20v-1192q0 -39 -28 -67.5t-73 -28.5q-46 0 -75 29t-29 67v1192h-180v-1192q0 -39 -27 -67.5t-72 -28.5q-44 0 -73 29t-29 67v764q-94 36 -151.5 117.5t-57.5 183.5z" />
<glyph unicode="&#xb7;" horiz-adv-x="430" d="M92 606q0 52 35.5 86.5t89.5 34.5q55 0 88 -34t33 -87q0 -54 -32.5 -85.5t-88.5 -31.5q-55 0 -90 32t-35 85z" />
<glyph unicode="&#xb8;" horiz-adv-x="495" d="M20 -270q0 32 22 50.5t56 18.5q23 0 42.5 -13t32.5 -28.5t35.5 -29.5t49.5 -15q33 -2 54.5 10t21.5 35q0 29 -27 43.5t-65 14.5q-29 0 -47 -6l-70 49l51 141h137l-24 -68q85 -1 135.5 -50t50.5 -128q0 -84 -67 -131t-160 -47q-52 0 -102.5 16.5t-88 53t-37.5 84.5z" />
<glyph unicode="&#xb9;" horiz-adv-x="475" d="M92 1036q0 17 6 29l154 211q23 29 57 29q30 0 52 -19.5t22 -50.5v-617q0 -24 -20 -38.5t-46 -14.5t-45.5 14.5t-19.5 38.5v426q-49 -75 -88 -75q-28 0 -50 20.5t-22 46.5z" />
<glyph unicode="&#xba;" horiz-adv-x="948" d="M74 930q0 179 113 293t286 114t287 -114t114 -293q0 -178 -113.5 -291t-287.5 -115q-171 -2 -285 112.5t-114 293.5zM225 930q0 -118 70 -193t176 -73q110 2 181 75.5t71 190.5t-71 191.5t-179 74.5t-178 -74t-70 -192z" />
<glyph unicode="&#xbb;" horiz-adv-x="1132" d="M92 211q0 40 33 70l260 249l-260 250q-33 30 -33 70t31 69t70 29q37 0 69 -28l318 -308q43 -43 43 -84q0 -38 -39 -77l-322 -308q-33 -30 -69 -30q-46 0 -73.5 28.5t-27.5 69.5zM510 211q0 40 33 70l260 249l-260 250q-33 30 -33 70t30.5 69t69.5 29q38 0 70 -28 l317 -308q43 -43 43 -84q0 -38 -39 -77l-321 -308q-33 -30 -70 -30q-46 0 -73 28.5t-27 69.5z" />
<glyph unicode="&#xbc;" horiz-adv-x="1265" d="M92 1036q0 17 8 29l154 211q23 29 57 29q29 0 51.5 -19.5t22.5 -50.5v-617q0 -23 -20.5 -38t-45.5 -15q-26 0 -45.5 14.5t-19.5 38.5v426l-35 -45q-24 -30 -53 -30q-28 0 -51 20.5t-23 46.5zM201 193q0 26 12 40l754 975q29 32 65 23q26 -6 44 -29t14 -51l-3 -6l-10 -21 l-753 -974q-14 -18 -34.5 -24t-39.5 -1q-20 5 -34.5 24.5t-14.5 43.5zM641 219q0 25 14 47l240 445q14 26 45 26q24 0 44 -20.5t20 -48.5q0 -20 -7 -29l-192 -358h239v395q0 28 18 46.5t48 18.5q28 0 46 -18.5t18 -46.5v-621q0 -27 -19.5 -44t-44.5 -17q-27 0 -46.5 17 t-19.5 44v97h-325q-37 0 -57.5 18t-20.5 49z" />
<glyph unicode="&#xbd;" horiz-adv-x="1343" d="M92 1036q0 17 8 29l154 211q19 29 55 29q30 0 52 -19.5t22 -50.5v-617q0 -24 -20 -38.5t-46 -14.5t-44.5 14.5t-18.5 38.5v426q-53 -75 -90 -75q-28 0 -50 20.5t-22 46.5zM172 205q0 5 10 28l754 975q29 32 65 23q26 -6 44 -29t14 -51l-2 -6l-10 -21l-754 -974 q-14 -18 -34.5 -24t-39.5 -1q-24 5 -40 30.5t-7 53.5v-4zM705 72q0 30 26 53l318 237q65 45 65 121q0 56 -38 88.5t-95 32.5q-122 0 -133 -100q-4 -26 -22 -38.5t-42 -12.5q-27 0 -48 17.5t-21 45.5q0 63 41 114.5t101.5 78t123.5 26.5q105 0 185.5 -72t80.5 -184 q0 -58 -34.5 -116.5t-84.5 -100.5l-127 -100l-47 -33h236q29 0 45 -19.5t16 -46.5t-15 -45t-44 -18h-418q-31 3 -50 24t-19 48z" />
<glyph unicode="&#xbe;" horiz-adv-x="1361" d="M51 762v12q0 33 20.5 51.5t49.5 18.5q24 0 40.5 -12.5t16.5 -38.5q7 -109 152 -109q62 0 98.5 40t36.5 95q0 47 -33 86t-80 39q-16 0 -28 -6q-37 -14 -43 -14q-29 0 -49.5 19.5t-20.5 49.5q0 13 7.5 30t17.5 24l-5 -5q28 25 68 61t68 62h-234q-29 0 -44 19t-15 45 q0 27 15 46t44 19h379q29 0 48.5 -20t19.5 -49q0 -31 -23 -54l-121 -118q74 -18 117 -83.5t43 -146.5q0 -110 -75.5 -189t-190.5 -79q-111 0 -187 49t-92 158zM317 209q0 3 1.5 6t3.5 8l4 10l755 975q26 33 64 23q27 -6 44 -29t13 -51l-2 -6l-8 -21l-756 -974 q-13 -18 -33.5 -24t-37.5 -1q-25 5 -40 30t-8 54zM737 219q0 23 15 47l239 445q14 26 45 26q24 0 44 -20.5t20 -48.5q0 -21 -6 -29l-193 -358h240v395q0 28 17.5 46.5t47.5 18.5q28 0 46 -18.5t18 -46.5v-621q0 -27 -19.5 -44t-44.5 -17q-27 0 -46 17t-19 44v97h-326 q-37 0 -57.5 18t-20.5 49z" />
<glyph unicode="&#xbf;" horiz-adv-x="1130" d="M92 117q0 240 279 383q35 18 49.5 26t41 25.5t38.5 30.5t22 32.5t10 40.5v31q0 43 31.5 67.5t71.5 24.5q42 0 73 -24.5t31 -67.5v-33q0 -53 -16 -97.5t-37.5 -74t-60.5 -58t-67 -43.5t-75 -38q-186 -89 -186 -219q0 -61 26 -108.5t68.5 -74.5t91.5 -41t101 -14 q56 0 108.5 14.5t102 52.5t71.5 95q12 26 36 42.5t50 16.5q41 0 74 -26t33 -68q0 -31 -13.5 -69t-49 -83t-87.5 -81.5t-137.5 -61t-189.5 -24.5q-70 0 -138.5 15.5t-132 49.5t-112.5 82.5t-78 120t-29 156.5zM532 924v26q0 44 30.5 69t70.5 25q42 0 74 -25.5t32 -68.5v-26 q0 -44 -31.5 -70.5t-72.5 -26.5q-42 0 -72.5 25t-30.5 72z" />
<glyph unicode="&#xc0;" horiz-adv-x="1468" d="M41 82q0 26 10 43l588 1147q27 55 96 55q28 0 53.5 -14.5t38.5 -40.5l586 -1143q14 -28 14 -53q0 -40 -31.5 -64t-74.5 -24q-28 0 -53.5 14.5t-38.5 40.5l-144 287h-700l-145 -289q-27 -53 -88 -53q-44 0 -77.5 27.5t-33.5 66.5zM477 516h516l-258 516zM542 1634 q0 39 33 67.5t74 28.5q56 0 84 -43l141 -182q17 -23 17 -51q0 -37 -26 -64.5t-64 -27.5q-48 0 -72 30l-160 176q-23 25 -27 66z" />
<glyph unicode="&#xc1;" horiz-adv-x="1468" d="M41 82q0 26 10 43l588 1147q27 55 96 55q28 0 53.5 -14.5t38.5 -40.5l586 -1143q14 -28 14 -53q0 -40 -31.5 -64t-74.5 -24q-28 0 -53.5 14.5t-38.5 40.5l-144 287h-700l-145 -289q-27 -53 -88 -53q-44 0 -77.5 27.5t-33.5 66.5zM477 516h516l-258 516zM561 1452 q0 23 15 47l143 174q41 47 86 47q40 0 70.5 -27.5t30.5 -64.5q0 -34 -27 -64l-158 -170q-30 -32 -71 -32q-36 0 -62.5 27t-26.5 63z" />
<glyph unicode="&#xc2;" horiz-adv-x="1468" d="M41 82q0 26 10 43l588 1147q27 55 96 55q28 0 53.5 -14.5t38.5 -40.5l586 -1143q14 -28 14 -53q0 -40 -31.5 -64t-74.5 -24q-28 0 -53.5 14.5t-38.5 40.5l-144 287h-700l-145 -289q-27 -53 -88 -53q-44 0 -77.5 27.5t-33.5 66.5zM477 516h516l-258 516zM491 1458 q0 25 17 39l151 141q32 30 74 33q42 -3 74 -33l151 -141q17 -14 17 -39q0 -48 -30.5 -72t-70.5 -24q-16 0 -29.5 6t-20.5 11t-23 19l-66 68l-69 -68q-22 -21 -37.5 -28.5t-36.5 -7.5q-40 0 -70.5 24t-30.5 72z" />
<glyph unicode="&#xc3;" horiz-adv-x="1468" d="M41 82q0 26 10 43l588 1147q27 55 96 55q28 0 53.5 -14.5t38.5 -40.5l586 -1143q14 -28 14 -53q0 -40 -31.5 -64t-74.5 -24q-28 0 -53.5 14.5t-38.5 40.5l-144 287h-700l-145 -289q-27 -53 -88 -53q-44 0 -77.5 27.5t-33.5 66.5zM434 1442q0 70 60 117t133 47 q42 0 82.5 -17.5t72 -35t52.5 -17.5q15 0 29 17.5t32.5 35t44.5 17.5q36 0 64 -22t28 -58q0 -70 -59.5 -117t-132.5 -47q-41 0 -81.5 17.5t-72 35t-51.5 17.5q-16 0 -30.5 -17.5t-33.5 -35t-45 -17.5q-36 0 -64 22t-28 58zM477 516h516l-258 516z" />
<glyph unicode="&#xc4;" horiz-adv-x="1468" d="M41 82q0 26 10 43l588 1147q27 55 96 55q28 0 53.5 -14.5t38.5 -40.5l586 -1143q14 -28 14 -53q0 -40 -31.5 -64t-74.5 -24q-28 0 -53.5 14.5t-38.5 40.5l-144 287h-700l-145 -289q-27 -53 -88 -53q-44 0 -77.5 27.5t-33.5 66.5zM423 1474q0 46 33.5 79.5t79.5 33.5 t79.5 -33.5t33.5 -79.5t-33.5 -79t-79.5 -33t-79.5 33t-33.5 79zM477 516h516l-258 516zM817 1474q0 46 33 79.5t79 33.5t79.5 -33.5t33.5 -79.5t-33.5 -79t-79.5 -33t-79 33t-33 79z" />
<glyph unicode="&#xc5;" horiz-adv-x="1468" d="M41 82q0 26 10 43l588 1147q27 55 96 55q28 0 53.5 -14.5t38.5 -40.5l586 -1143q14 -28 14 -53q0 -40 -31.5 -64t-74.5 -24q-28 0 -53.5 14.5t-38.5 40.5l-144 287h-700l-145 -289q-27 -53 -88 -53q-44 0 -77.5 27.5t-33.5 66.5zM477 516h516l-258 516zM535 1528 q0 83 57.5 140.5t140.5 57.5t141 -57.5t58 -140.5t-58 -141t-141 -58t-140.5 58t-57.5 141zM662 1528q0 -29 21 -50.5t50 -21.5t50.5 21.5t21.5 50.5t-21.5 50t-50.5 21t-50 -21t-21 -50z" />
<glyph unicode="&#xc6;" horiz-adv-x="2084" d="M0 82q0 30 25 61l893 1114q36 46 86 46h813q44 0 68 -27.5t24 -65.5q0 -39 -26 -67.5t-68 -28.5h-687v-371h650q45 0 71.5 -29t26.5 -67q0 -39 -25 -66.5t-73 -27.5h-650v-360h687q42 0 67 -30t25 -69t-25 -66.5t-67 -27.5h-768q-53 0 -88 34.5t-35 82.5v219h-498 l-240 -305q-35 -43 -82 -43q-40 0 -72 28t-32 66zM571 520h353v447z" />
<glyph unicode="&#xc7;" horiz-adv-x="1392" d="M92 651q0 194 87 349t238 241t337 86q149 0 281.5 -49t228.5 -150q28 -32 28 -67q0 -38 -32.5 -67t-73.5 -29q-44 0 -72 32q-133 138 -360 138q-95 0 -178.5 -34.5t-144 -96.5t-95.5 -153.5t-35 -199.5q0 -216 129 -349.5t324 -133.5q107 0 211.5 49t162.5 133 q25 37 74 37q41 0 75 -27.5t34 -66.5q0 -31 -19 -55q-86 -123 -232.5 -193t-305.5 -70q-186 0 -337 86t-238 241t-87 349zM526 -270q0 32 22 50.5t56 18.5q23 0 42.5 -13t32.5 -28.5t35.5 -29.5t49.5 -15q33 -2 54.5 10t21.5 35q0 29 -27 43.5t-65 14.5q-29 0 -47 -6l-70 49 l51 141h137l-24 -68q85 -1 135.5 -50t50.5 -128q0 -84 -67 -131t-160 -47q-52 0 -102.5 16.5t-88 53t-37.5 84.5z" />
<glyph unicode="&#xc8;" horiz-adv-x="1288" d="M154 117v1069q0 49 32.5 83t87.5 34h826q44 0 68 -27.5t24 -65.5t-25.5 -67t-68.5 -29h-736v-375h699q42 0 67 -28t25 -66t-23.5 -65t-68.5 -27h-699v-360h736q45 0 71.5 -30.5t26.5 -70.5q0 -38 -25 -65t-73 -27h-824q-55 0 -87.5 34t-32.5 83zM469 1634q0 39 32.5 68 t73.5 29q56 0 84 -43l142 -183q16 -21 16 -51q0 -37 -26 -64.5t-64 -27.5q-47 0 -72 31l-159 176q-23 26 -27 65z" />
<glyph unicode="&#xc9;" horiz-adv-x="1288" d="M154 117v1069q0 49 32.5 83t87.5 34h826q44 0 68 -27.5t24 -65.5t-25.5 -67t-68.5 -29h-736v-375h699q42 0 67 -28t25 -66t-23.5 -65t-68.5 -27h-699v-360h736q45 0 71.5 -30.5t26.5 -70.5q0 -38 -25 -65t-73 -27h-824q-55 0 -87.5 34t-32.5 83zM532 1452q0 23 15 47 l143 174q41 47 86 47q40 0 70.5 -27.5t30.5 -64.5q0 -34 -27 -64l-158 -170q-30 -32 -71 -32q-36 0 -62.5 27t-26.5 63z" />
<glyph unicode="&#xca;" horiz-adv-x="1288" d="M154 117v1069q0 49 32.5 83t87.5 34h826q44 0 68 -27.5t24 -65.5t-25.5 -67t-68.5 -29h-736v-375h699q42 0 67 -28t25 -66t-23.5 -65t-68.5 -27h-699v-360h736q45 0 71.5 -30.5t26.5 -70.5q0 -38 -25 -65t-73 -27h-824q-55 0 -87.5 34t-32.5 83zM401 1458q0 25 17 39 l151 141q32 30 74 33q42 -3 74 -33l151 -141q17 -14 17 -39q0 -48 -30.5 -72t-70.5 -24q-15 0 -29.5 6.5t-20.5 11t-23 19.5l-66 67l-70 -67q-23 -21 -37.5 -29t-35.5 -8q-40 0 -70.5 24t-30.5 72z" />
<glyph unicode="&#xcb;" horiz-adv-x="1288" d="M154 117v1069q0 49 32.5 83t87.5 34h826q44 0 68 -27.5t24 -65.5t-25.5 -67t-68.5 -29h-736v-375h699q42 0 67 -28t25 -66t-23.5 -65t-68.5 -27h-699v-360h736q45 0 71.5 -30.5t26.5 -70.5q0 -38 -25 -65t-73 -27h-824q-55 0 -87.5 34t-32.5 83zM374 1474q0 46 33.5 79.5 t79.5 33.5t79.5 -33.5t33.5 -79.5t-33.5 -79t-79.5 -33t-79.5 33t-33.5 79zM768 1474q0 46 33 79.5t79 33.5t79.5 -33.5t33.5 -79.5t-33.5 -79t-79.5 -33t-79 33t-33 79z" />
<glyph unicode="&#xcc;" horiz-adv-x="516" d="M84 1634q0 39 32.5 68t73.5 29q56 0 84 -43l142 -183q16 -21 16 -51q0 -37 -26 -64.5t-64 -27.5q-47 0 -72 31l-159 176q-23 26 -27 65zM154 88v1122q0 50 30.5 77.5t73.5 27.5t73.5 -27.5t30.5 -77.5v-1122q0 -47 -30.5 -73.5t-73.5 -26.5t-73.5 26t-30.5 74z" />
<glyph unicode="&#xcd;" horiz-adv-x="516" d="M86 1452q0 23 15 47l143 174q41 47 86 47q40 0 70.5 -27.5t30.5 -64.5q0 -34 -27 -64l-158 -170q-30 -32 -71 -32q-36 0 -62.5 27t-26.5 63zM154 88v1122q0 50 30.5 77.5t73.5 27.5t73.5 -27.5t30.5 -77.5v-1122q0 -47 -30.5 -73.5t-73.5 -26.5t-73.5 26t-30.5 74z" />
<glyph unicode="&#xce;" horiz-adv-x="516" d="M16 1458q0 25 17 39l151 141q32 30 74 33q42 -3 74 -33l151 -141q17 -14 17 -39q0 -48 -30.5 -72t-70.5 -24q-15 0 -29.5 6.5t-20.5 11t-23 19.5l-66 67l-70 -67q-23 -21 -37.5 -29t-35.5 -8q-40 0 -70.5 24t-30.5 72zM154 88v1122q0 50 30.5 77.5t73.5 27.5t73.5 -27.5 t30.5 -77.5v-1122q0 -47 -30.5 -73.5t-73.5 -26.5t-73.5 26t-30.5 74z" />
<glyph unicode="&#xcf;" horiz-adv-x="516" d="M-52 1474q0 46 33.5 79.5t79.5 33.5t79.5 -33.5t33.5 -79.5t-33.5 -79t-79.5 -33t-79.5 33t-33.5 79zM154 88v1122q0 50 30.5 77.5t73.5 27.5t73.5 -27.5t30.5 -77.5v-1122q0 -47 -30.5 -73.5t-73.5 -26.5t-73.5 26t-30.5 74zM342 1474q0 46 33 79.5t79 33.5t79.5 -33.5 t33.5 -79.5t-33.5 -79t-79.5 -33t-79 33t-33 79z" />
<glyph unicode="&#xd0;" horiz-adv-x="1409" d="M20 649q0 36 27.5 63t75.5 27h31v449q0 47 35.5 81t86.5 34h426q120 0 221.5 -36t173 -98t122 -145.5t74.5 -177t24 -193.5q0 -99 -24 -193t-74.5 -177.5t-121.5 -146.5t-173 -99.5t-222 -36.5h-426q-50 0 -86 34.5t-36 80.5v444h-31q-48 0 -75.5 27t-27.5 63zM360 193 h342q98 0 178 39.5t129.5 105t76 146.5t26.5 169t-26.5 169.5t-76 147t-129.5 105t-178 39.5h-342v-375h121q47 0 72 -26.5t25 -63.5t-25 -63.5t-72 -26.5h-121v-366z" />
<glyph unicode="&#xd1;" horiz-adv-x="1411" d="M154 92v1106q0 56 32 86.5t78 30.5q70 0 121 -68l676 -905l-12 193v679q0 42 32.5 71.5t71.5 29.5t71.5 -29.5t32.5 -71.5v-1110q0 -56 -35 -86t-85 -30q-31 0 -61.5 15.5t-49.5 41.5l-674 899q8 -115 10 -166v-686q0 -50 -30 -77t-72 -27q-43 0 -74.5 27t-31.5 77z M405 1441q0 70 60 117t133 47q42 0 82.5 -17.5t72 -34.5t52.5 -17q12 0 23.5 11t20.5 23.5t25 23.5t37 11q36 0 64 -22t28 -58q0 -70 -59.5 -116.5t-132.5 -46.5q-41 0 -81.5 17t-72 34.5t-51.5 17.5q-16 0 -30.5 -17.5t-33 -34.5t-44.5 -17q-37 0 -65 21.5t-28 57.5z" />
<glyph unicode="&#xd2;" horiz-adv-x="1507" d="M92 651q0 194 87 349t238 241t337 86q139 0 261 -50.5t210 -139t139 -214.5t51 -272t-51 -272t-139 -214.5t-210 -139t-261 -50.5q-186 0 -337 86t-238 241t-87 349zM301 651q0 -216 129 -349.5t324 -133.5t323.5 133.5t128.5 349.5q0 218 -128 351t-324 133 q-95 0 -178.5 -34.5t-144 -96.5t-95.5 -153.5t-35 -199.5zM579 1634q0 39 33 67.5t74 28.5q56 0 84 -43l141 -182q17 -23 17 -51q0 -37 -26 -64.5t-64 -27.5q-48 0 -72 30l-160 176q-23 25 -27 66z" />
<glyph unicode="&#xd3;" horiz-adv-x="1507" d="M92 651q0 194 87 349t238 241t337 86q139 0 261 -50.5t210 -139t139 -214.5t51 -272t-51 -272t-139 -214.5t-210 -139t-261 -50.5q-186 0 -337 86t-238 241t-87 349zM301 651q0 -216 129 -349.5t324 -133.5t323.5 133.5t128.5 349.5q0 218 -128 351t-324 133 q-95 0 -178.5 -34.5t-144 -96.5t-95.5 -153.5t-35 -199.5zM581 1452q0 23 15 47l143 174q41 47 86 47q40 0 70.5 -27.5t30.5 -64.5q0 -34 -27 -64l-158 -170q-30 -32 -71 -32q-36 0 -62.5 27t-26.5 63z" />
<glyph unicode="&#xd4;" horiz-adv-x="1507" d="M92 651q0 194 87 349t238 241t337 86q139 0 261 -50.5t210 -139t139 -214.5t51 -272t-51 -272t-139 -214.5t-210 -139t-261 -50.5q-186 0 -337 86t-238 241t-87 349zM301 651q0 -216 129 -349.5t324 -133.5t323.5 133.5t128.5 349.5q0 218 -128 351t-324 133 q-95 0 -178.5 -34.5t-144 -96.5t-95.5 -153.5t-35 -199.5zM512 1458q0 26 16 39l152 141q32 30 74 33q41 -3 73 -33l152 -141q16 -13 16 -39q0 -48 -30 -72t-70 -24q-15 0 -29.5 6t-21.5 11.5t-23 19.5l-65 67l-70 -67q-23 -21 -38 -29t-36 -8q-40 0 -70 24t-30 72z" />
<glyph unicode="&#xd5;" horiz-adv-x="1507" d="M92 651q0 194 87 349t238 241t337 86q139 0 261 -50.5t210 -139t139 -214.5t51 -272t-51 -272t-139 -214.5t-210 -139t-261 -50.5q-186 0 -337 86t-238 241t-87 349zM301 651q0 -216 129 -349.5t324 -133.5t323.5 133.5t128.5 349.5q0 218 -128 351t-324 133 q-95 0 -178.5 -34.5t-144 -96.5t-95.5 -153.5t-35 -199.5zM454 1441q0 70 60 117t133 47q42 0 82.5 -17.5t72 -34.5t52.5 -17q12 0 23.5 11t20.5 23.5t25 23.5t37 11q36 0 64 -22t28 -58q0 -70 -59.5 -116.5t-132.5 -46.5q-41 0 -81.5 17t-72 34.5t-51.5 17.5 q-16 0 -30.5 -17.5t-33 -34.5t-44.5 -17q-37 0 -65 21.5t-28 57.5z" />
<glyph unicode="&#xd6;" horiz-adv-x="1507" d="M92 651q0 194 87 349t238 241t337 86q139 0 261 -50.5t210 -139t139 -214.5t51 -272t-51 -272t-139 -214.5t-210 -139t-261 -50.5q-186 0 -337 86t-238 241t-87 349zM301 651q0 -216 129 -349.5t324 -133.5t323.5 133.5t128.5 349.5q0 218 -128 351t-324 133 q-95 0 -178.5 -34.5t-144 -96.5t-95.5 -153.5t-35 -199.5zM444 1474q0 46 33.5 79.5t79.5 33.5t79.5 -33.5t33.5 -79.5t-33.5 -79t-79.5 -33t-79.5 33t-33.5 79zM838 1474q0 46 33 79.5t79 33.5t79.5 -33.5t33.5 -79.5t-33.5 -79t-79.5 -33t-79 33t-33 79z" />
<glyph unicode="&#xd7;" horiz-adv-x="890" d="M92.5 719.5q-0.5 38.5 32.5 73.5q31 31 71.5 31t69.5 -29l183 -183l180 181q37 33 74 31.5t65 -29.5q27 -27 29 -63.5t-31 -74.5l-182 -182l182 -182q32 -33 31.5 -71.5t-31.5 -69.5q-34 -33 -71 -33t-70 33l-183 182l-182 -182q-30 -29 -69.5 -28.5t-67.5 28.5 q-31 33 -29.5 70t31.5 67l180 180l-182 182q-30 30 -30.5 68.5z" />
<glyph unicode="&#xd8;" horiz-adv-x="1513" d="M92 651q0 194 87 349t238 241t337 86q241 0 422 -145l98 96q33 33 78 20q34 -9 54 -39.5t11 -64.5q-11 -28 -24 -37l-103 -100q125 -178 125 -406q0 -146 -51 -272t-139 -214.5t-210 -139t-261 -50.5q-243 0 -422 146l-96 -94q-40 -37 -84 -25q-32 9 -49 40t-7 64 q7 25 23 41l98 97q-125 173 -125 407zM301 651q0 -134 56 -244t160.5 -175.5t236.5 -65.5t236 65.5t160 175.5t56 244t-56 244.5t-160 176t-236 65.5t-236.5 -65.5t-160.5 -176t-56 -244.5z" />
<glyph unicode="&#xd9;" horiz-adv-x="1523" d="M154 573v648q0 45 29.5 69.5t72.5 24.5q44 0 75 -24.5t31 -71.5v-646q0 -95 34 -173.5t90.5 -128t128 -76.5t147.5 -27t146.5 27t127.5 76.5t91 128t34 173.5v639q0 49 32 76t75 27q42 0 72 -26.5t30 -74.5v-641q0 -116 -34.5 -214.5t-93 -168t-136.5 -119t-165.5 -73 t-178.5 -23.5t-178.5 23.5t-165.5 73t-136.5 119t-93 168t-34.5 214.5zM587 1634q0 39 33 67.5t74 28.5q56 0 84 -43l141 -182q17 -23 17 -51q0 -37 -26 -64.5t-64 -27.5q-48 0 -72 30l-160 176q-23 25 -27 66z" />
<glyph unicode="&#xda;" horiz-adv-x="1523" d="M154 573v648q0 45 29.5 69.5t72.5 24.5q44 0 75 -24.5t31 -71.5v-646q0 -95 34 -173.5t90.5 -128t128 -76.5t147.5 -27t146.5 27t127.5 76.5t91 128t34 173.5v639q0 49 32 76t75 27q42 0 72 -26.5t30 -74.5v-641q0 -116 -34.5 -214.5t-93 -168t-136.5 -119t-165.5 -73 t-178.5 -23.5t-178.5 23.5t-165.5 73t-136.5 119t-93 168t-34.5 214.5zM589 1452q0 23 15 47l143 174q41 47 86 47q40 0 70.5 -27.5t30.5 -64.5q0 -34 -27 -64l-158 -170q-30 -32 -71 -32q-36 0 -62.5 27t-26.5 63z" />
<glyph unicode="&#xdb;" horiz-adv-x="1523" d="M154 573v648q0 45 29.5 69.5t72.5 24.5q44 0 75 -24.5t31 -71.5v-646q0 -95 34 -173.5t90.5 -128t128 -76.5t147.5 -27t146.5 27t127.5 76.5t91 128t34 173.5v639q0 49 32 76t75 27q42 0 72 -26.5t30 -74.5v-641q0 -116 -34.5 -214.5t-93 -168t-136.5 -119t-165.5 -73 t-178.5 -23.5t-178.5 23.5t-165.5 73t-136.5 119t-93 168t-34.5 214.5zM520 1458q0 25 17 39l151 141q32 30 74 33q42 -3 74 -33l151 -141q17 -14 17 -39q0 -48 -30.5 -72t-70.5 -24q-15 0 -29.5 6t-21.5 11.5t-23 19.5l-65 67l-70 -67q-23 -21 -37.5 -29t-35.5 -8 q-40 0 -70.5 24t-30.5 72z" />
<glyph unicode="&#xdc;" horiz-adv-x="1523" d="M154 573v648q0 45 29.5 69.5t72.5 24.5q44 0 75 -24.5t31 -71.5v-646q0 -95 34 -173.5t90.5 -128t128 -76.5t147.5 -27t146.5 27t127.5 76.5t91 128t34 173.5v639q0 49 32 76t75 27q42 0 72 -26.5t30 -74.5v-641q0 -116 -34.5 -214.5t-93 -168t-136.5 -119t-165.5 -73 t-178.5 -23.5t-178.5 23.5t-165.5 73t-136.5 119t-93 168t-34.5 214.5zM453 1475q0 46 33 79t79 33t79.5 -33t33.5 -79t-33.5 -79.5t-79.5 -33.5t-79 33.5t-33 79.5zM846 1475q0 46 33 79t79 33t79.5 -33t33.5 -79t-33.5 -79.5t-79.5 -33.5t-79 33.5t-33 79.5z" />
<glyph unicode="&#xdd;" horiz-adv-x="1290" d="M41 1221q0 39 33.5 66.5t77.5 27.5q52 0 88 -47q83 -111 405 -557l416 557q35 47 86 47q41 0 71.5 -26.5t30.5 -65.5q-5 -43 -20 -62l-475 -639v-430q0 -50 -33.5 -77t-73.5 -27q-44 0 -73 26.5t-29 77.5v430l-479 637q-25 31 -25 62zM557 1452q0 23 15 47l143 174 q41 47 86 47q40 0 70.5 -27.5t30.5 -64.5q0 -34 -27 -64l-158 -170q-30 -32 -71 -32q-36 0 -62.5 27t-26.5 63z" />
<glyph unicode="&#xde;" horiz-adv-x="1339" d="M154 92v1127q0 45 29.5 70.5t70.5 25.5q42 0 72 -25.5t30 -72.5v-89h318q105 0 194.5 -27t152.5 -73.5t108 -108t66.5 -131.5t21.5 -143q0 -96 -34 -179t-99 -147t-170 -100.5t-238 -36.5h-320v-88q0 -51 -30 -77.5t-72 -26.5t-71 26.5t-29 75.5zM356 377h320 q171 0 252.5 73t81.5 195q0 56 -19.5 106.5t-58 92t-104.5 66t-152 24.5h-320v-557z" />
<glyph unicode="&#xdf;" horiz-adv-x="1136" d="M143 -274v1255q0 83 25 147.5t65 103.5t95 64t108.5 34t112.5 9q60 0 115.5 -9.5t112 -35t97.5 -64.5t67 -103t26 -146q0 -68 -34.5 -142.5t-88.5 -117.5q100 -39 155.5 -129t55.5 -203q0 -89 -28.5 -158t-75 -112t-112.5 -70.5t-135.5 -38t-150.5 -10.5h-27 q-46 0 -70 27t-24 65q0 39 24.5 66.5t69.5 27.5h27q299 0 299 203q0 95 -75.5 153t-188.5 58h-66q-42 0 -65 28t-23 66q0 41 25.5 69t75.5 28q97 0 164 52t67 138q0 47 -20.5 82.5t-54.5 54t-70 27t-74 8.5q-37 0 -70.5 -8.5t-64 -26.5t-48.5 -53.5t-18 -83.5v-1255 q0 -44 -31 -69.5t-71 -25.5q-41 0 -71 25t-30 70z" />
<glyph unicode="&#xe0;" d="M92 516q0 238 151.5 390.5t381.5 152.5q148 0 270 -103q3 39 30 63.5t70 24.5q46 0 74.5 -28t28.5 -72v-856q0 -45 -28.5 -72.5t-74.5 -27.5q-47 0 -73.5 28t-26.5 74q-56 -55 -127.5 -85t-142.5 -30q-229 0 -381 152t-152 389zM293 516q0 -157 93 -255.5t237 -98.5 q121 0 196.5 76t75.5 204v150q0 136 -74 208t-196 72q-144 0 -238 -99.5t-94 -256.5zM446 1407q0 39 33 67.5t74 28.5q56 0 84 -43l141 -182q17 -23 17 -51q0 -37 -26 -64.5t-64 -27.5q-48 0 -72 30l-160 176q-23 25 -27 66z" />
<glyph unicode="&#xe1;" d="M92 516q0 238 151.5 390.5t381.5 152.5q148 0 270 -103q3 39 30 63.5t70 24.5q46 0 74.5 -28t28.5 -72v-856q0 -45 -28.5 -72.5t-74.5 -27.5q-47 0 -73.5 28t-26.5 74q-56 -55 -127.5 -85t-142.5 -30q-229 0 -381 152t-152 389zM293 516q0 -157 93 -255.5t237 -98.5 q121 0 196.5 76t75.5 204v150q0 136 -74 208t-196 72q-144 0 -238 -99.5t-94 -256.5zM448 1225q0 23 15 47l143 174q41 47 86 47q40 0 70.5 -27.5t30.5 -64.5q0 -34 -27 -64l-158 -170q-30 -32 -71 -32q-36 0 -62.5 27t-26.5 63z" />
<glyph unicode="&#xe2;" d="M92 516q0 238 151.5 390.5t381.5 152.5q148 0 270 -103q3 39 30 63.5t70 24.5q46 0 74.5 -28t28.5 -72v-856q0 -45 -28.5 -72.5t-74.5 -27.5q-47 0 -73.5 28t-26.5 74q-56 -55 -127.5 -85t-142.5 -30q-229 0 -381 152t-152 389zM293 516q0 -157 93 -255.5t237 -98.5 q121 0 196.5 76t75.5 204v150q0 136 -74 208t-196 72q-144 0 -238 -99.5t-94 -256.5zM378 1231q0 25 17 39l151 141q32 30 74 33q42 -3 74 -33l151 -141q17 -14 17 -39q0 -48 -30.5 -72t-70.5 -24q-16 0 -29.5 6t-20.5 11t-23 19l-66 68l-69 -68q-22 -21 -37.5 -28.5 t-36.5 -7.5q-40 0 -70.5 24t-30.5 72z" />
<glyph unicode="&#xe3;" d="M92 516q0 238 151.5 390.5t381.5 152.5q148 0 270 -103q3 39 30 63.5t70 24.5q46 0 74.5 -28t28.5 -72v-856q0 -45 -28.5 -72.5t-74.5 -27.5q-47 0 -73.5 28t-26.5 74q-56 -55 -127.5 -85t-142.5 -30q-229 0 -381 152t-152 389zM293 516q0 -157 93 -255.5t237 -98.5 q121 0 196.5 76t75.5 204v150q0 136 -74 208t-196 72q-144 0 -238 -99.5t-94 -256.5zM321 1214q0 70 60 117t133 47q42 0 82.5 -17t72 -34.5t52.5 -17.5q15 0 29 17.5t32.5 34.5t44.5 17q36 0 64 -22t28 -58q0 -70 -59.5 -116.5t-132.5 -46.5q-41 0 -81.5 17.5t-72 34.5 t-51.5 17q-13 0 -25 -11t-20.5 -23.5t-25 -23.5t-37.5 -11q-37 0 -65 21.5t-28 57.5z" />
<glyph unicode="&#xe4;" d="M92 516q0 238 151.5 390.5t381.5 152.5q148 0 270 -103q3 39 30 63.5t70 24.5q46 0 74.5 -28t28.5 -72v-856q0 -45 -28.5 -72.5t-74.5 -27.5q-47 0 -73.5 28t-26.5 74q-56 -55 -127.5 -85t-142.5 -30q-229 0 -381 152t-152 389zM293 516q0 -157 93 -255.5t237 -98.5 q121 0 196.5 76t75.5 204v150q0 136 -74 208t-196 72q-144 0 -238 -99.5t-94 -256.5zM311 1247q0 46 33.5 79.5t79.5 33.5t79.5 -33.5t33.5 -79.5t-33.5 -79t-79.5 -33t-79.5 33t-33.5 79zM705 1247q0 46 33 79.5t79 33.5t79.5 -33.5t33.5 -79.5t-33.5 -79t-79.5 -33t-79 33 t-33 79z" />
<glyph unicode="&#xe5;" d="M92 516q0 238 151.5 390.5t381.5 152.5q148 0 270 -103q3 39 30 63.5t70 24.5q46 0 74.5 -28t28.5 -72v-856q0 -45 -28.5 -72.5t-74.5 -27.5q-47 0 -73.5 28t-26.5 74q-56 -55 -127.5 -85t-142.5 -30q-229 0 -381 152t-152 389zM293 516q0 -157 93 -255.5t237 -98.5 q121 0 196.5 76t75.5 204v150q0 136 -74 208t-196 72q-144 0 -238 -99.5t-94 -256.5zM422 1313q0 83 58 140.5t141 57.5t140.5 -57.5t57.5 -140.5t-57.5 -141t-140.5 -58t-141 58t-58 141zM549 1313q0 -29 21.5 -50.5t50.5 -21.5t50 21.5t21 50.5t-21 50t-50 21t-50.5 -21 t-21.5 -50z" />
<glyph unicode="&#xe6;" horiz-adv-x="2035" d="M92 516q0 238 151.5 390.5t381.5 152.5q148 0 270 -103q3 39 30 63.5t70 24.5t71.5 -25.5t31.5 -66.5q138 107 329 107q212 0 359.5 -134.5t167.5 -369.5v-12q0 -42 -27.5 -71.5t-89.5 -33.5l-719 -57q34 -99 115 -162t190 -63q151 0 263 100q43 37 79 37 q39 0 62.5 -20.5t23.5 -59.5q0 -37 -35 -78.5t-91.5 -77t-137 -59t-162.5 -23.5q-189 0 -327 107q-1 -43 -29.5 -68.5t-73.5 -25.5q-47 0 -73.5 28t-26.5 74q-56 -55 -127.5 -85t-142.5 -30q-229 0 -381 152t-152 389zM293 516q0 -157 93 -255.5t237 -98.5q121 0 196.5 76 t75.5 204v150q0 136 -74 208t-196 72q-144 0 -238 -99.5t-94 -256.5zM1100 559l657 53q-26 119 -115 190.5t-208 71.5q-141 0 -233 -87.5t-101 -227.5z" />
<glyph unicode="&#xe7;" horiz-adv-x="1120" d="M92 516q0 238 151.5 390.5t381.5 152.5q252 0 383 -174q30 -43 30 -80q0 -38 -26 -62t-64 -24q-51 0 -88 45q-97 108 -235 108q-144 0 -238 -99.5t-94 -256.5t93.5 -255.5t236.5 -98.5q149 0 247 104q27 31 66 31t67.5 -33.5t28.5 -73.5q0 -27 -14 -47q-65 -84 -171 -126 t-222 -42q-229 0 -381 152t-152 389zM409 -270q0 32 22 50.5t56 18.5q23 0 42.5 -13t32.5 -28.5t35.5 -29.5t49.5 -15q33 -2 54.5 10t21.5 35q0 29 -27 43.5t-65 14.5q-29 0 -47 -6l-70 49l51 141h137l-24 -68q85 -1 135.5 -50t50.5 -128q0 -84 -67 -131t-160 -47 q-52 0 -102.5 16.5t-88 53t-37.5 84.5z" />
<glyph unicode="&#xe8;" horiz-adv-x="1230" d="M92 530q0 147 67 268t189 191t275 70q212 0 359 -134.5t167 -369.5v-12q0 -42 -27.5 -71.5t-89.5 -33.5l-719 -57q34 -99 115 -162t190 -63q151 0 263 100q43 37 80 37q39 0 62.5 -20.5t23.5 -59.5q0 -37 -35 -78.5t-91.5 -77t-137 -59t-162.5 -23.5q-230 0 -379.5 153.5 t-149.5 401.5zM295 559l657 53q-26 119 -115 190.5t-208 71.5q-141 0 -233 -87.5t-101 -227.5zM440 1407q0 39 33 67.5t74 28.5q56 0 84 -43l141 -182q16 -21 16 -51q0 -37 -26 -64.5t-64 -27.5q-47 0 -71 30l-160 176q-23 25 -27 66z" />
<glyph unicode="&#xe9;" horiz-adv-x="1230" d="M92 530q0 147 67 268t189 191t275 70q212 0 359 -134.5t167 -369.5v-12q0 -42 -27.5 -71.5t-89.5 -33.5l-719 -57q34 -99 115 -162t190 -63q151 0 263 100q43 37 80 37q39 0 62.5 -20.5t23.5 -59.5q0 -37 -35 -78.5t-91.5 -77t-137 -59t-162.5 -23.5q-230 0 -379.5 153.5 t-149.5 401.5zM295 559l657 53q-26 119 -115 190.5t-208 71.5q-141 0 -233 -87.5t-101 -227.5zM442 1225q0 23 15 47l143 174q41 47 86 47q40 0 70.5 -27.5t30.5 -64.5q0 -34 -27 -64l-158 -170q-30 -32 -71 -32q-36 0 -62.5 27t-26.5 63z" />
<glyph unicode="&#xea;" horiz-adv-x="1230" d="M92 530q0 147 67 268t189 191t275 70q212 0 359 -134.5t167 -369.5v-12q0 -42 -27.5 -71.5t-89.5 -33.5l-719 -57q34 -99 115 -162t190 -63q151 0 263 100q43 37 80 37q39 0 62.5 -20.5t23.5 -59.5q0 -37 -35 -78.5t-91.5 -77t-137 -59t-162.5 -23.5q-230 0 -379.5 153.5 t-149.5 401.5zM295 559l657 53q-26 119 -115 190.5t-208 71.5q-141 0 -233 -87.5t-101 -227.5zM372 1231q0 25 17 39l151 141q32 30 74 33q42 -3 74 -33l151 -141q17 -14 17 -39q0 -48 -30.5 -72t-70.5 -24q-16 0 -29.5 6t-20.5 11t-23 19l-66 68l-69 -68 q-22 -21 -37.5 -28.5t-36.5 -7.5q-40 0 -70.5 24t-30.5 72z" />
<glyph unicode="&#xeb;" horiz-adv-x="1230" d="M92 530q0 147 67 268t189 191t275 70q212 0 359 -134.5t167 -369.5v-12q0 -42 -27.5 -71.5t-89.5 -33.5l-719 -57q34 -99 115 -162t190 -63q151 0 263 100q43 37 80 37q39 0 62.5 -20.5t23.5 -59.5q0 -37 -35 -78.5t-91.5 -77t-137 -59t-162.5 -23.5q-230 0 -379.5 153.5 t-149.5 401.5zM295 559l657 53q-26 119 -115 190.5t-208 71.5q-141 0 -233 -87.5t-101 -227.5zM305 1247q0 46 33.5 79.5t79.5 33.5t79 -33.5t33 -79.5t-33 -79t-79 -33t-79.5 33t-33.5 79zM698 1247q0 46 33.5 79.5t79.5 33.5t79.5 -33.5t33.5 -79.5t-33.5 -79t-79.5 -33 t-79.5 33t-33.5 79z" />
<glyph unicode="&#xec;" horiz-adv-x="489" d="M70 1407q0 39 32.5 67.5t73.5 28.5q56 0 84 -43l141 -182q17 -23 17 -51q0 -37 -26 -64.5t-64 -27.5q-48 0 -72 30l-160 176q-22 24 -26 66zM143 84v864q0 40 29 68t74 28q41 0 70.5 -28t29.5 -68v-864q0 -40 -29.5 -68t-70.5 -28q-45 0 -74 28t-29 68z" />
<glyph unicode="&#xed;" horiz-adv-x="489" d="M71 1225q0 23 15 47l143 174q41 47 86 47q40 0 70.5 -27.5t30.5 -64.5q0 -34 -27 -64l-158 -170q-30 -32 -71 -32q-36 0 -62.5 27t-26.5 63zM143 84v864q0 40 29 68t74 28q41 0 70.5 -28t29.5 -68v-864q0 -40 -29.5 -68t-70.5 -28q-45 0 -74 28t-29 68z" />
<glyph unicode="&#xee;" horiz-adv-x="489" d="M4 1231q0 25 17 39l151 141q32 30 74 33q42 -3 74 -33l151 -141q17 -14 17 -39q0 -48 -30.5 -72t-70.5 -24q-16 0 -29.5 6t-20.5 11t-23 19l-66 68l-69 -68q-22 -21 -37.5 -28.5t-36.5 -7.5q-40 0 -70.5 24t-30.5 72zM143 84v864q0 40 29 68t74 28q41 0 70.5 -28 t29.5 -68v-864q0 -40 -29.5 -68t-70.5 -28q-45 0 -74 28t-29 68z" />
<glyph unicode="&#xef;" horiz-adv-x="489" d="M-63 1247q0 46 33 79.5t79 33.5t79.5 -33.5t33.5 -79.5t-33.5 -79t-79.5 -33t-79 33t-33 79zM143 84v864q0 40 29 68t74 28q41 0 70.5 -28t29.5 -68v-864q0 -40 -29.5 -68t-70.5 -28q-45 0 -74 28t-29 68zM330 1247q0 46 33 79.5t79 33.5t79.5 -33.5t33.5 -79.5 t-33.5 -79t-79.5 -33t-79 33t-33 79z" />
<glyph unicode="&#xf0;" horiz-adv-x="1228" d="M55 487q0 237 141 374.5t373 137.5q174 0 287 -110v2q0 51 -18 102t-45 74l-21 -25q-17 -20 -43 -20q-36 0 -69 31.5t-33 66.5q0 20 12 35l8 8q-58 15 -100 15q-70 0 -137 -25.5t-115 -73.5q-32 -32 -74 -32q-35 0 -61.5 26.5t-26.5 63.5q4 40 29 69q73 76 173 117 t202 41q133 0 245 -53l35 39q14 14 37 14q37 0 75 -32.5t38 -65.5q0 -17 -13 -33l-26 -27q63 -53 95 -137t32 -174v-479q0 -122 -63.5 -224t-170.5 -159.5t-233 -57.5q-113 -1 -211 34.5t-169.5 100.5t-112 162.5t-40.5 214.5zM256 487q0 -154 92.5 -240.5t237.5 -84.5 q108 0 189 73t81 181v143q0 107 -78.5 180.5t-204.5 73.5q-145 0 -231 -85.5t-86 -240.5z" />
<glyph unicode="&#xf1;" horiz-adv-x="1290" d="M143 86v473q0 218 145 359t357 141q138 0 252 -62t182 -177t68 -261v-473q0 -46 -26.5 -72t-73.5 -26q-46 0 -74.5 26.5t-28.5 71.5v477q0 131 -87.5 220t-211.5 89q-125 0 -212 -89t-87 -220v-477q0 -45 -28 -71.5t-74 -26.5q-47 0 -74 26t-27 72zM346 1214q0 70 60 117 t133 47q42 0 82.5 -17t72 -34.5t52.5 -17.5q15 0 29 17.5t32.5 34.5t44.5 17q36 0 64 -22t28 -58q0 -70 -59.5 -116.5t-132.5 -46.5q-41 0 -81.5 17.5t-72 34.5t-51.5 17q-13 0 -25 -11t-20.5 -23.5t-25 -23.5t-37.5 -11q-37 0 -65 21.5t-28 57.5z" />
<glyph unicode="&#xf2;" horiz-adv-x="1251" d="M92 516q0 238 151.5 390.5t381.5 152.5t382 -152.5t152 -390.5q0 -237 -151.5 -388t-382.5 -153q-150 -1 -271.5 67t-191.5 192.5t-70 281.5zM293 516q0 -157 94 -256.5t236 -97.5q146 2 240.5 99.5t94.5 254.5t-94.5 256.5t-238.5 99.5t-238 -99.5t-94 -256.5zM451 1407 q0 39 32.5 67.5t73.5 28.5q56 0 84 -43l141 -182q17 -23 17 -51q0 -37 -26 -64.5t-64 -27.5q-48 0 -72 30l-160 176q-22 24 -26 66z" />
<glyph unicode="&#xf3;" horiz-adv-x="1251" d="M92 516q0 238 151.5 390.5t381.5 152.5t382 -152.5t152 -390.5q0 -237 -151.5 -388t-382.5 -153q-150 -1 -271.5 67t-191.5 192.5t-70 281.5zM293 516q0 -157 94 -256.5t236 -97.5q146 2 240.5 99.5t94.5 254.5t-94.5 256.5t-238.5 99.5t-238 -99.5t-94 -256.5zM452 1225 q0 23 15 47l143 174q41 47 86 47q40 0 70.5 -27.5t30.5 -64.5q0 -34 -27 -64l-158 -170q-30 -32 -71 -32q-36 0 -62.5 27t-26.5 63z" />
<glyph unicode="&#xf4;" horiz-adv-x="1251" d="M92 516q0 238 151.5 390.5t381.5 152.5t382 -152.5t152 -390.5q0 -237 -151.5 -388t-382.5 -153q-150 -1 -271.5 67t-191.5 192.5t-70 281.5zM293 516q0 -157 94 -256.5t236 -97.5q146 2 240.5 99.5t94.5 254.5t-94.5 256.5t-238.5 99.5t-238 -99.5t-94 -256.5zM382 1231 q0 25 17 39l151 141q32 30 74 33q42 -3 74 -33l151 -141q17 -14 17 -39q0 -48 -30.5 -72t-70.5 -24q-16 0 -29.5 6t-20.5 11t-23 19l-66 68l-69 -68q-22 -21 -37.5 -28.5t-36.5 -7.5q-40 0 -70.5 24t-30.5 72z" />
<glyph unicode="&#xf5;" horiz-adv-x="1251" d="M92 516q0 238 151.5 390.5t381.5 152.5t382 -152.5t152 -390.5q0 -237 -151.5 -388t-382.5 -153q-150 -1 -271.5 67t-191.5 192.5t-70 281.5zM293 516q0 -157 94 -256.5t236 -97.5q146 2 240.5 99.5t94.5 254.5t-94.5 256.5t-238.5 99.5t-238 -99.5t-94 -256.5zM325 1214 q0 70 60 117t133 47q42 0 82.5 -17t72 -34.5t52.5 -17.5q15 0 29 17.5t32.5 34.5t44.5 17q36 0 64 -22t28 -58q0 -70 -59.5 -116.5t-132.5 -46.5q-41 0 -81.5 17.5t-72 34.5t-51.5 17q-13 0 -25 -11t-20.5 -23.5t-25 -23.5t-37.5 -11q-37 0 -65 21.5t-28 57.5z" />
<glyph unicode="&#xf6;" horiz-adv-x="1251" d="M92 516q0 238 151.5 390.5t381.5 152.5t382 -152.5t152 -390.5q0 -237 -151.5 -388t-382.5 -153q-150 -1 -271.5 67t-191.5 192.5t-70 281.5zM293 516q0 -157 94 -256.5t236 -97.5q146 2 240.5 99.5t94.5 254.5t-94.5 256.5t-238.5 99.5t-238 -99.5t-94 -256.5zM315 1247 q0 46 33.5 79.5t79.5 33.5t79.5 -33.5t33.5 -79.5t-33.5 -79t-79.5 -33t-79.5 33t-33.5 79zM709 1247q0 46 33 79.5t79 33.5t79.5 -33.5t33.5 -79.5t-33.5 -79t-79.5 -33t-79 33t-33 79z" />
<glyph unicode="&#xf7;" horiz-adv-x="1095" d="M92 440q0 45 28 71t70 26h713q48 0 74.5 -28.5t26.5 -68.5q0 -39 -26.5 -67.5t-74.5 -28.5h-713q-41 0 -69.5 28.5t-28.5 67.5zM432 111q0 49 33 79.5t84 30.5q52 0 83.5 -30t31.5 -80q0 -51 -31.5 -82t-83.5 -31q-51 0 -84 31t-33 82zM432 758q0 49 33 79.5t84 30.5 q52 0 83.5 -30t31.5 -80q0 -51 -31.5 -82t-83.5 -31q-51 0 -84 31t-33 82z" />
<glyph unicode="&#xf8;" horiz-adv-x="1255" d="M92 516q0 238 151.5 390.5t381.5 152.5q195 0 336 -113l49 47q41 41 86 29q33 -11 52.5 -41t10.5 -63q-6 -21 -24 -39l-60 -58q84 -136 84 -305q0 -237 -151.5 -388t-382.5 -153q-187 0 -322 101l-59 -58q-35 -32 -86 -20q-31 10 -51.5 39.5t-10.5 60.5q7 21 23 37l65 64 q-92 134 -92 317zM293 516q0 159 95.5 257.5t236.5 98.5t237 -98.5t96 -257.5t-95.5 -256.5t-237.5 -97.5t-237 97.5t-95 256.5z" />
<glyph unicode="&#xf9;" horiz-adv-x="1290" d="M143 475v471q0 46 27 72t74 26q46 0 74 -26.5t28 -71.5v-473q0 -131 87.5 -220t211.5 -89q125 0 212 89t87 220v473q0 45 28.5 71.5t74.5 26.5q47 0 73.5 -26t26.5 -72v-471q0 -218 -145 -359t-357 -141q-138 0 -252 62t-182 177t-68 261zM471 1407q0 39 33 67.5t74 28.5 q56 0 84 -43l141 -182q16 -21 16 -51q0 -37 -26 -64.5t-64 -27.5q-48 0 -72 30l-159 176q-23 25 -27 66z" />
<glyph unicode="&#xfa;" horiz-adv-x="1290" d="M143 475v471q0 46 27 72t74 26q46 0 74 -26.5t28 -71.5v-473q0 -131 87.5 -220t211.5 -89q125 0 212 89t87 220v473q0 45 28.5 71.5t74.5 26.5q47 0 73.5 -26t26.5 -72v-471q0 -218 -145 -359t-357 -141q-138 0 -252 62t-182 177t-68 261zM473 1225q0 23 15 47l143 174 q41 47 86 47q40 0 70.5 -27.5t30.5 -64.5q0 -34 -27 -64l-158 -170q-30 -32 -71 -32q-36 0 -62.5 27t-26.5 63z" />
<glyph unicode="&#xfb;" horiz-adv-x="1290" d="M143 475v471q0 46 27 72t74 26q46 0 74 -26.5t28 -71.5v-473q0 -131 87.5 -220t211.5 -89q125 0 212 89t87 220v473q0 45 28.5 71.5t74.5 26.5q47 0 73.5 -26t26.5 -72v-471q0 -218 -145 -359t-357 -141q-138 0 -252 62t-182 177t-68 261zM403 1231q0 25 17 39l151 141 q32 30 74 33q42 -3 74 -33l151 -141q17 -14 17 -39q0 -48 -30.5 -72t-70.5 -24q-16 0 -29.5 6t-20.5 11t-23 19l-66 68l-69 -68q-22 -21 -37.5 -28.5t-36.5 -7.5q-40 0 -70.5 24t-30.5 72z" />
<glyph unicode="&#xfc;" horiz-adv-x="1290" d="M143 475v471q0 46 27 72t74 26q46 0 74 -26.5t28 -71.5v-473q0 -131 87.5 -220t211.5 -89q125 0 212 89t87 220v473q0 45 28.5 71.5t74.5 26.5q47 0 73.5 -26t26.5 -72v-471q0 -218 -145 -359t-357 -141q-138 0 -252 62t-182 177t-68 261zM336 1247q0 46 33.5 79.5 t79.5 33.5t79 -33.5t33 -79.5t-33 -79t-79 -33t-79.5 33t-33.5 79zM729 1247q0 46 33.5 79.5t79.5 33.5t79 -33.5t33 -79.5t-33 -79t-79 -33t-79.5 33t-33.5 79z" />
<glyph unicode="&#xfd;" horiz-adv-x="1163" d="M51 944q0 40 35 70t76 30q26 0 50.5 -15t37.5 -42l340 -678q41 86 156.5 316t177.5 362q25 57 88 57q42 0 76 -23.5t34 -59.5q0 -25 -8 -41l-614 -1223q-34 -66 -99 -66q-40 0 -70 25.5t-30 64.5q0 24 12 48l160 327l-412 807q-10 17 -10 41zM410 1225q0 25 14 47 l143 174q41 47 86 47q40 0 70.5 -27.5t30.5 -64.5q0 -34 -27 -64l-158 -170q-30 -32 -71 -32q-36 0 -62 27t-26 63z" />
<glyph unicode="&#xfe;" horiz-adv-x="1288" d="M143 -272v1538q0 40 29 68t74 28q41 0 70.5 -28t29.5 -68v-322q56 55 127.5 85t142.5 30q229 0 381 -152t152 -389q0 -238 -151.5 -390.5t-381.5 -152.5q-148 0 -270 103v-350q0 -40 -29.5 -68.5t-70.5 -28.5q-45 0 -74 28t-29 69zM346 444q0 -136 74 -208t196 -72 q144 0 238 98.5t94 255.5t-93 255.5t-237 98.5q-121 0 -196.5 -76t-75.5 -204v-148z" />
<glyph unicode="&#xff;" horiz-adv-x="1163" d="M51 944q0 40 35 70t76 30q26 0 50.5 -15t37.5 -42l340 -678q41 86 156.5 316t177.5 362q25 57 88 57q42 0 76 -23.5t34 -59.5q0 -25 -8 -41l-614 -1223q-34 -66 -99 -66q-40 0 -70 25.5t-30 64.5q0 24 12 48l160 327l-412 807q-10 17 -10 41zM272 1247q0 46 33.5 79.5 t79.5 33.5t79.5 -33.5t33.5 -79.5t-33.5 -79t-79.5 -33t-79.5 33t-33.5 79zM666 1247q0 46 33 79.5t79 33.5t79.5 -33.5t33.5 -79.5t-33.5 -79t-79.5 -33t-79 33t-33 79z" />
<glyph unicode="&#x152;" horiz-adv-x="2109" d="M92 651q0 194 87 349t238 241t337 86q169 0 319 -78q35 54 105 54h743q44 0 68 -27.5t24 -65.5t-25.5 -67t-68.5 -29h-659v-375h622q42 0 67 -28t25 -66t-23.5 -65t-68.5 -27h-622v-360h659q45 0 71.5 -30.5t26.5 -70.5q0 -38 -25 -65t-73 -27h-741q-72 0 -105 51 q-146 -76 -319 -76q-186 0 -337 86t-238 241t-87 349zM301 651q0 -216 129 -349.5t324 -133.5q181 0 303 113v741q-126 113 -303 113q-95 0 -178.5 -34.5t-144 -96.5t-95.5 -153.5t-35 -199.5z" />
<glyph unicode="&#x153;" horiz-adv-x="2097" d="M92 516q0 238 151.5 390.5t381.5 152.5q135 0 247 -56t185 -157q70 100 182.5 156.5t249.5 56.5q212 0 359 -134.5t167 -369.5v-12q0 -42 -27.5 -71.5t-89.5 -33.5l-718 -57q34 -99 115 -162t190 -63q150 0 262 100q43 37 80 37q39 0 62.5 -20.5t23.5 -59.5 q0 -37 -35 -78.5t-91.5 -77t-137 -59t-162.5 -23.5q-136 0 -246.5 55.5t-181.5 157.5q-72 -100 -185 -156t-249 -57q-150 -1 -271.5 67t-191.5 192.5t-70 281.5zM293 516q0 -157 94 -256.5t236 -97.5q146 2 240.5 99.5t94.5 254.5t-94.5 256.5t-238.5 99.5t-238 -99.5 t-94 -256.5zM1161 559l658 53q-26 119 -115.5 190.5t-208.5 71.5q-141 0 -233 -87.5t-101 -227.5z" />
<glyph unicode="&#x178;" horiz-adv-x="1290" d="M41 1221q0 39 33.5 66.5t77.5 27.5q52 0 88 -47q83 -111 405 -557l416 557q35 47 86 47q41 0 71.5 -26.5t30.5 -65.5q-5 -43 -20 -62l-475 -639v-430q0 -50 -33.5 -77t-73.5 -27q-44 0 -73 26.5t-29 77.5v430l-479 637q-25 31 -25 62zM336 1475q0 46 33.5 79t79.5 33 t79 -33t33 -79t-33 -79.5t-79 -33.5t-79.5 33.5t-33.5 79.5zM729 1475q0 46 33.5 79t79.5 33t79 -33t33 -79t-33 -79.5t-79 -33.5t-79.5 33.5t-33.5 79.5z" />
<glyph unicode="&#x2c6;" horiz-adv-x="524" d="M20 1231q0 25 17 39l151 141q32 30 74 33q42 -3 74 -33l151 -141q17 -14 17 -39q0 -48 -30.5 -72t-70.5 -24q-16 0 -29.5 6t-20.5 11t-23 19l-66 68l-69 -68q-22 -21 -37.5 -28.5t-36.5 -7.5q-40 0 -70.5 24t-30.5 72z" />
<glyph unicode="&#x2dc;" horiz-adv-x="638" d="M20 1214q0 70 60 117t133 47q42 0 82.5 -17t72 -34.5t52.5 -17.5q15 0 29 17.5t32.5 34.5t44.5 17q36 0 64 -22t28 -58q0 -70 -59.5 -116.5t-132.5 -46.5q-41 0 -81.5 17.5t-72 34.5t-51.5 17q-13 0 -25 -11t-20.5 -23.5t-25 -23.5t-37.5 -11q-37 0 -65 21.5t-28 57.5z " />
<glyph unicode="&#x2000;" horiz-adv-x="865" />
<glyph unicode="&#x2001;" horiz-adv-x="1731" />
<glyph unicode="&#x2002;" horiz-adv-x="865" />
<glyph unicode="&#x2003;" horiz-adv-x="1731" />
<glyph unicode="&#x2004;" horiz-adv-x="577" />
<glyph unicode="&#x2005;" horiz-adv-x="432" />
<glyph unicode="&#x2006;" horiz-adv-x="288" />
<glyph unicode="&#x2007;" horiz-adv-x="288" />
<glyph unicode="&#x2008;" horiz-adv-x="216" />
<glyph unicode="&#x2009;" horiz-adv-x="346" />
<glyph unicode="&#x200a;" horiz-adv-x="96" />
<glyph unicode="&#x2010;" horiz-adv-x="780" d="M92 600q0 39 28 67.5t75 28.5h389q50 0 77 -28t27 -68q0 -39 -26.5 -66.5t-77.5 -27.5h-389q-49 0 -76 28.5t-27 65.5z" />
<glyph unicode="&#x2011;" horiz-adv-x="780" d="M92 600q0 39 28 67.5t75 28.5h389q50 0 77 -28t27 -68q0 -39 -26.5 -66.5t-77.5 -27.5h-389q-49 0 -76 28.5t-27 65.5z" />
<glyph unicode="&#x2012;" horiz-adv-x="780" d="M92 600q0 39 28 67.5t75 28.5h389q50 0 77 -28t27 -68q0 -39 -26.5 -66.5t-77.5 -27.5h-389q-49 0 -76 28.5t-27 65.5z" />
<glyph unicode="&#x2013;" horiz-adv-x="1144" d="M20 604q0 39 28 68.5t73 29.5h911q42 0 67 -29.5t25 -68.5t-24 -66.5t-68 -27.5h-909q-49 0 -76 28t-27 66z" />
<glyph unicode="&#x2014;" horiz-adv-x="1325" d="M20 602q0 39 25 69.5t66 30.5h1099q45 0 70 -28.5t25 -67.5q0 -38 -25 -67t-70 -29h-1099q-43 0 -67 27.5t-24 64.5z" />
<glyph unicode="&#x2018;" horiz-adv-x="462" d="M92 1024q0 23 12 47l80 182q25 58 97 58q36 0 63 -26t27 -66q0 -26 -11 -48l-81 -186q-25 -57 -86 -57q-39 0 -70 28t-31 68z" />
<glyph unicode="&#x2019;" horiz-adv-x="462" d="M92 1024q0 23 12 47l80 182q25 58 97 58q36 0 63 -26t27 -66q0 -26 -11 -48l-81 -186q-25 -57 -86 -57q-39 0 -70 28t-31 68z" />
<glyph unicode="&#x201a;" horiz-adv-x="462" d="M92 -92q0 23 12 47l80 182q25 58 97 58q36 0 63 -26.5t27 -66.5q0 -25 -11 -47l-81 -186q-25 -57 -86 -57q-39 0 -70 28t-31 68z" />
<glyph unicode="&#x201c;" horiz-adv-x="786" d="M92 1024q0 23 12 47l80 182q25 58 97 58q36 0 63 -26t27 -66q0 -26 -11 -48l-81 -186q-25 -57 -86 -57q-39 0 -70 28t-31 68zM416 1024q0 23 12 47l80 182q25 58 96 58q36 0 63 -26t27 -66q0 -28 -10 -48l-82 -186q-25 -57 -86 -57q-39 0 -69.5 28t-30.5 68z" />
<glyph unicode="&#x201d;" horiz-adv-x="786" d="M92 1024q0 23 12 47l80 182q25 58 97 58q36 0 63 -26t27 -66q0 -26 -11 -48l-81 -186q-25 -57 -86 -57q-39 0 -70 28t-31 68zM416 1024q0 23 12 47l80 182q25 58 96 58q36 0 63 -26t27 -66q0 -28 -10 -48l-82 -186q-25 -57 -86 -57q-39 0 -69.5 28t-30.5 68z" />
<glyph unicode="&#x201e;" horiz-adv-x="786" d="M92 -92q0 23 12 47l80 182q25 58 97 58q36 0 63 -26.5t27 -66.5q0 -25 -11 -47l-81 -186q-25 -57 -86 -57q-39 0 -70 28t-31 68zM416 -92q0 23 12 47l80 182q25 58 96 58q36 0 63 -26.5t27 -66.5q0 -27 -10 -47l-82 -186q-25 -57 -86 -57q-39 0 -69.5 28t-30.5 68z" />
<glyph unicode="&#x2022;" horiz-adv-x="569" d="M92 602q0 81 56 136t135 55q83 0 138.5 -54.5t55.5 -136.5q0 -79 -55.5 -133.5t-138.5 -54.5q-78 0 -134.5 55t-56.5 133z" />
<glyph unicode="&#x2026;" horiz-adv-x="1157" d="M92 104q0 50 34 84.5t83 34.5t84 -34.5t35 -84.5q0 -49 -34.5 -82.5t-84.5 -33.5t-83.5 33.5t-33.5 82.5zM461 104q0 50 34 84.5t83 34.5t83.5 -34.5t34.5 -84.5q0 -49 -34 -82.5t-84 -33.5t-83.5 33.5t-33.5 82.5zM829 104q0 50 34 84.5t83 34.5q50 0 84.5 -34.5 t34.5 -84.5q0 -49 -34.5 -82.5t-84.5 -33.5t-83.5 33.5t-33.5 82.5z" />
<glyph unicode="&#x202f;" horiz-adv-x="346" />
<glyph unicode="&#x2039;" horiz-adv-x="714" d="M92 528q0 41 43 84l318 308q31 28 69 28q39 0 70 -29t31 -69t-33 -70l-260 -250l260 -249q33 -30 33 -70q0 -41 -27.5 -69.5t-73.5 -28.5q-36 0 -69 30l-322 308q-39 39 -39 77z" />
<glyph unicode="&#x203a;" horiz-adv-x="714" d="M92 211q0 40 33 70l260 249l-260 250q-33 30 -33 70t31 69t70 29q37 0 69 -28l318 -308q43 -43 43 -84q0 -38 -39 -77l-322 -308q-33 -30 -69 -30q-46 0 -73.5 28.5t-27.5 69.5z" />
<glyph unicode="&#x205f;" horiz-adv-x="432" />
<glyph unicode="&#x20ac;" horiz-adv-x="1392" d="M18 494q0 31 23 57.5t61 26.5h7q-3 30 -3 79q0 29 3 56h-5q-39 0 -61.5 26t-22.5 60q0 33 22.5 58.5t61.5 25.5h35q62 196 219 314t363 118q294 0 473 -193q27 -35 27 -65q0 -38 -31 -66t-70 -28q-38 0 -65 30q-65 70 -153 102.5t-181 32.5q-126 0 -225 -64.5 t-150 -180.5h352q41 0 64.5 -26t23.5 -60t-23 -59t-65 -25h-395q-2 -18 -2 -56q0 -39 4 -79h393q41 0 63.5 -24.5t22.5 -57.5q0 -34 -22.5 -60t-63.5 -26h-348q54 -113 152.5 -180.5t218.5 -67.5q99 0 195.5 48t150.5 130q25 37 70 37q38 0 69 -27.5t31 -64.5q0 -33 -16 -54 q-80 -120 -217 -188t-283 -68q-201 0 -357.5 120t-220.5 315h-39q-39 0 -62.5 25t-23.5 59z" />
<glyph unicode="&#x2122;" horiz-adv-x="1492" d="M92 1247q0 24 14 43t39 19h418q30 0 49 -20.5t19 -45.5q0 -24 -18.5 -41.5t-49.5 -17.5h-143v-400q0 -30 -19.5 -46.5t-46.5 -16.5q-26 0 -46.5 16.5t-20.5 46.5v400h-142q-24 0 -38.5 18.5t-14.5 44.5zM735 786v459q0 31 19 50.5t45 19.5q33 0 61 -39l187 -262l186 262 q28 39 61 39q26 0 46 -19.5t20 -50.5v-459q0 -30 -19.5 -44.5t-46.5 -14.5q-29 0 -49 16t-20 43v277l-123 -193q-18 -30 -55 -30q-34 0 -60 41l-117 182v-277q0 -27 -18.5 -43t-48.5 -16q-27 0 -47.5 14.5t-20.5 44.5z" />
<glyph unicode="&#xe000;" horiz-adv-x="1044" d="M0 0v1044h1044v-1044h-1044z" />
</font>
</defs>
</svg>
