<?xml version="1.0" standalone="no"?>
<!DOCTYPE svg PUBLIC "-//W3C//DTD SVG 1.1//EN" "http://www.w3.org/Graphics/SVG/1.1/DTD/svg11.dtd" >
<svg xmlns="http://www.w3.org/2000/svg">
<metadata></metadata>
<defs>
<font id="hotels_sans_weblight" horiz-adv-x="1241" >
<font-face units-per-em="2048" ascent="1536" descent="-512" />
<missing-glyph horiz-adv-x="559" />
<glyph unicode="&#xfb01;" horiz-adv-x="978" d="M31 975q0 25 16 44t45 19h109v29q0 132 94 213.5t225 81.5q43 0 94 -12.5t92.5 -41t41.5 -63.5q0 -28 -21 -48.5t-49 -20.5q-20 0 -39 16q-40 37 -113 37q-72 0 -124 -44t-52 -120v-27h412q30 0 52 -17t22 -48v-918q0 -32 -22 -49.5t-52 -17.5q-32 0 -54 17.5t-22 49.5 v856h-336v-856q0 -32 -22 -49.5t-54 -17.5q-30 0 -51.5 17.5t-21.5 49.5v856h-111q-28 0 -43.5 19.5t-15.5 44.5z" />
<glyph unicode="&#xfb02;" horiz-adv-x="978" d="M31 975q0 25 16 44t45 19h109v29q0 133 94.5 214t230.5 81q204 0 310 -102v-1203q0 -29 -21.5 -49t-52.5 -20q-33 0 -54.5 19.5t-21.5 49.5v1131q-52 41 -154 41q-74 0 -128 -44t-54 -120v-27h135q26 0 41 -18.5t15 -44.5q0 -25 -15 -44.5t-41 -19.5h-135v-856 q0 -32 -22 -49.5t-54 -17.5q-30 0 -51.5 17.5t-21.5 49.5v856h-111q-28 0 -43.5 19.5t-15.5 44.5z" />
<glyph horiz-adv-x="2048" />
<glyph horiz-adv-x="2048" />
<glyph unicode="&#xd;" horiz-adv-x="2048" />
<glyph unicode=" "  horiz-adv-x="559" />
<glyph unicode="&#x09;" horiz-adv-x="559" />
<glyph unicode="&#xa0;" horiz-adv-x="559" />
<glyph unicode="!" horiz-adv-x="507" d="M174 51v70q0 32 24.5 50.5t57.5 18.5q32 0 55 -18t23 -51v-70q0 -32 -22 -49.5t-54 -17.5q-33 0 -58.5 18t-25.5 49zM174 344v903q0 35 22.5 54.5t53.5 19.5t54.5 -20t23.5 -54v-903q0 -33 -23 -51.5t-53 -18.5q-32 0 -55 18.5t-23 51.5z" />
<glyph unicode="&#x22;" horiz-adv-x="559" d="M92 1042v220q0 35 21.5 54t50.5 19q30 0 51 -19t21 -54v-220q0 -33 -21.5 -51t-50.5 -18q-30 0 -51 18t-21 51zM328 1042v220q0 35 20.5 54t48.5 19q29 0 49.5 -19t20.5 -54v-220q0 -33 -20.5 -51t-49.5 -18t-49 18t-20 51z" />
<glyph unicode="#" horiz-adv-x="1148" d="M92 483q0 29 20 50.5t54 21.5h113l34 199h-104q-36 0 -56 20t-20 47q0 29 20 50.5t54 21.5h131l61 356q10 66 76 66q37 0 54 -26t12 -60l-60 -336h273l61 356q10 66 76 66q37 0 53.5 -26t11.5 -60l-59 -336h94q30 0 48 -22t18 -50t-17 -47.5t-49 -19.5h-117l-34 -199h110 q30 0 48 -22t18 -50t-17 -47.5t-49 -19.5h-135l-63 -371q-11 -63 -72 -63q-30 0 -51 15t-21 44q0 17 2 25l60 350h-271l-63 -371q-11 -63 -72 -63q-30 0 -50.5 15t-20.5 44q0 17 2 25l59 350h-86q-36 0 -56 20t-20 47zM424 555h270l35 199h-270z" />
<glyph unicode="$" horiz-adv-x="1347" d="M92 293q0 30 23.5 49.5t54.5 19.5q47 0 61 -51q16 -61 84 -109t145.5 -69.5t145.5 -21.5v469q-50 4 -85.5 8t-80 11.5t-76.5 16.5t-68 23t-60.5 31t-48.5 41.5t-38.5 54t-23 68t-8.5 84.5q0 69 30.5 128.5t80 100t114.5 70.5t131 45.5t133 19.5v96q0 33 20.5 52.5 t47.5 19.5q28 0 47.5 -18.5t19.5 -53.5v-98q373 -28 465 -252q4 -8 4 -24q0 -27 -23 -43.5t-54 -16.5q-46 0 -60 35q-60 152 -332 172v-453q67 -6 111 -11t103.5 -16.5t98 -26t80 -39t66 -56.5t40 -77.5t15.5 -102.5q0 -82 -31.5 -148.5t-82 -109.5t-119.5 -72.5t-138 -43.5 t-143 -18v-108q0 -31 -20.5 -48.5t-48.5 -17.5q-27 0 -46.5 17t-19.5 49v111q-82 5 -158.5 22t-151 49.5t-128.5 90t-74 132.5q-2 6 -2 19zM264 913q0 -46 18 -79t45 -53.5t75.5 -34.5t92 -20.5t111.5 -12.5v438q-56 -3 -112 -17.5t-109.5 -41.5t-87 -73.5t-33.5 -105.5z M741 111q66 4 127 19.5t117 44t89.5 78.5t33.5 114q0 38 -12.5 67.5t-39 50t-57 35t-76 23.5t-85.5 14t-97 10v-456z" />
<glyph unicode="%" horiz-adv-x="1312" d="M92 1042q0 115 77.5 202t197.5 87q115 0 194.5 -83.5t79.5 -205.5q0 -114 -76.5 -204t-197.5 -90q-117 0 -196 82.5t-79 211.5zM143 37q0 23 17 43l893 1251q17 29 49 29q27 0 47 -18.5t20 -45.5q0 -21 -10 -36l-887 -1260q-24 -31 -59 -31q-28 0 -49 20t-21 48z M219 1042q0 -65 41.5 -117.5t106.5 -52.5q64 0 104.5 47.5t40.5 124.5q0 63 -41 112.5t-104 49.5q-61 0 -104.5 -49t-43.5 -115zM672 274q0 115 77 202t197 87q115 0 195 -83.5t80 -205.5q0 -73 -32.5 -139.5t-97 -110.5t-145.5 -44q-117 0 -195.5 82.5t-78.5 211.5z M799 274q0 -65 41 -117.5t106 -52.5t105.5 48t40.5 124q0 63 -41.5 112.5t-104.5 49.5q-61 0 -104 -48.5t-43 -115.5z" />
<glyph unicode="&#x26;" horiz-adv-x="1318" d="M92 377q0 104 68 184.5t170 97.5q-99 21 -154 104.5t-55 184.5q0 77 28.5 141t76.5 107.5t112 73.5t133.5 43.5t142.5 13.5q95 0 180 -17.5t157 -53t114.5 -97.5t42.5 -143q0 -32 -20.5 -49t-49.5 -17t-49 17t-20 49q0 47 -30 82t-81.5 55.5t-112.5 30.5t-131 10 q-91 0 -169.5 -27.5t-130.5 -85t-52 -135.5q0 -64 28.5 -109.5t79 -70.5t110 -36t132.5 -11h590q30 0 48 -21.5t18 -48.5t-17 -45t-49 -18h-84v-211q0 -89 -28.5 -158.5t-76 -114t-114 -74t-138 -41.5t-151.5 -12q-77 0 -147 11.5t-139.5 40.5t-119.5 73t-81 115.5 t-31 161.5zM229 373q0 -58 24.5 -105.5t64 -77t91 -50t102 -28.5t101.5 -8t100.5 7.5t100 27t88 49t61 77.5t23.5 108v213h-373q-63 0 -113.5 -4.5t-103 -18t-87 -36t-57 -62t-22.5 -92.5z" />
<glyph unicode="'" horiz-adv-x="323" d="M92 1040v220q0 33 21 52t49 19t48.5 -19t20.5 -52v-220q0 -32 -20.5 -49.5t-48.5 -17.5q-29 0 -49.5 17.5t-20.5 49.5z" />
<glyph unicode="(" horiz-adv-x="571" d="M92 592q0 214 77.5 412.5t223.5 326.5q25 25 51 25q29 0 52.5 -22.5t23.5 -51.5q0 -28 -26 -51q-121 -105 -186.5 -282t-65.5 -367q0 -189 62.5 -354.5t187.5 -260.5q28 -22 28 -55q0 -29 -22.5 -51.5t-51.5 -22.5q-19 0 -51 25q-145 125 -224 320t-79 409z" />
<glyph unicode=")" horiz-adv-x="571" d="M51 -88q0 32 29 55q125 95 187.5 260.5t62.5 354.5q0 190 -65.5 367t-186.5 282q-27 24 -27 51q0 29 23.5 51.5t52.5 22.5q26 0 51 -25q146 -128 223.5 -326.5t77.5 -412.5t-79 -409t-224 -320q-32 -25 -51 -25q-29 0 -51.5 22.5t-22.5 51.5z" />
<glyph unicode="*" horiz-adv-x="659" d="M92 1174q0 22 16 37.5t42 15.5q17 0 40 -10l86 -56l-2 96q-1 31 18.5 49.5t43.5 18.5q25 0 42.5 -17.5t16.5 -47.5l-4 -103l68 64q22 16 43 16q25 0 43 -18t18 -41q0 -33 -37 -58l-75 -53l86 -51q30 -18 30 -49q0 -24 -18 -44t-43 -20q-18 0 -45 17l-78 63l6 -113 q0 -30 -18.5 -47.5t-42.5 -17.5q-23 0 -38.5 14.5t-15.5 42.5v10l2 111l-73 -68q-20 -14 -43 -14q-27 0 -46.5 19.5t-19.5 44.5q0 37 41 57l92 45l-94 51q-41 20 -41 56z" />
<glyph unicode="+" horiz-adv-x="1021" d="M92 414q0 30 17.5 51.5t46.5 21.5h284v283q0 31 21 49.5t49 18.5t49 -18t21 -50v-283h282q31 0 49.5 -20.5t18.5 -48.5t-18 -49t-50 -21h-282v-285q0 -30 -19.5 -46.5t-46.5 -16.5q-30 0 -52 17t-22 46v285h-284q-30 0 -47 19.5t-17 46.5z" />
<glyph unicode="," horiz-adv-x="364" d="M66 -137q0 17 8 33l84 196q17 43 63 43q29 0 51.5 -19.5t22.5 -47.5q0 -19 -8 -35l-92 -193q-22 -45 -64 -45q-25 0 -45 19.5t-20 48.5z" />
<glyph unicode="-" horiz-adv-x="747" d="M88 606q0 28 20.5 49t55.5 21h414q36 0 56.5 -21t20.5 -49t-19.5 -47.5t-57.5 -19.5h-414q-36 0 -56 19.5t-20 47.5z" />
<glyph unicode="." horiz-adv-x="364" d="M92 84q0 38 26 62t66 24t64 -24t24 -62t-24 -62t-64 -24t-66 24t-26 62z" />
<glyph unicode="/" horiz-adv-x="741" d="M-10 -133q0 17 8 33l614 1443q17 39 62 39q31 0 54.5 -18.5t23.5 -46.5q0 -11 -7 -29l-618 -1446q-19 -45 -66 -45q-28 0 -49.5 20.5t-21.5 49.5z" />
<glyph unicode="0" horiz-adv-x="1181" d="M115 467v350q-1 116 39 211t108 154.5t153 91t177 31.5t176 -31.5t152 -91t108.5 -154t40.5 -211.5v-350q0 -117 -40.5 -212.5t-108 -155.5t-152 -92t-176.5 -32t-176.5 32t-152 92t-108 155.5t-40.5 212.5zM264 467q0 -88 27.5 -157t73.5 -110.5t103.5 -63t121.5 -21.5 q66 0 123 20t104.5 60.5t75 110t27.5 161.5v350q1 176 -94.5 263t-235.5 87q-65 0 -121.5 -20t-103.5 -60t-74 -109.5t-27 -160.5v-350z" />
<glyph unicode="1" horiz-adv-x="737" d="M82 823q0 23 16 45l297 404q22 31 66 31q33 0 57.5 -20t24.5 -54v-1190q0 -30 -20.5 -47t-49.5 -17t-49.5 17t-20.5 47v1003l-174 -245q-28 -41 -71 -41q-31 0 -53.5 19.5t-22.5 47.5z" />
<glyph unicode="2" horiz-adv-x="1183" d="M113 80q0 38 30 59l607 457q70 53 109.5 124.5t39.5 149.5q0 142 -89.5 218.5t-223.5 76.5q-132 0 -216 -57.5t-98 -179.5q-4 -31 -23.5 -47.5t-45.5 -16.5q-28 0 -50 20t-22 52q0 68 29 132.5t83.5 117.5t143.5 85t199 32q121 0 224 -52t168.5 -154t65.5 -233 q0 -110 -55 -205t-147 -163l-252 -191l-264 -184l301 14h366q37 0 57.5 -19.5t20.5 -47.5t-20 -48t-56 -20h-811q-33 0 -52 24t-19 56z" />
<glyph unicode="3" horiz-adv-x="1136" d="M82 377q0 33 20.5 50t49.5 17q28 0 47.5 -14.5t19.5 -40.5q0 -124 85.5 -193t232.5 -69q105 0 185 46t119.5 116t39.5 151q0 36 -10 75.5t-32 79.5t-52.5 72t-76 52t-98.5 20q-60 0 -106 -24l4 2q-18 -12 -41 -12q-30 0 -53 21t-23 52q0 36 25 58l360 333h-588 q-32 0 -48.5 19.5t-16.5 46.5q0 29 16.5 48.5t48.5 19.5h728q35 0 58 -21.5t23 -52.5q0 -34 -30 -64l-283 -262l-98 -63q39 10 88 10q102 0 183.5 -59t123 -149.5t41.5 -190.5q0 -190 -135 -324.5t-350 -134.5q-117 0 -207.5 32.5t-143.5 87.5t-79.5 122t-26.5 143z" />
<glyph unicode="4" horiz-adv-x="1165" d="M82 367q0 21 20 59l486 862q22 39 61 39q28 0 50 -18.5t22 -46.5q0 -24 -10 -41l-453 -797h604v825q0 28 20 47t50 19q29 0 49 -19t20 -47v-1200q0 -32 -20.5 -49.5t-48.5 -17.5t-49 17.5t-21 47.5v248h-680q-47 0 -73.5 19.5t-26.5 52.5z" />
<glyph unicode="5" horiz-adv-x="1214" d="M143 369q0 35 20.5 54t49.5 19q30 0 52 -17t22 -50q0 -27 7.5 -57.5t29 -67.5t55 -65.5t91.5 -48t132 -19.5q90 0 160 28.5t110.5 76.5t61 105.5t20.5 121.5q0 60 -21.5 114.5t-62 99t-107 71t-149.5 26.5h-368q-31 0 -52.5 18t-21.5 47v394q0 40 24.5 62t65.5 22h668 q34 0 54 -21t20 -49t-19.5 -49t-54.5 -21h-617v-270h301q118 0 213 -37t154 -100t90 -142.5t31 -167.5q0 -86 -32 -167t-92.5 -147t-157.5 -106t-216 -40q-93 0 -171.5 24t-131 63t-89 89.5t-53 103t-16.5 103.5z" />
<glyph unicode="6" horiz-adv-x="1202" d="M133 403v383q0 156 46.5 264.5t170.5 188.5q130 74 285 74q104 0 198.5 -36.5t163.5 -107.5q19 -22 19 -45q0 -26 -21 -46.5t-47 -20.5q-27 0 -51 24q-94 97 -274 97q-103 0 -183 -48q-92 -55 -129 -138.5t-37 -196.5v-66q56 75 150 116.5t190 41.5q128 0 236.5 -56.5 t174 -159t65.5 -229.5q0 -140 -72 -248t-186.5 -162.5t-249.5 -54.5q-207 0 -328 119t-121 307zM274 403q0 -135 88.5 -211.5t235.5 -76.5q141 0 241.5 88.5t100.5 238.5q0 128 -94.5 217t-229.5 89q-138 0 -240 -68t-102 -174v-103z" />
<glyph unicode="7" horiz-adv-x="1077" d="M72 1229q0 30 19 52t52 22h764q45 0 71 -18.5t26 -49.5q2 -17 -21 -61l-643 -1149q-21 -35 -66 -35q-28 0 -50.5 21.5t-22.5 47.5q0 21 8 33l604 1065h-670q-33 0 -52 21t-19 51z" />
<glyph unicode="8" horiz-adv-x="1306" d="M113 379q0 118 74.5 193.5t201.5 97.5v4q-109 28 -172 104t-63 187q0 87 42 154.5t113 107t157 59t183 19.5t184.5 -20t160 -59.5t115 -106.5t42.5 -154q0 -109 -52.5 -179.5t-166.5 -111.5v-4q123 -22 192.5 -100.5t69.5 -194.5q0 -84 -32 -150.5t-84.5 -109.5t-124 -71 t-146.5 -40t-156 -12q-79 0 -153 12t-145 40.5t-123.5 71.5t-84.5 110.5t-32 152.5zM256 375q0 -56 26.5 -100t67 -71t95 -44.5t105.5 -24t103 -6.5t101.5 6t104.5 23t96 43.5t67.5 71t26.5 102.5q0 72 -59 125t-147.5 77.5t-191.5 24.5t-191 -24t-146 -77t-58 -126z M295 969q0 -72 52.5 -124.5t131.5 -77t170 -24.5q93 0 173 24.5t133 77t53 124.5q0 71 -53.5 120t-131 69t-172.5 20q-69 0 -131 -12t-113.5 -36t-81.5 -65.5t-30 -95.5z" />
<glyph unicode="9" horiz-adv-x="1200" d="M113 840q0 141 69 248.5t179 162t241 54.5q193 0 329 -123.5t136 -302.5v-408q0 -222 -137.5 -355.5t-356.5 -133.5q-263 0 -387 149q-16 19 -16 45q0 31 22.5 53.5t51.5 22.5q27 0 49 -25q44 -55 120.5 -81.5t161.5 -26.5q169 0 262 94t93 256v113q-33 -61 -93 -104 t-124.5 -62t-128.5 -19q-95 0 -181.5 33.5t-150 91t-101.5 140.5t-38 178zM254 840q0 -128 97.5 -218t230.5 -90q150 0 245 81.5t95 197.5v66q0 129 -91 210.5t-229 81.5q-143 0 -245.5 -89t-102.5 -240z" />
<glyph unicode=":" horiz-adv-x="364" d="M90 84q0 38 26 62t66 24t64 -24t24 -62t-24 -62t-64 -24t-66 24t-26 62zM92 770q0 38 25 62t65 24t65 -24t25 -62t-25 -62t-65 -24t-65 24t-25 62z" />
<glyph unicode=";" horiz-adv-x="364" d="M47 -137q0 17 8 33l74 198q19 43 66 43q32 0 56.5 -20.5t24.5 -50.5q0 -20 -8 -33l-92 -193q-22 -45 -63 -45q-26 0 -46 20t-20 48zM92 770q0 38 25 62t65 24t65 -24t25 -62t-25 -62t-65 -24t-65 24t-25 62z" />
<glyph unicode="&#x3c;" horiz-adv-x="698" d="M92 635q0 35 35 65l354 340q27 27 56 27q28 0 48.5 -19.5t20.5 -46.5q0 -26 -24 -53l-330 -311l328 -301q24 -24 24 -51q0 -29 -22.5 -50.5t-53.5 -21.5q-28 0 -51 23l-352 342q-33 33 -33 57z" />
<glyph unicode="=" horiz-adv-x="1021" d="M92 477q0 30 17.5 52t46.5 22h706q31 0 49.5 -21t18.5 -49t-18 -48.5t-50 -20.5h-706q-30 0 -47 19t-17 46zM92 768q0 30 17.5 52t46.5 22h706q31 0 49.5 -21t18.5 -49t-18 -49t-50 -21h-706q-30 0 -47 19.5t-17 46.5z" />
<glyph unicode="&#x3e;" horiz-adv-x="698" d="M92 1001q0 27 20.5 46.5t47.5 19.5q30 0 57 -27l354 -340q35 -35 35 -65q0 -24 -33 -57l-352 -342q-23 -23 -53 -23q-29 0 -51.5 21.5t-22.5 50.5q0 26 25 51l323 301l-325 311q-25 28 -25 53z" />
<glyph unicode="?" horiz-adv-x="1116" d="M61 1016l5 20q27 83 79.5 141.5t120 88.5t133 42.5t138.5 12.5q88 0 172 -25.5t155.5 -74.5t115.5 -131.5t44 -186.5q0 -76 -26 -136t-67 -97.5t-91 -68t-100.5 -55t-91.5 -49.5t-67 -61t-26 -82v-49q0 -30 -23 -47.5t-53 -17.5t-50.5 17t-20.5 48v51q0 54 16 98t43 74.5 t62 55.5t73.5 45t77 39t73.5 40.5t62 46.5t43 61t16 81q0 74 -30.5 132t-81 91.5t-108.5 50.5t-119 17q-53 0 -100 -9t-95.5 -29.5t-85.5 -61.5t-55 -99q-12 -39 -58 -39q-31 0 -55.5 18.5t-24.5 47.5zM397 49v53q0 32 25.5 51t60.5 19t59.5 -18.5t24.5 -51.5v-53 q0 -32 -24.5 -49.5t-57.5 -17.5q-35 0 -61.5 18t-26.5 49z" />
<glyph unicode="@" horiz-adv-x="1740" d="M92 465q0 169 64 321t172 261t256.5 173t312.5 64t312.5 -64t256.5 -173t172 -261t64 -321q0 -126 -44.5 -236.5t-125 -178.5t-178.5 -68q-71 0 -119.5 38.5t-54.5 124.5q-22 -47 -57 -81.5t-76.5 -53.5t-84 -28t-88.5 -9q-123 0 -232 64t-175 174.5t-68 239.5 q0 217 135 352t336 135q95 0 182.5 -44t123.5 -128v41q0 25 20 39t49 14q31 0 53.5 -16.5t22.5 -46.5v-619q0 -32 16 -47.5t41 -15.5q72 0 127.5 99.5t55.5 250.5q0 188 -88 346t-241 250t-335 92q-181 0 -333.5 -92t-241.5 -250.5t-89 -345.5q0 -130 52.5 -251 t141.5 -210.5t212 -143t258 -53.5q66 0 110 9.5t67 18.5t38 9q27 0 45.5 -21t18.5 -48q0 -30 -29 -51t-75.5 -31t-89.5 -14.5t-85 -4.5q-163 0 -312.5 63.5t-257 170t-171.5 252.5t-64 305zM543 451q0 -139 102 -240.5t234 -101.5q117 0 207 80.5t90 191.5v123 q0 132 -88.5 218.5t-206.5 86.5q-150 0 -244 -97t-94 -261z" />
<glyph unicode="A" horiz-adv-x="1454" d="M41 55q0 16 8 29l613 1206q17 39 67 39q46 0 66 -39l610 -1202q8 -16 8 -35q0 -29 -22.5 -47t-53.5 -18q-49 0 -69 41l-154 307h-770l-160 -311q-16 -37 -61 -37q-32 0 -57 19.5t-25 47.5zM406 465h645l-322 645z" />
<glyph unicode="B" horiz-adv-x="1386" d="M164 74v1155q0 31 22.5 52.5t53.5 21.5h485q52 0 102.5 -6.5t107.5 -20.5t104.5 -41.5t86.5 -65t61.5 -94.5t22.5 -127q0 -82 -40 -147t-117 -96q117 -37 184.5 -117.5t67.5 -200.5q0 -88 -31 -157t-81.5 -111.5t-121.5 -70t-144 -38t-155 -10.5h-532q-31 0 -53.5 21.5 t-22.5 52.5zM313 135h459q59 0 109 6t101.5 23t87.5 44.5t58.5 73t22.5 105.5q0 116 -87.5 173.5t-229.5 57.5h-521v-483zM313 752h418q70 0 126.5 10t104 31.5t73.5 61t26 93.5q0 50 -23 90.5t-58.5 64.5t-81.5 40t-89 22t-84 6h-412v-419z" />
<glyph unicode="C" horiz-adv-x="1370" d="M92 651q0 193 86.5 348t236.5 241.5t335 86.5q146 0 278 -51t229 -152q19 -22 19 -43q0 -29 -24 -50t-54 -21q-25 0 -47 22q-151 156 -399 156q-143 0 -258 -66t-181.5 -189t-66.5 -282q0 -240 144 -388t364 -148q111 0 226.5 53t186.5 145q18 27 52 27q30 0 54.5 -21 t24.5 -51q0 -19 -12 -37q-85 -119 -234.5 -187.5t-297.5 -68.5q-187 0 -338 86.5t-237.5 241.5t-86.5 348z" />
<glyph unicode="D" horiz-adv-x="1406" d="M164 88v1129q0 35 28 60.5t66 25.5h447q119 0 220 -36.5t171.5 -99t120.5 -146t74 -177.5t24 -193t-24 -193t-74 -177t-120.5 -145.5t-171.5 -99t-220 -36.5h-447q-38 0 -66 26.5t-28 61.5zM311 135h394q111 0 200.5 44t145 117.5t85 164.5t29.5 190t-29.5 190.5t-85 166 t-145 119t-200.5 44.5h-394v-1036z" />
<glyph unicode="E" horiz-adv-x="1282" d="M164 90v1124q0 36 26 62.5t68 26.5h864q30 0 47 -19t17 -45q0 -28 -17.5 -48t-48.5 -20h-809v-460h770q29 0 46.5 -20t17.5 -48q0 -25 -17 -44t-47 -19h-770v-445h809q32 0 51 -22t19 -50q0 -27 -18 -45t-52 -18h-862q-42 0 -68 26t-26 64z" />
<glyph unicode="F" horiz-adv-x="1243" d="M164 63v1151q0 36 27 62.5t63 26.5h844q30 0 46.5 -19.5t16.5 -46.5t-16.5 -46.5t-46.5 -19.5h-787v-512h748q29 0 45 -19t16 -46q0 -25 -16 -43.5t-45 -18.5h-748v-466q0 -36 -21.5 -57t-51.5 -21t-52 19.5t-22 55.5z" />
<glyph unicode="G" horiz-adv-x="1419" d="M92 651q0 134 46.5 256t130.5 215.5t209.5 149t273.5 55.5q137 0 262 -49.5t215 -144.5q18 -18 18 -48q0 -31 -22 -53t-51 -22t-52 26q-63 73 -165 112.5t-203 39.5q-104 0 -198.5 -39.5t-164 -109t-109.5 -170.5q-36 -92 -36 -197v-21q0 -240 143 -388t354 -148 q118 0 226 48t174 136v279h-369q-33 0 -52.5 21t-19.5 48t19.5 46.5t52.5 19.5h434q78 0 78 -76v-352q0 -40 -22 -68q-208 -242 -516 -242q-131 0 -250 48t-209 134t-143.5 214.5t-53.5 279.5z" />
<glyph unicode="H" horiz-adv-x="1378" d="M164 63v1178q0 35 21 54.5t51 19.5t52.5 -20t22.5 -54v-547h754v547q0 35 22 54.5t52 19.5q31 0 53 -19.5t22 -54.5v-1175q0 -36 -22.5 -57t-52.5 -21t-52 21t-22 57v499h-754v-502q0 -36 -20 -55.5t-49 -19.5q-31 0 -54.5 20t-23.5 55z" />
<glyph unicode="I" horiz-adv-x="481" d="M164 63v1176q0 36 22 56t54 20q31 0 54 -20.5t23 -55.5v-1176q0 -36 -21 -55.5t-56 -19.5q-31 0 -53.5 20t-22.5 55z" />
<glyph unicode="J" horiz-adv-x="1218" d="M41 406q0 36 21.5 56.5t54.5 20.5q29 0 51 -19t25 -56q9 -135 104 -214t229 -79q99 0 187.5 43t144 121.5t55.5 173.5v718h-393q-36 0 -57 19.5t-21 46.5t21 46.5t57 19.5h461q28 0 51 -20.5t23 -47.5v-782q0 -139 -76.5 -250.5t-196.5 -169.5t-256 -58q-128 0 -237 56 t-175 155t-73 220z" />
<glyph unicode="K" horiz-adv-x="1298" d="M164 59v1186q0 33 22 51.5t52 18.5t52.5 -19t22.5 -51v-651l199 201l553 497q26 23 57 23t53.5 -22.5t22.5 -51.5q0 -30 -24 -51l-539 -479l575 -598q27 -27 27 -62q0 -27 -20 -45t-50 -18q-41 0 -65 28l-572 602l-217 -190v-369q0 -33 -22.5 -52t-52.5 -19t-52 19 t-22 52z" />
<glyph unicode="L" horiz-adv-x="1210" d="M164 76v1167q0 34 22.5 53t53.5 19q30 0 52.5 -19.5t22.5 -52.5v-1108h766q36 0 57 -20t21 -47q0 -28 -21 -48t-57 -20h-839q-78 0 -78 76z" />
<glyph unicode="M" horiz-adv-x="1603" d="M164 61v1174q0 37 20.5 58.5t48.5 21.5q43 0 70 -43l500 -778l495 778q27 43 72 43q29 0 49.5 -21.5t20.5 -58.5v-1174q0 -35 -22 -54t-54 -19q-30 0 -52 19t-22 54v926l-418 -653q-28 -45 -71 -45q-42 0 -70 45l-418 651v-924q0 -35 -22 -54t-53 -19q-30 0 -52 19 t-22 54z" />
<glyph unicode="N" horiz-adv-x="1417" d="M164 63v1162q0 42 24 66t58 24q46 0 84 -47l788 -1051l-20 311v721q0 31 23.5 48.5t56.5 17.5q30 0 52.5 -17t22.5 -49v-1173q0 -42 -28 -65t-66 -23q-63 0 -90 47l-766 1022l16 -277v-717q0 -36 -22.5 -55.5t-54.5 -19.5t-55 19.5t-23 55.5z" />
<glyph unicode="O" horiz-adv-x="1503" d="M92 651q0 193 86.5 348t237 241.5t336.5 86.5t336.5 -86.5t236.5 -241.5t86 -348t-86 -348t-236.5 -241.5t-336.5 -86.5t-336.5 86.5t-237 241.5t-86.5 348zM246 651q0 -119 39 -220t106.5 -170t160.5 -107.5t200 -38.5t200 38.5t160.5 107.5t106 170t38.5 220 q0 240 -143.5 388.5t-361.5 148.5q-143 0 -258 -66t-181.5 -189t-66.5 -282z" />
<glyph unicode="P" horiz-adv-x="1286" d="M164 55v1176q0 32 22 52t54 20h444q103 0 189.5 -26t146.5 -71t102.5 -105t62 -127.5t19.5 -139.5q0 -94 -32.5 -174.5t-95.5 -142t-165.5 -97t-232.5 -35.5h-367v-328q0 -33 -21.5 -51t-51.5 -18t-52 17.5t-22 49.5zM311 518h367q97 0 172 26t119.5 70t67 97.5 t22.5 113.5q0 65 -24.5 126t-70 110.5t-118 79.5t-160.5 30h-375v-653z" />
<glyph unicode="Q" horiz-adv-x="1492" d="M92 651q0 193 86.5 348t237 241.5t336.5 86.5t336.5 -86.5t236.5 -241.5t86 -348q0 -252 -147 -436l106 -109q23 -23 23 -51q0 -29 -22.5 -50t-53.5 -21q-29 0 -51 22l-103 107q-177 -138 -411 -138q-186 0 -336.5 86.5t-237 241.5t-86.5 348zM246 651q0 -119 39 -220 t106.5 -170t160.5 -107.5t200 -38.5q181 0 311 102l-121 129q-22 22 -22 51t21 50.5t50 21.5q27 0 56 -29l114 -118q96 143 96 329q0 240 -143.5 388.5t-361.5 148.5q-143 0 -258 -66t-181.5 -189t-66.5 -282z" />
<glyph unicode="R" horiz-adv-x="1372" d="M164 57v1174q0 32 21 52t55 20h485q129 0 232.5 -34.5t168.5 -95t99.5 -139.5t34.5 -170q0 -160 -90.5 -264t-274.5 -135l328 -356q26 -26 26 -56q0 -29 -21.5 -48t-51.5 -19q-35 0 -56 24l-409 447h-398v-398q0 -33 -22.5 -52t-52.5 -19t-52 18t-22 51zM313 586h414 q189 0 285 75t96 195q0 134 -102 224.5t-279 90.5h-414v-585z" />
<glyph unicode="S" horiz-adv-x="1343" d="M72 305q0 31 25.5 49.5t58.5 18.5q55 0 69 -49q19 -61 67.5 -104.5t115 -65t130 -30.5t132.5 -9q57 0 113.5 7t117.5 26t107 47t76 75.5t30 106.5q0 61 -35 101t-94.5 59.5t-136.5 29.5t-162 16t-170 14.5t-162 29.5t-136.5 56t-94.5 99t-35 154q0 98 47 174.5t127 123 t178.5 70t208.5 23.5q257 0 414 -92q69 -40 114.5 -101t45.5 -108q0 -29 -26 -48.5t-58 -19.5q-46 0 -60 35q-22 55 -71.5 95.5t-112.5 61t-123 29.5t-121 9q-57 0 -112 -8.5t-108.5 -27.5t-93.5 -48t-64.5 -72.5t-24.5 -97.5q0 -60 35 -100t94.5 -58.5t136 -28.5t161.5 -16 t170 -14t161.5 -29t136 -56t94.5 -99t35 -154t-39 -162t-100 -116t-142.5 -73.5t-160.5 -41t-160 -11.5q-117 0 -218 23t-169 59t-117 80.5t-71.5 87.5t-22.5 80z" />
<glyph unicode="T" horiz-adv-x="1271" d="M33 1239q0 29 18 46.5t53 17.5h1061q36 0 56 -17.5t20 -46.5q0 -28 -20.5 -48t-55.5 -20h-454v-1108q0 -35 -24 -55t-54 -20q-29 0 -52.5 19.5t-23.5 55.5v1108h-453q-35 0 -53 19.5t-18 48.5z" />
<glyph unicode="U" horiz-adv-x="1536" d="M164 567v680q0 32 22.5 50t53.5 18q32 0 54.5 -18.5t22.5 -51.5v-686q0 -107 38.5 -194t103 -140t144 -81.5t165.5 -28.5t165.5 28.5t144 81.5t103 140t38.5 194v680q0 36 22.5 56t54.5 20q30 0 53 -19.5t23 -54.5v-674q0 -114 -34 -212t-92.5 -166.5t-136 -117.5 t-164 -72.5t-177.5 -23.5t-177.5 23.5t-164 72.5t-136 117.5t-92.5 166.5t-34 212z" />
<glyph unicode="V" horiz-adv-x="1417" d="M41 1243q0 31 25 51.5t57 20.5q45 0 67 -43l527 -1069l514 1067q20 45 65 45q31 0 55.5 -21t24.5 -53q0 -16 -4 -24l-590 -1197q-22 -45 -67 -45q-46 0 -70 52l-598 1187q-6 15 -6 29z" />
<glyph unicode="W" horiz-adv-x="2330" d="M41 1237q0 34 27 56t61 22q48 0 68 -45l454 -1065l445 932q22 45 71 45q51 0 72 -43l447 -934l450 1063q20 47 72 47q33 0 57.5 -20.5t24.5 -55.5q0 -19 -4 -29l-531 -1185q-21 -50 -72 -50q-45 0 -67 48l-449 929l-446 -929q-21 -48 -76 -48q-52 0 -74 48l-526 1189 q-4 8 -4 25z" />
<glyph unicode="X" horiz-adv-x="1304" d="M51 57q0 30 23 56l483 553l-467 536q-16 16 -16 41q0 29 23 50.5t53 21.5q31 0 53 -25l450 -526l449 524q24 27 53 27q31 0 54.5 -21.5t23.5 -50.5q0 -26 -19 -45l-469 -532l486 -555q22 -28 22 -58q0 -28 -19.5 -46.5t-47.5 -18.5q-44 0 -70 32l-463 539l-469 -539 q-28 -32 -65 -32q-28 0 -48 20t-20 49z" />
<glyph unicode="Y" horiz-adv-x="1284" d="M41 1247q0 29 24 48.5t56 19.5q40 0 65 -35l457 -625l463 625q24 35 61 35q30 0 53 -19.5t23 -48.5q0 -21 -14 -41l-508 -680v-463q0 -36 -23.5 -55.5t-52.5 -19.5q-33 0 -54.5 19.5t-21.5 55.5v463l-512 678q-16 22 -16 43z" />
<glyph unicode="Z" horiz-adv-x="1312" d="M72 63q0 31 22 56l922 1052h-834q-32 0 -50.5 19.5t-18.5 46.5t18.5 46.5t50.5 19.5h969q40 0 63 -18.5t23 -45.5q0 -23 -27 -57l-917 -1047h870q35 0 54.5 -20.5t19.5 -48.5q0 -27 -19.5 -46.5t-52.5 -19.5h-1011q-38 0 -60 18t-22 45z" />
<glyph unicode="[" horiz-adv-x="598" d="M164 -215v1495q0 35 25 58.5t61 23.5h213q39 0 61.5 -21t22.5 -51q0 -27 -22 -47t-62 -20h-154v-1383h154q37 0 58.5 -20t21.5 -47q0 -28 -21 -49t-59 -21h-213q-35 0 -60.5 24t-25.5 58z" />
<glyph unicode="\" horiz-adv-x="743" d="M-10 1358q0 30 22.5 48.5t53.5 18.5q47 0 67 -47l612 -1464q9 -18 9 -37q0 -30 -21.5 -48.5t-50.5 -18.5q-47 0 -70 47h-2l-612 1468q-8 16 -8 33z" />
<glyph unicode="]" horiz-adv-x="579" d="M51 -231q0 28 20.5 49.5t55.5 21.5h147v1389h-147q-32 0 -49 19t-17 46q0 28 17 48t49 20h213q34 0 60 -24.5t26 -57.5v-1497q0 -33 -26 -57.5t-60 -24.5h-213q-36 0 -56 20t-20 48z" />
<glyph unicode="^" horiz-adv-x="776" d="M92 1055q0 23 19 45l206 258q29 39 72 39q42 0 72 -37l207 -262q16 -19 16 -43q0 -25 -20 -42.5t-46 -17.5q-34 0 -57 29l-174 221l-170 -221q-24 -31 -59 -31q-27 0 -46.5 18.5t-19.5 43.5z" />
<glyph unicode="_" horiz-adv-x="925" d="M20 -305q0 28 19.5 48.5t52.5 20.5h752q31 0 49 -20.5t18 -48.5t-17.5 -48t-49.5 -20h-752q-34 0 -53 20t-19 48z" />
<glyph unicode="`" horiz-adv-x="344" d="M20 1425q0 30 23.5 51t54.5 21q40 0 62 -35l153 -192q11 -17 11 -35q0 -25 -19.5 -44.5t-46.5 -19.5t-53 23l-166 184q-19 22 -19 47z" />
<glyph unicode="a" d="M92 514q0 155 72 279t194 192t269 68q106 0 191 -42t130 -122v80q0 33 22 51t54 18q30 0 52 -18t22 -51v-910q0 -34 -20.5 -52.5t-55.5 -18.5q-70 0 -70 71v97q-49 -89 -140.5 -135t-184.5 -46q-147 0 -269 68t-194 192t-72 279zM242 514q0 -178 110 -289.5t273 -111.5 q142 0 232.5 87.5t90.5 235.5v162q0 135 -92 226t-231 91q-163 0 -273 -111.5t-110 -289.5z" />
<glyph unicode="b" d="M143 59v1233q0 33 22 51.5t52 18.5q32 0 54 -18.5t22 -51.5v-403q45 80 130 122t191 42q147 0 269 -68t194 -192t72 -279t-72 -279t-194 -192t-269 -68q-93 0 -184.5 46t-140.5 135v-97q0 -71 -70 -71q-35 0 -55.5 18.5t-20.5 52.5zM293 436q0 -148 90.5 -235.5 t232.5 -87.5q163 0 272 111.5t109 289.5t-109 289.5t-272 111.5q-139 0 -231 -91t-92 -226v-162z" />
<glyph unicode="c" horiz-adv-x="1136" d="M92 506q0 243 151 395t394 152q112 0 203.5 -42t173.5 -134q16 -19 16 -41q0 -27 -23 -48.5t-51 -21.5q-32 0 -51 25q-107 124 -284 124q-165 0 -271 -118t-106 -295q0 -164 112.5 -276.5t272.5 -112.5q89 0 168.5 33t130.5 102q20 26 51 26q28 0 51 -20t23 -47 q0 -25 -21 -49q-73 -90 -180 -136.5t-225 -46.5q-142 0 -263.5 65.5t-196.5 188.5t-75 277z" />
<glyph unicode="d" horiz-adv-x="1243" d="M94 514q0 155 72 279t194 192t269 68q106 0 191 -42t130 -122v403q0 33 22 51.5t54 18.5q30 0 52 -18.5t22 -51.5v-1233q0 -34 -20.5 -52.5t-55.5 -18.5q-70 0 -70 71v97q-49 -89 -140.5 -135t-184.5 -46q-147 0 -269 68t-194 192t-72 279zM246 514q0 -178 109 -289.5 t272 -111.5q142 0 232.5 87.5t90.5 235.5v162q0 135 -92 226t-231 91q-163 0 -272 -111.5t-109 -289.5z" />
<glyph unicode="e" horiz-adv-x="1232" d="M92 512q0 101 34 195.5t97.5 172.5t167.5 125.5t232 47.5q139 0 254.5 -60t188.5 -174.5t85 -263.5v-10q0 -39 -23.5 -63t-68.5 -27l-801 -66q37 -122 132 -199t228 -77q186 0 297 108q31 27 64 27q28 0 46.5 -18t18.5 -46q0 -30 -22 -55q-69 -75 -176 -114.5t-219 -39.5 q-229 0 -382 149.5t-153 387.5zM240 514l766 61q-19 144 -123.5 242t-255.5 98q-122 0 -212 -57.5t-132.5 -147t-42.5 -196.5z" />
<glyph unicode="f" horiz-adv-x="686" d="M31 975q0 25 16 44t45 19h109v29q0 131 92.5 213t216.5 82q39 0 87.5 -12.5t89 -41t40.5 -63.5q0 -28 -21 -48.5t-49 -20.5q-20 0 -39 16q-40 37 -102 37q-65 0 -115.5 -44.5t-50.5 -119.5v-27h197q26 0 40.5 -18t14.5 -45q0 -26 -14.5 -45t-40.5 -19h-197v-856 q0 -32 -22 -49.5t-54 -17.5q-30 0 -51.5 17.5t-21.5 49.5v856h-111q-28 0 -43.5 19.5t-15.5 44.5z" />
<glyph unicode="g" horiz-adv-x="1243" d="M92 514q0 156 71.5 280t193.5 191.5t270 67.5q95 0 183.5 -43.5t139.5 -116.5v78q0 34 19.5 53.5t54.5 19.5q34 0 55 -20t21 -53v-918q0 -144 -68.5 -247.5t-181.5 -153t-256 -49.5q-121 0 -215.5 32.5t-175.5 108.5q-29 26 -29 59q0 29 22 48.5t52 19.5q25 0 55 -23 q70 -61 136 -84.5t155 -23.5q71 0 135 19.5t114.5 57.5t80.5 99t30 137v107q-52 -91 -140.5 -138t-186.5 -47q-148 0 -270 67.5t-193.5 191.5t-71.5 280zM244 514q0 -171 111 -286t272 -115q139 0 231 95t92 228v162q0 209 -170 283q-75 34 -153 34q-161 0 -272 -115 t-111 -286z" />
<glyph unicode="h" horiz-adv-x="1290" d="M143 61v1235q0 31 22.5 48.5t53.5 17.5q30 0 53 -18t23 -48v-446q53 102 158 152.5t229 50.5q122 0 226 -52t171.5 -158.5t67.5 -248.5v-533q0 -34 -19.5 -53.5t-54.5 -19.5q-34 0 -55 20t-21 53v535q0 137 -94.5 228t-222.5 91q-155 0 -270 -98.5t-115 -251.5v-504 q0 -34 -19.5 -53.5t-54.5 -19.5t-56.5 19.5t-21.5 53.5z" />
<glyph unicode="i" horiz-adv-x="436" d="M141 1200v92q0 33 23 51.5t53 18.5q32 0 55 -18.5t23 -51.5v-92q0 -33 -23 -51.5t-55 -18.5t-54 18.5t-22 51.5zM143 55v916q0 32 23 49.5t53 17.5t52 -17t22 -48v-918q0 -32 -22 -49.5t-52 -17.5q-32 0 -54 17.5t-22 49.5z" />
<glyph unicode="j" horiz-adv-x="436" d="M-27 -299q0 42 45 68q37 20 61 45t37 46.5t19 57.5t7 59t1 71v11v912q0 32 23 49.5t53 17.5t52 -17t22 -48v-946q0 -65 -7 -112.5t-27.5 -101t-66 -97.5t-114.5 -78q-14 -7 -33 -7q-31 0 -51.5 20.5t-20.5 49.5zM141 1200v92q0 33 23 51.5t53 18.5q32 0 55 -18.5 t23 -51.5v-92q0 -33 -23 -51.5t-55 -18.5t-54 18.5t-22 51.5z" />
<glyph unicode="k" horiz-adv-x="1021" d="M143 59v1239q0 29 22 46.5t52 17.5q31 0 53.5 -17.5t22.5 -46.5v-751l141 139l361 336q25 25 59 25q30 0 52 -21t22 -49q0 -30 -27 -57l-375 -347l422 -464q21 -27 21 -52q0 -29 -22 -49t-52 -20q-41 0 -64 32l-417 469l-121 -108v-322q0 -33 -23 -52t-53 -19t-52 19 t-22 52z" />
<glyph unicode="l" horiz-adv-x="436" d="M143 57v1235q0 30 21.5 50t54.5 20q31 0 52.5 -20.5t21.5 -49.5v-1235q0 -29 -21.5 -49t-52.5 -20q-33 0 -54.5 19.5t-21.5 49.5z" />
<glyph unicode="m" horiz-adv-x="2140" d="M143 59v492q0 145 67.5 260.5t181.5 178.5t251 63q134 0 247 -61t179 -169q66 108 179 169t247 61q138 0 252 -62t182 -177.5t68 -260.5v-494q0 -34 -19.5 -52.5t-54.5 -18.5q-34 0 -55 19t-21 52v496q0 147 -103 253.5t-249 106.5q-144 0 -247 -104.5t-103 -255.5v-496 q0 -34 -19.5 -52.5t-54.5 -18.5q-34 0 -55 19t-21 52v496q0 147 -103 253.5t-249 106.5q-145 0 -247.5 -106.5t-102.5 -253.5v-496q0 -33 -21 -52t-55 -19q-35 0 -54.5 18.5t-19.5 52.5z" />
<glyph unicode="n" horiz-adv-x="1288" d="M143 59v492q0 145 67.5 260.5t181.5 178.5t251 63q138 0 252 -62t182 -177.5t68 -260.5v-494q0 -34 -19.5 -52.5t-54.5 -18.5q-34 0 -55 19t-21 52v496q0 147 -103 253.5t-249 106.5q-145 0 -247.5 -106.5t-102.5 -253.5v-496q0 -33 -21 -52t-55 -19q-35 0 -54.5 18.5 t-19.5 52.5z" />
<glyph unicode="o" horiz-adv-x="1253" d="M92 514q0 156 71.5 280t193.5 191.5t270 67.5t269.5 -67.5t193 -191.5t71.5 -280t-71.5 -280t-193 -191.5t-269.5 -67.5t-270 67.5t-193.5 191.5t-71.5 280zM244 514q0 -171 111 -286t272 -115t272 115t111 286t-111 286t-272 115t-272 -115t-111 -286z" />
<glyph unicode="p" d="M143 -299v1268q0 34 20.5 52.5t55.5 18.5q70 0 70 -71v-97q49 89 140.5 135t184.5 46q147 0 269 -68t194 -192t72 -279t-72 -279t-194 -192t-269 -68q-106 0 -191 42t-130 122v-438q0 -33 -22 -51.5t-54 -18.5q-30 0 -52 18.5t-22 51.5zM293 430q0 -135 92 -226t231 -91 q163 0 272 111.5t109 289.5t-109 289.5t-272 111.5q-142 0 -232.5 -87.5t-90.5 -235.5v-162z" />
<glyph unicode="q" horiz-adv-x="1243" d="M94 514q0 155 72 279t194 192t269 68q93 0 184.5 -46t140.5 -135v97q0 71 70 71q35 0 55.5 -18.5t20.5 -52.5v-1268q0 -33 -22 -51.5t-52 -18.5q-32 0 -54 18.5t-22 51.5v438q-45 -80 -130 -122t-191 -42q-147 0 -269 68t-194 192t-72 279zM246 514q0 -178 109 -289.5 t272 -111.5q139 0 231 91t92 226v162q0 148 -90.5 235.5t-232.5 87.5q-163 0 -272 -111.5t-109 -289.5z" />
<glyph unicode="r" horiz-adv-x="722" d="M143 59v912q0 32 22.5 50.5t53.5 18.5q29 0 49.5 -18t20.5 -51v-99q46 96 127 138.5t178 42.5q36 0 57 -18.5t21 -53.5q0 -33 -21 -51.5t-57 -18.5q-77 0 -136 -30t-94 -83t-53 -120.5t-18 -147.5v-471q0 -31 -22 -51t-52 -20q-34 0 -55 19.5t-21 51.5z" />
<glyph unicode="s" horiz-adv-x="1105" d="M84 240q0 30 23.5 49.5t54.5 19.5q55 0 67 -59q13 -65 111 -103t219 -38q41 0 92 11.5t102.5 33.5t86 61.5t34.5 89.5q0 44 -26.5 72t-72 41t-104 19.5t-123 11t-129 11t-123 24.5t-104 47t-72 82t-26.5 126q0 78 41.5 140.5t108.5 99t143.5 55.5t153.5 19 q373 0 448 -211q4 -20 4 -27q0 -29 -24.5 -48t-55.5 -19q-49 0 -63 40q-48 132 -309 132q-47 0 -97 -11t-95.5 -32.5t-75 -58t-29.5 -81.5q0 -54 43 -83.5t112 -39.5t152 -14.5t166 -16.5t152 -38t112 -86.5t43 -153.5q0 -74 -32.5 -133t-82 -95t-113.5 -60t-123 -33 t-114 -9q-72 0 -140.5 11t-140 36.5t-123.5 77t-69 123.5q-2 6 -2 17z" />
<glyph unicode="t" horiz-adv-x="792" d="M31 973q0 26 18.5 45.5t50.5 19.5h136v242q0 35 21.5 54.5t51.5 19.5t52 -20t22 -54v-242h223q32 0 51 -19t19 -44q0 -26 -19 -45t-51 -19h-223v-559q0 -50 5.5 -87.5t21 -74.5t48.5 -57t83 -20q33 0 79 16t56 16q28 0 46.5 -20t18.5 -47q0 -28 -20.5 -49.5t-52.5 -32.5 t-64 -16t-63 -5q-305 0 -305 375v561h-136q-33 0 -51 18.5t-18 43.5z" />
<glyph unicode="u" horiz-adv-x="1288" d="M143 475v492q0 34 19.5 52.5t54.5 18.5q34 0 55 -19t21 -52v-494q0 -147 103 -253.5t249 -106.5q145 0 247.5 106.5t102.5 253.5v494q0 33 21 52t55 19q35 0 54.5 -18.5t19.5 -52.5v-490q0 -145 -67.5 -260.5t-181.5 -178.5t-251 -63q-138 0 -252 62t-182 177.5 t-68 260.5z" />
<glyph unicode="v" horiz-adv-x="1175" d="M51 967q0 31 24.5 51t55.5 20q45 0 66 -41q23 -44 393 -782l395 784q19 39 62 39q31 0 54 -17.5t23 -45.5q0 -12 -6 -27l-463 -921q-23 -47 -69 -47q-44 0 -66 45l-465 917q-4 8 -4 25z" />
<glyph unicode="w" horiz-adv-x="1851" d="M51 973q0 30 25.5 47.5t58.5 17.5q48 0 62 -32l338 -775l323 672q25 51 70 51q46 0 71 -51l328 -674l330 768q18 41 65 41q30 0 54 -17.5t24 -45.5q0 -12 -6 -27l-395 -925q-18 -41 -66 -41q-53 0 -71 41l-328 688l-338 -688q-9 -20 -30 -31.5t-44 -11.5q-48 0 -65 43 l-402 925q-4 8 -4 25z" />
<glyph unicode="x" horiz-adv-x="1103" d="M61 59q0 28 25 56l350 411l-332 398q-18 24 -18 47q0 28 23 47.5t53 19.5q34 0 57 -26l318 -394l344 392q25 28 55 28t54 -21t24 -50q0 -17 -13 -37l-364 -404l387 -426q18 -21 18 -47q0 -28 -22 -48.5t-53 -20.5q-33 0 -56 26l-372 428l-344 -420q-23 -30 -60 -30 q-30 0 -52 21t-22 50z" />
<glyph unicode="y" horiz-adv-x="1161" d="M51 965q0 30 25 51.5t57 21.5q42 0 64 -43l387 -772l383 774q20 41 63 41q32 0 56 -19.5t24 -49.5q0 -19 -4 -27l-635 -1259q-25 -52 -76 -52q-29 0 -50 19t-21 49q0 19 8 35l166 338l-441 864q-6 15 -6 29z" />
<glyph unicode="z" horiz-adv-x="1079" d="M61 66q0 34 27 61l692 770q-108 0 -307.5 -1t-306.5 -1q-33 0 -52.5 21t-19.5 49q0 30 19.5 51.5t52.5 21.5h760q35 0 56.5 -21t21.5 -50q0 -32 -25 -60l-696 -770l657 2q35 0 56.5 -21.5t21.5 -49.5t-20 -48t-56 -20h-801q-38 0 -59 19t-21 47z" />
<glyph unicode="{" horiz-adv-x="612" d="M72 504q0 27 14.5 46.5t42.5 22.5q22 1 38 8.5t25.5 22.5t15.5 28.5t8 37.5t2.5 38t0.5 42v10v307q0 56 4.5 96t20 80t42.5 64.5t73.5 39.5t111.5 15q32 0 51 -21t19 -49t-18.5 -47.5t-51.5 -19.5q-64 0 -84 -33.5t-20 -126.5v-299v-31v-35t-1.5 -32t-4.5 -35t-7.5 -29.5 t-12 -31.5t-18 -25t-25 -25t-32.5 -18q18 -8 32.5 -17.5t25 -25t18 -25.5t12 -32t7.5 -30.5t4.5 -35.5t1.5 -32v-35v-31v-287q0 -93 20 -126.5t84 -33.5q33 0 51.5 -20t18.5 -47q0 -28 -19 -49t-51 -21q-65 0 -111.5 15t-73.5 39.5t-42.5 64.5t-20 80t-4.5 96v295 q0 96 -12 129q-20 52 -78 57q-28 1 -42.5 22t-14.5 50z" />
<glyph unicode="|" horiz-adv-x="600" d="M225 -182v1472q0 31 22 51.5t52 20.5q35 0 55.5 -19.5t20.5 -52.5v-1472q0 -33 -20 -51.5t-56 -18.5q-31 0 -52.5 19t-21.5 51z" />
<glyph unicode="}" horiz-adv-x="612" d="M72 -274q0 27 18 47t51 20q64 0 84.5 34t20.5 126v287v31v35t1 32.5t4 35t7.5 31t12 31.5t18 25.5t25 24.5t32.5 18q-18 8 -32.5 18t-25 24.5t-18 25.5t-12 31t-7.5 30.5t-4 34.5t-1 32v34.5v31.5v299q0 92 -20.5 126t-84.5 34q-33 0 -51 19.5t-18 47.5t18.5 49t50.5 21 q65 0 111.5 -15t73.5 -39.5t42.5 -64.5t20 -80t4.5 -96v-307q0 -98 13 -131q21 -52 77 -56q28 -3 43 -22.5t15 -46.5q0 -28 -15 -49.5t-43 -22.5q-22 -2 -38 -9.5t-25.5 -22.5t-15.5 -28t-8 -37t-2.5 -37.5t-0.5 -41.5v-10v-295q0 -56 -4.5 -96t-20 -80t-42.5 -64.5 t-73.5 -39.5t-111.5 -15q-32 0 -50.5 21t-18.5 49z" />
<glyph unicode="~" horiz-adv-x="1007" d="M23 502q21 118 79 167.5t152 49.5q70 0 144.5 -26.5t158.5 -67t139 -56.5q61 -13 98.5 8t51.5 85q6 43 43.5 56t70 -10.5t25.5 -70.5q-15 -104 -76 -158.5t-155 -54.5q-58 0 -128 25t-124.5 55t-122.5 55t-123 25q-35 0 -64 -25.5t-36 -79.5q-6 -31 -29.5 -45t-48.5 -9.5 t-42.5 26t-12.5 51.5z" />
<glyph unicode="&#xa1;" horiz-adv-x="507" d="M174 905v70q0 33 25 51t55 16.5t55 -19.5t25 -48v-70q0 -32 -25 -50.5t-55 -19t-55 18t-25 51.5zM180 -221v903q0 33 24 52t53 18.5t53 -19t24 -51.5v-903q0 -35 -24 -54.5t-53 -19t-53 20t-24 53.5z" />
<glyph unicode="&#xa2;" horiz-adv-x="1114" d="M92 653q0 222 129 370t342 173v49q0 28 21 44t49 16q25 0 45 -16t20 -44v-49q176 -18 316 -172q16 -19 16 -41q0 -27 -23 -48.5t-51 -21.5q-32 0 -51 25q-81 94 -207 117v-791q152 25 230 131q21 27 51 27q28 0 51 -20.5t23 -47.5q0 -25 -21 -49q-128 -155 -334 -178 v-100q0 -32 -19 -50t-44 -18q-29 0 -50.5 18.5t-21.5 49.5v98q-96 11 -181.5 54t-150 110t-102 161.5t-37.5 202.5zM244 649q0 -146 90.5 -252.5t228.5 -130.5v793q-144 -22 -231.5 -135.5t-87.5 -274.5z" />
<glyph unicode="&#xa3;" horiz-adv-x="1040" d="M92 72q0 26 24.5 44.5t61.5 18.5q108 178 111 393h-86q-32 0 -50 17t-18 41q0 25 18.5 43t49.5 18h65q-14 42 -49 110t-56.5 127t-21.5 117q0 79 34 141t91.5 98.5t127 55.5t145.5 19q173 0 286 -72t113 -166q0 -29 -24.5 -48t-55.5 -19q-46 0 -63 41q-27 64 -95 97.5 t-161 33.5q-101 0 -174.5 -48.5t-73.5 -134.5q0 -50 23.5 -105t56.5 -121.5t47 -125.5h235q32 0 50 -18t18 -43q0 -24 -18 -41t-50 -17h-221q-1 -89 -16.5 -164.5t-33 -119.5t-50.5 -109h538q37 0 57.5 -17t20.5 -46q0 -28 -21 -50t-57 -22h-700q-39 0 -58.5 20t-19.5 52z " />
<glyph unicode="&#xa5;" horiz-adv-x="1325" d="M49 1264q0 27 21 46t51 19q35 0 61 -33l480 -645l479 647q17 25 51 25q30 0 56 -21t26 -47q0 -17 -10 -30l-451 -604h168q35 0 53.5 -18.5t18.5 -45.5q0 -25 -19.5 -44t-52.5 -19h-248v-107h248q32 0 50 -19t18 -44t-18 -43.5t-50 -18.5h-248v-196q0 -35 -20.5 -54.5 t-48.5 -19.5q-30 0 -51 19.5t-21 54.5v196h-254q-32 0 -50 17.5t-18 42.5q0 26 19 45.5t53 19.5h250v107h-254q-32 0 -50 18t-18 43q0 27 19.5 46.5t52.5 19.5h170l-446 598q-17 20 -17 45z" />
<glyph unicode="&#xa7;" horiz-adv-x="995" d="M92 834q0 66 24.5 119.5t63.5 86.5t89 56t98.5 32t95.5 9q61 0 116.5 -9.5t113.5 -32.5t99 -70.5t56 -115.5q2 -6 2 -14q0 -28 -20 -47t-46 -19q-48 0 -59 56q-8 41 -47 71t-94.5 44t-120.5 14q-49 0 -101.5 -16.5t-96.5 -59.5t-44 -104q0 -54 37 -84.5t96.5 -40.5 t131 -15t143 -15.5t131 -33.5t96.5 -77.5t37 -139.5q0 -138 -121 -217q131 -62 131 -221q0 -69 -28 -124.5t-70.5 -88.5t-98 -55t-106 -30.5t-98.5 -8.5t-94.5 5.5t-99 21.5t-94 40.5t-74 66.5t-44.5 97q-2 6 -2 14q0 28 20 47t46 19q48 0 59 -55q11 -61 96 -98.5t187 -37.5 q35 0 79 11.5t88.5 32.5t74.5 59t30 84q0 54 -37 84.5t-96.5 40.5t-131 14.5t-143 15.5t-131 33.5t-96.5 77t-37 139.5q0 134 119 217q-129 63 -129 222zM231 393q0 -51 38.5 -80.5t95.5 -39t143 -9.5q106 0 181 41.5t75 124.5q0 38 -21 64.5t-61 40t-86.5 19t-108.5 5.5 q-112 0 -184 -41t-72 -125z" />
<glyph unicode="&#xa8;" horiz-adv-x="585" d="M20 1262q0 37 28 61.5t65 24.5q33 0 61.5 -25t28.5 -61q0 -44 -27.5 -67.5t-62.5 -23.5q-37 0 -65 26t-28 65zM381 1262q0 37 27.5 61.5t64.5 24.5q35 0 63.5 -24.5t28.5 -61.5q0 -44 -27.5 -67.5t-64.5 -23.5q-36 0 -64 26t-28 65z" />
<glyph unicode="&#xa9;" horiz-adv-x="1261" d="M92 635q0 143 72 265.5t196.5 194.5t270.5 72q147 0 271 -72t195.5 -194.5t71.5 -265.5q0 -109 -42.5 -208t-114 -171.5t-171.5 -115t-210 -42.5q-109 0 -209 42.5t-172 115t-115 171.5t-43 208zM203 635q0 -119 58 -219t156.5 -157.5t213.5 -57.5q180 0 304 126t124 308 q0 180 -124 306t-304 126q-176 0 -302 -126.5t-126 -305.5zM369 631q0 104 75 184t185 80q54 0 104 -21t82 -59q21 -25 21 -43q0 -70 -70 -70q-30 0 -53 23q-36 39 -84 39q-53 0 -87 -38.5t-34 -96.5q0 -51 35.5 -90t87.5 -39q60 0 96 45q7 10 24.5 18t32.5 8 q27 0 49.5 -15.5t22.5 -45.5q0 -55 -63.5 -99t-157.5 -44q-107 0 -186.5 77.5t-79.5 186.5z" />
<glyph unicode="&#xaa;" horiz-adv-x="980" d="M76 958q0 176 116.5 290t284.5 114q79 0 143 -31.5t97 -91.5v61q0 25 16.5 38.5t40.5 13.5q23 0 39 -13.5t16 -38.5v-682q0 -55 -57 -55q-51 0 -51 55v72q-37 -67 -105.5 -101t-138.5 -34q-169 0 -285 113.5t-116 289.5zM188 958q0 -133 82.5 -217t204.5 -84 q106 0 174 66t68 178v121q0 102 -69 170t-173 68q-122 0 -204.5 -84t-82.5 -218z" />
<glyph unicode="&#xab;" horiz-adv-x="1042" d="M92 530q0 29 35 64l338 330q20 20 51 20q29 0 51.5 -21.5t22.5 -50.5q0 -23 -25 -51l-299 -289l299 -288q25 -22 25 -51q0 -30 -20 -51t-54 -21q-31 0 -57 26l-336 324q-31 28 -31 59zM453 530q0 30 34 64l338 330q20 20 52 20q29 0 51 -21.5t22 -50.5q0 -24 -24 -51 l-299 -289l299 -288q24 -21 24 -51q0 -31 -19.5 -51.5t-53.5 -20.5q-32 0 -58 26l-336 324q-30 27 -30 59z" />
<glyph unicode="&#xac;" horiz-adv-x="237" d="M20 612q0 41 29 69t72 28q42 0 69 -27.5t27 -69.5q0 -41 -26.5 -66.5t-69.5 -25.5t-72 25.5t-29 66.5z" />
<glyph unicode="&#xad;" horiz-adv-x="747" d="M88 606q0 28 20.5 49t55.5 21h414q36 0 56.5 -21t20.5 -49t-19.5 -47.5t-57.5 -19.5h-414q-36 0 -56 19.5t-20 47.5z" />
<glyph unicode="&#xae;" horiz-adv-x="1261" d="M92 635q0 143 72 265.5t196.5 194.5t270.5 72q147 0 271 -72t195.5 -194.5t71.5 -265.5q0 -109 -42.5 -208t-114 -171.5t-171.5 -115t-210 -42.5q-109 0 -209 42.5t-172 115t-115 171.5t-43 208zM203 635q0 -119 58 -219t156.5 -157.5t213.5 -57.5q180 0 304 126t124 308 q0 180 -124 306t-304 126q-176 0 -302 -126.5t-126 -305.5zM477 446v369q-2 29 17 47.5t51 18.5q26 0 45 -19t18 -59v-23q25 45 68 75t82 30q29 0 50 -18t21 -48q0 -26 -19.5 -45.5t-51.5 -19.5q-64 0 -102 -43t-38 -111v-154q0 -30 -20 -48.5t-53 -18.5q-32 0 -50 18 t-18 49z" />
<glyph unicode="&#xaf;" horiz-adv-x="608" d="M20 1239q0 28 20.5 49t55.5 21h414q36 0 57 -21t21 -49t-20 -48t-58 -20h-414q-36 0 -56 20t-20 48z" />
<glyph unicode="&#xb0;" horiz-adv-x="542" d="M92 1180q0 72 52.5 122t127.5 50q74 0 126.5 -50t52.5 -122q0 -74 -52.5 -125t-126.5 -51q-75 0 -127.5 50.5t-52.5 125.5zM205 1182q0 -29 20.5 -51.5t48.5 -22.5q26 0 47 20t21 52q0 29 -21 48t-47 19q-28 0 -48.5 -19.5t-20.5 -45.5z" />
<glyph unicode="&#xb1;" horiz-adv-x="1021" d="M92 66q0 30 17.5 51.5t46.5 21.5h706q31 0 49.5 -20.5t18.5 -48.5t-18 -49t-50 -21h-706q-30 0 -47 19.5t-17 46.5zM92 608q0 30 17.5 52t46.5 22h284v283q0 31 21 49t49 18q29 0 49.5 -17.5t20.5 -49.5v-283h282q31 0 49.5 -21t18.5 -49t-18 -48.5t-50 -20.5h-282v-285 q0 -30 -19.5 -46.5t-46.5 -16.5q-30 0 -52 17t-22 46v285h-284q-30 0 -47 19t-17 46z" />
<glyph unicode="&#xb2;" horiz-adv-x="710" d="M92 645q0 21 21 39l327 248q34 25 55 63t21 78q0 69 -46 108.5t-112 39.5q-145 0 -159 -121q-5 -37 -45 -37q-20 0 -36 12t-16 33q0 90 80 148.5t176 58.5q102 0 179 -69t77 -177q0 -59 -32 -114.5t-82 -94.5l-133 -104l-111 -74l123 4h196q21 0 32 -14.5t11 -34.5 q0 -45 -40 -45h-433q-24 3 -38.5 18.5t-14.5 34.5z" />
<glyph unicode="&#xb3;" horiz-adv-x="710" d="M92 774v10q0 25 15.5 39.5t35.5 14.5q38 0 41 -35q7 -133 176 -133q73 0 117.5 48t44.5 113q0 57 -39.5 103.5t-97.5 46.5q-15 0 -40 -10t-36 -10q-21 0 -36 15t-15 36q0 27 16 37l179 163h-295q-21 0 -32 13t-11 32q0 20 11 34t32 14h393q21 0 35 -15t14 -37 q0 -25 -16 -41l-140 -137l-24 -14q91 0 144.5 -66t53.5 -159q0 -107 -73 -182.5t-185 -75.5q-107 0 -180.5 46.5t-87.5 149.5z" />
<glyph unicode="&#xb4;" horiz-adv-x="337" d="M20 1233q0 19 11 35l149 182q25 37 66 37q28 0 49.5 -20t21.5 -46q0 -24 -18 -45l-166 -180q-25 -25 -53 -25q-26 0 -43 18.5t-17 43.5z" />
<glyph unicode="&#xb5;" horiz-adv-x="1605" d="M123 684q0 44 45 72l858 553q32 19 59 11t43 -34q17 -22 12 -52.5t-34 -49.5l-670 -426h971q36 0 56 -22t20 -54q0 -31 -20.5 -54.5t-55.5 -23.5h-975l674 -420q29 -19 34 -49.5t-12 -52.5q-16 -26 -43 -34t-59 11l-858 553q-45 28 -45 72z" />
<glyph unicode="&#xb6;" horiz-adv-x="1093" d="M92 993q0 126 93.5 219t220.5 93h520q34 0 54.5 -20t20.5 -54q0 -33 -20.5 -51.5t-54.5 -18.5h-56v-1300q0 -29 -19.5 -49.5t-53.5 -20.5t-56 20.5t-22 49.5v1300h-256v-1300q0 -29 -20 -49.5t-54 -20.5q-33 0 -54.5 20.5t-21.5 49.5v835q-98 28 -159.5 110.5 t-61.5 186.5z" />
<glyph unicode="&#xb7;" horiz-adv-x="380" d="M92 612q0 41 29 69t72 28q42 0 69 -27.5t27 -69.5q0 -41 -26.5 -66.5t-69.5 -25.5t-72 25.5t-29 66.5z" />
<glyph unicode="&#xb8;" horiz-adv-x="491" d="M20 -301q0 27 18 43t42 16q28 0 51 -41q18 -31 54.5 -47t76.5 -16q42 0 69 19.5t27 54.5q0 37 -32.5 56t-77.5 19q-31 0 -51 -10l-54 57l47 150h121l-39 -106h19q79 0 129.5 -47.5t50.5 -106.5q0 -89 -67 -137.5t-160 -48.5q-47 0 -97 15.5t-88.5 50t-38.5 79.5z" />
<glyph unicode="&#xb9;" horiz-adv-x="446" d="M92 1057q0 12 4 18l160 219q15 21 43 21q23 0 39 -13.5t16 -37.5v-641q0 -16 -14 -25.5t-33 -9.5q-20 0 -33.5 9t-13.5 26v510q-6 -8 -21.5 -31t-24.5 -35t-22.5 -28t-24.5 -23.5t-20 -7.5q-22 0 -38.5 15t-16.5 34z" />
<glyph unicode="&#xba;" horiz-adv-x="950" d="M74 958q0 177 115.5 290.5t285.5 113.5t286 -113.5t116 -290.5t-116 -290t-286 -113t-285.5 113t-115.5 290zM188 958q0 -128 83 -214.5t204 -86.5t204 86.5t83 214.5t-83 215t-204 87t-204 -87t-83 -215z" />
<glyph unicode="&#xbb;" horiz-adv-x="1042" d="M92 193q0 29 25 51l299 288l-299 289q-25 22 -25 51t22.5 50.5t51.5 21.5q31 0 51 -20l338 -330q35 -35 35 -64q0 -31 -31 -59l-336 -324q-26 -26 -57 -26q-34 0 -54 21t-20 51zM453 193q0 30 24 51l299 288l-299 289q-24 21 -24 51q0 29 22 50.5t51 21.5q32 0 52 -20 l337 -330q35 -35 35 -64q0 -32 -30 -59l-336 -324q-26 -26 -58 -26q-34 0 -53.5 20.5t-19.5 51.5z" />
<glyph unicode="&#xbc;" horiz-adv-x="1267" d="M92 1057q0 12 4 18l160 219q15 21 43 21q23 0 39 -13.5t16 -37.5v-641q0 -16 -14 -25.5t-33 -9.5q-20 0 -33.5 9t-13.5 26v510q-6 -8 -21.5 -31t-24.5 -35t-22.5 -28t-24.5 -23.5t-20 -7.5q-22 0 -38.5 15t-16.5 34zM227 190q-6 -21 5.5 -38.5t29.5 -22.5q33 -8 53 18 l785 1014q2 5 4.5 11.5t3.5 7.5q4 22 -8.5 38t-34.5 21q-31 7 -47 -14l-785 -1014q-6 -15 -6 -21zM662 207q0 18 12 39l272 465l-2 -2q5 16 27 16q20 0 37.5 -15t17.5 -36q0 -15 -4 -21l-246 -403h305v432q0 21 13 34t34 13q20 0 34 -13.5t14 -33.5v-645q0 -17 -14.5 -26 t-33.5 -9q-47 0 -47 35v121h-358q-29 0 -45 13.5t-16 35.5z" />
<glyph unicode="&#xbd;" horiz-adv-x="1306" d="M92 1057q0 12 4 18l160 219q15 21 43 21q23 0 39 -13.5t16 -37.5v-641q0 -16 -14 -25.5t-33 -9.5q-20 0 -33.5 9t-13.5 26v510q-6 -8 -21.5 -31t-24.5 -35t-22.5 -28t-24.5 -23.5t-20 -7.5q-22 0 -38.5 15t-16.5 34zM176 190q-6 -21 5.5 -38.5t29.5 -22.5q33 -8 53 18 l785 1014q2 5 4.5 11.5t3.5 7.5q4 22 -8.5 38t-34.5 21q-31 7 -47 -14l-785 -1014q-6 -15 -6 -21zM688 53q0 21 21 39l327 248q34 25 55 63t21 78q0 69 -46 108.5t-112 39.5q-145 0 -159 -121q-5 -37 -45 -37q-20 0 -36 12t-16 33q0 90 80 148.5t176 58.5q102 0 179 -69 t77 -177q0 -59 -32 -114.5t-82 -94.5l-133 -104l-111 -74l123 4h196q21 0 32 -14.5t11 -34.5q0 -45 -40 -45h-433q-24 3 -38.5 18.5t-14.5 34.5z" />
<glyph unicode="&#xbe;" horiz-adv-x="1368" d="M92 774v10q0 25 15.5 39.5t35.5 14.5q38 0 41 -35q7 -133 176 -133q73 0 117.5 48t44.5 113q0 57 -39.5 103.5t-97.5 46.5q-15 0 -40 -10t-36 -10q-21 0 -36 15t-15 36q0 27 16 37l179 163h-295q-21 0 -32 13t-11 32q0 20 11 34t32 14h393q21 0 35 -15t14 -37 q0 -25 -16 -41l-140 -137l-24 -14q91 0 144.5 -66t53.5 -159q0 -107 -73 -182.5t-185 -75.5q-107 0 -180.5 46.5t-87.5 149.5zM326 190q-6 -21 5 -38.5t29 -22.5q33 -8 54 18l784 1014q2 5 4.5 11.5t3.5 7.5q4 22 -8.5 38t-34.5 21q-31 7 -47 -14l-784 -1014q-6 -15 -6 -21z M762 207q0 18 12 39l273 465l-3 -2q5 16 27 16q20 0 37.5 -15t17.5 -36q0 -15 -4 -21l-245 -403h305v432q0 21 13 34t34 13q20 0 33.5 -13.5t13.5 -33.5v-645q0 -17 -14 -26t-33 -9q-47 0 -47 35v121h-359q-29 0 -45 13.5t-16 35.5z" />
<glyph unicode="&#xbf;" horiz-adv-x="1116" d="M92 102q0 76 26 136t67 97.5t91 68t100.5 55t91.5 49.5t67 61t26 82v49q0 30 23 48t53 18t51 -17.5t21 -48.5v-51q0 -69 -26 -121.5t-67 -85t-90.5 -59.5t-99.5 -51.5t-91 -52t-67 -71t-26 -99.5q0 -74 30.5 -132t81 -91.5t109 -50.5t119.5 -17q53 0 100 8.5t95.5 29 t85.5 61.5t55 99q12 39 57 39q31 0 55.5 -18t24.5 -47q0 -5 -4 -21q-22 -67 -61.5 -118t-86 -82t-104 -50.5t-110 -26.5t-109.5 -7q-69 0 -137 15.5t-132 48.5t-112.5 81t-77.5 118t-29 154zM549 903v53q0 32 24.5 50t57.5 18q35 0 61.5 -18.5t26.5 -49.5v-53 q0 -32 -25.5 -50.5t-60.5 -18.5t-59.5 18t-24.5 51z" />
<glyph unicode="&#xc0;" horiz-adv-x="1454" d="M41 55q0 16 8 29l613 1206q17 39 67 39q46 0 66 -39l610 -1202q8 -16 8 -35q0 -29 -22.5 -47t-53.5 -18q-49 0 -69 41l-154 307h-770l-160 -311q-16 -37 -61 -37q-32 0 -57 19.5t-25 47.5zM406 465h645l-322 645zM565 1615q0 30 23.5 51t54.5 21q40 0 62 -35l153 -192 q11 -16 11 -35q0 -25 -19.5 -44.5t-46.5 -19.5t-53 23l-166 184q-19 22 -19 47z" />
<glyph unicode="&#xc1;" horiz-adv-x="1454" d="M41 55q0 16 8 29l613 1206q17 39 67 39q46 0 66 -39l610 -1202q8 -16 8 -35q0 -29 -22.5 -47t-53.5 -18q-49 0 -69 41l-154 307h-770l-160 -311q-16 -37 -61 -37q-32 0 -57 19.5t-25 47.5zM406 465h645l-322 645zM579 1423q0 19 11 35l149 182q25 37 66 37q28 0 49.5 -20 t21.5 -46q0 -24 -18 -45l-166 -180q-25 -25 -53 -25q-26 0 -43 18.5t-17 43.5z" />
<glyph unicode="&#xc2;" horiz-adv-x="1454" d="M41 55q0 16 8 29l613 1206q17 39 67 39q46 0 66 -39l610 -1202q8 -16 8 -35q0 -29 -22.5 -47t-53.5 -18q-49 0 -69 41l-154 307h-770l-160 -311q-16 -37 -61 -37q-32 0 -57 19.5t-25 47.5zM406 465h645l-322 645zM489 1420q0 28 23 51l158 147q23 23 57 27q30 0 57 -27 l160 -147q23 -23 23 -47q0 -25 -20 -42.5t-46 -17.5q-23 0 -45 19l-129 115l-133 -117q-22 -19 -45 -19t-41.5 17.5t-18.5 40.5z" />
<glyph unicode="&#xc3;" horiz-adv-x="1454" d="M41 55q0 16 8 29l613 1206q17 39 67 39q46 0 66 -39l610 -1202q8 -16 8 -35q0 -29 -22.5 -47t-53.5 -18q-49 0 -69 41l-154 307h-770l-160 -311q-16 -37 -61 -37q-32 0 -57 19.5t-25 47.5zM406 465h645l-322 645zM440 1419q0 45 51 92.5t121 47.5q51 0 129 -39t101 -39 q19 0 35 20t33 40t38 20q30 0 50 -20t20 -48q0 -34 -47 -82.5t-113 -48.5q-50 0 -92 18.5t-78 37t-70 18.5q-25 0 -58 -37t-60 -37q-25 0 -42.5 15.5t-17.5 41.5z" />
<glyph unicode="&#xc4;" horiz-adv-x="1454" d="M41 55q0 16 8 29l613 1206q17 39 67 39q46 0 66 -39l610 -1202q8 -16 8 -35q0 -29 -22.5 -47t-53.5 -18q-49 0 -69 41l-154 307h-770l-160 -311q-16 -37 -61 -37q-32 0 -57 19.5t-25 47.5zM406 465h645l-322 645zM436 1452q0 37 28 61.5t65 24.5q33 0 61.5 -25t28.5 -61 q0 -44 -27.5 -67.5t-62.5 -23.5q-37 0 -65 26t-28 65zM797 1452q0 37 27.5 61.5t64.5 24.5q35 0 63.5 -24.5t28.5 -61.5q0 -44 -27.5 -67.5t-64.5 -23.5q-36 0 -64 26t-28 65z" />
<glyph unicode="&#xc5;" horiz-adv-x="1454" d="M41 55q0 16 8 29l613 1206q17 39 67 39q46 0 66 -39l610 -1202q8 -16 8 -35q0 -29 -22.5 -47t-53.5 -18q-49 0 -69 41l-154 307h-770l-160 -311q-16 -37 -61 -37q-32 0 -57 19.5t-25 47.5zM406 465h645l-322 645zM549 1503q0 72 52.5 122t127.5 50q74 0 126 -50t52 -122 q0 -74 -52 -125t-126 -51q-75 0 -127.5 50.5t-52.5 125.5zM643 1503q0 -35 25.5 -60.5t60.5 -25.5t60.5 25.5t25.5 60.5t-25.5 60.5t-60.5 25.5t-60.5 -25.5t-25.5 -60.5z" />
<glyph unicode="&#xc6;" horiz-adv-x="2058" d="M32.5 34.5q-0.5 23.5 14.5 47.5l948 1188q20 33 64 33h45h805q27 0 44 -14t20 -34t-2 -40t-22.5 -34t-41.5 -14h-750v-454h713q31 0 50 -21t20.5 -46.5t-17 -46.5t-53.5 -21h-713v-439h750q31 0 49 -21.5t18 -48t-18 -48t-49 -21.5h-803q-41 0 -67.5 26.5t-26.5 63.5v262 h-566l-278 -350q-17 -22 -41 -29.5t-43 0t-34 23t-15.5 39zM545 479h465v598z" />
<glyph unicode="&#xc7;" horiz-adv-x="1370" d="M92 651q0 193 86.5 348t236.5 241.5t335 86.5q146 0 278 -51t229 -152q19 -22 19 -43q0 -29 -24 -50t-54 -21q-25 0 -47 22q-151 156 -399 156q-143 0 -258 -66t-181.5 -189t-66.5 -282q0 -240 144 -388t364 -148q111 0 226.5 53t186.5 145q18 27 52 27q30 0 54.5 -21 t24.5 -51q0 -19 -12 -37q-85 -119 -234.5 -187.5t-297.5 -68.5q-187 0 -338 86.5t-237.5 241.5t-86.5 348zM526 -301q0 27 18 43t42 16q28 0 51 -41q18 -31 54.5 -47t76.5 -16q42 0 69 19.5t27 54.5q0 37 -32.5 56t-77.5 19q-31 0 -51 -10l-54 57l47 150h121l-39 -106h19 q79 0 129.5 -47.5t50.5 -106.5q0 -89 -67 -137.5t-160 -48.5q-47 0 -97 15.5t-88.5 50t-38.5 79.5z" />
<glyph unicode="&#xc8;" horiz-adv-x="1271" d="M164 90v1124q0 36 26 62.5t68 26.5h864q30 0 47 -19t17 -45q0 -28 -17.5 -48t-48.5 -20h-809v-460h770q29 0 46.5 -20t17.5 -48q0 -25 -17 -44t-47 -19h-770v-445h809q32 0 51 -22t19 -50q0 -27 -18 -45t-52 -18h-862q-42 0 -68 26t-26 64zM483 1616q0 30 23.5 51 t54.5 21q40 0 62 -35l153 -193q10 -15 10 -35q0 -25 -19 -44t-46 -19q-28 0 -53 22l-166 185q-19 22 -19 47z" />
<glyph unicode="&#xc9;" horiz-adv-x="1271" d="M164 90v1124q0 36 26 62.5t68 26.5h864q30 0 47 -19t17 -45q0 -28 -17.5 -48t-48.5 -20h-809v-460h770q29 0 46.5 -20t17.5 -48q0 -25 -17 -44t-47 -19h-770v-445h809q32 0 51 -22t19 -50q0 -27 -18 -45t-52 -18h-862q-42 0 -68 26t-26 64zM590 1423q0 20 10 35l150 182 q25 37 65 37q28 0 50 -19.5t22 -45.5q0 -23 -19 -45l-166 -181q-24 -24 -53 -24q-26 0 -42.5 18t-16.5 43z" />
<glyph unicode="&#xca;" horiz-adv-x="1271" d="M164 90v1124q0 36 26 62.5t68 26.5h864q30 0 47 -19t17 -45q0 -28 -17.5 -48t-48.5 -20h-809v-460h770q29 0 46.5 -20t17.5 -48q0 -25 -17 -44t-47 -19h-770v-445h809q32 0 51 -22t19 -50q0 -27 -18 -45t-52 -18h-862q-42 0 -68 26t-26 64zM459 1419q0 29 22 51l158 148 q23 23 57 27q31 0 58 -27l159 -148q23 -23 23 -47t-19.5 -41.5t-46.5 -17.5q-24 0 -45 18l-129 115l-133 -117q-21 -18 -45 -18q-23 0 -41 17t-18 40z" />
<glyph unicode="&#xcb;" horiz-adv-x="1271" d="M164 90v1124q0 36 26 62.5t68 26.5h864q30 0 47 -19t17 -45q0 -28 -17.5 -48t-48.5 -20h-809v-460h770q29 0 46.5 -20t17.5 -48q0 -25 -17 -44t-47 -19h-770v-445h809q32 0 51 -22t19 -50q0 -27 -18 -45t-52 -18h-862q-42 0 -68 26t-26 64zM408 1452q0 37 27.5 61.5 t64.5 24.5q33 0 61.5 -25t28.5 -61q0 -44 -27.5 -67t-62.5 -23q-37 0 -64.5 25.5t-27.5 64.5zM768 1452q0 37 27.5 61.5t64.5 24.5q35 0 63.5 -24.5t28.5 -61.5q0 -44 -27.5 -67t-64.5 -23t-64.5 25.5t-27.5 64.5z" />
<glyph unicode="&#xcc;" horiz-adv-x="481" d="M88 1616q0 30 23.5 51t54.5 21q39 0 61 -35l154 -193q10 -15 10 -35q0 -25 -19 -44t-46 -19q-29 0 -54 22l-166 185q-18 21 -18 47zM164 63v1176q0 36 22 56t54 20q31 0 54 -20.5t23 -55.5v-1176q0 -36 -21 -55.5t-56 -19.5q-31 0 -53.5 20t-22.5 55z" />
<glyph unicode="&#xcd;" horiz-adv-x="481" d="M92 1423q0 19 11 35l149 182q25 37 66 37q28 0 49.5 -20t21.5 -46q0 -24 -18 -45l-166 -180q-25 -25 -53 -25q-26 0 -43 18.5t-17 43.5zM164 63v1176q0 36 22 56t54 20q31 0 54 -20.5t23 -55.5v-1176q0 -36 -21 -55.5t-56 -19.5q-31 0 -53.5 20t-22.5 55z" />
<glyph unicode="&#xce;" horiz-adv-x="481" d="M2 1419q0 28 23 51l157 148q23 23 58 27q30 0 57 -27l160 -148q22 -22 22 -47t-19.5 -42t-45.5 -17q-24 0 -45 18l-129 115l-134 -117q-21 -18 -45 -18q-23 0 -41 17t-18 40zM164 63v1176q0 36 22 56t54 20q31 0 54 -20.5t23 -55.5v-1176q0 -36 -21 -55.5t-56 -19.5 q-31 0 -53.5 20t-22.5 55z" />
<glyph unicode="&#xcf;" horiz-adv-x="481" d="M-52 1452q0 37 28 61.5t65 24.5q33 0 61.5 -25t28.5 -61q0 -44 -27.5 -67.5t-62.5 -23.5q-37 0 -65 26t-28 65zM164 63v1176q0 36 22 56t54 20q31 0 54 -20.5t23 -55.5v-1176q0 -36 -21 -55.5t-56 -19.5q-31 0 -53.5 20t-22.5 55zM309 1452q0 37 27.5 61.5t64.5 24.5 q35 0 63.5 -24.5t28.5 -61.5q0 -44 -27.5 -67.5t-64.5 -23.5q-36 0 -64 26t-28 65z" />
<glyph unicode="&#xd0;" horiz-adv-x="1406" d="M20 647q0 25 19.5 43.5t54.5 18.5h70v508q0 35 28 60.5t66 25.5h447q119 0 220 -36.5t171.5 -99t120.5 -146t74 -177.5t24 -193t-24 -193t-74 -177t-120.5 -145.5t-171.5 -99t-220 -36.5h-447q-38 0 -66 26.5t-28 61.5v496h-70q-35 0 -54.5 18.5t-19.5 44.5zM313 135h392 q111 0 200.5 44t145 117.5t85 164.5t29.5 190t-29.5 190.5t-85 166t-145 119t-200.5 44.5h-392v-462h160q32 0 50 -19.5t18 -44.5t-18 -43t-50 -18h-160v-449z" />
<glyph unicode="&#xd1;" horiz-adv-x="1417" d="M164 63v1162q0 42 24 66t58 24q46 0 84 -47l788 -1051l-20 311v721q0 31 23.5 48.5t56.5 17.5q30 0 52.5 -17t22.5 -49v-1173q0 -42 -28 -65t-66 -23q-63 0 -90 47l-766 1022l16 -277v-717q0 -36 -22.5 -55.5t-54.5 -19.5t-55 19.5t-23 55.5zM419 1419q0 45 51.5 92 t121.5 47q51 0 128.5 -39t100.5 -39q19 0 35 20t33 40t38 20q30 0 50 -19.5t20 -47.5q0 -34 -47 -83t-113 -49q-50 0 -92 18.5t-77.5 37t-69.5 18.5q-25 0 -58.5 -37t-60.5 -37q-25 0 -42.5 16t-17.5 42z" />
<glyph unicode="&#xd2;" horiz-adv-x="1503" d="M92 651q0 193 86.5 348t237 241.5t336.5 86.5t336.5 -86.5t236.5 -241.5t86 -348t-86 -348t-236.5 -241.5t-336.5 -86.5t-336.5 86.5t-237 241.5t-86.5 348zM246 651q0 -119 39 -220t106.5 -170t160.5 -107.5t200 -38.5t200 38.5t160.5 107.5t106 170t38.5 220 q0 240 -143.5 388.5t-361.5 148.5q-143 0 -258 -66t-181.5 -189t-66.5 -282zM600 1615q0 30 23.5 51t54.5 21q40 0 62 -35l153 -192q11 -16 11 -35q0 -25 -19.5 -44.5t-46.5 -19.5t-53 23l-166 184q-19 22 -19 47z" />
<glyph unicode="&#xd3;" horiz-adv-x="1503" d="M92 651q0 193 86.5 348t237 241.5t336.5 86.5t336.5 -86.5t236.5 -241.5t86 -348t-86 -348t-236.5 -241.5t-336.5 -86.5t-336.5 86.5t-237 241.5t-86.5 348zM246 651q0 -119 39 -220t106.5 -170t160.5 -107.5t200 -38.5t200 38.5t160.5 107.5t106 170t38.5 220 q0 240 -143.5 388.5t-361.5 148.5q-143 0 -258 -66t-181.5 -189t-66.5 -282zM602 1423q0 19 11 35l149 182q25 37 66 37q28 0 49.5 -20t21.5 -46q0 -24 -18 -45l-166 -180q-25 -25 -53 -25q-26 0 -43 18.5t-17 43.5z" />
<glyph unicode="&#xd4;" horiz-adv-x="1503" d="M92 651q0 193 86.5 348t237 241.5t336.5 86.5t336.5 -86.5t236.5 -241.5t86 -348t-86 -348t-236.5 -241.5t-336.5 -86.5t-336.5 86.5t-237 241.5t-86.5 348zM246 651q0 -119 39 -220t106.5 -170t160.5 -107.5t200 -38.5t200 38.5t160.5 107.5t106 170t38.5 220 q0 240 -143.5 388.5t-361.5 148.5q-143 0 -258 -66t-181.5 -189t-66.5 -282zM485 1419q0 28 23 51l158 148q23 23 57 27q30 0 57 -27l160 -148q23 -23 23 -47t-19.5 -41.5t-46.5 -17.5q-24 0 -45 18l-129 115l-133 -117q-21 -18 -45 -18t-42 17t-18 40z" />
<glyph unicode="&#xd5;" horiz-adv-x="1503" d="M92 651q0 193 86.5 348t237 241.5t336.5 86.5t336.5 -86.5t236.5 -241.5t86 -348t-86 -348t-236.5 -241.5t-336.5 -86.5t-336.5 86.5t-237 241.5t-86.5 348zM246 651q0 -119 39 -220t106.5 -170t160.5 -107.5t200 -38.5t200 38.5t160.5 107.5t106 170t38.5 220 q0 240 -143.5 388.5t-361.5 148.5q-143 0 -258 -66t-181.5 -189t-66.5 -282zM462 1419q0 45 51.5 92t121.5 47q51 0 128.5 -39t100.5 -39q19 0 35 20t33 40t38 20q30 0 50 -19.5t20 -47.5q0 -34 -47 -83t-113 -49q-50 0 -92 18.5t-77.5 37t-69.5 18.5q-25 0 -58.5 -37 t-60.5 -37q-25 0 -42.5 16t-17.5 42z" />
<glyph unicode="&#xd6;" horiz-adv-x="1503" d="M92 651q0 193 86.5 348t237 241.5t336.5 86.5t336.5 -86.5t236.5 -241.5t86 -348t-86 -348t-236.5 -241.5t-336.5 -86.5t-336.5 86.5t-237 241.5t-86.5 348zM246 651q0 -119 39 -220t106.5 -170t160.5 -107.5t200 -38.5t200 38.5t160.5 107.5t106 170t38.5 220 q0 240 -143.5 388.5t-361.5 148.5q-143 0 -258 -66t-181.5 -189t-66.5 -282zM479 1452q0 37 28 61.5t65 24.5q33 0 61.5 -25t28.5 -61q0 -44 -27.5 -67.5t-62.5 -23.5q-37 0 -65 26t-28 65zM840 1452q0 37 27.5 61.5t64.5 24.5q35 0 63.5 -24.5t28.5 -61.5 q0 -44 -27.5 -67.5t-64.5 -23.5q-36 0 -64 26t-28 65z" />
<glyph unicode="&#xd7;" horiz-adv-x="1021" d="M191 649.5q2 26.5 22 46.5t45.5 22t50.5 -20l201 -200l201 200q23 22 49.5 20t46.5 -22t22 -45.5t-20 -50.5l-201 -201l201 -200q22 -25 20.5 -49.5t-20.5 -43.5q-22 -22 -48.5 -25t-49.5 19l-201 201l-201 -201q-25 -22 -49 -20.5t-43 20.5q-22 22 -25 49t19 50l201 200 l-201 201q-22 23 -20 49.5z" />
<glyph unicode="&#xd8;" horiz-adv-x="1503" d="M90 72q0 26 23 49l112 110q-133 179 -133 420q0 193 86.5 348t237 241.5t336.5 86.5q248 0 426 -151l112 110q21 21 47 21q27 0 49.5 -21.5t22.5 -48.5q0 -25 -20 -45l-117 -115q139 -182 139 -426q0 -193 -86 -348t-236.5 -241.5t-336.5 -86.5q-252 0 -435 156 l-108 -106q-25 -25 -55 -25q-27 0 -45.5 21t-18.5 51zM246 651q0 -181 86 -315l743 737q-134 115 -323 115q-143 0 -258 -66t-181.5 -189t-66.5 -282zM420 233q137 -118 332 -118q107 0 200 38.5t160.5 107.5t106 170t38.5 220q0 186 -90 322z" />
<glyph unicode="&#xd9;" horiz-adv-x="1536" d="M164 567v680q0 32 22.5 50t53.5 18q32 0 54.5 -18.5t22.5 -51.5v-686q0 -107 38.5 -194t103 -140t144 -81.5t165.5 -28.5t165.5 28.5t144 81.5t103 140t38.5 194v680q0 36 22.5 56t54.5 20q30 0 53 -19.5t23 -54.5v-674q0 -114 -34 -212t-92.5 -166.5t-136 -117.5 t-164 -72.5t-177.5 -23.5t-177.5 23.5t-164 72.5t-136 117.5t-92.5 166.5t-34 212zM616 1615q0 30 23.5 51t54.5 21q40 0 62 -35l153 -192q11 -16 11 -35q0 -25 -19.5 -44.5t-46.5 -19.5t-53 23l-166 184q-19 22 -19 47z" />
<glyph unicode="&#xda;" horiz-adv-x="1536" d="M164 567v680q0 32 22.5 50t53.5 18q32 0 54.5 -18.5t22.5 -51.5v-686q0 -107 38.5 -194t103 -140t144 -81.5t165.5 -28.5t165.5 28.5t144 81.5t103 140t38.5 194v680q0 36 22.5 56t54.5 20q30 0 53 -19.5t23 -54.5v-674q0 -114 -34 -212t-92.5 -166.5t-136 -117.5 t-164 -72.5t-177.5 -23.5t-177.5 23.5t-164 72.5t-136 117.5t-92.5 166.5t-34 212zM618 1423q0 19 11 35l149 182q25 37 66 37q28 0 49.5 -20t21.5 -46q0 -24 -18 -45l-166 -180q-25 -25 -53 -25q-26 0 -43 18.5t-17 43.5z" />
<glyph unicode="&#xdb;" horiz-adv-x="1536" d="M164 567v680q0 32 22.5 50t53.5 18q32 0 54.5 -18.5t22.5 -51.5v-686q0 -107 38.5 -194t103 -140t144 -81.5t165.5 -28.5t165.5 28.5t144 81.5t103 140t38.5 194v680q0 36 22.5 56t54.5 20q30 0 53 -19.5t23 -54.5v-674q0 -114 -34 -212t-92.5 -166.5t-136 -117.5 t-164 -72.5t-177.5 -23.5t-177.5 23.5t-164 72.5t-136 117.5t-92.5 166.5t-34 212zM528 1419q0 28 23 51l158 148q23 23 57 27q30 0 57 -27l160 -148q23 -23 23 -47t-19.5 -41.5t-46.5 -17.5q-24 0 -45 18l-129 115l-133 -117q-21 -18 -45 -18t-42 17t-18 40z" />
<glyph unicode="&#xdc;" horiz-adv-x="1536" d="M164 567v680q0 32 22.5 50t53.5 18q32 0 54.5 -18.5t22.5 -51.5v-686q0 -107 38.5 -194t103 -140t144 -81.5t165.5 -28.5t165.5 28.5t144 81.5t103 140t38.5 194v680q0 36 22.5 56t54.5 20q30 0 53 -19.5t23 -54.5v-674q0 -114 -34 -212t-92.5 -166.5t-136 -117.5 t-164 -72.5t-177.5 -23.5t-177.5 23.5t-164 72.5t-136 117.5t-92.5 166.5t-34 212zM494 1452q0 37 27.5 61.5t64.5 24.5q33 0 61.5 -25t28.5 -61q0 -44 -27.5 -67t-62.5 -23q-37 0 -64.5 25.5t-27.5 64.5zM854 1452q0 37 27.5 61.5t64.5 24.5q35 0 63.5 -24.5t28.5 -61.5 q0 -44 -27.5 -67t-64.5 -23t-64.5 25.5t-27.5 64.5z" />
<glyph unicode="&#xdd;" horiz-adv-x="1275" d="M37 1247q0 29 24 48.5t56 19.5q40 0 65 -35l457 -625l463 625q24 35 61 35q30 0 53 -19.5t23 -48.5q0 -21 -14 -41l-508 -680v-463q0 -36 -23.5 -55.5t-52.5 -19.5q-33 0 -54.5 19.5t-21.5 55.5v463l-512 678q-16 22 -16 43zM489 1423q0 19 11 35l149 182q25 37 66 37 q28 0 49.5 -19.5t21.5 -45.5q0 -24 -18 -45l-166 -181q-24 -24 -53 -24q-26 0 -43 18t-17 43z" />
<glyph unicode="&#xde;" horiz-adv-x="1292" d="M164 63v1178q0 25 15 42.5t37 22t43.5 0.5t36.5 -22t15 -45v-125h365q128 0 232 -41t168.5 -109t99 -152t34.5 -175q0 -93 -33.5 -173t-97.5 -141.5t-167.5 -97t-233.5 -35.5h-367v-124q0 -29 -15 -48.5t-37 -24t-43.5 0t-36.5 23.5t-15 46zM311 328h367q98 0 174 26.5 t120.5 71t66.5 98t20 113.5q-2 136 -106.5 238t-274.5 102h-367v-649z" />
<glyph unicode="&#xdf;" horiz-adv-x="1138" d="M143 -305v1274q0 81 24.5 144t64 101t93.5 62.5t107 33.5t111 9q59 0 114 -10t110 -35t95.5 -63t66 -100.5t25.5 -141.5t-52.5 -160t-127.5 -111q130 -33 201.5 -114t71.5 -203q0 -87 -28 -154t-74.5 -109.5t-112.5 -69.5t-135 -37.5t-150 -10.5h-117q-33 0 -51.5 19.5 t-18.5 46.5t19 47t51 20h117q350 0 350 248q0 77 -42.5 130.5t-111.5 77t-159 23.5h-158q-29 0 -44 20.5t-15 47.5q0 29 15 49.5t44 20.5h57q137 0 229.5 57t92.5 162q0 49 -16.5 87.5t-43 62.5t-62 39.5t-70.5 21.5t-72 6q-46 0 -87 -10t-79 -33.5t-60 -68t-22 -105.5 v-1274q0 -32 -23 -50t-53 -18t-52 18t-22 50z" />
<glyph unicode="&#xe0;" d="M92 514q0 155 72 279t194 192t269 68q106 0 191 -42t130 -122v80q0 33 22 51t54 18q30 0 52 -18t22 -51v-910q0 -34 -20.5 -52.5t-55.5 -18.5q-70 0 -70 71v97q-49 -89 -140.5 -135t-184.5 -46q-147 0 -269 68t-194 192t-72 279zM242 514q0 -178 110 -289.5t273 -111.5 q142 0 232.5 87.5t90.5 235.5v162q0 135 -92 226t-231 91q-163 0 -273 -111.5t-110 -289.5zM494 1425q0 30 23 51t54 21q40 0 62 -35l153 -192q11 -17 11 -35q0 -25 -19.5 -44.5t-46.5 -19.5t-53 23l-166 184q-18 21 -18 47z" />
<glyph unicode="&#xe1;" d="M92 514q0 155 72 279t194 192t269 68q106 0 191 -42t130 -122v80q0 33 22 51t54 18q30 0 52 -18t22 -51v-910q0 -34 -20.5 -52.5t-55.5 -18.5q-70 0 -70 71v97q-49 -89 -140.5 -135t-184.5 -46q-147 0 -269 68t-194 192t-72 279zM242 514q0 -178 110 -289.5t273 -111.5 q142 0 232.5 87.5t90.5 235.5v162q0 135 -92 226t-231 91q-163 0 -273 -111.5t-110 -289.5zM495 1233q0 19 11 35l149 182q25 37 66 37q28 0 49.5 -20t21.5 -46q0 -24 -18 -45l-166 -180q-25 -25 -53 -25q-26 0 -43 18.5t-17 43.5z" />
<glyph unicode="&#xe2;" d="M92 514q0 155 72 279t194 192t269 68q106 0 191 -42t130 -122v80q0 33 22 51t54 18q30 0 52 -18t22 -51v-910q0 -34 -20.5 -52.5t-55.5 -18.5q-70 0 -70 71v97q-49 -89 -140.5 -135t-184.5 -46q-147 0 -269 68t-194 192t-72 279zM242 514q0 -178 110 -289.5t273 -111.5 q142 0 232.5 87.5t90.5 235.5v162q0 135 -92 226t-231 91q-163 0 -273 -111.5t-110 -289.5zM405 1227q0 28 23 51l158 147q23 23 57 27q30 0 57 -27l160 -147q23 -23 23 -47q0 -25 -20 -42.5t-46 -17.5q-23 0 -45 19l-129 115l-133 -117q-22 -19 -45 -19t-41.5 17.5 t-18.5 40.5z" />
<glyph unicode="&#xe3;" d="M92 514q0 155 72 279t194 192t269 68q106 0 191 -42t130 -122v80q0 33 22 51t54 18q30 0 52 -18t22 -51v-910q0 -34 -20.5 -52.5t-55.5 -18.5q-70 0 -70 71v97q-49 -89 -140.5 -135t-184.5 -46q-147 0 -269 68t-194 192t-72 279zM242 514q0 -178 110 -289.5t273 -111.5 q142 0 232.5 87.5t90.5 235.5v162q0 135 -92 226t-231 91q-163 0 -273 -111.5t-110 -289.5zM356 1229q0 45 51.5 92t121.5 47q51 0 128.5 -39t100.5 -39q19 0 35 20t33 40t38 20q30 0 50 -19.5t20 -47.5q0 -34 -47 -83t-113 -49q-50 0 -92 18.5t-77.5 37t-69.5 18.5 q-25 0 -58.5 -37t-60.5 -37q-25 0 -42.5 16t-17.5 42z" />
<glyph unicode="&#xe4;" d="M92 514q0 155 72 279t194 192t269 68q106 0 191 -42t130 -122v80q0 33 22 51t54 18q30 0 52 -18t22 -51v-910q0 -34 -20.5 -52.5t-55.5 -18.5q-70 0 -70 71v97q-49 -89 -140.5 -135t-184.5 -46q-147 0 -269 68t-194 192t-72 279zM242 514q0 -178 110 -289.5t273 -111.5 q142 0 232.5 87.5t90.5 235.5v162q0 135 -92 226t-231 91q-163 0 -273 -111.5t-110 -289.5zM352 1262q0 37 27.5 61.5t64.5 24.5q33 0 62 -25t29 -61q0 -44 -28 -67.5t-63 -23.5q-36 0 -64 26t-28 65zM713 1262q0 37 27.5 61.5t64.5 24.5q35 0 63.5 -24.5t28.5 -61.5 q0 -44 -27.5 -67.5t-64.5 -23.5q-36 0 -64 26t-28 65z" />
<glyph unicode="&#xe5;" d="M92 514q0 155 72 279t194 192t269 68q106 0 191 -42t130 -122v80q0 33 22 51t54 18q30 0 52 -18t22 -51v-910q0 -34 -20.5 -52.5t-55.5 -18.5q-70 0 -70 71v97q-49 -89 -140.5 -135t-184.5 -46q-147 0 -269 68t-194 192t-72 279zM242 514q0 -178 110 -289.5t273 -111.5 q142 0 232.5 87.5t90.5 235.5v162q0 135 -92 226t-231 91q-163 0 -273 -111.5t-110 -289.5zM465 1276q0 72 52.5 122t127.5 50q74 0 126 -50t52 -122q0 -74 -52 -125t-126 -51q-75 0 -127.5 50.5t-52.5 125.5zM559 1276q0 -35 25.5 -60.5t60.5 -25.5t60.5 25.5t25.5 60.5 t-25.5 60.5t-60.5 25.5t-60.5 -25.5t-25.5 -60.5z" />
<glyph unicode="&#xe6;" horiz-adv-x="2093" d="M94 514q0 155 72 279t194 192t269 68q106 0 191 -42t130 -122v80q0 33 22 51t54 18q30 0 52 -18t22 -51v-72q146 156 383 156q139 0 254.5 -60t188.5 -174.5t85 -263.5v-10q0 -39 -23.5 -63t-68.5 -27l-801 -66q37 -122 132.5 -199t228.5 -77q186 0 297 108q31 27 63 27 q28 0 47 -18t19 -46q0 -29 -23 -55q-69 -75 -176 -114.5t-219 -39.5q-236 0 -387 154v-70q0 -34 -20.5 -52.5t-55.5 -18.5q-70 0 -70 71v97q-49 -89 -140.5 -135t-184.5 -46q-147 0 -269 68t-194 192t-72 279zM244 514q0 -178 110 -289.5t273 -111.5q142 0 232.5 87.5 t90.5 235.5v162q0 135 -92 226t-231 91q-163 0 -273 -111.5t-110 -289.5zM1100 514l766 61q-19 144 -123.5 242t-255.5 98q-122 0 -212 -57.5t-132.5 -147t-42.5 -196.5z" />
<glyph unicode="&#xe7;" horiz-adv-x="1136" d="M92 506q0 243 151 395t394 152q112 0 203.5 -42t173.5 -134q16 -19 16 -41q0 -27 -23 -48.5t-51 -21.5q-32 0 -51 25q-107 124 -284 124q-165 0 -271 -118t-106 -295q0 -164 112.5 -276.5t272.5 -112.5q89 0 168.5 33t130.5 102q20 26 51 26q28 0 51 -20t23 -47 q0 -25 -21 -49q-73 -90 -180 -136.5t-225 -46.5q-142 0 -263.5 65.5t-196.5 188.5t-75 277zM405 -301q0 27 18 43t42 16q28 0 51 -41q18 -31 54.5 -47t76.5 -16q42 0 69 19.5t27 54.5q0 37 -32.5 56t-77.5 19q-31 0 -51 -10l-54 57l47 150h121l-39 -106h19q79 0 129.5 -47.5 t50.5 -106.5q0 -89 -67 -137.5t-160 -48.5q-47 0 -97 15.5t-88.5 50t-38.5 79.5z" />
<glyph unicode="&#xe8;" horiz-adv-x="1232" d="M92 512q0 101 34 195.5t97.5 172.5t167.5 125.5t232 47.5q139 0 254.5 -60t188.5 -174.5t85 -263.5v-10q0 -39 -23.5 -63t-68.5 -27l-801 -66q37 -122 132 -199t228 -77q186 0 297 108q31 27 64 27q28 0 46.5 -18t18.5 -46q0 -30 -22 -55q-69 -75 -176 -114.5t-219 -39.5 q-229 0 -382 149.5t-153 387.5zM240 514l766 61q-19 144 -123.5 242t-255.5 98q-122 0 -212 -57.5t-132.5 -147t-42.5 -196.5zM465 1425q0 30 23.5 51t54.5 21q39 0 61 -35l154 -192q10 -15 10 -35q0 -25 -19.5 -44.5t-46.5 -19.5t-53 23l-166 184q-18 21 -18 47z" />
<glyph unicode="&#xe9;" horiz-adv-x="1232" d="M92 512q0 101 34 195.5t97.5 172.5t167.5 125.5t232 47.5q139 0 254.5 -60t188.5 -174.5t85 -263.5v-10q0 -39 -23.5 -63t-68.5 -27l-801 -66q37 -122 132 -199t228 -77q186 0 297 108q31 27 64 27q28 0 46.5 -18t18.5 -46q0 -30 -22 -55q-69 -75 -176 -114.5t-219 -39.5 q-229 0 -382 149.5t-153 387.5zM240 514l766 61q-19 144 -123.5 242t-255.5 98q-122 0 -212 -57.5t-132.5 -147t-42.5 -196.5zM466 1233q0 19 11 35l149 182q25 37 66 37q28 0 49.5 -20t21.5 -46q0 -24 -18 -45l-166 -180q-25 -25 -53 -25q-26 0 -43 18.5t-17 43.5z" />
<glyph unicode="&#xea;" horiz-adv-x="1232" d="M92 512q0 101 34 195.5t97.5 172.5t167.5 125.5t232 47.5q139 0 254.5 -60t188.5 -174.5t85 -263.5v-10q0 -39 -23.5 -63t-68.5 -27l-801 -66q37 -122 132 -199t228 -77q186 0 297 108q31 27 64 27q28 0 46.5 -18t18.5 -46q0 -30 -22 -55q-69 -75 -176 -114.5t-219 -39.5 q-229 0 -382 149.5t-153 387.5zM240 514l766 61q-19 144 -123.5 242t-255.5 98q-122 0 -212 -57.5t-132.5 -147t-42.5 -196.5zM376 1227q0 28 23 51l158 147q23 23 57 27q30 0 57 -27l160 -147q23 -23 23 -47q0 -25 -20 -42.5t-46 -17.5q-23 0 -45 19l-129 115l-133 -117 q-22 -19 -45 -19t-41.5 17.5t-18.5 40.5z" />
<glyph unicode="&#xeb;" horiz-adv-x="1232" d="M92 512q0 101 34 195.5t97.5 172.5t167.5 125.5t232 47.5q139 0 254.5 -60t188.5 -174.5t85 -263.5v-10q0 -39 -23.5 -63t-68.5 -27l-801 -66q37 -122 132 -199t228 -77q186 0 297 108q31 27 64 27q28 0 46.5 -18t18.5 -46q0 -30 -22 -55q-69 -75 -176 -114.5t-219 -39.5 q-229 0 -382 149.5t-153 387.5zM240 514l766 61q-19 144 -123.5 242t-255.5 98q-122 0 -212 -57.5t-132.5 -147t-42.5 -196.5zM352 1262q0 37 27.5 61.5t64.5 24.5q33 0 62 -25t29 -61q0 -44 -28 -67.5t-63 -23.5q-36 0 -64 26t-28 65zM713 1262q0 37 27.5 61.5t64.5 24.5 q35 0 63.5 -24.5t28.5 -61.5q0 -44 -27.5 -67.5t-64.5 -23.5q-36 0 -64 26t-28 65z" />
<glyph unicode="&#xec;" horiz-adv-x="436" d="M66 1425q0 30 23 51t54 21q40 0 62 -35l153 -192q11 -17 11 -35q0 -25 -19.5 -44.5t-46.5 -19.5t-53 23l-166 184q-18 21 -18 47zM143 55v918q0 32 23 49.5t53 17.5t52 -17t22 -48v-920q0 -32 -22 -49.5t-52 -17.5q-32 0 -54 17.5t-22 49.5z" />
<glyph unicode="&#xed;" horiz-adv-x="436" d="M69 1233q0 19 11 35l149 182q25 37 66 37q28 0 49.5 -20t21.5 -46q0 -24 -18 -45l-166 -180q-25 -25 -53 -25q-26 0 -43 18.5t-17 43.5zM143 55v918q0 32 23 49.5t53 17.5t52 -17t22 -48v-920q0 -32 -22 -49.5t-52 -17.5q-32 0 -54 17.5t-22 49.5z" />
<glyph unicode="&#xee;" horiz-adv-x="436" d="M-21 1227q0 28 23 51l158 147q23 23 57 27q30 0 57 -27l160 -147q23 -23 23 -47q0 -25 -20 -42.5t-46 -17.5q-23 0 -45 19l-129 115l-133 -117q-22 -19 -45 -19t-41.5 17.5t-18.5 40.5zM143 55v918q0 32 23 49.5t53 17.5t52 -17t22 -48v-920q0 -32 -22 -49.5t-52 -17.5 q-32 0 -54 17.5t-22 49.5z" />
<glyph unicode="&#xef;" horiz-adv-x="436" d="M-55 1262q0 37 27.5 61.5t64.5 24.5q33 0 61.5 -25t28.5 -61q0 -44 -27.5 -67.5t-62.5 -23.5q-36 0 -64 26t-28 65zM143 55v918q0 32 23 49.5t53 17.5t52 -17t22 -48v-920q0 -32 -22 -49.5t-52 -17.5q-32 0 -54 17.5t-22 49.5zM305 1262q0 37 27.5 61.5t64.5 24.5 q35 0 63.5 -24.5t28.5 -61.5q0 -44 -27.5 -67.5t-64.5 -23.5q-36 0 -64 26t-28 65z" />
<glyph unicode="&#xf0;" horiz-adv-x="1183" d="M92 518q0 100 38 190.5t104.5 157t160.5 105.5t201 39q104 0 201 -44.5t147 -136.5v129q0 119 -102 191l-43 -47q-24 -27 -54 -27q-25 0 -42 17.5t-17 40.5t21 47l36 39q-74 38 -159 38q-80 0 -158 -29.5t-133 -84.5q-23 -23 -51 -23q-26 0 -46 19t-20 45q0 28 23 51 q70 76 171.5 116t207.5 40q149 0 264 -66l53 59q20 23 49 23q27 0 47.5 -17.5t20.5 -41.5q0 -19 -19 -41l-53 -56q152 -117 152 -288v-537q0 -121 -65 -221t-171.5 -155.5t-228.5 -55.5q-145 0 -267 65.5t-195 186.5t-73 272zM246 518q0 -160 108.5 -273.5t272.5 -113.5 q127 0 223 84t96 213v119q0 65 -34 125.5t-86.5 102.5t-116 67.5t-121.5 25.5q-151 0 -246.5 -98t-95.5 -252z" />
<glyph unicode="&#xf1;" horiz-adv-x="1288" d="M143 59v492q0 145 67.5 260.5t181.5 178.5t251 63q138 0 252 -62t182 -177.5t68 -260.5v-494q0 -34 -19.5 -52.5t-54.5 -18.5q-34 0 -55 19t-21 52v496q0 147 -103 253.5t-249 106.5q-145 0 -247.5 -106.5t-102.5 -253.5v-496q0 -33 -21 -52t-55 -19q-35 0 -54.5 18.5 t-19.5 52.5zM354 1229q0 45 51.5 92t121.5 47q51 0 128.5 -39t100.5 -39q19 0 35 20t33 40t38 20q30 0 50 -19.5t20 -47.5q0 -34 -47 -83t-113 -49q-50 0 -92 18.5t-77.5 37t-69.5 18.5q-25 0 -58.5 -37t-60.5 -37q-25 0 -42.5 16t-17.5 42z" />
<glyph unicode="&#xf2;" horiz-adv-x="1253" d="M92 514q0 156 71.5 280t193.5 191.5t270 67.5t269.5 -67.5t193 -191.5t71.5 -280t-71.5 -280t-193 -191.5t-269.5 -67.5t-270 67.5t-193.5 191.5t-71.5 280zM244 514q0 -171 111 -286t272 -115t272 115t111 286t-111 286t-272 115t-272 -115t-111 -286zM475 1425 q0 30 23.5 51t54.5 21q39 0 61 -35l154 -192q10 -15 10 -35q0 -25 -19 -44.5t-46 -19.5q-28 0 -54 23l-165 184q-19 22 -19 47z" />
<glyph unicode="&#xf3;" horiz-adv-x="1253" d="M92 514q0 156 71.5 280t193.5 191.5t270 67.5t269.5 -67.5t193 -191.5t71.5 -280t-71.5 -280t-193 -191.5t-269.5 -67.5t-270 67.5t-193.5 191.5t-71.5 280zM244 514q0 -171 111 -286t272 -115t272 115t111 286t-111 286t-272 115t-272 -115t-111 -286zM477 1233 q0 19 11 35l149 182q25 37 66 37q28 0 49.5 -20t21.5 -46q0 -24 -18 -45l-166 -180q-25 -25 -53 -25q-26 0 -43 18.5t-17 43.5z" />
<glyph unicode="&#xf4;" horiz-adv-x="1253" d="M92 514q0 156 71.5 280t193.5 191.5t270 67.5t269.5 -67.5t193 -191.5t71.5 -280t-71.5 -280t-193 -191.5t-269.5 -67.5t-270 67.5t-193.5 191.5t-71.5 280zM244 514q0 -171 111 -286t272 -115t272 115t111 286t-111 286t-272 115t-272 -115t-111 -286zM387 1227 q0 28 23 51l158 147q23 23 57 27q30 0 57 -27l160 -147q23 -23 23 -47q0 -25 -20 -42.5t-46 -17.5q-23 0 -45 19l-129 115l-133 -117q-22 -19 -45 -19t-41.5 17.5t-18.5 40.5z" />
<glyph unicode="&#xf5;" horiz-adv-x="1253" d="M92 514q0 156 71.5 280t193.5 191.5t270 67.5t269.5 -67.5t193 -191.5t71.5 -280t-71.5 -280t-193 -191.5t-269.5 -67.5t-270 67.5t-193.5 191.5t-71.5 280zM244 514q0 -171 111 -286t272 -115t272 115t111 286t-111 286t-272 115t-272 -115t-111 -286zM337 1229 q0 45 51.5 92t121.5 47q51 0 128.5 -39t100.5 -39q19 0 35 20t33 40t38 20q30 0 50 -19.5t20 -47.5q0 -34 -47 -83t-113 -49q-50 0 -92 18.5t-77.5 37t-69.5 18.5q-25 0 -58.5 -37t-60.5 -37q-25 0 -42.5 16t-17.5 42z" />
<glyph unicode="&#xf6;" horiz-adv-x="1253" d="M92 514q0 156 71.5 280t193.5 191.5t270 67.5t269.5 -67.5t193 -191.5t71.5 -280t-71.5 -280t-193 -191.5t-269.5 -67.5t-270 67.5t-193.5 191.5t-71.5 280zM244 514q0 -171 111 -286t272 -115t272 115t111 286t-111 286t-272 115t-272 -115t-111 -286zM356 1262 q0 37 28 61.5t65 24.5q33 0 61.5 -25t28.5 -61q0 -44 -27.5 -67.5t-62.5 -23.5q-37 0 -65 26t-28 65zM717 1262q0 37 27.5 61.5t64.5 24.5q35 0 63.5 -24.5t28.5 -61.5q0 -44 -27.5 -67.5t-64.5 -23.5q-36 0 -64 26t-28 65z" />
<glyph unicode="&#xf7;" horiz-adv-x="1021" d="M92 414q0 30 17.5 51.5t46.5 21.5h706q31 0 49.5 -20.5t18.5 -48.5t-18 -49t-50 -21h-706q-30 0 -47 19.5t-17 46.5zM416 92q0 39 24.5 63.5t63.5 24.5q40 0 66 -25t26 -63t-26 -63t-66 -25q-39 0 -63.5 24.5t-24.5 63.5zM416 750q0 39 24.5 63.5t63.5 24.5q40 0 66 -25 t26 -63t-26 -62t-66 -24t-64 24t-24 62z" />
<glyph unicode="&#xf8;" horiz-adv-x="1292" d="M92 514q0 156 71.5 280t193.5 191.5t270 67.5q191 0 338 -115l71 68q34 32 74 18q28 -9 44 -36t7 -54q-7 -19 -18 -27l-78 -76q96 -140 96 -317q0 -156 -71.5 -280t-193 -191.5t-269.5 -67.5q-194 0 -338 113l-74 -70q-31 -25 -72 -14q-26 9 -39 33t-4 51q6 16 17 29 l76 71q-101 141 -101 326zM244 514q0 -124 59 -219l557 541q-102 79 -233 79q-161 0 -272 -115t-111 -286zM395 190q99 -77 232 -77q161 0 272 115t111 286q0 117 -56 211z" />
<glyph unicode="&#xf9;" horiz-adv-x="1288" d="M143 475v492q0 34 19.5 52.5t54.5 18.5q34 0 55 -19t21 -52v-494q0 -147 103 -253.5t249 -106.5q145 0 247.5 106.5t102.5 253.5v494q0 33 21 52t55 19q35 0 54.5 -18.5t19.5 -52.5v-490q0 -145 -67.5 -260.5t-181.5 -178.5t-251 -63q-138 0 -252 62t-182 177.5 t-68 260.5zM492 1425q0 30 23 51t54 21q40 0 62 -35l153 -192q11 -17 11 -35q0 -25 -19.5 -44.5t-46.5 -19.5t-53 23l-166 184q-18 21 -18 47z" />
<glyph unicode="&#xfa;" horiz-adv-x="1288" d="M143 475v492q0 34 19.5 52.5t54.5 18.5q34 0 55 -19t21 -52v-494q0 -147 103 -253.5t249 -106.5q145 0 247.5 106.5t102.5 253.5v494q0 33 21 52t55 19q35 0 54.5 -18.5t19.5 -52.5v-490q0 -145 -67.5 -260.5t-181.5 -178.5t-251 -63q-138 0 -252 62t-182 177.5 t-68 260.5zM495 1233q0 19 11 35l149 182q25 37 66 37q28 0 49.5 -20t21.5 -46q0 -24 -18 -45l-166 -180q-25 -25 -53 -25q-26 0 -43 18.5t-17 43.5z" />
<glyph unicode="&#xfb;" horiz-adv-x="1288" d="M143 475v492q0 34 19.5 52.5t54.5 18.5q34 0 55 -19t21 -52v-494q0 -147 103 -253.5t249 -106.5q145 0 247.5 106.5t102.5 253.5v494q0 33 21 52t55 19q35 0 54.5 -18.5t19.5 -52.5v-490q0 -145 -67.5 -260.5t-181.5 -178.5t-251 -63q-138 0 -252 62t-182 177.5 t-68 260.5zM405 1227q0 28 23 51l158 147q23 23 57 27q30 0 57 -27l160 -147q23 -23 23 -47q0 -25 -20 -42.5t-46 -17.5q-23 0 -45 19l-129 115l-133 -117q-22 -19 -45 -19t-41.5 17.5t-18.5 40.5z" />
<glyph unicode="&#xfc;" horiz-adv-x="1288" d="M143 475v492q0 34 19.5 52.5t54.5 18.5q34 0 55 -19t21 -52v-494q0 -147 103 -253.5t249 -106.5q145 0 247.5 106.5t102.5 253.5v494q0 33 21 52t55 19q35 0 54.5 -18.5t19.5 -52.5v-490q0 -145 -67.5 -260.5t-181.5 -178.5t-251 -63q-138 0 -252 62t-182 177.5 t-68 260.5zM373 1262q0 37 27.5 61.5t64.5 24.5q33 0 61.5 -25t28.5 -61q0 -44 -27.5 -67.5t-62.5 -23.5q-36 0 -64 26t-28 65zM733 1262q0 37 27.5 61.5t64.5 24.5q36 0 64.5 -24.5t28.5 -61.5q0 -44 -28 -67.5t-65 -23.5q-36 0 -64 26t-28 65z" />
<glyph unicode="&#xfd;" horiz-adv-x="1161" d="M51 965q0 30 25 51.5t57 21.5q42 0 64 -43l387 -772l383 774q20 41 63 41q32 0 56 -19.5t24 -49.5q0 -19 -4 -27l-635 -1259q-25 -52 -76 -52q-29 0 -50 19t-21 49q0 19 8 35l166 338l-441 864q-6 15 -6 29zM499 1233q0 19 11 35l149 182q25 37 66 37q28 0 49.5 -20 t21.5 -46q0 -24 -18 -45l-166 -180q-25 -25 -53 -25q-26 0 -43 18.5t-17 43.5z" />
<glyph unicode="&#xfe;" d="M143 -301v1591q0 34 20.5 53t55.5 19q70 0 70 -72v-418q49 89 140.5 135t184.5 46q147 0 269 -68t194 -192t72 -279t-72 -279t-194 -192t-269 -68q-106 0 -191 42t-130 122v-440q0 -33 -22 -51.5t-54 -18.5q-30 0 -52 18.5t-22 51.5zM293 430q0 -135 92 -226t231 -91 q163 0 272 111.5t109 289.5t-109 289.5t-272 111.5q-142 0 -232.5 -87.5t-90.5 -235.5v-162z" />
<glyph unicode="&#xff;" horiz-adv-x="1161" d="M51 965q0 30 25 51.5t57 21.5q42 0 64 -43l387 -772l383 774q20 41 63 41q32 0 56 -19.5t24 -49.5q0 -19 -4 -27l-635 -1259q-25 -52 -76 -52q-29 0 -50 19t-21 49q0 19 8 35l166 338l-441 864q-6 15 -6 29zM286 1262q0 37 28 61.5t65 24.5q33 0 61.5 -25t28.5 -61 q0 -44 -27.5 -67.5t-62.5 -23.5q-37 0 -65 26t-28 65zM647 1262q0 37 27.5 61.5t64.5 24.5q35 0 63.5 -24.5t28.5 -61.5q0 -44 -27.5 -67.5t-64.5 -23.5q-36 0 -64 26t-28 65z" />
<glyph unicode="&#x152;" horiz-adv-x="2127" d="M94 674q4 160 68 296.5t185 231t280 119.5q66 8 110 8q247 0 365 -137q0 111 94 111h784q23 0 40 -14t21.5 -34t1.5 -40t-20.5 -34t-44.5 -14h-733v-454h694q28 0 44 -21t16.5 -46.5t-15.5 -46.5t-45 -21h-694v-439h733q30 0 47 -21.5t17.5 -48t-17 -48t-47.5 -21.5h-778 q-43 0 -70.5 29t-27.5 88q-54 -72 -150.5 -106t-201.5 -34q-134 0 -254.5 49t-211 137t-142.5 220.5t-48 290.5zM244 668q-3 -121 37 -226t109.5 -175.5t163 -111t196.5 -40.5q218 0 352 137v801q-154 137 -363 137q-41 0 -88 -6h-2q-122 -19 -213.5 -94t-139.5 -184.5 t-52 -237.5z" />
<glyph unicode="&#x153;" horiz-adv-x="2154" d="M92 514q0 156 71.5 280t193.5 191.5t270 67.5q147 0 269 -68t191 -188q65 117 181 186.5t276 69.5q139 0 254.5 -60t189 -174.5t85.5 -263.5v-10q0 -39 -24 -63t-69 -27l-800 -66q37 -122 132 -199t228 -77q186 0 297 108q31 27 64 27q28 0 46.5 -18t18.5 -46 q0 -30 -22 -55q-69 -75 -176 -114.5t-220 -39.5q-151 0 -272.5 67t-190.5 187q-69 -119 -190 -186.5t-268 -67.5q-148 0 -270 67.5t-193.5 191.5t-71.5 280zM244 514q0 -171 111 -286t272 -115t272 115t111 286t-111 286t-272 115t-272 -115t-111 -286zM1161 514l766 61 q-19 144 -123.5 242t-255.5 98q-177 0 -279.5 -112.5t-107.5 -274.5v-14z" />
<glyph unicode="&#x178;" horiz-adv-x="1275" d="M37 1247q0 29 24 48.5t56 19.5q40 0 65 -35l457 -625l463 625q24 35 61 35q30 0 53 -19.5t23 -48.5q0 -21 -14 -41l-508 -680v-463q0 -36 -23.5 -55.5t-52.5 -19.5q-33 0 -54.5 19.5t-21.5 55.5v463l-512 678q-16 22 -16 43zM344 1452q0 37 27.5 61.5t64.5 24.5 q33 0 61.5 -25t28.5 -61q0 -44 -27.5 -67t-62.5 -23q-37 0 -64.5 25.5t-27.5 64.5zM705 1452q0 37 27.5 61.5t64.5 24.5q35 0 63.5 -24.5t28.5 -61.5q0 -44 -27.5 -67t-64.5 -23t-64.5 25.5t-27.5 64.5z" />
<glyph unicode="&#x2c6;" horiz-adv-x="518" d="M20 1227q0 28 23 51l158 147q23 23 57 27q30 0 57 -27l160 -147q23 -23 23 -47q0 -25 -20 -42.5t-46 -17.5q-23 0 -45 19l-129 115l-133 -117q-22 -19 -45 -19t-41.5 17.5t-18.5 40.5z" />
<glyph unicode="&#x2dc;" horiz-adv-x="618" d="M20 1229q0 45 51.5 92t121.5 47q51 0 128.5 -39t100.5 -39q19 0 35 20t33 40t38 20q30 0 50 -19.5t20 -47.5q0 -34 -47 -83t-113 -49q-50 0 -92 18.5t-77.5 37t-69.5 18.5q-25 0 -58.5 -37t-60.5 -37q-25 0 -42.5 16t-17.5 42z" />
<glyph unicode="&#x2000;" horiz-adv-x="844" />
<glyph unicode="&#x2001;" horiz-adv-x="1688" />
<glyph unicode="&#x2002;" horiz-adv-x="844" />
<glyph unicode="&#x2003;" horiz-adv-x="1688" />
<glyph unicode="&#x2004;" horiz-adv-x="562" />
<glyph unicode="&#x2005;" horiz-adv-x="422" />
<glyph unicode="&#x2006;" horiz-adv-x="281" />
<glyph unicode="&#x2007;" horiz-adv-x="281" />
<glyph unicode="&#x2008;" horiz-adv-x="211" />
<glyph unicode="&#x2009;" horiz-adv-x="337" />
<glyph unicode="&#x200a;" horiz-adv-x="93" />
<glyph unicode="&#x2010;" horiz-adv-x="747" d="M88 606q0 28 20.5 49t55.5 21h414q36 0 56.5 -21t20.5 -49t-19.5 -47.5t-57.5 -19.5h-414q-36 0 -56 19.5t-20 47.5z" />
<glyph unicode="&#x2011;" horiz-adv-x="747" d="M88 606q0 28 20.5 49t55.5 21h414q36 0 56.5 -21t20.5 -49t-19.5 -47.5t-57.5 -19.5h-414q-36 0 -56 19.5t-20 47.5z" />
<glyph unicode="&#x2012;" horiz-adv-x="747" d="M88 606q0 28 20.5 49t55.5 21h414q36 0 56.5 -21t20.5 -49t-19.5 -47.5t-57.5 -19.5h-414q-36 0 -56 19.5t-20 47.5z" />
<glyph unicode="&#x2013;" horiz-adv-x="1130" d="M20 610q0 29 20 50.5t54 21.5h950q30 0 48 -22t18 -50t-17 -47.5t-49 -19.5h-948q-36 0 -56 20t-20 47z" />
<glyph unicode="&#x2014;" horiz-adv-x="1316" d="M20 608q0 30 17.5 52t46.5 22h1145q31 0 49 -21t18 -49t-17.5 -48.5t-49.5 -20.5h-1145q-30 0 -47 19t-17 46z" />
<glyph unicode="&#x2018;" horiz-adv-x="415" d="M102 1090l93 192q21 42 58 44.5t58.5 -28.5t3.5 -71l-84 -197q-19 -42 -60.5 -43.5t-65.5 31t-3 72.5z" />
<glyph unicode="&#x2019;" horiz-adv-x="415" d="M100 1087l84 197q19 42 60.5 43.5t65.5 -30.5t3 -72l-92 -193q-21 -42 -58.5 -44.5t-59 28.5t-3.5 71z" />
<glyph unicode="&#x201a;" horiz-adv-x="415" d="M94 -150.5q-4 22.5 6 46.5l84 196q19 42 60.5 43.5t65.5 -30.5t3 -72l-92 -193q-13 -26 -33.5 -37t-39 -6.5t-34.5 17.5t-20 35.5z" />
<glyph unicode="&#x201c;" horiz-adv-x="655" d="M102 1090l93 192q13 26 34 38t39.5 8.5t34.5 -15.5t19.5 -35.5t-7.5 -50.5l-84 -197q-19 -42 -60.5 -43.5t-65.5 31t-3 72.5zM342 1090l96 186q12 25 31.5 36t38 8t34 -14.5t19.5 -33t-6 -45.5l-84 -197q-19 -42 -60.5 -43.5t-65.5 31t-3 72.5z" />
<glyph unicode="&#x201d;" horiz-adv-x="655" d="M94 1033.5q-4 21.5 6 45.5l84 197q19 42 60.5 43.5t65.5 -30.5t3 -72l-96 -187q-12 -25 -31.5 -36t-38 -8t-34 14.5t-19.5 33zM332.5 1028.5q-3.5 23.5 7.5 50.5l84 197q19 42 60.5 43.5t65.5 -30.5t3 -72l-92 -193q-13 -26 -34 -38t-40 -8.5t-35 15.5t-19.5 35.5z" />
<glyph unicode="&#x201e;" horiz-adv-x="673" d="M94 -150.5q-4 22.5 6 46.5l84 196q19 42 60.5 43.5t65.5 -30.5t3 -72l-92 -193q-13 -26 -33.5 -37t-39 -6.5t-34.5 17.5t-20 35.5zM352 -150.5q-4 22.5 6 46.5l84 196q19 42 60.5 43.5t65.5 -30.5t3 -72l-92 -193q-13 -26 -33.5 -37t-39 -6.5t-34.5 17.5t-20 35.5z" />
<glyph unicode="&#x2022;" horiz-adv-x="528" d="M92 608q0 71 50 120.5t120 49.5q75 0 124.5 -49t49.5 -121q0 -70 -50 -119t-124 -49q-69 0 -119.5 49.5t-50.5 118.5z" />
<glyph unicode="&#x2026;" horiz-adv-x="901" d="M92 88q0 38 26 61t66 23t64 -23t24 -61q0 -39 -24.5 -63.5t-63.5 -24.5q-40 0 -66 25t-26 63zM360 88q0 38 25.5 61t65.5 23t65 -23t25 -61t-25 -63t-65 -25t-65.5 25t-25.5 63zM629 88q0 38 24 61t64 23t66 -23t26 -61t-26 -63t-66 -25q-39 0 -63.5 24.5t-24.5 63.5z " />
<glyph unicode="&#x202f;" horiz-adv-x="337" />
<glyph unicode="&#x2039;" horiz-adv-x="698" d="M94 530q0 31 33 64l352 340q20 20 51 20q35 0 55.5 -19.5t20.5 -51.5q0 -29 -20 -47l-328 -306l322 -301q26 -23 26 -53q0 -29 -21 -49.5t-55 -20.5q-30 0 -53 23l-352 340q-31 31 -31 61z" />
<glyph unicode="&#x203a;" horiz-adv-x="698" d="M94 176q0 29 27 53l321 301l-327 306q-21 19 -21 47q0 32 20.5 51.5t55.5 19.5q31 0 51 -20l352 -340q33 -33 33 -64q0 -30 -31 -61l-352 -340q-23 -23 -53 -23q-34 0 -55 20.5t-21 49.5z" />
<glyph unicode="&#x205f;" horiz-adv-x="422" />
<glyph unicode="&#x20ac;" horiz-adv-x="1370" d="M27 492q0 28 14.5 48.5t38.5 20.5h61q-2 25 -2 78q0 51 6 104h-65q-26 0 -39.5 17.5t-13.5 42.5q0 28 14.5 48.5t38.5 20.5h94q65 197 223.5 314t366.5 117q139 0 264.5 -50t216.5 -149q19 -22 19 -43q0 -27 -23 -48.5t-51 -21.5q-22 0 -45 23q-139 151 -379 151 q-149 0 -265.5 -78t-172.5 -215h364q29 0 47.5 -20.5t18.5 -46.5q0 -25 -17 -43.5t-49 -18.5h-399q-8 -47 -8 -104q0 -53 4 -78h403q29 0 47.5 -20.5t18.5 -46.5q0 -25 -17 -43.5t-49 -18.5h-375q52 -149 173 -234t278 -85q105 0 215 52t176 142q18 27 49 27q29 0 52.5 -21 t23.5 -49q0 -17 -10 -37q-82 -117 -224 -184.5t-282 -67.5q-217 0 -380 125t-222 332h-86q-26 0 -39.5 17.5t-13.5 42.5z" />
<glyph unicode="&#x2122;" horiz-adv-x="1472" d="M92 1247q0 24 14 43t39 19h418q30 0 49 -20.5t19 -45.5q0 -24 -18.5 -41.5t-49.5 -17.5h-143v-400q0 -30 -19.5 -46.5t-46.5 -16.5q-25 0 -44.5 16.5t-22.5 46.5v400h-142q-24 0 -38.5 18.5t-14.5 44.5zM756 786v459q0 31 18.5 50.5t44.5 19.5q42 0 62 -39l186 -262 l186 262q20 39 62 39q26 0 45.5 -19.5t19.5 -50.5v-459q0 -30 -17.5 -44.5t-43.5 -14.5q-29 0 -51.5 16.5t-22.5 42.5v277l-123 -191v-2q-20 -39 -53 -39q-14 0 -31 13t-30 37l-117 182v-277q0 -27 -22.5 -43t-53.5 -16q-26 0 -42.5 14.5t-16.5 44.5z" />
<glyph unicode="&#xe000;" horiz-adv-x="1034" d="M0 0v1034h1034v-1034h-1034z" />
</font>
</defs>
</svg>
